<?xml version="1.0" encoding="utf-8" standalone="no"?>
<!DOCTYPE svg PUBLIC "-//W3C//DTD SVG 1.1//EN"
  "http://www.w3.org/Graphics/SVG/1.1/DTD/svg11.dtd">
<!-- Created with matplotlib (http://matplotlib.org/) -->
<svg height="345.6pt" version="1.1" viewBox="0 0 460.8 345.6" width="460.8pt" xmlns="http://www.w3.org/2000/svg" xmlns:xlink="http://www.w3.org/1999/xlink">
 <defs>
  <style type="text/css">
*{stroke-linecap:butt;stroke-linejoin:round;}
  </style>
 </defs>
 <g id="figure_1">
  <g id="patch_1">
   <path d="M 0 345.6 
L 460.8 345.6 
L 460.8 0 
L 0 0 
z
" style="fill:#f0f0f0;"/>
  </g>
  <g id="axes_1">
   <g id="patch_2">
    <path d="M 39.054 286.692 
L 452.6886 286.692 
L 452.6886 108.23428 
L 39.054 108.23428 
z
" style="fill:#f0f0f0;"/>
   </g>
   <g id="matplotlib.axis_1">
    <g id="xtick_1">
     <g id="line2d_1">
      <path clip-path="url(#pffeb5e7532)" d="M 39.054 286.692 
L 39.054 108.23428 
" style="fill:none;stroke:#cbcbcb;"/>
     </g>
     <g id="line2d_2"/>
     <g id="text_1">
      <!-- 08 -->
      <defs>
       <path d="M 31.78125 66.40625 
Q 24.171875 66.40625 20.328125 58.90625 
Q 16.5 51.421875 16.5 36.375 
Q 16.5 21.390625 20.328125 13.890625 
Q 24.171875 6.390625 31.78125 6.390625 
Q 39.453125 6.390625 43.28125 13.890625 
Q 47.125 21.390625 47.125 36.375 
Q 47.125 51.421875 43.28125 58.90625 
Q 39.453125 66.40625 31.78125 66.40625 
z
M 31.78125 74.21875 
Q 44.046875 74.21875 50.515625 64.515625 
Q 56.984375 54.828125 56.984375 36.375 
Q 56.984375 17.96875 50.515625 8.265625 
Q 44.046875 -1.421875 31.78125 -1.421875 
Q 19.53125 -1.421875 13.0625 8.265625 
Q 6.59375 17.96875 6.59375 36.375 
Q 6.59375 54.828125 13.0625 64.515625 
Q 19.53125 74.21875 31.78125 74.21875 
z
" id="DejaVuSans-30"/>
       <path d="M 31.78125 34.625 
Q 24.75 34.625 20.71875 30.859375 
Q 16.703125 27.09375 16.703125 20.515625 
Q 16.703125 13.921875 20.71875 10.15625 
Q 24.75 6.390625 31.78125 6.390625 
Q 38.8125 6.390625 42.859375 10.171875 
Q 46.921875 13.96875 46.921875 20.515625 
Q 46.921875 27.09375 42.890625 30.859375 
Q 38.875 34.625 31.78125 34.625 
z
M 21.921875 38.8125 
Q 15.578125 40.375 12.03125 44.71875 
Q 8.5 49.078125 8.5 55.328125 
Q 8.5 64.0625 14.71875 69.140625 
Q 20.953125 74.21875 31.78125 74.21875 
Q 42.671875 74.21875 48.875 69.140625 
Q 55.078125 64.0625 55.078125 55.328125 
Q 55.078125 49.078125 51.53125 44.71875 
Q 48 40.375 41.703125 38.8125 
Q 48.828125 37.15625 52.796875 32.3125 
Q 56.78125 27.484375 56.78125 20.515625 
Q 56.78125 9.90625 50.3125 4.234375 
Q 43.84375 -1.421875 31.78125 -1.421875 
Q 19.734375 -1.421875 13.25 4.234375 
Q 6.78125 9.90625 6.78125 20.515625 
Q 6.78125 27.484375 10.78125 32.3125 
Q 14.796875 37.15625 21.921875 38.8125 
z
M 18.3125 54.390625 
Q 18.3125 48.734375 21.84375 45.5625 
Q 25.390625 42.390625 31.78125 42.390625 
Q 38.140625 42.390625 41.71875 45.5625 
Q 45.3125 48.734375 45.3125 54.390625 
Q 45.3125 60.0625 41.71875 63.234375 
Q 38.140625 66.40625 31.78125 66.40625 
Q 25.390625 66.40625 21.84375 63.234375 
Q 18.3125 60.0625 18.3125 54.390625 
z
" id="DejaVuSans-38"/>
      </defs>
      <g transform="translate(31.634053 299.053298)scale(0.11662 -0.11662)">
       <use xlink:href="#DejaVuSans-30"/>
       <use x="63.623047" xlink:href="#DejaVuSans-38"/>
      </g>
      <!-- Aug -->
      <defs>
       <path d="M 34.1875 63.1875 
L 20.796875 26.90625 
L 47.609375 26.90625 
z
M 28.609375 72.90625 
L 39.796875 72.90625 
L 67.578125 0 
L 57.328125 0 
L 50.6875 18.703125 
L 17.828125 18.703125 
L 11.1875 0 
L 0.78125 0 
z
" id="DejaVuSans-41"/>
       <path d="M 8.5 21.578125 
L 8.5 54.6875 
L 17.484375 54.6875 
L 17.484375 21.921875 
Q 17.484375 14.15625 20.5 10.265625 
Q 23.53125 6.390625 29.59375 6.390625 
Q 36.859375 6.390625 41.078125 11.03125 
Q 45.3125 15.671875 45.3125 23.6875 
L 45.3125 54.6875 
L 54.296875 54.6875 
L 54.296875 0 
L 45.3125 0 
L 45.3125 8.40625 
Q 42.046875 3.421875 37.71875 1 
Q 33.40625 -1.421875 27.6875 -1.421875 
Q 18.265625 -1.421875 13.375 4.4375 
Q 8.5 10.296875 8.5 21.578125 
z
M 31.109375 56 
z
" id="DejaVuSans-75"/>
       <path d="M 45.40625 27.984375 
Q 45.40625 37.75 41.375 43.109375 
Q 37.359375 48.484375 30.078125 48.484375 
Q 22.859375 48.484375 18.828125 43.109375 
Q 14.796875 37.75 14.796875 27.984375 
Q 14.796875 18.265625 18.828125 12.890625 
Q 22.859375 7.515625 30.078125 7.515625 
Q 37.359375 7.515625 41.375 12.890625 
Q 45.40625 18.265625 45.40625 27.984375 
z
M 54.390625 6.78125 
Q 54.390625 -7.171875 48.1875 -13.984375 
Q 42 -20.796875 29.203125 -20.796875 
Q 24.46875 -20.796875 20.265625 -20.09375 
Q 16.0625 -19.390625 12.109375 -17.921875 
L 12.109375 -9.1875 
Q 16.0625 -11.328125 19.921875 -12.34375 
Q 23.78125 -13.375 27.78125 -13.375 
Q 36.625 -13.375 41.015625 -8.765625 
Q 45.40625 -4.15625 45.40625 5.171875 
L 45.40625 9.625 
Q 42.625 4.78125 38.28125 2.390625 
Q 33.9375 0 27.875 0 
Q 17.828125 0 11.671875 7.65625 
Q 5.515625 15.328125 5.515625 27.984375 
Q 5.515625 40.671875 11.671875 48.328125 
Q 17.828125 56 27.875 56 
Q 33.9375 56 38.28125 53.609375 
Q 42.625 51.21875 45.40625 46.390625 
L 45.40625 54.6875 
L 54.390625 54.6875 
z
" id="DejaVuSans-67"/>
      </defs>
      <g transform="translate(27.668061 312.112187)scale(0.11662 -0.11662)">
       <use xlink:href="#DejaVuSans-41"/>
       <use x="68.408203" xlink:href="#DejaVuSans-75"/>
       <use x="131.787109" xlink:href="#DejaVuSans-67"/>
      </g>
      <!-- 2016 -->
      <defs>
       <path d="M 19.1875 8.296875 
L 53.609375 8.296875 
L 53.609375 0 
L 7.328125 0 
L 7.328125 8.296875 
Q 12.9375 14.109375 22.625 23.890625 
Q 32.328125 33.6875 34.8125 36.53125 
Q 39.546875 41.84375 41.421875 45.53125 
Q 43.3125 49.21875 43.3125 52.78125 
Q 43.3125 58.59375 39.234375 62.25 
Q 35.15625 65.921875 28.609375 65.921875 
Q 23.96875 65.921875 18.8125 64.3125 
Q 13.671875 62.703125 7.8125 59.421875 
L 7.8125 69.390625 
Q 13.765625 71.78125 18.9375 73 
Q 24.125 74.21875 28.421875 74.21875 
Q 39.75 74.21875 46.484375 68.546875 
Q 53.21875 62.890625 53.21875 53.421875 
Q 53.21875 48.921875 51.53125 44.890625 
Q 49.859375 40.875 45.40625 35.40625 
Q 44.1875 33.984375 37.640625 27.21875 
Q 31.109375 20.453125 19.1875 8.296875 
z
" id="DejaVuSans-32"/>
       <path d="M 12.40625 8.296875 
L 28.515625 8.296875 
L 28.515625 63.921875 
L 10.984375 60.40625 
L 10.984375 69.390625 
L 28.421875 72.90625 
L 38.28125 72.90625 
L 38.28125 8.296875 
L 54.390625 8.296875 
L 54.390625 0 
L 12.40625 0 
z
" id="DejaVuSans-31"/>
       <path d="M 33.015625 40.375 
Q 26.375 40.375 22.484375 35.828125 
Q 18.609375 31.296875 18.609375 23.390625 
Q 18.609375 15.53125 22.484375 10.953125 
Q 26.375 6.390625 33.015625 6.390625 
Q 39.65625 6.390625 43.53125 10.953125 
Q 47.40625 15.53125 47.40625 23.390625 
Q 47.40625 31.296875 43.53125 35.828125 
Q 39.65625 40.375 33.015625 40.375 
z
M 52.59375 71.296875 
L 52.59375 62.3125 
Q 48.875 64.0625 45.09375 64.984375 
Q 41.3125 65.921875 37.59375 65.921875 
Q 27.828125 65.921875 22.671875 59.328125 
Q 17.53125 52.734375 16.796875 39.40625 
Q 19.671875 43.65625 24.015625 45.921875 
Q 28.375 48.1875 33.59375 48.1875 
Q 44.578125 48.1875 50.953125 41.515625 
Q 57.328125 34.859375 57.328125 23.390625 
Q 57.328125 12.15625 50.6875 5.359375 
Q 44.046875 -1.421875 33.015625 -1.421875 
Q 20.359375 -1.421875 13.671875 8.265625 
Q 6.984375 17.96875 6.984375 36.375 
Q 6.984375 53.65625 15.1875 63.9375 
Q 23.390625 74.21875 37.203125 74.21875 
Q 40.921875 74.21875 44.703125 73.484375 
Q 48.484375 72.75 52.59375 71.296875 
z
" id="DejaVuSans-36"/>
      </defs>
      <g transform="translate(24.214105 325.171076)scale(0.11662 -0.11662)">
       <use xlink:href="#DejaVuSans-32"/>
       <use x="63.623047" xlink:href="#DejaVuSans-30"/>
       <use x="127.246094" xlink:href="#DejaVuSans-31"/>
       <use x="190.869141" xlink:href="#DejaVuSans-36"/>
      </g>
     </g>
    </g>
    <g id="xtick_2">
     <g id="line2d_3">
      <path clip-path="url(#pffeb5e7532)" d="M 452.6886 286.692 
L 452.6886 108.23428 
" style="fill:none;stroke:#cbcbcb;"/>
     </g>
     <g id="line2d_4"/>
    </g>
    <g id="xtick_3">
     <g id="line2d_5"/>
    </g>
    <g id="xtick_4">
     <g id="line2d_6"/>
     <g id="text_2">
      <!-- 09 -->
      <defs>
       <path d="M 10.984375 1.515625 
L 10.984375 10.5 
Q 14.703125 8.734375 18.5 7.8125 
Q 22.3125 6.890625 25.984375 6.890625 
Q 35.75 6.890625 40.890625 13.453125 
Q 46.046875 20.015625 46.78125 33.40625 
Q 43.953125 29.203125 39.59375 26.953125 
Q 35.25 24.703125 29.984375 24.703125 
Q 19.046875 24.703125 12.671875 31.3125 
Q 6.296875 37.9375 6.296875 49.421875 
Q 6.296875 60.640625 12.9375 67.421875 
Q 19.578125 74.21875 30.609375 74.21875 
Q 43.265625 74.21875 49.921875 64.515625 
Q 56.59375 54.828125 56.59375 36.375 
Q 56.59375 19.140625 48.40625 8.859375 
Q 40.234375 -1.421875 26.421875 -1.421875 
Q 22.703125 -1.421875 18.890625 -0.6875 
Q 15.09375 0.046875 10.984375 1.515625 
z
M 30.609375 32.421875 
Q 37.25 32.421875 41.125 36.953125 
Q 45.015625 41.5 45.015625 49.421875 
Q 45.015625 57.28125 41.125 61.84375 
Q 37.25 66.40625 30.609375 66.40625 
Q 23.96875 66.40625 20.09375 61.84375 
Q 16.21875 57.28125 16.21875 49.421875 
Q 16.21875 41.5 20.09375 36.953125 
Q 23.96875 32.421875 30.609375 32.421875 
z
" id="DejaVuSans-39"/>
      </defs>
      <g transform="translate(77.646708 298.953298)scale(0.11662 -0.11662)">
       <use xlink:href="#DejaVuSans-30"/>
       <use x="63.623047" xlink:href="#DejaVuSans-39"/>
      </g>
     </g>
    </g>
    <g id="xtick_5">
     <g id="line2d_7"/>
     <g id="text_3">
      <!-- 10 -->
      <g transform="translate(123.659363 298.953298)scale(0.11662 -0.11662)">
       <use xlink:href="#DejaVuSans-31"/>
       <use x="63.623047" xlink:href="#DejaVuSans-30"/>
      </g>
     </g>
    </g>
    <g id="xtick_6">
     <g id="line2d_8"/>
     <g id="text_4">
      <!-- 11 -->
      <g transform="translate(169.672019 298.953298)scale(0.11662 -0.11662)">
       <use xlink:href="#DejaVuSans-31"/>
       <use x="63.623047" xlink:href="#DejaVuSans-31"/>
      </g>
     </g>
    </g>
    <g id="xtick_7">
     <g id="line2d_9"/>
     <g id="text_5">
      <!-- 12 -->
      <g transform="translate(215.684674 298.953298)scale(0.11662 -0.11662)">
       <use xlink:href="#DejaVuSans-31"/>
       <use x="63.623047" xlink:href="#DejaVuSans-32"/>
      </g>
     </g>
    </g>
    <g id="xtick_8">
     <g id="line2d_10"/>
     <g id="text_6">
      <!-- 13 -->
      <defs>
       <path d="M 40.578125 39.3125 
Q 47.65625 37.796875 51.625 33 
Q 55.609375 28.21875 55.609375 21.1875 
Q 55.609375 10.40625 48.1875 4.484375 
Q 40.765625 -1.421875 27.09375 -1.421875 
Q 22.515625 -1.421875 17.65625 -0.515625 
Q 12.796875 0.390625 7.625 2.203125 
L 7.625 11.71875 
Q 11.71875 9.328125 16.59375 8.109375 
Q 21.484375 6.890625 26.8125 6.890625 
Q 36.078125 6.890625 40.9375 10.546875 
Q 45.796875 14.203125 45.796875 21.1875 
Q 45.796875 27.640625 41.28125 31.265625 
Q 36.765625 34.90625 28.71875 34.90625 
L 20.21875 34.90625 
L 20.21875 43.015625 
L 29.109375 43.015625 
Q 36.375 43.015625 40.234375 45.921875 
Q 44.09375 48.828125 44.09375 54.296875 
Q 44.09375 59.90625 40.109375 62.90625 
Q 36.140625 65.921875 28.71875 65.921875 
Q 24.65625 65.921875 20.015625 65.03125 
Q 15.375 64.15625 9.8125 62.3125 
L 9.8125 71.09375 
Q 15.4375 72.65625 20.34375 73.4375 
Q 25.25 74.21875 29.59375 74.21875 
Q 40.828125 74.21875 47.359375 69.109375 
Q 53.90625 64.015625 53.90625 55.328125 
Q 53.90625 49.265625 50.4375 45.09375 
Q 46.96875 40.921875 40.578125 39.3125 
z
" id="DejaVuSans-33"/>
      </defs>
      <g transform="translate(261.697329 298.953298)scale(0.11662 -0.11662)">
       <use xlink:href="#DejaVuSans-31"/>
       <use x="63.623047" xlink:href="#DejaVuSans-33"/>
      </g>
     </g>
    </g>
    <g id="xtick_9">
     <g id="line2d_11"/>
     <g id="text_7">
      <!-- 14 -->
      <defs>
       <path d="M 37.796875 64.3125 
L 12.890625 25.390625 
L 37.796875 25.390625 
z
M 35.203125 72.90625 
L 47.609375 72.90625 
L 47.609375 25.390625 
L 58.015625 25.390625 
L 58.015625 17.1875 
L 47.609375 17.1875 
L 47.609375 0 
L 37.796875 0 
L 37.796875 17.1875 
L 4.890625 17.1875 
L 4.890625 26.703125 
z
" id="DejaVuSans-34"/>
      </defs>
      <g transform="translate(307.709985 298.953298)scale(0.11662 -0.11662)">
       <use xlink:href="#DejaVuSans-31"/>
       <use x="63.623047" xlink:href="#DejaVuSans-34"/>
      </g>
     </g>
    </g>
    <g id="xtick_10">
     <g id="line2d_12"/>
     <g id="text_8">
      <!-- 15 -->
      <defs>
       <path d="M 10.796875 72.90625 
L 49.515625 72.90625 
L 49.515625 64.59375 
L 19.828125 64.59375 
L 19.828125 46.734375 
Q 21.96875 47.46875 24.109375 47.828125 
Q 26.265625 48.1875 28.421875 48.1875 
Q 40.625 48.1875 47.75 41.5 
Q 54.890625 34.8125 54.890625 23.390625 
Q 54.890625 11.625 47.5625 5.09375 
Q 40.234375 -1.421875 26.90625 -1.421875 
Q 22.3125 -1.421875 17.546875 -0.640625 
Q 12.796875 0.140625 7.71875 1.703125 
L 7.71875 11.625 
Q 12.109375 9.234375 16.796875 8.0625 
Q 21.484375 6.890625 26.703125 6.890625 
Q 35.15625 6.890625 40.078125 11.328125 
Q 45.015625 15.765625 45.015625 23.390625 
Q 45.015625 31 40.078125 35.4375 
Q 35.15625 39.890625 26.703125 39.890625 
Q 22.75 39.890625 18.8125 39.015625 
Q 14.890625 38.140625 10.796875 36.28125 
z
" id="DejaVuSans-35"/>
      </defs>
      <g transform="translate(353.72264 298.953298)scale(0.11662 -0.11662)">
       <use xlink:href="#DejaVuSans-31"/>
       <use x="63.623047" xlink:href="#DejaVuSans-35"/>
      </g>
     </g>
    </g>
    <g id="xtick_11">
     <g id="line2d_13"/>
     <g id="text_9">
      <!-- 16 -->
      <g transform="translate(399.735296 298.953298)scale(0.11662 -0.11662)">
       <use xlink:href="#DejaVuSans-31"/>
       <use x="63.623047" xlink:href="#DejaVuSans-36"/>
      </g>
     </g>
    </g>
    <g id="text_10">
     <!-- Time -->
     <defs>
      <path d="M -0.296875 72.90625 
L 61.375 72.90625 
L 61.375 64.59375 
L 35.5 64.59375 
L 35.5 0 
L 25.59375 0 
L 25.59375 64.59375 
L -0.296875 64.59375 
z
" id="DejaVuSans-54"/>
      <path d="M 9.421875 54.6875 
L 18.40625 54.6875 
L 18.40625 0 
L 9.421875 0 
z
M 9.421875 75.984375 
L 18.40625 75.984375 
L 18.40625 64.59375 
L 9.421875 64.59375 
z
" id="DejaVuSans-69"/>
      <path d="M 52 44.1875 
Q 55.375 50.25 60.0625 53.125 
Q 64.75 56 71.09375 56 
Q 79.640625 56 84.28125 50.015625 
Q 88.921875 44.046875 88.921875 33.015625 
L 88.921875 0 
L 79.890625 0 
L 79.890625 32.71875 
Q 79.890625 40.578125 77.09375 44.375 
Q 74.3125 48.1875 68.609375 48.1875 
Q 61.625 48.1875 57.5625 43.546875 
Q 53.515625 38.921875 53.515625 30.90625 
L 53.515625 0 
L 44.484375 0 
L 44.484375 32.71875 
Q 44.484375 40.625 41.703125 44.40625 
Q 38.921875 48.1875 33.109375 48.1875 
Q 26.21875 48.1875 22.15625 43.53125 
Q 18.109375 38.875 18.109375 30.90625 
L 18.109375 0 
L 9.078125 0 
L 9.078125 54.6875 
L 18.109375 54.6875 
L 18.109375 46.1875 
Q 21.1875 51.21875 25.484375 53.609375 
Q 29.78125 56 35.6875 56 
Q 41.65625 56 45.828125 52.96875 
Q 50 49.953125 52 44.1875 
z
" id="DejaVuSans-6d"/>
      <path d="M 56.203125 29.59375 
L 56.203125 25.203125 
L 14.890625 25.203125 
Q 15.484375 15.921875 20.484375 11.0625 
Q 25.484375 6.203125 34.421875 6.203125 
Q 39.59375 6.203125 44.453125 7.46875 
Q 49.3125 8.734375 54.109375 11.28125 
L 54.109375 2.78125 
Q 49.265625 0.734375 44.1875 -0.34375 
Q 39.109375 -1.421875 33.890625 -1.421875 
Q 20.796875 -1.421875 13.15625 6.1875 
Q 5.515625 13.8125 5.515625 26.8125 
Q 5.515625 40.234375 12.765625 48.109375 
Q 20.015625 56 32.328125 56 
Q 43.359375 56 49.78125 48.890625 
Q 56.203125 41.796875 56.203125 29.59375 
z
M 47.21875 32.234375 
Q 47.125 39.59375 43.09375 43.984375 
Q 39.0625 48.390625 32.421875 48.390625 
Q 24.90625 48.390625 20.390625 44.140625 
Q 15.875 39.890625 15.1875 32.171875 
z
" id="DejaVuSans-65"/>
     </defs>
     <g transform="translate(231.424997 340.457705)scale(0.11662 -0.11662)">
      <use xlink:href="#DejaVuSans-54"/>
      <use x="61.037109" xlink:href="#DejaVuSans-69"/>
      <use x="88.820312" xlink:href="#DejaVuSans-6d"/>
      <use x="186.232422" xlink:href="#DejaVuSans-65"/>
     </g>
    </g>
   </g>
   <g id="matplotlib.axis_2">
    <g id="ytick_1">
     <g id="line2d_14">
      <path clip-path="url(#pffeb5e7532)" d="M 39.054 268.90374 
L 452.6886 268.90374 
" style="fill:none;stroke:#cbcbcb;"/>
     </g>
     <g id="line2d_15"/>
     <g id="text_11">
      <!-- 0 -->
      <g transform="translate(28.134053 273.334389)scale(0.11662 -0.11662)">
       <use xlink:href="#DejaVuSans-30"/>
      </g>
     </g>
    </g>
    <g id="ytick_2">
     <g id="line2d_16">
      <path clip-path="url(#pffeb5e7532)" d="M 39.054 220.007027 
L 452.6886 220.007027 
" style="fill:none;stroke:#cbcbcb;"/>
     </g>
     <g id="line2d_17"/>
     <g id="text_12">
      <!-- 10 -->
      <g transform="translate(20.714105 224.437676)scale(0.11662 -0.11662)">
       <use xlink:href="#DejaVuSans-31"/>
       <use x="63.623047" xlink:href="#DejaVuSans-30"/>
      </g>
     </g>
    </g>
    <g id="ytick_3">
     <g id="line2d_18">
      <path clip-path="url(#pffeb5e7532)" d="M 39.054 171.110313 
L 452.6886 171.110313 
" style="fill:none;stroke:#cbcbcb;"/>
     </g>
     <g id="line2d_19"/>
     <g id="text_13">
      <!-- 20 -->
      <g transform="translate(20.714105 175.540962)scale(0.11662 -0.11662)">
       <use xlink:href="#DejaVuSans-32"/>
       <use x="63.623047" xlink:href="#DejaVuSans-30"/>
      </g>
     </g>
    </g>
    <g id="ytick_4">
     <g id="line2d_20">
      <path clip-path="url(#pffeb5e7532)" d="M 39.054 122.2136 
L 452.6886 122.2136 
" style="fill:none;stroke:#cbcbcb;"/>
     </g>
     <g id="line2d_21"/>
     <g id="text_14">
      <!-- 30 -->
      <g transform="translate(20.714105 126.644249)scale(0.11662 -0.11662)">
       <use xlink:href="#DejaVuSans-33"/>
       <use x="63.623047" xlink:href="#DejaVuSans-30"/>
      </g>
     </g>
    </g>
    <g id="text_15">
     <!-- Total active power [kW] -->
     <defs>
      <path d="M 30.609375 48.390625 
Q 23.390625 48.390625 19.1875 42.75 
Q 14.984375 37.109375 14.984375 27.296875 
Q 14.984375 17.484375 19.15625 11.84375 
Q 23.34375 6.203125 30.609375 6.203125 
Q 37.796875 6.203125 41.984375 11.859375 
Q 46.1875 17.53125 46.1875 27.296875 
Q 46.1875 37.015625 41.984375 42.703125 
Q 37.796875 48.390625 30.609375 48.390625 
z
M 30.609375 56 
Q 42.328125 56 49.015625 48.375 
Q 55.71875 40.765625 55.71875 27.296875 
Q 55.71875 13.875 49.015625 6.21875 
Q 42.328125 -1.421875 30.609375 -1.421875 
Q 18.84375 -1.421875 12.171875 6.21875 
Q 5.515625 13.875 5.515625 27.296875 
Q 5.515625 40.765625 12.171875 48.375 
Q 18.84375 56 30.609375 56 
z
" id="DejaVuSans-6f"/>
      <path d="M 18.3125 70.21875 
L 18.3125 54.6875 
L 36.8125 54.6875 
L 36.8125 47.703125 
L 18.3125 47.703125 
L 18.3125 18.015625 
Q 18.3125 11.328125 20.140625 9.421875 
Q 21.96875 7.515625 27.59375 7.515625 
L 36.8125 7.515625 
L 36.8125 0 
L 27.59375 0 
Q 17.1875 0 13.234375 3.875 
Q 9.28125 7.765625 9.28125 18.015625 
L 9.28125 47.703125 
L 2.6875 47.703125 
L 2.6875 54.6875 
L 9.28125 54.6875 
L 9.28125 70.21875 
z
" id="DejaVuSans-74"/>
      <path d="M 34.28125 27.484375 
Q 23.390625 27.484375 19.1875 25 
Q 14.984375 22.515625 14.984375 16.5 
Q 14.984375 11.71875 18.140625 8.90625 
Q 21.296875 6.109375 26.703125 6.109375 
Q 34.1875 6.109375 38.703125 11.40625 
Q 43.21875 16.703125 43.21875 25.484375 
L 43.21875 27.484375 
z
M 52.203125 31.203125 
L 52.203125 0 
L 43.21875 0 
L 43.21875 8.296875 
Q 40.140625 3.328125 35.546875 0.953125 
Q 30.953125 -1.421875 24.3125 -1.421875 
Q 15.921875 -1.421875 10.953125 3.296875 
Q 6 8.015625 6 15.921875 
Q 6 25.140625 12.171875 29.828125 
Q 18.359375 34.515625 30.609375 34.515625 
L 43.21875 34.515625 
L 43.21875 35.40625 
Q 43.21875 41.609375 39.140625 45 
Q 35.0625 48.390625 27.6875 48.390625 
Q 23 48.390625 18.546875 47.265625 
Q 14.109375 46.140625 10.015625 43.890625 
L 10.015625 52.203125 
Q 14.9375 54.109375 19.578125 55.046875 
Q 24.21875 56 28.609375 56 
Q 40.484375 56 46.34375 49.84375 
Q 52.203125 43.703125 52.203125 31.203125 
z
" id="DejaVuSans-61"/>
      <path d="M 9.421875 75.984375 
L 18.40625 75.984375 
L 18.40625 0 
L 9.421875 0 
z
" id="DejaVuSans-6c"/>
      <path id="DejaVuSans-20"/>
      <path d="M 48.78125 52.59375 
L 48.78125 44.1875 
Q 44.96875 46.296875 41.140625 47.34375 
Q 37.3125 48.390625 33.40625 48.390625 
Q 24.65625 48.390625 19.8125 42.84375 
Q 14.984375 37.3125 14.984375 27.296875 
Q 14.984375 17.28125 19.8125 11.734375 
Q 24.65625 6.203125 33.40625 6.203125 
Q 37.3125 6.203125 41.140625 7.25 
Q 44.96875 8.296875 48.78125 10.40625 
L 48.78125 2.09375 
Q 45.015625 0.34375 40.984375 -0.53125 
Q 36.96875 -1.421875 32.421875 -1.421875 
Q 20.0625 -1.421875 12.78125 6.34375 
Q 5.515625 14.109375 5.515625 27.296875 
Q 5.515625 40.671875 12.859375 48.328125 
Q 20.21875 56 33.015625 56 
Q 37.15625 56 41.109375 55.140625 
Q 45.0625 54.296875 48.78125 52.59375 
z
" id="DejaVuSans-63"/>
      <path d="M 2.984375 54.6875 
L 12.5 54.6875 
L 29.59375 8.796875 
L 46.6875 54.6875 
L 56.203125 54.6875 
L 35.6875 0 
L 23.484375 0 
z
" id="DejaVuSans-76"/>
      <path d="M 18.109375 8.203125 
L 18.109375 -20.796875 
L 9.078125 -20.796875 
L 9.078125 54.6875 
L 18.109375 54.6875 
L 18.109375 46.390625 
Q 20.953125 51.265625 25.265625 53.625 
Q 29.59375 56 35.59375 56 
Q 45.5625 56 51.78125 48.09375 
Q 58.015625 40.1875 58.015625 27.296875 
Q 58.015625 14.40625 51.78125 6.484375 
Q 45.5625 -1.421875 35.59375 -1.421875 
Q 29.59375 -1.421875 25.265625 0.953125 
Q 20.953125 3.328125 18.109375 8.203125 
z
M 48.6875 27.296875 
Q 48.6875 37.203125 44.609375 42.84375 
Q 40.53125 48.484375 33.40625 48.484375 
Q 26.265625 48.484375 22.1875 42.84375 
Q 18.109375 37.203125 18.109375 27.296875 
Q 18.109375 17.390625 22.1875 11.75 
Q 26.265625 6.109375 33.40625 6.109375 
Q 40.53125 6.109375 44.609375 11.75 
Q 48.6875 17.390625 48.6875 27.296875 
z
" id="DejaVuSans-70"/>
      <path d="M 4.203125 54.6875 
L 13.1875 54.6875 
L 24.421875 12.015625 
L 35.59375 54.6875 
L 46.1875 54.6875 
L 57.421875 12.015625 
L 68.609375 54.6875 
L 77.59375 54.6875 
L 63.28125 0 
L 52.6875 0 
L 40.921875 44.828125 
L 29.109375 0 
L 18.5 0 
z
" id="DejaVuSans-77"/>
      <path d="M 41.109375 46.296875 
Q 39.59375 47.171875 37.8125 47.578125 
Q 36.03125 48 33.890625 48 
Q 26.265625 48 22.1875 43.046875 
Q 18.109375 38.09375 18.109375 28.8125 
L 18.109375 0 
L 9.078125 0 
L 9.078125 54.6875 
L 18.109375 54.6875 
L 18.109375 46.1875 
Q 20.953125 51.171875 25.484375 53.578125 
Q 30.03125 56 36.53125 56 
Q 37.453125 56 38.578125 55.875 
Q 39.703125 55.765625 41.0625 55.515625 
z
" id="DejaVuSans-72"/>
      <path d="M 8.59375 75.984375 
L 29.296875 75.984375 
L 29.296875 69 
L 17.578125 69 
L 17.578125 -6.203125 
L 29.296875 -6.203125 
L 29.296875 -13.1875 
L 8.59375 -13.1875 
z
" id="DejaVuSans-5b"/>
      <path d="M 9.078125 75.984375 
L 18.109375 75.984375 
L 18.109375 31.109375 
L 44.921875 54.6875 
L 56.390625 54.6875 
L 27.390625 29.109375 
L 57.625 0 
L 45.90625 0 
L 18.109375 26.703125 
L 18.109375 0 
L 9.078125 0 
z
" id="DejaVuSans-6b"/>
      <path d="M 3.328125 72.90625 
L 13.28125 72.90625 
L 28.609375 11.28125 
L 43.890625 72.90625 
L 54.984375 72.90625 
L 70.3125 11.28125 
L 85.59375 72.90625 
L 95.609375 72.90625 
L 77.296875 0 
L 64.890625 0 
L 49.515625 63.28125 
L 33.984375 0 
L 21.578125 0 
z
" id="DejaVuSans-57"/>
      <path d="M 30.421875 75.984375 
L 30.421875 -13.1875 
L 9.71875 -13.1875 
L 9.71875 -6.203125 
L 21.390625 -6.203125 
L 21.390625 69 
L 9.71875 69 
L 9.71875 75.984375 
z
" id="DejaVuSans-5d"/>
     </defs>
     <g transform="translate(14.288773 267.055214)rotate(-90)scale(0.11662 -0.11662)">
      <use xlink:href="#DejaVuSans-54"/>
      <use x="60.818359" xlink:href="#DejaVuSans-6f"/>
      <use x="122" xlink:href="#DejaVuSans-74"/>
      <use x="161.208984" xlink:href="#DejaVuSans-61"/>
      <use x="222.488281" xlink:href="#DejaVuSans-6c"/>
      <use x="250.271484" xlink:href="#DejaVuSans-20"/>
      <use x="282.058594" xlink:href="#DejaVuSans-61"/>
      <use x="343.337891" xlink:href="#DejaVuSans-63"/>
      <use x="398.318359" xlink:href="#DejaVuSans-74"/>
      <use x="437.527344" xlink:href="#DejaVuSans-69"/>
      <use x="465.310547" xlink:href="#DejaVuSans-76"/>
      <use x="524.490234" xlink:href="#DejaVuSans-65"/>
      <use x="586.013672" xlink:href="#DejaVuSans-20"/>
      <use x="617.800781" xlink:href="#DejaVuSans-70"/>
      <use x="681.277344" xlink:href="#DejaVuSans-6f"/>
      <use x="742.458984" xlink:href="#DejaVuSans-77"/>
      <use x="824.246094" xlink:href="#DejaVuSans-65"/>
      <use x="885.769531" xlink:href="#DejaVuSans-72"/>
      <use x="926.882812" xlink:href="#DejaVuSans-20"/>
      <use x="958.669922" xlink:href="#DejaVuSans-5b"/>
      <use x="997.683594" xlink:href="#DejaVuSans-6b"/>
      <use x="1055.59375" xlink:href="#DejaVuSans-57"/>
      <use x="1154.470703" xlink:href="#DejaVuSans-5d"/>
     </g>
    </g>
   </g>
   <g id="line2d_22">
    <path clip-path="url(#pffeb5e7532)" d="M 39.054 268.414773 
L 40.012597 268.414773 
L 40.491895 267.925806 
L 40.971194 267.925806 
L 41.450492 268.414773 
L 41.929791 267.925806 
L 42.409089 267.925806 
L 42.888388 268.414773 
L 43.367686 267.925806 
L 45.28488 267.925806 
L 45.764179 268.414773 
L 46.243477 268.414773 
L 46.722776 267.925806 
L 47.202074 268.414773 
L 48.160671 268.414773 
L 48.63997 267.925806 
L 49.119268 267.925806 
L 49.598567 268.414773 
L 50.077865 267.925806 
L 50.557164 268.414773 
L 52.474358 268.414773 
L 52.953656 267.925806 
L 53.432955 267.925806 
L 53.912253 235.165008 
L 54.391552 185.29036 
L 54.87085 185.779327 
L 55.350149 185.779327 
L 55.829447 187.735196 
L 56.308746 187.246229 
L 56.788044 187.735196 
L 57.267343 185.29036 
L 57.746641 187.735196 
L 58.22594 182.356558 
L 58.705238 268.90374 
L 59.184537 268.414773 
L 59.663835 268.90374 
L 60.622432 123.680502 
L 61.101731 237.120876 
L 61.581029 234.187074 
L 62.060328 121.724633 
L 62.539626 237.120876 
L 63.018925 122.702567 
L 63.498223 121.235666 
L 63.977522 237.120876 
L 64.45682 121.235666 
L 64.936119 238.587778 
L 65.415417 237.609844 
L 65.894716 122.702567 
L 66.374014 120.746699 
L 66.853313 237.609844 
L 67.332611 121.235666 
L 68.291208 120.257732 
L 68.770507 235.653975 
L 69.249805 121.724633 
L 69.729104 119.768764 
L 70.208402 236.142942 
L 70.687701 121.235666 
L 71.166999 122.2136 
L 71.646298 268.414773 
L 72.125596 268.90374 
L 75.480686 268.90374 
L 76.439283 124.169469 
L 76.918581 121.724633 
L 77.397879 234.187074 
L 77.877178 237.120876 
L 78.356476 123.680502 
L 78.835775 234.676041 
L 79.315073 188.224163 
L 79.794372 184.801393 
L 80.27367 185.779327 
L 80.752969 268.90374 
L 81.232267 267.925806 
L 81.711566 268.414773 
L 82.190864 267.925806 
L 83.149461 267.925806 
L 83.62876 268.414773 
L 84.108058 267.925806 
L 84.587357 268.414773 
L 87.463148 268.414773 
L 87.942446 267.925806 
L 88.421745 268.414773 
L 88.901043 267.925806 
L 89.85964 267.925806 
L 90.338939 268.414773 
L 90.818237 268.414773 
L 91.297536 268.90374 
L 91.776834 267.925806 
L 92.735431 267.925806 
L 93.21473 268.90374 
L 93.694028 268.414773 
L 94.173327 268.414773 
L 94.652625 268.90374 
L 96.569819 268.90374 
L 97.049118 267.925806 
L 98.487013 267.925806 
L 98.966312 268.90374 
L 99.44561 267.925806 
L 99.924909 202.40421 
L 100.404207 207.782848 
L 100.883506 221.473928 
L 101.362804 211.694586 
L 101.842103 232.231205 
L 102.321401 186.757262 
L 102.8007 183.334492 
L 103.279998 183.823459 
L 103.759297 184.801393 
L 104.238595 186.268295 
L 104.717894 187.246229 
L 105.197192 184.312426 
L 105.676491 183.823459 
L 106.155789 187.246229 
L 106.635088 186.268295 
L 107.114386 183.823459 
L 107.593685 268.414773 
L 108.072983 268.90374 
L 108.552282 268.90374 
L 109.510879 121.235666 
L 109.990177 234.187074 
L 110.469476 233.698106 
L 110.948774 121.235666 
L 111.428073 233.209139 
L 111.907371 236.142942 
L 112.38667 120.746699 
L 112.865968 234.676041 
L 113.345267 121.724633 
L 113.824565 237.120876 
L 114.303863 236.631909 
L 114.783162 121.724633 
L 115.26246 236.142942 
L 115.741759 121.235666 
L 116.221057 122.2136 
L 116.700356 237.120876 
L 117.179654 122.2136 
L 117.658953 268.90374 
L 121.014042 268.90374 
L 121.493341 268.414773 
L 121.972639 185.29036 
L 122.451938 188.224163 
L 122.931236 188.224163 
L 123.410535 183.823459 
L 123.889833 183.823459 
L 124.369132 183.334492 
L 124.84843 181.378623 
L 125.327729 186.268295 
L 125.807027 186.757262 
L 126.286326 182.845525 
L 126.765624 267.925806 
L 128.20352 267.925806 
L 128.682818 268.90374 
L 129.641415 267.925806 
L 130.120714 268.414773 
L 131.079311 268.414773 
L 131.558609 267.925806 
L 132.037908 268.414773 
L 132.996505 268.414773 
L 133.475803 267.925806 
L 133.955102 267.925806 
L 134.4344 268.90374 
L 134.913699 267.925806 
L 135.392997 268.414773 
L 135.872296 268.414773 
L 136.351594 267.925806 
L 136.830893 267.925806 
L 137.78949 268.90374 
L 138.268788 268.414773 
L 138.748087 268.90374 
L 139.227385 268.414773 
L 139.706684 268.90374 
L 140.185982 267.925806 
L 140.665281 267.925806 
L 141.144579 268.414773 
L 141.623878 267.925806 
L 142.582475 268.90374 
L 143.061773 268.414773 
L 143.541072 268.90374 
L 144.02037 268.414773 
L 144.499669 268.90374 
L 145.458266 268.90374 
L 145.937564 214.628388 
L 146.416863 220.007027 
L 146.896161 221.962895 
L 147.37546 211.205618 
L 147.854758 268.90374 
L 148.334057 184.801393 
L 148.813355 185.29036 
L 149.292654 183.823459 
L 149.771952 187.246229 
L 150.251251 182.845525 
L 150.730549 186.268295 
L 151.209848 183.823459 
L 151.689146 183.334492 
L 152.647743 183.334492 
L 153.127041 184.312426 
L 154.085638 183.334492 
L 154.564937 268.90374 
L 156.482131 268.90374 
L 156.961429 121.724633 
L 157.440728 237.120876 
L 157.920026 235.165008 
L 158.399325 237.609844 
L 158.878623 145.684023 
L 159.357922 233.698106 
L 159.83722 234.676041 
L 160.316519 233.698106 
L 160.795817 121.724633 
L 161.275116 236.631909 
L 161.754414 234.187074 
L 162.233713 122.2136 
L 162.713011 237.609844 
L 163.19231 237.120876 
L 163.671608 268.414773 
L 164.150907 268.90374 
L 168.943892 268.90374 
L 169.42319 184.801393 
L 169.902489 187.735196 
L 170.381787 185.29036 
L 170.861086 185.779327 
L 171.340384 184.312426 
L 171.819683 182.356558 
L 172.298981 186.757262 
L 172.77828 268.414773 
L 173.257578 268.414773 
L 173.736877 267.925806 
L 174.216175 268.414773 
L 175.174772 268.414773 
L 175.654071 267.925806 
L 176.612668 268.90374 
L 177.091966 267.925806 
L 177.571265 268.414773 
L 178.050563 268.414773 
L 178.529862 268.90374 
L 179.00916 267.925806 
L 179.488459 267.925806 
L 179.967757 268.90374 
L 180.447056 268.414773 
L 180.926354 268.414773 
L 181.405653 267.925806 
L 181.884951 267.925806 
L 182.36425 268.414773 
L 182.843548 267.925806 
L 183.322847 268.414773 
L 183.802145 267.925806 
L 184.281444 268.414773 
L 184.760742 268.414773 
L 185.240041 268.90374 
L 185.719339 268.414773 
L 186.677936 268.414773 
L 187.157235 267.925806 
L 187.636533 268.414773 
L 188.115832 267.925806 
L 188.59513 268.90374 
L 189.074429 268.414773 
L 189.553727 268.90374 
L 190.033025 267.925806 
L 191.470921 267.925806 
L 191.950219 194.580736 
L 192.429518 184.801393 
L 192.908816 182.845525 
L 193.388115 186.757262 
L 193.867413 187.246229 
L 194.346712 183.823459 
L 194.82601 184.801393 
L 195.305309 182.845525 
L 195.784607 184.312426 
L 196.263906 184.801393 
L 196.743204 186.268295 
L 197.222503 184.801393 
L 197.701801 186.757262 
L 198.1811 185.29036 
L 198.660398 268.90374 
L 199.139697 268.90374 
L 199.618995 123.191534 
L 200.098294 233.209139 
L 200.577592 234.676041 
L 201.056891 122.2136 
L 201.536189 238.098811 
L 202.015488 236.631909 
L 202.494786 122.702567 
L 202.974085 121.235666 
L 203.453383 237.609844 
L 203.932682 120.746699 
L 204.41198 120.746699 
L 204.891279 237.120876 
L 205.370577 234.676041 
L 205.849876 120.257732 
L 206.329174 119.768764 
L 206.808473 235.165008 
L 207.287771 119.279797 
L 207.76707 120.746699 
L 208.246368 234.676041 
L 208.725667 120.257732 
L 209.204965 237.120876 
L 209.684264 268.90374 
L 210.163562 268.414773 
L 210.642861 268.90374 
L 211.122159 268.90374 
L 211.601458 268.414773 
L 212.080756 268.90374 
L 213.039353 268.90374 
L 213.518652 268.414773 
L 214.477249 121.235666 
L 214.956547 121.235666 
L 215.435846 237.120876 
L 215.915144 121.235666 
L 216.394443 234.676041 
L 216.873741 232.720172 
L 217.35304 122.2136 
L 217.832338 237.120876 
L 218.311637 237.609844 
L 218.790935 268.90374 
L 219.270234 268.414773 
L 219.749532 268.90374 
L 220.228831 268.90374 
L 221.187428 267.925806 
L 221.666726 268.414773 
L 223.104622 268.414773 
L 223.58392 267.925806 
L 224.063219 268.414773 
L 224.542517 268.414773 
L 225.021816 267.925806 
L 225.501114 268.414773 
L 225.980413 267.925806 
L 226.459711 268.414773 
L 226.93901 267.925806 
L 228.376905 267.925806 
L 228.856203 268.414773 
L 229.335502 267.925806 
L 230.773397 267.925806 
L 231.252696 268.414773 
L 231.731994 267.925806 
L 232.211293 268.414773 
L 232.690591 268.414773 
L 233.16989 267.925806 
L 233.649188 267.925806 
L 234.128487 268.90374 
L 234.607785 267.925806 
L 235.087084 267.925806 
L 236.045681 268.90374 
L 236.524979 268.90374 
L 237.004278 268.414773 
L 237.483576 268.90374 
L 237.962875 220.007027 
L 238.442173 183.334492 
L 238.921472 186.757262 
L 239.40077 183.334492 
L 239.880069 187.246229 
L 240.359367 185.29036 
L 240.838666 182.845525 
L 241.317964 268.90374 
L 242.75586 268.90374 
L 243.235158 121.724633 
L 243.714457 237.120876 
L 244.193755 235.653975 
L 244.673054 120.257732 
L 245.152352 234.676041 
L 245.631651 236.631909 
L 246.110949 120.257732 
L 246.590248 237.120876 
L 247.069546 119.279797 
L 247.548845 237.120876 
L 248.028143 234.676041 
L 248.507442 119.279797 
L 248.98674 235.165008 
L 249.466039 116.834962 
L 249.945337 117.812896 
L 250.424636 237.120876 
L 250.903934 116.834962 
L 251.383233 235.165008 
L 251.862531 117.812896 
L 252.34183 117.323929 
L 252.821128 237.609844 
L 253.300427 117.812896 
L 253.779725 117.323929 
L 254.259024 237.120876 
L 254.738322 117.323929 
L 255.217621 117.323929 
L 255.696919 268.414773 
L 256.176218 268.414773 
L 256.655516 268.90374 
L 257.134815 268.90374 
L 257.614113 268.414773 
L 258.093412 268.90374 
L 258.57271 268.414773 
L 259.052009 268.90374 
L 259.531307 268.90374 
L 260.489904 119.768764 
L 260.969203 119.768764 
L 261.448501 237.609844 
L 261.9278 121.235666 
L 262.407098 122.2136 
L 262.886397 237.120876 
L 263.365695 122.2136 
L 263.844994 237.609844 
L 264.324292 233.209139 
L 264.80359 268.414773 
L 265.282889 268.90374 
L 266.241486 268.90374 
L 266.720784 267.925806 
L 267.200083 267.925806 
L 267.679381 268.414773 
L 268.15868 268.414773 
L 268.637978 267.925806 
L 269.596575 267.925806 
L 270.075874 268.414773 
L 270.555172 268.414773 
L 271.034471 267.925806 
L 271.513769 268.414773 
L 271.993068 268.414773 
L 272.472366 267.925806 
L 272.951665 268.414773 
L 274.868859 268.414773 
L 275.348157 267.925806 
L 276.786053 267.925806 
L 277.265351 268.414773 
L 277.74465 267.925806 
L 278.703247 268.90374 
L 279.182545 267.925806 
L 279.661844 268.414773 
L 280.620441 268.414773 
L 281.099739 267.925806 
L 281.579038 268.414773 
L 282.058336 268.414773 
L 282.537635 267.925806 
L 283.016933 267.925806 
L 283.496232 268.414773 
L 284.454829 185.29036 
L 284.934127 184.312426 
L 285.413426 184.312426 
L 285.892724 268.414773 
L 286.372023 267.925806 
L 286.851321 268.90374 
L 288.289217 268.90374 
L 289.247814 123.191534 
L 289.727112 237.120876 
L 290.206411 237.120876 
L 290.685709 122.702567 
L 291.165008 234.676041 
L 291.644306 121.724633 
L 292.123605 233.698106 
L 292.602903 120.257732 
L 293.082202 121.724633 
L 293.5615 121.235666 
L 294.040799 237.120876 
L 294.520097 121.235666 
L 294.999396 237.120876 
L 295.478694 121.724633 
L 295.957993 237.609844 
L 296.437291 120.746699 
L 296.91659 121.235666 
L 297.395888 235.653975 
L 297.875187 120.746699 
L 298.354485 234.676041 
L 298.833784 119.768764 
L 299.313082 118.79083 
L 299.792381 236.142942 
L 300.271679 118.79083 
L 300.750978 119.279797 
L 301.230276 235.653975 
L 301.709575 268.414773 
L 302.188873 268.90374 
L 302.668171 268.90374 
L 303.14747 268.414773 
L 304.106067 268.414773 
L 304.585365 268.90374 
L 305.064664 268.414773 
L 305.543962 268.90374 
L 306.502559 120.257732 
L 306.981858 121.724633 
L 307.461156 120.746699 
L 307.940455 237.120876 
L 308.419753 120.746699 
L 308.899052 237.609844 
L 309.37835 233.209139 
L 309.857649 122.702567 
L 310.336947 234.676041 
L 310.816246 268.90374 
L 311.295544 268.414773 
L 311.774843 268.414773 
L 312.254141 268.90374 
L 313.212738 268.90374 
L 314.171335 267.925806 
L 315.609231 267.925806 
L 316.088529 268.414773 
L 317.047126 268.414773 
L 317.526425 267.925806 
L 318.005723 268.90374 
L 318.485022 267.925806 
L 318.96432 268.414773 
L 319.443619 267.925806 
L 319.922917 268.414773 
L 320.881514 268.414773 
L 321.360813 267.925806 
L 322.798708 267.925806 
L 323.278007 268.414773 
L 323.757305 268.414773 
L 324.236604 267.925806 
L 324.715902 268.414773 
L 325.195201 267.925806 
L 325.674499 268.414773 
L 326.153798 268.414773 
L 326.633096 267.925806 
L 327.112395 267.925806 
L 327.591693 268.414773 
L 328.55029 268.414773 
L 329.029589 267.925806 
L 329.508887 267.925806 
L 329.988186 268.414773 
L 330.467484 267.925806 
L 331.426081 267.925806 
L 331.90538 268.90374 
L 334.301872 268.90374 
L 334.781171 268.414773 
L 335.260469 268.90374 
L 337.177663 268.90374 
L 338.13626 120.746699 
L 338.615559 236.142942 
L 339.094857 233.698106 
L 339.574156 119.768764 
L 340.053454 236.631909 
L 340.532752 119.279797 
L 341.012051 119.768764 
L 341.491349 237.609844 
L 341.970648 119.768764 
L 342.449946 236.142942 
L 342.929245 118.79083 
L 343.408543 118.79083 
L 343.887842 236.142942 
L 344.36714 119.279797 
L 344.846439 120.257732 
L 345.325737 268.90374 
L 346.763633 268.90374 
L 347.242931 268.414773 
L 347.72223 268.414773 
L 348.201528 268.90374 
L 348.680827 268.90374 
L 349.160125 268.414773 
L 349.639424 268.90374 
L 352.515215 268.90374 
L 352.994513 268.414773 
L 353.473812 268.90374 
L 354.911707 268.90374 
L 355.391006 268.414773 
L 355.870304 268.90374 
L 356.349603 268.90374 
L 356.828901 268.414773 
L 357.3082 268.90374 
L 357.787498 268.414773 
L 358.266797 268.90374 
L 359.225394 267.925806 
L 359.704692 268.414773 
L 360.183991 267.925806 
L 360.663289 268.414773 
L 361.142588 268.414773 
L 361.621886 267.925806 
L 362.101185 267.925806 
L 362.580483 268.414773 
L 364.976976 268.414773 
L 365.456274 267.925806 
L 366.414871 267.925806 
L 366.89417 268.414773 
L 367.373468 267.925806 
L 368.332065 268.90374 
L 369.290662 267.925806 
L 369.769961 267.925806 
L 370.249259 268.90374 
L 370.728558 268.90374 
L 371.207856 267.925806 
L 371.687155 268.90374 
L 372.166453 268.90374 
L 373.12505 267.925806 
L 374.562946 267.925806 
L 375.042244 268.90374 
L 375.521543 268.90374 
L 376.000841 226.363599 
L 376.959438 196.536604 
L 377.438737 185.779327 
L 377.918035 183.823459 
L 378.397333 267.925806 
L 378.876632 268.414773 
L 379.35593 267.925806 
L 379.835229 268.90374 
L 384.148915 268.90374 
L 385.107512 117.812896 
L 385.586811 236.631909 
L 386.066109 118.301863 
L 386.545408 235.165008 
L 387.024706 118.301863 
L 387.504005 116.834962 
L 387.983303 237.120876 
L 388.462602 118.301863 
L 388.9419 236.631909 
L 389.421199 118.301863 
L 389.900497 118.301863 
L 390.379796 234.187074 
L 390.859094 116.345995 
L 391.338393 236.631909 
L 391.817691 116.834962 
L 392.29699 116.345995 
L 392.776288 236.631909 
L 393.255587 118.79083 
L 393.734885 268.414773 
L 394.214184 268.90374 
L 396.610676 268.90374 
L 397.089975 268.414773 
L 397.569273 268.90374 
L 398.52787 120.746699 
L 399.007169 121.235666 
L 399.486467 237.120876 
L 399.965766 121.724633 
L 400.445064 238.098811 
L 400.924363 237.609844 
L 401.403661 183.823459 
L 401.88296 187.735196 
L 402.362258 183.823459 
L 402.841557 267.925806 
L 403.320855 268.414773 
L 403.800154 267.925806 
L 404.279452 268.414773 
L 404.758751 267.925806 
L 405.238049 268.414773 
L 405.717348 268.414773 
L 406.196646 267.925806 
L 406.675945 268.414773 
L 407.155243 267.925806 
L 408.593139 267.925806 
L 409.072437 268.414773 
L 409.551736 268.414773 
L 410.031034 267.925806 
L 411.46893 267.925806 
L 411.948228 268.414773 
L 412.427527 267.925806 
L 412.906825 267.925806 
L 413.386124 268.414773 
L 413.865422 267.925806 
L 415.303317 267.925806 
L 415.782616 268.90374 
L 416.261914 267.925806 
L 416.741213 267.925806 
L 417.69981 268.90374 
L 418.179108 268.414773 
L 418.658407 268.90374 
L 419.137705 267.925806 
L 419.617004 268.414773 
L 420.096302 268.414773 
L 420.575601 267.925806 
L 421.054899 268.90374 
L 421.534198 268.90374 
L 422.013496 203.871111 
L 422.492795 194.580736 
L 422.972093 193.602802 
L 423.451392 183.823459 
L 423.93069 186.757262 
L 424.409989 187.735196 
L 424.889287 182.845525 
L 425.368586 185.779327 
L 425.847884 187.246229 
L 426.327183 268.90374 
L 427.765078 268.90374 
L 428.723675 121.724633 
L 429.202974 237.609844 
L 429.682272 237.120876 
L 430.161571 119.279797 
L 430.640869 119.279797 
L 431.120168 236.631909 
L 431.599466 119.279797 
L 432.078765 120.257732 
L 432.558063 237.120876 
L 433.037362 118.79083 
L 433.51666 237.120876 
L 433.995959 119.279797 
L 434.475257 119.279797 
L 434.954556 235.653975 
L 435.433854 116.834962 
L 435.913153 117.812896 
L 436.392451 118.301863 
L 436.87175 237.120876 
L 437.351048 118.301863 
L 437.830347 117.323929 
L 438.309645 236.631909 
L 438.788944 116.345995 
L 439.268242 117.323929 
L 439.747541 268.90374 
L 443.581929 268.90374 
L 444.540526 122.702567 
L 445.019824 121.724633 
L 445.499123 237.609844 
L 445.978421 233.209139 
L 446.45772 123.191534 
L 446.937018 233.209139 
L 447.416317 238.098811 
L 447.895615 188.224163 
L 448.374914 185.29036 
L 448.854212 268.90374 
L 449.812809 267.925806 
L 450.771406 267.925806 
L 451.250705 268.414773 
L 451.730003 268.414773 
L 452.209302 267.925806 
L 452.6886 267.925806 
L 452.6886 267.925806 
" style="fill:none;stroke:#000000;stroke-width:0.5;"/>
   </g>
   <g id="line2d_23">
    <path clip-path="url(#pffeb5e7532)" d="M 39.054 270.074399 
L 39.533298 269.886975 
L 40.491895 269.862391 
L 40.971194 269.942948 
L 41.929791 269.319853 
L 42.409089 269.232719 
L 42.888388 269.484091 
L 43.367686 268.964738 
L 43.846985 269.489269 
L 44.326283 269.663538 
L 44.805582 269.482692 
L 45.28488 269.656961 
L 47.202074 269.73094 
L 47.681373 269.823253 
L 48.160671 269.630651 
L 48.63997 269.717785 
L 49.119268 270.143426 
L 51.036462 270.410008 
L 53.432955 269.989216 
L 53.912253 191.232934 
L 54.391552 206.817662 
L 54.87085 206.556306 
L 55.350149 214.29103 
L 55.829447 214.262211 
L 56.308746 214.854841 
L 56.788044 222.29939 
L 57.267343 222.515928 
L 57.746641 218.917649 
L 58.22594 227.245004 
L 58.705238 240.521692 
L 59.184537 248.482197 
L 59.663835 245.660024 
L 60.143134 245.801283 
L 60.622432 147.651224 
L 61.101731 231.841953 
L 61.581029 227.225707 
L 62.060328 151.637076 
L 62.539626 230.722706 
L 63.018925 152.457194 
L 63.498223 151.20204 
L 63.977522 223.58517 
L 64.45682 147.801184 
L 64.936119 205.540774 
L 65.415417 235.766077 
L 65.894716 146.63119 
L 66.374014 162.747203 
L 66.853313 225.419971 
L 67.332611 145.896234 
L 67.81191 147.45388 
L 68.291208 152.374365 
L 68.770507 226.921227 
L 69.249805 143.663091 
L 69.729104 147.45388 
L 70.208402 227.268823 
L 70.687701 143.764584 
L 71.166999 155.854979 
L 71.646298 267.617079 
L 72.125596 265.990633 
L 72.604895 265.157119 
L 73.563492 266.608739 
L 74.04279 267.057565 
L 74.522089 266.88675 
L 75.001387 267.328999 
L 75.480686 267.328999 
L 75.959984 220.473489 
L 76.439283 138.417943 
L 76.918581 157.259303 
L 77.397879 225.453511 
L 77.877178 216.79672 
L 78.356476 149.553103 
L 78.835775 233.241883 
L 79.315073 201.276685 
L 79.794372 200.40582 
L 80.27367 204.333862 
L 80.752969 265.218332 
L 81.232267 265.87686 
L 82.190864 266.732057 
L 82.670163 266.764001 
L 83.149461 267.433599 
L 83.62876 267.491816 
L 85.066655 268.563258 
L 85.545954 268.55668 
L 86.025252 269.168346 
L 86.504551 269.336037 
L 86.983849 269.248903 
L 87.463148 269.599165 
L 87.942446 269.166947 
L 88.421745 269.592588 
L 89.380342 270.120572 
L 90.818237 271.506415 
L 91.776834 271.318992 
L 92.735431 271.930657 
L 93.694028 272.02297 
L 94.173327 272.361477 
L 94.652625 272.448611 
L 95.131924 272.354899 
L 95.611222 272.792296 
L 96.090521 272.87943 
L 97.049118 272.710533 
L 97.528416 272.961713 
L 98.007715 271.060334 
L 98.487013 271.942666 
L 98.966312 272.279519 
L 99.44561 271.850425 
L 99.924909 160.319991 
L 101.362804 199.641364 
L 101.842103 196.492159 
L 102.8007 214.265929 
L 103.279998 212.321702 
L 103.759297 215.613807 
L 104.238595 215.584987 
L 104.717894 230.630463 
L 105.197192 218.892548 
L 105.676491 226.088563 
L 106.155789 231.36917 
L 106.635088 226.970826 
L 107.593685 246.315283 
L 108.072983 247.203882 
L 108.552282 255.465234 
L 109.03158 235.904265 
L 109.510879 153.135262 
L 109.990177 229.504246 
L 110.469476 226.057994 
L 110.948774 151.049009 
L 111.428073 226.883742 
L 111.907371 227.225707 
L 112.38667 152.50487 
L 112.865968 238.38351 
L 113.345267 145.56497 
L 113.824565 223.296232 
L 114.303863 227.559251 
L 114.783162 145.327569 
L 115.26246 219.610299 
L 115.741759 148.284687 
L 116.221057 150.719918 
L 116.700356 228.9246 
L 117.179654 147.314609 
L 117.658953 267.648712 
L 118.138251 266.566508 
L 118.61755 266.036764 
L 119.096848 266.835527 
L 119.576147 267.120115 
L 120.055445 266.863564 
L 120.534744 267.657475 
L 121.014042 267.994256 
L 121.493341 267.922331 
L 121.972639 193.859587 
L 122.451938 198.508078 
L 122.931236 205.276292 
L 123.410535 200.307387 
L 123.889833 199.808223 
L 124.369132 197.966139 
L 124.84843 202.374455 
L 125.327729 202.534938 
L 125.807027 202.472101 
L 126.286326 202.632584 
L 126.765624 263.634888 
L 127.244923 263.652814 
L 127.724221 264.572495 
L 128.20352 265.186054 
L 128.682818 266.33368 
L 129.641415 268.005837 
L 130.120714 268.26724 
L 130.600012 269.059751 
L 132.037908 270.554516 
L 132.517206 270.460804 
L 132.996505 271.253315 
L 133.475803 271.333872 
L 133.955102 271.858403 
L 134.913699 271.93896 
L 135.392997 271.93896 
L 135.872296 272.451735 
L 136.351594 272.270889 
L 136.830893 272.544048 
L 137.310191 272.363202 
L 137.78949 272.708286 
L 138.268788 272.894311 
L 138.748087 272.902299 
L 139.227385 273.103434 
L 139.706684 273.103434 
L 140.185982 271.363929 
L 141.144579 271.716862 
L 141.623878 272.069795 
L 142.103176 272.246261 
L 142.582475 272.246261 
L 143.061773 271.957966 
L 144.02037 272.310898 
L 144.499669 269.905497 
L 144.978967 270.434896 
L 145.458266 270.787829 
L 145.937564 159.230293 
L 146.416863 177.894764 
L 146.896161 187.163041 
L 147.37546 193.47795 
L 147.854758 188.151982 
L 148.334057 195.000724 
L 148.813355 195.899528 
L 149.292654 204.255703 
L 149.771952 208.43379 
L 150.251251 200.902782 
L 151.209848 215.049454 
L 151.689146 216.41333 
L 152.647743 212.190424 
L 153.127041 213.031589 
L 153.60634 230.515184 
L 154.085638 229.947654 
L 154.564937 242.075846 
L 155.044235 243.248714 
L 155.523534 239.164055 
L 156.002832 242.185502 
L 156.482131 246.820869 
L 156.961429 165.508175 
L 157.440728 227.418446 
L 157.920026 232.062521 
L 158.399325 228.14142 
L 158.878623 206.995844 
L 159.357922 204.420737 
L 159.83722 235.6239 
L 160.316519 229.983504 
L 160.795817 146.881853 
L 161.275116 230.386091 
L 161.754414 226.838346 
L 162.233713 148.76512 
L 162.713011 224.463945 
L 163.19231 229.408103 
L 163.671608 269.6291 
L 164.150907 270.266749 
L 164.630205 270.015377 
L 165.109504 270.732183 
L 165.588802 270.814139 
L 167.505996 270.464203 
L 167.985295 236.856813 
L 168.943892 230.493443 
L 169.42319 197.333069 
L 169.902489 196.610096 
L 170.381787 194.492658 
L 170.861086 195.392312 
L 171.340384 192.15141 
L 171.819683 193.687761 
L 172.298981 196.958689 
L 172.77828 262.654954 
L 173.257578 262.901397 
L 174.216175 264.50888 
L 174.695474 265.556049 
L 175.174772 266.081979 
L 175.654071 266.274581 
L 176.133369 267.07367 
L 176.612668 267.160804 
L 177.091966 268.047027 
L 177.571265 268.30843 
L 178.050563 269.100941 
L 179.00916 269.193254 
L 179.488459 269.625472 
L 179.967757 269.538338 
L 180.447056 269.724363 
L 180.926354 270.156581 
L 181.405653 269.975735 
L 181.884951 270.150004 
L 182.36425 270.510297 
L 182.843548 270.597431 
L 183.322847 271.029649 
L 183.802145 270.848803 
L 184.281444 270.947693 
L 184.760742 270.679713 
L 185.240041 271.111932 
L 185.719339 271.024797 
L 186.198638 270.592579 
L 187.157235 270.679713 
L 187.636533 271.111932 
L 190.512324 271.123687 
L 190.991622 271.287925 
L 191.470921 271.287925 
L 191.950219 186.491036 
L 192.429518 192.148279 
L 192.908816 207.356371 
L 193.867413 212.856693 
L 194.346712 210.925288 
L 194.82601 213.653039 
L 195.305309 219.195003 
L 195.784607 216.380791 
L 196.263906 218.006023 
L 197.222503 224.911862 
L 197.701801 222.649182 
L 198.1811 224.750136 
L 198.660398 229.953335 
L 199.139697 229.075142 
L 199.618995 156.043914 
L 200.098294 222.812728 
L 200.577592 231.841953 
L 201.056891 160.849884 
L 202.015488 230.324364 
L 202.494786 148.08398 
L 202.974085 149.192961 
L 203.453383 227.022721 
L 203.932682 143.951042 
L 204.41198 146.578236 
L 205.370577 224.354541 
L 205.849876 139.238636 
L 206.329174 149.117096 
L 206.808473 220.326643 
L 207.287771 141.093823 
L 207.76707 198.985955 
L 208.246368 226.053434 
L 208.725667 139.106294 
L 209.204965 212.034656 
L 209.684264 267.622214 
L 210.163562 267.635042 
L 210.642861 267.839074 
L 211.601458 267.776524 
L 212.080756 268.406196 
L 212.560055 268.067689 
L 213.039353 268.690784 
L 213.518652 268.679028 
L 213.99795 225.789929 
L 214.477249 132.790365 
L 214.956547 145.760326 
L 215.435846 229.023813 
L 215.915144 149.203227 
L 216.873741 228.107553 
L 217.35304 150.523181 
L 217.832338 207.830014 
L 218.311637 229.76105 
L 218.790935 266.807603 
L 219.270234 266.813001 
L 219.749532 267.109637 
L 221.666726 267.15532 
L 222.146025 267.754236 
L 222.625323 267.566813 
L 223.104622 268.178478 
L 223.58392 268.171901 
L 224.063219 268.783566 
L 224.542517 268.689854 
L 225.021816 268.963013 
L 225.501114 269.04357 
L 225.980413 269.382076 
L 226.459711 269.561524 
L 227.418308 269.548369 
L 227.897606 269.809772 
L 228.376905 269.71606 
L 228.856203 269.979188 
L 229.335502 269.979188 
L 230.294099 270.579098 
L 231.731994 270.845679 
L 232.690591 270.751967 
L 233.16989 270.839102 
L 233.649188 271.11226 
L 234.128487 271.018549 
L 234.607785 271.269921 
L 235.087084 271.269921 
L 235.566382 271.089075 
L 236.045681 271.187965 
L 236.524979 270.740538 
L 237.004278 270.929687 
L 237.483576 270.761995 
L 237.962875 192.65445 
L 238.442173 213.519785 
L 238.921472 211.298204 
L 239.40077 223.169374 
L 239.880069 218.656293 
L 240.359367 216.957424 
L 240.838666 233.819568 
L 241.317964 228.884886 
L 241.797263 232.276989 
L 242.276561 232.463644 
L 242.75586 231.197508 
L 243.235158 175.352166 
L 243.714457 213.835042 
L 244.193755 221.44817 
L 244.673054 155.462779 
L 245.152352 206.409358 
L 245.631651 221.199788 
L 246.110949 141.291761 
L 246.590248 215.820593 
L 247.069546 143.760024 
L 247.548845 202.138429 
L 248.028143 192.227359 
L 248.507442 136.791712 
L 248.98674 218.138896 
L 249.466039 142.630912 
L 249.945337 190.819965 
L 250.424636 210.31561 
L 250.903934 138.520771 
L 251.383233 208.041408 
L 251.862531 135.083777 
L 252.34183 139.330833 
L 252.821128 213.332256 
L 253.300427 135.083777 
L 253.779725 135.78994 
L 254.259024 211.317156 
L 254.738322 133.22859 
L 255.217621 139.292778 
L 255.696919 266.588676 
L 256.176218 264.475778 
L 257.134815 266.770477 
L 257.614113 268.281136 
L 259.052009 271.153036 
L 259.531307 271.710728 
L 260.010606 215.099298 
L 260.489904 132.491236 
L 260.969203 145.02844 
L 261.448501 220.631123 
L 261.9278 143.148244 
L 262.407098 148.148779 
L 262.886397 229.563414 
L 263.365695 146.638821 
L 263.844994 214.139522 
L 264.324292 233.687455 
L 264.80359 267.699057 
L 265.282889 267.853702 
L 265.762187 267.770024 
L 266.241486 267.828241 
L 267.679381 267.561907 
L 268.637978 267.828215 
L 269.117277 268.007662 
L 269.596575 268.001085 
L 270.075874 268.267666 
L 270.555172 268.693307 
L 271.034471 268.599596 
L 271.513769 268.949858 
L 272.472366 268.77559 
L 272.951665 269.048748 
L 273.430963 269.561524 
L 273.910262 269.467812 
L 275.348157 269.985766 
L 275.827456 269.985766 
L 276.786053 270.423162 
L 279.661844 270.490564 
L 280.141142 270.763723 
L 280.620441 270.582877 
L 281.099739 270.582877 
L 281.579038 271.015095 
L 282.058336 270.93314 
L 282.537635 270.671737 
L 283.016933 270.668284 
L 283.496232 270.23919 
L 283.97553 198.225233 
L 284.454829 212.71972 
L 285.413426 225.416056 
L 285.892724 227.330921 
L 286.372023 227.691601 
L 287.33062 232.376203 
L 287.809918 230.14306 
L 288.289217 234.069465 
L 288.768515 231.836322 
L 289.247814 146.149967 
L 289.727112 225.198902 
L 290.206411 220.582657 
L 290.685709 152.27054 
L 291.165008 220.53191 
L 291.644306 140.908516 
L 292.123605 211.016902 
L 292.602903 150.606062 
L 293.082202 146.09694 
L 293.5615 147.929757 
L 294.040799 227.856891 
L 294.520097 145.899304 
L 294.999396 221.648877 
L 295.478694 147.117764 
L 295.957993 213.937326 
L 296.437291 148.720515 
L 296.91659 141.155853 
L 297.395888 219.415734 
L 297.875187 133.868357 
L 298.354485 213.0532 
L 298.833784 135.505773 
L 299.313082 141.608016 
L 299.792381 188.501661 
L 300.271679 145.261281 
L 300.750978 135.336292 
L 301.230276 215.034889 
L 301.709575 266.912085 
L 302.188873 266.369646 
L 302.668171 267.105859 
L 303.14747 268.727736 
L 303.626768 269.575581 
L 305.064664 270.909162 
L 305.543962 271.414036 
L 306.023261 213.448081 
L 306.502559 128.072627 
L 307.461156 142.12514 
L 307.940455 228.489563 
L 308.419753 145.084538 
L 308.899052 204.573767 
L 309.37835 226.408661 
L 309.857649 146.350673 
L 310.336947 221.899539 
L 310.816246 266.056186 
L 311.295544 266.389079 
L 312.254141 266.321867 
L 312.73344 266.471114 
L 313.212738 266.412028 
L 314.171335 266.774301 
L 314.650634 267.215151 
L 315.129932 267.815061 
L 315.609231 267.907373 
L 316.088529 267.639393 
L 316.567828 268.170502 
L 317.047126 267.989656 
L 317.526425 268.520764 
L 318.005723 268.607898 
L 318.485022 268.427052 
L 318.96432 269.045295 
L 319.922917 268.864449 
L 320.402216 268.596469 
L 320.881514 268.695359 
L 321.360813 269.040443 
L 321.840111 268.953309 
L 322.31941 269.571552 
L 324.715902 269.652109 
L 325.195201 269.739243 
L 325.674499 270.357486 
L 326.153798 270.270351 
L 327.112395 270.357486 
L 327.591693 270.17664 
L 328.070992 270.270351 
L 328.55029 270.045008 
L 329.029589 270.354033 
L 329.988186 265.795503 
L 330.467484 265.201559 
L 330.946783 266.871469 
L 331.426081 266.277526 
L 331.90538 265.089639 
L 332.384678 262.439527 
L 332.863977 260.657696 
L 333.343275 260.338091 
L 333.822574 231.380122 
L 334.301872 249.007184 
L 334.781171 252.175912 
L 335.260469 251.861304 
L 336.219066 256.702009 
L 336.698365 266.708441 
L 337.177663 269.695027 
L 337.656962 247.099553 
L 338.13626 144.750577 
L 338.615559 207.370224 
L 339.094857 233.57526 
L 339.574156 146.874105 
L 340.053454 233.190969 
L 340.532752 162.733151 
L 341.012051 151.186743 
L 341.491349 225.818313 
L 341.970648 147.982487 
L 342.449946 216.017438 
L 342.929245 164.918618 
L 343.408543 142.095855 
L 343.887842 218.822316 
L 344.36714 148.949494 
L 344.846439 147.891702 
L 345.325737 250.666188 
L 345.805036 265.307489 
L 346.284334 268.306828 
L 347.242931 272.703636 
L 347.72223 274.2975 
L 348.201528 275.143544 
L 348.680827 275.445635 
L 349.639424 276.867518 
L 350.118722 277.121319 
L 350.598021 277.07771 
L 351.077319 277.232355 
L 351.556618 276.90486 
L 352.035916 276.863922 
L 352.994513 276.167125 
L 353.473812 276.052493 
L 354.911707 274.012035 
L 355.870304 273.409955 
L 356.349603 273.291659 
L 356.828901 272.025737 
L 357.3082 271.91887 
L 357.787498 271.101774 
L 358.266797 270.901196 
L 358.746095 270.963746 
L 359.704692 270.48861 
L 360.183991 270.813962 
L 360.663289 270.800807 
L 361.142588 271.060811 
L 362.101185 270.86681 
L 362.580483 271.03968 
L 363.059782 271.552455 
L 364.497677 271.358454 
L 364.976976 271.805882 
L 365.456274 271.71217 
L 365.935573 271.792727 
L 366.414871 272.05413 
L 366.89417 272.059308 
L 367.373468 272.578661 
L 367.852767 272.572083 
L 368.811364 271.794653 
L 369.290662 271.618186 
L 369.769961 271.819322 
L 370.249259 271.466389 
L 371.687155 270.986327 
L 372.166453 270.193302 
L 372.645752 269.639234 
L 373.12505 269.840369 
L 373.604349 268.100864 
L 374.083647 268.013704 
L 374.562946 268.871367 
L 375.042244 267.725899 
L 375.521543 268.824666 
L 376.000841 181.02271 
L 376.48014 191.98938 
L 376.959438 214.032615 
L 377.438737 221.342672 
L 377.918035 231.046651 
L 378.397333 235.246942 
L 378.876632 238.361469 
L 379.35593 240.305154 
L 379.835229 243.756271 
L 380.314527 244.59426 
L 381.273124 253.736461 
L 381.752423 258.567035 
L 382.231721 269.190799 
L 382.71102 265.377703 
L 383.190318 274.081419 
L 383.669617 277.558722 
L 384.148915 278.580285 
L 384.628214 185.569465 
L 385.107512 152.374083 
L 385.586811 228.331972 
L 386.066109 146.517691 
L 386.545408 215.616815 
L 387.024706 157.826478 
L 387.504005 151.475949 
L 387.983303 225.997336 
L 388.462602 142.281162 
L 388.9419 206.636058 
L 389.421199 165.685709 
L 389.900497 144.40469 
L 390.379796 222.412897 
L 390.859094 145.696318 
L 391.338393 215.085636 
L 391.817691 143.663882 
L 392.29699 142.987326 
L 392.776288 216.007247 
L 393.255587 137.629301 
L 393.734885 266.463736 
L 394.214184 265.304203 
L 395.652079 269.930494 
L 396.131378 270.910103 
L 396.610676 271.544953 
L 397.089975 271.630362 
L 397.569273 271.978899 
L 398.048572 227.291186 
L 398.52787 139.967666 
L 399.007169 150.90212 
L 399.486467 230.14306 
L 399.965766 148.286967 
L 400.445064 225.684685 
L 400.924363 235.335601 
L 401.403661 207.631588 
L 401.88296 198.132912 
L 402.362258 196.631656 
L 402.841557 262.879532 
L 403.320855 263.735503 
L 405.238049 266.1909 
L 405.717348 266.365168 
L 406.196646 267.338526 
L 407.155243 267.512794 
L 407.634542 268.305306 
L 408.11384 268.397618 
L 408.593139 269.004105 
L 409.072437 269.171796 
L 409.551736 269.53209 
L 410.031034 269.438378 
L 410.510333 270.038287 
L 410.989631 270.038287 
L 411.46893 270.659983 
L 411.948228 270.99849 
L 412.427527 270.991912 
L 413.865422 271.690712 
L 414.344721 271.684135 
L 414.824019 272.389512 
L 415.303317 272.121532 
L 416.741213 272.213844 
L 419.137705 273.058549 
L 419.617004 272.703434 
L 420.096302 271.741531 
L 420.575601 271.629702 
L 421.054899 272.487365 
L 421.534198 272.550623 
L 422.013496 172.000267 
L 422.492795 181.590239 
L 423.451392 204.893151 
L 424.409989 220.387701 
L 424.889287 224.520971 
L 425.368586 235.343542 
L 425.847884 236.678598 
L 426.327183 241.976449 
L 426.806481 242.202372 
L 427.28578 245.942821 
L 427.765078 257.791353 
L 428.244377 245.111722 
L 428.723675 150.650667 
L 429.202974 206.988213 
L 429.682272 218.284995 
L 430.161571 136.158316 
L 430.640869 142.377444 
L 431.120168 215.95571 
L 431.599466 132.863275 
L 432.078765 138.965518 
L 432.558063 204.261377 
L 433.037362 137.755689 
L 433.51666 213.867176 
L 433.995959 139.008611 
L 434.475257 134.728989 
L 434.954556 211.099783 
L 435.433854 133.213025 
L 435.913153 136.65002 
L 436.392451 142.883688 
L 436.87175 211.049037 
L 437.351048 136.8195 
L 437.830347 145.614519 
L 438.309645 213.332926 
L 438.788944 138.674687 
L 439.268242 142.007783 
L 439.747541 266.223344 
L 440.226839 264.851597 
L 441.185436 267.860305 
L 442.144033 269.395606 
L 442.623332 270.548084 
L 443.10263 271.249527 
L 443.581929 271.211316 
L 444.061227 221.804077 
L 444.540526 135.945119 
L 445.019824 148.815866 
L 445.499123 212.969528 
L 445.978421 226.792951 
L 446.45772 149.502356 
L 446.937018 227.287435 
L 447.416317 230.723954 
L 447.895615 199.724681 
L 448.374914 188.860657 
L 448.854212 263.715497 
L 449.333511 264.107476 
L 450.292108 265.381197 
L 450.771406 265.530444 
L 452.6886 267.427059 
L 452.6886 267.427059 
" style="fill:none;stroke:#ff0000;stroke-width:0.5;"/>
   </g>
   <g id="patch_3">
    <path d="M 39.054 286.692 
L 39.054 108.23428 
" style="fill:none;stroke:#f0f0f0;stroke-linecap:square;stroke-linejoin:miter;stroke-width:3;"/>
   </g>
   <g id="patch_4">
    <path d="M 452.6886 286.692 
L 452.6886 108.23428 
" style="fill:none;stroke:#f0f0f0;stroke-linecap:square;stroke-linejoin:miter;stroke-width:3;"/>
   </g>
   <g id="patch_5">
    <path d="M 39.054 286.692 
L 452.6886 286.692 
" style="fill:none;stroke:#f0f0f0;stroke-linecap:square;stroke-linejoin:miter;stroke-width:3;"/>
   </g>
   <g id="patch_6">
    <path d="M 39.054 108.23428 
L 452.6886 108.23428 
" style="fill:none;stroke:#f0f0f0;stroke-linecap:square;stroke-linejoin:miter;stroke-width:3;"/>
   </g>
   <g id="legend_1">
    <g id="patch_7">
     <path d="M 45.478963 93.636234 
L 446.263637 93.636234 
Q 448.596037 93.636234 448.596037 91.303834 
L 448.596037 75.352404 
Q 448.596037 73.020004 446.263637 73.020004 
L 45.478963 73.020004 
Q 43.146563 73.020004 43.146563 75.352404 
L 43.146563 91.303834 
Q 43.146563 93.636234 45.478963 93.636234 
z
" style="fill:#f0f0f0;opacity:0.5;stroke:#cccccc;stroke-linejoin:miter;stroke-width:0.5;"/>
    </g>
    <g id="line2d_24">
     <path d="M 47.811363 82.464402 
L 71.135363 82.464402 
" style="fill:none;stroke:#000000;stroke-width:0.5;"/>
    </g>
    <g id="line2d_25"/>
    <g id="text_16">
     <!-- Measurement -->
     <defs>
      <path d="M 9.8125 72.90625 
L 24.515625 72.90625 
L 43.109375 23.296875 
L 61.8125 72.90625 
L 76.515625 72.90625 
L 76.515625 0 
L 66.890625 0 
L 66.890625 64.015625 
L 48.09375 14.015625 
L 38.1875 14.015625 
L 19.390625 64.015625 
L 19.390625 0 
L 9.8125 0 
z
" id="DejaVuSans-4d"/>
      <path d="M 44.28125 53.078125 
L 44.28125 44.578125 
Q 40.484375 46.53125 36.375 47.5 
Q 32.28125 48.484375 27.875 48.484375 
Q 21.1875 48.484375 17.84375 46.4375 
Q 14.5 44.390625 14.5 40.28125 
Q 14.5 37.15625 16.890625 35.375 
Q 19.28125 33.59375 26.515625 31.984375 
L 29.59375 31.296875 
Q 39.15625 29.25 43.1875 25.515625 
Q 47.21875 21.78125 47.21875 15.09375 
Q 47.21875 7.46875 41.1875 3.015625 
Q 35.15625 -1.421875 24.609375 -1.421875 
Q 20.21875 -1.421875 15.453125 -0.5625 
Q 10.6875 0.296875 5.421875 2 
L 5.421875 11.28125 
Q 10.40625 8.6875 15.234375 7.390625 
Q 20.0625 6.109375 24.8125 6.109375 
Q 31.15625 6.109375 34.5625 8.28125 
Q 37.984375 10.453125 37.984375 14.40625 
Q 37.984375 18.0625 35.515625 20.015625 
Q 33.0625 21.96875 24.703125 23.78125 
L 21.578125 24.515625 
Q 13.234375 26.265625 9.515625 29.90625 
Q 5.8125 33.546875 5.8125 39.890625 
Q 5.8125 47.609375 11.28125 51.796875 
Q 16.75 56 26.8125 56 
Q 31.78125 56 36.171875 55.265625 
Q 40.578125 54.546875 44.28125 53.078125 
z
" id="DejaVuSans-73"/>
      <path d="M 54.890625 33.015625 
L 54.890625 0 
L 45.90625 0 
L 45.90625 32.71875 
Q 45.90625 40.484375 42.875 44.328125 
Q 39.84375 48.1875 33.796875 48.1875 
Q 26.515625 48.1875 22.3125 43.546875 
Q 18.109375 38.921875 18.109375 30.90625 
L 18.109375 0 
L 9.078125 0 
L 9.078125 54.6875 
L 18.109375 54.6875 
L 18.109375 46.1875 
Q 21.34375 51.125 25.703125 53.5625 
Q 30.078125 56 35.796875 56 
Q 45.21875 56 50.046875 50.171875 
Q 54.890625 44.34375 54.890625 33.015625 
z
" id="DejaVuSans-6e"/>
     </defs>
     <g transform="translate(80.464963 86.546102)scale(0.11662 -0.11662)">
      <use xlink:href="#DejaVuSans-4d"/>
      <use x="86.279297" xlink:href="#DejaVuSans-65"/>
      <use x="147.802734" xlink:href="#DejaVuSans-61"/>
      <use x="209.082031" xlink:href="#DejaVuSans-73"/>
      <use x="261.181641" xlink:href="#DejaVuSans-75"/>
      <use x="324.560547" xlink:href="#DejaVuSans-72"/>
      <use x="365.642578" xlink:href="#DejaVuSans-65"/>
      <use x="427.166016" xlink:href="#DejaVuSans-6d"/>
      <use x="524.578125" xlink:href="#DejaVuSans-65"/>
      <use x="586.101562" xlink:href="#DejaVuSans-6e"/>
      <use x="649.480469" xlink:href="#DejaVuSans-74"/>
     </g>
    </g>
    <g id="line2d_26">
     <path d="M 184.103699 82.464402 
L 207.427699 82.464402 
" style="fill:none;stroke:#ff0000;stroke-width:0.5;"/>
    </g>
    <g id="line2d_27"/>
    <g id="text_17">
     <!-- Prediction(MAE = 2.542; Score = 0.88) -->
     <defs>
      <path d="M 19.671875 64.796875 
L 19.671875 37.40625 
L 32.078125 37.40625 
Q 38.96875 37.40625 42.71875 40.96875 
Q 46.484375 44.53125 46.484375 51.125 
Q 46.484375 57.671875 42.71875 61.234375 
Q 38.96875 64.796875 32.078125 64.796875 
z
M 9.8125 72.90625 
L 32.078125 72.90625 
Q 44.34375 72.90625 50.609375 67.359375 
Q 56.890625 61.8125 56.890625 51.125 
Q 56.890625 40.328125 50.609375 34.8125 
Q 44.34375 29.296875 32.078125 29.296875 
L 19.671875 29.296875 
L 19.671875 0 
L 9.8125 0 
z
" id="DejaVuSans-50"/>
      <path d="M 45.40625 46.390625 
L 45.40625 75.984375 
L 54.390625 75.984375 
L 54.390625 0 
L 45.40625 0 
L 45.40625 8.203125 
Q 42.578125 3.328125 38.25 0.953125 
Q 33.9375 -1.421875 27.875 -1.421875 
Q 17.96875 -1.421875 11.734375 6.484375 
Q 5.515625 14.40625 5.515625 27.296875 
Q 5.515625 40.1875 11.734375 48.09375 
Q 17.96875 56 27.875 56 
Q 33.9375 56 38.25 53.625 
Q 42.578125 51.265625 45.40625 46.390625 
z
M 14.796875 27.296875 
Q 14.796875 17.390625 18.875 11.75 
Q 22.953125 6.109375 30.078125 6.109375 
Q 37.203125 6.109375 41.296875 11.75 
Q 45.40625 17.390625 45.40625 27.296875 
Q 45.40625 37.203125 41.296875 42.84375 
Q 37.203125 48.484375 30.078125 48.484375 
Q 22.953125 48.484375 18.875 42.84375 
Q 14.796875 37.203125 14.796875 27.296875 
z
" id="DejaVuSans-64"/>
      <path d="M 31 75.875 
Q 24.46875 64.65625 21.28125 53.65625 
Q 18.109375 42.671875 18.109375 31.390625 
Q 18.109375 20.125 21.3125 9.0625 
Q 24.515625 -2 31 -13.1875 
L 23.1875 -13.1875 
Q 15.875 -1.703125 12.234375 9.375 
Q 8.59375 20.453125 8.59375 31.390625 
Q 8.59375 42.28125 12.203125 53.3125 
Q 15.828125 64.359375 23.1875 75.875 
z
" id="DejaVuSans-28"/>
      <path d="M 9.8125 72.90625 
L 55.90625 72.90625 
L 55.90625 64.59375 
L 19.671875 64.59375 
L 19.671875 43.015625 
L 54.390625 43.015625 
L 54.390625 34.71875 
L 19.671875 34.71875 
L 19.671875 8.296875 
L 56.78125 8.296875 
L 56.78125 0 
L 9.8125 0 
z
" id="DejaVuSans-45"/>
      <path d="M 10.59375 45.40625 
L 73.1875 45.40625 
L 73.1875 37.203125 
L 10.59375 37.203125 
z
M 10.59375 25.484375 
L 73.1875 25.484375 
L 73.1875 17.1875 
L 10.59375 17.1875 
z
" id="DejaVuSans-3d"/>
      <path d="M 10.6875 12.40625 
L 21 12.40625 
L 21 0 
L 10.6875 0 
z
" id="DejaVuSans-2e"/>
      <path d="M 11.71875 51.703125 
L 22.015625 51.703125 
L 22.015625 39.3125 
L 11.71875 39.3125 
z
M 11.71875 12.40625 
L 22.015625 12.40625 
L 22.015625 4 
L 14.015625 -11.625 
L 7.71875 -11.625 
L 11.71875 4 
z
" id="DejaVuSans-3b"/>
      <path d="M 53.515625 70.515625 
L 53.515625 60.890625 
Q 47.90625 63.578125 42.921875 64.890625 
Q 37.9375 66.21875 33.296875 66.21875 
Q 25.25 66.21875 20.875 63.09375 
Q 16.5 59.96875 16.5 54.203125 
Q 16.5 49.359375 19.40625 46.890625 
Q 22.3125 44.4375 30.421875 42.921875 
L 36.375 41.703125 
Q 47.40625 39.59375 52.65625 34.296875 
Q 57.90625 29 57.90625 20.125 
Q 57.90625 9.515625 50.796875 4.046875 
Q 43.703125 -1.421875 29.984375 -1.421875 
Q 24.8125 -1.421875 18.96875 -0.25 
Q 13.140625 0.921875 6.890625 3.21875 
L 6.890625 13.375 
Q 12.890625 10.015625 18.65625 8.296875 
Q 24.421875 6.59375 29.984375 6.59375 
Q 38.421875 6.59375 43.015625 9.90625 
Q 47.609375 13.234375 47.609375 19.390625 
Q 47.609375 24.75 44.3125 27.78125 
Q 41.015625 30.8125 33.5 32.328125 
L 27.484375 33.5 
Q 16.453125 35.6875 11.515625 40.375 
Q 6.59375 45.0625 6.59375 53.421875 
Q 6.59375 63.09375 13.40625 68.65625 
Q 20.21875 74.21875 32.171875 74.21875 
Q 37.3125 74.21875 42.625 73.28125 
Q 47.953125 72.359375 53.515625 70.515625 
z
" id="DejaVuSans-53"/>
      <path d="M 8.015625 75.875 
L 15.828125 75.875 
Q 23.140625 64.359375 26.78125 53.3125 
Q 30.421875 42.28125 30.421875 31.390625 
Q 30.421875 20.453125 26.78125 9.375 
Q 23.140625 -1.703125 15.828125 -13.1875 
L 8.015625 -13.1875 
Q 14.5 -2 17.703125 9.0625 
Q 20.90625 20.125 20.90625 31.390625 
Q 20.90625 42.671875 17.703125 53.65625 
Q 14.5 64.65625 8.015625 75.875 
z
" id="DejaVuSans-29"/>
     </defs>
     <g transform="translate(216.757299 86.546102)scale(0.11662 -0.11662)">
      <use xlink:href="#DejaVuSans-50"/>
      <use x="60.287109" xlink:href="#DejaVuSans-72"/>
      <use x="101.369141" xlink:href="#DejaVuSans-65"/>
      <use x="162.892578" xlink:href="#DejaVuSans-64"/>
      <use x="226.369141" xlink:href="#DejaVuSans-69"/>
      <use x="254.152344" xlink:href="#DejaVuSans-63"/>
      <use x="309.132812" xlink:href="#DejaVuSans-74"/>
      <use x="348.341797" xlink:href="#DejaVuSans-69"/>
      <use x="376.125" xlink:href="#DejaVuSans-6f"/>
      <use x="437.306641" xlink:href="#DejaVuSans-6e"/>
      <use x="500.685547" xlink:href="#DejaVuSans-28"/>
      <use x="539.699219" xlink:href="#DejaVuSans-4d"/>
      <use x="625.978516" xlink:href="#DejaVuSans-41"/>
      <use x="694.386719" xlink:href="#DejaVuSans-45"/>
      <use x="757.570312" xlink:href="#DejaVuSans-20"/>
      <use x="789.357422" xlink:href="#DejaVuSans-3d"/>
      <use x="873.146484" xlink:href="#DejaVuSans-20"/>
      <use x="904.933594" xlink:href="#DejaVuSans-32"/>
      <use x="968.556641" xlink:href="#DejaVuSans-2e"/>
      <use x="1000.34375" xlink:href="#DejaVuSans-35"/>
      <use x="1063.966797" xlink:href="#DejaVuSans-34"/>
      <use x="1127.589844" xlink:href="#DejaVuSans-32"/>
      <use x="1191.212891" xlink:href="#DejaVuSans-3b"/>
      <use x="1224.904297" xlink:href="#DejaVuSans-20"/>
      <use x="1256.691406" xlink:href="#DejaVuSans-53"/>
      <use x="1320.167969" xlink:href="#DejaVuSans-63"/>
      <use x="1375.148438" xlink:href="#DejaVuSans-6f"/>
      <use x="1436.330078" xlink:href="#DejaVuSans-72"/>
      <use x="1477.412109" xlink:href="#DejaVuSans-65"/>
      <use x="1538.935547" xlink:href="#DejaVuSans-20"/>
      <use x="1570.722656" xlink:href="#DejaVuSans-3d"/>
      <use x="1654.511719" xlink:href="#DejaVuSans-20"/>
      <use x="1686.298828" xlink:href="#DejaVuSans-30"/>
      <use x="1749.921875" xlink:href="#DejaVuSans-2e"/>
      <use x="1781.708984" xlink:href="#DejaVuSans-38"/>
      <use x="1845.332031" xlink:href="#DejaVuSans-38"/>
      <use x="1908.955078" xlink:href="#DejaVuSans-29"/>
     </g>
    </g>
   </g>
  </g>
 </g>
 <defs>
  <clipPath id="pffeb5e7532">
   <rect height="178.45772" width="413.6346" x="39.054" y="108.23428"/>
  </clipPath>
 </defs>
</svg>
