<?xml version="1.0" encoding="utf-8" standalone="no"?>
<!DOCTYPE svg PUBLIC "-//W3C//DTD SVG 1.1//EN"
  "http://www.w3.org/Graphics/SVG/1.1/DTD/svg11.dtd">
<!-- Created with matplotlib (http://matplotlib.org/) -->
<svg height="345.6pt" version="1.1" viewBox="0 0 460.8 345.6" width="460.8pt" xmlns="http://www.w3.org/2000/svg" xmlns:xlink="http://www.w3.org/1999/xlink">
 <defs>
  <style type="text/css">
*{stroke-linecap:butt;stroke-linejoin:round;}
  </style>
 </defs>
 <g id="figure_1">
  <g id="patch_1">
   <path d="M 0 345.6 
L 460.8 345.6 
L 460.8 0 
L 0 0 
z
" style="fill:#f0f0f0;"/>
  </g>
  <g id="axes_1">
   <g id="patch_2">
    <path d="M 41.394 286.692 
L 452.6886 286.692 
L 452.6886 108.23428 
L 41.394 108.23428 
z
" style="fill:#f0f0f0;"/>
   </g>
   <g id="matplotlib.axis_1">
    <g id="xtick_1">
     <g id="line2d_1">
      <path clip-path="url(#p9d00d361d5)" d="M 41.394 286.692 
L 41.394 108.23428 
" style="fill:none;stroke:#cbcbcb;"/>
     </g>
     <g id="line2d_2"/>
     <g id="text_1">
      <!-- 08 -->
      <defs>
       <path d="M 31.78125 66.40625 
Q 24.171875 66.40625 20.328125 58.90625 
Q 16.5 51.421875 16.5 36.375 
Q 16.5 21.390625 20.328125 13.890625 
Q 24.171875 6.390625 31.78125 6.390625 
Q 39.453125 6.390625 43.28125 13.890625 
Q 47.125 21.390625 47.125 36.375 
Q 47.125 51.421875 43.28125 58.90625 
Q 39.453125 66.40625 31.78125 66.40625 
z
M 31.78125 74.21875 
Q 44.046875 74.21875 50.515625 64.515625 
Q 56.984375 54.828125 56.984375 36.375 
Q 56.984375 17.96875 50.515625 8.265625 
Q 44.046875 -1.421875 31.78125 -1.421875 
Q 19.53125 -1.421875 13.0625 8.265625 
Q 6.59375 17.96875 6.59375 36.375 
Q 6.59375 54.828125 13.0625 64.515625 
Q 19.53125 74.21875 31.78125 74.21875 
z
" id="DejaVuSans-30"/>
       <path d="M 31.78125 34.625 
Q 24.75 34.625 20.71875 30.859375 
Q 16.703125 27.09375 16.703125 20.515625 
Q 16.703125 13.921875 20.71875 10.15625 
Q 24.75 6.390625 31.78125 6.390625 
Q 38.8125 6.390625 42.859375 10.171875 
Q 46.921875 13.96875 46.921875 20.515625 
Q 46.921875 27.09375 42.890625 30.859375 
Q 38.875 34.625 31.78125 34.625 
z
M 21.921875 38.8125 
Q 15.578125 40.375 12.03125 44.71875 
Q 8.5 49.078125 8.5 55.328125 
Q 8.5 64.0625 14.71875 69.140625 
Q 20.953125 74.21875 31.78125 74.21875 
Q 42.671875 74.21875 48.875 69.140625 
Q 55.078125 64.0625 55.078125 55.328125 
Q 55.078125 49.078125 51.53125 44.71875 
Q 48 40.375 41.703125 38.8125 
Q 48.828125 37.15625 52.796875 32.3125 
Q 56.78125 27.484375 56.78125 20.515625 
Q 56.78125 9.90625 50.3125 4.234375 
Q 43.84375 -1.421875 31.78125 -1.421875 
Q 19.734375 -1.421875 13.25 4.234375 
Q 6.78125 9.90625 6.78125 20.515625 
Q 6.78125 27.484375 10.78125 32.3125 
Q 14.796875 37.15625 21.921875 38.8125 
z
M 18.3125 54.390625 
Q 18.3125 48.734375 21.84375 45.5625 
Q 25.390625 42.390625 31.78125 42.390625 
Q 38.140625 42.390625 41.71875 45.5625 
Q 45.3125 48.734375 45.3125 54.390625 
Q 45.3125 60.0625 41.71875 63.234375 
Q 38.140625 66.40625 31.78125 66.40625 
Q 25.390625 66.40625 21.84375 63.234375 
Q 18.3125 60.0625 18.3125 54.390625 
z
" id="DejaVuSans-38"/>
      </defs>
      <g transform="translate(33.974052 299.053298)scale(0.11662 -0.11662)">
       <use xlink:href="#DejaVuSans-30"/>
       <use x="63.623047" xlink:href="#DejaVuSans-38"/>
      </g>
      <!-- Aug -->
      <defs>
       <path d="M 34.1875 63.1875 
L 20.796875 26.90625 
L 47.609375 26.90625 
z
M 28.609375 72.90625 
L 39.796875 72.90625 
L 67.578125 0 
L 57.328125 0 
L 50.6875 18.703125 
L 17.828125 18.703125 
L 11.1875 0 
L 0.78125 0 
z
" id="DejaVuSans-41"/>
       <path d="M 8.5 21.578125 
L 8.5 54.6875 
L 17.484375 54.6875 
L 17.484375 21.921875 
Q 17.484375 14.15625 20.5 10.265625 
Q 23.53125 6.390625 29.59375 6.390625 
Q 36.859375 6.390625 41.078125 11.03125 
Q 45.3125 15.671875 45.3125 23.6875 
L 45.3125 54.6875 
L 54.296875 54.6875 
L 54.296875 0 
L 45.3125 0 
L 45.3125 8.40625 
Q 42.046875 3.421875 37.71875 1 
Q 33.40625 -1.421875 27.6875 -1.421875 
Q 18.265625 -1.421875 13.375 4.4375 
Q 8.5 10.296875 8.5 21.578125 
z
M 31.109375 56 
z
" id="DejaVuSans-75"/>
       <path d="M 45.40625 27.984375 
Q 45.40625 37.75 41.375 43.109375 
Q 37.359375 48.484375 30.078125 48.484375 
Q 22.859375 48.484375 18.828125 43.109375 
Q 14.796875 37.75 14.796875 27.984375 
Q 14.796875 18.265625 18.828125 12.890625 
Q 22.859375 7.515625 30.078125 7.515625 
Q 37.359375 7.515625 41.375 12.890625 
Q 45.40625 18.265625 45.40625 27.984375 
z
M 54.390625 6.78125 
Q 54.390625 -7.171875 48.1875 -13.984375 
Q 42 -20.796875 29.203125 -20.796875 
Q 24.46875 -20.796875 20.265625 -20.09375 
Q 16.0625 -19.390625 12.109375 -17.921875 
L 12.109375 -9.1875 
Q 16.0625 -11.328125 19.921875 -12.34375 
Q 23.78125 -13.375 27.78125 -13.375 
Q 36.625 -13.375 41.015625 -8.765625 
Q 45.40625 -4.15625 45.40625 5.171875 
L 45.40625 9.625 
Q 42.625 4.78125 38.28125 2.390625 
Q 33.9375 0 27.875 0 
Q 17.828125 0 11.671875 7.65625 
Q 5.515625 15.328125 5.515625 27.984375 
Q 5.515625 40.671875 11.671875 48.328125 
Q 17.828125 56 27.875 56 
Q 33.9375 56 38.28125 53.609375 
Q 42.625 51.21875 45.40625 46.390625 
L 45.40625 54.6875 
L 54.390625 54.6875 
z
" id="DejaVuSans-67"/>
      </defs>
      <g transform="translate(30.008061 312.112187)scale(0.11662 -0.11662)">
       <use xlink:href="#DejaVuSans-41"/>
       <use x="68.408203" xlink:href="#DejaVuSans-75"/>
       <use x="131.787109" xlink:href="#DejaVuSans-67"/>
      </g>
      <!-- 2016 -->
      <defs>
       <path d="M 19.1875 8.296875 
L 53.609375 8.296875 
L 53.609375 0 
L 7.328125 0 
L 7.328125 8.296875 
Q 12.9375 14.109375 22.625 23.890625 
Q 32.328125 33.6875 34.8125 36.53125 
Q 39.546875 41.84375 41.421875 45.53125 
Q 43.3125 49.21875 43.3125 52.78125 
Q 43.3125 58.59375 39.234375 62.25 
Q 35.15625 65.921875 28.609375 65.921875 
Q 23.96875 65.921875 18.8125 64.3125 
Q 13.671875 62.703125 7.8125 59.421875 
L 7.8125 69.390625 
Q 13.765625 71.78125 18.9375 73 
Q 24.125 74.21875 28.421875 74.21875 
Q 39.75 74.21875 46.484375 68.546875 
Q 53.21875 62.890625 53.21875 53.421875 
Q 53.21875 48.921875 51.53125 44.890625 
Q 49.859375 40.875 45.40625 35.40625 
Q 44.1875 33.984375 37.640625 27.21875 
Q 31.109375 20.453125 19.1875 8.296875 
z
" id="DejaVuSans-32"/>
       <path d="M 12.40625 8.296875 
L 28.515625 8.296875 
L 28.515625 63.921875 
L 10.984375 60.40625 
L 10.984375 69.390625 
L 28.421875 72.90625 
L 38.28125 72.90625 
L 38.28125 8.296875 
L 54.390625 8.296875 
L 54.390625 0 
L 12.40625 0 
z
" id="DejaVuSans-31"/>
       <path d="M 33.015625 40.375 
Q 26.375 40.375 22.484375 35.828125 
Q 18.609375 31.296875 18.609375 23.390625 
Q 18.609375 15.53125 22.484375 10.953125 
Q 26.375 6.390625 33.015625 6.390625 
Q 39.65625 6.390625 43.53125 10.953125 
Q 47.40625 15.53125 47.40625 23.390625 
Q 47.40625 31.296875 43.53125 35.828125 
Q 39.65625 40.375 33.015625 40.375 
z
M 52.59375 71.296875 
L 52.59375 62.3125 
Q 48.875 64.0625 45.09375 64.984375 
Q 41.3125 65.921875 37.59375 65.921875 
Q 27.828125 65.921875 22.671875 59.328125 
Q 17.53125 52.734375 16.796875 39.40625 
Q 19.671875 43.65625 24.015625 45.921875 
Q 28.375 48.1875 33.59375 48.1875 
Q 44.578125 48.1875 50.953125 41.515625 
Q 57.328125 34.859375 57.328125 23.390625 
Q 57.328125 12.15625 50.6875 5.359375 
Q 44.046875 -1.421875 33.015625 -1.421875 
Q 20.359375 -1.421875 13.671875 8.265625 
Q 6.984375 17.96875 6.984375 36.375 
Q 6.984375 53.65625 15.1875 63.9375 
Q 23.390625 74.21875 37.203125 74.21875 
Q 40.921875 74.21875 44.703125 73.484375 
Q 48.484375 72.75 52.59375 71.296875 
z
" id="DejaVuSans-36"/>
      </defs>
      <g transform="translate(26.554105 325.171076)scale(0.11662 -0.11662)">
       <use xlink:href="#DejaVuSans-32"/>
       <use x="63.623047" xlink:href="#DejaVuSans-30"/>
       <use x="127.246094" xlink:href="#DejaVuSans-31"/>
       <use x="190.869141" xlink:href="#DejaVuSans-36"/>
      </g>
     </g>
    </g>
    <g id="xtick_2">
     <g id="line2d_3">
      <path clip-path="url(#p9d00d361d5)" d="M 452.6886 286.692 
L 452.6886 108.23428 
" style="fill:none;stroke:#cbcbcb;"/>
     </g>
     <g id="line2d_4"/>
    </g>
    <g id="xtick_3">
     <g id="line2d_5"/>
    </g>
    <g id="xtick_4">
     <g id="line2d_6"/>
     <g id="text_2">
      <!-- 09 -->
      <defs>
       <path d="M 10.984375 1.515625 
L 10.984375 10.5 
Q 14.703125 8.734375 18.5 7.8125 
Q 22.3125 6.890625 25.984375 6.890625 
Q 35.75 6.890625 40.890625 13.453125 
Q 46.046875 20.015625 46.78125 33.40625 
Q 43.953125 29.203125 39.59375 26.953125 
Q 35.25 24.703125 29.984375 24.703125 
Q 19.046875 24.703125 12.671875 31.3125 
Q 6.296875 37.9375 6.296875 49.421875 
Q 6.296875 60.640625 12.9375 67.421875 
Q 19.578125 74.21875 30.609375 74.21875 
Q 43.265625 74.21875 49.921875 64.515625 
Q 56.59375 54.828125 56.59375 36.375 
Q 56.59375 19.140625 48.40625 8.859375 
Q 40.234375 -1.421875 26.421875 -1.421875 
Q 22.703125 -1.421875 18.890625 -0.6875 
Q 15.09375 0.046875 10.984375 1.515625 
z
M 30.609375 32.421875 
Q 37.25 32.421875 41.125 36.953125 
Q 45.015625 41.5 45.015625 49.421875 
Q 45.015625 57.28125 41.125 61.84375 
Q 37.25 66.40625 30.609375 66.40625 
Q 23.96875 66.40625 20.09375 61.84375 
Q 16.21875 57.28125 16.21875 49.421875 
Q 16.21875 41.5 20.09375 36.953125 
Q 23.96875 32.421875 30.609375 32.421875 
z
" id="DejaVuSans-39"/>
      </defs>
      <g transform="translate(79.726407 298.953298)scale(0.11662 -0.11662)">
       <use xlink:href="#DejaVuSans-30"/>
       <use x="63.623047" xlink:href="#DejaVuSans-39"/>
      </g>
     </g>
    </g>
    <g id="xtick_5">
     <g id="line2d_7"/>
     <g id="text_3">
      <!-- 10 -->
      <g transform="translate(125.478761 298.953298)scale(0.11662 -0.11662)">
       <use xlink:href="#DejaVuSans-31"/>
       <use x="63.623047" xlink:href="#DejaVuSans-30"/>
      </g>
     </g>
    </g>
    <g id="xtick_6">
     <g id="line2d_8"/>
     <g id="text_4">
      <!-- 11 -->
      <g transform="translate(171.231115 298.953298)scale(0.11662 -0.11662)">
       <use xlink:href="#DejaVuSans-31"/>
       <use x="63.623047" xlink:href="#DejaVuSans-31"/>
      </g>
     </g>
    </g>
    <g id="xtick_7">
     <g id="line2d_9"/>
     <g id="text_5">
      <!-- 12 -->
      <g transform="translate(216.983469 298.953298)scale(0.11662 -0.11662)">
       <use xlink:href="#DejaVuSans-31"/>
       <use x="63.623047" xlink:href="#DejaVuSans-32"/>
      </g>
     </g>
    </g>
    <g id="xtick_8">
     <g id="line2d_10"/>
     <g id="text_6">
      <!-- 13 -->
      <defs>
       <path d="M 40.578125 39.3125 
Q 47.65625 37.796875 51.625 33 
Q 55.609375 28.21875 55.609375 21.1875 
Q 55.609375 10.40625 48.1875 4.484375 
Q 40.765625 -1.421875 27.09375 -1.421875 
Q 22.515625 -1.421875 17.65625 -0.515625 
Q 12.796875 0.390625 7.625 2.203125 
L 7.625 11.71875 
Q 11.71875 9.328125 16.59375 8.109375 
Q 21.484375 6.890625 26.8125 6.890625 
Q 36.078125 6.890625 40.9375 10.546875 
Q 45.796875 14.203125 45.796875 21.1875 
Q 45.796875 27.640625 41.28125 31.265625 
Q 36.765625 34.90625 28.71875 34.90625 
L 20.21875 34.90625 
L 20.21875 43.015625 
L 29.109375 43.015625 
Q 36.375 43.015625 40.234375 45.921875 
Q 44.09375 48.828125 44.09375 54.296875 
Q 44.09375 59.90625 40.109375 62.90625 
Q 36.140625 65.921875 28.71875 65.921875 
Q 24.65625 65.921875 20.015625 65.03125 
Q 15.375 64.15625 9.8125 62.3125 
L 9.8125 71.09375 
Q 15.4375 72.65625 20.34375 73.4375 
Q 25.25 74.21875 29.59375 74.21875 
Q 40.828125 74.21875 47.359375 69.109375 
Q 53.90625 64.015625 53.90625 55.328125 
Q 53.90625 49.265625 50.4375 45.09375 
Q 46.96875 40.921875 40.578125 39.3125 
z
" id="DejaVuSans-33"/>
      </defs>
      <g transform="translate(262.735823 298.953298)scale(0.11662 -0.11662)">
       <use xlink:href="#DejaVuSans-31"/>
       <use x="63.623047" xlink:href="#DejaVuSans-33"/>
      </g>
     </g>
    </g>
    <g id="xtick_9">
     <g id="line2d_11"/>
     <g id="text_7">
      <!-- 14 -->
      <defs>
       <path d="M 37.796875 64.3125 
L 12.890625 25.390625 
L 37.796875 25.390625 
z
M 35.203125 72.90625 
L 47.609375 72.90625 
L 47.609375 25.390625 
L 58.015625 25.390625 
L 58.015625 17.1875 
L 47.609375 17.1875 
L 47.609375 0 
L 37.796875 0 
L 37.796875 17.1875 
L 4.890625 17.1875 
L 4.890625 26.703125 
z
" id="DejaVuSans-34"/>
      </defs>
      <g transform="translate(308.488177 298.953298)scale(0.11662 -0.11662)">
       <use xlink:href="#DejaVuSans-31"/>
       <use x="63.623047" xlink:href="#DejaVuSans-34"/>
      </g>
     </g>
    </g>
    <g id="xtick_10">
     <g id="line2d_12"/>
     <g id="text_8">
      <!-- 15 -->
      <defs>
       <path d="M 10.796875 72.90625 
L 49.515625 72.90625 
L 49.515625 64.59375 
L 19.828125 64.59375 
L 19.828125 46.734375 
Q 21.96875 47.46875 24.109375 47.828125 
Q 26.265625 48.1875 28.421875 48.1875 
Q 40.625 48.1875 47.75 41.5 
Q 54.890625 34.8125 54.890625 23.390625 
Q 54.890625 11.625 47.5625 5.09375 
Q 40.234375 -1.421875 26.90625 -1.421875 
Q 22.3125 -1.421875 17.546875 -0.640625 
Q 12.796875 0.140625 7.71875 1.703125 
L 7.71875 11.625 
Q 12.109375 9.234375 16.796875 8.0625 
Q 21.484375 6.890625 26.703125 6.890625 
Q 35.15625 6.890625 40.078125 11.328125 
Q 45.015625 15.765625 45.015625 23.390625 
Q 45.015625 31 40.078125 35.4375 
Q 35.15625 39.890625 26.703125 39.890625 
Q 22.75 39.890625 18.8125 39.015625 
Q 14.890625 38.140625 10.796875 36.28125 
z
" id="DejaVuSans-35"/>
      </defs>
      <g transform="translate(354.240531 298.953298)scale(0.11662 -0.11662)">
       <use xlink:href="#DejaVuSans-31"/>
       <use x="63.623047" xlink:href="#DejaVuSans-35"/>
      </g>
     </g>
    </g>
    <g id="xtick_11">
     <g id="line2d_13"/>
     <g id="text_9">
      <!-- 16 -->
      <g transform="translate(399.992885 298.953298)scale(0.11662 -0.11662)">
       <use xlink:href="#DejaVuSans-31"/>
       <use x="63.623047" xlink:href="#DejaVuSans-36"/>
      </g>
     </g>
    </g>
    <g id="text_10">
     <!-- Time -->
     <defs>
      <path d="M -0.296875 72.90625 
L 61.375 72.90625 
L 61.375 64.59375 
L 35.5 64.59375 
L 35.5 0 
L 25.59375 0 
L 25.59375 64.59375 
L -0.296875 64.59375 
z
" id="DejaVuSans-54"/>
      <path d="M 9.421875 54.6875 
L 18.40625 54.6875 
L 18.40625 0 
L 9.421875 0 
z
M 9.421875 75.984375 
L 18.40625 75.984375 
L 18.40625 64.59375 
L 9.421875 64.59375 
z
" id="DejaVuSans-69"/>
      <path d="M 52 44.1875 
Q 55.375 50.25 60.0625 53.125 
Q 64.75 56 71.09375 56 
Q 79.640625 56 84.28125 50.015625 
Q 88.921875 44.046875 88.921875 33.015625 
L 88.921875 0 
L 79.890625 0 
L 79.890625 32.71875 
Q 79.890625 40.578125 77.09375 44.375 
Q 74.3125 48.1875 68.609375 48.1875 
Q 61.625 48.1875 57.5625 43.546875 
Q 53.515625 38.921875 53.515625 30.90625 
L 53.515625 0 
L 44.484375 0 
L 44.484375 32.71875 
Q 44.484375 40.625 41.703125 44.40625 
Q 38.921875 48.1875 33.109375 48.1875 
Q 26.21875 48.1875 22.15625 43.53125 
Q 18.109375 38.875 18.109375 30.90625 
L 18.109375 0 
L 9.078125 0 
L 9.078125 54.6875 
L 18.109375 54.6875 
L 18.109375 46.1875 
Q 21.1875 51.21875 25.484375 53.609375 
Q 29.78125 56 35.6875 56 
Q 41.65625 56 45.828125 52.96875 
Q 50 49.953125 52 44.1875 
z
" id="DejaVuSans-6d"/>
      <path d="M 56.203125 29.59375 
L 56.203125 25.203125 
L 14.890625 25.203125 
Q 15.484375 15.921875 20.484375 11.0625 
Q 25.484375 6.203125 34.421875 6.203125 
Q 39.59375 6.203125 44.453125 7.46875 
Q 49.3125 8.734375 54.109375 11.28125 
L 54.109375 2.78125 
Q 49.265625 0.734375 44.1875 -0.34375 
Q 39.109375 -1.421875 33.890625 -1.421875 
Q 20.796875 -1.421875 13.15625 6.1875 
Q 5.515625 13.8125 5.515625 26.8125 
Q 5.515625 40.234375 12.765625 48.109375 
Q 20.015625 56 32.328125 56 
Q 43.359375 56 49.78125 48.890625 
Q 56.203125 41.796875 56.203125 29.59375 
z
M 47.21875 32.234375 
Q 47.125 39.59375 43.09375 43.984375 
Q 39.0625 48.390625 32.421875 48.390625 
Q 24.90625 48.390625 20.390625 44.140625 
Q 15.875 39.890625 15.1875 32.171875 
z
" id="DejaVuSans-65"/>
     </defs>
     <g transform="translate(232.594998 340.457705)scale(0.11662 -0.11662)">
      <use xlink:href="#DejaVuSans-54"/>
      <use x="61.037109" xlink:href="#DejaVuSans-69"/>
      <use x="88.820312" xlink:href="#DejaVuSans-6d"/>
      <use x="186.232422" xlink:href="#DejaVuSans-65"/>
     </g>
    </g>
   </g>
   <g id="matplotlib.axis_2">
    <g id="ytick_1">
     <g id="line2d_14">
      <path clip-path="url(#p9d00d361d5)" d="M 41.394 260.541581 
L 452.6886 260.541581 
" style="fill:none;stroke:#cbcbcb;"/>
     </g>
     <g id="line2d_15"/>
     <g id="text_11">
      <!-- 0 -->
      <g transform="translate(30.474053 264.97223)scale(0.11662 -0.11662)">
       <use xlink:href="#DejaVuSans-30"/>
      </g>
     </g>
    </g>
    <g id="ytick_2">
     <g id="line2d_16">
      <path clip-path="url(#p9d00d361d5)" d="M 41.394 214.325047 
L 452.6886 214.325047 
" style="fill:none;stroke:#cbcbcb;"/>
     </g>
     <g id="line2d_17"/>
     <g id="text_12">
      <!-- 10 -->
      <g transform="translate(23.054105 218.755696)scale(0.11662 -0.11662)">
       <use xlink:href="#DejaVuSans-31"/>
       <use x="63.623047" xlink:href="#DejaVuSans-30"/>
      </g>
     </g>
    </g>
    <g id="ytick_3">
     <g id="line2d_18">
      <path clip-path="url(#p9d00d361d5)" d="M 41.394 168.108513 
L 452.6886 168.108513 
" style="fill:none;stroke:#cbcbcb;"/>
     </g>
     <g id="line2d_19"/>
     <g id="text_13">
      <!-- 20 -->
      <g transform="translate(23.054105 172.539162)scale(0.11662 -0.11662)">
       <use xlink:href="#DejaVuSans-32"/>
       <use x="63.623047" xlink:href="#DejaVuSans-30"/>
      </g>
     </g>
    </g>
    <g id="ytick_4">
     <g id="line2d_20">
      <path clip-path="url(#p9d00d361d5)" d="M 41.394 121.891979 
L 452.6886 121.891979 
" style="fill:none;stroke:#cbcbcb;"/>
     </g>
     <g id="line2d_21"/>
     <g id="text_14">
      <!-- 30 -->
      <g transform="translate(23.054105 126.322628)scale(0.11662 -0.11662)">
       <use xlink:href="#DejaVuSans-33"/>
       <use x="63.623047" xlink:href="#DejaVuSans-30"/>
      </g>
     </g>
    </g>
    <g id="text_15">
     <!-- Total active power [kW] -->
     <defs>
      <path d="M 30.609375 48.390625 
Q 23.390625 48.390625 19.1875 42.75 
Q 14.984375 37.109375 14.984375 27.296875 
Q 14.984375 17.484375 19.15625 11.84375 
Q 23.34375 6.203125 30.609375 6.203125 
Q 37.796875 6.203125 41.984375 11.859375 
Q 46.1875 17.53125 46.1875 27.296875 
Q 46.1875 37.015625 41.984375 42.703125 
Q 37.796875 48.390625 30.609375 48.390625 
z
M 30.609375 56 
Q 42.328125 56 49.015625 48.375 
Q 55.71875 40.765625 55.71875 27.296875 
Q 55.71875 13.875 49.015625 6.21875 
Q 42.328125 -1.421875 30.609375 -1.421875 
Q 18.84375 -1.421875 12.171875 6.21875 
Q 5.515625 13.875 5.515625 27.296875 
Q 5.515625 40.765625 12.171875 48.375 
Q 18.84375 56 30.609375 56 
z
" id="DejaVuSans-6f"/>
      <path d="M 18.3125 70.21875 
L 18.3125 54.6875 
L 36.8125 54.6875 
L 36.8125 47.703125 
L 18.3125 47.703125 
L 18.3125 18.015625 
Q 18.3125 11.328125 20.140625 9.421875 
Q 21.96875 7.515625 27.59375 7.515625 
L 36.8125 7.515625 
L 36.8125 0 
L 27.59375 0 
Q 17.1875 0 13.234375 3.875 
Q 9.28125 7.765625 9.28125 18.015625 
L 9.28125 47.703125 
L 2.6875 47.703125 
L 2.6875 54.6875 
L 9.28125 54.6875 
L 9.28125 70.21875 
z
" id="DejaVuSans-74"/>
      <path d="M 34.28125 27.484375 
Q 23.390625 27.484375 19.1875 25 
Q 14.984375 22.515625 14.984375 16.5 
Q 14.984375 11.71875 18.140625 8.90625 
Q 21.296875 6.109375 26.703125 6.109375 
Q 34.1875 6.109375 38.703125 11.40625 
Q 43.21875 16.703125 43.21875 25.484375 
L 43.21875 27.484375 
z
M 52.203125 31.203125 
L 52.203125 0 
L 43.21875 0 
L 43.21875 8.296875 
Q 40.140625 3.328125 35.546875 0.953125 
Q 30.953125 -1.421875 24.3125 -1.421875 
Q 15.921875 -1.421875 10.953125 3.296875 
Q 6 8.015625 6 15.921875 
Q 6 25.140625 12.171875 29.828125 
Q 18.359375 34.515625 30.609375 34.515625 
L 43.21875 34.515625 
L 43.21875 35.40625 
Q 43.21875 41.609375 39.140625 45 
Q 35.0625 48.390625 27.6875 48.390625 
Q 23 48.390625 18.546875 47.265625 
Q 14.109375 46.140625 10.015625 43.890625 
L 10.015625 52.203125 
Q 14.9375 54.109375 19.578125 55.046875 
Q 24.21875 56 28.609375 56 
Q 40.484375 56 46.34375 49.84375 
Q 52.203125 43.703125 52.203125 31.203125 
z
" id="DejaVuSans-61"/>
      <path d="M 9.421875 75.984375 
L 18.40625 75.984375 
L 18.40625 0 
L 9.421875 0 
z
" id="DejaVuSans-6c"/>
      <path id="DejaVuSans-20"/>
      <path d="M 48.78125 52.59375 
L 48.78125 44.1875 
Q 44.96875 46.296875 41.140625 47.34375 
Q 37.3125 48.390625 33.40625 48.390625 
Q 24.65625 48.390625 19.8125 42.84375 
Q 14.984375 37.3125 14.984375 27.296875 
Q 14.984375 17.28125 19.8125 11.734375 
Q 24.65625 6.203125 33.40625 6.203125 
Q 37.3125 6.203125 41.140625 7.25 
Q 44.96875 8.296875 48.78125 10.40625 
L 48.78125 2.09375 
Q 45.015625 0.34375 40.984375 -0.53125 
Q 36.96875 -1.421875 32.421875 -1.421875 
Q 20.0625 -1.421875 12.78125 6.34375 
Q 5.515625 14.109375 5.515625 27.296875 
Q 5.515625 40.671875 12.859375 48.328125 
Q 20.21875 56 33.015625 56 
Q 37.15625 56 41.109375 55.140625 
Q 45.0625 54.296875 48.78125 52.59375 
z
" id="DejaVuSans-63"/>
      <path d="M 2.984375 54.6875 
L 12.5 54.6875 
L 29.59375 8.796875 
L 46.6875 54.6875 
L 56.203125 54.6875 
L 35.6875 0 
L 23.484375 0 
z
" id="DejaVuSans-76"/>
      <path d="M 18.109375 8.203125 
L 18.109375 -20.796875 
L 9.078125 -20.796875 
L 9.078125 54.6875 
L 18.109375 54.6875 
L 18.109375 46.390625 
Q 20.953125 51.265625 25.265625 53.625 
Q 29.59375 56 35.59375 56 
Q 45.5625 56 51.78125 48.09375 
Q 58.015625 40.1875 58.015625 27.296875 
Q 58.015625 14.40625 51.78125 6.484375 
Q 45.5625 -1.421875 35.59375 -1.421875 
Q 29.59375 -1.421875 25.265625 0.953125 
Q 20.953125 3.328125 18.109375 8.203125 
z
M 48.6875 27.296875 
Q 48.6875 37.203125 44.609375 42.84375 
Q 40.53125 48.484375 33.40625 48.484375 
Q 26.265625 48.484375 22.1875 42.84375 
Q 18.109375 37.203125 18.109375 27.296875 
Q 18.109375 17.390625 22.1875 11.75 
Q 26.265625 6.109375 33.40625 6.109375 
Q 40.53125 6.109375 44.609375 11.75 
Q 48.6875 17.390625 48.6875 27.296875 
z
" id="DejaVuSans-70"/>
      <path d="M 4.203125 54.6875 
L 13.1875 54.6875 
L 24.421875 12.015625 
L 35.59375 54.6875 
L 46.1875 54.6875 
L 57.421875 12.015625 
L 68.609375 54.6875 
L 77.59375 54.6875 
L 63.28125 0 
L 52.6875 0 
L 40.921875 44.828125 
L 29.109375 0 
L 18.5 0 
z
" id="DejaVuSans-77"/>
      <path d="M 41.109375 46.296875 
Q 39.59375 47.171875 37.8125 47.578125 
Q 36.03125 48 33.890625 48 
Q 26.265625 48 22.1875 43.046875 
Q 18.109375 38.09375 18.109375 28.8125 
L 18.109375 0 
L 9.078125 0 
L 9.078125 54.6875 
L 18.109375 54.6875 
L 18.109375 46.1875 
Q 20.953125 51.171875 25.484375 53.578125 
Q 30.03125 56 36.53125 56 
Q 37.453125 56 38.578125 55.875 
Q 39.703125 55.765625 41.0625 55.515625 
z
" id="DejaVuSans-72"/>
      <path d="M 8.59375 75.984375 
L 29.296875 75.984375 
L 29.296875 69 
L 17.578125 69 
L 17.578125 -6.203125 
L 29.296875 -6.203125 
L 29.296875 -13.1875 
L 8.59375 -13.1875 
z
" id="DejaVuSans-5b"/>
      <path d="M 9.078125 75.984375 
L 18.109375 75.984375 
L 18.109375 31.109375 
L 44.921875 54.6875 
L 56.390625 54.6875 
L 27.390625 29.109375 
L 57.625 0 
L 45.90625 0 
L 18.109375 26.703125 
L 18.109375 0 
L 9.078125 0 
z
" id="DejaVuSans-6b"/>
      <path d="M 3.328125 72.90625 
L 13.28125 72.90625 
L 28.609375 11.28125 
L 43.890625 72.90625 
L 54.984375 72.90625 
L 70.3125 11.28125 
L 85.59375 72.90625 
L 95.609375 72.90625 
L 77.296875 0 
L 64.890625 0 
L 49.515625 63.28125 
L 33.984375 0 
L 21.578125 0 
z
" id="DejaVuSans-57"/>
      <path d="M 30.421875 75.984375 
L 30.421875 -13.1875 
L 9.71875 -13.1875 
L 9.71875 -6.203125 
L 21.390625 -6.203125 
L 21.390625 69 
L 9.71875 69 
L 9.71875 75.984375 
z
" id="DejaVuSans-5d"/>
     </defs>
     <g transform="translate(16.628773 267.055214)rotate(-90)scale(0.11662 -0.11662)">
      <use xlink:href="#DejaVuSans-54"/>
      <use x="60.818359" xlink:href="#DejaVuSans-6f"/>
      <use x="122" xlink:href="#DejaVuSans-74"/>
      <use x="161.208984" xlink:href="#DejaVuSans-61"/>
      <use x="222.488281" xlink:href="#DejaVuSans-6c"/>
      <use x="250.271484" xlink:href="#DejaVuSans-20"/>
      <use x="282.058594" xlink:href="#DejaVuSans-61"/>
      <use x="343.337891" xlink:href="#DejaVuSans-63"/>
      <use x="398.318359" xlink:href="#DejaVuSans-74"/>
      <use x="437.527344" xlink:href="#DejaVuSans-69"/>
      <use x="465.310547" xlink:href="#DejaVuSans-76"/>
      <use x="524.490234" xlink:href="#DejaVuSans-65"/>
      <use x="586.013672" xlink:href="#DejaVuSans-20"/>
      <use x="617.800781" xlink:href="#DejaVuSans-70"/>
      <use x="681.277344" xlink:href="#DejaVuSans-6f"/>
      <use x="742.458984" xlink:href="#DejaVuSans-77"/>
      <use x="824.246094" xlink:href="#DejaVuSans-65"/>
      <use x="885.769531" xlink:href="#DejaVuSans-72"/>
      <use x="926.882812" xlink:href="#DejaVuSans-20"/>
      <use x="958.669922" xlink:href="#DejaVuSans-5b"/>
      <use x="997.683594" xlink:href="#DejaVuSans-6b"/>
      <use x="1055.59375" xlink:href="#DejaVuSans-57"/>
      <use x="1154.470703" xlink:href="#DejaVuSans-5d"/>
     </g>
    </g>
   </g>
   <g id="line2d_22">
    <path clip-path="url(#p9d00d361d5)" d="M 41.394 260.079416 
L 42.347174 260.079416 
L 42.823761 259.61725 
L 43.300348 259.61725 
L 43.776935 260.079416 
L 44.253522 259.61725 
L 44.730109 259.61725 
L 45.206696 260.079416 
L 45.683283 259.61725 
L 47.589631 259.61725 
L 48.066218 260.079416 
L 48.542805 260.079416 
L 49.019392 259.61725 
L 49.495979 260.079416 
L 50.449153 260.079416 
L 50.92574 259.61725 
L 51.402327 259.61725 
L 51.878914 260.079416 
L 52.355502 259.61725 
L 52.832089 260.079416 
L 54.738437 260.079416 
L 55.215024 259.61725 
L 55.691611 259.61725 
L 56.168198 228.652172 
L 56.644785 181.511308 
L 57.121372 181.973473 
L 57.597959 181.973473 
L 58.074546 183.822134 
L 58.551133 183.359969 
L 59.02772 183.822134 
L 59.504307 181.511308 
L 59.980894 183.822134 
L 60.457481 178.738316 
L 60.934068 260.541581 
L 61.410655 260.079416 
L 61.887242 260.541581 
L 62.840416 123.278475 
L 63.317003 230.500834 
L 63.79359 227.727842 
L 64.270177 121.429813 
L 64.746764 230.500834 
L 65.223351 122.354144 
L 65.699938 120.967648 
L 66.176525 230.500834 
L 66.653112 120.967648 
L 67.129699 231.88733 
L 67.606286 230.962999 
L 68.082873 122.354144 
L 68.55946 120.505483 
L 69.036047 230.962999 
L 69.512634 120.967648 
L 70.465808 120.043317 
L 70.942395 229.114338 
L 71.418982 121.429813 
L 71.895569 119.581152 
L 72.372156 229.576503 
L 72.848743 120.967648 
L 73.32533 121.891979 
L 73.801917 260.079416 
L 74.278505 260.541581 
L 77.614614 260.541581 
L 78.567788 123.74064 
L 79.044375 121.429813 
L 79.520962 227.727842 
L 79.997549 230.500834 
L 80.474136 123.278475 
L 80.950723 228.190007 
L 81.42731 184.2843 
L 81.903897 181.049142 
L 82.380484 181.973473 
L 82.857071 260.541581 
L 83.333658 259.61725 
L 83.810245 260.079416 
L 84.286832 259.61725 
L 85.240006 259.61725 
L 85.716593 260.079416 
L 86.19318 259.61725 
L 86.669767 260.079416 
L 89.529289 260.079416 
L 90.005876 259.61725 
L 90.482463 260.079416 
L 90.95905 259.61725 
L 91.912224 259.61725 
L 92.388811 260.079416 
L 92.865398 260.079416 
L 93.341985 260.541581 
L 93.818572 259.61725 
L 94.771746 259.61725 
L 95.248333 260.541581 
L 95.724921 260.079416 
L 96.201508 260.079416 
L 96.678095 260.541581 
L 98.584443 260.541581 
L 99.06103 259.61725 
L 100.490791 259.61725 
L 100.967378 260.541581 
L 101.443965 259.61725 
L 101.920552 197.687095 
L 102.397139 202.770913 
L 102.873726 215.711543 
L 103.350313 206.468236 
L 103.8269 225.87918 
L 104.303487 182.897804 
L 104.780074 179.662646 
L 105.256661 180.124812 
L 105.733248 181.049142 
L 106.209835 182.435638 
L 106.686422 183.359969 
L 107.163009 180.586977 
L 107.639596 180.124812 
L 108.116183 183.359969 
L 108.59277 182.435638 
L 109.069357 180.124812 
L 109.545944 260.079416 
L 110.022531 260.541581 
L 110.499118 260.541581 
L 111.452292 120.967648 
L 111.928879 227.727842 
L 112.405466 227.265676 
L 112.882053 120.967648 
L 113.35864 226.803511 
L 113.835227 229.576503 
L 114.311814 120.505483 
L 114.788401 228.190007 
L 115.264988 121.429813 
L 115.741575 230.500834 
L 116.218162 230.038669 
L 116.694749 121.429813 
L 117.171337 229.576503 
L 117.647924 120.967648 
L 118.124511 121.891979 
L 118.601098 230.500834 
L 119.077685 121.891979 
L 119.554272 260.541581 
L 122.890381 260.541581 
L 123.366968 260.079416 
L 123.843555 181.511308 
L 124.320142 184.2843 
L 124.796729 184.2843 
L 125.273316 180.124812 
L 125.749903 180.124812 
L 126.22649 179.662646 
L 126.703077 177.813985 
L 127.179664 182.435638 
L 127.656251 182.897804 
L 128.132838 179.200481 
L 128.609425 259.61725 
L 130.039186 259.61725 
L 130.515773 260.541581 
L 131.468947 259.61725 
L 131.945534 260.079416 
L 132.898708 260.079416 
L 133.375295 259.61725 
L 133.851882 260.079416 
L 134.805056 260.079416 
L 135.281643 259.61725 
L 135.75823 259.61725 
L 136.234817 260.541581 
L 136.711404 259.61725 
L 137.187991 260.079416 
L 137.664578 260.079416 
L 138.141165 259.61725 
L 138.617752 259.61725 
L 139.570927 260.541581 
L 140.047514 260.079416 
L 140.524101 260.541581 
L 141.000688 260.079416 
L 141.477275 260.541581 
L 141.953862 259.61725 
L 142.430449 259.61725 
L 142.907036 260.079416 
L 143.383623 259.61725 
L 144.336797 260.541581 
L 144.813384 260.079416 
L 145.289971 260.541581 
L 145.766558 260.079416 
L 146.243145 260.541581 
L 147.196319 260.541581 
L 147.672906 209.241228 
L 148.149493 214.325047 
L 148.62608 216.173708 
L 149.102667 206.006071 
L 149.579254 260.541581 
L 150.055841 181.049142 
L 150.532428 181.511308 
L 151.009015 180.124812 
L 151.485602 183.359969 
L 151.962189 179.200481 
L 152.438776 182.435638 
L 152.915363 180.124812 
L 153.39195 179.662646 
L 154.345124 179.662646 
L 154.821711 180.586977 
L 155.774885 179.662646 
L 156.251472 260.541581 
L 158.15782 260.541581 
L 158.634407 121.429813 
L 159.110994 230.500834 
L 159.587581 228.652172 
L 160.064168 230.962999 
L 160.540756 144.075915 
L 161.017343 227.265676 
L 161.49393 228.190007 
L 161.970517 227.265676 
L 162.447104 121.429813 
L 162.923691 230.038669 
L 163.400278 227.727842 
L 163.876865 121.891979 
L 164.353452 230.962999 
L 164.830039 230.500834 
L 165.306626 260.079416 
L 165.783213 260.541581 
L 170.549083 260.541581 
L 171.02567 181.049142 
L 171.502257 183.822134 
L 171.978844 181.511308 
L 172.455431 181.973473 
L 172.932018 180.586977 
L 173.408605 178.738316 
L 173.885192 182.897804 
L 174.361779 260.079416 
L 174.838366 260.079416 
L 175.314953 259.61725 
L 175.79154 260.079416 
L 176.744714 260.079416 
L 177.221301 259.61725 
L 178.174475 260.541581 
L 178.651062 259.61725 
L 179.127649 260.079416 
L 179.604236 260.079416 
L 180.080823 260.541581 
L 180.55741 259.61725 
L 181.033997 259.61725 
L 181.510584 260.541581 
L 181.987171 260.079416 
L 182.463759 260.079416 
L 182.940346 259.61725 
L 183.416933 259.61725 
L 183.89352 260.079416 
L 184.370107 259.61725 
L 184.846694 260.079416 
L 185.323281 259.61725 
L 185.799868 260.079416 
L 186.276455 260.079416 
L 186.753042 260.541581 
L 187.229629 260.079416 
L 188.182803 260.079416 
L 188.65939 259.61725 
L 189.135977 260.079416 
L 189.612564 259.61725 
L 190.089151 260.541581 
L 190.565738 260.079416 
L 191.042325 260.541581 
L 191.518912 259.61725 
L 192.948673 259.61725 
L 193.42526 190.292449 
L 193.901847 181.049142 
L 194.378434 179.200481 
L 194.855021 182.897804 
L 195.331608 183.359969 
L 195.808195 180.124812 
L 196.284782 181.049142 
L 196.761369 179.200481 
L 197.237956 180.586977 
L 197.714543 181.049142 
L 198.19113 182.435638 
L 198.667717 181.049142 
L 199.144304 182.897804 
L 199.620891 181.511308 
L 200.097478 260.541581 
L 200.574065 260.541581 
L 201.050652 122.816309 
L 201.527239 226.803511 
L 202.003826 228.190007 
L 202.480413 121.891979 
L 202.957 231.425165 
L 203.433587 230.038669 
L 203.910175 122.354144 
L 204.386762 120.967648 
L 204.863349 230.962999 
L 205.339936 120.505483 
L 205.816523 120.505483 
L 206.29311 230.500834 
L 206.769697 228.190007 
L 207.246284 120.043317 
L 207.722871 119.581152 
L 208.199458 228.652172 
L 208.676045 119.118987 
L 209.152632 120.505483 
L 209.629219 228.190007 
L 210.105806 120.043317 
L 210.582393 230.500834 
L 211.05898 260.541581 
L 211.535567 260.079416 
L 212.012154 260.541581 
L 212.488741 260.541581 
L 212.965328 260.079416 
L 213.441915 260.541581 
L 214.395089 260.541581 
L 214.871676 260.079416 
L 215.82485 120.967648 
L 216.301437 120.967648 
L 216.778024 230.500834 
L 217.254611 120.967648 
L 217.731198 228.190007 
L 218.207785 226.341346 
L 218.684372 121.891979 
L 219.160959 230.500834 
L 219.637546 230.962999 
L 220.114133 260.541581 
L 220.59072 260.079416 
L 221.067307 260.541581 
L 221.543894 260.541581 
L 222.497068 259.61725 
L 222.973655 260.079416 
L 224.403416 260.079416 
L 224.880003 259.61725 
L 225.35659 260.079416 
L 225.833178 260.079416 
L 226.309765 259.61725 
L 226.786352 260.079416 
L 227.262939 259.61725 
L 227.739526 260.079416 
L 228.216113 259.61725 
L 229.645874 259.61725 
L 230.122461 260.079416 
L 230.599048 259.61725 
L 232.028809 259.61725 
L 232.505396 260.079416 
L 232.981983 259.61725 
L 233.45857 260.079416 
L 233.935157 260.079416 
L 234.411744 259.61725 
L 234.888331 259.61725 
L 235.364918 260.541581 
L 235.841505 259.61725 
L 236.318092 259.61725 
L 237.271266 260.541581 
L 237.747853 260.541581 
L 238.22444 260.079416 
L 238.701027 260.541581 
L 239.177614 214.325047 
L 239.654201 179.662646 
L 240.130788 182.897804 
L 240.607375 179.662646 
L 241.083962 183.359969 
L 241.560549 181.511308 
L 242.037136 179.200481 
L 242.513723 260.541581 
L 243.943484 260.541581 
L 244.420071 121.429813 
L 244.896658 230.500834 
L 245.373245 229.114338 
L 245.849832 120.043317 
L 246.326419 228.190007 
L 246.803006 230.038669 
L 247.279594 120.043317 
L 247.756181 230.500834 
L 248.232768 119.118987 
L 248.709355 230.500834 
L 249.185942 228.190007 
L 249.662529 119.118987 
L 250.139116 228.652172 
L 250.615703 116.80816 
L 251.09229 117.732491 
L 251.568877 230.500834 
L 252.045464 116.80816 
L 252.522051 228.652172 
L 252.998638 117.732491 
L 253.475225 117.270325 
L 253.951812 230.962999 
L 254.428399 117.732491 
L 254.904986 117.270325 
L 255.381573 230.500834 
L 255.85816 117.270325 
L 256.334747 117.270325 
L 256.811334 260.079416 
L 257.287921 260.079416 
L 257.764508 260.541581 
L 258.241095 260.541581 
L 258.717682 260.079416 
L 259.194269 260.541581 
L 259.670856 260.079416 
L 260.147443 260.541581 
L 260.62403 260.541581 
L 261.577204 119.581152 
L 262.053791 119.581152 
L 262.530378 230.962999 
L 263.006965 120.967648 
L 263.483552 121.891979 
L 263.960139 230.500834 
L 264.436726 121.891979 
L 264.913313 230.962999 
L 265.3899 226.803511 
L 265.866487 260.079416 
L 266.343074 260.541581 
L 267.296248 260.541581 
L 267.772835 259.61725 
L 268.249422 259.61725 
L 268.72601 260.079416 
L 269.202597 260.079416 
L 269.679184 259.61725 
L 270.632358 259.61725 
L 271.108945 260.079416 
L 271.585532 260.079416 
L 272.062119 259.61725 
L 272.538706 260.079416 
L 273.015293 260.079416 
L 273.49188 259.61725 
L 273.968467 260.079416 
L 275.874815 260.079416 
L 276.351402 259.61725 
L 277.781163 259.61725 
L 278.25775 260.079416 
L 278.734337 259.61725 
L 279.687511 260.541581 
L 280.164098 259.61725 
L 280.640685 260.079416 
L 281.593859 260.079416 
L 282.070446 259.61725 
L 282.547033 260.079416 
L 283.02362 260.079416 
L 283.500207 259.61725 
L 283.976794 259.61725 
L 284.453381 260.079416 
L 285.406555 181.511308 
L 285.883142 180.586977 
L 286.359729 180.586977 
L 286.836316 260.079416 
L 287.312903 259.61725 
L 287.78949 260.541581 
L 289.219251 260.541581 
L 290.172425 122.816309 
L 290.649013 230.500834 
L 291.1256 230.500834 
L 291.602187 122.354144 
L 292.078774 228.190007 
L 292.555361 121.429813 
L 293.031948 227.265676 
L 293.508535 120.043317 
L 293.985122 121.429813 
L 294.461709 120.967648 
L 294.938296 230.500834 
L 295.414883 120.967648 
L 295.89147 230.500834 
L 296.368057 121.429813 
L 296.844644 230.962999 
L 297.321231 120.505483 
L 297.797818 120.967648 
L 298.274405 229.114338 
L 298.750992 120.505483 
L 299.227579 228.190007 
L 299.704166 119.581152 
L 300.180753 118.656821 
L 300.65734 229.576503 
L 301.133927 118.656821 
L 301.610514 119.118987 
L 302.087101 229.114338 
L 302.563688 260.079416 
L 303.040275 260.541581 
L 303.516862 260.541581 
L 303.993449 260.079416 
L 304.946623 260.079416 
L 305.42321 260.541581 
L 305.899797 260.079416 
L 306.376384 260.541581 
L 307.329558 120.043317 
L 307.806145 121.429813 
L 308.282732 120.505483 
L 308.759319 230.500834 
L 309.235906 120.505483 
L 309.712493 230.962999 
L 310.18908 226.803511 
L 310.665667 122.354144 
L 311.142254 228.190007 
L 311.618841 260.541581 
L 312.095429 260.079416 
L 312.572016 260.079416 
L 313.048603 260.541581 
L 314.001777 260.541581 
L 314.954951 259.61725 
L 316.384712 259.61725 
L 316.861299 260.079416 
L 317.814473 260.079416 
L 318.29106 259.61725 
L 318.767647 260.541581 
L 319.244234 259.61725 
L 319.720821 260.079416 
L 320.197408 259.61725 
L 320.673995 260.079416 
L 321.627169 260.079416 
L 322.103756 259.61725 
L 323.533517 259.61725 
L 324.010104 260.079416 
L 324.486691 260.079416 
L 324.963278 259.61725 
L 325.439865 260.079416 
L 325.916452 259.61725 
L 326.393039 260.079416 
L 326.869626 260.079416 
L 327.346213 259.61725 
L 327.8228 259.61725 
L 328.299387 260.079416 
L 329.252561 260.079416 
L 329.729148 259.61725 
L 330.205735 259.61725 
L 330.682322 260.079416 
L 331.158909 259.61725 
L 332.112083 259.61725 
L 332.58867 260.541581 
L 334.971606 260.541581 
L 335.448193 260.079416 
L 335.92478 260.541581 
L 337.831128 260.541581 
L 338.784302 120.505483 
L 339.260889 229.576503 
L 339.737476 227.265676 
L 340.214063 119.581152 
L 340.69065 230.038669 
L 341.167237 119.118987 
L 341.643824 119.581152 
L 342.120411 230.962999 
L 342.596998 119.581152 
L 343.073585 229.576503 
L 343.550172 118.656821 
L 344.026759 118.656821 
L 344.503346 229.576503 
L 344.979933 119.118987 
L 345.45652 120.043317 
L 345.933107 260.541581 
L 347.362868 260.541581 
L 347.839455 260.079416 
L 348.316042 260.079416 
L 348.792629 260.541581 
L 349.269216 260.541581 
L 349.745803 260.079416 
L 350.22239 260.541581 
L 353.081912 260.541581 
L 353.558499 260.079416 
L 354.035086 260.541581 
L 355.464848 260.541581 
L 355.941435 260.079416 
L 356.418022 260.541581 
L 356.894609 260.541581 
L 357.371196 260.079416 
L 357.847783 260.541581 
L 358.32437 260.079416 
L 358.800957 260.541581 
L 359.754131 259.61725 
L 360.230718 260.079416 
L 360.707305 259.61725 
L 361.183892 260.079416 
L 361.660479 260.079416 
L 362.137066 259.61725 
L 362.613653 259.61725 
L 363.09024 260.079416 
L 365.473175 260.079416 
L 365.949762 259.61725 
L 366.902936 259.61725 
L 367.379523 260.079416 
L 367.85611 259.61725 
L 368.809284 260.541581 
L 369.762458 259.61725 
L 370.239045 259.61725 
L 370.715632 260.541581 
L 371.192219 260.541581 
L 371.668806 259.61725 
L 372.145393 260.541581 
L 372.62198 260.541581 
L 373.575154 259.61725 
L 375.004915 259.61725 
L 375.481502 260.541581 
L 375.958089 260.541581 
L 376.434676 220.333196 
L 377.387851 192.141111 
L 377.864438 181.973473 
L 378.341025 180.124812 
L 378.817612 259.61725 
L 379.294199 260.079416 
L 379.770786 259.61725 
L 380.247373 260.541581 
L 384.536656 260.541581 
L 385.48983 117.732491 
L 385.966417 230.038669 
L 386.443004 118.194656 
L 386.919591 228.652172 
L 387.396178 118.194656 
L 387.872765 116.80816 
L 388.349352 230.500834 
L 388.825939 118.194656 
L 389.302526 230.038669 
L 389.779113 118.194656 
L 390.2557 118.194656 
L 390.732287 227.727842 
L 391.208874 116.345995 
L 391.685461 230.038669 
L 392.162048 116.80816 
L 392.638635 116.345995 
L 393.115222 230.038669 
L 393.591809 118.656821 
L 394.068396 260.079416 
L 394.544983 260.541581 
L 396.927918 260.541581 
L 397.404505 260.079416 
L 397.881092 260.541581 
L 398.834267 120.505483 
L 399.310854 120.967648 
L 399.787441 230.500834 
L 400.264028 121.429813 
L 400.740615 231.425165 
L 401.217202 230.962999 
L 401.693789 180.124812 
L 402.170376 183.822134 
L 402.646963 180.124812 
L 403.12355 259.61725 
L 403.600137 260.079416 
L 404.076724 259.61725 
L 404.553311 260.079416 
L 405.029898 259.61725 
L 405.506485 260.079416 
L 405.983072 260.079416 
L 406.459659 259.61725 
L 406.936246 260.079416 
L 407.412833 259.61725 
L 408.842594 259.61725 
L 409.319181 260.079416 
L 409.795768 260.079416 
L 410.272355 259.61725 
L 411.702116 259.61725 
L 412.178703 260.079416 
L 412.65529 259.61725 
L 413.131877 259.61725 
L 413.608464 260.079416 
L 414.085051 259.61725 
L 415.514812 259.61725 
L 415.991399 260.541581 
L 416.467986 259.61725 
L 416.944573 259.61725 
L 417.897747 260.541581 
L 418.374334 260.079416 
L 418.850921 260.541581 
L 419.327508 259.61725 
L 419.804095 260.079416 
L 420.280683 260.079416 
L 420.75727 259.61725 
L 421.233857 260.541581 
L 421.710444 260.541581 
L 422.187031 199.073591 
L 422.663618 190.292449 
L 423.140205 189.368118 
L 423.616792 180.124812 
L 424.093379 182.897804 
L 424.569966 183.822134 
L 425.046553 179.200481 
L 425.52314 181.973473 
L 425.999727 183.359969 
L 426.476314 260.541581 
L 427.906075 260.541581 
L 428.859249 121.429813 
L 429.335836 230.962999 
L 429.812423 230.500834 
L 430.28901 119.118987 
L 430.765597 119.118987 
L 431.242184 230.038669 
L 431.718771 119.118987 
L 432.195358 120.043317 
L 432.671945 230.500834 
L 433.148532 118.656821 
L 433.625119 230.500834 
L 434.101706 119.118987 
L 434.578293 119.118987 
L 435.05488 229.114338 
L 435.531467 116.80816 
L 436.008054 117.732491 
L 436.484641 118.194656 
L 436.961228 230.500834 
L 437.437815 118.194656 
L 437.914402 117.270325 
L 438.390989 230.038669 
L 438.867576 116.345995 
L 439.344163 117.270325 
L 439.82075 260.541581 
L 443.633447 260.541581 
L 444.586621 122.354144 
L 445.063208 121.429813 
L 445.539795 230.962999 
L 446.016382 226.803511 
L 446.492969 122.816309 
L 446.969556 226.803511 
L 447.446143 231.425165 
L 447.92273 184.2843 
L 448.399317 181.511308 
L 448.875904 260.541581 
L 449.829078 259.61725 
L 450.782252 259.61725 
L 451.258839 260.079416 
L 451.735426 260.079416 
L 452.212013 259.61725 
L 452.6886 259.61725 
L 452.6886 259.61725 
" style="fill:none;stroke:#000000;stroke-width:0.5;"/>
   </g>
   <g id="line2d_23">
    <path clip-path="url(#p9d00d361d5)" d="M 41.394 260.294863 
L 41.870587 260.282675 
L 42.347174 262.763398 
L 42.823761 260.085603 
L 44.730109 260.084956 
L 45.206696 262.573459 
L 45.683283 260.08768 
L 46.15987 259.906167 
L 49.495979 259.861433 
L 49.972566 257.189732 
L 50.449153 259.844836 
L 50.92574 259.840427 
L 51.402327 262.320112 
L 51.878914 262.315703 
L 52.355502 259.644003 
L 54.738437 259.642318 
L 55.215024 257.004849 
L 55.691611 259.527584 
L 56.168198 191.755922 
L 56.644785 208.402599 
L 57.121372 207.66623 
L 57.597959 213.717864 
L 58.074546 212.582013 
L 58.551133 214.724448 
L 59.02772 218.903862 
L 59.504307 221.300934 
L 59.980894 214.846002 
L 60.457481 223.040072 
L 60.934068 234.175802 
L 61.410655 239.59297 
L 61.887242 239.126816 
L 62.363829 243.732994 
L 62.840416 138.753577 
L 63.317003 226.036615 
L 63.79359 224.669594 
L 64.270177 142.098535 
L 64.746764 223.909758 
L 65.223351 144.32322 
L 65.699938 141.612729 
L 66.176525 219.765574 
L 66.653112 139.658259 
L 67.129699 198.473674 
L 67.606286 231.371273 
L 68.082873 136.877282 
L 68.55946 151.17382 
L 69.036047 219.844008 
L 69.512634 134.582111 
L 69.989221 133.591106 
L 70.465808 137.754682 
L 70.942395 220.744876 
L 71.418982 134.350942 
L 71.895569 133.591106 
L 72.372156 220.243491 
L 72.848743 135.659181 
L 73.32533 143.312822 
L 73.801917 238.308766 
L 77.614614 238.308766 
L 78.091201 229.804698 
L 78.567788 134.112343 
L 79.044375 145.020803 
L 79.520962 222.507766 
L 79.997549 214.270491 
L 80.474136 140.864856 
L 80.950723 233.149741 
L 81.42731 198.720622 
L 81.903897 195.841818 
L 82.380484 200.737949 
L 82.857071 264.841221 
L 83.333658 257.864333 
L 83.810245 256.726833 
L 84.286832 254.584534 
L 84.763419 258.804457 
L 85.240006 259.262614 
L 85.716593 258.375034 
L 86.19318 255.550044 
L 86.669767 257.672699 
L 87.146354 255.257486 
L 87.622941 254.574795 
L 88.099528 255.101791 
L 88.576115 254.009322 
L 89.052702 254.214211 
L 89.529289 255.355874 
L 90.005876 252.140751 
L 90.482463 254.673183 
L 90.95905 252.462859 
L 91.435637 251.165502 
L 91.912224 253.493045 
L 92.388811 250.872943 
L 92.865398 253.405375 
L 93.818572 252.44977 
L 94.295159 250.034557 
L 94.771746 252.976767 
L 95.248333 252.976767 
L 95.724921 250.493529 
L 96.201508 253.23085 
L 96.678095 253.025961 
L 97.154682 252.548159 
L 97.631269 253.484933 
L 98.107856 253.280044 
L 98.584443 251.06972 
L 99.06103 254.421707 
L 99.537617 254.353682 
L 100.014204 256.178037 
L 100.490791 257.202481 
L 100.967378 258.9934 
L 101.443965 259.025946 
L 101.920552 158.963881 
L 102.397139 174.88995 
L 102.873726 184.259261 
L 103.350313 197.036043 
L 103.8269 192.5787 
L 104.303487 200.502555 
L 104.780074 211.387464 
L 105.256661 207.223887 
L 105.733248 214.603154 
L 106.209835 213.467302 
L 106.686422 225.903383 
L 107.163009 212.515601 
L 107.639596 219.891053 
L 108.116183 224.23878 
L 108.59277 218.371296 
L 109.069357 226.968923 
L 109.545944 242.456196 
L 110.499118 262.291196 
L 110.975705 233.012584 
L 111.452292 140.034535 
L 111.928879 221.532338 
L 112.405466 222.946293 
L 112.882053 137.743179 
L 113.35864 218.504613 
L 113.835227 224.669594 
L 114.311814 142.012471 
L 114.788401 231.43413 
L 115.264988 136.462221 
L 115.741575 215.31239 
L 116.218162 223.847161 
L 116.694749 134.570348 
L 117.171337 213.776796 
L 117.647924 139.740508 
L 118.124511 138.565611 
L 118.601098 224.164394 
L 119.077685 136.611142 
L 119.554272 238.308766 
L 123.366968 238.308766 
L 123.843555 197.287189 
L 124.320142 204.28671 
L 125.273316 200.338466 
L 125.749903 196.072988 
L 126.22649 196.304157 
L 126.703077 197.440009 
L 127.179664 199.226166 
L 127.656251 194.647269 
L 128.132838 196.433426 
L 128.609425 258.027273 
L 129.086012 260.173782 
L 129.562599 257.875866 
L 130.039186 257.216169 
L 131.468947 259.274147 
L 131.945534 258.659481 
L 132.422121 259.459391 
L 132.898708 256.634401 
L 133.375295 258.961944 
L 133.851882 256.341843 
L 134.328469 255.86404 
L 134.805056 256.663951 
L 135.281643 255.776371 
L 135.75823 256.508256 
L 136.234817 256.303368 
L 136.711404 255.620676 
L 137.187991 255.620676 
L 137.664578 257.948219 
L 138.141165 257.675306 
L 138.617752 255.464982 
L 139.09434 255.192068 
L 139.570927 258.61208 
L 140.047514 256.606645 
L 140.524101 259.616879 
L 141.000688 259.343966 
L 141.477275 259.343966 
L 141.953862 257.543419 
L 142.907036 257.953197 
L 143.383623 258.362974 
L 143.86021 258.567863 
L 144.336797 258.567863 
L 144.813384 261.472047 
L 145.766558 261.480864 
L 146.243145 261.315949 
L 147.196319 261.337993 
L 147.672906 164.623935 
L 148.149493 178.630577 
L 149.102667 188.67366 
L 149.579254 180.452223 
L 150.055841 189.218164 
L 150.532428 190.436265 
L 151.009015 199.766186 
L 151.485602 204.431147 
L 151.962189 196.844178 
L 152.915363 208.062158 
L 153.39195 208.481293 
L 153.868537 204.317717 
L 154.345124 205.477035 
L 154.821711 204.423433 
L 155.298298 221.359976 
L 155.774885 221.547941 
L 156.728059 247.293544 
L 157.204646 253.995484 
L 158.15782 261.457 
L 158.634407 156.900532 
L 159.110994 224.611156 
L 159.587581 229.385648 
L 160.064168 227.826846 
L 160.540756 200.835776 
L 161.017343 194.439626 
L 161.49393 228.390828 
L 161.970517 227.595676 
L 162.447104 137.183012 
L 162.923691 221.767322 
L 163.400278 221.873039 
L 163.876865 136.857889 
L 164.353452 217.03569 
L 164.830039 224.246644 
L 165.306626 238.308766 
L 169.119322 238.308766 
L 169.595909 251.030271 
L 170.072496 248.656666 
L 170.549083 247.01943 
L 171.02567 200.945566 
L 171.502257 197.729876 
L 171.978844 192.64578 
L 172.932018 188.611472 
L 173.885192 186.218215 
L 174.361779 250.753722 
L 174.838366 253.381964 
L 175.314953 259.691791 
L 175.79154 260.655825 
L 176.268127 260.405906 
L 176.744714 264.098831 
L 177.221301 262.776087 
L 177.697888 263.073652 
L 178.174475 263.069243 
L 178.651062 262.891101 
L 179.127649 262.877875 
L 179.604236 262.693639 
L 180.080823 262.689231 
L 180.55741 260.021939 
L 181.033997 262.512127 
L 181.510584 262.516536 
L 181.987171 259.85093 
L 182.463759 262.341118 
L 183.416933 262.330615 
L 183.89352 259.656191 
L 184.370107 259.651782 
L 184.846694 262.14197 
L 185.323281 262.140285 
L 185.799868 259.479088 
L 186.276455 259.481811 
L 186.753042 261.971999 
L 187.229629 261.976408 
L 187.706216 259.48622 
L 188.65939 259.481811 
L 189.135977 261.971999 
L 191.042325 261.976408 
L 191.518912 259.309116 
L 191.995499 259.31521 
L 192.472086 261.808122 
L 192.948673 261.808122 
L 193.42526 186.084378 
L 194.378434 207.078781 
L 194.855021 205.856866 
L 195.331608 207.094619 
L 195.808195 206.863449 
L 196.284782 207.70172 
L 196.761369 212.785816 
L 197.237956 208.53999 
L 197.714543 209.695494 
L 198.667717 215.198725 
L 199.144304 213.561489 
L 199.620891 213.475425 
L 200.097478 222.339193 
L 200.574065 228.723899 
L 201.050652 145.608252 
L 201.527239 215.230141 
L 202.003826 226.036615 
L 202.480413 151.177895 
L 202.957 192.335975 
L 203.433587 223.757022 
L 203.910175 138.181706 
L 204.386762 133.908339 
L 204.863349 222.053115 
L 205.339936 132.541318 
L 205.816523 132.118368 
L 206.769697 221.336139 
L 207.246284 128.628304 
L 207.722871 134.742535 
L 208.199458 213.635564 
L 208.676045 130.91966 
L 209.152632 194.662302 
L 209.629219 220.83094 
L 210.105806 129.936543 
L 210.582393 206.181937 
L 211.05898 238.308766 
L 214.871676 238.308766 
L 215.348263 230.043557 
L 215.82485 127.16753 
L 216.301437 133.998478 
L 216.778024 224.414957 
L 217.254611 140.308564 
L 218.207785 224.904578 
L 218.684372 143.994223 
L 219.160959 203.381508 
L 219.637546 227.767804 
L 220.114133 264.273848 
L 220.59072 264.438764 
L 221.067307 258.914498 
L 221.543894 263.879962 
L 222.020481 266.359647 
L 222.497068 266.175412 
L 222.973655 263.499303 
L 223.450242 263.313382 
L 223.926829 263.301193 
L 224.403416 263.115272 
L 224.880003 263.104769 
L 225.35659 262.918848 
L 225.833178 262.912754 
L 226.309765 260.242739 
L 226.786352 260.227828 
L 227.262939 262.711922 
L 227.739526 260.035813 
L 229.645874 259.995487 
L 230.122461 259.827201 
L 230.599048 259.827201 
L 231.075635 262.311295 
L 231.552222 262.298068 
L 232.028809 259.626368 
L 234.411744 259.607048 
L 234.888331 256.937033 
L 235.364918 256.930939 
L 235.841505 259.419441 
L 236.794679 259.417756 
L 237.271266 256.756559 
L 237.747853 259.435391 
L 238.22444 259.292519 
L 238.701027 259.31184 
L 239.177614 194.446761 
L 239.654201 215.441164 
L 240.130788 213.337774 
L 240.607375 218.986111 
L 241.083962 214.109633 
L 241.560549 213.47898 
L 242.037136 227.137237 
L 242.513723 218.974582 
L 242.99031 226.522422 
L 243.466897 227.760175 
L 243.943484 227.693504 
L 244.420071 165.909146 
L 244.896658 206.984978 
L 245.373245 216.820098 
L 245.849832 149.089822 
L 246.326419 200.294801 
L 246.803006 217.572045 
L 247.279594 132.478461 
L 247.756181 209.875285 
L 248.232768 133.543827 
L 248.709355 197.368718 
L 249.185942 186.32726 
L 249.662529 125.365335 
L 250.139116 210.035969 
L 250.615703 129.372361 
L 251.09229 181.65441 
L 251.568877 205.155416 
L 252.045464 124.957963 
L 252.522051 207.109886 
L 252.998638 122.349373 
L 253.475225 123.148339 
L 253.951812 210.133796 
L 254.428399 122.349373 
L 254.904986 121.193869 
L 255.381573 203.996097 
L 255.85816 120.058018 
L 256.334747 122.243657 
L 256.811334 238.308766 
L 257.287921 238.308766 
L 258.717682 233.969992 
L 259.194269 233.757747 
L 259.670856 234.05794 
L 260.147443 233.857713 
L 260.62403 234.335658 
L 261.100617 221.982544 
L 261.577204 127.265357 
L 262.053791 134.668175 
L 262.530378 217.560282 
L 263.006965 138.708793 
L 263.483552 139.156874 
L 263.960139 229.173871 
L 264.436726 142.179556 
L 264.913313 210.909695 
L 265.3899 234.16014 
L 265.866487 264.435002 
L 266.343074 264.415682 
L 266.819661 259.073967 
L 267.296248 259.015065 
L 268.249422 263.667589 
L 268.72601 260.99148 
L 269.202597 260.805559 
L 269.679184 263.287967 
L 270.155771 260.611858 
L 270.632358 260.601355 
L 271.108945 257.920838 
L 271.585532 260.400523 
L 272.062119 260.394429 
L 272.538706 260.221734 
L 273.49188 260.230551 
L 273.968467 257.560536 
L 274.445054 260.035813 
L 275.398228 260.020901 
L 275.874815 257.349201 
L 276.351402 259.837704 
L 276.827989 259.837704 
L 277.304576 262.326206 
L 277.781163 259.6606 
L 280.640685 259.624683 
L 281.117272 256.954668 
L 282.070446 256.952983 
L 282.547033 259.44317 
L 283.02362 256.780288 
L 283.500207 256.793514 
L 283.976794 259.305746 
L 284.453381 259.338292 
L 284.929968 200.666709 
L 285.406555 216.028613 
L 285.883142 218.735289 
L 286.359729 223.419902 
L 287.312903 218.324277 
L 288.266077 226.772984 
L 288.742664 226.541814 
L 289.219251 232.934149 
L 289.695838 232.70298 
L 290.172425 137.85271 
L 290.649013 219.330861 
L 291.1256 217.963839 
L 291.602187 143.085466 
L 292.078774 217.30972 
L 292.555361 130.739583 
L 293.031948 205.363319 
L 293.508535 142.86606 
L 293.985122 136.140913 
L 294.461709 135.232157 
L 294.938296 224.598848 
L 295.414883 137.546979 
L 295.89147 218.3789 
L 296.368057 139.924399 
L 296.844644 210.200408 
L 297.321231 142.133506 
L 297.797818 131.894828 
L 298.274405 218.14773 
L 298.750992 126.845962 
L 299.227579 208.907747 
L 299.704166 125.533908 
L 300.180753 128.624229 
L 300.65734 181.493726 
L 301.133927 134.444694 
L 301.610514 122.905666 
L 302.087101 206.925995 
L 302.563688 238.308766 
L 303.040275 238.222203 
L 303.516862 237.625945 
L 303.993449 238.308766 
L 304.470036 238.308766 
L 304.946623 237.4309 
L 305.42321 237.412898 
L 305.899797 238.308766 
L 306.376384 238.308766 
L 306.852971 220.176995 
L 307.329558 124.492269 
L 308.282732 133.117003 
L 308.759319 223.678588 
L 309.235906 139.34484 
L 309.712493 198.309176 
L 310.18908 225.409777 
L 310.665667 139.411511 
L 311.142254 218.68463 
L 311.618841 264.283704 
L 312.095429 264.445896 
L 312.572016 259.104181 
L 313.048603 264.069645 
L 313.52519 263.885409 
L 314.001777 266.365094 
L 314.478364 263.680168 
L 314.954951 263.485429 
L 315.431538 260.796094 
L 315.908125 263.266962 
L 316.384712 260.595261 
L 316.861299 260.597985 
L 317.337886 260.426975 
L 317.814473 260.42529 
L 318.29106 260.25428 
L 319.244234 260.248186 
L 319.720821 260.072768 
L 321.150582 260.073806 
L 321.627169 257.412609 
L 322.103756 259.907205 
L 322.580343 259.911614 
L 323.05693 259.736196 
L 325.916452 259.716876 
L 326.393039 259.541457 
L 328.775974 259.545866 
L 329.252561 259.37758 
L 329.729148 262.053689 
L 330.205735 259.3969 
L 331.158909 259.420629 
L 331.635496 261.928452 
L 334.018432 262.043983 
L 334.495019 242.722161 
L 334.971606 248.711199 
L 335.448193 249.212584 
L 335.92478 249.482798 
L 336.877954 257.046216 
L 337.354541 270.823204 
L 337.831128 271.319837 
L 338.307715 242.017383 
L 338.784302 132.204692 
L 339.260889 194.529564 
L 339.737476 224.80681 
L 340.214063 132.604175 
L 340.69065 224.975123 
L 341.167237 150.852772 
L 341.643824 136.685502 
L 342.120411 219.996744 
L 342.596998 136.873467 
L 343.073585 206.562028 
L 343.550172 153.39469 
L 344.026759 130.249962 
L 344.503346 209.769829 
L 344.979933 137.037966 
L 345.45652 134.327475 
L 345.933107 228.284457 
L 346.409694 266.174062 
L 346.886281 264.72571 
L 347.362868 264.582057 
L 347.839455 266.928591 
L 348.316042 266.739556 
L 348.792629 266.786623 
L 349.269216 266.644399 
L 349.745803 266.645046 
L 350.22239 263.973993 
L 350.698977 266.641284 
L 351.175564 266.465866 
L 352.128738 266.449269 
L 352.605325 263.747746 
L 353.081912 266.215243 
L 353.558499 263.516443 
L 354.98826 263.432811 
L 355.464848 265.883711 
L 355.941435 263.178817 
L 356.418022 263.129027 
L 356.894609 262.925861 
L 358.800957 262.840935 
L 359.277544 262.639455 
L 360.230718 262.598482 
L 360.707305 265.06157 
L 361.183892 265.040565 
L 361.660479 262.349544 
L 362.613653 262.326853 
L 363.09024 259.640242 
L 363.566827 262.115518 
L 364.996588 262.092827 
L 365.473175 259.413995 
L 366.902936 259.379763 
L 367.379523 256.712471 
L 367.85611 259.19825 
L 368.332697 259.187748 
L 368.809284 259.003512 
L 370.715632 258.973689 
L 371.192219 258.499024 
L 371.668806 258.294135 
L 372.145393 257.611444 
L 372.62198 260.143876 
L 373.098567 260.007012 
L 373.575154 259.734098 
L 374.051741 257.933552 
L 374.528328 261.255265 
L 375.004915 261.283402 
L 375.481502 261.143254 
L 375.958089 263.683623 
L 376.434676 180.475431 
L 376.911263 195.586512 
L 377.387851 214.959517 
L 377.864438 220.544998 
L 378.341025 234.477283 
L 378.817612 232.793028 
L 379.294199 233.149567 
L 379.770786 231.77873 
L 380.247373 230.971876 
L 380.72396 236.647235 
L 381.200547 246.795774 
L 381.677134 248.033528 
L 382.153721 256.145348 
L 382.630308 271.362406 
L 383.106895 273.826883 
L 383.583482 274.322702 
L 384.060069 278.580285 
L 384.536656 277.8222 
L 385.013243 177.393266 
L 385.48983 136.195881 
L 385.966417 217.693684 
L 386.443004 132.702002 
L 386.919591 205.351616 
L 387.396178 145.882081 
L 387.872765 136.211458 
L 388.349352 216.154275 
L 388.825939 130.430038 
L 389.302526 194.141584 
L 389.779113 153.907578 
L 390.2557 130.829521 
L 390.732287 215.92692 
L 391.208874 134.930501 
L 391.685461 207.580115 
L 392.162048 136.258133 
L 392.638635 129.274534 
L 393.115222 211.113038 
L 393.591809 125.933391 
L 394.068396 238.308766 
L 395.02157 238.308766 
L 395.498157 238.016195 
L 395.974744 236.447808 
L 396.451331 236.353277 
L 396.927918 235.35113 
L 397.404505 237.667888 
L 397.881092 238.308766 
L 398.357679 230.944424 
L 398.834267 134.609653 
L 399.310854 139.803365 
L 399.787441 226.541814 
L 400.264028 140.798185 
L 400.740615 220.470787 
L 401.217202 233.000821 
L 401.693789 202.880384 
L 402.170376 192.312709 
L 402.646963 191.411842 
L 403.12355 250.291383 
L 403.600137 255.861285 
L 404.553311 258.87411 
L 405.029898 257.73661 
L 405.506485 258.741409 
L 405.983072 258.331631 
L 406.459659 259.404456 
L 407.412833 258.994678 
L 407.88942 259.794588 
L 408.366007 257.311351 
L 408.842594 260.116696 
L 409.319181 259.024228 
L 409.795768 256.609015 
L 410.272355 256.131212 
L 410.748942 258.253867 
L 411.225529 258.253867 
L 411.702116 255.223988 
L 412.178703 257.961308 
L 412.65529 257.278617 
L 413.131877 255.068293 
L 413.608464 257.805614 
L 414.085051 257.600725 
L 414.561638 256.918034 
L 415.038225 257.922833 
L 415.991399 257.854808 
L 416.467986 257.377006 
L 416.944573 255.37157 
L 417.42116 254.961793 
L 417.897747 257.904002 
L 418.374334 257.494225 
L 418.850921 256.401756 
L 419.327508 259.753743 
L 419.804095 259.890607 
L 420.280683 257.475394 
L 420.75727 261.305184 
L 421.233857 261.485273 
L 421.710444 261.513411 
L 422.187031 169.527925 
L 423.616792 200.247918 
L 425.52314 230.439076 
L 425.999727 229.722359 
L 426.476314 227.211856 
L 426.952901 230.505981 
L 427.429488 237.650263 
L 427.906075 250.744278 
L 428.382662 238.069398 
L 428.859249 137.590444 
L 429.335836 195.755554 
L 429.812423 206.068592 
L 430.28901 121.080724 
L 430.765597 123.266364 
L 431.242184 208.551728 
L 431.718771 118.722697 
L 432.195358 121.813019 
L 432.671945 199.993145 
L 433.148532 123.790955 
L 433.625119 205.202695 
L 434.101706 126.583696 
L 434.578293 119.541055 
L 435.05488 204.235156 
L 435.531467 117.66502 
L 436.008054 120.27361 
L 436.484641 125.087491 
L 436.961228 203.581037 
L 437.437815 122.901851 
L 437.914402 128.851584 
L 438.390989 204.466326 
L 438.867576 125.193207 
L 439.344163 128.455916 
L 439.82075 238.308766 
L 441.727098 238.308766 
L 442.203686 238.139091 
L 442.680273 238.308766 
L 443.633447 238.308766 
L 444.110034 226.698598 
L 444.586621 130.931623 
L 445.063208 137.512009 
L 445.539795 208.128718 
L 446.016382 225.241464 
L 446.492969 140.210737 
L 446.969556 222.679893 
L 447.446143 234.305245 
L 447.92273 197.165635 
L 448.399317 186.280726 
L 448.875904 256.762153 
L 449.352491 253.757895 
L 449.829078 257.95698 
L 450.305665 259.097829 
L 451.735426 261.565585 
L 452.212013 259.150372 
L 452.6886 262.160607 
L 452.6886 262.160607 
" style="fill:none;stroke:#ff0000;stroke-width:0.5;"/>
   </g>
   <g id="patch_3">
    <path d="M 41.394 286.692 
L 41.394 108.23428 
" style="fill:none;stroke:#f0f0f0;stroke-linecap:square;stroke-linejoin:miter;stroke-width:3;"/>
   </g>
   <g id="patch_4">
    <path d="M 452.6886 286.692 
L 452.6886 108.23428 
" style="fill:none;stroke:#f0f0f0;stroke-linecap:square;stroke-linejoin:miter;stroke-width:3;"/>
   </g>
   <g id="patch_5">
    <path d="M 41.394 286.692 
L 452.6886 286.692 
" style="fill:none;stroke:#f0f0f0;stroke-linecap:square;stroke-linejoin:miter;stroke-width:3;"/>
   </g>
   <g id="patch_6">
    <path d="M 41.394 108.23428 
L 452.6886 108.23428 
" style="fill:none;stroke:#f0f0f0;stroke-linecap:square;stroke-linejoin:miter;stroke-width:3;"/>
   </g>
   <g id="legend_1">
    <g id="patch_7">
     <path d="M 46.648963 93.636234 
L 447.433637 93.636234 
Q 449.766037 93.636234 449.766037 91.303834 
L 449.766037 75.352404 
Q 449.766037 73.020004 447.433637 73.020004 
L 46.648963 73.020004 
Q 44.316563 73.020004 44.316563 75.352404 
L 44.316563 91.303834 
Q 44.316563 93.636234 46.648963 93.636234 
z
" style="fill:#f0f0f0;opacity:0.5;stroke:#cccccc;stroke-linejoin:miter;stroke-width:0.5;"/>
    </g>
    <g id="line2d_24">
     <path d="M 48.981363 82.464402 
L 72.305363 82.464402 
" style="fill:none;stroke:#000000;stroke-width:0.5;"/>
    </g>
    <g id="line2d_25"/>
    <g id="text_16">
     <!-- Measurement -->
     <defs>
      <path d="M 9.8125 72.90625 
L 24.515625 72.90625 
L 43.109375 23.296875 
L 61.8125 72.90625 
L 76.515625 72.90625 
L 76.515625 0 
L 66.890625 0 
L 66.890625 64.015625 
L 48.09375 14.015625 
L 38.1875 14.015625 
L 19.390625 64.015625 
L 19.390625 0 
L 9.8125 0 
z
" id="DejaVuSans-4d"/>
      <path d="M 44.28125 53.078125 
L 44.28125 44.578125 
Q 40.484375 46.53125 36.375 47.5 
Q 32.28125 48.484375 27.875 48.484375 
Q 21.1875 48.484375 17.84375 46.4375 
Q 14.5 44.390625 14.5 40.28125 
Q 14.5 37.15625 16.890625 35.375 
Q 19.28125 33.59375 26.515625 31.984375 
L 29.59375 31.296875 
Q 39.15625 29.25 43.1875 25.515625 
Q 47.21875 21.78125 47.21875 15.09375 
Q 47.21875 7.46875 41.1875 3.015625 
Q 35.15625 -1.421875 24.609375 -1.421875 
Q 20.21875 -1.421875 15.453125 -0.5625 
Q 10.6875 0.296875 5.421875 2 
L 5.421875 11.28125 
Q 10.40625 8.6875 15.234375 7.390625 
Q 20.0625 6.109375 24.8125 6.109375 
Q 31.15625 6.109375 34.5625 8.28125 
Q 37.984375 10.453125 37.984375 14.40625 
Q 37.984375 18.0625 35.515625 20.015625 
Q 33.0625 21.96875 24.703125 23.78125 
L 21.578125 24.515625 
Q 13.234375 26.265625 9.515625 29.90625 
Q 5.8125 33.546875 5.8125 39.890625 
Q 5.8125 47.609375 11.28125 51.796875 
Q 16.75 56 26.8125 56 
Q 31.78125 56 36.171875 55.265625 
Q 40.578125 54.546875 44.28125 53.078125 
z
" id="DejaVuSans-73"/>
      <path d="M 54.890625 33.015625 
L 54.890625 0 
L 45.90625 0 
L 45.90625 32.71875 
Q 45.90625 40.484375 42.875 44.328125 
Q 39.84375 48.1875 33.796875 48.1875 
Q 26.515625 48.1875 22.3125 43.546875 
Q 18.109375 38.921875 18.109375 30.90625 
L 18.109375 0 
L 9.078125 0 
L 9.078125 54.6875 
L 18.109375 54.6875 
L 18.109375 46.1875 
Q 21.34375 51.125 25.703125 53.5625 
Q 30.078125 56 35.796875 56 
Q 45.21875 56 50.046875 50.171875 
Q 54.890625 44.34375 54.890625 33.015625 
z
" id="DejaVuSans-6e"/>
     </defs>
     <g transform="translate(81.634963 86.546102)scale(0.11662 -0.11662)">
      <use xlink:href="#DejaVuSans-4d"/>
      <use x="86.279297" xlink:href="#DejaVuSans-65"/>
      <use x="147.802734" xlink:href="#DejaVuSans-61"/>
      <use x="209.082031" xlink:href="#DejaVuSans-73"/>
      <use x="261.181641" xlink:href="#DejaVuSans-75"/>
      <use x="324.560547" xlink:href="#DejaVuSans-72"/>
      <use x="365.642578" xlink:href="#DejaVuSans-65"/>
      <use x="427.166016" xlink:href="#DejaVuSans-6d"/>
      <use x="524.578125" xlink:href="#DejaVuSans-65"/>
      <use x="586.101562" xlink:href="#DejaVuSans-6e"/>
      <use x="649.480469" xlink:href="#DejaVuSans-74"/>
     </g>
    </g>
    <g id="line2d_26">
     <path d="M 185.273699 82.464402 
L 208.597699 82.464402 
" style="fill:none;stroke:#ff0000;stroke-width:0.5;"/>
    </g>
    <g id="line2d_27"/>
    <g id="text_17">
     <!-- Prediction(MAE = 2.633; Score = 0.88) -->
     <defs>
      <path d="M 19.671875 64.796875 
L 19.671875 37.40625 
L 32.078125 37.40625 
Q 38.96875 37.40625 42.71875 40.96875 
Q 46.484375 44.53125 46.484375 51.125 
Q 46.484375 57.671875 42.71875 61.234375 
Q 38.96875 64.796875 32.078125 64.796875 
z
M 9.8125 72.90625 
L 32.078125 72.90625 
Q 44.34375 72.90625 50.609375 67.359375 
Q 56.890625 61.8125 56.890625 51.125 
Q 56.890625 40.328125 50.609375 34.8125 
Q 44.34375 29.296875 32.078125 29.296875 
L 19.671875 29.296875 
L 19.671875 0 
L 9.8125 0 
z
" id="DejaVuSans-50"/>
      <path d="M 45.40625 46.390625 
L 45.40625 75.984375 
L 54.390625 75.984375 
L 54.390625 0 
L 45.40625 0 
L 45.40625 8.203125 
Q 42.578125 3.328125 38.25 0.953125 
Q 33.9375 -1.421875 27.875 -1.421875 
Q 17.96875 -1.421875 11.734375 6.484375 
Q 5.515625 14.40625 5.515625 27.296875 
Q 5.515625 40.1875 11.734375 48.09375 
Q 17.96875 56 27.875 56 
Q 33.9375 56 38.25 53.625 
Q 42.578125 51.265625 45.40625 46.390625 
z
M 14.796875 27.296875 
Q 14.796875 17.390625 18.875 11.75 
Q 22.953125 6.109375 30.078125 6.109375 
Q 37.203125 6.109375 41.296875 11.75 
Q 45.40625 17.390625 45.40625 27.296875 
Q 45.40625 37.203125 41.296875 42.84375 
Q 37.203125 48.484375 30.078125 48.484375 
Q 22.953125 48.484375 18.875 42.84375 
Q 14.796875 37.203125 14.796875 27.296875 
z
" id="DejaVuSans-64"/>
      <path d="M 31 75.875 
Q 24.46875 64.65625 21.28125 53.65625 
Q 18.109375 42.671875 18.109375 31.390625 
Q 18.109375 20.125 21.3125 9.0625 
Q 24.515625 -2 31 -13.1875 
L 23.1875 -13.1875 
Q 15.875 -1.703125 12.234375 9.375 
Q 8.59375 20.453125 8.59375 31.390625 
Q 8.59375 42.28125 12.203125 53.3125 
Q 15.828125 64.359375 23.1875 75.875 
z
" id="DejaVuSans-28"/>
      <path d="M 9.8125 72.90625 
L 55.90625 72.90625 
L 55.90625 64.59375 
L 19.671875 64.59375 
L 19.671875 43.015625 
L 54.390625 43.015625 
L 54.390625 34.71875 
L 19.671875 34.71875 
L 19.671875 8.296875 
L 56.78125 8.296875 
L 56.78125 0 
L 9.8125 0 
z
" id="DejaVuSans-45"/>
      <path d="M 10.59375 45.40625 
L 73.1875 45.40625 
L 73.1875 37.203125 
L 10.59375 37.203125 
z
M 10.59375 25.484375 
L 73.1875 25.484375 
L 73.1875 17.1875 
L 10.59375 17.1875 
z
" id="DejaVuSans-3d"/>
      <path d="M 10.6875 12.40625 
L 21 12.40625 
L 21 0 
L 10.6875 0 
z
" id="DejaVuSans-2e"/>
      <path d="M 11.71875 51.703125 
L 22.015625 51.703125 
L 22.015625 39.3125 
L 11.71875 39.3125 
z
M 11.71875 12.40625 
L 22.015625 12.40625 
L 22.015625 4 
L 14.015625 -11.625 
L 7.71875 -11.625 
L 11.71875 4 
z
" id="DejaVuSans-3b"/>
      <path d="M 53.515625 70.515625 
L 53.515625 60.890625 
Q 47.90625 63.578125 42.921875 64.890625 
Q 37.9375 66.21875 33.296875 66.21875 
Q 25.25 66.21875 20.875 63.09375 
Q 16.5 59.96875 16.5 54.203125 
Q 16.5 49.359375 19.40625 46.890625 
Q 22.3125 44.4375 30.421875 42.921875 
L 36.375 41.703125 
Q 47.40625 39.59375 52.65625 34.296875 
Q 57.90625 29 57.90625 20.125 
Q 57.90625 9.515625 50.796875 4.046875 
Q 43.703125 -1.421875 29.984375 -1.421875 
Q 24.8125 -1.421875 18.96875 -0.25 
Q 13.140625 0.921875 6.890625 3.21875 
L 6.890625 13.375 
Q 12.890625 10.015625 18.65625 8.296875 
Q 24.421875 6.59375 29.984375 6.59375 
Q 38.421875 6.59375 43.015625 9.90625 
Q 47.609375 13.234375 47.609375 19.390625 
Q 47.609375 24.75 44.3125 27.78125 
Q 41.015625 30.8125 33.5 32.328125 
L 27.484375 33.5 
Q 16.453125 35.6875 11.515625 40.375 
Q 6.59375 45.0625 6.59375 53.421875 
Q 6.59375 63.09375 13.40625 68.65625 
Q 20.21875 74.21875 32.171875 74.21875 
Q 37.3125 74.21875 42.625 73.28125 
Q 47.953125 72.359375 53.515625 70.515625 
z
" id="DejaVuSans-53"/>
      <path d="M 8.015625 75.875 
L 15.828125 75.875 
Q 23.140625 64.359375 26.78125 53.3125 
Q 30.421875 42.28125 30.421875 31.390625 
Q 30.421875 20.453125 26.78125 9.375 
Q 23.140625 -1.703125 15.828125 -13.1875 
L 8.015625 -13.1875 
Q 14.5 -2 17.703125 9.0625 
Q 20.90625 20.125 20.90625 31.390625 
Q 20.90625 42.671875 17.703125 53.65625 
Q 14.5 64.65625 8.015625 75.875 
z
" id="DejaVuSans-29"/>
     </defs>
     <g transform="translate(217.927299 86.546102)scale(0.11662 -0.11662)">
      <use xlink:href="#DejaVuSans-50"/>
      <use x="60.287109" xlink:href="#DejaVuSans-72"/>
      <use x="101.369141" xlink:href="#DejaVuSans-65"/>
      <use x="162.892578" xlink:href="#DejaVuSans-64"/>
      <use x="226.369141" xlink:href="#DejaVuSans-69"/>
      <use x="254.152344" xlink:href="#DejaVuSans-63"/>
      <use x="309.132812" xlink:href="#DejaVuSans-74"/>
      <use x="348.341797" xlink:href="#DejaVuSans-69"/>
      <use x="376.125" xlink:href="#DejaVuSans-6f"/>
      <use x="437.306641" xlink:href="#DejaVuSans-6e"/>
      <use x="500.685547" xlink:href="#DejaVuSans-28"/>
      <use x="539.699219" xlink:href="#DejaVuSans-4d"/>
      <use x="625.978516" xlink:href="#DejaVuSans-41"/>
      <use x="694.386719" xlink:href="#DejaVuSans-45"/>
      <use x="757.570312" xlink:href="#DejaVuSans-20"/>
      <use x="789.357422" xlink:href="#DejaVuSans-3d"/>
      <use x="873.146484" xlink:href="#DejaVuSans-20"/>
      <use x="904.933594" xlink:href="#DejaVuSans-32"/>
      <use x="968.556641" xlink:href="#DejaVuSans-2e"/>
      <use x="1000.34375" xlink:href="#DejaVuSans-36"/>
      <use x="1063.966797" xlink:href="#DejaVuSans-33"/>
      <use x="1127.589844" xlink:href="#DejaVuSans-33"/>
      <use x="1191.212891" xlink:href="#DejaVuSans-3b"/>
      <use x="1224.904297" xlink:href="#DejaVuSans-20"/>
      <use x="1256.691406" xlink:href="#DejaVuSans-53"/>
      <use x="1320.167969" xlink:href="#DejaVuSans-63"/>
      <use x="1375.148438" xlink:href="#DejaVuSans-6f"/>
      <use x="1436.330078" xlink:href="#DejaVuSans-72"/>
      <use x="1477.412109" xlink:href="#DejaVuSans-65"/>
      <use x="1538.935547" xlink:href="#DejaVuSans-20"/>
      <use x="1570.722656" xlink:href="#DejaVuSans-3d"/>
      <use x="1654.511719" xlink:href="#DejaVuSans-20"/>
      <use x="1686.298828" xlink:href="#DejaVuSans-30"/>
      <use x="1749.921875" xlink:href="#DejaVuSans-2e"/>
      <use x="1781.708984" xlink:href="#DejaVuSans-38"/>
      <use x="1845.332031" xlink:href="#DejaVuSans-38"/>
      <use x="1908.955078" xlink:href="#DejaVuSans-29"/>
     </g>
    </g>
   </g>
  </g>
 </g>
 <defs>
  <clipPath id="p9d00d361d5">
   <rect height="178.45772" width="411.2946" x="41.394" y="108.23428"/>
  </clipPath>
 </defs>
</svg>
