<?xml version="1.0" encoding="utf-8" standalone="no"?>
<!DOCTYPE svg PUBLIC "-//W3C//DTD SVG 1.1//EN"
  "http://www.w3.org/Graphics/SVG/1.1/DTD/svg11.dtd">
<!-- Created with matplotlib (http://matplotlib.org/) -->
<svg height="345.6pt" version="1.1" viewBox="0 0 460.8 345.6" width="460.8pt" xmlns="http://www.w3.org/2000/svg" xmlns:xlink="http://www.w3.org/1999/xlink">
 <defs>
  <style type="text/css">
*{stroke-linecap:butt;stroke-linejoin:round;}
  </style>
 </defs>
 <g id="figure_1">
  <g id="patch_1">
   <path d="M 0 345.6 
L 460.8 345.6 
L 460.8 0 
L 0 0 
z
" style="fill:#f0f0f0;"/>
  </g>
  <g id="axes_1">
   <g id="patch_2">
    <path d="M 39.054 286.692 
L 452.5986 286.692 
L 452.5986 108.23428 
L 39.054 108.23428 
z
" style="fill:#f0f0f0;"/>
   </g>
   <g id="matplotlib.axis_1">
    <g id="xtick_1">
     <g id="line2d_1">
      <path clip-path="url(#p2b2ccdb49e)" d="M 39.054 286.692 
L 39.054 108.23428 
" style="fill:none;stroke:#cbcbcb;"/>
     </g>
     <g id="line2d_2"/>
     <g id="text_1">
      <!-- 08 -->
      <defs>
       <path d="M 31.78125 66.40625 
Q 24.171875 66.40625 20.328125 58.90625 
Q 16.5 51.421875 16.5 36.375 
Q 16.5 21.390625 20.328125 13.890625 
Q 24.171875 6.390625 31.78125 6.390625 
Q 39.453125 6.390625 43.28125 13.890625 
Q 47.125 21.390625 47.125 36.375 
Q 47.125 51.421875 43.28125 58.90625 
Q 39.453125 66.40625 31.78125 66.40625 
z
M 31.78125 74.21875 
Q 44.046875 74.21875 50.515625 64.515625 
Q 56.984375 54.828125 56.984375 36.375 
Q 56.984375 17.96875 50.515625 8.265625 
Q 44.046875 -1.421875 31.78125 -1.421875 
Q 19.53125 -1.421875 13.0625 8.265625 
Q 6.59375 17.96875 6.59375 36.375 
Q 6.59375 54.828125 13.0625 64.515625 
Q 19.53125 74.21875 31.78125 74.21875 
z
" id="DejaVuSans-30"/>
       <path d="M 31.78125 34.625 
Q 24.75 34.625 20.71875 30.859375 
Q 16.703125 27.09375 16.703125 20.515625 
Q 16.703125 13.921875 20.71875 10.15625 
Q 24.75 6.390625 31.78125 6.390625 
Q 38.8125 6.390625 42.859375 10.171875 
Q 46.921875 13.96875 46.921875 20.515625 
Q 46.921875 27.09375 42.890625 30.859375 
Q 38.875 34.625 31.78125 34.625 
z
M 21.921875 38.8125 
Q 15.578125 40.375 12.03125 44.71875 
Q 8.5 49.078125 8.5 55.328125 
Q 8.5 64.0625 14.71875 69.140625 
Q 20.953125 74.21875 31.78125 74.21875 
Q 42.671875 74.21875 48.875 69.140625 
Q 55.078125 64.0625 55.078125 55.328125 
Q 55.078125 49.078125 51.53125 44.71875 
Q 48 40.375 41.703125 38.8125 
Q 48.828125 37.15625 52.796875 32.3125 
Q 56.78125 27.484375 56.78125 20.515625 
Q 56.78125 9.90625 50.3125 4.234375 
Q 43.84375 -1.421875 31.78125 -1.421875 
Q 19.734375 -1.421875 13.25 4.234375 
Q 6.78125 9.90625 6.78125 20.515625 
Q 6.78125 27.484375 10.78125 32.3125 
Q 14.796875 37.15625 21.921875 38.8125 
z
M 18.3125 54.390625 
Q 18.3125 48.734375 21.84375 45.5625 
Q 25.390625 42.390625 31.78125 42.390625 
Q 38.140625 42.390625 41.71875 45.5625 
Q 45.3125 48.734375 45.3125 54.390625 
Q 45.3125 60.0625 41.71875 63.234375 
Q 38.140625 66.40625 31.78125 66.40625 
Q 25.390625 66.40625 21.84375 63.234375 
Q 18.3125 60.0625 18.3125 54.390625 
z
" id="DejaVuSans-38"/>
      </defs>
      <g transform="translate(31.634053 299.053298)scale(0.11662 -0.11662)">
       <use xlink:href="#DejaVuSans-30"/>
       <use x="63.623047" xlink:href="#DejaVuSans-38"/>
      </g>
      <!-- Aug -->
      <defs>
       <path d="M 34.1875 63.1875 
L 20.796875 26.90625 
L 47.609375 26.90625 
z
M 28.609375 72.90625 
L 39.796875 72.90625 
L 67.578125 0 
L 57.328125 0 
L 50.6875 18.703125 
L 17.828125 18.703125 
L 11.1875 0 
L 0.78125 0 
z
" id="DejaVuSans-41"/>
       <path d="M 8.5 21.578125 
L 8.5 54.6875 
L 17.484375 54.6875 
L 17.484375 21.921875 
Q 17.484375 14.15625 20.5 10.265625 
Q 23.53125 6.390625 29.59375 6.390625 
Q 36.859375 6.390625 41.078125 11.03125 
Q 45.3125 15.671875 45.3125 23.6875 
L 45.3125 54.6875 
L 54.296875 54.6875 
L 54.296875 0 
L 45.3125 0 
L 45.3125 8.40625 
Q 42.046875 3.421875 37.71875 1 
Q 33.40625 -1.421875 27.6875 -1.421875 
Q 18.265625 -1.421875 13.375 4.4375 
Q 8.5 10.296875 8.5 21.578125 
z
M 31.109375 56 
z
" id="DejaVuSans-75"/>
       <path d="M 45.40625 27.984375 
Q 45.40625 37.75 41.375 43.109375 
Q 37.359375 48.484375 30.078125 48.484375 
Q 22.859375 48.484375 18.828125 43.109375 
Q 14.796875 37.75 14.796875 27.984375 
Q 14.796875 18.265625 18.828125 12.890625 
Q 22.859375 7.515625 30.078125 7.515625 
Q 37.359375 7.515625 41.375 12.890625 
Q 45.40625 18.265625 45.40625 27.984375 
z
M 54.390625 6.78125 
Q 54.390625 -7.171875 48.1875 -13.984375 
Q 42 -20.796875 29.203125 -20.796875 
Q 24.46875 -20.796875 20.265625 -20.09375 
Q 16.0625 -19.390625 12.109375 -17.921875 
L 12.109375 -9.1875 
Q 16.0625 -11.328125 19.921875 -12.34375 
Q 23.78125 -13.375 27.78125 -13.375 
Q 36.625 -13.375 41.015625 -8.765625 
Q 45.40625 -4.15625 45.40625 5.171875 
L 45.40625 9.625 
Q 42.625 4.78125 38.28125 2.390625 
Q 33.9375 0 27.875 0 
Q 17.828125 0 11.671875 7.65625 
Q 5.515625 15.328125 5.515625 27.984375 
Q 5.515625 40.671875 11.671875 48.328125 
Q 17.828125 56 27.875 56 
Q 33.9375 56 38.28125 53.609375 
Q 42.625 51.21875 45.40625 46.390625 
L 45.40625 54.6875 
L 54.390625 54.6875 
z
" id="DejaVuSans-67"/>
      </defs>
      <g transform="translate(27.668061 312.112187)scale(0.11662 -0.11662)">
       <use xlink:href="#DejaVuSans-41"/>
       <use x="68.408203" xlink:href="#DejaVuSans-75"/>
       <use x="131.787109" xlink:href="#DejaVuSans-67"/>
      </g>
      <!-- 2016 -->
      <defs>
       <path d="M 19.1875 8.296875 
L 53.609375 8.296875 
L 53.609375 0 
L 7.328125 0 
L 7.328125 8.296875 
Q 12.9375 14.109375 22.625 23.890625 
Q 32.328125 33.6875 34.8125 36.53125 
Q 39.546875 41.84375 41.421875 45.53125 
Q 43.3125 49.21875 43.3125 52.78125 
Q 43.3125 58.59375 39.234375 62.25 
Q 35.15625 65.921875 28.609375 65.921875 
Q 23.96875 65.921875 18.8125 64.3125 
Q 13.671875 62.703125 7.8125 59.421875 
L 7.8125 69.390625 
Q 13.765625 71.78125 18.9375 73 
Q 24.125 74.21875 28.421875 74.21875 
Q 39.75 74.21875 46.484375 68.546875 
Q 53.21875 62.890625 53.21875 53.421875 
Q 53.21875 48.921875 51.53125 44.890625 
Q 49.859375 40.875 45.40625 35.40625 
Q 44.1875 33.984375 37.640625 27.21875 
Q 31.109375 20.453125 19.1875 8.296875 
z
" id="DejaVuSans-32"/>
       <path d="M 12.40625 8.296875 
L 28.515625 8.296875 
L 28.515625 63.921875 
L 10.984375 60.40625 
L 10.984375 69.390625 
L 28.421875 72.90625 
L 38.28125 72.90625 
L 38.28125 8.296875 
L 54.390625 8.296875 
L 54.390625 0 
L 12.40625 0 
z
" id="DejaVuSans-31"/>
       <path d="M 33.015625 40.375 
Q 26.375 40.375 22.484375 35.828125 
Q 18.609375 31.296875 18.609375 23.390625 
Q 18.609375 15.53125 22.484375 10.953125 
Q 26.375 6.390625 33.015625 6.390625 
Q 39.65625 6.390625 43.53125 10.953125 
Q 47.40625 15.53125 47.40625 23.390625 
Q 47.40625 31.296875 43.53125 35.828125 
Q 39.65625 40.375 33.015625 40.375 
z
M 52.59375 71.296875 
L 52.59375 62.3125 
Q 48.875 64.0625 45.09375 64.984375 
Q 41.3125 65.921875 37.59375 65.921875 
Q 27.828125 65.921875 22.671875 59.328125 
Q 17.53125 52.734375 16.796875 39.40625 
Q 19.671875 43.65625 24.015625 45.921875 
Q 28.375 48.1875 33.59375 48.1875 
Q 44.578125 48.1875 50.953125 41.515625 
Q 57.328125 34.859375 57.328125 23.390625 
Q 57.328125 12.15625 50.6875 5.359375 
Q 44.046875 -1.421875 33.015625 -1.421875 
Q 20.359375 -1.421875 13.671875 8.265625 
Q 6.984375 17.96875 6.984375 36.375 
Q 6.984375 53.65625 15.1875 63.9375 
Q 23.390625 74.21875 37.203125 74.21875 
Q 40.921875 74.21875 44.703125 73.484375 
Q 48.484375 72.75 52.59375 71.296875 
z
" id="DejaVuSans-36"/>
      </defs>
      <g transform="translate(24.214105 325.171076)scale(0.11662 -0.11662)">
       <use xlink:href="#DejaVuSans-32"/>
       <use x="63.623047" xlink:href="#DejaVuSans-30"/>
       <use x="127.246094" xlink:href="#DejaVuSans-31"/>
       <use x="190.869141" xlink:href="#DejaVuSans-36"/>
      </g>
     </g>
    </g>
    <g id="xtick_2">
     <g id="line2d_3">
      <path clip-path="url(#p2b2ccdb49e)" d="M 452.5986 286.692 
L 452.5986 108.23428 
" style="fill:none;stroke:#cbcbcb;"/>
     </g>
     <g id="line2d_4"/>
    </g>
    <g id="xtick_3">
     <g id="line2d_5"/>
    </g>
    <g id="xtick_4">
     <g id="line2d_6"/>
     <g id="text_2">
      <!-- 09 -->
      <defs>
       <path d="M 10.984375 1.515625 
L 10.984375 10.5 
Q 14.703125 8.734375 18.5 7.8125 
Q 22.3125 6.890625 25.984375 6.890625 
Q 35.75 6.890625 40.890625 13.453125 
Q 46.046875 20.015625 46.78125 33.40625 
Q 43.953125 29.203125 39.59375 26.953125 
Q 35.25 24.703125 29.984375 24.703125 
Q 19.046875 24.703125 12.671875 31.3125 
Q 6.296875 37.9375 6.296875 49.421875 
Q 6.296875 60.640625 12.9375 67.421875 
Q 19.578125 74.21875 30.609375 74.21875 
Q 43.265625 74.21875 49.921875 64.515625 
Q 56.59375 54.828125 56.59375 36.375 
Q 56.59375 19.140625 48.40625 8.859375 
Q 40.234375 -1.421875 26.421875 -1.421875 
Q 22.703125 -1.421875 18.890625 -0.6875 
Q 15.09375 0.046875 10.984375 1.515625 
z
M 30.609375 32.421875 
Q 37.25 32.421875 41.125 36.953125 
Q 45.015625 41.5 45.015625 49.421875 
Q 45.015625 57.28125 41.125 61.84375 
Q 37.25 66.40625 30.609375 66.40625 
Q 23.96875 66.40625 20.09375 61.84375 
Q 16.21875 57.28125 16.21875 49.421875 
Q 16.21875 41.5 20.09375 36.953125 
Q 23.96875 32.421875 30.609375 32.421875 
z
" id="DejaVuSans-39"/>
      </defs>
      <g transform="translate(77.636696 298.953298)scale(0.11662 -0.11662)">
       <use xlink:href="#DejaVuSans-30"/>
       <use x="63.623047" xlink:href="#DejaVuSans-39"/>
      </g>
     </g>
    </g>
    <g id="xtick_5">
     <g id="line2d_7"/>
     <g id="text_3">
      <!-- 10 -->
      <g transform="translate(123.63934 298.953298)scale(0.11662 -0.11662)">
       <use xlink:href="#DejaVuSans-31"/>
       <use x="63.623047" xlink:href="#DejaVuSans-30"/>
      </g>
     </g>
    </g>
    <g id="xtick_6">
     <g id="line2d_8"/>
     <g id="text_4">
      <!-- 11 -->
      <g transform="translate(169.641984 298.953298)scale(0.11662 -0.11662)">
       <use xlink:href="#DejaVuSans-31"/>
       <use x="63.623047" xlink:href="#DejaVuSans-31"/>
      </g>
     </g>
    </g>
    <g id="xtick_7">
     <g id="line2d_9"/>
     <g id="text_5">
      <!-- 12 -->
      <g transform="translate(215.644628 298.953298)scale(0.11662 -0.11662)">
       <use xlink:href="#DejaVuSans-31"/>
       <use x="63.623047" xlink:href="#DejaVuSans-32"/>
      </g>
     </g>
    </g>
    <g id="xtick_8">
     <g id="line2d_10"/>
     <g id="text_6">
      <!-- 13 -->
      <defs>
       <path d="M 40.578125 39.3125 
Q 47.65625 37.796875 51.625 33 
Q 55.609375 28.21875 55.609375 21.1875 
Q 55.609375 10.40625 48.1875 4.484375 
Q 40.765625 -1.421875 27.09375 -1.421875 
Q 22.515625 -1.421875 17.65625 -0.515625 
Q 12.796875 0.390625 7.625 2.203125 
L 7.625 11.71875 
Q 11.71875 9.328125 16.59375 8.109375 
Q 21.484375 6.890625 26.8125 6.890625 
Q 36.078125 6.890625 40.9375 10.546875 
Q 45.796875 14.203125 45.796875 21.1875 
Q 45.796875 27.640625 41.28125 31.265625 
Q 36.765625 34.90625 28.71875 34.90625 
L 20.21875 34.90625 
L 20.21875 43.015625 
L 29.109375 43.015625 
Q 36.375 43.015625 40.234375 45.921875 
Q 44.09375 48.828125 44.09375 54.296875 
Q 44.09375 59.90625 40.109375 62.90625 
Q 36.140625 65.921875 28.71875 65.921875 
Q 24.65625 65.921875 20.015625 65.03125 
Q 15.375 64.15625 9.8125 62.3125 
L 9.8125 71.09375 
Q 15.4375 72.65625 20.34375 73.4375 
Q 25.25 74.21875 29.59375 74.21875 
Q 40.828125 74.21875 47.359375 69.109375 
Q 53.90625 64.015625 53.90625 55.328125 
Q 53.90625 49.265625 50.4375 45.09375 
Q 46.96875 40.921875 40.578125 39.3125 
z
" id="DejaVuSans-33"/>
      </defs>
      <g transform="translate(261.647272 298.953298)scale(0.11662 -0.11662)">
       <use xlink:href="#DejaVuSans-31"/>
       <use x="63.623047" xlink:href="#DejaVuSans-33"/>
      </g>
     </g>
    </g>
    <g id="xtick_9">
     <g id="line2d_11"/>
     <g id="text_7">
      <!-- 14 -->
      <defs>
       <path d="M 37.796875 64.3125 
L 12.890625 25.390625 
L 37.796875 25.390625 
z
M 35.203125 72.90625 
L 47.609375 72.90625 
L 47.609375 25.390625 
L 58.015625 25.390625 
L 58.015625 17.1875 
L 47.609375 17.1875 
L 47.609375 0 
L 37.796875 0 
L 37.796875 17.1875 
L 4.890625 17.1875 
L 4.890625 26.703125 
z
" id="DejaVuSans-34"/>
      </defs>
      <g transform="translate(307.649915 298.953298)scale(0.11662 -0.11662)">
       <use xlink:href="#DejaVuSans-31"/>
       <use x="63.623047" xlink:href="#DejaVuSans-34"/>
      </g>
     </g>
    </g>
    <g id="xtick_10">
     <g id="line2d_12"/>
     <g id="text_8">
      <!-- 15 -->
      <defs>
       <path d="M 10.796875 72.90625 
L 49.515625 72.90625 
L 49.515625 64.59375 
L 19.828125 64.59375 
L 19.828125 46.734375 
Q 21.96875 47.46875 24.109375 47.828125 
Q 26.265625 48.1875 28.421875 48.1875 
Q 40.625 48.1875 47.75 41.5 
Q 54.890625 34.8125 54.890625 23.390625 
Q 54.890625 11.625 47.5625 5.09375 
Q 40.234375 -1.421875 26.90625 -1.421875 
Q 22.3125 -1.421875 17.546875 -0.640625 
Q 12.796875 0.140625 7.71875 1.703125 
L 7.71875 11.625 
Q 12.109375 9.234375 16.796875 8.0625 
Q 21.484375 6.890625 26.703125 6.890625 
Q 35.15625 6.890625 40.078125 11.328125 
Q 45.015625 15.765625 45.015625 23.390625 
Q 45.015625 31 40.078125 35.4375 
Q 35.15625 39.890625 26.703125 39.890625 
Q 22.75 39.890625 18.8125 39.015625 
Q 14.890625 38.140625 10.796875 36.28125 
z
" id="DejaVuSans-35"/>
      </defs>
      <g transform="translate(353.652559 298.953298)scale(0.11662 -0.11662)">
       <use xlink:href="#DejaVuSans-31"/>
       <use x="63.623047" xlink:href="#DejaVuSans-35"/>
      </g>
     </g>
    </g>
    <g id="xtick_11">
     <g id="line2d_13"/>
     <g id="text_9">
      <!-- 16 -->
      <g transform="translate(399.655203 298.953298)scale(0.11662 -0.11662)">
       <use xlink:href="#DejaVuSans-31"/>
       <use x="63.623047" xlink:href="#DejaVuSans-36"/>
      </g>
     </g>
    </g>
    <g id="text_10">
     <!-- Time -->
     <defs>
      <path d="M -0.296875 72.90625 
L 61.375 72.90625 
L 61.375 64.59375 
L 35.5 64.59375 
L 35.5 0 
L 25.59375 0 
L 25.59375 64.59375 
L -0.296875 64.59375 
z
" id="DejaVuSans-54"/>
      <path d="M 9.421875 54.6875 
L 18.40625 54.6875 
L 18.40625 0 
L 9.421875 0 
z
M 9.421875 75.984375 
L 18.40625 75.984375 
L 18.40625 64.59375 
L 9.421875 64.59375 
z
" id="DejaVuSans-69"/>
      <path d="M 52 44.1875 
Q 55.375 50.25 60.0625 53.125 
Q 64.75 56 71.09375 56 
Q 79.640625 56 84.28125 50.015625 
Q 88.921875 44.046875 88.921875 33.015625 
L 88.921875 0 
L 79.890625 0 
L 79.890625 32.71875 
Q 79.890625 40.578125 77.09375 44.375 
Q 74.3125 48.1875 68.609375 48.1875 
Q 61.625 48.1875 57.5625 43.546875 
Q 53.515625 38.921875 53.515625 30.90625 
L 53.515625 0 
L 44.484375 0 
L 44.484375 32.71875 
Q 44.484375 40.625 41.703125 44.40625 
Q 38.921875 48.1875 33.109375 48.1875 
Q 26.21875 48.1875 22.15625 43.53125 
Q 18.109375 38.875 18.109375 30.90625 
L 18.109375 0 
L 9.078125 0 
L 9.078125 54.6875 
L 18.109375 54.6875 
L 18.109375 46.1875 
Q 21.1875 51.21875 25.484375 53.609375 
Q 29.78125 56 35.6875 56 
Q 41.65625 56 45.828125 52.96875 
Q 50 49.953125 52 44.1875 
z
" id="DejaVuSans-6d"/>
      <path d="M 56.203125 29.59375 
L 56.203125 25.203125 
L 14.890625 25.203125 
Q 15.484375 15.921875 20.484375 11.0625 
Q 25.484375 6.203125 34.421875 6.203125 
Q 39.59375 6.203125 44.453125 7.46875 
Q 49.3125 8.734375 54.109375 11.28125 
L 54.109375 2.78125 
Q 49.265625 0.734375 44.1875 -0.34375 
Q 39.109375 -1.421875 33.890625 -1.421875 
Q 20.796875 -1.421875 13.15625 6.1875 
Q 5.515625 13.8125 5.515625 26.8125 
Q 5.515625 40.234375 12.765625 48.109375 
Q 20.015625 56 32.328125 56 
Q 43.359375 56 49.78125 48.890625 
Q 56.203125 41.796875 56.203125 29.59375 
z
M 47.21875 32.234375 
Q 47.125 39.59375 43.09375 43.984375 
Q 39.0625 48.390625 32.421875 48.390625 
Q 24.90625 48.390625 20.390625 44.140625 
Q 15.875 39.890625 15.1875 32.171875 
z
" id="DejaVuSans-65"/>
     </defs>
     <g transform="translate(231.379997 340.457705)scale(0.11662 -0.11662)">
      <use xlink:href="#DejaVuSans-54"/>
      <use x="61.037109" xlink:href="#DejaVuSans-69"/>
      <use x="88.820312" xlink:href="#DejaVuSans-6d"/>
      <use x="186.232422" xlink:href="#DejaVuSans-65"/>
     </g>
    </g>
   </g>
   <g id="matplotlib.axis_2">
    <g id="ytick_1">
     <g id="line2d_14">
      <path clip-path="url(#p2b2ccdb49e)" d="M 39.054 263.786359 
L 452.5986 263.786359 
" style="fill:none;stroke:#cbcbcb;"/>
     </g>
     <g id="line2d_15"/>
     <g id="text_11">
      <!-- 0 -->
      <g transform="translate(28.134053 268.217008)scale(0.11662 -0.11662)">
       <use xlink:href="#DejaVuSans-30"/>
      </g>
     </g>
    </g>
    <g id="ytick_2">
     <g id="line2d_16">
      <path clip-path="url(#p2b2ccdb49e)" d="M 39.054 217.177718 
L 452.5986 217.177718 
" style="fill:none;stroke:#cbcbcb;"/>
     </g>
     <g id="line2d_17"/>
     <g id="text_12">
      <!-- 10 -->
      <g transform="translate(20.714105 221.608367)scale(0.11662 -0.11662)">
       <use xlink:href="#DejaVuSans-31"/>
       <use x="63.623047" xlink:href="#DejaVuSans-30"/>
      </g>
     </g>
    </g>
    <g id="ytick_3">
     <g id="line2d_18">
      <path clip-path="url(#p2b2ccdb49e)" d="M 39.054 170.569077 
L 452.5986 170.569077 
" style="fill:none;stroke:#cbcbcb;"/>
     </g>
     <g id="line2d_19"/>
     <g id="text_13">
      <!-- 20 -->
      <g transform="translate(20.714105 174.999726)scale(0.11662 -0.11662)">
       <use xlink:href="#DejaVuSans-32"/>
       <use x="63.623047" xlink:href="#DejaVuSans-30"/>
      </g>
     </g>
    </g>
    <g id="ytick_4">
     <g id="line2d_20">
      <path clip-path="url(#p2b2ccdb49e)" d="M 39.054 123.960435 
L 452.5986 123.960435 
" style="fill:none;stroke:#cbcbcb;"/>
     </g>
     <g id="line2d_21"/>
     <g id="text_14">
      <!-- 30 -->
      <g transform="translate(20.714105 128.391084)scale(0.11662 -0.11662)">
       <use xlink:href="#DejaVuSans-33"/>
       <use x="63.623047" xlink:href="#DejaVuSans-30"/>
      </g>
     </g>
    </g>
    <g id="text_15">
     <!-- Total active power [kW] -->
     <defs>
      <path d="M 30.609375 48.390625 
Q 23.390625 48.390625 19.1875 42.75 
Q 14.984375 37.109375 14.984375 27.296875 
Q 14.984375 17.484375 19.15625 11.84375 
Q 23.34375 6.203125 30.609375 6.203125 
Q 37.796875 6.203125 41.984375 11.859375 
Q 46.1875 17.53125 46.1875 27.296875 
Q 46.1875 37.015625 41.984375 42.703125 
Q 37.796875 48.390625 30.609375 48.390625 
z
M 30.609375 56 
Q 42.328125 56 49.015625 48.375 
Q 55.71875 40.765625 55.71875 27.296875 
Q 55.71875 13.875 49.015625 6.21875 
Q 42.328125 -1.421875 30.609375 -1.421875 
Q 18.84375 -1.421875 12.171875 6.21875 
Q 5.515625 13.875 5.515625 27.296875 
Q 5.515625 40.765625 12.171875 48.375 
Q 18.84375 56 30.609375 56 
z
" id="DejaVuSans-6f"/>
      <path d="M 18.3125 70.21875 
L 18.3125 54.6875 
L 36.8125 54.6875 
L 36.8125 47.703125 
L 18.3125 47.703125 
L 18.3125 18.015625 
Q 18.3125 11.328125 20.140625 9.421875 
Q 21.96875 7.515625 27.59375 7.515625 
L 36.8125 7.515625 
L 36.8125 0 
L 27.59375 0 
Q 17.1875 0 13.234375 3.875 
Q 9.28125 7.765625 9.28125 18.015625 
L 9.28125 47.703125 
L 2.6875 47.703125 
L 2.6875 54.6875 
L 9.28125 54.6875 
L 9.28125 70.21875 
z
" id="DejaVuSans-74"/>
      <path d="M 34.28125 27.484375 
Q 23.390625 27.484375 19.1875 25 
Q 14.984375 22.515625 14.984375 16.5 
Q 14.984375 11.71875 18.140625 8.90625 
Q 21.296875 6.109375 26.703125 6.109375 
Q 34.1875 6.109375 38.703125 11.40625 
Q 43.21875 16.703125 43.21875 25.484375 
L 43.21875 27.484375 
z
M 52.203125 31.203125 
L 52.203125 0 
L 43.21875 0 
L 43.21875 8.296875 
Q 40.140625 3.328125 35.546875 0.953125 
Q 30.953125 -1.421875 24.3125 -1.421875 
Q 15.921875 -1.421875 10.953125 3.296875 
Q 6 8.015625 6 15.921875 
Q 6 25.140625 12.171875 29.828125 
Q 18.359375 34.515625 30.609375 34.515625 
L 43.21875 34.515625 
L 43.21875 35.40625 
Q 43.21875 41.609375 39.140625 45 
Q 35.0625 48.390625 27.6875 48.390625 
Q 23 48.390625 18.546875 47.265625 
Q 14.109375 46.140625 10.015625 43.890625 
L 10.015625 52.203125 
Q 14.9375 54.109375 19.578125 55.046875 
Q 24.21875 56 28.609375 56 
Q 40.484375 56 46.34375 49.84375 
Q 52.203125 43.703125 52.203125 31.203125 
z
" id="DejaVuSans-61"/>
      <path d="M 9.421875 75.984375 
L 18.40625 75.984375 
L 18.40625 0 
L 9.421875 0 
z
" id="DejaVuSans-6c"/>
      <path id="DejaVuSans-20"/>
      <path d="M 48.78125 52.59375 
L 48.78125 44.1875 
Q 44.96875 46.296875 41.140625 47.34375 
Q 37.3125 48.390625 33.40625 48.390625 
Q 24.65625 48.390625 19.8125 42.84375 
Q 14.984375 37.3125 14.984375 27.296875 
Q 14.984375 17.28125 19.8125 11.734375 
Q 24.65625 6.203125 33.40625 6.203125 
Q 37.3125 6.203125 41.140625 7.25 
Q 44.96875 8.296875 48.78125 10.40625 
L 48.78125 2.09375 
Q 45.015625 0.34375 40.984375 -0.53125 
Q 36.96875 -1.421875 32.421875 -1.421875 
Q 20.0625 -1.421875 12.78125 6.34375 
Q 5.515625 14.109375 5.515625 27.296875 
Q 5.515625 40.671875 12.859375 48.328125 
Q 20.21875 56 33.015625 56 
Q 37.15625 56 41.109375 55.140625 
Q 45.0625 54.296875 48.78125 52.59375 
z
" id="DejaVuSans-63"/>
      <path d="M 2.984375 54.6875 
L 12.5 54.6875 
L 29.59375 8.796875 
L 46.6875 54.6875 
L 56.203125 54.6875 
L 35.6875 0 
L 23.484375 0 
z
" id="DejaVuSans-76"/>
      <path d="M 18.109375 8.203125 
L 18.109375 -20.796875 
L 9.078125 -20.796875 
L 9.078125 54.6875 
L 18.109375 54.6875 
L 18.109375 46.390625 
Q 20.953125 51.265625 25.265625 53.625 
Q 29.59375 56 35.59375 56 
Q 45.5625 56 51.78125 48.09375 
Q 58.015625 40.1875 58.015625 27.296875 
Q 58.015625 14.40625 51.78125 6.484375 
Q 45.5625 -1.421875 35.59375 -1.421875 
Q 29.59375 -1.421875 25.265625 0.953125 
Q 20.953125 3.328125 18.109375 8.203125 
z
M 48.6875 27.296875 
Q 48.6875 37.203125 44.609375 42.84375 
Q 40.53125 48.484375 33.40625 48.484375 
Q 26.265625 48.484375 22.1875 42.84375 
Q 18.109375 37.203125 18.109375 27.296875 
Q 18.109375 17.390625 22.1875 11.75 
Q 26.265625 6.109375 33.40625 6.109375 
Q 40.53125 6.109375 44.609375 11.75 
Q 48.6875 17.390625 48.6875 27.296875 
z
" id="DejaVuSans-70"/>
      <path d="M 4.203125 54.6875 
L 13.1875 54.6875 
L 24.421875 12.015625 
L 35.59375 54.6875 
L 46.1875 54.6875 
L 57.421875 12.015625 
L 68.609375 54.6875 
L 77.59375 54.6875 
L 63.28125 0 
L 52.6875 0 
L 40.921875 44.828125 
L 29.109375 0 
L 18.5 0 
z
" id="DejaVuSans-77"/>
      <path d="M 41.109375 46.296875 
Q 39.59375 47.171875 37.8125 47.578125 
Q 36.03125 48 33.890625 48 
Q 26.265625 48 22.1875 43.046875 
Q 18.109375 38.09375 18.109375 28.8125 
L 18.109375 0 
L 9.078125 0 
L 9.078125 54.6875 
L 18.109375 54.6875 
L 18.109375 46.1875 
Q 20.953125 51.171875 25.484375 53.578125 
Q 30.03125 56 36.53125 56 
Q 37.453125 56 38.578125 55.875 
Q 39.703125 55.765625 41.0625 55.515625 
z
" id="DejaVuSans-72"/>
      <path d="M 8.59375 75.984375 
L 29.296875 75.984375 
L 29.296875 69 
L 17.578125 69 
L 17.578125 -6.203125 
L 29.296875 -6.203125 
L 29.296875 -13.1875 
L 8.59375 -13.1875 
z
" id="DejaVuSans-5b"/>
      <path d="M 9.078125 75.984375 
L 18.109375 75.984375 
L 18.109375 31.109375 
L 44.921875 54.6875 
L 56.390625 54.6875 
L 27.390625 29.109375 
L 57.625 0 
L 45.90625 0 
L 18.109375 26.703125 
L 18.109375 0 
L 9.078125 0 
z
" id="DejaVuSans-6b"/>
      <path d="M 3.328125 72.90625 
L 13.28125 72.90625 
L 28.609375 11.28125 
L 43.890625 72.90625 
L 54.984375 72.90625 
L 70.3125 11.28125 
L 85.59375 72.90625 
L 95.609375 72.90625 
L 77.296875 0 
L 64.890625 0 
L 49.515625 63.28125 
L 33.984375 0 
L 21.578125 0 
z
" id="DejaVuSans-57"/>
      <path d="M 30.421875 75.984375 
L 30.421875 -13.1875 
L 9.71875 -13.1875 
L 9.71875 -6.203125 
L 21.390625 -6.203125 
L 21.390625 69 
L 9.71875 69 
L 9.71875 75.984375 
z
" id="DejaVuSans-5d"/>
     </defs>
     <g transform="translate(14.288773 267.055214)rotate(-90)scale(0.11662 -0.11662)">
      <use xlink:href="#DejaVuSans-54"/>
      <use x="60.818359" xlink:href="#DejaVuSans-6f"/>
      <use x="122" xlink:href="#DejaVuSans-74"/>
      <use x="161.208984" xlink:href="#DejaVuSans-61"/>
      <use x="222.488281" xlink:href="#DejaVuSans-6c"/>
      <use x="250.271484" xlink:href="#DejaVuSans-20"/>
      <use x="282.058594" xlink:href="#DejaVuSans-61"/>
      <use x="343.337891" xlink:href="#DejaVuSans-63"/>
      <use x="398.318359" xlink:href="#DejaVuSans-74"/>
      <use x="437.527344" xlink:href="#DejaVuSans-69"/>
      <use x="465.310547" xlink:href="#DejaVuSans-76"/>
      <use x="524.490234" xlink:href="#DejaVuSans-65"/>
      <use x="586.013672" xlink:href="#DejaVuSans-20"/>
      <use x="617.800781" xlink:href="#DejaVuSans-70"/>
      <use x="681.277344" xlink:href="#DejaVuSans-6f"/>
      <use x="742.458984" xlink:href="#DejaVuSans-77"/>
      <use x="824.246094" xlink:href="#DejaVuSans-65"/>
      <use x="885.769531" xlink:href="#DejaVuSans-72"/>
      <use x="926.882812" xlink:href="#DejaVuSans-20"/>
      <use x="958.669922" xlink:href="#DejaVuSans-5b"/>
      <use x="997.683594" xlink:href="#DejaVuSans-6b"/>
      <use x="1055.59375" xlink:href="#DejaVuSans-57"/>
      <use x="1154.470703" xlink:href="#DejaVuSans-5d"/>
     </g>
    </g>
   </g>
   <g id="line2d_22">
    <path clip-path="url(#p2b2ccdb49e)" d="M 39.054 263.320273 
L 40.012388 263.320273 
L 40.491583 262.854187 
L 40.970777 262.854187 
L 41.449971 263.320273 
L 41.929165 262.854187 
L 42.408359 262.854187 
L 42.887554 263.320273 
L 43.366748 262.854187 
L 45.283525 262.854187 
L 45.762719 263.320273 
L 46.241913 263.320273 
L 46.721107 262.854187 
L 47.200302 263.320273 
L 48.15869 263.320273 
L 48.637884 262.854187 
L 49.117078 262.854187 
L 49.596273 263.320273 
L 50.075467 262.854187 
L 50.554661 263.320273 
L 52.471438 263.320273 
L 52.950632 262.854187 
L 53.429826 262.854187 
L 53.90902 231.626397 
L 54.388215 184.085583 
L 54.867409 184.551669 
L 55.346603 184.551669 
L 55.825797 186.416015 
L 56.304991 185.949928 
L 56.784186 186.416015 
L 57.26338 184.085583 
L 57.742574 186.416015 
L 58.221768 181.289064 
L 58.700962 263.786359 
L 59.180157 263.320273 
L 59.659351 263.786359 
L 60.617739 125.358695 
L 61.096933 233.490743 
L 61.576128 230.694224 
L 62.055322 123.494349 
L 62.534516 233.490743 
L 63.01371 124.426522 
L 63.492905 123.028262 
L 63.972099 233.490743 
L 64.451293 123.028262 
L 64.930487 234.889002 
L 65.409681 233.956829 
L 65.888876 124.426522 
L 66.36807 122.562176 
L 66.847264 233.956829 
L 67.326458 123.028262 
L 68.284847 122.09609 
L 68.764041 232.092483 
L 69.243235 123.494349 
L 69.722429 121.630003 
L 70.201623 232.55857 
L 70.680818 123.028262 
L 71.160012 123.960435 
L 71.639206 263.320273 
L 72.1184 263.786359 
L 75.47276 263.786359 
L 76.431148 125.824781 
L 76.910342 123.494349 
L 77.389537 230.694224 
L 77.868731 233.490743 
L 78.347925 125.358695 
L 78.827119 231.16031 
L 79.306313 186.882101 
L 79.785508 183.619496 
L 80.264702 184.551669 
L 80.743896 263.786359 
L 81.22309 262.854187 
L 81.702284 263.320273 
L 82.181479 262.854187 
L 83.139867 262.854187 
L 83.619061 263.320273 
L 84.098255 262.854187 
L 84.57745 263.320273 
L 87.452615 263.320273 
L 87.931809 262.854187 
L 88.411003 263.320273 
L 88.890197 262.854187 
L 89.848586 262.854187 
L 90.32778 263.320273 
L 90.806974 263.320273 
L 91.286168 263.786359 
L 91.765363 262.854187 
L 92.723751 262.854187 
L 93.202945 263.786359 
L 93.68214 263.320273 
L 94.161334 263.320273 
L 94.640528 263.786359 
L 96.557305 263.786359 
L 97.036499 262.854187 
L 98.474082 262.854187 
L 98.953276 263.786359 
L 99.43247 262.854187 
L 99.911664 200.398607 
L 100.390858 205.525558 
L 100.870053 218.575977 
L 101.349247 209.254249 
L 101.828441 228.829878 
L 102.307635 185.483842 
L 102.786829 182.221237 
L 103.266024 182.687323 
L 103.745218 183.619496 
L 104.224412 185.017756 
L 104.703606 185.949928 
L 105.1828 183.15341 
L 105.661995 182.687323 
L 106.141189 185.949928 
L 106.620383 185.017756 
L 107.099577 182.687323 
L 107.578771 263.320273 
L 108.057966 263.786359 
L 108.53716 263.786359 
L 109.495548 123.028262 
L 109.974743 230.694224 
L 110.453937 230.228138 
L 110.933131 123.028262 
L 111.412325 229.762051 
L 111.891519 232.55857 
L 112.370714 122.562176 
L 112.849908 231.16031 
L 113.329102 123.494349 
L 113.808296 233.490743 
L 114.28749 233.024656 
L 114.766685 123.494349 
L 115.245879 232.55857 
L 115.725073 123.028262 
L 116.204267 123.960435 
L 116.683461 233.490743 
L 117.162656 123.960435 
L 117.64185 263.786359 
L 120.996209 263.786359 
L 121.475403 263.320273 
L 121.954598 184.085583 
L 122.433792 186.882101 
L 122.912986 186.882101 
L 123.39218 182.687323 
L 123.871375 182.687323 
L 124.350569 182.221237 
L 124.829763 180.356891 
L 125.308957 185.017756 
L 125.788151 185.483842 
L 126.267346 181.755151 
L 126.74654 262.854187 
L 128.184122 262.854187 
L 128.663317 263.786359 
L 129.621705 262.854187 
L 130.100899 263.320273 
L 131.059288 263.320273 
L 131.538482 262.854187 
L 132.017676 263.320273 
L 132.976064 263.320273 
L 133.455259 262.854187 
L 133.934453 262.854187 
L 134.413647 263.786359 
L 134.892841 262.854187 
L 135.372035 263.320273 
L 135.85123 263.320273 
L 136.330424 262.854187 
L 136.809618 262.854187 
L 137.768006 263.786359 
L 138.247201 263.320273 
L 138.726395 263.786359 
L 139.205589 263.320273 
L 139.684783 263.786359 
L 140.163978 262.854187 
L 140.643172 262.854187 
L 141.122366 263.320273 
L 141.60156 262.854187 
L 142.559949 263.786359 
L 143.039143 263.320273 
L 143.518337 263.786359 
L 143.997531 263.320273 
L 144.476725 263.786359 
L 145.435114 263.786359 
L 145.914308 212.050768 
L 146.393502 217.177718 
L 146.872696 219.042064 
L 147.351891 208.788163 
L 147.831085 263.786359 
L 148.310279 183.619496 
L 148.789473 184.085583 
L 149.268667 182.687323 
L 149.747862 185.949928 
L 150.227056 181.755151 
L 150.70625 185.017756 
L 151.185444 182.687323 
L 151.664638 182.221237 
L 152.623027 182.221237 
L 153.102221 183.15341 
L 154.06061 182.221237 
L 154.539804 263.786359 
L 156.456581 263.786359 
L 156.935775 123.494349 
L 157.414969 233.490743 
L 157.894163 231.626397 
L 158.373357 233.956829 
L 158.852552 146.332583 
L 159.331746 230.228138 
L 159.81094 231.16031 
L 160.290134 230.228138 
L 160.769328 123.494349 
L 161.248523 233.024656 
L 161.727717 230.694224 
L 162.206911 123.960435 
L 162.686105 233.956829 
L 163.165299 233.490743 
L 163.644494 263.320273 
L 164.123688 263.786359 
L 168.91563 263.786359 
L 169.394824 183.619496 
L 169.874018 186.416015 
L 170.353213 184.085583 
L 170.832407 184.551669 
L 171.311601 183.15341 
L 171.790795 181.289064 
L 172.269989 185.483842 
L 172.749184 263.320273 
L 173.228378 263.320273 
L 173.707572 262.854187 
L 174.186766 263.320273 
L 175.145155 263.320273 
L 175.624349 262.854187 
L 176.582737 263.786359 
L 177.061931 262.854187 
L 177.541126 263.320273 
L 178.02032 263.320273 
L 178.499514 263.786359 
L 178.978708 262.854187 
L 179.457902 262.854187 
L 179.937097 263.786359 
L 180.416291 263.320273 
L 180.895485 263.320273 
L 181.374679 262.854187 
L 181.853873 262.854187 
L 182.333068 263.320273 
L 182.812262 262.854187 
L 183.291456 263.320273 
L 183.77065 262.854187 
L 184.249844 263.320273 
L 184.729039 263.320273 
L 185.208233 263.786359 
L 185.687427 263.320273 
L 186.645816 263.320273 
L 187.12501 262.854187 
L 187.604204 263.320273 
L 188.083398 262.854187 
L 188.562592 263.786359 
L 189.041787 263.320273 
L 189.520981 263.786359 
L 190.000175 262.854187 
L 191.437758 262.854187 
L 191.916952 192.941225 
L 192.396146 183.619496 
L 192.87534 181.755151 
L 193.354534 185.483842 
L 193.833729 185.949928 
L 194.312923 182.687323 
L 194.792117 183.619496 
L 195.271311 181.755151 
L 195.750505 183.15341 
L 196.2297 183.619496 
L 196.708894 185.017756 
L 197.188088 183.619496 
L 197.667282 185.483842 
L 198.146476 184.085583 
L 198.625671 263.786359 
L 199.104865 263.786359 
L 199.584059 124.892608 
L 200.063253 229.762051 
L 200.542448 231.16031 
L 201.021642 123.960435 
L 201.500836 234.422915 
L 201.98003 233.024656 
L 202.459224 124.426522 
L 202.938419 123.028262 
L 203.417613 233.956829 
L 203.896807 122.562176 
L 204.376001 122.562176 
L 204.855195 233.490743 
L 205.33439 231.16031 
L 205.813584 122.09609 
L 206.292778 121.630003 
L 206.771972 231.626397 
L 207.251166 121.163917 
L 207.730361 122.562176 
L 208.209555 231.16031 
L 208.688749 122.09609 
L 209.167943 233.490743 
L 209.647137 263.786359 
L 210.126332 263.320273 
L 210.605526 263.786359 
L 211.08472 263.786359 
L 211.563914 263.320273 
L 212.043108 263.786359 
L 213.001497 263.786359 
L 213.480691 263.320273 
L 214.439079 123.028262 
L 214.918274 123.028262 
L 215.397468 233.490743 
L 215.876662 123.028262 
L 216.355856 231.16031 
L 216.835051 229.295965 
L 217.314245 123.960435 
L 217.793439 233.490743 
L 218.272633 233.956829 
L 218.751827 263.786359 
L 219.231022 263.320273 
L 219.710216 263.786359 
L 220.18941 263.786359 
L 221.147798 262.854187 
L 221.626993 263.320273 
L 223.064575 263.320273 
L 223.543769 262.854187 
L 224.022964 263.320273 
L 224.502158 263.320273 
L 224.981352 262.854187 
L 225.460546 263.320273 
L 225.93974 262.854187 
L 226.418935 263.320273 
L 226.898129 262.854187 
L 228.335711 262.854187 
L 228.814906 263.320273 
L 229.2941 262.854187 
L 230.731683 262.854187 
L 231.210877 263.320273 
L 231.690071 262.854187 
L 232.169265 263.320273 
L 232.648459 263.320273 
L 233.127654 262.854187 
L 233.606848 262.854187 
L 234.086042 263.786359 
L 234.565236 262.854187 
L 235.04443 262.854187 
L 236.002819 263.786359 
L 236.482013 263.786359 
L 236.961207 263.320273 
L 237.440401 263.786359 
L 237.919596 217.177718 
L 238.39879 182.221237 
L 238.877984 185.483842 
L 239.357178 182.221237 
L 239.836372 185.949928 
L 240.315567 184.085583 
L 240.794761 181.755151 
L 241.273955 263.786359 
L 242.711538 263.786359 
L 243.190732 123.494349 
L 243.669926 233.490743 
L 244.14912 232.092483 
L 244.628314 122.09609 
L 245.107509 231.16031 
L 245.586703 233.024656 
L 246.065897 122.09609 
L 246.545091 233.490743 
L 247.024286 121.163917 
L 247.50348 233.490743 
L 247.982674 231.16031 
L 248.461868 121.163917 
L 248.941062 231.626397 
L 249.420257 118.833485 
L 249.899451 119.765658 
L 250.378645 233.490743 
L 250.857839 118.833485 
L 251.337033 231.626397 
L 251.816228 119.765658 
L 252.295422 119.299571 
L 252.774616 233.956829 
L 253.25381 119.765658 
L 253.733004 119.299571 
L 254.212199 233.490743 
L 254.691393 119.299571 
L 255.170587 119.299571 
L 255.649781 263.320273 
L 256.128975 263.320273 
L 256.60817 263.786359 
L 257.087364 263.786359 
L 257.566558 263.320273 
L 258.045752 263.786359 
L 258.524946 263.320273 
L 259.004141 263.786359 
L 259.483335 263.786359 
L 260.441723 121.630003 
L 260.920917 121.630003 
L 261.400112 233.956829 
L 261.879306 123.028262 
L 262.3585 123.960435 
L 262.837694 233.490743 
L 263.316889 123.960435 
L 263.796083 233.956829 
L 264.275277 229.762051 
L 264.754471 263.320273 
L 265.233665 263.786359 
L 266.192054 263.786359 
L 266.671248 262.854187 
L 267.150442 262.854187 
L 267.629636 263.320273 
L 268.108831 263.320273 
L 268.588025 262.854187 
L 269.546413 262.854187 
L 270.025607 263.320273 
L 270.504802 263.320273 
L 270.983996 262.854187 
L 271.46319 263.320273 
L 271.942384 263.320273 
L 272.421578 262.854187 
L 272.900773 263.320273 
L 274.817549 263.320273 
L 275.296744 262.854187 
L 276.734326 262.854187 
L 277.213521 263.320273 
L 277.692715 262.854187 
L 278.651103 263.786359 
L 279.130297 262.854187 
L 279.609492 263.320273 
L 280.56788 263.320273 
L 281.047074 262.854187 
L 281.526268 263.320273 
L 282.005463 263.320273 
L 282.484657 262.854187 
L 282.963851 262.854187 
L 283.443045 263.320273 
L 284.401434 184.085583 
L 284.880628 183.15341 
L 285.359822 183.15341 
L 285.839016 263.320273 
L 286.31821 262.854187 
L 286.797405 263.786359 
L 288.234987 263.786359 
L 289.193376 124.892608 
L 289.67257 233.490743 
L 290.151764 233.490743 
L 290.630958 124.426522 
L 291.110152 231.16031 
L 291.589347 123.494349 
L 292.068541 230.228138 
L 292.547735 122.09609 
L 293.026929 123.494349 
L 293.506124 123.028262 
L 293.985318 233.490743 
L 294.464512 123.028262 
L 294.943706 233.490743 
L 295.4229 123.494349 
L 295.902095 233.956829 
L 296.381289 122.562176 
L 296.860483 123.028262 
L 297.339677 232.092483 
L 297.818871 122.562176 
L 298.298066 231.16031 
L 298.77726 121.630003 
L 299.256454 120.69783 
L 299.735648 232.55857 
L 300.214842 120.69783 
L 300.694037 121.163917 
L 301.173231 232.092483 
L 301.652425 263.320273 
L 302.131619 263.786359 
L 302.610813 263.786359 
L 303.090008 263.320273 
L 304.048396 263.320273 
L 304.52759 263.786359 
L 305.006784 263.320273 
L 305.485979 263.786359 
L 306.444367 122.09609 
L 306.923561 123.494349 
L 307.402756 122.562176 
L 307.88195 233.490743 
L 308.361144 122.562176 
L 308.840338 233.956829 
L 309.319532 229.762051 
L 309.798727 124.426522 
L 310.277921 231.16031 
L 310.757115 263.786359 
L 311.236309 263.320273 
L 311.715503 263.320273 
L 312.194698 263.786359 
L 313.153086 263.786359 
L 314.111474 262.854187 
L 315.549057 262.854187 
L 316.028251 263.320273 
L 316.98664 263.320273 
L 317.465834 262.854187 
L 317.945028 263.786359 
L 318.424222 262.854187 
L 318.903416 263.320273 
L 319.382611 262.854187 
L 319.861805 263.320273 
L 320.820193 263.320273 
L 321.299387 262.854187 
L 322.73697 262.854187 
L 323.216164 263.320273 
L 323.695359 263.320273 
L 324.174553 262.854187 
L 324.653747 263.320273 
L 325.132941 262.854187 
L 325.612135 263.320273 
L 326.09133 263.320273 
L 326.570524 262.854187 
L 327.049718 262.854187 
L 327.528912 263.320273 
L 328.487301 263.320273 
L 328.966495 262.854187 
L 329.445689 262.854187 
L 329.924883 263.320273 
L 330.404077 262.854187 
L 331.362466 262.854187 
L 331.84166 263.786359 
L 334.237631 263.786359 
L 334.716825 263.320273 
L 335.196019 263.786359 
L 337.112796 263.786359 
L 338.071185 122.562176 
L 338.550379 232.55857 
L 339.029573 230.228138 
L 339.508767 121.630003 
L 339.987962 233.024656 
L 340.467156 121.163917 
L 340.94635 121.630003 
L 341.425544 233.956829 
L 341.904738 121.630003 
L 342.383933 232.55857 
L 342.863127 120.69783 
L 343.342321 120.69783 
L 343.821515 232.55857 
L 344.300709 121.163917 
L 344.779904 122.09609 
L 345.259098 263.786359 
L 346.69668 263.786359 
L 347.175875 263.320273 
L 347.655069 263.320273 
L 348.134263 263.786359 
L 348.613457 263.786359 
L 349.092651 263.320273 
L 349.571846 263.786359 
L 352.447011 263.786359 
L 352.926205 263.320273 
L 353.405399 263.786359 
L 354.842982 263.786359 
L 355.322176 263.320273 
L 355.80137 263.786359 
L 356.280565 263.786359 
L 356.759759 263.320273 
L 357.238953 263.786359 
L 357.718147 263.320273 
L 358.197341 263.786359 
L 359.15573 262.854187 
L 359.634924 263.320273 
L 360.114118 262.854187 
L 360.593312 263.320273 
L 361.072507 263.320273 
L 361.551701 262.854187 
L 362.030895 262.854187 
L 362.510089 263.320273 
L 364.90606 263.320273 
L 365.385254 262.854187 
L 366.343643 262.854187 
L 366.822837 263.320273 
L 367.302031 262.854187 
L 368.26042 263.786359 
L 369.218808 262.854187 
L 369.698002 262.854187 
L 370.177197 263.786359 
L 370.656391 263.786359 
L 371.135585 262.854187 
L 371.614779 263.786359 
L 372.093973 263.786359 
L 373.052362 262.854187 
L 374.489944 262.854187 
L 374.969139 263.786359 
L 375.448333 263.786359 
L 375.927527 223.236841 
L 376.885915 194.80557 
L 377.36511 184.551669 
L 377.844304 182.687323 
L 378.323498 262.854187 
L 378.802692 263.320273 
L 379.281886 262.854187 
L 379.761081 263.786359 
L 384.073829 263.786359 
L 385.032217 119.765658 
L 385.511411 233.024656 
L 385.990605 120.231744 
L 386.4698 231.626397 
L 386.948994 120.231744 
L 387.428188 118.833485 
L 387.907382 233.490743 
L 388.386576 120.231744 
L 388.865771 233.024656 
L 389.344965 120.231744 
L 389.824159 120.231744 
L 390.303353 230.694224 
L 390.782547 118.367398 
L 391.261742 233.024656 
L 391.740936 118.833485 
L 392.22013 118.367398 
L 392.699324 233.024656 
L 393.178518 120.69783 
L 393.657713 263.320273 
L 394.136907 263.786359 
L 396.532878 263.786359 
L 397.012072 263.320273 
L 397.491266 263.786359 
L 398.449655 122.562176 
L 398.928849 123.028262 
L 399.408043 233.490743 
L 399.887237 123.494349 
L 400.366432 234.422915 
L 400.845626 233.956829 
L 401.32482 182.687323 
L 401.804014 186.416015 
L 402.283208 182.687323 
L 402.762403 262.854187 
L 403.241597 263.320273 
L 403.720791 262.854187 
L 404.199985 263.320273 
L 404.679179 262.854187 
L 405.158374 263.320273 
L 405.637568 263.320273 
L 406.116762 262.854187 
L 406.595956 263.320273 
L 407.07515 262.854187 
L 408.512733 262.854187 
L 408.991927 263.320273 
L 409.471121 263.320273 
L 409.950316 262.854187 
L 411.387898 262.854187 
L 411.867092 263.320273 
L 412.346287 262.854187 
L 412.825481 262.854187 
L 413.304675 263.320273 
L 413.783869 262.854187 
L 415.221452 262.854187 
L 415.700646 263.786359 
L 416.17984 262.854187 
L 416.659035 262.854187 
L 417.617423 263.786359 
L 418.096617 263.320273 
L 418.575811 263.786359 
L 419.055006 262.854187 
L 419.5342 263.320273 
L 420.013394 263.320273 
L 420.492588 262.854187 
L 420.971782 263.786359 
L 421.450977 263.786359 
L 421.930171 201.796866 
L 422.409365 192.941225 
L 422.888559 192.009052 
L 423.367753 182.687323 
L 423.846948 185.483842 
L 424.326142 186.416015 
L 424.805336 181.755151 
L 425.28453 184.551669 
L 425.763724 185.949928 
L 426.242919 263.786359 
L 427.680501 263.786359 
L 428.63889 123.494349 
L 429.118084 233.956829 
L 429.597278 233.490743 
L 430.076472 121.163917 
L 430.555667 121.163917 
L 431.034861 233.024656 
L 431.514055 121.163917 
L 431.993249 122.09609 
L 432.472443 233.490743 
L 432.951638 120.69783 
L 433.430832 233.490743 
L 433.910026 121.163917 
L 434.38922 121.163917 
L 434.868414 232.092483 
L 435.347609 118.833485 
L 435.826803 119.765658 
L 436.305997 120.231744 
L 436.785191 233.490743 
L 437.264385 120.231744 
L 437.74358 119.299571 
L 438.222774 233.024656 
L 438.701968 118.367398 
L 439.181162 119.299571 
L 439.660356 263.786359 
L 443.49391 263.786359 
L 444.452298 124.426522 
L 444.931493 123.494349 
L 445.410687 233.956829 
L 445.889881 229.762051 
L 446.369075 124.892608 
L 446.84827 229.762051 
L 447.327464 234.422915 
L 447.806658 186.882101 
L 448.285852 184.085583 
L 448.765046 263.786359 
L 449.723435 262.854187 
L 450.681823 262.854187 
L 451.161017 263.320273 
L 451.640212 263.320273 
L 452.119406 262.854187 
L 452.5986 262.854187 
L 452.5986 262.854187 
" style="fill:none;stroke:#000000;stroke-width:0.5;"/>
   </g>
   <g id="line2d_23">
    <path clip-path="url(#p2b2ccdb49e)" d="M 39.054 254.696639 
L 53.429826 254.696639 
L 53.90902 201.229902 
L 54.388215 205.286085 
L 54.867409 204.272935 
L 55.346603 204.824431 
L 55.825797 204.086133 
L 56.304991 209.844504 
L 56.784186 208.644552 
L 57.26338 216.54253 
L 57.742574 210.415395 
L 58.221768 216.725262 
L 58.700962 221.237236 
L 59.180157 222.029603 
L 59.659351 227.643044 
L 60.138545 241.292444 
L 60.617739 147.092122 
L 61.096933 221.986477 
L 61.576128 228.299678 
L 62.055322 149.524683 
L 62.534516 218.049761 
L 63.01371 155.683589 
L 63.492905 151.642235 
L 63.972099 224.268367 
L 64.451293 152.121581 
L 64.930487 199.387477 
L 65.409681 230.520056 
L 65.888876 146.297769 
L 66.36807 153.094923 
L 66.847264 217.676864 
L 67.326458 138.356404 
L 67.805652 133.777817 
L 68.284847 136.372903 
L 68.764041 216.977105 
L 69.243235 144.027734 
L 69.722429 133.777817 
L 70.201623 216.010183 
L 70.680818 147.801925 
L 71.160012 142.291309 
L 71.639206 150.822633 
L 72.1184 176.720102 
L 72.597594 183.393248 
L 73.076789 200.987596 
L 74.035177 213.492785 
L 74.993565 225.150453 
L 75.47276 225.150453 
L 75.951954 252.552521 
L 76.431148 147.437417 
L 76.910342 139.081015 
L 77.389537 212.464794 
L 77.868731 217.870773 
L 78.347925 147.944364 
L 78.827119 229.09222 
L 79.306313 205.997411 
L 79.785508 197.95141 
L 80.264702 195.842088 
L 80.743896 243.898022 
L 81.22309 256.802725 
L 81.702284 263.704636 
L 82.181479 263.608648 
L 82.660673 261.028869 
L 83.139867 259.74395 
L 84.098255 259.65766 
L 84.57745 258.456088 
L 85.056644 258.335796 
L 85.535838 258.334815 
L 86.015032 256.966307 
L 86.973421 256.976987 
L 87.452615 255.573497 
L 87.931809 256.79741 
L 88.411003 255.572515 
L 88.890197 255.440563 
L 89.369392 255.474565 
L 89.848586 254.696639 
L 99.43247 254.696639 
L 99.911664 172.118007 
L 100.390858 179.033469 
L 100.870053 170.950482 
L 101.349247 181.636036 
L 102.307635 185.984673 
L 102.786829 194.207532 
L 103.266024 190.268241 
L 103.745218 202.267053 
L 104.224412 201.528756 
L 104.703606 205.075817 
L 105.1828 199.798496 
L 105.661995 205.946818 
L 106.141189 208.894147 
L 106.620383 207.350689 
L 107.099577 212.229635 
L 108.057966 238.47332 
L 108.53716 247.58907 
L 109.016354 231.256521 
L 109.495548 135.911989 
L 109.974743 210.970681 
L 110.453937 223.107694 
L 110.933131 133.699842 
L 111.412325 207.733724 
L 111.891519 228.299678 
L 112.370714 144.65775 
L 112.849908 220.844078 
L 113.329102 144.879976 
L 113.808296 206.221337 
L 114.28749 222.407935 
L 114.766685 141.001148 
L 115.245879 213.847693 
L 115.725073 151.259296 
L 116.204267 139.591586 
L 116.683461 221.603538 
L 117.162656 140.070931 
L 117.64185 150.660107 
L 118.600238 187.013145 
L 119.079432 195.094041 
L 119.558627 207.076759 
L 120.037821 210.955588 
L 120.517015 212.083224 
L 120.996209 214.389964 
L 121.475403 223.578365 
L 121.954598 210.939568 
L 122.433792 203.541857 
L 122.912986 204.529961 
L 123.39218 197.50877 
L 124.350569 186.60875 
L 124.829763 185.966879 
L 125.308957 181.523768 
L 125.788151 182.998571 
L 126.267346 179.751133 
L 126.74654 219.953767 
L 127.225734 227.386373 
L 127.704928 247.915621 
L 128.184122 258.777122 
L 128.663317 258.205321 
L 129.621705 255.528572 
L 130.100899 255.563555 
L 130.580093 254.696639 
L 145.435114 254.696639 
L 145.914308 181.056184 
L 146.872696 171.802087 
L 147.351891 171.178889 
L 147.831085 169.01044 
L 148.310279 178.036667 
L 148.789473 177.923359 
L 149.268667 184.971524 
L 149.747862 188.495606 
L 150.227056 187.480664 
L 150.70625 188.03216 
L 151.185444 191.141033 
L 151.664638 191.57743 
L 152.143833 187.638139 
L 152.623027 194.938175 
L 153.102221 193.348272 
L 153.581415 202.122627 
L 154.06061 206.981155 
L 154.539804 213.10422 
L 155.018998 234.9692 
L 155.498192 231.871775 
L 155.977386 241.804872 
L 156.456581 244.34207 
L 156.935775 157.700173 
L 157.414969 207.176404 
L 157.894163 224.830452 
L 158.373357 217.913898 
L 158.852552 198.064278 
L 159.331746 183.169654 
L 159.81094 214.522646 
L 160.290134 223.585228 
L 160.769328 142.820312 
L 161.248523 211.028569 
L 161.727717 219.391391 
L 162.206911 137.484076 
L 162.686105 211.413321 
L 163.165299 220.741253 
L 163.644494 223.815241 
L 164.602882 235.680371 
L 165.082076 244.366433 
L 165.56127 243.761267 
L 166.040465 242.573931 
L 166.519659 240.52431 
L 166.998853 241.549121 
L 167.478047 241.129475 
L 167.957241 250.169505 
L 168.436436 248.819644 
L 168.91563 248.494593 
L 169.394824 206.838514 
L 169.874018 196.10102 
L 170.353213 190.709804 
L 170.832407 187.693261 
L 171.311601 179.809785 
L 171.790795 177.818052 
L 172.269989 175.260346 
L 172.749184 214.984009 
L 173.228378 219.887648 
L 174.186766 247.761326 
L 174.66596 256.573207 
L 175.145155 254.463886 
L 175.624349 256.74745 
L 176.103543 255.404226 
L 176.582737 255.415887 
L 177.061931 254.696639 
L 191.437758 254.696639 
L 191.916952 192.685747 
L 192.396146 199.599416 
L 192.87534 199.689258 
L 193.354534 193.952075 
L 193.833729 194.550016 
L 194.312923 198.972148 
L 194.792117 199.844941 
L 195.271311 203.805419 
L 195.750505 200.717734 
L 196.708894 203.939914 
L 197.188088 206.564154 
L 197.667282 206.241065 
L 198.146476 201.24218 
L 198.625671 213.77795 
L 199.104865 211.484921 
L 199.584059 144.91487 
L 200.063253 207.083622 
L 200.542448 221.986477 
L 201.021642 153.506337 
L 201.500836 193.775847 
L 201.98003 217.129587 
L 202.459224 144.342742 
L 202.938419 132.97342 
L 203.417613 220.751296 
L 203.896807 139.286621 
L 204.376001 131.728196 
L 205.33439 228.540178 
L 205.813584 139.833898 
L 206.292778 136.22042 
L 206.771972 215.60058 
L 207.251166 142.046044 
L 207.730361 207.886161 
L 208.209555 221.844038 
L 208.688749 143.608089 
L 209.167943 209.270917 
L 209.647137 203.179499 
L 210.126332 208.827835 
L 211.08472 228.856555 
L 211.563914 226.364294 
L 212.043108 234.025545 
L 212.522303 238.509538 
L 213.001497 246.008263 
L 213.480691 244.215762 
L 213.959885 243.825034 
L 214.439079 144.336323 
L 214.918274 138.251767 
L 215.397468 224.745901 
L 215.876662 148.279459 
L 216.835051 228.357566 
L 217.314245 159.132729 
L 217.793439 209.148006 
L 218.272633 233.319093 
L 218.751827 263.707692 
L 219.231022 265.074238 
L 219.710216 263.466128 
L 220.18941 261.028981 
L 221.147798 258.459882 
L 221.626993 258.315287 
L 222.106187 256.94678 
L 222.585381 256.921495 
L 223.064575 255.552987 
L 223.543769 255.552006 
L 224.022964 254.696639 
L 237.440401 254.696639 
L 237.919596 203.142894 
L 238.39879 210.146405 
L 238.877984 212.81709 
L 239.357178 207.792947 
L 239.836372 209.402246 
L 240.315567 214.09923 
L 240.794761 216.376915 
L 241.273955 207.8495 
L 241.753149 219.868925 
L 242.232343 221.860658 
L 242.711538 225.807417 
L 243.190732 165.217172 
L 243.669926 206.348968 
L 244.14912 220.169125 
L 244.628314 167.197005 
L 245.107509 206.801651 
L 245.586703 224.27841 
L 246.065897 148.962598 
L 246.545091 217.06803 
L 247.024286 146.538269 
L 247.50348 211.516101 
L 247.982674 196.555357 
L 248.461868 141.856856 
L 248.941062 209.614243 
L 249.420257 137.802551 
L 249.899451 186.852717 
L 250.378645 214.808039 
L 250.857839 137.382905 
L 251.337033 214.328693 
L 251.816228 135.975155 
L 252.295422 132.641792 
L 252.774616 211.836432 
L 253.25381 135.975155 
L 253.733004 133.121138 
L 254.212199 206.224803 
L 254.691393 133.763009 
L 255.170587 127.612334 
L 256.128975 190.681445 
L 257.566558 245.196239 
L 258.524946 263.210232 
L 259.004141 276.6007 
L 259.483335 278.580285 
L 259.962529 244.8617 
L 260.441723 146.558512 
L 260.920917 143.223337 
L 261.400112 226.923153 
L 261.879306 161.472507 
L 262.3585 151.154659 
L 262.837694 239.315474 
L 263.316889 160.47436 
L 263.796083 217.671541 
L 264.754471 265.170469 
L 265.233665 265.19281 
L 265.71286 264.904601 
L 266.192054 264.915281 
L 267.150442 259.730439 
L 267.629636 259.585844 
L 268.588025 256.956478 
L 269.067219 256.811884 
L 269.546413 256.810902 
L 270.025607 256.677969 
L 270.504802 255.453075 
L 270.983996 255.440432 
L 271.46319 254.696639 
L 283.443045 254.696639 
L 283.922239 207.84167 
L 284.401434 214.730082 
L 284.880628 211.503831 
L 285.359822 215.739162 
L 285.839016 212.834208 
L 286.31821 211.691623 
L 287.276599 223.011288 
L 287.755793 228.682617 
L 288.234987 237.848024 
L 288.714181 243.519353 
L 289.193376 147.791882 
L 289.67257 219.354685 
L 290.151764 225.667886 
L 290.630958 153.691856 
L 291.110152 223.78079 
L 291.589347 140.686139 
L 292.068541 209.108392 
L 292.547735 156.718443 
L 293.026929 145.272958 
L 293.506124 139.832086 
L 293.985318 231.835023 
L 294.464512 151.269339 
L 294.943706 227.085679 
L 295.4229 158.348419 
L 295.902095 222.404266 
L 296.381289 161.42285 
L 296.860483 148.857961 
L 297.339677 232.757008 
L 297.818871 150.047109 
L 298.298066 221.714549 
L 298.77726 140.5437 
L 299.256454 139.422483 
L 299.735648 194.306504 
L 300.214842 145.83851 
L 300.694037 135.640061 
L 301.173231 207.23957 
L 301.652425 210.95543 
L 302.131619 220.618457 
L 302.610813 235.115379 
L 303.090008 253.991657 
L 303.569202 262.515192 
L 304.048396 266.077201 
L 304.52759 272.773341 
L 305.485979 275.499727 
L 305.965173 240.532001 
L 306.444367 146.875332 
L 306.923561 145.97453 
L 307.402756 147.765219 
L 307.88195 223.72109 
L 308.361144 158.655195 
L 309.319532 235.053706 
L 309.798727 154.708436 
L 310.277921 223.608222 
L 310.757115 260.391239 
L 311.236309 262.920206 
L 311.715503 264.738404 
L 312.194698 262.301258 
L 313.153086 259.732159 
L 313.63228 259.610886 
L 314.111474 258.2657 
L 314.590669 258.156088 
L 315.069863 256.954516 
L 315.549057 256.79826 
L 316.028251 256.762296 
L 316.507445 255.383109 
L 316.98664 255.358806 
L 317.465834 254.696639 
L 333.279243 254.696639 
L 333.758437 221.155333 
L 334.237631 223.269682 
L 334.716825 222.854473 
L 335.196019 226.861397 
L 335.675214 237.113258 
L 336.154408 240.454853 
L 336.633602 257.28151 
L 337.112796 260.27299 
L 337.59199 233.044303 
L 338.071185 131.277325 
L 338.550379 179.251212 
L 339.029573 211.620784 
L 339.508767 129.610643 
L 339.987962 215.625431 
L 340.467156 148.170102 
L 340.94635 133.068014 
L 341.425544 218.597038 
L 341.904738 140.568551 
L 342.383933 198.790543 
L 342.863127 153.524611 
L 343.342321 137.074474 
L 343.821515 203.387405 
L 344.300709 138.843981 
L 344.779904 134.802627 
L 345.259098 206.825697 
L 345.738292 243.931663 
L 346.217486 265.149333 
L 346.69668 264.014157 
L 347.175875 261.655068 
L 347.655069 260.467362 
L 348.134263 260.544195 
L 348.613457 259.203915 
L 349.092651 259.288485 
L 349.571846 259.216799 
L 350.05104 259.384716 
L 350.530234 258.017189 
L 351.488622 258.003566 
L 351.967817 257.86867 
L 352.447011 256.618492 
L 352.926205 256.447632 
L 353.884594 256.370798 
L 354.363788 256.294946 
L 354.842982 255.031144 
L 355.322176 254.847642 
L 358.197341 254.696639 
L 375.448333 254.696639 
L 375.927527 182.578739 
L 376.406721 193.178035 
L 376.885915 194.719215 
L 377.36511 198.264484 
L 377.844304 210.399584 
L 378.323498 213.506665 
L 378.802692 215.505915 
L 379.281886 213.339259 
L 379.761081 209.194541 
L 380.240275 223.589187 
L 380.719469 230.798895 
L 381.198663 232.526439 
L 382.636246 258.871461 
L 383.11544 260.420771 
L 383.594634 260.67522 
L 384.073829 261.998307 
L 384.553023 176.717637 
L 385.032217 129.456349 
L 385.511411 204.515041 
L 385.990605 131.832833 
L 386.4698 197.238542 
L 386.948994 148.08555 
L 387.428188 132.540824 
L 387.907382 206.41218 
L 388.386576 138.434379 
L 388.865771 183.590954 
L 389.824159 136.767697 
L 390.303353 217.812727 
L 390.782547 143.720957 
L 391.261742 209.126666 
L 391.740936 156.308841 
L 392.22013 135.580361 
L 392.699324 219.059763 
L 393.178518 138.877018 
L 393.657713 161.646332 
L 394.616101 218.721318 
L 395.095295 234.36887 
L 395.574489 255.140475 
L 396.532878 274.724744 
L 397.012072 277.061296 
L 397.491266 277.10794 
L 397.97046 243.125275 
L 398.449655 147.992925 
L 398.928849 141.583319 
L 399.408043 228.682617 
L 399.887237 151.891124 
L 400.366432 219.124228 
L 400.845626 233.901264 
L 401.32482 202.86328 
L 401.804014 193.74753 
L 402.283208 194.447289 
L 402.762403 226.326668 
L 403.241597 229.600331 
L 403.720791 247.600613 
L 404.199985 254.619992 
L 404.679179 259.373872 
L 405.158374 258.018007 
L 405.637568 258.041329 
L 406.116762 256.721427 
L 407.07515 256.744749 
L 407.554345 255.400544 
L 408.033539 255.244288 
L 408.512733 254.696639 
L 421.450977 254.696639 
L 421.930171 175.918733 
L 422.409365 177.72021 
L 422.888559 182.534086 
L 423.367753 183.845067 
L 424.326142 195.564958 
L 424.805336 205.973867 
L 425.28453 212.881675 
L 425.763724 212.579773 
L 426.242919 203.824329 
L 426.722113 206.589513 
L 427.680501 231.24999 
L 428.159695 221.693412 
L 428.63889 132.779669 
L 429.118084 183.887687 
L 429.597278 189.44966 
L 430.076472 122.49667 
L 430.555667 116.345995 
L 431.034861 204.891561 
L 431.514055 124.231283 
L 431.993249 123.110066 
L 432.472443 210.690522 
L 432.951638 131.855827 
L 433.430832 202.047586 
L 433.910026 135.034896 
L 434.38922 129.711612 
L 434.868414 206.694105 
L 435.347609 123.599455 
L 435.826803 125.007205 
L 436.305997 123.760168 
L 436.785191 204.80701 
L 437.264385 129.910843 
L 437.74358 128.021936 
L 438.222774 201.022776 
L 438.701968 132.12299 
L 439.181162 135.417835 
L 440.139551 182.987157 
L 441.097939 235.267861 
L 441.577133 242.486472 
L 442.056327 252.522395 
L 442.535522 266.332509 
L 443.014716 273.668708 
L 443.49391 273.506183 
L 443.973104 241.392474 
L 444.452298 148.59809 
L 444.931493 139.371172 
L 445.410687 211.847729 
L 445.889881 231.049058 
L 446.369075 146.057269 
L 446.84827 222.19866 
L 447.327464 231.946237 
L 447.806658 204.810075 
L 448.285852 196.498722 
L 448.765046 228.900572 
L 449.244241 234.888721 
L 449.723435 249.592345 
L 450.202629 257.636535 
L 450.681823 260.231621 
L 451.161017 259.578734 
L 451.640212 258.234529 
L 452.119406 258.114238 
L 452.5986 256.901986 
L 452.5986 256.901986 
" style="fill:none;stroke:#ff0000;stroke-width:0.5;"/>
   </g>
   <g id="patch_3">
    <path d="M 39.054 286.692 
L 39.054 108.23428 
" style="fill:none;stroke:#f0f0f0;stroke-linecap:square;stroke-linejoin:miter;stroke-width:3;"/>
   </g>
   <g id="patch_4">
    <path d="M 452.5986 286.692 
L 452.5986 108.23428 
" style="fill:none;stroke:#f0f0f0;stroke-linecap:square;stroke-linejoin:miter;stroke-width:3;"/>
   </g>
   <g id="patch_5">
    <path d="M 39.054 286.692 
L 452.5986 286.692 
" style="fill:none;stroke:#f0f0f0;stroke-linecap:square;stroke-linejoin:miter;stroke-width:3;"/>
   </g>
   <g id="patch_6">
    <path d="M 39.054 108.23428 
L 452.5986 108.23428 
" style="fill:none;stroke:#f0f0f0;stroke-linecap:square;stroke-linejoin:miter;stroke-width:3;"/>
   </g>
   <g id="legend_1">
    <g id="patch_7">
     <path d="M 45.433963 93.636234 
L 446.218637 93.636234 
Q 448.551037 93.636234 448.551037 91.303834 
L 448.551037 75.352404 
Q 448.551037 73.020004 446.218637 73.020004 
L 45.433963 73.020004 
Q 43.101563 73.020004 43.101563 75.352404 
L 43.101563 91.303834 
Q 43.101563 93.636234 45.433963 93.636234 
z
" style="fill:#f0f0f0;opacity:0.5;stroke:#cccccc;stroke-linejoin:miter;stroke-width:0.5;"/>
    </g>
    <g id="line2d_24">
     <path d="M 47.766363 82.464402 
L 71.090363 82.464402 
" style="fill:none;stroke:#000000;stroke-width:0.5;"/>
    </g>
    <g id="line2d_25"/>
    <g id="text_16">
     <!-- Measurement -->
     <defs>
      <path d="M 9.8125 72.90625 
L 24.515625 72.90625 
L 43.109375 23.296875 
L 61.8125 72.90625 
L 76.515625 72.90625 
L 76.515625 0 
L 66.890625 0 
L 66.890625 64.015625 
L 48.09375 14.015625 
L 38.1875 14.015625 
L 19.390625 64.015625 
L 19.390625 0 
L 9.8125 0 
z
" id="DejaVuSans-4d"/>
      <path d="M 44.28125 53.078125 
L 44.28125 44.578125 
Q 40.484375 46.53125 36.375 47.5 
Q 32.28125 48.484375 27.875 48.484375 
Q 21.1875 48.484375 17.84375 46.4375 
Q 14.5 44.390625 14.5 40.28125 
Q 14.5 37.15625 16.890625 35.375 
Q 19.28125 33.59375 26.515625 31.984375 
L 29.59375 31.296875 
Q 39.15625 29.25 43.1875 25.515625 
Q 47.21875 21.78125 47.21875 15.09375 
Q 47.21875 7.46875 41.1875 3.015625 
Q 35.15625 -1.421875 24.609375 -1.421875 
Q 20.21875 -1.421875 15.453125 -0.5625 
Q 10.6875 0.296875 5.421875 2 
L 5.421875 11.28125 
Q 10.40625 8.6875 15.234375 7.390625 
Q 20.0625 6.109375 24.8125 6.109375 
Q 31.15625 6.109375 34.5625 8.28125 
Q 37.984375 10.453125 37.984375 14.40625 
Q 37.984375 18.0625 35.515625 20.015625 
Q 33.0625 21.96875 24.703125 23.78125 
L 21.578125 24.515625 
Q 13.234375 26.265625 9.515625 29.90625 
Q 5.8125 33.546875 5.8125 39.890625 
Q 5.8125 47.609375 11.28125 51.796875 
Q 16.75 56 26.8125 56 
Q 31.78125 56 36.171875 55.265625 
Q 40.578125 54.546875 44.28125 53.078125 
z
" id="DejaVuSans-73"/>
      <path d="M 54.890625 33.015625 
L 54.890625 0 
L 45.90625 0 
L 45.90625 32.71875 
Q 45.90625 40.484375 42.875 44.328125 
Q 39.84375 48.1875 33.796875 48.1875 
Q 26.515625 48.1875 22.3125 43.546875 
Q 18.109375 38.921875 18.109375 30.90625 
L 18.109375 0 
L 9.078125 0 
L 9.078125 54.6875 
L 18.109375 54.6875 
L 18.109375 46.1875 
Q 21.34375 51.125 25.703125 53.5625 
Q 30.078125 56 35.796875 56 
Q 45.21875 56 50.046875 50.171875 
Q 54.890625 44.34375 54.890625 33.015625 
z
" id="DejaVuSans-6e"/>
     </defs>
     <g transform="translate(80.419963 86.546102)scale(0.11662 -0.11662)">
      <use xlink:href="#DejaVuSans-4d"/>
      <use x="86.279297" xlink:href="#DejaVuSans-65"/>
      <use x="147.802734" xlink:href="#DejaVuSans-61"/>
      <use x="209.082031" xlink:href="#DejaVuSans-73"/>
      <use x="261.181641" xlink:href="#DejaVuSans-75"/>
      <use x="324.560547" xlink:href="#DejaVuSans-72"/>
      <use x="365.642578" xlink:href="#DejaVuSans-65"/>
      <use x="427.166016" xlink:href="#DejaVuSans-6d"/>
      <use x="524.578125" xlink:href="#DejaVuSans-65"/>
      <use x="586.101562" xlink:href="#DejaVuSans-6e"/>
      <use x="649.480469" xlink:href="#DejaVuSans-74"/>
     </g>
    </g>
    <g id="line2d_26">
     <path d="M 184.058699 82.464402 
L 207.382699 82.464402 
" style="fill:none;stroke:#ff0000;stroke-width:0.5;"/>
    </g>
    <g id="line2d_27"/>
    <g id="text_17">
     <!-- Prediction(MAE = 3.729; Score = 0.78) -->
     <defs>
      <path d="M 19.671875 64.796875 
L 19.671875 37.40625 
L 32.078125 37.40625 
Q 38.96875 37.40625 42.71875 40.96875 
Q 46.484375 44.53125 46.484375 51.125 
Q 46.484375 57.671875 42.71875 61.234375 
Q 38.96875 64.796875 32.078125 64.796875 
z
M 9.8125 72.90625 
L 32.078125 72.90625 
Q 44.34375 72.90625 50.609375 67.359375 
Q 56.890625 61.8125 56.890625 51.125 
Q 56.890625 40.328125 50.609375 34.8125 
Q 44.34375 29.296875 32.078125 29.296875 
L 19.671875 29.296875 
L 19.671875 0 
L 9.8125 0 
z
" id="DejaVuSans-50"/>
      <path d="M 45.40625 46.390625 
L 45.40625 75.984375 
L 54.390625 75.984375 
L 54.390625 0 
L 45.40625 0 
L 45.40625 8.203125 
Q 42.578125 3.328125 38.25 0.953125 
Q 33.9375 -1.421875 27.875 -1.421875 
Q 17.96875 -1.421875 11.734375 6.484375 
Q 5.515625 14.40625 5.515625 27.296875 
Q 5.515625 40.1875 11.734375 48.09375 
Q 17.96875 56 27.875 56 
Q 33.9375 56 38.25 53.625 
Q 42.578125 51.265625 45.40625 46.390625 
z
M 14.796875 27.296875 
Q 14.796875 17.390625 18.875 11.75 
Q 22.953125 6.109375 30.078125 6.109375 
Q 37.203125 6.109375 41.296875 11.75 
Q 45.40625 17.390625 45.40625 27.296875 
Q 45.40625 37.203125 41.296875 42.84375 
Q 37.203125 48.484375 30.078125 48.484375 
Q 22.953125 48.484375 18.875 42.84375 
Q 14.796875 37.203125 14.796875 27.296875 
z
" id="DejaVuSans-64"/>
      <path d="M 31 75.875 
Q 24.46875 64.65625 21.28125 53.65625 
Q 18.109375 42.671875 18.109375 31.390625 
Q 18.109375 20.125 21.3125 9.0625 
Q 24.515625 -2 31 -13.1875 
L 23.1875 -13.1875 
Q 15.875 -1.703125 12.234375 9.375 
Q 8.59375 20.453125 8.59375 31.390625 
Q 8.59375 42.28125 12.203125 53.3125 
Q 15.828125 64.359375 23.1875 75.875 
z
" id="DejaVuSans-28"/>
      <path d="M 9.8125 72.90625 
L 55.90625 72.90625 
L 55.90625 64.59375 
L 19.671875 64.59375 
L 19.671875 43.015625 
L 54.390625 43.015625 
L 54.390625 34.71875 
L 19.671875 34.71875 
L 19.671875 8.296875 
L 56.78125 8.296875 
L 56.78125 0 
L 9.8125 0 
z
" id="DejaVuSans-45"/>
      <path d="M 10.59375 45.40625 
L 73.1875 45.40625 
L 73.1875 37.203125 
L 10.59375 37.203125 
z
M 10.59375 25.484375 
L 73.1875 25.484375 
L 73.1875 17.1875 
L 10.59375 17.1875 
z
" id="DejaVuSans-3d"/>
      <path d="M 10.6875 12.40625 
L 21 12.40625 
L 21 0 
L 10.6875 0 
z
" id="DejaVuSans-2e"/>
      <path d="M 8.203125 72.90625 
L 55.078125 72.90625 
L 55.078125 68.703125 
L 28.609375 0 
L 18.3125 0 
L 43.21875 64.59375 
L 8.203125 64.59375 
z
" id="DejaVuSans-37"/>
      <path d="M 11.71875 51.703125 
L 22.015625 51.703125 
L 22.015625 39.3125 
L 11.71875 39.3125 
z
M 11.71875 12.40625 
L 22.015625 12.40625 
L 22.015625 4 
L 14.015625 -11.625 
L 7.71875 -11.625 
L 11.71875 4 
z
" id="DejaVuSans-3b"/>
      <path d="M 53.515625 70.515625 
L 53.515625 60.890625 
Q 47.90625 63.578125 42.921875 64.890625 
Q 37.9375 66.21875 33.296875 66.21875 
Q 25.25 66.21875 20.875 63.09375 
Q 16.5 59.96875 16.5 54.203125 
Q 16.5 49.359375 19.40625 46.890625 
Q 22.3125 44.4375 30.421875 42.921875 
L 36.375 41.703125 
Q 47.40625 39.59375 52.65625 34.296875 
Q 57.90625 29 57.90625 20.125 
Q 57.90625 9.515625 50.796875 4.046875 
Q 43.703125 -1.421875 29.984375 -1.421875 
Q 24.8125 -1.421875 18.96875 -0.25 
Q 13.140625 0.921875 6.890625 3.21875 
L 6.890625 13.375 
Q 12.890625 10.015625 18.65625 8.296875 
Q 24.421875 6.59375 29.984375 6.59375 
Q 38.421875 6.59375 43.015625 9.90625 
Q 47.609375 13.234375 47.609375 19.390625 
Q 47.609375 24.75 44.3125 27.78125 
Q 41.015625 30.8125 33.5 32.328125 
L 27.484375 33.5 
Q 16.453125 35.6875 11.515625 40.375 
Q 6.59375 45.0625 6.59375 53.421875 
Q 6.59375 63.09375 13.40625 68.65625 
Q 20.21875 74.21875 32.171875 74.21875 
Q 37.3125 74.21875 42.625 73.28125 
Q 47.953125 72.359375 53.515625 70.515625 
z
" id="DejaVuSans-53"/>
      <path d="M 8.015625 75.875 
L 15.828125 75.875 
Q 23.140625 64.359375 26.78125 53.3125 
Q 30.421875 42.28125 30.421875 31.390625 
Q 30.421875 20.453125 26.78125 9.375 
Q 23.140625 -1.703125 15.828125 -13.1875 
L 8.015625 -13.1875 
Q 14.5 -2 17.703125 9.0625 
Q 20.90625 20.125 20.90625 31.390625 
Q 20.90625 42.671875 17.703125 53.65625 
Q 14.5 64.65625 8.015625 75.875 
z
" id="DejaVuSans-29"/>
     </defs>
     <g transform="translate(216.712299 86.546102)scale(0.11662 -0.11662)">
      <use xlink:href="#DejaVuSans-50"/>
      <use x="60.287109" xlink:href="#DejaVuSans-72"/>
      <use x="101.369141" xlink:href="#DejaVuSans-65"/>
      <use x="162.892578" xlink:href="#DejaVuSans-64"/>
      <use x="226.369141" xlink:href="#DejaVuSans-69"/>
      <use x="254.152344" xlink:href="#DejaVuSans-63"/>
      <use x="309.132812" xlink:href="#DejaVuSans-74"/>
      <use x="348.341797" xlink:href="#DejaVuSans-69"/>
      <use x="376.125" xlink:href="#DejaVuSans-6f"/>
      <use x="437.306641" xlink:href="#DejaVuSans-6e"/>
      <use x="500.685547" xlink:href="#DejaVuSans-28"/>
      <use x="539.699219" xlink:href="#DejaVuSans-4d"/>
      <use x="625.978516" xlink:href="#DejaVuSans-41"/>
      <use x="694.386719" xlink:href="#DejaVuSans-45"/>
      <use x="757.570312" xlink:href="#DejaVuSans-20"/>
      <use x="789.357422" xlink:href="#DejaVuSans-3d"/>
      <use x="873.146484" xlink:href="#DejaVuSans-20"/>
      <use x="904.933594" xlink:href="#DejaVuSans-33"/>
      <use x="968.556641" xlink:href="#DejaVuSans-2e"/>
      <use x="1000.34375" xlink:href="#DejaVuSans-37"/>
      <use x="1063.966797" xlink:href="#DejaVuSans-32"/>
      <use x="1127.589844" xlink:href="#DejaVuSans-39"/>
      <use x="1191.212891" xlink:href="#DejaVuSans-3b"/>
      <use x="1224.904297" xlink:href="#DejaVuSans-20"/>
      <use x="1256.691406" xlink:href="#DejaVuSans-53"/>
      <use x="1320.167969" xlink:href="#DejaVuSans-63"/>
      <use x="1375.148438" xlink:href="#DejaVuSans-6f"/>
      <use x="1436.330078" xlink:href="#DejaVuSans-72"/>
      <use x="1477.412109" xlink:href="#DejaVuSans-65"/>
      <use x="1538.935547" xlink:href="#DejaVuSans-20"/>
      <use x="1570.722656" xlink:href="#DejaVuSans-3d"/>
      <use x="1654.511719" xlink:href="#DejaVuSans-20"/>
      <use x="1686.298828" xlink:href="#DejaVuSans-30"/>
      <use x="1749.921875" xlink:href="#DejaVuSans-2e"/>
      <use x="1781.708984" xlink:href="#DejaVuSans-37"/>
      <use x="1845.332031" xlink:href="#DejaVuSans-38"/>
      <use x="1908.955078" xlink:href="#DejaVuSans-29"/>
     </g>
    </g>
   </g>
  </g>
 </g>
 <defs>
  <clipPath id="p2b2ccdb49e">
   <rect height="178.45772" width="413.5446" x="39.054" y="108.23428"/>
  </clipPath>
 </defs>
</svg>
