<?xml version="1.0" encoding="utf-8" standalone="no"?>
<!DOCTYPE svg PUBLIC "-//W3C//DTD SVG 1.1//EN"
  "http://www.w3.org/Graphics/SVG/1.1/DTD/svg11.dtd">
<!-- Created with matplotlib (http://matplotlib.org/) -->
<svg height="345.6pt" version="1.1" viewBox="0 0 460.8 345.6" width="460.8pt" xmlns="http://www.w3.org/2000/svg" xmlns:xlink="http://www.w3.org/1999/xlink">
 <defs>
  <style type="text/css">
*{stroke-linecap:butt;stroke-linejoin:round;}
  </style>
 </defs>
 <g id="figure_1">
  <g id="patch_1">
   <path d="M 0 345.6 
L 460.8 345.6 
L 460.8 0 
L 0 0 
z
" style="fill:#f0f0f0;"/>
  </g>
  <g id="axes_1">
   <g id="patch_2">
    <path d="M 41.394 286.692 
L 452.6886 286.692 
L 452.6886 108.23428 
L 41.394 108.23428 
z
" style="fill:#f0f0f0;"/>
   </g>
   <g id="matplotlib.axis_1">
    <g id="xtick_1">
     <g id="line2d_1">
      <path clip-path="url(#pe2490403c9)" d="M 41.394 286.692 
L 41.394 108.23428 
" style="fill:none;stroke:#cbcbcb;"/>
     </g>
     <g id="line2d_2"/>
     <g id="text_1">
      <!-- 08 -->
      <defs>
       <path d="M 31.78125 66.40625 
Q 24.171875 66.40625 20.328125 58.90625 
Q 16.5 51.421875 16.5 36.375 
Q 16.5 21.390625 20.328125 13.890625 
Q 24.171875 6.390625 31.78125 6.390625 
Q 39.453125 6.390625 43.28125 13.890625 
Q 47.125 21.390625 47.125 36.375 
Q 47.125 51.421875 43.28125 58.90625 
Q 39.453125 66.40625 31.78125 66.40625 
z
M 31.78125 74.21875 
Q 44.046875 74.21875 50.515625 64.515625 
Q 56.984375 54.828125 56.984375 36.375 
Q 56.984375 17.96875 50.515625 8.265625 
Q 44.046875 -1.421875 31.78125 -1.421875 
Q 19.53125 -1.421875 13.0625 8.265625 
Q 6.59375 17.96875 6.59375 36.375 
Q 6.59375 54.828125 13.0625 64.515625 
Q 19.53125 74.21875 31.78125 74.21875 
z
" id="DejaVuSans-30"/>
       <path d="M 31.78125 34.625 
Q 24.75 34.625 20.71875 30.859375 
Q 16.703125 27.09375 16.703125 20.515625 
Q 16.703125 13.921875 20.71875 10.15625 
Q 24.75 6.390625 31.78125 6.390625 
Q 38.8125 6.390625 42.859375 10.171875 
Q 46.921875 13.96875 46.921875 20.515625 
Q 46.921875 27.09375 42.890625 30.859375 
Q 38.875 34.625 31.78125 34.625 
z
M 21.921875 38.8125 
Q 15.578125 40.375 12.03125 44.71875 
Q 8.5 49.078125 8.5 55.328125 
Q 8.5 64.0625 14.71875 69.140625 
Q 20.953125 74.21875 31.78125 74.21875 
Q 42.671875 74.21875 48.875 69.140625 
Q 55.078125 64.0625 55.078125 55.328125 
Q 55.078125 49.078125 51.53125 44.71875 
Q 48 40.375 41.703125 38.8125 
Q 48.828125 37.15625 52.796875 32.3125 
Q 56.78125 27.484375 56.78125 20.515625 
Q 56.78125 9.90625 50.3125 4.234375 
Q 43.84375 -1.421875 31.78125 -1.421875 
Q 19.734375 -1.421875 13.25 4.234375 
Q 6.78125 9.90625 6.78125 20.515625 
Q 6.78125 27.484375 10.78125 32.3125 
Q 14.796875 37.15625 21.921875 38.8125 
z
M 18.3125 54.390625 
Q 18.3125 48.734375 21.84375 45.5625 
Q 25.390625 42.390625 31.78125 42.390625 
Q 38.140625 42.390625 41.71875 45.5625 
Q 45.3125 48.734375 45.3125 54.390625 
Q 45.3125 60.0625 41.71875 63.234375 
Q 38.140625 66.40625 31.78125 66.40625 
Q 25.390625 66.40625 21.84375 63.234375 
Q 18.3125 60.0625 18.3125 54.390625 
z
" id="DejaVuSans-38"/>
      </defs>
      <g transform="translate(33.974052 299.053298)scale(0.11662 -0.11662)">
       <use xlink:href="#DejaVuSans-30"/>
       <use x="63.623047" xlink:href="#DejaVuSans-38"/>
      </g>
      <!-- Aug -->
      <defs>
       <path d="M 34.1875 63.1875 
L 20.796875 26.90625 
L 47.609375 26.90625 
z
M 28.609375 72.90625 
L 39.796875 72.90625 
L 67.578125 0 
L 57.328125 0 
L 50.6875 18.703125 
L 17.828125 18.703125 
L 11.1875 0 
L 0.78125 0 
z
" id="DejaVuSans-41"/>
       <path d="M 8.5 21.578125 
L 8.5 54.6875 
L 17.484375 54.6875 
L 17.484375 21.921875 
Q 17.484375 14.15625 20.5 10.265625 
Q 23.53125 6.390625 29.59375 6.390625 
Q 36.859375 6.390625 41.078125 11.03125 
Q 45.3125 15.671875 45.3125 23.6875 
L 45.3125 54.6875 
L 54.296875 54.6875 
L 54.296875 0 
L 45.3125 0 
L 45.3125 8.40625 
Q 42.046875 3.421875 37.71875 1 
Q 33.40625 -1.421875 27.6875 -1.421875 
Q 18.265625 -1.421875 13.375 4.4375 
Q 8.5 10.296875 8.5 21.578125 
z
M 31.109375 56 
z
" id="DejaVuSans-75"/>
       <path d="M 45.40625 27.984375 
Q 45.40625 37.75 41.375 43.109375 
Q 37.359375 48.484375 30.078125 48.484375 
Q 22.859375 48.484375 18.828125 43.109375 
Q 14.796875 37.75 14.796875 27.984375 
Q 14.796875 18.265625 18.828125 12.890625 
Q 22.859375 7.515625 30.078125 7.515625 
Q 37.359375 7.515625 41.375 12.890625 
Q 45.40625 18.265625 45.40625 27.984375 
z
M 54.390625 6.78125 
Q 54.390625 -7.171875 48.1875 -13.984375 
Q 42 -20.796875 29.203125 -20.796875 
Q 24.46875 -20.796875 20.265625 -20.09375 
Q 16.0625 -19.390625 12.109375 -17.921875 
L 12.109375 -9.1875 
Q 16.0625 -11.328125 19.921875 -12.34375 
Q 23.78125 -13.375 27.78125 -13.375 
Q 36.625 -13.375 41.015625 -8.765625 
Q 45.40625 -4.15625 45.40625 5.171875 
L 45.40625 9.625 
Q 42.625 4.78125 38.28125 2.390625 
Q 33.9375 0 27.875 0 
Q 17.828125 0 11.671875 7.65625 
Q 5.515625 15.328125 5.515625 27.984375 
Q 5.515625 40.671875 11.671875 48.328125 
Q 17.828125 56 27.875 56 
Q 33.9375 56 38.28125 53.609375 
Q 42.625 51.21875 45.40625 46.390625 
L 45.40625 54.6875 
L 54.390625 54.6875 
z
" id="DejaVuSans-67"/>
      </defs>
      <g transform="translate(30.008061 312.112187)scale(0.11662 -0.11662)">
       <use xlink:href="#DejaVuSans-41"/>
       <use x="68.408203" xlink:href="#DejaVuSans-75"/>
       <use x="131.787109" xlink:href="#DejaVuSans-67"/>
      </g>
      <!-- 2016 -->
      <defs>
       <path d="M 19.1875 8.296875 
L 53.609375 8.296875 
L 53.609375 0 
L 7.328125 0 
L 7.328125 8.296875 
Q 12.9375 14.109375 22.625 23.890625 
Q 32.328125 33.6875 34.8125 36.53125 
Q 39.546875 41.84375 41.421875 45.53125 
Q 43.3125 49.21875 43.3125 52.78125 
Q 43.3125 58.59375 39.234375 62.25 
Q 35.15625 65.921875 28.609375 65.921875 
Q 23.96875 65.921875 18.8125 64.3125 
Q 13.671875 62.703125 7.8125 59.421875 
L 7.8125 69.390625 
Q 13.765625 71.78125 18.9375 73 
Q 24.125 74.21875 28.421875 74.21875 
Q 39.75 74.21875 46.484375 68.546875 
Q 53.21875 62.890625 53.21875 53.421875 
Q 53.21875 48.921875 51.53125 44.890625 
Q 49.859375 40.875 45.40625 35.40625 
Q 44.1875 33.984375 37.640625 27.21875 
Q 31.109375 20.453125 19.1875 8.296875 
z
" id="DejaVuSans-32"/>
       <path d="M 12.40625 8.296875 
L 28.515625 8.296875 
L 28.515625 63.921875 
L 10.984375 60.40625 
L 10.984375 69.390625 
L 28.421875 72.90625 
L 38.28125 72.90625 
L 38.28125 8.296875 
L 54.390625 8.296875 
L 54.390625 0 
L 12.40625 0 
z
" id="DejaVuSans-31"/>
       <path d="M 33.015625 40.375 
Q 26.375 40.375 22.484375 35.828125 
Q 18.609375 31.296875 18.609375 23.390625 
Q 18.609375 15.53125 22.484375 10.953125 
Q 26.375 6.390625 33.015625 6.390625 
Q 39.65625 6.390625 43.53125 10.953125 
Q 47.40625 15.53125 47.40625 23.390625 
Q 47.40625 31.296875 43.53125 35.828125 
Q 39.65625 40.375 33.015625 40.375 
z
M 52.59375 71.296875 
L 52.59375 62.3125 
Q 48.875 64.0625 45.09375 64.984375 
Q 41.3125 65.921875 37.59375 65.921875 
Q 27.828125 65.921875 22.671875 59.328125 
Q 17.53125 52.734375 16.796875 39.40625 
Q 19.671875 43.65625 24.015625 45.921875 
Q 28.375 48.1875 33.59375 48.1875 
Q 44.578125 48.1875 50.953125 41.515625 
Q 57.328125 34.859375 57.328125 23.390625 
Q 57.328125 12.15625 50.6875 5.359375 
Q 44.046875 -1.421875 33.015625 -1.421875 
Q 20.359375 -1.421875 13.671875 8.265625 
Q 6.984375 17.96875 6.984375 36.375 
Q 6.984375 53.65625 15.1875 63.9375 
Q 23.390625 74.21875 37.203125 74.21875 
Q 40.921875 74.21875 44.703125 73.484375 
Q 48.484375 72.75 52.59375 71.296875 
z
" id="DejaVuSans-36"/>
      </defs>
      <g transform="translate(26.554105 325.171076)scale(0.11662 -0.11662)">
       <use xlink:href="#DejaVuSans-32"/>
       <use x="63.623047" xlink:href="#DejaVuSans-30"/>
       <use x="127.246094" xlink:href="#DejaVuSans-31"/>
       <use x="190.869141" xlink:href="#DejaVuSans-36"/>
      </g>
     </g>
    </g>
    <g id="xtick_2">
     <g id="line2d_3">
      <path clip-path="url(#pe2490403c9)" d="M 452.6886 286.692 
L 452.6886 108.23428 
" style="fill:none;stroke:#cbcbcb;"/>
     </g>
     <g id="line2d_4"/>
    </g>
    <g id="xtick_3">
     <g id="line2d_5"/>
    </g>
    <g id="xtick_4">
     <g id="line2d_6"/>
     <g id="text_2">
      <!-- 09 -->
      <defs>
       <path d="M 10.984375 1.515625 
L 10.984375 10.5 
Q 14.703125 8.734375 18.5 7.8125 
Q 22.3125 6.890625 25.984375 6.890625 
Q 35.75 6.890625 40.890625 13.453125 
Q 46.046875 20.015625 46.78125 33.40625 
Q 43.953125 29.203125 39.59375 26.953125 
Q 35.25 24.703125 29.984375 24.703125 
Q 19.046875 24.703125 12.671875 31.3125 
Q 6.296875 37.9375 6.296875 49.421875 
Q 6.296875 60.640625 12.9375 67.421875 
Q 19.578125 74.21875 30.609375 74.21875 
Q 43.265625 74.21875 49.921875 64.515625 
Q 56.59375 54.828125 56.59375 36.375 
Q 56.59375 19.140625 48.40625 8.859375 
Q 40.234375 -1.421875 26.421875 -1.421875 
Q 22.703125 -1.421875 18.890625 -0.6875 
Q 15.09375 0.046875 10.984375 1.515625 
z
M 30.609375 32.421875 
Q 37.25 32.421875 41.125 36.953125 
Q 45.015625 41.5 45.015625 49.421875 
Q 45.015625 57.28125 41.125 61.84375 
Q 37.25 66.40625 30.609375 66.40625 
Q 23.96875 66.40625 20.09375 61.84375 
Q 16.21875 57.28125 16.21875 49.421875 
Q 16.21875 41.5 20.09375 36.953125 
Q 23.96875 32.421875 30.609375 32.421875 
z
" id="DejaVuSans-39"/>
      </defs>
      <g transform="translate(79.726407 298.953298)scale(0.11662 -0.11662)">
       <use xlink:href="#DejaVuSans-30"/>
       <use x="63.623047" xlink:href="#DejaVuSans-39"/>
      </g>
     </g>
    </g>
    <g id="xtick_5">
     <g id="line2d_7"/>
     <g id="text_3">
      <!-- 10 -->
      <g transform="translate(125.478761 298.953298)scale(0.11662 -0.11662)">
       <use xlink:href="#DejaVuSans-31"/>
       <use x="63.623047" xlink:href="#DejaVuSans-30"/>
      </g>
     </g>
    </g>
    <g id="xtick_6">
     <g id="line2d_8"/>
     <g id="text_4">
      <!-- 11 -->
      <g transform="translate(171.231115 298.953298)scale(0.11662 -0.11662)">
       <use xlink:href="#DejaVuSans-31"/>
       <use x="63.623047" xlink:href="#DejaVuSans-31"/>
      </g>
     </g>
    </g>
    <g id="xtick_7">
     <g id="line2d_9"/>
     <g id="text_5">
      <!-- 12 -->
      <g transform="translate(216.983469 298.953298)scale(0.11662 -0.11662)">
       <use xlink:href="#DejaVuSans-31"/>
       <use x="63.623047" xlink:href="#DejaVuSans-32"/>
      </g>
     </g>
    </g>
    <g id="xtick_8">
     <g id="line2d_10"/>
     <g id="text_6">
      <!-- 13 -->
      <defs>
       <path d="M 40.578125 39.3125 
Q 47.65625 37.796875 51.625 33 
Q 55.609375 28.21875 55.609375 21.1875 
Q 55.609375 10.40625 48.1875 4.484375 
Q 40.765625 -1.421875 27.09375 -1.421875 
Q 22.515625 -1.421875 17.65625 -0.515625 
Q 12.796875 0.390625 7.625 2.203125 
L 7.625 11.71875 
Q 11.71875 9.328125 16.59375 8.109375 
Q 21.484375 6.890625 26.8125 6.890625 
Q 36.078125 6.890625 40.9375 10.546875 
Q 45.796875 14.203125 45.796875 21.1875 
Q 45.796875 27.640625 41.28125 31.265625 
Q 36.765625 34.90625 28.71875 34.90625 
L 20.21875 34.90625 
L 20.21875 43.015625 
L 29.109375 43.015625 
Q 36.375 43.015625 40.234375 45.921875 
Q 44.09375 48.828125 44.09375 54.296875 
Q 44.09375 59.90625 40.109375 62.90625 
Q 36.140625 65.921875 28.71875 65.921875 
Q 24.65625 65.921875 20.015625 65.03125 
Q 15.375 64.15625 9.8125 62.3125 
L 9.8125 71.09375 
Q 15.4375 72.65625 20.34375 73.4375 
Q 25.25 74.21875 29.59375 74.21875 
Q 40.828125 74.21875 47.359375 69.109375 
Q 53.90625 64.015625 53.90625 55.328125 
Q 53.90625 49.265625 50.4375 45.09375 
Q 46.96875 40.921875 40.578125 39.3125 
z
" id="DejaVuSans-33"/>
      </defs>
      <g transform="translate(262.735823 298.953298)scale(0.11662 -0.11662)">
       <use xlink:href="#DejaVuSans-31"/>
       <use x="63.623047" xlink:href="#DejaVuSans-33"/>
      </g>
     </g>
    </g>
    <g id="xtick_9">
     <g id="line2d_11"/>
     <g id="text_7">
      <!-- 14 -->
      <defs>
       <path d="M 37.796875 64.3125 
L 12.890625 25.390625 
L 37.796875 25.390625 
z
M 35.203125 72.90625 
L 47.609375 72.90625 
L 47.609375 25.390625 
L 58.015625 25.390625 
L 58.015625 17.1875 
L 47.609375 17.1875 
L 47.609375 0 
L 37.796875 0 
L 37.796875 17.1875 
L 4.890625 17.1875 
L 4.890625 26.703125 
z
" id="DejaVuSans-34"/>
      </defs>
      <g transform="translate(308.488177 298.953298)scale(0.11662 -0.11662)">
       <use xlink:href="#DejaVuSans-31"/>
       <use x="63.623047" xlink:href="#DejaVuSans-34"/>
      </g>
     </g>
    </g>
    <g id="xtick_10">
     <g id="line2d_12"/>
     <g id="text_8">
      <!-- 15 -->
      <defs>
       <path d="M 10.796875 72.90625 
L 49.515625 72.90625 
L 49.515625 64.59375 
L 19.828125 64.59375 
L 19.828125 46.734375 
Q 21.96875 47.46875 24.109375 47.828125 
Q 26.265625 48.1875 28.421875 48.1875 
Q 40.625 48.1875 47.75 41.5 
Q 54.890625 34.8125 54.890625 23.390625 
Q 54.890625 11.625 47.5625 5.09375 
Q 40.234375 -1.421875 26.90625 -1.421875 
Q 22.3125 -1.421875 17.546875 -0.640625 
Q 12.796875 0.140625 7.71875 1.703125 
L 7.71875 11.625 
Q 12.109375 9.234375 16.796875 8.0625 
Q 21.484375 6.890625 26.703125 6.890625 
Q 35.15625 6.890625 40.078125 11.328125 
Q 45.015625 15.765625 45.015625 23.390625 
Q 45.015625 31 40.078125 35.4375 
Q 35.15625 39.890625 26.703125 39.890625 
Q 22.75 39.890625 18.8125 39.015625 
Q 14.890625 38.140625 10.796875 36.28125 
z
" id="DejaVuSans-35"/>
      </defs>
      <g transform="translate(354.240531 298.953298)scale(0.11662 -0.11662)">
       <use xlink:href="#DejaVuSans-31"/>
       <use x="63.623047" xlink:href="#DejaVuSans-35"/>
      </g>
     </g>
    </g>
    <g id="xtick_11">
     <g id="line2d_13"/>
     <g id="text_9">
      <!-- 16 -->
      <g transform="translate(399.992885 298.953298)scale(0.11662 -0.11662)">
       <use xlink:href="#DejaVuSans-31"/>
       <use x="63.623047" xlink:href="#DejaVuSans-36"/>
      </g>
     </g>
    </g>
    <g id="text_10">
     <!-- Time -->
     <defs>
      <path d="M -0.296875 72.90625 
L 61.375 72.90625 
L 61.375 64.59375 
L 35.5 64.59375 
L 35.5 0 
L 25.59375 0 
L 25.59375 64.59375 
L -0.296875 64.59375 
z
" id="DejaVuSans-54"/>
      <path d="M 9.421875 54.6875 
L 18.40625 54.6875 
L 18.40625 0 
L 9.421875 0 
z
M 9.421875 75.984375 
L 18.40625 75.984375 
L 18.40625 64.59375 
L 9.421875 64.59375 
z
" id="DejaVuSans-69"/>
      <path d="M 52 44.1875 
Q 55.375 50.25 60.0625 53.125 
Q 64.75 56 71.09375 56 
Q 79.640625 56 84.28125 50.015625 
Q 88.921875 44.046875 88.921875 33.015625 
L 88.921875 0 
L 79.890625 0 
L 79.890625 32.71875 
Q 79.890625 40.578125 77.09375 44.375 
Q 74.3125 48.1875 68.609375 48.1875 
Q 61.625 48.1875 57.5625 43.546875 
Q 53.515625 38.921875 53.515625 30.90625 
L 53.515625 0 
L 44.484375 0 
L 44.484375 32.71875 
Q 44.484375 40.625 41.703125 44.40625 
Q 38.921875 48.1875 33.109375 48.1875 
Q 26.21875 48.1875 22.15625 43.53125 
Q 18.109375 38.875 18.109375 30.90625 
L 18.109375 0 
L 9.078125 0 
L 9.078125 54.6875 
L 18.109375 54.6875 
L 18.109375 46.1875 
Q 21.1875 51.21875 25.484375 53.609375 
Q 29.78125 56 35.6875 56 
Q 41.65625 56 45.828125 52.96875 
Q 50 49.953125 52 44.1875 
z
" id="DejaVuSans-6d"/>
      <path d="M 56.203125 29.59375 
L 56.203125 25.203125 
L 14.890625 25.203125 
Q 15.484375 15.921875 20.484375 11.0625 
Q 25.484375 6.203125 34.421875 6.203125 
Q 39.59375 6.203125 44.453125 7.46875 
Q 49.3125 8.734375 54.109375 11.28125 
L 54.109375 2.78125 
Q 49.265625 0.734375 44.1875 -0.34375 
Q 39.109375 -1.421875 33.890625 -1.421875 
Q 20.796875 -1.421875 13.15625 6.1875 
Q 5.515625 13.8125 5.515625 26.8125 
Q 5.515625 40.234375 12.765625 48.109375 
Q 20.015625 56 32.328125 56 
Q 43.359375 56 49.78125 48.890625 
Q 56.203125 41.796875 56.203125 29.59375 
z
M 47.21875 32.234375 
Q 47.125 39.59375 43.09375 43.984375 
Q 39.0625 48.390625 32.421875 48.390625 
Q 24.90625 48.390625 20.390625 44.140625 
Q 15.875 39.890625 15.1875 32.171875 
z
" id="DejaVuSans-65"/>
     </defs>
     <g transform="translate(232.594998 340.457705)scale(0.11662 -0.11662)">
      <use xlink:href="#DejaVuSans-54"/>
      <use x="61.037109" xlink:href="#DejaVuSans-69"/>
      <use x="88.820312" xlink:href="#DejaVuSans-6d"/>
      <use x="186.232422" xlink:href="#DejaVuSans-65"/>
     </g>
    </g>
   </g>
   <g id="matplotlib.axis_2">
    <g id="ytick_1">
     <g id="line2d_14">
      <path clip-path="url(#pe2490403c9)" d="M 41.394 256.093066 
L 452.6886 256.093066 
" style="fill:none;stroke:#cbcbcb;"/>
     </g>
     <g id="line2d_15"/>
     <g id="text_11">
      <!-- 0 -->
      <g transform="translate(30.474053 260.523715)scale(0.11662 -0.11662)">
       <use xlink:href="#DejaVuSans-30"/>
      </g>
     </g>
    </g>
    <g id="ytick_2">
     <g id="line2d_16">
      <path clip-path="url(#pe2490403c9)" d="M 41.394 211.302338 
L 452.6886 211.302338 
" style="fill:none;stroke:#cbcbcb;"/>
     </g>
     <g id="line2d_17"/>
     <g id="text_12">
      <!-- 10 -->
      <g transform="translate(23.054105 215.732987)scale(0.11662 -0.11662)">
       <use xlink:href="#DejaVuSans-31"/>
       <use x="63.623047" xlink:href="#DejaVuSans-30"/>
      </g>
     </g>
    </g>
    <g id="ytick_3">
     <g id="line2d_18">
      <path clip-path="url(#pe2490403c9)" d="M 41.394 166.51161 
L 452.6886 166.51161 
" style="fill:none;stroke:#cbcbcb;"/>
     </g>
     <g id="line2d_19"/>
     <g id="text_13">
      <!-- 20 -->
      <g transform="translate(23.054105 170.942259)scale(0.11662 -0.11662)">
       <use xlink:href="#DejaVuSans-32"/>
       <use x="63.623047" xlink:href="#DejaVuSans-30"/>
      </g>
     </g>
    </g>
    <g id="ytick_4">
     <g id="line2d_20">
      <path clip-path="url(#pe2490403c9)" d="M 41.394 121.720882 
L 452.6886 121.720882 
" style="fill:none;stroke:#cbcbcb;"/>
     </g>
     <g id="line2d_21"/>
     <g id="text_14">
      <!-- 30 -->
      <g transform="translate(23.054105 126.151531)scale(0.11662 -0.11662)">
       <use xlink:href="#DejaVuSans-33"/>
       <use x="63.623047" xlink:href="#DejaVuSans-30"/>
      </g>
     </g>
    </g>
    <g id="text_15">
     <!-- Total active power [kW] -->
     <defs>
      <path d="M 30.609375 48.390625 
Q 23.390625 48.390625 19.1875 42.75 
Q 14.984375 37.109375 14.984375 27.296875 
Q 14.984375 17.484375 19.15625 11.84375 
Q 23.34375 6.203125 30.609375 6.203125 
Q 37.796875 6.203125 41.984375 11.859375 
Q 46.1875 17.53125 46.1875 27.296875 
Q 46.1875 37.015625 41.984375 42.703125 
Q 37.796875 48.390625 30.609375 48.390625 
z
M 30.609375 56 
Q 42.328125 56 49.015625 48.375 
Q 55.71875 40.765625 55.71875 27.296875 
Q 55.71875 13.875 49.015625 6.21875 
Q 42.328125 -1.421875 30.609375 -1.421875 
Q 18.84375 -1.421875 12.171875 6.21875 
Q 5.515625 13.875 5.515625 27.296875 
Q 5.515625 40.765625 12.171875 48.375 
Q 18.84375 56 30.609375 56 
z
" id="DejaVuSans-6f"/>
      <path d="M 18.3125 70.21875 
L 18.3125 54.6875 
L 36.8125 54.6875 
L 36.8125 47.703125 
L 18.3125 47.703125 
L 18.3125 18.015625 
Q 18.3125 11.328125 20.140625 9.421875 
Q 21.96875 7.515625 27.59375 7.515625 
L 36.8125 7.515625 
L 36.8125 0 
L 27.59375 0 
Q 17.1875 0 13.234375 3.875 
Q 9.28125 7.765625 9.28125 18.015625 
L 9.28125 47.703125 
L 2.6875 47.703125 
L 2.6875 54.6875 
L 9.28125 54.6875 
L 9.28125 70.21875 
z
" id="DejaVuSans-74"/>
      <path d="M 34.28125 27.484375 
Q 23.390625 27.484375 19.1875 25 
Q 14.984375 22.515625 14.984375 16.5 
Q 14.984375 11.71875 18.140625 8.90625 
Q 21.296875 6.109375 26.703125 6.109375 
Q 34.1875 6.109375 38.703125 11.40625 
Q 43.21875 16.703125 43.21875 25.484375 
L 43.21875 27.484375 
z
M 52.203125 31.203125 
L 52.203125 0 
L 43.21875 0 
L 43.21875 8.296875 
Q 40.140625 3.328125 35.546875 0.953125 
Q 30.953125 -1.421875 24.3125 -1.421875 
Q 15.921875 -1.421875 10.953125 3.296875 
Q 6 8.015625 6 15.921875 
Q 6 25.140625 12.171875 29.828125 
Q 18.359375 34.515625 30.609375 34.515625 
L 43.21875 34.515625 
L 43.21875 35.40625 
Q 43.21875 41.609375 39.140625 45 
Q 35.0625 48.390625 27.6875 48.390625 
Q 23 48.390625 18.546875 47.265625 
Q 14.109375 46.140625 10.015625 43.890625 
L 10.015625 52.203125 
Q 14.9375 54.109375 19.578125 55.046875 
Q 24.21875 56 28.609375 56 
Q 40.484375 56 46.34375 49.84375 
Q 52.203125 43.703125 52.203125 31.203125 
z
" id="DejaVuSans-61"/>
      <path d="M 9.421875 75.984375 
L 18.40625 75.984375 
L 18.40625 0 
L 9.421875 0 
z
" id="DejaVuSans-6c"/>
      <path id="DejaVuSans-20"/>
      <path d="M 48.78125 52.59375 
L 48.78125 44.1875 
Q 44.96875 46.296875 41.140625 47.34375 
Q 37.3125 48.390625 33.40625 48.390625 
Q 24.65625 48.390625 19.8125 42.84375 
Q 14.984375 37.3125 14.984375 27.296875 
Q 14.984375 17.28125 19.8125 11.734375 
Q 24.65625 6.203125 33.40625 6.203125 
Q 37.3125 6.203125 41.140625 7.25 
Q 44.96875 8.296875 48.78125 10.40625 
L 48.78125 2.09375 
Q 45.015625 0.34375 40.984375 -0.53125 
Q 36.96875 -1.421875 32.421875 -1.421875 
Q 20.0625 -1.421875 12.78125 6.34375 
Q 5.515625 14.109375 5.515625 27.296875 
Q 5.515625 40.671875 12.859375 48.328125 
Q 20.21875 56 33.015625 56 
Q 37.15625 56 41.109375 55.140625 
Q 45.0625 54.296875 48.78125 52.59375 
z
" id="DejaVuSans-63"/>
      <path d="M 2.984375 54.6875 
L 12.5 54.6875 
L 29.59375 8.796875 
L 46.6875 54.6875 
L 56.203125 54.6875 
L 35.6875 0 
L 23.484375 0 
z
" id="DejaVuSans-76"/>
      <path d="M 18.109375 8.203125 
L 18.109375 -20.796875 
L 9.078125 -20.796875 
L 9.078125 54.6875 
L 18.109375 54.6875 
L 18.109375 46.390625 
Q 20.953125 51.265625 25.265625 53.625 
Q 29.59375 56 35.59375 56 
Q 45.5625 56 51.78125 48.09375 
Q 58.015625 40.1875 58.015625 27.296875 
Q 58.015625 14.40625 51.78125 6.484375 
Q 45.5625 -1.421875 35.59375 -1.421875 
Q 29.59375 -1.421875 25.265625 0.953125 
Q 20.953125 3.328125 18.109375 8.203125 
z
M 48.6875 27.296875 
Q 48.6875 37.203125 44.609375 42.84375 
Q 40.53125 48.484375 33.40625 48.484375 
Q 26.265625 48.484375 22.1875 42.84375 
Q 18.109375 37.203125 18.109375 27.296875 
Q 18.109375 17.390625 22.1875 11.75 
Q 26.265625 6.109375 33.40625 6.109375 
Q 40.53125 6.109375 44.609375 11.75 
Q 48.6875 17.390625 48.6875 27.296875 
z
" id="DejaVuSans-70"/>
      <path d="M 4.203125 54.6875 
L 13.1875 54.6875 
L 24.421875 12.015625 
L 35.59375 54.6875 
L 46.1875 54.6875 
L 57.421875 12.015625 
L 68.609375 54.6875 
L 77.59375 54.6875 
L 63.28125 0 
L 52.6875 0 
L 40.921875 44.828125 
L 29.109375 0 
L 18.5 0 
z
" id="DejaVuSans-77"/>
      <path d="M 41.109375 46.296875 
Q 39.59375 47.171875 37.8125 47.578125 
Q 36.03125 48 33.890625 48 
Q 26.265625 48 22.1875 43.046875 
Q 18.109375 38.09375 18.109375 28.8125 
L 18.109375 0 
L 9.078125 0 
L 9.078125 54.6875 
L 18.109375 54.6875 
L 18.109375 46.1875 
Q 20.953125 51.171875 25.484375 53.578125 
Q 30.03125 56 36.53125 56 
Q 37.453125 56 38.578125 55.875 
Q 39.703125 55.765625 41.0625 55.515625 
z
" id="DejaVuSans-72"/>
      <path d="M 8.59375 75.984375 
L 29.296875 75.984375 
L 29.296875 69 
L 17.578125 69 
L 17.578125 -6.203125 
L 29.296875 -6.203125 
L 29.296875 -13.1875 
L 8.59375 -13.1875 
z
" id="DejaVuSans-5b"/>
      <path d="M 9.078125 75.984375 
L 18.109375 75.984375 
L 18.109375 31.109375 
L 44.921875 54.6875 
L 56.390625 54.6875 
L 27.390625 29.109375 
L 57.625 0 
L 45.90625 0 
L 18.109375 26.703125 
L 18.109375 0 
L 9.078125 0 
z
" id="DejaVuSans-6b"/>
      <path d="M 3.328125 72.90625 
L 13.28125 72.90625 
L 28.609375 11.28125 
L 43.890625 72.90625 
L 54.984375 72.90625 
L 70.3125 11.28125 
L 85.59375 72.90625 
L 95.609375 72.90625 
L 77.296875 0 
L 64.890625 0 
L 49.515625 63.28125 
L 33.984375 0 
L 21.578125 0 
z
" id="DejaVuSans-57"/>
      <path d="M 30.421875 75.984375 
L 30.421875 -13.1875 
L 9.71875 -13.1875 
L 9.71875 -6.203125 
L 21.390625 -6.203125 
L 21.390625 69 
L 9.71875 69 
L 9.71875 75.984375 
z
" id="DejaVuSans-5d"/>
     </defs>
     <g transform="translate(16.628773 267.055214)rotate(-90)scale(0.11662 -0.11662)">
      <use xlink:href="#DejaVuSans-54"/>
      <use x="60.818359" xlink:href="#DejaVuSans-6f"/>
      <use x="122" xlink:href="#DejaVuSans-74"/>
      <use x="161.208984" xlink:href="#DejaVuSans-61"/>
      <use x="222.488281" xlink:href="#DejaVuSans-6c"/>
      <use x="250.271484" xlink:href="#DejaVuSans-20"/>
      <use x="282.058594" xlink:href="#DejaVuSans-61"/>
      <use x="343.337891" xlink:href="#DejaVuSans-63"/>
      <use x="398.318359" xlink:href="#DejaVuSans-74"/>
      <use x="437.527344" xlink:href="#DejaVuSans-69"/>
      <use x="465.310547" xlink:href="#DejaVuSans-76"/>
      <use x="524.490234" xlink:href="#DejaVuSans-65"/>
      <use x="586.013672" xlink:href="#DejaVuSans-20"/>
      <use x="617.800781" xlink:href="#DejaVuSans-70"/>
      <use x="681.277344" xlink:href="#DejaVuSans-6f"/>
      <use x="742.458984" xlink:href="#DejaVuSans-77"/>
      <use x="824.246094" xlink:href="#DejaVuSans-65"/>
      <use x="885.769531" xlink:href="#DejaVuSans-72"/>
      <use x="926.882812" xlink:href="#DejaVuSans-20"/>
      <use x="958.669922" xlink:href="#DejaVuSans-5b"/>
      <use x="997.683594" xlink:href="#DejaVuSans-6b"/>
      <use x="1055.59375" xlink:href="#DejaVuSans-57"/>
      <use x="1154.470703" xlink:href="#DejaVuSans-5d"/>
     </g>
    </g>
   </g>
   <g id="line2d_22">
    <path clip-path="url(#pe2490403c9)" d="M 41.394 255.645159 
L 42.347174 255.645159 
L 42.823761 255.197252 
L 43.300348 255.197252 
L 43.776935 255.645159 
L 44.253522 255.197252 
L 44.730109 255.197252 
L 45.206696 255.645159 
L 45.683283 255.197252 
L 47.589631 255.197252 
L 48.066218 255.645159 
L 48.542805 255.645159 
L 49.019392 255.197252 
L 49.495979 255.645159 
L 50.449153 255.645159 
L 50.92574 255.197252 
L 51.402327 255.197252 
L 51.878914 255.645159 
L 52.355502 255.197252 
L 52.832089 255.645159 
L 54.738437 255.645159 
L 55.215024 255.197252 
L 55.691611 255.197252 
L 56.168198 225.187464 
L 56.644785 179.500921 
L 57.121372 179.948829 
L 57.597959 179.948829 
L 58.074546 181.740458 
L 58.551133 181.29255 
L 59.02772 181.740458 
L 59.504307 179.500921 
L 59.980894 181.740458 
L 60.457481 176.813478 
L 60.934068 256.093066 
L 61.410655 255.645159 
L 61.887242 256.093066 
L 62.840416 123.064604 
L 63.317003 226.979093 
L 63.79359 224.291649 
L 64.270177 121.272975 
L 64.746764 226.979093 
L 65.223351 122.168789 
L 65.699938 120.825067 
L 66.176525 226.979093 
L 66.653112 120.825067 
L 67.129699 228.322815 
L 67.606286 227.427 
L 68.082873 122.168789 
L 68.55946 120.37716 
L 69.036047 227.427 
L 69.512634 120.825067 
L 70.465808 119.929253 
L 70.942395 225.635371 
L 71.418982 121.272975 
L 71.895569 119.481346 
L 72.372156 226.083279 
L 72.848743 120.825067 
L 73.32533 121.720882 
L 73.801917 255.645159 
L 74.278505 256.093066 
L 77.614614 256.093066 
L 78.567788 123.512511 
L 79.044375 121.272975 
L 79.520962 224.291649 
L 79.997549 226.979093 
L 80.474136 123.064604 
L 80.950723 224.739557 
L 81.42731 182.188365 
L 81.903897 179.053014 
L 82.380484 179.948829 
L 82.857071 256.093066 
L 83.333658 255.197252 
L 83.810245 255.645159 
L 84.286832 255.197252 
L 85.240006 255.197252 
L 85.716593 255.645159 
L 86.19318 255.197252 
L 86.669767 255.645159 
L 89.529289 255.645159 
L 90.005876 255.197252 
L 90.482463 255.645159 
L 90.95905 255.197252 
L 91.912224 255.197252 
L 92.388811 255.645159 
L 92.865398 255.645159 
L 93.341985 256.093066 
L 93.818572 255.197252 
L 94.771746 255.197252 
L 95.248333 256.093066 
L 95.724921 255.645159 
L 96.201508 255.645159 
L 96.678095 256.093066 
L 98.584443 256.093066 
L 99.06103 255.197252 
L 100.490791 255.197252 
L 100.967378 256.093066 
L 101.443965 255.197252 
L 101.920552 195.177676 
L 102.397139 200.104656 
L 102.873726 212.64606 
L 103.350313 203.687914 
L 103.8269 222.50002 
L 104.303487 180.844643 
L 104.780074 177.709292 
L 105.256661 178.157199 
L 105.733248 179.053014 
L 106.209835 180.396736 
L 106.686422 181.29255 
L 107.163009 178.605107 
L 107.639596 178.157199 
L 108.116183 181.29255 
L 108.59277 180.396736 
L 109.069357 178.157199 
L 109.545944 255.645159 
L 110.022531 256.093066 
L 110.499118 256.093066 
L 111.452292 120.825067 
L 111.928879 224.291649 
L 112.405466 223.843742 
L 112.882053 120.825067 
L 113.35864 223.395835 
L 113.835227 226.083279 
L 114.311814 120.37716 
L 114.788401 224.739557 
L 115.264988 121.272975 
L 115.741575 226.979093 
L 116.218162 226.531186 
L 116.694749 121.272975 
L 117.171337 226.083279 
L 117.647924 120.825067 
L 118.124511 121.720882 
L 118.601098 226.979093 
L 119.077685 121.720882 
L 119.554272 256.093066 
L 122.890381 256.093066 
L 123.366968 255.645159 
L 123.843555 179.500921 
L 124.320142 182.188365 
L 124.796729 182.188365 
L 125.273316 178.157199 
L 125.749903 178.157199 
L 126.22649 177.709292 
L 126.703077 175.917663 
L 127.179664 180.396736 
L 127.656251 180.844643 
L 128.132838 177.261385 
L 128.609425 255.197252 
L 130.039186 255.197252 
L 130.515773 256.093066 
L 131.468947 255.197252 
L 131.945534 255.645159 
L 132.898708 255.645159 
L 133.375295 255.197252 
L 133.851882 255.645159 
L 134.805056 255.645159 
L 135.281643 255.197252 
L 135.75823 255.197252 
L 136.234817 256.093066 
L 136.711404 255.197252 
L 137.187991 255.645159 
L 137.664578 255.645159 
L 138.141165 255.197252 
L 138.617752 255.197252 
L 139.570927 256.093066 
L 140.047514 255.645159 
L 140.524101 256.093066 
L 141.000688 255.645159 
L 141.477275 256.093066 
L 141.953862 255.197252 
L 142.430449 255.197252 
L 142.907036 255.645159 
L 143.383623 255.197252 
L 144.336797 256.093066 
L 144.813384 255.645159 
L 145.289971 256.093066 
L 145.766558 255.645159 
L 146.243145 256.093066 
L 147.196319 256.093066 
L 147.672906 206.375358 
L 148.149493 211.302338 
L 148.62608 213.093967 
L 149.102667 203.240007 
L 149.579254 256.093066 
L 150.055841 179.053014 
L 150.532428 179.500921 
L 151.009015 178.157199 
L 151.485602 181.29255 
L 151.962189 177.261385 
L 152.438776 180.396736 
L 152.915363 178.157199 
L 153.39195 177.709292 
L 154.345124 177.709292 
L 154.821711 178.605107 
L 155.774885 177.709292 
L 156.251472 256.093066 
L 158.15782 256.093066 
L 158.634407 121.272975 
L 159.110994 226.979093 
L 159.587581 225.187464 
L 160.064168 227.427 
L 160.540756 143.220431 
L 161.017343 223.843742 
L 161.49393 224.739557 
L 161.970517 223.843742 
L 162.447104 121.272975 
L 162.923691 226.531186 
L 163.400278 224.291649 
L 163.876865 121.720882 
L 164.353452 227.427 
L 164.830039 226.979093 
L 165.306626 255.645159 
L 165.783213 256.093066 
L 170.549083 256.093066 
L 171.02567 179.053014 
L 171.502257 181.740458 
L 171.978844 179.500921 
L 172.455431 179.948829 
L 172.932018 178.605107 
L 173.408605 176.813478 
L 173.885192 180.844643 
L 174.361779 255.645159 
L 174.838366 255.645159 
L 175.314953 255.197252 
L 175.79154 255.645159 
L 176.744714 255.645159 
L 177.221301 255.197252 
L 178.174475 256.093066 
L 178.651062 255.197252 
L 179.127649 255.645159 
L 179.604236 255.645159 
L 180.080823 256.093066 
L 180.55741 255.197252 
L 181.033997 255.197252 
L 181.510584 256.093066 
L 181.987171 255.645159 
L 182.463759 255.645159 
L 182.940346 255.197252 
L 183.416933 255.197252 
L 183.89352 255.645159 
L 184.370107 255.197252 
L 184.846694 255.645159 
L 185.323281 255.197252 
L 185.799868 255.645159 
L 186.276455 255.645159 
L 186.753042 256.093066 
L 187.229629 255.645159 
L 188.182803 255.645159 
L 188.65939 255.197252 
L 189.135977 255.645159 
L 189.612564 255.197252 
L 190.089151 256.093066 
L 190.565738 255.645159 
L 191.042325 256.093066 
L 191.518912 255.197252 
L 192.948673 255.197252 
L 193.42526 188.01116 
L 193.901847 179.053014 
L 194.378434 177.261385 
L 194.855021 180.844643 
L 195.331608 181.29255 
L 195.808195 178.157199 
L 196.284782 179.053014 
L 196.761369 177.261385 
L 197.237956 178.605107 
L 197.714543 179.053014 
L 198.19113 180.396736 
L 198.667717 179.053014 
L 199.144304 180.844643 
L 199.620891 179.500921 
L 200.097478 256.093066 
L 200.574065 256.093066 
L 201.050652 122.616696 
L 201.527239 223.395835 
L 202.003826 224.739557 
L 202.480413 121.720882 
L 202.957 227.874908 
L 203.433587 226.531186 
L 203.910175 122.168789 
L 204.386762 120.825067 
L 204.863349 227.427 
L 205.339936 120.37716 
L 205.816523 120.37716 
L 206.29311 226.979093 
L 206.769697 224.739557 
L 207.246284 119.929253 
L 207.722871 119.481346 
L 208.199458 225.187464 
L 208.676045 119.033438 
L 209.152632 120.37716 
L 209.629219 224.739557 
L 210.105806 119.929253 
L 210.582393 226.979093 
L 211.05898 256.093066 
L 211.535567 255.645159 
L 212.012154 256.093066 
L 212.488741 256.093066 
L 212.965328 255.645159 
L 213.441915 256.093066 
L 214.395089 256.093066 
L 214.871676 255.645159 
L 215.82485 120.825067 
L 216.301437 120.825067 
L 216.778024 226.979093 
L 217.254611 120.825067 
L 217.731198 224.739557 
L 218.207785 222.947928 
L 218.684372 121.720882 
L 219.160959 226.979093 
L 219.637546 227.427 
L 220.114133 256.093066 
L 220.59072 255.645159 
L 221.067307 256.093066 
L 221.543894 256.093066 
L 222.497068 255.197252 
L 222.973655 255.645159 
L 224.403416 255.645159 
L 224.880003 255.197252 
L 225.35659 255.645159 
L 225.833178 255.645159 
L 226.309765 255.197252 
L 226.786352 255.645159 
L 227.262939 255.197252 
L 227.739526 255.645159 
L 228.216113 255.197252 
L 229.645874 255.197252 
L 230.122461 255.645159 
L 230.599048 255.197252 
L 232.028809 255.197252 
L 232.505396 255.645159 
L 232.981983 255.197252 
L 233.45857 255.645159 
L 233.935157 255.645159 
L 234.411744 255.197252 
L 234.888331 255.197252 
L 235.364918 256.093066 
L 235.841505 255.197252 
L 236.318092 255.197252 
L 237.271266 256.093066 
L 237.747853 256.093066 
L 238.22444 255.645159 
L 238.701027 256.093066 
L 239.177614 211.302338 
L 239.654201 177.709292 
L 240.130788 180.844643 
L 240.607375 177.709292 
L 241.083962 181.29255 
L 241.560549 179.500921 
L 242.037136 177.261385 
L 242.513723 256.093066 
L 243.943484 256.093066 
L 244.420071 121.272975 
L 244.896658 226.979093 
L 245.373245 225.635371 
L 245.849832 119.929253 
L 246.326419 224.739557 
L 246.803006 226.531186 
L 247.279594 119.929253 
L 247.756181 226.979093 
L 248.232768 119.033438 
L 248.709355 226.979093 
L 249.185942 224.739557 
L 249.662529 119.033438 
L 250.139116 225.187464 
L 250.615703 116.793902 
L 251.09229 117.689716 
L 251.568877 226.979093 
L 252.045464 116.793902 
L 252.522051 225.187464 
L 252.998638 117.689716 
L 253.475225 117.241809 
L 253.951812 227.427 
L 254.428399 117.689716 
L 254.904986 117.241809 
L 255.381573 226.979093 
L 255.85816 117.241809 
L 256.334747 117.241809 
L 256.811334 255.645159 
L 257.287921 255.645159 
L 257.764508 256.093066 
L 258.241095 256.093066 
L 258.717682 255.645159 
L 259.194269 256.093066 
L 259.670856 255.645159 
L 260.147443 256.093066 
L 260.62403 256.093066 
L 261.577204 119.481346 
L 262.053791 119.481346 
L 262.530378 227.427 
L 263.006965 120.825067 
L 263.483552 121.720882 
L 263.960139 226.979093 
L 264.436726 121.720882 
L 264.913313 227.427 
L 265.3899 223.395835 
L 265.866487 255.645159 
L 266.343074 256.093066 
L 267.296248 256.093066 
L 267.772835 255.197252 
L 268.249422 255.197252 
L 268.72601 255.645159 
L 269.202597 255.645159 
L 269.679184 255.197252 
L 270.632358 255.197252 
L 271.108945 255.645159 
L 271.585532 255.645159 
L 272.062119 255.197252 
L 272.538706 255.645159 
L 273.015293 255.645159 
L 273.49188 255.197252 
L 273.968467 255.645159 
L 275.874815 255.645159 
L 276.351402 255.197252 
L 277.781163 255.197252 
L 278.25775 255.645159 
L 278.734337 255.197252 
L 279.687511 256.093066 
L 280.164098 255.197252 
L 280.640685 255.645159 
L 281.593859 255.645159 
L 282.070446 255.197252 
L 282.547033 255.645159 
L 283.02362 255.645159 
L 283.500207 255.197252 
L 283.976794 255.197252 
L 284.453381 255.645159 
L 285.406555 179.500921 
L 285.883142 178.605107 
L 286.359729 178.605107 
L 286.836316 255.645159 
L 287.312903 255.197252 
L 287.78949 256.093066 
L 289.219251 256.093066 
L 290.172425 122.616696 
L 290.649013 226.979093 
L 291.1256 226.979093 
L 291.602187 122.168789 
L 292.078774 224.739557 
L 292.555361 121.272975 
L 293.031948 223.843742 
L 293.508535 119.929253 
L 293.985122 121.272975 
L 294.461709 120.825067 
L 294.938296 226.979093 
L 295.414883 120.825067 
L 295.89147 226.979093 
L 296.368057 121.272975 
L 296.844644 227.427 
L 297.321231 120.37716 
L 297.797818 120.825067 
L 298.274405 225.635371 
L 298.750992 120.37716 
L 299.227579 224.739557 
L 299.704166 119.481346 
L 300.180753 118.585531 
L 300.65734 226.083279 
L 301.133927 118.585531 
L 301.610514 119.033438 
L 302.087101 225.635371 
L 302.563688 255.645159 
L 303.040275 256.093066 
L 303.516862 256.093066 
L 303.993449 255.645159 
L 304.946623 255.645159 
L 305.42321 256.093066 
L 305.899797 255.645159 
L 306.376384 256.093066 
L 307.329558 119.929253 
L 307.806145 121.272975 
L 308.282732 120.37716 
L 308.759319 226.979093 
L 309.235906 120.37716 
L 309.712493 227.427 
L 310.18908 223.395835 
L 310.665667 122.168789 
L 311.142254 224.739557 
L 311.618841 256.093066 
L 312.095429 255.645159 
L 312.572016 255.645159 
L 313.048603 256.093066 
L 314.001777 256.093066 
L 314.954951 255.197252 
L 316.384712 255.197252 
L 316.861299 255.645159 
L 317.814473 255.645159 
L 318.29106 255.197252 
L 318.767647 256.093066 
L 319.244234 255.197252 
L 319.720821 255.645159 
L 320.197408 255.197252 
L 320.673995 255.645159 
L 321.627169 255.645159 
L 322.103756 255.197252 
L 323.533517 255.197252 
L 324.010104 255.645159 
L 324.486691 255.645159 
L 324.963278 255.197252 
L 325.439865 255.645159 
L 325.916452 255.197252 
L 326.393039 255.645159 
L 326.869626 255.645159 
L 327.346213 255.197252 
L 327.8228 255.197252 
L 328.299387 255.645159 
L 329.252561 255.645159 
L 329.729148 255.197252 
L 330.205735 255.197252 
L 330.682322 255.645159 
L 331.158909 255.197252 
L 332.112083 255.197252 
L 332.58867 256.093066 
L 334.971606 256.093066 
L 335.448193 255.645159 
L 335.92478 256.093066 
L 337.831128 256.093066 
L 338.784302 120.37716 
L 339.260889 226.083279 
L 339.737476 223.843742 
L 340.214063 119.481346 
L 340.69065 226.531186 
L 341.167237 119.033438 
L 341.643824 119.481346 
L 342.120411 227.427 
L 342.596998 119.481346 
L 343.073585 226.083279 
L 343.550172 118.585531 
L 344.026759 118.585531 
L 344.503346 226.083279 
L 344.979933 119.033438 
L 345.45652 119.929253 
L 345.933107 256.093066 
L 347.362868 256.093066 
L 347.839455 255.645159 
L 348.316042 255.645159 
L 348.792629 256.093066 
L 349.269216 256.093066 
L 349.745803 255.645159 
L 350.22239 256.093066 
L 353.081912 256.093066 
L 353.558499 255.645159 
L 354.035086 256.093066 
L 355.464848 256.093066 
L 355.941435 255.645159 
L 356.418022 256.093066 
L 356.894609 256.093066 
L 357.371196 255.645159 
L 357.847783 256.093066 
L 358.32437 255.645159 
L 358.800957 256.093066 
L 359.754131 255.197252 
L 360.230718 255.645159 
L 360.707305 255.197252 
L 361.183892 255.645159 
L 361.660479 255.645159 
L 362.137066 255.197252 
L 362.613653 255.197252 
L 363.09024 255.645159 
L 365.473175 255.645159 
L 365.949762 255.197252 
L 366.902936 255.197252 
L 367.379523 255.645159 
L 367.85611 255.197252 
L 368.809284 256.093066 
L 369.762458 255.197252 
L 370.239045 255.197252 
L 370.715632 256.093066 
L 371.192219 256.093066 
L 371.668806 255.197252 
L 372.145393 256.093066 
L 372.62198 256.093066 
L 373.575154 255.197252 
L 375.004915 255.197252 
L 375.481502 256.093066 
L 375.958089 256.093066 
L 376.434676 217.125133 
L 377.387851 189.802789 
L 377.864438 179.948829 
L 378.341025 178.157199 
L 378.817612 255.197252 
L 379.294199 255.645159 
L 379.770786 255.197252 
L 380.247373 256.093066 
L 384.536656 256.093066 
L 385.48983 117.689716 
L 385.966417 226.531186 
L 386.443004 118.137624 
L 386.919591 225.187464 
L 387.396178 118.137624 
L 387.872765 116.793902 
L 388.349352 226.979093 
L 388.825939 118.137624 
L 389.302526 226.531186 
L 389.779113 118.137624 
L 390.2557 118.137624 
L 390.732287 224.291649 
L 391.208874 116.345995 
L 391.685461 226.531186 
L 392.162048 116.793902 
L 392.638635 116.345995 
L 393.115222 226.531186 
L 393.591809 118.585531 
L 394.068396 255.645159 
L 394.544983 256.093066 
L 396.927918 256.093066 
L 397.404505 255.645159 
L 397.881092 256.093066 
L 398.834267 120.37716 
L 399.310854 120.825067 
L 399.787441 226.979093 
L 400.264028 121.272975 
L 400.740615 227.874908 
L 401.217202 227.427 
L 401.693789 178.157199 
L 402.170376 181.740458 
L 402.646963 178.157199 
L 403.12355 255.197252 
L 403.600137 255.645159 
L 404.076724 255.197252 
L 404.553311 255.645159 
L 405.029898 255.197252 
L 405.506485 255.645159 
L 405.983072 255.645159 
L 406.459659 255.197252 
L 406.936246 255.645159 
L 407.412833 255.197252 
L 408.842594 255.197252 
L 409.319181 255.645159 
L 409.795768 255.645159 
L 410.272355 255.197252 
L 411.702116 255.197252 
L 412.178703 255.645159 
L 412.65529 255.197252 
L 413.131877 255.197252 
L 413.608464 255.645159 
L 414.085051 255.197252 
L 415.514812 255.197252 
L 415.991399 256.093066 
L 416.467986 255.197252 
L 416.944573 255.197252 
L 417.897747 256.093066 
L 418.374334 255.645159 
L 418.850921 256.093066 
L 419.327508 255.197252 
L 419.804095 255.645159 
L 420.280683 255.645159 
L 420.75727 255.197252 
L 421.233857 256.093066 
L 421.710444 256.093066 
L 422.187031 196.521398 
L 422.663618 188.01116 
L 423.140205 187.115345 
L 423.616792 178.157199 
L 424.093379 180.844643 
L 424.569966 181.740458 
L 425.046553 177.261385 
L 425.52314 179.948829 
L 425.999727 181.29255 
L 426.476314 256.093066 
L 427.906075 256.093066 
L 428.859249 121.272975 
L 429.335836 227.427 
L 429.812423 226.979093 
L 430.28901 119.033438 
L 430.765597 119.033438 
L 431.242184 226.531186 
L 431.718771 119.033438 
L 432.195358 119.929253 
L 432.671945 226.979093 
L 433.148532 118.585531 
L 433.625119 226.979093 
L 434.101706 119.033438 
L 434.578293 119.033438 
L 435.05488 225.635371 
L 435.531467 116.793902 
L 436.008054 117.689716 
L 436.484641 118.137624 
L 436.961228 226.979093 
L 437.437815 118.137624 
L 437.914402 117.241809 
L 438.390989 226.531186 
L 438.867576 116.345995 
L 439.344163 117.241809 
L 439.82075 256.093066 
L 443.633447 256.093066 
L 444.586621 122.168789 
L 445.063208 121.272975 
L 445.539795 227.427 
L 446.016382 223.395835 
L 446.492969 122.616696 
L 446.969556 223.395835 
L 447.446143 227.874908 
L 447.92273 182.188365 
L 448.399317 179.500921 
L 448.875904 256.093066 
L 449.829078 255.197252 
L 450.782252 255.197252 
L 451.258839 255.645159 
L 451.735426 255.645159 
L 452.212013 255.197252 
L 452.6886 255.197252 
L 452.6886 255.197252 
" style="fill:none;stroke:#000000;stroke-width:0.5;"/>
   </g>
   <g id="line2d_23">
    <path clip-path="url(#pe2490403c9)" d="M 41.394 273.491978 
L 41.870587 272.852336 
L 42.347174 269.844849 
L 42.823761 272.253956 
L 43.300348 271.581127 
L 44.253522 268.080721 
L 44.730109 267.841305 
L 45.206696 265.703253 
L 45.683283 266.21081 
L 46.15987 269.024605 
L 46.636457 269.503438 
L 47.113044 268.112359 
L 47.589631 268.591192 
L 48.066218 267.678946 
L 48.542805 267.918362 
L 49.019392 266.7667 
L 49.495979 267.006117 
L 49.972566 270.566885 
L 50.449153 264.942209 
L 50.92574 265.181625 
L 51.402327 263.522406 
L 51.878914 263.761823 
L 52.355502 267.322591 
L 52.832089 267.562007 
L 53.308676 267.562007 
L 53.785263 266.410345 
L 54.738437 265.931513 
L 55.215024 270.598524 
L 55.691611 269.566714 
L 56.168198 186.446002 
L 56.644785 195.218813 
L 57.121372 194.979396 
L 57.597959 193.961368 
L 58.074546 191.147573 
L 58.551133 196.261779 
L 59.02772 198.638949 
L 59.504307 205.852643 
L 59.980894 206.01443 
L 60.934068 222.901824 
L 61.410655 230.475562 
L 61.887242 240.524292 
L 62.363829 243.926295 
L 62.840416 139.026136 
L 63.317003 226.472135 
L 63.79359 226.327585 
L 64.270177 141.72928 
L 64.746764 225.462959 
L 65.223351 146.271489 
L 65.699938 143.197873 
L 66.176525 219.370186 
L 66.653112 140.947111 
L 67.129699 200.703725 
L 67.606286 232.293417 
L 68.082873 140.042347 
L 68.55946 152.958415 
L 69.036047 219.028844 
L 69.512634 137.66899 
L 69.989221 137.692577 
L 70.465808 141.613719 
L 70.942395 218.177516 
L 71.418982 138.557202 
L 71.895569 137.692577 
L 72.372156 219.489136 
L 72.848743 138.348379 
L 73.32533 143.381476 
L 73.801917 220.700932 
L 74.278505 226.888896 
L 75.231679 233.666487 
L 75.708266 235.653538 
L 76.66144 237.45062 
L 77.138027 237.989786 
L 77.614614 237.989786 
L 78.091201 224.366152 
L 78.567788 131.362051 
L 79.044375 141.001083 
L 79.520962 219.532982 
L 79.997549 212.435444 
L 80.474136 137.163483 
L 80.950723 224.212753 
L 81.42731 194.687519 
L 81.903897 190.249722 
L 82.380484 194.685887 
L 82.857071 222.549338 
L 83.333658 227.715133 
L 83.810245 229.565378 
L 84.286832 234.338576 
L 84.763419 237.796476 
L 85.240006 244.350093 
L 85.716593 243.677264 
L 86.19318 249.34736 
L 86.669767 248.166973 
L 87.146354 253.358237 
L 87.622941 252.445991 
L 88.099528 255.499202 
L 88.576115 255.065789 
L 89.052702 254.826373 
L 89.529289 257.161335 
L 90.005876 257.908309 
L 90.482463 256.24909 
L 90.95905 261.200937 
L 91.435637 261.00694 
L 91.912224 259.587137 
L 92.388811 265.017817 
L 92.865398 263.358597 
L 93.818572 261.055273 
L 94.295159 266.246537 
L 94.771746 264.108485 
L 95.248333 264.108485 
L 95.724921 267.669253 
L 96.201508 265.770618 
L 96.678095 266.010034 
L 97.154682 264.858372 
L 97.631269 267.432751 
L 98.107856 267.672167 
L 98.584443 272.624014 
L 99.06103 270.007129 
L 99.537617 268.376635 
L 100.014204 271.623843 
L 100.490791 270.426761 
L 100.967378 269.663092 
L 101.443965 269.378256 
L 101.920552 157.740183 
L 102.397139 178.594688 
L 102.873726 176.78718 
L 103.350313 183.665514 
L 103.8269 177.362181 
L 104.303487 179.397364 
L 104.780074 187.458998 
L 105.256661 183.014709 
L 105.733248 190.477658 
L 106.209835 187.663863 
L 106.686422 192.598141 
L 107.163009 189.752306 
L 108.59277 211.311515 
L 109.069357 212.445752 
L 109.545944 227.285247 
L 110.499118 245.38275 
L 110.975705 234.394159 
L 111.452292 138.46771 
L 111.928879 222.428397 
L 112.405466 223.188611 
L 112.882053 136.136123 
L 113.35864 219.540017 
L 113.835227 226.327585 
L 114.311814 141.026303 
L 114.788401 232.311535 
L 115.264988 136.69455 
L 115.741575 215.329227 
L 116.218162 225.067815 
L 116.694749 134.838933 
L 117.171337 216.468034 
L 117.647924 141.608316 
L 118.124511 137.395894 
L 118.601098 224.882579 
L 119.077685 135.145132 
L 119.554272 220.318961 
L 120.507446 229.352235 
L 121.937207 235.365884 
L 122.413794 235.473952 
L 122.890381 235.807364 
L 123.366968 236.507093 
L 123.843555 194.106053 
L 124.320142 199.243562 
L 124.796729 198.090922 
L 125.273316 194.209918 
L 125.749903 189.361509 
L 126.22649 188.473297 
L 126.703077 189.50606 
L 127.179664 188.932174 
L 128.132838 183.192486 
L 128.609425 209.452697 
L 129.086012 209.109388 
L 130.515773 237.665756 
L 131.468947 246.793752 
L 131.945534 247.512001 
L 132.422121 251.956291 
L 132.898708 257.626387 
L 133.375295 256.206584 
L 133.851882 261.637263 
L 134.328469 260.485601 
L 134.805056 264.929891 
L 135.281643 264.257062 
L 135.75823 267.070857 
L 136.234817 267.310273 
L 136.711404 266.398027 
L 137.187991 266.398027 
L 138.141165 263.587146 
L 138.617752 268.538993 
L 139.09434 267.147915 
L 139.570927 266.161525 
L 140.047514 270.873955 
L 140.524101 270.366398 
L 141.000688 268.97532 
L 141.477275 268.97532 
L 141.953862 273.448334 
L 142.907036 272.969501 
L 143.383623 272.490669 
L 143.86021 272.251252 
L 144.336797 272.251252 
L 144.813384 271.025446 
L 145.766558 270.546614 
L 146.243145 275.424316 
L 146.719732 274.706067 
L 147.196319 274.227235 
L 147.672906 170.812062 
L 148.149493 180.422093 
L 148.62608 176.114351 
L 149.102667 173.944661 
L 149.579254 165.771417 
L 150.532428 172.247976 
L 151.009015 179.157948 
L 151.485602 182.612934 
L 151.962189 178.242788 
L 152.438776 177.22476 
L 152.915363 179.690443 
L 153.39195 179.399755 
L 153.868537 180.482616 
L 154.345124 183.201873 
L 154.821711 186.775236 
L 156.251472 216.659977 
L 156.728059 228.265191 
L 157.204646 227.004349 
L 157.681233 232.538285 
L 158.15782 235.913302 
L 158.634407 153.442815 
L 159.110994 213.793235 
L 159.587581 223.940034 
L 160.064168 222.576357 
L 160.540756 198.21892 
L 161.017343 192.319565 
L 161.49393 225.007989 
L 161.970517 225.64116 
L 162.447104 134.379515 
L 162.923691 221.581956 
L 163.400278 222.550993 
L 163.876865 137.128748 
L 164.353452 218.468201 
L 164.830039 225.543784 
L 165.306626 241.985508 
L 165.783213 243.458087 
L 166.2598 243.130828 
L 166.736387 247.065453 
L 167.212974 246.343896 
L 167.689561 246.024076 
L 168.166148 244.83401 
L 168.642735 245.429043 
L 169.119322 245.555567 
L 169.595909 241.282586 
L 170.549083 236.888372 
L 171.02567 196.58219 
L 171.502257 192.063568 
L 171.978844 185.99716 
L 172.455431 183.480338 
L 172.932018 180.26054 
L 173.408605 178.300511 
L 173.885192 177.001688 
L 174.361779 206.287297 
L 174.838366 208.239773 
L 175.314953 215.598712 
L 176.268127 236.423255 
L 176.744714 236.827943 
L 177.697888 247.809155 
L 178.174475 248.048571 
L 178.651062 253.644523 
L 179.127649 254.362772 
L 179.604236 258.807062 
L 180.080823 259.046478 
L 180.55741 262.36783 
L 181.033997 261.620857 
L 181.510584 261.381441 
L 181.987171 266.093871 
L 182.463759 265.346898 
L 182.940346 263.955819 
L 183.416933 264.434652 
L 183.89352 269.625915 
L 184.370107 269.865332 
L 184.846694 269.118358 
L 185.323281 267.72728 
L 185.799868 272.200294 
L 186.276455 270.569799 
L 186.753042 269.822826 
L 187.229629 269.583409 
L 187.706216 270.330383 
L 188.182803 270.330383 
L 188.65939 270.569799 
L 189.135977 269.822826 
L 190.565738 269.822826 
L 191.042325 269.583409 
L 191.518912 272.904762 
L 191.995499 274.056424 
L 192.472086 271.678955 
L 192.948673 271.678955 
L 193.42526 180.244293 
L 193.901847 193.292326 
L 194.378434 191.016853 
L 194.855021 183.251211 
L 195.331608 182.501324 
L 196.284782 193.171376 
L 196.761369 199.832138 
L 197.237956 199.021393 
L 197.714543 201.622224 
L 198.19113 207.361912 
L 198.667717 211.207994 
L 199.144304 208.069137 
L 199.620891 206.057105 
L 200.097478 220.816339 
L 200.574065 225.920966 
L 201.050652 143.107295 
L 201.527239 214.668022 
L 202.003826 226.472135 
L 202.480413 150.352647 
L 202.957 194.26576 
L 203.433587 226.355449 
L 203.910175 139.791753 
L 204.386762 137.507341 
L 204.863349 221.766073 
L 205.339936 137.36279 
L 205.816523 136.578989 
L 206.29311 183.419704 
L 206.769697 214.203251 
L 207.246284 135.467035 
L 207.722871 141.597168 
L 208.199458 205.326758 
L 208.676045 137.798621 
L 209.152632 192.128657 
L 209.629219 216.755121 
L 210.105806 135.258212 
L 210.582393 206.474282 
L 211.05898 232.526585 
L 212.012154 238.320162 
L 212.488741 240.404898 
L 212.965328 241.345058 
L 213.918502 243.906082 
L 214.395089 244.890096 
L 214.871676 245.097753 
L 215.348263 219.287304 
L 215.82485 129.183683 
L 216.301437 135.60455 
L 216.778024 226.907966 
L 217.254611 140.800928 
L 218.207785 225.481144 
L 218.684372 143.626668 
L 219.160959 202.617665 
L 219.637546 227.047113 
L 220.114133 245.551732 
L 221.067307 245.551732 
L 222.020481 246.844789 
L 222.973655 255.089264 
L 223.450242 258.142475 
L 223.926829 255.839151 
L 224.403416 258.892362 
L 224.880003 257.980117 
L 225.35659 261.033328 
L 225.833178 259.881666 
L 226.309765 264.833513 
L 226.786352 264.160683 
L 227.262939 262.262048 
L 227.739526 266.062233 
L 228.6927 264.237741 
L 229.169287 264.95599 
L 229.645874 263.804328 
L 230.122461 265.899874 
L 230.599048 265.899874 
L 231.075635 264.001239 
L 231.552222 264.719488 
L 232.028809 268.280256 
L 232.981983 268.759089 
L 233.45857 267.607427 
L 233.935157 267.607427 
L 234.411744 267.846843 
L 234.888331 272.79869 
L 235.364918 271.647028 
L 235.841505 269.508976 
L 236.318092 269.508976 
L 236.794679 268.117898 
L 237.271266 272.590912 
L 237.747853 267.160233 
L 238.22444 270.840854 
L 238.701027 271.274267 
L 239.177614 189.965146 
L 239.654201 200.737707 
L 240.130788 200.734793 
L 240.607375 200.532555 
L 241.560549 211.122241 
L 242.037136 216.35139 
L 242.513723 217.847135 
L 242.99031 225.003542 
L 243.943484 229.174193 
L 244.420071 166.882573 
L 244.896658 210.134481 
L 245.373245 215.720546 
L 245.849832 155.170671 
L 246.326419 198.634477 
L 246.803006 211.030796 
L 247.279594 139.615185 
L 247.756181 201.106051 
L 248.232768 138.076682 
L 248.709355 189.034148 
L 249.185942 179.868118 
L 249.662529 128.381515 
L 250.139116 199.88284 
L 250.615703 129.956616 
L 251.09229 173.059672 
L 251.568877 186.675026 
L 252.045464 123.94163 
L 252.522051 189.036116 
L 252.998638 120.744108 
L 253.475225 121.664693 
L 253.951812 191.404254 
L 254.428399 120.744108 
L 254.904986 120.261449 
L 255.381573 188.053688 
L 255.85816 118.888747 
L 256.334747 123.056547 
L 256.811334 222.051862 
L 257.287921 238.971125 
L 257.764508 245.28618 
L 258.241095 245.551732 
L 260.62403 245.551732 
L 261.100617 197.435233 
L 261.577204 132.716717 
L 262.053791 138.371966 
L 262.530378 216.09243 
L 263.006965 140.763508 
L 263.483552 139.543876 
L 263.960139 230.371323 
L 264.436726 140.714701 
L 264.913313 209.508011 
L 265.3899 232.904697 
L 265.866487 245.551732 
L 267.296248 245.551732 
L 267.772835 247.611332 
L 268.249422 252.993717 
L 269.202597 259.847114 
L 269.679184 256.5574 
L 270.155771 260.357585 
L 270.632358 259.445339 
L 271.108945 263.48494 
L 271.585532 261.825721 
L 272.062119 260.674059 
L 272.538706 263.009021 
L 273.49188 262.530189 
L 273.968467 267.482036 
L 274.921641 264.910571 
L 275.398228 265.389403 
L 275.874815 268.950172 
L 276.351402 266.81212 
L 276.827989 266.81212 
L 277.304576 264.674068 
L 277.781163 269.386499 
L 278.25775 268.474253 
L 278.734337 268.713669 
L 279.210924 267.562007 
L 279.687511 267.562007 
L 280.164098 266.410345 
L 280.640685 266.889178 
L 281.117272 271.841025 
L 281.593859 270.449947 
L 282.070446 270.449947 
L 282.547033 269.702973 
L 283.02362 272.784909 
L 283.500207 272.06666 
L 283.976794 270.122605 
L 284.453381 269.837769 
L 284.929968 194.571794 
L 285.406555 204.70025 
L 285.883142 201.513185 
L 286.836316 218.031833 
L 287.312903 217.993318 
L 288.266077 227.028929 
L 288.742664 227.917141 
L 289.219251 233.774725 
L 289.695838 234.451404 
L 290.172425 137.146932 
L 290.649013 220.841559 
L 291.1256 220.697008 
L 291.602187 144.31146 
L 292.078774 219.278563 
L 292.555361 133.604382 
L 293.031948 206.443741 
L 293.508535 148.02973 
L 293.985122 139.485553 
L 294.461709 140.170346 
L 294.938296 219.894776 
L 295.414883 142.809764 
L 295.89147 216.122971 
L 296.368057 145.844326 
L 296.844644 206.427805 
L 297.321231 147.514707 
L 297.797818 137.550745 
L 298.274405 213.358415 
L 298.750992 134.185927 
L 299.227579 197.429085 
L 299.704166 131.137896 
L 300.180753 133.913842 
L 300.65734 174.282883 
L 301.133927 137.225354 
L 301.610514 128.830417 
L 302.087101 197.996938 
L 302.563688 238.912591 
L 303.040275 244.979503 
L 303.516862 245.551732 
L 306.376384 245.551732 
L 306.852971 200.679548 
L 307.329558 129.247956 
L 308.282732 136.638945 
L 308.759319 226.351172 
L 309.235906 141.174119 
L 309.712493 199.381314 
L 310.18908 226.92615 
L 310.665667 138.963496 
L 311.142254 218.381974 
L 311.618841 245.551732 
L 313.048603 245.551732 
L 313.52519 245.373223 
L 314.001777 243.583799 
L 315.431538 255.913295 
L 315.908125 254.732908 
L 316.384712 258.293677 
L 316.861299 256.663182 
L 317.337886 260.389223 
L 317.814473 258.998145 
L 318.29106 262.724185 
L 318.767647 262.963602 
L 319.244234 261.572523 
L 319.720821 265.53798 
L 320.197408 264.386318 
L 320.673995 264.146902 
L 321.150582 262.516407 
L 321.627169 266.989422 
L 322.103756 266.003032 
L 322.580343 265.763615 
L 323.05693 269.729073 
L 323.533517 269.729073 
L 324.010104 269.968489 
L 324.486691 269.968489 
L 324.963278 269.056243 
L 325.439865 269.056243 
L 325.916452 269.29566 
L 326.393039 273.261117 
L 326.869626 273.0217 
L 327.346213 273.261117 
L 327.8228 273.261117 
L 328.299387 271.870038 
L 328.775974 273.0217 
L 329.252561 275.117246 
L 329.729148 271.317061 
L 330.205735 275.550659 
L 330.682322 274.756825 
L 331.158909 274.481613 
L 331.635496 273.343595 
L 332.112083 273.068383 
L 332.58867 272.517959 
L 333.065257 270.77747 
L 333.541844 269.951834 
L 334.018432 270.316264 
L 334.495019 228.679354 
L 334.971606 232.141703 
L 335.92478 240.979201 
L 336.401367 244.848603 
L 336.877954 245.551732 
L 337.831128 245.551732 
L 338.307715 233.888977 
L 338.784302 134.634427 
L 339.260889 198.416595 
L 339.737476 227.300392 
L 340.214063 135.110396 
L 340.69065 226.846283 
L 341.167237 153.10188 
L 341.643824 138.370334 
L 342.120411 222.134742 
L 342.596998 140.000576 
L 343.073585 209.35068 
L 343.550172 157.458853 
L 344.026759 135.031204 
L 344.503346 208.479135 
L 344.979933 141.322986 
L 345.45652 138.24937 
L 345.933107 219.535832 
L 346.409694 245.551732 
L 349.745803 245.551732 
L 350.22239 248.221423 
L 350.698977 246.315206 
L 351.175564 250.715169 
L 351.652151 252.499539 
L 352.128738 251.465941 
L 352.605325 256.377305 
L 353.081912 259.245408 
L 353.558499 263.123174 
L 354.035086 265.094723 
L 354.511673 264.341892 
L 354.98826 264.903428 
L 355.941435 272.493658 
L 356.418022 274.745975 
L 356.894609 278.580285 
L 357.371196 275.290254 
L 357.847783 276.698209 
L 358.32437 274.91178 
L 358.800957 275.187737 
L 359.277544 276.467157 
L 359.754131 276.102727 
L 360.230718 274.722552 
L 360.707305 270.999425 
L 361.183892 269.174934 
L 361.660479 272.302289 
L 362.137066 271.150627 
L 362.613653 269.08672 
L 363.09024 271.974659 
L 364.043414 269.403194 
L 364.996588 267.339286 
L 365.473175 272.769966 
L 365.949762 271.618304 
L 366.426349 270.945474 
L 366.902936 271.663724 
L 367.379523 274.985076 
L 367.85611 274.477519 
L 368.332697 273.565273 
L 368.809284 278.009563 
L 369.285871 277.336733 
L 369.762458 277.57615 
L 370.239045 276.185071 
L 370.715632 276.663904 
L 371.192219 275.751658 
L 371.668806 275.991075 
L 372.145393 275.078829 
L 372.62198 273.41961 
L 373.098567 275.289521 
L 373.575154 273.898442 
L 374.051741 278.371457 
L 374.528328 275.754572 
L 375.004915 275.709152 
L 375.481502 277.759279 
L 375.958089 275.769804 
L 376.434676 179.398237 
L 376.911263 196.813502 
L 377.387851 197.246042 
L 377.864438 198.049591 
L 378.341025 203.505209 
L 378.817612 203.55359 
L 379.294199 208.865581 
L 379.770786 215.68813 
L 380.247373 224.942311 
L 380.72396 238.552145 
L 381.200547 241.441736 
L 382.153721 245.551732 
L 384.536656 245.551732 
L 385.013243 180.271874 
L 385.48983 139.797155 
L 385.966417 216.840315 
L 386.443004 138.643429 
L 386.919591 203.004675 
L 387.396178 152.452848 
L 387.872765 142.668984 
L 388.349352 210.487202 
L 388.825939 136.731305 
L 389.302526 191.082263 
L 389.779113 153.981471 
L 390.2557 137.191598 
L 390.732287 207.182119 
L 391.208874 141.323896 
L 391.685461 199.791216 
L 392.162048 138.961765 
L 392.638635 136.248647 
L 393.115222 200.560601 
L 393.591809 131.598188 
L 394.068396 227.786099 
L 395.02157 242.732868 
L 395.498157 245.551732 
L 397.881092 245.551732 
L 398.357679 217.703473 
L 398.834267 135.371054 
L 399.310854 139.355922 
L 399.787441 227.917141 
L 400.264028 139.374106 
L 400.740615 219.268554 
L 401.217202 231.367577 
L 401.693789 198.566891 
L 402.170376 185.958107 
L 402.646963 184.078903 
L 403.12355 216.809732 
L 403.600137 217.347073 
L 404.076724 225.549493 
L 404.553311 229.16517 
L 405.029898 239.952385 
L 405.506485 244.157259 
L 405.983072 244.636091 
L 406.459659 250.471459 
L 407.412833 250.950292 
L 408.366007 258.95535 
L 408.842594 258.687209 
L 409.319181 258.253796 
L 409.795768 263.44506 
L 410.748942 261.113011 
L 411.225529 261.113011 
L 411.702116 267.022523 
L 412.178703 265.123888 
L 412.65529 264.211642 
L 413.131877 269.163489 
L 413.608464 267.264853 
L 414.085051 267.50427 
L 414.561638 266.592024 
L 415.038225 270.796897 
L 415.514812 269.166403 
L 415.991399 269.166403 
L 416.467986 268.014741 
L 416.944573 272.727171 
L 417.42116 273.206004 
L 417.897747 271.067952 
L 418.374334 271.546785 
L 418.850921 271.113372 
L 419.327508 268.496487 
L 419.804095 266.626576 
L 420.280683 271.817839 
L 420.75727 270.352617 
L 421.710444 270.261778 
L 422.187031 166.427262 
L 422.663618 178.010073 
L 423.140205 183.260826 
L 423.616792 182.405156 
L 424.093379 186.261917 
L 424.569966 186.871469 
L 425.046553 192.193453 
L 425.52314 205.019499 
L 425.999727 209.624264 
L 426.476314 218.008145 
L 427.429488 239.368933 
L 427.906075 245.551732 
L 428.382662 240.110963 
L 428.859249 137.64377 
L 429.335836 197.546566 
L 429.812423 209.867773 
L 430.28901 125.663089 
L 430.765597 127.025638 
L 431.242184 207.988301 
L 431.718771 125.542125 
L 432.195358 128.82565 
L 432.671945 191.882153 
L 433.148532 131.384243 
L 433.625119 199.35825 
L 434.101706 133.932993 
L 434.578293 125.610529 
L 435.05488 195.681284 
L 435.531467 123.865943 
L 436.008054 127.063465 
L 436.484641 133.538744 
L 436.961228 193.887005 
L 437.437815 129.370943 
L 437.914402 137.142819 
L 438.390989 198.44584 
L 438.867576 131.226305 
L 439.344163 136.218106 
L 439.82075 228.312849 
L 440.297337 236.694954 
L 440.773924 242.36992 
L 441.250511 245.551732 
L 443.633447 245.551732 
L 444.110034 213.931871 
L 444.586621 132.628857 
L 445.063208 137.024336 
L 445.539795 208.603247 
L 446.016382 225.561968 
L 446.492969 137.267895 
L 446.969556 220.938935 
L 447.446143 226.813584 
L 447.92273 192.912727 
L 448.399317 180.48918 
L 448.875904 220.810107 
L 449.352491 224.612225 
L 449.829078 230.04393 
L 450.305665 230.47904 
L 450.782252 233.098989 
L 451.258839 239.173773 
L 452.212013 248.809326 
L 452.6886 248.301769 
L 452.6886 248.301769 
" style="fill:none;stroke:#ff0000;stroke-width:0.5;"/>
   </g>
   <g id="patch_3">
    <path d="M 41.394 286.692 
L 41.394 108.23428 
" style="fill:none;stroke:#f0f0f0;stroke-linecap:square;stroke-linejoin:miter;stroke-width:3;"/>
   </g>
   <g id="patch_4">
    <path d="M 452.6886 286.692 
L 452.6886 108.23428 
" style="fill:none;stroke:#f0f0f0;stroke-linecap:square;stroke-linejoin:miter;stroke-width:3;"/>
   </g>
   <g id="patch_5">
    <path d="M 41.394 286.692 
L 452.6886 286.692 
" style="fill:none;stroke:#f0f0f0;stroke-linecap:square;stroke-linejoin:miter;stroke-width:3;"/>
   </g>
   <g id="patch_6">
    <path d="M 41.394 108.23428 
L 452.6886 108.23428 
" style="fill:none;stroke:#f0f0f0;stroke-linecap:square;stroke-linejoin:miter;stroke-width:3;"/>
   </g>
   <g id="legend_1">
    <g id="patch_7">
     <path d="M 46.648963 93.636234 
L 447.433637 93.636234 
Q 449.766037 93.636234 449.766037 91.303834 
L 449.766037 75.352404 
Q 449.766037 73.020004 447.433637 73.020004 
L 46.648963 73.020004 
Q 44.316563 73.020004 44.316563 75.352404 
L 44.316563 91.303834 
Q 44.316563 93.636234 46.648963 93.636234 
z
" style="fill:#f0f0f0;opacity:0.5;stroke:#cccccc;stroke-linejoin:miter;stroke-width:0.5;"/>
    </g>
    <g id="line2d_24">
     <path d="M 48.981363 82.464402 
L 72.305363 82.464402 
" style="fill:none;stroke:#000000;stroke-width:0.5;"/>
    </g>
    <g id="line2d_25"/>
    <g id="text_16">
     <!-- Measurement -->
     <defs>
      <path d="M 9.8125 72.90625 
L 24.515625 72.90625 
L 43.109375 23.296875 
L 61.8125 72.90625 
L 76.515625 72.90625 
L 76.515625 0 
L 66.890625 0 
L 66.890625 64.015625 
L 48.09375 14.015625 
L 38.1875 14.015625 
L 19.390625 64.015625 
L 19.390625 0 
L 9.8125 0 
z
" id="DejaVuSans-4d"/>
      <path d="M 44.28125 53.078125 
L 44.28125 44.578125 
Q 40.484375 46.53125 36.375 47.5 
Q 32.28125 48.484375 27.875 48.484375 
Q 21.1875 48.484375 17.84375 46.4375 
Q 14.5 44.390625 14.5 40.28125 
Q 14.5 37.15625 16.890625 35.375 
Q 19.28125 33.59375 26.515625 31.984375 
L 29.59375 31.296875 
Q 39.15625 29.25 43.1875 25.515625 
Q 47.21875 21.78125 47.21875 15.09375 
Q 47.21875 7.46875 41.1875 3.015625 
Q 35.15625 -1.421875 24.609375 -1.421875 
Q 20.21875 -1.421875 15.453125 -0.5625 
Q 10.6875 0.296875 5.421875 2 
L 5.421875 11.28125 
Q 10.40625 8.6875 15.234375 7.390625 
Q 20.0625 6.109375 24.8125 6.109375 
Q 31.15625 6.109375 34.5625 8.28125 
Q 37.984375 10.453125 37.984375 14.40625 
Q 37.984375 18.0625 35.515625 20.015625 
Q 33.0625 21.96875 24.703125 23.78125 
L 21.578125 24.515625 
Q 13.234375 26.265625 9.515625 29.90625 
Q 5.8125 33.546875 5.8125 39.890625 
Q 5.8125 47.609375 11.28125 51.796875 
Q 16.75 56 26.8125 56 
Q 31.78125 56 36.171875 55.265625 
Q 40.578125 54.546875 44.28125 53.078125 
z
" id="DejaVuSans-73"/>
      <path d="M 54.890625 33.015625 
L 54.890625 0 
L 45.90625 0 
L 45.90625 32.71875 
Q 45.90625 40.484375 42.875 44.328125 
Q 39.84375 48.1875 33.796875 48.1875 
Q 26.515625 48.1875 22.3125 43.546875 
Q 18.109375 38.921875 18.109375 30.90625 
L 18.109375 0 
L 9.078125 0 
L 9.078125 54.6875 
L 18.109375 54.6875 
L 18.109375 46.1875 
Q 21.34375 51.125 25.703125 53.5625 
Q 30.078125 56 35.796875 56 
Q 45.21875 56 50.046875 50.171875 
Q 54.890625 44.34375 54.890625 33.015625 
z
" id="DejaVuSans-6e"/>
     </defs>
     <g transform="translate(81.634963 86.546102)scale(0.11662 -0.11662)">
      <use xlink:href="#DejaVuSans-4d"/>
      <use x="86.279297" xlink:href="#DejaVuSans-65"/>
      <use x="147.802734" xlink:href="#DejaVuSans-61"/>
      <use x="209.082031" xlink:href="#DejaVuSans-73"/>
      <use x="261.181641" xlink:href="#DejaVuSans-75"/>
      <use x="324.560547" xlink:href="#DejaVuSans-72"/>
      <use x="365.642578" xlink:href="#DejaVuSans-65"/>
      <use x="427.166016" xlink:href="#DejaVuSans-6d"/>
      <use x="524.578125" xlink:href="#DejaVuSans-65"/>
      <use x="586.101562" xlink:href="#DejaVuSans-6e"/>
      <use x="649.480469" xlink:href="#DejaVuSans-74"/>
     </g>
    </g>
    <g id="line2d_26">
     <path d="M 185.273699 82.464402 
L 208.597699 82.464402 
" style="fill:none;stroke:#ff0000;stroke-width:0.5;"/>
    </g>
    <g id="line2d_27"/>
    <g id="text_17">
     <!-- Prediction(MAE = 3.491; Score = 0.85) -->
     <defs>
      <path d="M 19.671875 64.796875 
L 19.671875 37.40625 
L 32.078125 37.40625 
Q 38.96875 37.40625 42.71875 40.96875 
Q 46.484375 44.53125 46.484375 51.125 
Q 46.484375 57.671875 42.71875 61.234375 
Q 38.96875 64.796875 32.078125 64.796875 
z
M 9.8125 72.90625 
L 32.078125 72.90625 
Q 44.34375 72.90625 50.609375 67.359375 
Q 56.890625 61.8125 56.890625 51.125 
Q 56.890625 40.328125 50.609375 34.8125 
Q 44.34375 29.296875 32.078125 29.296875 
L 19.671875 29.296875 
L 19.671875 0 
L 9.8125 0 
z
" id="DejaVuSans-50"/>
      <path d="M 45.40625 46.390625 
L 45.40625 75.984375 
L 54.390625 75.984375 
L 54.390625 0 
L 45.40625 0 
L 45.40625 8.203125 
Q 42.578125 3.328125 38.25 0.953125 
Q 33.9375 -1.421875 27.875 -1.421875 
Q 17.96875 -1.421875 11.734375 6.484375 
Q 5.515625 14.40625 5.515625 27.296875 
Q 5.515625 40.1875 11.734375 48.09375 
Q 17.96875 56 27.875 56 
Q 33.9375 56 38.25 53.625 
Q 42.578125 51.265625 45.40625 46.390625 
z
M 14.796875 27.296875 
Q 14.796875 17.390625 18.875 11.75 
Q 22.953125 6.109375 30.078125 6.109375 
Q 37.203125 6.109375 41.296875 11.75 
Q 45.40625 17.390625 45.40625 27.296875 
Q 45.40625 37.203125 41.296875 42.84375 
Q 37.203125 48.484375 30.078125 48.484375 
Q 22.953125 48.484375 18.875 42.84375 
Q 14.796875 37.203125 14.796875 27.296875 
z
" id="DejaVuSans-64"/>
      <path d="M 31 75.875 
Q 24.46875 64.65625 21.28125 53.65625 
Q 18.109375 42.671875 18.109375 31.390625 
Q 18.109375 20.125 21.3125 9.0625 
Q 24.515625 -2 31 -13.1875 
L 23.1875 -13.1875 
Q 15.875 -1.703125 12.234375 9.375 
Q 8.59375 20.453125 8.59375 31.390625 
Q 8.59375 42.28125 12.203125 53.3125 
Q 15.828125 64.359375 23.1875 75.875 
z
" id="DejaVuSans-28"/>
      <path d="M 9.8125 72.90625 
L 55.90625 72.90625 
L 55.90625 64.59375 
L 19.671875 64.59375 
L 19.671875 43.015625 
L 54.390625 43.015625 
L 54.390625 34.71875 
L 19.671875 34.71875 
L 19.671875 8.296875 
L 56.78125 8.296875 
L 56.78125 0 
L 9.8125 0 
z
" id="DejaVuSans-45"/>
      <path d="M 10.59375 45.40625 
L 73.1875 45.40625 
L 73.1875 37.203125 
L 10.59375 37.203125 
z
M 10.59375 25.484375 
L 73.1875 25.484375 
L 73.1875 17.1875 
L 10.59375 17.1875 
z
" id="DejaVuSans-3d"/>
      <path d="M 10.6875 12.40625 
L 21 12.40625 
L 21 0 
L 10.6875 0 
z
" id="DejaVuSans-2e"/>
      <path d="M 11.71875 51.703125 
L 22.015625 51.703125 
L 22.015625 39.3125 
L 11.71875 39.3125 
z
M 11.71875 12.40625 
L 22.015625 12.40625 
L 22.015625 4 
L 14.015625 -11.625 
L 7.71875 -11.625 
L 11.71875 4 
z
" id="DejaVuSans-3b"/>
      <path d="M 53.515625 70.515625 
L 53.515625 60.890625 
Q 47.90625 63.578125 42.921875 64.890625 
Q 37.9375 66.21875 33.296875 66.21875 
Q 25.25 66.21875 20.875 63.09375 
Q 16.5 59.96875 16.5 54.203125 
Q 16.5 49.359375 19.40625 46.890625 
Q 22.3125 44.4375 30.421875 42.921875 
L 36.375 41.703125 
Q 47.40625 39.59375 52.65625 34.296875 
Q 57.90625 29 57.90625 20.125 
Q 57.90625 9.515625 50.796875 4.046875 
Q 43.703125 -1.421875 29.984375 -1.421875 
Q 24.8125 -1.421875 18.96875 -0.25 
Q 13.140625 0.921875 6.890625 3.21875 
L 6.890625 13.375 
Q 12.890625 10.015625 18.65625 8.296875 
Q 24.421875 6.59375 29.984375 6.59375 
Q 38.421875 6.59375 43.015625 9.90625 
Q 47.609375 13.234375 47.609375 19.390625 
Q 47.609375 24.75 44.3125 27.78125 
Q 41.015625 30.8125 33.5 32.328125 
L 27.484375 33.5 
Q 16.453125 35.6875 11.515625 40.375 
Q 6.59375 45.0625 6.59375 53.421875 
Q 6.59375 63.09375 13.40625 68.65625 
Q 20.21875 74.21875 32.171875 74.21875 
Q 37.3125 74.21875 42.625 73.28125 
Q 47.953125 72.359375 53.515625 70.515625 
z
" id="DejaVuSans-53"/>
      <path d="M 8.015625 75.875 
L 15.828125 75.875 
Q 23.140625 64.359375 26.78125 53.3125 
Q 30.421875 42.28125 30.421875 31.390625 
Q 30.421875 20.453125 26.78125 9.375 
Q 23.140625 -1.703125 15.828125 -13.1875 
L 8.015625 -13.1875 
Q 14.5 -2 17.703125 9.0625 
Q 20.90625 20.125 20.90625 31.390625 
Q 20.90625 42.671875 17.703125 53.65625 
Q 14.5 64.65625 8.015625 75.875 
z
" id="DejaVuSans-29"/>
     </defs>
     <g transform="translate(217.927299 86.546102)scale(0.11662 -0.11662)">
      <use xlink:href="#DejaVuSans-50"/>
      <use x="60.287109" xlink:href="#DejaVuSans-72"/>
      <use x="101.369141" xlink:href="#DejaVuSans-65"/>
      <use x="162.892578" xlink:href="#DejaVuSans-64"/>
      <use x="226.369141" xlink:href="#DejaVuSans-69"/>
      <use x="254.152344" xlink:href="#DejaVuSans-63"/>
      <use x="309.132812" xlink:href="#DejaVuSans-74"/>
      <use x="348.341797" xlink:href="#DejaVuSans-69"/>
      <use x="376.125" xlink:href="#DejaVuSans-6f"/>
      <use x="437.306641" xlink:href="#DejaVuSans-6e"/>
      <use x="500.685547" xlink:href="#DejaVuSans-28"/>
      <use x="539.699219" xlink:href="#DejaVuSans-4d"/>
      <use x="625.978516" xlink:href="#DejaVuSans-41"/>
      <use x="694.386719" xlink:href="#DejaVuSans-45"/>
      <use x="757.570312" xlink:href="#DejaVuSans-20"/>
      <use x="789.357422" xlink:href="#DejaVuSans-3d"/>
      <use x="873.146484" xlink:href="#DejaVuSans-20"/>
      <use x="904.933594" xlink:href="#DejaVuSans-33"/>
      <use x="968.556641" xlink:href="#DejaVuSans-2e"/>
      <use x="1000.34375" xlink:href="#DejaVuSans-34"/>
      <use x="1063.966797" xlink:href="#DejaVuSans-39"/>
      <use x="1127.589844" xlink:href="#DejaVuSans-31"/>
      <use x="1191.212891" xlink:href="#DejaVuSans-3b"/>
      <use x="1224.904297" xlink:href="#DejaVuSans-20"/>
      <use x="1256.691406" xlink:href="#DejaVuSans-53"/>
      <use x="1320.167969" xlink:href="#DejaVuSans-63"/>
      <use x="1375.148438" xlink:href="#DejaVuSans-6f"/>
      <use x="1436.330078" xlink:href="#DejaVuSans-72"/>
      <use x="1477.412109" xlink:href="#DejaVuSans-65"/>
      <use x="1538.935547" xlink:href="#DejaVuSans-20"/>
      <use x="1570.722656" xlink:href="#DejaVuSans-3d"/>
      <use x="1654.511719" xlink:href="#DejaVuSans-20"/>
      <use x="1686.298828" xlink:href="#DejaVuSans-30"/>
      <use x="1749.921875" xlink:href="#DejaVuSans-2e"/>
      <use x="1781.708984" xlink:href="#DejaVuSans-38"/>
      <use x="1845.332031" xlink:href="#DejaVuSans-35"/>
      <use x="1908.955078" xlink:href="#DejaVuSans-29"/>
     </g>
    </g>
   </g>
  </g>
 </g>
 <defs>
  <clipPath id="pe2490403c9">
   <rect height="178.45772" width="411.2946" x="41.394" y="108.23428"/>
  </clipPath>
 </defs>
</svg>
