<?xml version="1.0" encoding="utf-8" standalone="no"?>
<!DOCTYPE svg PUBLIC "-//W3C//DTD SVG 1.1//EN"
  "http://www.w3.org/Graphics/SVG/1.1/DTD/svg11.dtd">
<!-- Created with matplotlib (http://matplotlib.org/) -->
<svg height="707.76pt" version="1.1" viewBox="0 0 1382.4 707.76" width="1382.4pt" xmlns="http://www.w3.org/2000/svg" xmlns:xlink="http://www.w3.org/1999/xlink">
 <defs>
  <style type="text/css">
*{stroke-linecap:butt;stroke-linejoin:round;}
  </style>
 </defs>
 <g id="figure_1">
  <g id="patch_1">
   <path d="M 0 707.76 
L 1382.4 707.76 
L 1382.4 0 
L 0 0 
z
" style="fill:#ffffff;"/>
  </g>
  <g id="axes_1">
   <g id="patch_2">
    <path d="M 172.8 629.9064 
L 1244.16 629.9064 
L 1244.16 84.9312 
L 172.8 84.9312 
z
" style="fill:#ffffff;"/>
   </g>
   <g id="matplotlib.axis_1">
    <g id="xtick_1">
     <g id="line2d_1">
      <defs>
       <path d="M 0 0 
L 0 3.5 
" id="mf6f9102bcb" style="stroke:#000000;stroke-width:0.8;"/>
      </defs>
      <g>
       <use style="stroke:#000000;stroke-width:0.8;" x="172.8" xlink:href="#mf6f9102bcb" y="629.9064"/>
      </g>
     </g>
     <g id="text_1">
      <!-- 01 -->
      <defs>
       <path d="M 31.78125 66.40625 
Q 24.171875 66.40625 20.328125 58.90625 
Q 16.5 51.421875 16.5 36.375 
Q 16.5 21.390625 20.328125 13.890625 
Q 24.171875 6.390625 31.78125 6.390625 
Q 39.453125 6.390625 43.28125 13.890625 
Q 47.125 21.390625 47.125 36.375 
Q 47.125 51.421875 43.28125 58.90625 
Q 39.453125 66.40625 31.78125 66.40625 
z
M 31.78125 74.21875 
Q 44.046875 74.21875 50.515625 64.515625 
Q 56.984375 54.828125 56.984375 36.375 
Q 56.984375 17.96875 50.515625 8.265625 
Q 44.046875 -1.421875 31.78125 -1.421875 
Q 19.53125 -1.421875 13.0625 8.265625 
Q 6.59375 17.96875 6.59375 36.375 
Q 6.59375 54.828125 13.0625 64.515625 
Q 19.53125 74.21875 31.78125 74.21875 
z
" id="DejaVuSans-30"/>
       <path d="M 12.40625 8.296875 
L 28.515625 8.296875 
L 28.515625 63.921875 
L 10.984375 60.40625 
L 10.984375 69.390625 
L 28.421875 72.90625 
L 38.28125 72.90625 
L 38.28125 8.296875 
L 54.390625 8.296875 
L 54.390625 0 
L 12.40625 0 
z
" id="DejaVuSans-31"/>
      </defs>
      <g transform="translate(166.4375 644.504838)scale(0.1 -0.1)">
       <use xlink:href="#DejaVuSans-30"/>
       <use x="63.623047" xlink:href="#DejaVuSans-31"/>
      </g>
      <!-- Aug -->
      <defs>
       <path d="M 34.1875 63.1875 
L 20.796875 26.90625 
L 47.609375 26.90625 
z
M 28.609375 72.90625 
L 39.796875 72.90625 
L 67.578125 0 
L 57.328125 0 
L 50.6875 18.703125 
L 17.828125 18.703125 
L 11.1875 0 
L 0.78125 0 
z
" id="DejaVuSans-41"/>
       <path d="M 8.5 21.578125 
L 8.5 54.6875 
L 17.484375 54.6875 
L 17.484375 21.921875 
Q 17.484375 14.15625 20.5 10.265625 
Q 23.53125 6.390625 29.59375 6.390625 
Q 36.859375 6.390625 41.078125 11.03125 
Q 45.3125 15.671875 45.3125 23.6875 
L 45.3125 54.6875 
L 54.296875 54.6875 
L 54.296875 0 
L 45.3125 0 
L 45.3125 8.40625 
Q 42.046875 3.421875 37.71875 1 
Q 33.40625 -1.421875 27.6875 -1.421875 
Q 18.265625 -1.421875 13.375 4.4375 
Q 8.5 10.296875 8.5 21.578125 
z
M 31.109375 56 
z
" id="DejaVuSans-75"/>
       <path d="M 45.40625 27.984375 
Q 45.40625 37.75 41.375 43.109375 
Q 37.359375 48.484375 30.078125 48.484375 
Q 22.859375 48.484375 18.828125 43.109375 
Q 14.796875 37.75 14.796875 27.984375 
Q 14.796875 18.265625 18.828125 12.890625 
Q 22.859375 7.515625 30.078125 7.515625 
Q 37.359375 7.515625 41.375 12.890625 
Q 45.40625 18.265625 45.40625 27.984375 
z
M 54.390625 6.78125 
Q 54.390625 -7.171875 48.1875 -13.984375 
Q 42 -20.796875 29.203125 -20.796875 
Q 24.46875 -20.796875 20.265625 -20.09375 
Q 16.0625 -19.390625 12.109375 -17.921875 
L 12.109375 -9.1875 
Q 16.0625 -11.328125 19.921875 -12.34375 
Q 23.78125 -13.375 27.78125 -13.375 
Q 36.625 -13.375 41.015625 -8.765625 
Q 45.40625 -4.15625 45.40625 5.171875 
L 45.40625 9.625 
Q 42.625 4.78125 38.28125 2.390625 
Q 33.9375 0 27.875 0 
Q 17.828125 0 11.671875 7.65625 
Q 5.515625 15.328125 5.515625 27.984375 
Q 5.515625 40.671875 11.671875 48.328125 
Q 17.828125 56 27.875 56 
Q 33.9375 56 38.28125 53.609375 
Q 42.625 51.21875 45.40625 46.390625 
L 45.40625 54.6875 
L 54.390625 54.6875 
z
" id="DejaVuSans-67"/>
      </defs>
      <g transform="translate(163.036719 655.70265)scale(0.1 -0.1)">
       <use xlink:href="#DejaVuSans-41"/>
       <use x="68.408203" xlink:href="#DejaVuSans-75"/>
       <use x="131.787109" xlink:href="#DejaVuSans-67"/>
      </g>
      <!-- 2016 -->
      <defs>
       <path d="M 19.1875 8.296875 
L 53.609375 8.296875 
L 53.609375 0 
L 7.328125 0 
L 7.328125 8.296875 
Q 12.9375 14.109375 22.625 23.890625 
Q 32.328125 33.6875 34.8125 36.53125 
Q 39.546875 41.84375 41.421875 45.53125 
Q 43.3125 49.21875 43.3125 52.78125 
Q 43.3125 58.59375 39.234375 62.25 
Q 35.15625 65.921875 28.609375 65.921875 
Q 23.96875 65.921875 18.8125 64.3125 
Q 13.671875 62.703125 7.8125 59.421875 
L 7.8125 69.390625 
Q 13.765625 71.78125 18.9375 73 
Q 24.125 74.21875 28.421875 74.21875 
Q 39.75 74.21875 46.484375 68.546875 
Q 53.21875 62.890625 53.21875 53.421875 
Q 53.21875 48.921875 51.53125 44.890625 
Q 49.859375 40.875 45.40625 35.40625 
Q 44.1875 33.984375 37.640625 27.21875 
Q 31.109375 20.453125 19.1875 8.296875 
z
" id="DejaVuSans-32"/>
       <path d="M 33.015625 40.375 
Q 26.375 40.375 22.484375 35.828125 
Q 18.609375 31.296875 18.609375 23.390625 
Q 18.609375 15.53125 22.484375 10.953125 
Q 26.375 6.390625 33.015625 6.390625 
Q 39.65625 6.390625 43.53125 10.953125 
Q 47.40625 15.53125 47.40625 23.390625 
Q 47.40625 31.296875 43.53125 35.828125 
Q 39.65625 40.375 33.015625 40.375 
z
M 52.59375 71.296875 
L 52.59375 62.3125 
Q 48.875 64.0625 45.09375 64.984375 
Q 41.3125 65.921875 37.59375 65.921875 
Q 27.828125 65.921875 22.671875 59.328125 
Q 17.53125 52.734375 16.796875 39.40625 
Q 19.671875 43.65625 24.015625 45.921875 
Q 28.375 48.1875 33.59375 48.1875 
Q 44.578125 48.1875 50.953125 41.515625 
Q 57.328125 34.859375 57.328125 23.390625 
Q 57.328125 12.15625 50.6875 5.359375 
Q 44.046875 -1.421875 33.015625 -1.421875 
Q 20.359375 -1.421875 13.671875 8.265625 
Q 6.984375 17.96875 6.984375 36.375 
Q 6.984375 53.65625 15.1875 63.9375 
Q 23.390625 74.21875 37.203125 74.21875 
Q 40.921875 74.21875 44.703125 73.484375 
Q 48.484375 72.75 52.59375 71.296875 
z
" id="DejaVuSans-36"/>
      </defs>
      <g transform="translate(160.075 666.900463)scale(0.1 -0.1)">
       <use xlink:href="#DejaVuSans-32"/>
       <use x="63.623047" xlink:href="#DejaVuSans-30"/>
       <use x="127.246094" xlink:href="#DejaVuSans-31"/>
       <use x="190.869141" xlink:href="#DejaVuSans-36"/>
      </g>
     </g>
    </g>
    <g id="xtick_2">
     <g id="line2d_2">
      <g>
       <use style="stroke:#000000;stroke-width:0.8;" x="1244.16" xlink:href="#mf6f9102bcb" y="629.9064"/>
      </g>
     </g>
    </g>
    <g id="xtick_3">
     <g id="line2d_3">
      <defs>
       <path d="M 0 0 
L 0 2 
" id="mb306ae2fde" style="stroke:#000000;stroke-width:0.6;"/>
      </defs>
      <g>
       <use style="stroke:#000000;stroke-width:0.6;" x="172.8" xlink:href="#mb306ae2fde" y="629.9064"/>
      </g>
     </g>
    </g>
    <g id="xtick_4">
     <g id="line2d_4">
      <g>
       <use style="stroke:#000000;stroke-width:0.6;" x="239.803622" xlink:href="#mb306ae2fde" y="629.9064"/>
      </g>
     </g>
     <g id="text_2">
      <!-- 02 -->
      <g transform="translate(233.441122 642.904837)scale(0.1 -0.1)">
       <use xlink:href="#DejaVuSans-30"/>
       <use x="63.623047" xlink:href="#DejaVuSans-32"/>
      </g>
     </g>
    </g>
    <g id="xtick_5">
     <g id="line2d_5">
      <g>
       <use style="stroke:#000000;stroke-width:0.6;" x="306.807244" xlink:href="#mb306ae2fde" y="629.9064"/>
      </g>
     </g>
     <g id="text_3">
      <!-- 03 -->
      <defs>
       <path d="M 40.578125 39.3125 
Q 47.65625 37.796875 51.625 33 
Q 55.609375 28.21875 55.609375 21.1875 
Q 55.609375 10.40625 48.1875 4.484375 
Q 40.765625 -1.421875 27.09375 -1.421875 
Q 22.515625 -1.421875 17.65625 -0.515625 
Q 12.796875 0.390625 7.625 2.203125 
L 7.625 11.71875 
Q 11.71875 9.328125 16.59375 8.109375 
Q 21.484375 6.890625 26.8125 6.890625 
Q 36.078125 6.890625 40.9375 10.546875 
Q 45.796875 14.203125 45.796875 21.1875 
Q 45.796875 27.640625 41.28125 31.265625 
Q 36.765625 34.90625 28.71875 34.90625 
L 20.21875 34.90625 
L 20.21875 43.015625 
L 29.109375 43.015625 
Q 36.375 43.015625 40.234375 45.921875 
Q 44.09375 48.828125 44.09375 54.296875 
Q 44.09375 59.90625 40.109375 62.90625 
Q 36.140625 65.921875 28.71875 65.921875 
Q 24.65625 65.921875 20.015625 65.03125 
Q 15.375 64.15625 9.8125 62.3125 
L 9.8125 71.09375 
Q 15.4375 72.65625 20.34375 73.4375 
Q 25.25 74.21875 29.59375 74.21875 
Q 40.828125 74.21875 47.359375 69.109375 
Q 53.90625 64.015625 53.90625 55.328125 
Q 53.90625 49.265625 50.4375 45.09375 
Q 46.96875 40.921875 40.578125 39.3125 
z
" id="DejaVuSans-33"/>
      </defs>
      <g transform="translate(300.444744 642.904837)scale(0.1 -0.1)">
       <use xlink:href="#DejaVuSans-30"/>
       <use x="63.623047" xlink:href="#DejaVuSans-33"/>
      </g>
     </g>
    </g>
    <g id="xtick_6">
     <g id="line2d_6">
      <g>
       <use style="stroke:#000000;stroke-width:0.6;" x="373.810866" xlink:href="#mb306ae2fde" y="629.9064"/>
      </g>
     </g>
     <g id="text_4">
      <!-- 04 -->
      <defs>
       <path d="M 37.796875 64.3125 
L 12.890625 25.390625 
L 37.796875 25.390625 
z
M 35.203125 72.90625 
L 47.609375 72.90625 
L 47.609375 25.390625 
L 58.015625 25.390625 
L 58.015625 17.1875 
L 47.609375 17.1875 
L 47.609375 0 
L 37.796875 0 
L 37.796875 17.1875 
L 4.890625 17.1875 
L 4.890625 26.703125 
z
" id="DejaVuSans-34"/>
      </defs>
      <g transform="translate(367.448366 642.904837)scale(0.1 -0.1)">
       <use xlink:href="#DejaVuSans-30"/>
       <use x="63.623047" xlink:href="#DejaVuSans-34"/>
      </g>
     </g>
    </g>
    <g id="xtick_7">
     <g id="line2d_7">
      <g>
       <use style="stroke:#000000;stroke-width:0.6;" x="440.814489" xlink:href="#mb306ae2fde" y="629.9064"/>
      </g>
     </g>
     <g id="text_5">
      <!-- 05 -->
      <defs>
       <path d="M 10.796875 72.90625 
L 49.515625 72.90625 
L 49.515625 64.59375 
L 19.828125 64.59375 
L 19.828125 46.734375 
Q 21.96875 47.46875 24.109375 47.828125 
Q 26.265625 48.1875 28.421875 48.1875 
Q 40.625 48.1875 47.75 41.5 
Q 54.890625 34.8125 54.890625 23.390625 
Q 54.890625 11.625 47.5625 5.09375 
Q 40.234375 -1.421875 26.90625 -1.421875 
Q 22.3125 -1.421875 17.546875 -0.640625 
Q 12.796875 0.140625 7.71875 1.703125 
L 7.71875 11.625 
Q 12.109375 9.234375 16.796875 8.0625 
Q 21.484375 6.890625 26.703125 6.890625 
Q 35.15625 6.890625 40.078125 11.328125 
Q 45.015625 15.765625 45.015625 23.390625 
Q 45.015625 31 40.078125 35.4375 
Q 35.15625 39.890625 26.703125 39.890625 
Q 22.75 39.890625 18.8125 39.015625 
Q 14.890625 38.140625 10.796875 36.28125 
z
" id="DejaVuSans-35"/>
      </defs>
      <g transform="translate(434.451989 642.904837)scale(0.1 -0.1)">
       <use xlink:href="#DejaVuSans-30"/>
       <use x="63.623047" xlink:href="#DejaVuSans-35"/>
      </g>
     </g>
    </g>
    <g id="xtick_8">
     <g id="line2d_8">
      <g>
       <use style="stroke:#000000;stroke-width:0.6;" x="507.818111" xlink:href="#mb306ae2fde" y="629.9064"/>
      </g>
     </g>
     <g id="text_6">
      <!-- 06 -->
      <g transform="translate(501.455611 642.904837)scale(0.1 -0.1)">
       <use xlink:href="#DejaVuSans-30"/>
       <use x="63.623047" xlink:href="#DejaVuSans-36"/>
      </g>
     </g>
    </g>
    <g id="xtick_9">
     <g id="line2d_9">
      <g>
       <use style="stroke:#000000;stroke-width:0.6;" x="574.821733" xlink:href="#mb306ae2fde" y="629.9064"/>
      </g>
     </g>
     <g id="text_7">
      <!-- 07 -->
      <defs>
       <path d="M 8.203125 72.90625 
L 55.078125 72.90625 
L 55.078125 68.703125 
L 28.609375 0 
L 18.3125 0 
L 43.21875 64.59375 
L 8.203125 64.59375 
z
" id="DejaVuSans-37"/>
      </defs>
      <g transform="translate(568.459233 642.904837)scale(0.1 -0.1)">
       <use xlink:href="#DejaVuSans-30"/>
       <use x="63.623047" xlink:href="#DejaVuSans-37"/>
      </g>
     </g>
    </g>
    <g id="xtick_10">
     <g id="line2d_10">
      <g>
       <use style="stroke:#000000;stroke-width:0.6;" x="641.825355" xlink:href="#mb306ae2fde" y="629.9064"/>
      </g>
     </g>
     <g id="text_8">
      <!-- 08 -->
      <defs>
       <path d="M 31.78125 34.625 
Q 24.75 34.625 20.71875 30.859375 
Q 16.703125 27.09375 16.703125 20.515625 
Q 16.703125 13.921875 20.71875 10.15625 
Q 24.75 6.390625 31.78125 6.390625 
Q 38.8125 6.390625 42.859375 10.171875 
Q 46.921875 13.96875 46.921875 20.515625 
Q 46.921875 27.09375 42.890625 30.859375 
Q 38.875 34.625 31.78125 34.625 
z
M 21.921875 38.8125 
Q 15.578125 40.375 12.03125 44.71875 
Q 8.5 49.078125 8.5 55.328125 
Q 8.5 64.0625 14.71875 69.140625 
Q 20.953125 74.21875 31.78125 74.21875 
Q 42.671875 74.21875 48.875 69.140625 
Q 55.078125 64.0625 55.078125 55.328125 
Q 55.078125 49.078125 51.53125 44.71875 
Q 48 40.375 41.703125 38.8125 
Q 48.828125 37.15625 52.796875 32.3125 
Q 56.78125 27.484375 56.78125 20.515625 
Q 56.78125 9.90625 50.3125 4.234375 
Q 43.84375 -1.421875 31.78125 -1.421875 
Q 19.734375 -1.421875 13.25 4.234375 
Q 6.78125 9.90625 6.78125 20.515625 
Q 6.78125 27.484375 10.78125 32.3125 
Q 14.796875 37.15625 21.921875 38.8125 
z
M 18.3125 54.390625 
Q 18.3125 48.734375 21.84375 45.5625 
Q 25.390625 42.390625 31.78125 42.390625 
Q 38.140625 42.390625 41.71875 45.5625 
Q 45.3125 48.734375 45.3125 54.390625 
Q 45.3125 60.0625 41.71875 63.234375 
Q 38.140625 66.40625 31.78125 66.40625 
Q 25.390625 66.40625 21.84375 63.234375 
Q 18.3125 60.0625 18.3125 54.390625 
z
" id="DejaVuSans-38"/>
      </defs>
      <g transform="translate(635.462855 642.904837)scale(0.1 -0.1)">
       <use xlink:href="#DejaVuSans-30"/>
       <use x="63.623047" xlink:href="#DejaVuSans-38"/>
      </g>
     </g>
    </g>
    <g id="xtick_11">
     <g id="line2d_11">
      <g>
       <use style="stroke:#000000;stroke-width:0.6;" x="708.828977" xlink:href="#mb306ae2fde" y="629.9064"/>
      </g>
     </g>
     <g id="text_9">
      <!-- 09 -->
      <defs>
       <path d="M 10.984375 1.515625 
L 10.984375 10.5 
Q 14.703125 8.734375 18.5 7.8125 
Q 22.3125 6.890625 25.984375 6.890625 
Q 35.75 6.890625 40.890625 13.453125 
Q 46.046875 20.015625 46.78125 33.40625 
Q 43.953125 29.203125 39.59375 26.953125 
Q 35.25 24.703125 29.984375 24.703125 
Q 19.046875 24.703125 12.671875 31.3125 
Q 6.296875 37.9375 6.296875 49.421875 
Q 6.296875 60.640625 12.9375 67.421875 
Q 19.578125 74.21875 30.609375 74.21875 
Q 43.265625 74.21875 49.921875 64.515625 
Q 56.59375 54.828125 56.59375 36.375 
Q 56.59375 19.140625 48.40625 8.859375 
Q 40.234375 -1.421875 26.421875 -1.421875 
Q 22.703125 -1.421875 18.890625 -0.6875 
Q 15.09375 0.046875 10.984375 1.515625 
z
M 30.609375 32.421875 
Q 37.25 32.421875 41.125 36.953125 
Q 45.015625 41.5 45.015625 49.421875 
Q 45.015625 57.28125 41.125 61.84375 
Q 37.25 66.40625 30.609375 66.40625 
Q 23.96875 66.40625 20.09375 61.84375 
Q 16.21875 57.28125 16.21875 49.421875 
Q 16.21875 41.5 20.09375 36.953125 
Q 23.96875 32.421875 30.609375 32.421875 
z
" id="DejaVuSans-39"/>
      </defs>
      <g transform="translate(702.466477 642.904837)scale(0.1 -0.1)">
       <use xlink:href="#DejaVuSans-30"/>
       <use x="63.623047" xlink:href="#DejaVuSans-39"/>
      </g>
     </g>
    </g>
    <g id="xtick_12">
     <g id="line2d_12">
      <g>
       <use style="stroke:#000000;stroke-width:0.6;" x="775.832599" xlink:href="#mb306ae2fde" y="629.9064"/>
      </g>
     </g>
     <g id="text_10">
      <!-- 10 -->
      <g transform="translate(769.470099 642.904837)scale(0.1 -0.1)">
       <use xlink:href="#DejaVuSans-31"/>
       <use x="63.623047" xlink:href="#DejaVuSans-30"/>
      </g>
     </g>
    </g>
    <g id="xtick_13">
     <g id="line2d_13">
      <g>
       <use style="stroke:#000000;stroke-width:0.6;" x="842.836221" xlink:href="#mb306ae2fde" y="629.9064"/>
      </g>
     </g>
     <g id="text_11">
      <!-- 11 -->
      <g transform="translate(836.473721 642.904837)scale(0.1 -0.1)">
       <use xlink:href="#DejaVuSans-31"/>
       <use x="63.623047" xlink:href="#DejaVuSans-31"/>
      </g>
     </g>
    </g>
    <g id="xtick_14">
     <g id="line2d_14">
      <g>
       <use style="stroke:#000000;stroke-width:0.6;" x="909.839844" xlink:href="#mb306ae2fde" y="629.9064"/>
      </g>
     </g>
     <g id="text_12">
      <!-- 12 -->
      <g transform="translate(903.477344 642.904837)scale(0.1 -0.1)">
       <use xlink:href="#DejaVuSans-31"/>
       <use x="63.623047" xlink:href="#DejaVuSans-32"/>
      </g>
     </g>
    </g>
    <g id="xtick_15">
     <g id="line2d_15">
      <g>
       <use style="stroke:#000000;stroke-width:0.6;" x="976.843466" xlink:href="#mb306ae2fde" y="629.9064"/>
      </g>
     </g>
     <g id="text_13">
      <!-- 13 -->
      <g transform="translate(970.480966 642.904837)scale(0.1 -0.1)">
       <use xlink:href="#DejaVuSans-31"/>
       <use x="63.623047" xlink:href="#DejaVuSans-33"/>
      </g>
     </g>
    </g>
    <g id="xtick_16">
     <g id="line2d_16">
      <g>
       <use style="stroke:#000000;stroke-width:0.6;" x="1043.847088" xlink:href="#mb306ae2fde" y="629.9064"/>
      </g>
     </g>
     <g id="text_14">
      <!-- 14 -->
      <g transform="translate(1037.484588 642.904837)scale(0.1 -0.1)">
       <use xlink:href="#DejaVuSans-31"/>
       <use x="63.623047" xlink:href="#DejaVuSans-34"/>
      </g>
     </g>
    </g>
    <g id="xtick_17">
     <g id="line2d_17">
      <g>
       <use style="stroke:#000000;stroke-width:0.6;" x="1110.85071" xlink:href="#mb306ae2fde" y="629.9064"/>
      </g>
     </g>
     <g id="text_15">
      <!-- 15 -->
      <g transform="translate(1104.48821 642.904837)scale(0.1 -0.1)">
       <use xlink:href="#DejaVuSans-31"/>
       <use x="63.623047" xlink:href="#DejaVuSans-35"/>
      </g>
     </g>
    </g>
    <g id="xtick_18">
     <g id="line2d_18">
      <g>
       <use style="stroke:#000000;stroke-width:0.6;" x="1177.854332" xlink:href="#mb306ae2fde" y="629.9064"/>
      </g>
     </g>
     <g id="text_16">
      <!-- 16 -->
      <g transform="translate(1171.491832 642.904837)scale(0.1 -0.1)">
       <use xlink:href="#DejaVuSans-31"/>
       <use x="63.623047" xlink:href="#DejaVuSans-36"/>
      </g>
     </g>
    </g>
    <g id="text_17">
     <!-- Zeit -->
     <defs>
      <path d="M 5.609375 72.90625 
L 62.890625 72.90625 
L 62.890625 65.375 
L 16.796875 8.296875 
L 64.015625 8.296875 
L 64.015625 0 
L 4.5 0 
L 4.5 7.515625 
L 50.59375 64.59375 
L 5.609375 64.59375 
z
" id="DejaVuSans-5a"/>
      <path d="M 56.203125 29.59375 
L 56.203125 25.203125 
L 14.890625 25.203125 
Q 15.484375 15.921875 20.484375 11.0625 
Q 25.484375 6.203125 34.421875 6.203125 
Q 39.59375 6.203125 44.453125 7.46875 
Q 49.3125 8.734375 54.109375 11.28125 
L 54.109375 2.78125 
Q 49.265625 0.734375 44.1875 -0.34375 
Q 39.109375 -1.421875 33.890625 -1.421875 
Q 20.796875 -1.421875 13.15625 6.1875 
Q 5.515625 13.8125 5.515625 26.8125 
Q 5.515625 40.234375 12.765625 48.109375 
Q 20.015625 56 32.328125 56 
Q 43.359375 56 49.78125 48.890625 
Q 56.203125 41.796875 56.203125 29.59375 
z
M 47.21875 32.234375 
Q 47.125 39.59375 43.09375 43.984375 
Q 39.0625 48.390625 32.421875 48.390625 
Q 24.90625 48.390625 20.390625 44.140625 
Q 15.875 39.890625 15.1875 32.171875 
z
" id="DejaVuSans-65"/>
      <path d="M 9.421875 54.6875 
L 18.40625 54.6875 
L 18.40625 0 
L 9.421875 0 
z
M 9.421875 75.984375 
L 18.40625 75.984375 
L 18.40625 64.59375 
L 9.421875 64.59375 
z
" id="DejaVuSans-69"/>
      <path d="M 18.3125 70.21875 
L 18.3125 54.6875 
L 36.8125 54.6875 
L 36.8125 47.703125 
L 18.3125 47.703125 
L 18.3125 18.015625 
Q 18.3125 11.328125 20.140625 9.421875 
Q 21.96875 7.515625 27.59375 7.515625 
L 36.8125 7.515625 
L 36.8125 0 
L 27.59375 0 
Q 17.1875 0 13.234375 3.875 
Q 9.28125 7.765625 9.28125 18.015625 
L 9.28125 47.703125 
L 2.6875 47.703125 
L 2.6875 54.6875 
L 9.28125 54.6875 
L 9.28125 70.21875 
z
" id="DejaVuSans-74"/>
     </defs>
     <g transform="translate(698.629219 680.578588)scale(0.1 -0.1)">
      <use xlink:href="#DejaVuSans-5a"/>
      <use x="68.505859" xlink:href="#DejaVuSans-65"/>
      <use x="130.029297" xlink:href="#DejaVuSans-69"/>
      <use x="157.8125" xlink:href="#DejaVuSans-74"/>
     </g>
    </g>
   </g>
   <g id="matplotlib.axis_2">
    <g id="ytick_1">
     <g id="line2d_19">
      <defs>
       <path d="M 0 0 
L -3.5 0 
" id="m23e06fd009" style="stroke:#000000;stroke-width:0.8;"/>
      </defs>
      <g>
       <use style="stroke:#000000;stroke-width:0.8;" x="172.8" xlink:href="#m23e06fd009" y="605.1348"/>
      </g>
     </g>
     <g id="text_18">
      <!-- 0 -->
      <g transform="translate(159.4375 608.934019)scale(0.1 -0.1)">
       <use xlink:href="#DejaVuSans-30"/>
      </g>
     </g>
    </g>
    <g id="ytick_2">
     <g id="line2d_20">
      <g>
       <use style="stroke:#000000;stroke-width:0.8;" x="172.8" xlink:href="#m23e06fd009" y="525.738646"/>
      </g>
     </g>
     <g id="text_19">
      <!-- 5 -->
      <g transform="translate(159.4375 529.537865)scale(0.1 -0.1)">
       <use xlink:href="#DejaVuSans-35"/>
      </g>
     </g>
    </g>
    <g id="ytick_3">
     <g id="line2d_21">
      <g>
       <use style="stroke:#000000;stroke-width:0.8;" x="172.8" xlink:href="#m23e06fd009" y="446.342492"/>
      </g>
     </g>
     <g id="text_20">
      <!-- 10 -->
      <g transform="translate(153.075 450.141711)scale(0.1 -0.1)">
       <use xlink:href="#DejaVuSans-31"/>
       <use x="63.623047" xlink:href="#DejaVuSans-30"/>
      </g>
     </g>
    </g>
    <g id="ytick_4">
     <g id="line2d_22">
      <g>
       <use style="stroke:#000000;stroke-width:0.8;" x="172.8" xlink:href="#m23e06fd009" y="366.946338"/>
      </g>
     </g>
     <g id="text_21">
      <!-- 15 -->
      <g transform="translate(153.075 370.745557)scale(0.1 -0.1)">
       <use xlink:href="#DejaVuSans-31"/>
       <use x="63.623047" xlink:href="#DejaVuSans-35"/>
      </g>
     </g>
    </g>
    <g id="ytick_5">
     <g id="line2d_23">
      <g>
       <use style="stroke:#000000;stroke-width:0.8;" x="172.8" xlink:href="#m23e06fd009" y="287.550185"/>
      </g>
     </g>
     <g id="text_22">
      <!-- 20 -->
      <g transform="translate(153.075 291.349403)scale(0.1 -0.1)">
       <use xlink:href="#DejaVuSans-32"/>
       <use x="63.623047" xlink:href="#DejaVuSans-30"/>
      </g>
     </g>
    </g>
    <g id="ytick_6">
     <g id="line2d_24">
      <g>
       <use style="stroke:#000000;stroke-width:0.8;" x="172.8" xlink:href="#m23e06fd009" y="208.154031"/>
      </g>
     </g>
     <g id="text_23">
      <!-- 25 -->
      <g transform="translate(153.075 211.95325)scale(0.1 -0.1)">
       <use xlink:href="#DejaVuSans-32"/>
       <use x="63.623047" xlink:href="#DejaVuSans-35"/>
      </g>
     </g>
    </g>
    <g id="ytick_7">
     <g id="line2d_25">
      <g>
       <use style="stroke:#000000;stroke-width:0.8;" x="172.8" xlink:href="#m23e06fd009" y="128.757877"/>
      </g>
     </g>
     <g id="text_24">
      <!-- 30 -->
      <g transform="translate(153.075 132.557096)scale(0.1 -0.1)">
       <use xlink:href="#DejaVuSans-33"/>
       <use x="63.623047" xlink:href="#DejaVuSans-30"/>
      </g>
     </g>
    </g>
    <g id="text_25">
     <!-- Gesamter Leistungsverbrauch in kW -->
     <defs>
      <path d="M 59.515625 10.40625 
L 59.515625 29.984375 
L 43.40625 29.984375 
L 43.40625 38.09375 
L 69.28125 38.09375 
L 69.28125 6.78125 
Q 63.578125 2.734375 56.6875 0.65625 
Q 49.8125 -1.421875 42 -1.421875 
Q 24.90625 -1.421875 15.25 8.5625 
Q 5.609375 18.5625 5.609375 36.375 
Q 5.609375 54.25 15.25 64.234375 
Q 24.90625 74.21875 42 74.21875 
Q 49.125 74.21875 55.546875 72.453125 
Q 61.96875 70.703125 67.390625 67.28125 
L 67.390625 56.78125 
Q 61.921875 61.421875 55.765625 63.765625 
Q 49.609375 66.109375 42.828125 66.109375 
Q 29.4375 66.109375 22.71875 58.640625 
Q 16.015625 51.171875 16.015625 36.375 
Q 16.015625 21.625 22.71875 14.15625 
Q 29.4375 6.6875 42.828125 6.6875 
Q 48.046875 6.6875 52.140625 7.59375 
Q 56.25 8.5 59.515625 10.40625 
z
" id="DejaVuSans-47"/>
      <path d="M 44.28125 53.078125 
L 44.28125 44.578125 
Q 40.484375 46.53125 36.375 47.5 
Q 32.28125 48.484375 27.875 48.484375 
Q 21.1875 48.484375 17.84375 46.4375 
Q 14.5 44.390625 14.5 40.28125 
Q 14.5 37.15625 16.890625 35.375 
Q 19.28125 33.59375 26.515625 31.984375 
L 29.59375 31.296875 
Q 39.15625 29.25 43.1875 25.515625 
Q 47.21875 21.78125 47.21875 15.09375 
Q 47.21875 7.46875 41.1875 3.015625 
Q 35.15625 -1.421875 24.609375 -1.421875 
Q 20.21875 -1.421875 15.453125 -0.5625 
Q 10.6875 0.296875 5.421875 2 
L 5.421875 11.28125 
Q 10.40625 8.6875 15.234375 7.390625 
Q 20.0625 6.109375 24.8125 6.109375 
Q 31.15625 6.109375 34.5625 8.28125 
Q 37.984375 10.453125 37.984375 14.40625 
Q 37.984375 18.0625 35.515625 20.015625 
Q 33.0625 21.96875 24.703125 23.78125 
L 21.578125 24.515625 
Q 13.234375 26.265625 9.515625 29.90625 
Q 5.8125 33.546875 5.8125 39.890625 
Q 5.8125 47.609375 11.28125 51.796875 
Q 16.75 56 26.8125 56 
Q 31.78125 56 36.171875 55.265625 
Q 40.578125 54.546875 44.28125 53.078125 
z
" id="DejaVuSans-73"/>
      <path d="M 34.28125 27.484375 
Q 23.390625 27.484375 19.1875 25 
Q 14.984375 22.515625 14.984375 16.5 
Q 14.984375 11.71875 18.140625 8.90625 
Q 21.296875 6.109375 26.703125 6.109375 
Q 34.1875 6.109375 38.703125 11.40625 
Q 43.21875 16.703125 43.21875 25.484375 
L 43.21875 27.484375 
z
M 52.203125 31.203125 
L 52.203125 0 
L 43.21875 0 
L 43.21875 8.296875 
Q 40.140625 3.328125 35.546875 0.953125 
Q 30.953125 -1.421875 24.3125 -1.421875 
Q 15.921875 -1.421875 10.953125 3.296875 
Q 6 8.015625 6 15.921875 
Q 6 25.140625 12.171875 29.828125 
Q 18.359375 34.515625 30.609375 34.515625 
L 43.21875 34.515625 
L 43.21875 35.40625 
Q 43.21875 41.609375 39.140625 45 
Q 35.0625 48.390625 27.6875 48.390625 
Q 23 48.390625 18.546875 47.265625 
Q 14.109375 46.140625 10.015625 43.890625 
L 10.015625 52.203125 
Q 14.9375 54.109375 19.578125 55.046875 
Q 24.21875 56 28.609375 56 
Q 40.484375 56 46.34375 49.84375 
Q 52.203125 43.703125 52.203125 31.203125 
z
" id="DejaVuSans-61"/>
      <path d="M 52 44.1875 
Q 55.375 50.25 60.0625 53.125 
Q 64.75 56 71.09375 56 
Q 79.640625 56 84.28125 50.015625 
Q 88.921875 44.046875 88.921875 33.015625 
L 88.921875 0 
L 79.890625 0 
L 79.890625 32.71875 
Q 79.890625 40.578125 77.09375 44.375 
Q 74.3125 48.1875 68.609375 48.1875 
Q 61.625 48.1875 57.5625 43.546875 
Q 53.515625 38.921875 53.515625 30.90625 
L 53.515625 0 
L 44.484375 0 
L 44.484375 32.71875 
Q 44.484375 40.625 41.703125 44.40625 
Q 38.921875 48.1875 33.109375 48.1875 
Q 26.21875 48.1875 22.15625 43.53125 
Q 18.109375 38.875 18.109375 30.90625 
L 18.109375 0 
L 9.078125 0 
L 9.078125 54.6875 
L 18.109375 54.6875 
L 18.109375 46.1875 
Q 21.1875 51.21875 25.484375 53.609375 
Q 29.78125 56 35.6875 56 
Q 41.65625 56 45.828125 52.96875 
Q 50 49.953125 52 44.1875 
z
" id="DejaVuSans-6d"/>
      <path d="M 41.109375 46.296875 
Q 39.59375 47.171875 37.8125 47.578125 
Q 36.03125 48 33.890625 48 
Q 26.265625 48 22.1875 43.046875 
Q 18.109375 38.09375 18.109375 28.8125 
L 18.109375 0 
L 9.078125 0 
L 9.078125 54.6875 
L 18.109375 54.6875 
L 18.109375 46.1875 
Q 20.953125 51.171875 25.484375 53.578125 
Q 30.03125 56 36.53125 56 
Q 37.453125 56 38.578125 55.875 
Q 39.703125 55.765625 41.0625 55.515625 
z
" id="DejaVuSans-72"/>
      <path id="DejaVuSans-20"/>
      <path d="M 9.8125 72.90625 
L 19.671875 72.90625 
L 19.671875 8.296875 
L 55.171875 8.296875 
L 55.171875 0 
L 9.8125 0 
z
" id="DejaVuSans-4c"/>
      <path d="M 54.890625 33.015625 
L 54.890625 0 
L 45.90625 0 
L 45.90625 32.71875 
Q 45.90625 40.484375 42.875 44.328125 
Q 39.84375 48.1875 33.796875 48.1875 
Q 26.515625 48.1875 22.3125 43.546875 
Q 18.109375 38.921875 18.109375 30.90625 
L 18.109375 0 
L 9.078125 0 
L 9.078125 54.6875 
L 18.109375 54.6875 
L 18.109375 46.1875 
Q 21.34375 51.125 25.703125 53.5625 
Q 30.078125 56 35.796875 56 
Q 45.21875 56 50.046875 50.171875 
Q 54.890625 44.34375 54.890625 33.015625 
z
" id="DejaVuSans-6e"/>
      <path d="M 2.984375 54.6875 
L 12.5 54.6875 
L 29.59375 8.796875 
L 46.6875 54.6875 
L 56.203125 54.6875 
L 35.6875 0 
L 23.484375 0 
z
" id="DejaVuSans-76"/>
      <path d="M 48.6875 27.296875 
Q 48.6875 37.203125 44.609375 42.84375 
Q 40.53125 48.484375 33.40625 48.484375 
Q 26.265625 48.484375 22.1875 42.84375 
Q 18.109375 37.203125 18.109375 27.296875 
Q 18.109375 17.390625 22.1875 11.75 
Q 26.265625 6.109375 33.40625 6.109375 
Q 40.53125 6.109375 44.609375 11.75 
Q 48.6875 17.390625 48.6875 27.296875 
z
M 18.109375 46.390625 
Q 20.953125 51.265625 25.265625 53.625 
Q 29.59375 56 35.59375 56 
Q 45.5625 56 51.78125 48.09375 
Q 58.015625 40.1875 58.015625 27.296875 
Q 58.015625 14.40625 51.78125 6.484375 
Q 45.5625 -1.421875 35.59375 -1.421875 
Q 29.59375 -1.421875 25.265625 0.953125 
Q 20.953125 3.328125 18.109375 8.203125 
L 18.109375 0 
L 9.078125 0 
L 9.078125 75.984375 
L 18.109375 75.984375 
z
" id="DejaVuSans-62"/>
      <path d="M 48.78125 52.59375 
L 48.78125 44.1875 
Q 44.96875 46.296875 41.140625 47.34375 
Q 37.3125 48.390625 33.40625 48.390625 
Q 24.65625 48.390625 19.8125 42.84375 
Q 14.984375 37.3125 14.984375 27.296875 
Q 14.984375 17.28125 19.8125 11.734375 
Q 24.65625 6.203125 33.40625 6.203125 
Q 37.3125 6.203125 41.140625 7.25 
Q 44.96875 8.296875 48.78125 10.40625 
L 48.78125 2.09375 
Q 45.015625 0.34375 40.984375 -0.53125 
Q 36.96875 -1.421875 32.421875 -1.421875 
Q 20.0625 -1.421875 12.78125 6.34375 
Q 5.515625 14.109375 5.515625 27.296875 
Q 5.515625 40.671875 12.859375 48.328125 
Q 20.21875 56 33.015625 56 
Q 37.15625 56 41.109375 55.140625 
Q 45.0625 54.296875 48.78125 52.59375 
z
" id="DejaVuSans-63"/>
      <path d="M 54.890625 33.015625 
L 54.890625 0 
L 45.90625 0 
L 45.90625 32.71875 
Q 45.90625 40.484375 42.875 44.328125 
Q 39.84375 48.1875 33.796875 48.1875 
Q 26.515625 48.1875 22.3125 43.546875 
Q 18.109375 38.921875 18.109375 30.90625 
L 18.109375 0 
L 9.078125 0 
L 9.078125 75.984375 
L 18.109375 75.984375 
L 18.109375 46.1875 
Q 21.34375 51.125 25.703125 53.5625 
Q 30.078125 56 35.796875 56 
Q 45.21875 56 50.046875 50.171875 
Q 54.890625 44.34375 54.890625 33.015625 
z
" id="DejaVuSans-68"/>
      <path d="M 9.078125 75.984375 
L 18.109375 75.984375 
L 18.109375 31.109375 
L 44.921875 54.6875 
L 56.390625 54.6875 
L 27.390625 29.109375 
L 57.625 0 
L 45.90625 0 
L 18.109375 26.703125 
L 18.109375 0 
L 9.078125 0 
z
" id="DejaVuSans-6b"/>
      <path d="M 3.328125 72.90625 
L 13.28125 72.90625 
L 28.609375 11.28125 
L 43.890625 72.90625 
L 54.984375 72.90625 
L 70.3125 11.28125 
L 85.59375 72.90625 
L 95.609375 72.90625 
L 77.296875 0 
L 64.890625 0 
L 49.515625 63.28125 
L 33.984375 0 
L 21.578125 0 
z
" id="DejaVuSans-57"/>
     </defs>
     <g transform="translate(146.995312 448.5688)rotate(-90)scale(0.1 -0.1)">
      <use xlink:href="#DejaVuSans-47"/>
      <use x="77.490234" xlink:href="#DejaVuSans-65"/>
      <use x="139.013672" xlink:href="#DejaVuSans-73"/>
      <use x="191.113281" xlink:href="#DejaVuSans-61"/>
      <use x="252.392578" xlink:href="#DejaVuSans-6d"/>
      <use x="349.804688" xlink:href="#DejaVuSans-74"/>
      <use x="389.013672" xlink:href="#DejaVuSans-65"/>
      <use x="450.537109" xlink:href="#DejaVuSans-72"/>
      <use x="491.650391" xlink:href="#DejaVuSans-20"/>
      <use x="523.4375" xlink:href="#DejaVuSans-4c"/>
      <use x="579.134766" xlink:href="#DejaVuSans-65"/>
      <use x="640.658203" xlink:href="#DejaVuSans-69"/>
      <use x="668.441406" xlink:href="#DejaVuSans-73"/>
      <use x="720.541016" xlink:href="#DejaVuSans-74"/>
      <use x="759.75" xlink:href="#DejaVuSans-75"/>
      <use x="823.128906" xlink:href="#DejaVuSans-6e"/>
      <use x="886.507812" xlink:href="#DejaVuSans-67"/>
      <use x="949.984375" xlink:href="#DejaVuSans-73"/>
      <use x="1002.083984" xlink:href="#DejaVuSans-76"/>
      <use x="1061.263672" xlink:href="#DejaVuSans-65"/>
      <use x="1122.787109" xlink:href="#DejaVuSans-72"/>
      <use x="1163.900391" xlink:href="#DejaVuSans-62"/>
      <use x="1227.376953" xlink:href="#DejaVuSans-72"/>
      <use x="1268.490234" xlink:href="#DejaVuSans-61"/>
      <use x="1329.769531" xlink:href="#DejaVuSans-75"/>
      <use x="1393.148438" xlink:href="#DejaVuSans-63"/>
      <use x="1448.128906" xlink:href="#DejaVuSans-68"/>
      <use x="1511.507812" xlink:href="#DejaVuSans-20"/>
      <use x="1543.294922" xlink:href="#DejaVuSans-69"/>
      <use x="1571.078125" xlink:href="#DejaVuSans-6e"/>
      <use x="1634.457031" xlink:href="#DejaVuSans-20"/>
      <use x="1666.244141" xlink:href="#DejaVuSans-6b"/>
      <use x="1724.154297" xlink:href="#DejaVuSans-57"/>
     </g>
    </g>
   </g>
   <g id="line2d_26">
    <path clip-path="url(#pdb708ab2ec)" d="M 172.8 603.546877 
L 174.195909 603.546877 
L 174.893863 601.958954 
L 175.591818 603.546877 
L 176.289772 601.958954 
L 176.987726 601.958954 
L 177.685681 603.546877 
L 180.477498 603.546877 
L 181.175453 601.958954 
L 181.873407 603.546877 
L 182.571362 601.958954 
L 185.363179 601.958954 
L 186.061134 603.546877 
L 186.759088 601.958954 
L 188.154997 601.958954 
L 189.550906 605.1348 
L 190.24886 605.1348 
L 190.946814 603.546877 
L 191.644769 605.1348 
L 192.342723 605.1348 
L 193.040678 601.958954 
L 193.738632 605.1348 
L 194.436586 449.518338 
L 195.134541 387.589338 
L 195.832495 470.161338 
L 196.53045 451.106262 
L 197.228404 479.688877 
L 197.926358 327.248262 
L 198.624313 338.363723 
L 199.322267 339.951646 
L 200.718176 339.951646 
L 201.41613 325.660338 
L 202.114085 341.539569 
L 202.812039 338.363723 
L 203.509993 333.599954 
L 204.207948 339.951646 
L 204.905902 330.424108 
L 206.301811 339.951646 
L 206.999765 343.127492 
L 208.395674 327.248262 
L 209.093629 339.951646 
L 209.791583 339.951646 
L 210.489537 335.187877 
L 211.187492 332.012031 
L 211.885446 330.424108 
L 212.583401 343.127492 
L 213.281355 328.836185 
L 214.677264 338.363723 
L 215.375218 328.836185 
L 216.073173 324.072415 
L 216.771127 328.836185 
L 217.469081 325.660338 
L 218.167036 338.363723 
L 218.86499 330.424108 
L 219.562945 338.363723 
L 220.260899 603.546877 
L 220.958853 601.958954 
L 223.052717 601.958954 
L 223.750671 603.546877 
L 224.448625 601.958954 
L 225.844534 601.958954 
L 226.542489 328.836185 
L 227.240443 341.539569 
L 227.938397 325.660338 
L 229.334306 338.363723 
L 230.032261 330.424108 
L 230.730215 341.539569 
L 231.428169 339.951646 
L 232.126124 325.660338 
L 232.824078 338.363723 
L 233.522033 603.546877 
L 234.219987 601.958954 
L 234.917941 603.546877 
L 236.31385 603.546877 
L 237.011805 601.958954 
L 239.803622 601.958954 
L 240.501577 603.546877 
L 241.897485 603.546877 
L 242.59544 601.958954 
L 243.293394 603.546877 
L 243.991349 601.958954 
L 244.689303 603.546877 
L 245.387257 601.958954 
L 246.085212 601.958954 
L 246.783166 603.546877 
L 247.481121 601.958954 
L 248.179075 603.546877 
L 249.574984 603.546877 
L 250.272938 601.958954 
L 250.970893 603.546877 
L 251.668847 601.958954 
L 252.366801 603.546877 
L 253.76271 603.546877 
L 254.460664 601.958954 
L 255.158619 603.546877 
L 255.856573 601.958954 
L 260.0443 601.958954 
L 260.742254 603.546877 
L 261.440208 498.743954 
L 262.138163 333.599954 
L 262.836117 343.127492 
L 263.534072 335.187877 
L 264.232026 344.715415 
L 265.627935 335.187877 
L 266.325889 343.127492 
L 267.023844 339.951646 
L 267.721798 338.363723 
L 268.419752 335.187877 
L 269.117707 344.715415 
L 269.815661 336.7758 
L 271.21157 336.7758 
L 271.909524 344.715415 
L 272.607479 339.951646 
L 273.305433 346.303338 
L 274.003388 347.891262 
L 274.701342 338.363723 
L 275.399296 349.479185 
L 276.097251 130.3458 
L 276.795205 135.109569 
L 277.49316 135.109569 
L 278.191114 505.095646 
L 278.889068 133.521646 
L 279.587023 503.507723 
L 280.284977 493.980185 
L 280.982932 130.3458 
L 281.680886 503.507723 
L 282.37884 130.3458 
L 283.076795 127.169954 
L 283.774749 501.9198 
L 284.472704 131.933723 
L 285.170658 489.216415 
L 285.868612 500.331877 
L 286.566567 133.521646 
L 287.264521 605.1348 
L 287.962476 605.1348 
L 288.66043 603.546877 
L 289.358384 603.546877 
L 290.056339 605.1348 
L 291.452248 605.1348 
L 292.150202 603.546877 
L 292.848156 603.546877 
L 293.546111 339.951646 
L 294.244065 131.933723 
L 294.94202 135.109569 
L 295.639974 503.507723 
L 296.337928 135.109569 
L 297.035883 505.095646 
L 297.733837 501.9198 
L 298.431792 133.521646 
L 299.129746 497.156031 
L 299.8277 135.109569 
L 300.525655 605.1348 
L 301.921564 605.1348 
L 302.619518 603.546877 
L 303.317472 605.1348 
L 304.713381 605.1348 
L 305.411336 603.546877 
L 306.10929 605.1348 
L 306.807244 605.1348 
L 307.505199 603.546877 
L 308.203153 603.546877 
L 308.901107 605.1348 
L 310.994971 605.1348 
L 311.692925 603.546877 
L 312.390879 605.1348 
L 313.786788 605.1348 
L 314.484743 603.546877 
L 315.182697 605.1348 
L 315.880651 605.1348 
L 317.27656 601.958954 
L 317.974515 605.1348 
L 318.672469 605.1348 
L 319.370423 603.546877 
L 320.766332 603.546877 
L 321.464287 605.1348 
L 322.860195 605.1348 
L 324.256104 601.958954 
L 325.652013 605.1348 
L 326.349967 603.546877 
L 327.047922 605.1348 
L 330.537694 605.1348 
L 331.235648 603.546877 
L 331.933603 603.546877 
L 332.631557 605.1348 
L 337.517238 605.1348 
L 338.215192 603.546877 
L 338.913147 605.1348 
L 345.892691 605.1348 
L 346.590645 603.546877 
L 347.288599 603.546877 
L 347.986554 605.1348 
L 350.080417 605.1348 
L 350.778371 603.546877 
L 351.476326 605.1348 
L 352.17428 603.546877 
L 352.872235 605.1348 
L 354.966098 605.1348 
L 355.664052 603.546877 
L 357.059961 603.546877 
L 357.757915 605.1348 
L 358.45587 603.546877 
L 359.153824 605.1348 
L 359.851779 605.1348 
L 360.549733 603.546877 
L 361.247687 605.1348 
L 362.643596 605.1348 
L 363.34155 603.546877 
L 364.039505 343.127492 
L 364.737459 339.951646 
L 365.435414 343.127492 
L 366.133368 333.599954 
L 366.831322 333.599954 
L 367.529277 601.958954 
L 368.227231 603.546877 
L 368.925186 601.958954 
L 370.321094 601.958954 
L 371.019049 603.546877 
L 371.717003 601.958954 
L 372.414958 603.546877 
L 373.112912 601.958954 
L 373.810866 603.546877 
L 374.508821 601.958954 
L 375.206775 601.958954 
L 375.90473 603.546877 
L 376.602684 601.958954 
L 377.300638 601.958954 
L 377.998593 603.546877 
L 378.696547 601.958954 
L 379.394502 601.958954 
L 380.092456 603.546877 
L 380.79041 603.546877 
L 381.488365 601.958954 
L 382.186319 603.546877 
L 382.884274 601.958954 
L 384.978137 601.958954 
L 385.676091 603.546877 
L 386.374046 603.546877 
L 387.072 601.958954 
L 387.769954 603.546877 
L 388.467909 603.546877 
L 389.165863 601.958954 
L 389.863818 603.546877 
L 390.561772 601.958954 
L 394.749498 601.958954 
L 395.447453 498.743954 
L 396.145407 336.7758 
L 396.843362 343.127492 
L 397.541316 343.127492 
L 398.23927 330.424108 
L 398.937225 343.127492 
L 399.635179 339.951646 
L 400.333134 343.127492 
L 401.031088 332.012031 
L 401.729042 603.546877 
L 402.426997 605.1348 
L 403.124951 339.951646 
L 403.822906 138.285415 
L 404.52086 503.507723 
L 405.218814 505.095646 
L 405.916769 133.521646 
L 406.614723 495.568108 
L 407.312678 128.757877 
L 408.010632 133.521646 
L 408.708586 501.9198 
L 409.406541 133.521646 
L 410.104495 503.507723 
L 410.80245 130.3458 
L 411.500404 130.3458 
L 412.198358 497.156031 
L 412.896313 127.169954 
L 413.594267 131.933723 
L 414.292221 503.507723 
L 414.990176 128.757877 
L 415.68813 130.3458 
L 416.386085 500.331877 
L 417.084039 131.933723 
L 417.781993 501.9198 
L 418.479948 503.507723 
L 419.177902 127.169954 
L 419.875857 505.095646 
L 420.573811 493.980185 
L 421.271765 603.546877 
L 422.667674 603.546877 
L 423.365629 605.1348 
L 424.063583 603.546877 
L 424.761537 605.1348 
L 425.459492 605.1348 
L 426.157446 603.546877 
L 426.855401 605.1348 
L 428.251309 130.3458 
L 428.949264 133.521646 
L 429.647218 501.9198 
L 430.345173 503.507723 
L 431.043127 131.933723 
L 431.741081 503.507723 
L 432.439036 489.216415 
L 433.13699 136.697492 
L 433.834945 495.568108 
L 434.532899 605.1348 
L 435.928808 605.1348 
L 436.626762 603.546877 
L 437.324717 605.1348 
L 438.022671 603.546877 
L 440.116534 603.546877 
L 440.814489 601.958954 
L 443.606306 601.958954 
L 444.304261 603.546877 
L 445.002215 601.958954 
L 445.700169 603.546877 
L 446.398124 601.958954 
L 447.794033 601.958954 
L 448.491987 603.546877 
L 449.189941 601.958954 
L 449.887896 603.546877 
L 450.58585 601.958954 
L 451.981759 601.958954 
L 452.679713 603.546877 
L 453.377668 601.958954 
L 454.075622 601.958954 
L 454.773577 603.546877 
L 455.471531 603.546877 
L 456.169485 601.958954 
L 456.86744 603.546877 
L 459.659257 603.546877 
L 460.357212 601.958954 
L 461.055166 603.546877 
L 461.753121 601.958954 
L 462.451075 424.111569 
L 463.149029 328.836185 
L 463.846984 325.660338 
L 464.544938 333.599954 
L 465.242893 325.660338 
L 465.940847 332.012031 
L 466.638801 325.660338 
L 467.336756 605.1348 
L 468.03471 605.1348 
L 468.732664 603.546877 
L 469.430619 605.1348 
L 470.128573 605.1348 
L 470.826528 336.7758 
L 471.524482 128.757877 
L 472.222436 492.392262 
L 472.920391 498.743954 
L 473.618345 128.757877 
L 474.3163 493.980185 
L 475.014254 125.582031 
L 475.712208 490.804338 
L 476.410163 495.568108 
L 477.108117 122.406185 
L 477.806072 486.040569 
L 478.504026 120.818262 
L 479.20198 119.230338 
L 479.899935 501.9198 
L 480.597889 117.642415 
L 481.295844 120.818262 
L 481.993798 120.818262 
L 482.691752 501.9198 
L 483.389707 120.818262 
L 484.087661 120.818262 
L 484.785616 500.331877 
L 485.48357 122.406185 
L 486.181524 120.818262 
L 486.879479 501.9198 
L 487.577433 119.230338 
L 488.275388 605.1348 
L 489.671296 605.1348 
L 490.369251 603.546877 
L 491.067205 605.1348 
L 493.161068 605.1348 
L 493.859023 603.546877 
L 494.556977 339.951646 
L 495.254932 125.582031 
L 495.952886 125.582031 
L 497.348795 128.757877 
L 498.046749 503.507723 
L 498.744704 130.3458 
L 499.442658 500.331877 
L 500.140612 133.521646 
L 500.838567 127.169954 
L 501.536521 605.1348 
L 505.026293 605.1348 
L 505.724248 601.958954 
L 506.422202 601.958954 
L 507.120156 603.546877 
L 507.818111 601.958954 
L 508.516065 603.546877 
L 509.21402 603.546877 
L 509.911974 601.958954 
L 510.609928 601.958954 
L 511.307883 603.546877 
L 512.005837 601.958954 
L 512.703792 601.958954 
L 513.401746 603.546877 
L 516.891518 603.546877 
L 517.589472 601.958954 
L 518.287427 603.546877 
L 518.985381 601.958954 
L 519.683336 603.546877 
L 521.079244 603.546877 
L 521.777199 601.958954 
L 522.475153 601.958954 
L 523.173107 603.546877 
L 523.871062 601.958954 
L 524.569016 601.958954 
L 525.266971 603.546877 
L 525.964925 603.546877 
L 526.662879 601.958954 
L 527.360834 601.958954 
L 528.058788 603.546877 
L 528.756743 603.546877 
L 529.454697 447.930415 
L 530.152651 327.248262 
L 530.850606 338.363723 
L 531.54856 338.363723 
L 532.246515 328.836185 
L 532.944469 601.958954 
L 533.642423 605.1348 
L 535.736287 605.1348 
L 536.434241 603.546877 
L 537.132195 603.546877 
L 537.83015 308.193185 
L 538.528104 125.582031 
L 539.226059 123.994108 
L 539.924013 495.568108 
L 540.621967 125.582031 
L 541.319922 119.230338 
L 542.017876 498.743954 
L 542.715831 122.406185 
L 543.413785 119.230338 
L 544.111739 497.156031 
L 544.809694 114.466569 
L 545.507648 119.230338 
L 546.205603 116.054492 
L 546.903557 114.466569 
L 547.601511 492.392262 
L 548.299466 117.642415 
L 548.99742 117.642415 
L 549.695375 111.290723 
L 550.393329 501.9198 
L 551.091283 114.466569 
L 551.789238 116.054492 
L 552.487192 112.878646 
L 553.185147 114.466569 
L 553.883101 117.642415 
L 554.581055 116.054492 
L 555.27901 605.1348 
L 556.674919 605.1348 
L 557.372873 603.546877 
L 558.070827 605.1348 
L 560.862645 605.1348 
L 561.560599 265.319262 
L 562.258554 128.757877 
L 562.956508 122.406185 
L 563.654463 122.406185 
L 564.352417 493.980185 
L 565.050371 120.818262 
L 565.748326 127.169954 
L 566.44628 503.507723 
L 567.144235 127.169954 
L 567.842189 131.933723 
L 568.540143 603.546877 
L 569.238098 605.1348 
L 569.936052 605.1348 
L 570.634007 603.546877 
L 571.331961 605.1348 
L 572.029915 603.546877 
L 572.72787 605.1348 
L 573.425824 601.958954 
L 574.123779 603.546877 
L 574.821733 603.546877 
L 575.519687 601.958954 
L 576.217642 603.546877 
L 576.915596 603.546877 
L 577.61355 601.958954 
L 578.311505 601.958954 
L 579.009459 603.546877 
L 579.707414 601.958954 
L 580.405368 603.546877 
L 581.103322 601.958954 
L 582.499231 601.958954 
L 583.197186 603.546877 
L 583.89514 601.958954 
L 584.593094 601.958954 
L 585.291049 603.546877 
L 587.384912 603.546877 
L 588.082866 601.958954 
L 588.780821 601.958954 
L 589.478775 603.546877 
L 590.17673 601.958954 
L 591.572638 601.958954 
L 592.270593 603.546877 
L 592.968547 601.958954 
L 593.666502 601.958954 
L 594.364456 603.546877 
L 595.06241 601.958954 
L 595.760365 605.1348 
L 598.552182 605.1348 
L 599.250137 603.546877 
L 599.948091 605.1348 
L 604.135818 605.1348 
L 604.833772 603.546877 
L 605.531726 603.546877 
L 606.229681 605.1348 
L 608.323544 605.1348 
L 609.021498 603.546877 
L 609.719453 605.1348 
L 610.417407 605.1348 
L 611.115362 603.546877 
L 611.813316 605.1348 
L 612.51127 605.1348 
L 613.209225 603.546877 
L 614.605134 603.546877 
L 615.303088 605.1348 
L 620.188769 605.1348 
L 620.886723 603.546877 
L 621.584678 605.1348 
L 622.980586 605.1348 
L 623.678541 603.546877 
L 624.376495 605.1348 
L 625.07445 603.546877 
L 625.772404 605.1348 
L 629.262176 605.1348 
L 629.96013 603.546877 
L 630.658085 603.546877 
L 631.356039 605.1348 
L 632.751948 605.1348 
L 633.449902 603.546877 
L 634.147857 605.1348 
L 634.845811 605.1348 
L 635.543765 603.546877 
L 636.24172 605.1348 
L 638.335583 605.1348 
L 639.731492 601.958954 
L 640.429446 603.546877 
L 643.221264 603.546877 
L 643.919218 601.958954 
L 644.617173 601.958954 
L 645.315127 603.546877 
L 646.013081 601.958954 
L 646.711036 601.958954 
L 647.40899 603.546877 
L 648.106945 601.958954 
L 650.898762 601.958954 
L 651.596717 603.546877 
L 652.294671 603.546877 
L 652.992625 601.958954 
L 653.69058 603.546877 
L 655.086489 603.546877 
L 655.784443 601.958954 
L 656.482397 601.958954 
L 657.180352 603.546877 
L 657.878306 601.958954 
L 658.576261 603.546877 
L 661.368078 603.546877 
L 662.066033 601.958954 
L 662.763987 601.958954 
L 663.461941 495.568108 
L 664.159896 333.599954 
L 664.85785 335.187877 
L 665.555805 335.187877 
L 666.253759 341.539569 
L 666.951713 339.951646 
L 667.649668 341.539569 
L 668.347622 333.599954 
L 669.045577 341.539569 
L 669.743531 324.072415 
L 670.441485 605.1348 
L 671.13944 603.546877 
L 671.837394 605.1348 
L 672.535349 339.951646 
L 673.233303 133.521646 
L 673.931257 501.9198 
L 674.629212 492.392262 
L 675.327166 127.169954 
L 676.025121 501.9198 
L 676.723075 130.3458 
L 677.421029 125.582031 
L 678.118984 501.9198 
L 678.816938 125.582031 
L 679.514893 506.683569 
L 680.212847 503.507723 
L 680.910801 130.3458 
L 681.608756 123.994108 
L 682.30671 503.507723 
L 683.004664 125.582031 
L 684.400573 122.406185 
L 685.098528 497.156031 
L 685.796482 127.169954 
L 686.494436 120.818262 
L 687.192391 498.743954 
L 687.890345 125.582031 
L 688.5883 128.757877 
L 689.286254 603.546877 
L 689.984208 605.1348 
L 694.869889 605.1348 
L 695.567844 339.951646 
L 696.265798 135.109569 
L 696.963752 127.169954 
L 697.661707 492.392262 
L 698.359661 501.9198 
L 699.057616 133.521646 
L 699.75557 493.980185 
L 700.453524 343.127492 
L 701.151479 332.012031 
L 701.849433 335.187877 
L 702.547388 605.1348 
L 703.245342 601.958954 
L 703.943296 603.546877 
L 704.641251 601.958954 
L 706.03716 601.958954 
L 706.735114 603.546877 
L 707.433068 601.958954 
L 708.131023 603.546877 
L 712.318749 603.546877 
L 713.016704 601.958954 
L 713.714658 603.546877 
L 714.412612 601.958954 
L 715.808521 601.958954 
L 716.506476 603.546877 
L 717.20443 603.546877 
L 717.902384 605.1348 
L 718.600339 601.958954 
L 719.996248 601.958954 
L 720.694202 605.1348 
L 721.392156 603.546877 
L 722.090111 603.546877 
L 722.788065 605.1348 
L 725.579883 605.1348 
L 726.277837 601.958954 
L 728.3717 601.958954 
L 729.069655 605.1348 
L 729.767609 601.958954 
L 730.465564 389.177262 
L 731.163518 406.644415 
L 731.861472 451.106262 
L 732.559427 419.3478 
L 733.257381 486.040569 
L 733.955336 338.363723 
L 734.65329 327.248262 
L 735.351244 328.836185 
L 736.049199 332.012031 
L 736.747153 336.7758 
L 737.445107 339.951646 
L 738.143062 330.424108 
L 738.841016 328.836185 
L 739.538971 339.951646 
L 740.236925 336.7758 
L 740.934879 328.836185 
L 741.632834 603.546877 
L 742.330788 605.1348 
L 743.028743 605.1348 
L 744.424651 125.582031 
L 745.122606 492.392262 
L 745.82056 490.804338 
L 746.518515 125.582031 
L 747.216469 489.216415 
L 747.914423 498.743954 
L 748.612378 123.994108 
L 749.310332 493.980185 
L 750.008287 127.169954 
L 750.706241 501.9198 
L 751.404195 500.331877 
L 752.10215 127.169954 
L 752.800104 498.743954 
L 753.498059 125.582031 
L 754.196013 128.757877 
L 754.893967 501.9198 
L 755.591922 128.757877 
L 756.289876 605.1348 
L 761.175557 605.1348 
L 761.873511 603.546877 
L 762.571466 333.599954 
L 763.26942 343.127492 
L 763.967375 343.127492 
L 764.665329 328.836185 
L 765.363283 328.836185 
L 766.061238 327.248262 
L 766.759192 320.896569 
L 767.457147 336.7758 
L 768.155101 338.363723 
L 768.853055 325.660338 
L 769.55101 601.958954 
L 771.644873 601.958954 
L 772.342827 605.1348 
L 773.738736 601.958954 
L 774.436691 603.546877 
L 775.832599 603.546877 
L 776.530554 601.958954 
L 777.228508 603.546877 
L 778.624417 603.546877 
L 779.322371 601.958954 
L 780.020326 601.958954 
L 780.71828 605.1348 
L 781.416235 601.958954 
L 782.114189 603.546877 
L 782.812143 603.546877 
L 783.510098 601.958954 
L 784.208052 601.958954 
L 785.603961 605.1348 
L 786.301915 603.546877 
L 786.99987 605.1348 
L 787.697824 603.546877 
L 788.395779 605.1348 
L 789.093733 601.958954 
L 789.791687 601.958954 
L 790.489642 603.546877 
L 791.187596 601.958954 
L 792.583505 605.1348 
L 793.281459 603.546877 
L 793.979414 605.1348 
L 794.677368 603.546877 
L 795.375322 605.1348 
L 796.771231 605.1348 
L 797.469186 428.875338 
L 798.16714 446.342492 
L 798.865094 452.694185 
L 799.563049 417.759877 
L 800.261003 605.1348 
L 800.958958 332.012031 
L 801.656912 333.599954 
L 802.354866 328.836185 
L 803.052821 339.951646 
L 803.750775 325.660338 
L 804.44873 336.7758 
L 805.146684 328.836185 
L 805.844638 327.248262 
L 807.240547 327.248262 
L 807.938502 330.424108 
L 809.33441 327.248262 
L 810.032365 605.1348 
L 812.824182 605.1348 
L 813.522137 127.169954 
L 814.220091 501.9198 
L 814.918046 495.568108 
L 815.616 503.507723 
L 816.313954 204.978185 
L 817.011909 490.804338 
L 817.709863 493.980185 
L 818.407818 490.804338 
L 819.105772 127.169954 
L 819.803726 500.331877 
L 820.501681 492.392262 
L 821.199635 128.757877 
L 821.89759 503.507723 
L 822.595544 501.9198 
L 823.293498 603.546877 
L 823.991453 605.1348 
L 830.970997 605.1348 
L 831.668951 332.012031 
L 832.366906 341.539569 
L 833.06486 333.599954 
L 833.762814 335.187877 
L 834.460769 330.424108 
L 835.158723 324.072415 
L 835.856678 338.363723 
L 836.554632 603.546877 
L 837.252586 603.546877 
L 837.950541 601.958954 
L 838.648495 603.546877 
L 840.044404 603.546877 
L 840.742358 601.958954 
L 842.138267 605.1348 
L 842.836221 601.958954 
L 843.534176 603.546877 
L 844.23213 603.546877 
L 844.930085 605.1348 
L 845.628039 601.958954 
L 846.325993 601.958954 
L 847.023948 605.1348 
L 847.721902 603.546877 
L 848.419857 603.546877 
L 849.117811 601.958954 
L 849.815765 601.958954 
L 850.51372 603.546877 
L 851.211674 601.958954 
L 851.909629 603.546877 
L 852.607583 601.958954 
L 853.305537 603.546877 
L 854.003492 603.546877 
L 854.701446 605.1348 
L 855.399401 603.546877 
L 856.795309 603.546877 
L 857.493264 601.958954 
L 858.191218 603.546877 
L 858.889173 601.958954 
L 859.587127 605.1348 
L 860.285081 603.546877 
L 860.983036 605.1348 
L 861.68099 601.958954 
L 863.774853 601.958954 
L 864.472808 363.770492 
L 865.170762 332.012031 
L 865.868717 325.660338 
L 866.566671 338.363723 
L 867.264625 339.951646 
L 867.96258 328.836185 
L 868.660534 332.012031 
L 869.358489 325.660338 
L 870.056443 330.424108 
L 870.754397 332.012031 
L 871.452352 336.7758 
L 872.150306 332.012031 
L 872.848261 338.363723 
L 873.546215 333.599954 
L 874.244169 605.1348 
L 874.942124 605.1348 
L 875.640078 131.933723 
L 876.338033 489.216415 
L 877.035987 493.980185 
L 877.733941 128.757877 
L 878.431896 505.095646 
L 879.12985 500.331877 
L 879.827805 130.3458 
L 880.525759 125.582031 
L 881.223713 503.507723 
L 881.921668 123.994108 
L 882.619622 123.994108 
L 883.317577 501.9198 
L 884.015531 493.980185 
L 884.713485 122.406185 
L 885.41144 120.818262 
L 886.109394 495.568108 
L 886.807349 119.230338 
L 887.505303 123.994108 
L 888.203257 493.980185 
L 888.901212 122.406185 
L 889.599166 501.9198 
L 890.297121 605.1348 
L 890.995075 603.546877 
L 891.693029 605.1348 
L 892.390984 605.1348 
L 893.088938 603.546877 
L 893.786893 605.1348 
L 895.182801 605.1348 
L 895.880756 603.546877 
L 896.57871 339.951646 
L 897.276664 125.582031 
L 897.974619 125.582031 
L 898.672573 501.9198 
L 899.370528 125.582031 
L 900.068482 493.980185 
L 900.766436 487.628492 
L 901.464391 128.757877 
L 902.162345 501.9198 
L 902.8603 503.507723 
L 903.558254 605.1348 
L 904.256208 603.546877 
L 904.954163 605.1348 
L 905.652117 605.1348 
L 907.048026 601.958954 
L 907.74598 603.546877 
L 909.839844 603.546877 
L 910.537798 601.958954 
L 911.235752 603.546877 
L 911.933707 603.546877 
L 912.631661 601.958954 
L 913.329616 603.546877 
L 914.02757 601.958954 
L 914.725524 603.546877 
L 915.423479 601.958954 
L 917.517342 601.958954 
L 918.215296 603.546877 
L 918.913251 601.958954 
L 921.007114 601.958954 
L 921.705068 603.546877 
L 922.403023 601.958954 
L 923.100977 603.546877 
L 923.798932 603.546877 
L 924.496886 601.958954 
L 925.19484 601.958954 
L 925.892795 605.1348 
L 926.590749 601.958954 
L 927.288704 601.958954 
L 928.684612 605.1348 
L 929.382567 605.1348 
L 930.080521 603.546877 
L 930.778476 605.1348 
L 931.47643 446.342492 
L 932.174384 327.248262 
L 932.872339 338.363723 
L 933.570293 327.248262 
L 934.268248 339.951646 
L 934.966202 333.599954 
L 935.664156 325.660338 
L 936.362111 605.1348 
L 938.455974 605.1348 
L 939.153928 127.169954 
L 939.851883 501.9198 
L 940.549837 497.156031 
L 941.247792 122.406185 
L 941.945746 493.980185 
L 942.6437 500.331877 
L 943.341655 122.406185 
L 944.039609 501.9198 
L 944.737564 119.230338 
L 945.435518 501.9198 
L 946.133472 493.980185 
L 946.831427 119.230338 
L 947.529381 495.568108 
L 948.227336 111.290723 
L 948.92529 114.466569 
L 949.623244 501.9198 
L 950.321199 111.290723 
L 951.019153 495.568108 
L 951.717107 114.466569 
L 952.415062 112.878646 
L 953.113016 503.507723 
L 953.810971 114.466569 
L 954.508925 112.878646 
L 955.206879 501.9198 
L 955.904834 112.878646 
L 956.602788 112.878646 
L 957.300743 603.546877 
L 957.998697 603.546877 
L 958.696651 605.1348 
L 959.394606 605.1348 
L 960.09256 603.546877 
L 960.790515 605.1348 
L 961.488469 603.546877 
L 962.186423 605.1348 
L 962.884378 605.1348 
L 964.280287 120.818262 
L 964.978241 120.818262 
L 965.676195 503.507723 
L 966.37415 125.582031 
L 967.072104 128.757877 
L 967.770059 501.9198 
L 968.468013 128.757877 
L 969.165967 503.507723 
L 969.863922 489.216415 
L 970.561876 603.546877 
L 971.259831 605.1348 
L 972.655739 605.1348 
L 973.353694 601.958954 
L 974.051648 601.958954 
L 974.749603 603.546877 
L 975.447557 603.546877 
L 976.145511 601.958954 
L 977.54142 601.958954 
L 978.239375 603.546877 
L 978.937329 603.546877 
L 979.635283 601.958954 
L 980.333238 603.546877 
L 981.031192 603.546877 
L 981.729147 601.958954 
L 982.427101 603.546877 
L 985.218919 603.546877 
L 985.916873 601.958954 
L 988.010736 601.958954 
L 988.708691 603.546877 
L 989.406645 601.958954 
L 990.802554 605.1348 
L 991.500508 601.958954 
L 992.198463 603.546877 
L 993.594371 603.546877 
L 994.292326 601.958954 
L 994.99028 603.546877 
L 995.688235 603.546877 
L 996.386189 601.958954 
L 997.084143 601.958954 
L 997.782098 603.546877 
L 998.480052 454.282108 
L 999.178007 333.599954 
L 999.875961 330.424108 
L 1000.573915 330.424108 
L 1001.27187 603.546877 
L 1001.969824 601.958954 
L 1002.667779 605.1348 
L 1004.761642 605.1348 
L 1005.459596 347.891262 
L 1006.15755 131.933723 
L 1006.855505 501.9198 
L 1007.553459 501.9198 
L 1008.251414 130.3458 
L 1008.949368 493.980185 
L 1009.647322 127.169954 
L 1010.345277 490.804338 
L 1011.043231 122.406185 
L 1011.741186 127.169954 
L 1012.43914 125.582031 
L 1013.137094 501.9198 
L 1013.835049 125.582031 
L 1014.533003 501.9198 
L 1015.230958 127.169954 
L 1015.928912 503.507723 
L 1016.626866 123.994108 
L 1017.324821 125.582031 
L 1018.022775 497.156031 
L 1018.72073 123.994108 
L 1019.418684 493.980185 
L 1020.116638 120.818262 
L 1020.814593 117.642415 
L 1021.512547 498.743954 
L 1022.210502 117.642415 
L 1022.908456 119.230338 
L 1023.60641 497.156031 
L 1024.304365 603.546877 
L 1025.002319 605.1348 
L 1025.700274 605.1348 
L 1026.398228 603.546877 
L 1027.794137 603.546877 
L 1028.492091 605.1348 
L 1029.190046 603.546877 
L 1029.888 605.1348 
L 1030.585954 339.951646 
L 1031.283909 122.406185 
L 1031.981863 127.169954 
L 1032.679818 123.994108 
L 1033.377772 501.9198 
L 1034.075726 123.994108 
L 1034.773681 503.507723 
L 1035.471635 489.216415 
L 1036.16959 130.3458 
L 1036.867544 493.980185 
L 1037.565498 605.1348 
L 1038.263453 603.546877 
L 1038.961407 603.546877 
L 1039.659362 605.1348 
L 1041.05527 605.1348 
L 1042.451179 601.958954 
L 1044.545042 601.958954 
L 1045.242997 603.546877 
L 1046.638906 603.546877 
L 1047.33686 601.958954 
L 1048.034814 605.1348 
L 1048.732769 601.958954 
L 1049.430723 603.546877 
L 1050.128678 601.958954 
L 1050.826632 603.546877 
L 1052.222541 603.546877 
L 1052.920495 601.958954 
L 1055.014358 601.958954 
L 1055.712313 603.546877 
L 1056.410267 603.546877 
L 1057.108221 601.958954 
L 1057.806176 603.546877 
L 1058.50413 601.958954 
L 1059.202085 603.546877 
L 1059.900039 603.546877 
L 1060.597993 601.958954 
L 1061.295948 601.958954 
L 1061.993902 603.546877 
L 1063.389811 603.546877 
L 1064.087765 601.958954 
L 1064.78572 601.958954 
L 1065.483674 603.546877 
L 1066.181629 601.958954 
L 1067.577537 601.958954 
L 1068.275492 605.1348 
L 1071.765264 605.1348 
L 1072.463218 603.546877 
L 1073.161173 605.1348 
L 1075.95299 605.1348 
L 1077.348899 123.994108 
L 1078.046853 498.743954 
L 1078.744808 490.804338 
L 1079.442762 120.818262 
L 1080.140717 500.331877 
L 1080.838671 119.230338 
L 1081.536625 120.818262 
L 1082.23458 503.507723 
L 1082.932534 120.818262 
L 1083.630489 498.743954 
L 1084.328443 117.642415 
L 1085.026397 117.642415 
L 1085.724352 498.743954 
L 1086.422306 119.230338 
L 1087.120261 122.406185 
L 1087.818215 605.1348 
L 1089.912078 605.1348 
L 1090.610033 603.546877 
L 1091.307987 603.546877 
L 1092.005941 605.1348 
L 1092.703896 605.1348 
L 1093.40185 603.546877 
L 1094.099805 605.1348 
L 1098.287531 605.1348 
L 1098.985485 603.546877 
L 1099.68344 605.1348 
L 1101.777303 605.1348 
L 1102.475257 603.546877 
L 1103.173212 605.1348 
L 1103.871166 605.1348 
L 1104.569121 603.546877 
L 1105.267075 605.1348 
L 1105.965029 603.546877 
L 1106.662984 605.1348 
L 1108.058893 601.958954 
L 1108.756847 603.546877 
L 1109.454801 601.958954 
L 1110.152756 603.546877 
L 1110.85071 603.546877 
L 1111.548664 601.958954 
L 1112.246619 601.958954 
L 1112.944573 603.546877 
L 1116.434345 603.546877 
L 1117.1323 601.958954 
L 1118.528208 601.958954 
L 1119.226163 603.546877 
L 1119.924117 601.958954 
L 1121.320026 605.1348 
L 1122.715935 601.958954 
L 1123.413889 601.958954 
L 1124.111844 605.1348 
L 1124.809798 605.1348 
L 1125.507752 601.958954 
L 1126.205707 605.1348 
L 1126.903661 605.1348 
L 1128.29957 601.958954 
L 1130.393433 601.958954 
L 1131.091388 605.1348 
L 1131.789342 605.1348 
L 1132.487296 466.985492 
L 1133.883205 370.122185 
L 1134.58116 335.187877 
L 1135.279114 328.836185 
L 1135.977068 601.958954 
L 1136.675023 603.546877 
L 1137.372977 601.958954 
L 1138.070932 605.1348 
L 1144.352521 605.1348 
L 1145.74843 114.466569 
L 1146.446384 500.331877 
L 1147.144339 116.054492 
L 1147.842293 495.568108 
L 1148.540248 116.054492 
L 1149.238202 111.290723 
L 1149.936156 501.9198 
L 1150.634111 116.054492 
L 1151.332065 500.331877 
L 1152.03002 116.054492 
L 1152.727974 116.054492 
L 1153.425928 492.392262 
L 1154.123883 109.7028 
L 1154.821837 500.331877 
L 1155.519792 111.290723 
L 1156.217746 109.7028 
L 1156.9157 500.331877 
L 1157.613655 117.642415 
L 1158.311609 603.546877 
L 1159.009564 605.1348 
L 1162.499336 605.1348 
L 1163.19729 603.546877 
L 1163.895244 605.1348 
L 1165.291153 123.994108 
L 1165.989107 125.582031 
L 1166.687062 501.9198 
L 1167.385016 127.169954 
L 1168.082971 505.095646 
L 1168.780925 503.507723 
L 1169.478879 328.836185 
L 1170.176834 341.539569 
L 1170.874788 328.836185 
L 1171.572743 601.958954 
L 1172.270697 603.546877 
L 1172.968651 601.958954 
L 1173.666606 603.546877 
L 1174.36456 601.958954 
L 1175.062515 603.546877 
L 1175.760469 603.546877 
L 1176.458423 601.958954 
L 1177.156378 603.546877 
L 1177.854332 601.958954 
L 1179.948195 601.958954 
L 1180.64615 603.546877 
L 1181.344104 603.546877 
L 1182.042059 601.958954 
L 1184.135922 601.958954 
L 1184.833876 603.546877 
L 1185.531831 601.958954 
L 1186.229785 601.958954 
L 1186.927739 603.546877 
L 1187.625694 601.958954 
L 1189.719557 601.958954 
L 1190.417511 605.1348 
L 1191.115466 601.958954 
L 1191.81342 601.958954 
L 1193.209329 605.1348 
L 1193.907283 603.546877 
L 1194.605238 605.1348 
L 1195.303192 601.958954 
L 1196.001147 603.546877 
L 1196.699101 603.546877 
L 1197.397055 601.958954 
L 1198.09501 605.1348 
L 1198.792964 605.1348 
L 1199.490919 393.941031 
L 1200.188873 363.770492 
L 1200.886827 360.594646 
L 1201.584782 328.836185 
L 1202.282736 338.363723 
L 1202.980691 341.539569 
L 1203.678645 325.660338 
L 1204.376599 335.187877 
L 1205.074554 339.951646 
L 1205.772508 605.1348 
L 1207.866371 605.1348 
L 1208.564326 341.539569 
L 1209.26228 127.169954 
L 1209.960235 503.507723 
L 1210.658189 501.9198 
L 1211.356143 119.230338 
L 1212.054098 119.230338 
L 1212.752052 500.331877 
L 1213.450007 119.230338 
L 1214.147961 122.406185 
L 1214.845915 501.9198 
L 1215.54387 117.642415 
L 1216.241824 501.9198 
L 1216.939779 119.230338 
L 1217.637733 119.230338 
L 1218.335687 497.156031 
L 1219.033642 111.290723 
L 1219.731596 114.466569 
L 1220.42955 116.054492 
L 1221.127505 501.9198 
L 1221.825459 116.054492 
L 1222.523414 112.878646 
L 1223.221368 500.331877 
L 1223.919322 109.7028 
L 1224.617277 112.878646 
L 1225.315231 605.1348 
L 1230.898866 605.1348 
L 1232.294775 130.3458 
L 1232.99273 127.169954 
L 1233.690684 503.507723 
L 1234.388638 489.216415 
L 1235.086593 131.933723 
L 1235.784547 489.216415 
L 1236.482502 505.095646 
L 1237.180456 343.127492 
L 1237.87841 333.599954 
L 1238.576365 605.1348 
L 1239.972274 601.958954 
L 1241.368182 601.958954 
L 1242.066137 603.546877 
L 1242.764091 603.546877 
L 1243.462046 601.958954 
L 1244.16 601.958954 
L 1244.16 601.958954 
" style="fill:none;stroke:#000000;stroke-linecap:square;stroke-width:0.4;"/>
   </g>
   <g id="patch_3">
    <path d="M 172.8 629.9064 
L 172.8 84.9312 
" style="fill:none;stroke:#000000;stroke-linecap:square;stroke-linejoin:miter;stroke-width:0.8;"/>
   </g>
   <g id="patch_4">
    <path d="M 1244.16 629.9064 
L 1244.16 84.9312 
" style="fill:none;stroke:#000000;stroke-linecap:square;stroke-linejoin:miter;stroke-width:0.8;"/>
   </g>
   <g id="patch_5">
    <path d="M 172.8 629.9064 
L 1244.16 629.9064 
" style="fill:none;stroke:#000000;stroke-linecap:square;stroke-linejoin:miter;stroke-width:0.8;"/>
   </g>
   <g id="patch_6">
    <path d="M 172.8 84.9312 
L 1244.16 84.9312 
" style="fill:none;stroke:#000000;stroke-linecap:square;stroke-linejoin:miter;stroke-width:0.8;"/>
   </g>
   <g id="legend_1">
    <g id="patch_7">
     <path d="M 1085.811562 107.609325 
L 1237.16 107.609325 
Q 1239.16 107.609325 1239.16 105.609325 
L 1239.16 91.9312 
Q 1239.16 89.9312 1237.16 89.9312 
L 1085.811562 89.9312 
Q 1083.811562 89.9312 1083.811562 91.9312 
L 1083.811562 105.609325 
Q 1083.811562 107.609325 1085.811562 107.609325 
z
" style="fill:#ffffff;opacity:0.8;stroke:#cccccc;stroke-linejoin:miter;"/>
    </g>
    <g id="line2d_27">
     <path d="M 1087.811562 98.029638 
L 1107.811562 98.029638 
" style="fill:none;stroke:#000000;stroke-linecap:square;stroke-width:0.4;"/>
    </g>
    <g id="line2d_28"/>
    <g id="text_26">
     <!-- Total active power [kW] -->
     <defs>
      <path d="M -0.296875 72.90625 
L 61.375 72.90625 
L 61.375 64.59375 
L 35.5 64.59375 
L 35.5 0 
L 25.59375 0 
L 25.59375 64.59375 
L -0.296875 64.59375 
z
" id="DejaVuSans-54"/>
      <path d="M 30.609375 48.390625 
Q 23.390625 48.390625 19.1875 42.75 
Q 14.984375 37.109375 14.984375 27.296875 
Q 14.984375 17.484375 19.15625 11.84375 
Q 23.34375 6.203125 30.609375 6.203125 
Q 37.796875 6.203125 41.984375 11.859375 
Q 46.1875 17.53125 46.1875 27.296875 
Q 46.1875 37.015625 41.984375 42.703125 
Q 37.796875 48.390625 30.609375 48.390625 
z
M 30.609375 56 
Q 42.328125 56 49.015625 48.375 
Q 55.71875 40.765625 55.71875 27.296875 
Q 55.71875 13.875 49.015625 6.21875 
Q 42.328125 -1.421875 30.609375 -1.421875 
Q 18.84375 -1.421875 12.171875 6.21875 
Q 5.515625 13.875 5.515625 27.296875 
Q 5.515625 40.765625 12.171875 48.375 
Q 18.84375 56 30.609375 56 
z
" id="DejaVuSans-6f"/>
      <path d="M 9.421875 75.984375 
L 18.40625 75.984375 
L 18.40625 0 
L 9.421875 0 
z
" id="DejaVuSans-6c"/>
      <path d="M 18.109375 8.203125 
L 18.109375 -20.796875 
L 9.078125 -20.796875 
L 9.078125 54.6875 
L 18.109375 54.6875 
L 18.109375 46.390625 
Q 20.953125 51.265625 25.265625 53.625 
Q 29.59375 56 35.59375 56 
Q 45.5625 56 51.78125 48.09375 
Q 58.015625 40.1875 58.015625 27.296875 
Q 58.015625 14.40625 51.78125 6.484375 
Q 45.5625 -1.421875 35.59375 -1.421875 
Q 29.59375 -1.421875 25.265625 0.953125 
Q 20.953125 3.328125 18.109375 8.203125 
z
M 48.6875 27.296875 
Q 48.6875 37.203125 44.609375 42.84375 
Q 40.53125 48.484375 33.40625 48.484375 
Q 26.265625 48.484375 22.1875 42.84375 
Q 18.109375 37.203125 18.109375 27.296875 
Q 18.109375 17.390625 22.1875 11.75 
Q 26.265625 6.109375 33.40625 6.109375 
Q 40.53125 6.109375 44.609375 11.75 
Q 48.6875 17.390625 48.6875 27.296875 
z
" id="DejaVuSans-70"/>
      <path d="M 4.203125 54.6875 
L 13.1875 54.6875 
L 24.421875 12.015625 
L 35.59375 54.6875 
L 46.1875 54.6875 
L 57.421875 12.015625 
L 68.609375 54.6875 
L 77.59375 54.6875 
L 63.28125 0 
L 52.6875 0 
L 40.921875 44.828125 
L 29.109375 0 
L 18.5 0 
z
" id="DejaVuSans-77"/>
      <path d="M 8.59375 75.984375 
L 29.296875 75.984375 
L 29.296875 69 
L 17.578125 69 
L 17.578125 -6.203125 
L 29.296875 -6.203125 
L 29.296875 -13.1875 
L 8.59375 -13.1875 
z
" id="DejaVuSans-5b"/>
      <path d="M 30.421875 75.984375 
L 30.421875 -13.1875 
L 9.71875 -13.1875 
L 9.71875 -6.203125 
L 21.390625 -6.203125 
L 21.390625 69 
L 9.71875 69 
L 9.71875 75.984375 
z
" id="DejaVuSans-5d"/>
     </defs>
     <g transform="translate(1115.811562 101.529638)scale(0.1 -0.1)">
      <use xlink:href="#DejaVuSans-54"/>
      <use x="60.818359" xlink:href="#DejaVuSans-6f"/>
      <use x="122" xlink:href="#DejaVuSans-74"/>
      <use x="161.208984" xlink:href="#DejaVuSans-61"/>
      <use x="222.488281" xlink:href="#DejaVuSans-6c"/>
      <use x="250.271484" xlink:href="#DejaVuSans-20"/>
      <use x="282.058594" xlink:href="#DejaVuSans-61"/>
      <use x="343.337891" xlink:href="#DejaVuSans-63"/>
      <use x="398.318359" xlink:href="#DejaVuSans-74"/>
      <use x="437.527344" xlink:href="#DejaVuSans-69"/>
      <use x="465.310547" xlink:href="#DejaVuSans-76"/>
      <use x="524.490234" xlink:href="#DejaVuSans-65"/>
      <use x="586.013672" xlink:href="#DejaVuSans-20"/>
      <use x="617.800781" xlink:href="#DejaVuSans-70"/>
      <use x="681.277344" xlink:href="#DejaVuSans-6f"/>
      <use x="742.458984" xlink:href="#DejaVuSans-77"/>
      <use x="824.246094" xlink:href="#DejaVuSans-65"/>
      <use x="885.769531" xlink:href="#DejaVuSans-72"/>
      <use x="926.882812" xlink:href="#DejaVuSans-20"/>
      <use x="958.669922" xlink:href="#DejaVuSans-5b"/>
      <use x="997.683594" xlink:href="#DejaVuSans-6b"/>
      <use x="1055.59375" xlink:href="#DejaVuSans-57"/>
      <use x="1154.470703" xlink:href="#DejaVuSans-5d"/>
     </g>
    </g>
   </g>
  </g>
 </g>
 <defs>
  <clipPath id="pdb708ab2ec">
   <rect height="544.9752" width="1071.36" x="172.8" y="84.9312"/>
  </clipPath>
 </defs>
</svg>
