<?xml version="1.0" encoding="utf-8" standalone="no"?>
<!DOCTYPE svg PUBLIC "-//W3C//DTD SVG 1.1//EN"
  "http://www.w3.org/Graphics/SVG/1.1/DTD/svg11.dtd">
<!-- Created with matplotlib (http://matplotlib.org/) -->
<svg height="707.76pt" version="1.1" viewBox="0 0 1382.4 707.76" width="1382.4pt" xmlns="http://www.w3.org/2000/svg" xmlns:xlink="http://www.w3.org/1999/xlink">
 <defs>
  <style type="text/css">
*{stroke-linecap:butt;stroke-linejoin:round;}
  </style>
 </defs>
 <g id="figure_1">
  <g id="patch_1">
   <path d="M 0 707.76 
L 1382.4 707.76 
L 1382.4 0 
L 0 0 
z
" style="fill:#ffffff;"/>
  </g>
  <g id="axes_1">
   <g id="patch_2">
    <path d="M 184.632 578.184217 
L 1370.088 578.184217 
L 1370.088 121.4005 
L 184.632 121.4005 
z
" style="fill:#ffffff;"/>
   </g>
   <g id="matplotlib.axis_1">
    <g id="xtick_1">
     <g id="line2d_1">
      <defs>
       <path d="M 0 0 
L 0 3.5 
" id="mbfd1ae0f4f" style="stroke:#000000;stroke-width:0.8;"/>
      </defs>
      <g>
       <use style="stroke:#000000;stroke-width:0.8;" x="184.565362" xlink:href="#mbfd1ae0f4f" y="578.184217"/>
      </g>
     </g>
    </g>
    <g id="xtick_2">
     <g id="line2d_2">
      <g>
       <use style="stroke:#000000;stroke-width:0.8;" x="1370.08751" xlink:href="#mbfd1ae0f4f" y="578.184217"/>
      </g>
     </g>
    </g>
    <g id="xtick_3">
     <g id="line2d_3">
      <defs>
       <path d="M 0 0 
L 0 2 
" id="mdfa0c1fe49" style="stroke:#000000;stroke-width:0.6;"/>
      </defs>
      <g>
       <use style="stroke:#000000;stroke-width:0.6;" x="407.002003" xlink:href="#mdfa0c1fe49" y="578.184217"/>
      </g>
     </g>
     <g id="text_1">
      <!-- 16 -->
      <defs>
       <path d="M 12.40625 8.296875 
L 28.515625 8.296875 
L 28.515625 63.921875 
L 10.984375 60.40625 
L 10.984375 69.390625 
L 28.421875 72.90625 
L 38.28125 72.90625 
L 38.28125 8.296875 
L 54.390625 8.296875 
L 54.390625 0 
L 12.40625 0 
z
" id="DejaVuSans-31"/>
       <path d="M 33.015625 40.375 
Q 26.375 40.375 22.484375 35.828125 
Q 18.609375 31.296875 18.609375 23.390625 
Q 18.609375 15.53125 22.484375 10.953125 
Q 26.375 6.390625 33.015625 6.390625 
Q 39.65625 6.390625 43.53125 10.953125 
Q 47.40625 15.53125 47.40625 23.390625 
Q 47.40625 31.296875 43.53125 35.828125 
Q 39.65625 40.375 33.015625 40.375 
z
M 52.59375 71.296875 
L 52.59375 62.3125 
Q 48.875 64.0625 45.09375 64.984375 
Q 41.3125 65.921875 37.59375 65.921875 
Q 27.828125 65.921875 22.671875 59.328125 
Q 17.53125 52.734375 16.796875 39.40625 
Q 19.671875 43.65625 24.015625 45.921875 
Q 28.375 48.1875 33.59375 48.1875 
Q 44.578125 48.1875 50.953125 41.515625 
Q 57.328125 34.859375 57.328125 23.390625 
Q 57.328125 12.15625 50.6875 5.359375 
Q 44.046875 -1.421875 33.015625 -1.421875 
Q 20.359375 -1.421875 13.671875 8.265625 
Q 6.984375 17.96875 6.984375 36.375 
Q 6.984375 53.65625 15.1875 63.9375 
Q 23.390625 74.21875 37.203125 74.21875 
Q 40.921875 74.21875 44.703125 73.484375 
Q 48.484375 72.75 52.59375 71.296875 
z
" id="DejaVuSans-36"/>
      </defs>
      <g transform="translate(401.70204 589.913715)scale(0.0833 -0.0833)">
       <use xlink:href="#DejaVuSans-31"/>
       <use x="63.623047" xlink:href="#DejaVuSans-36"/>
      </g>
      <!-- Jun -->
      <defs>
       <path d="M 9.8125 72.90625 
L 19.671875 72.90625 
L 19.671875 5.078125 
Q 19.671875 -8.109375 14.671875 -14.0625 
Q 9.671875 -20.015625 -1.421875 -20.015625 
L -5.171875 -20.015625 
L -5.171875 -11.71875 
L -2.09375 -11.71875 
Q 4.4375 -11.71875 7.125 -8.046875 
Q 9.8125 -4.390625 9.8125 5.078125 
z
" id="DejaVuSans-4a"/>
       <path d="M 8.5 21.578125 
L 8.5 54.6875 
L 17.484375 54.6875 
L 17.484375 21.921875 
Q 17.484375 14.15625 20.5 10.265625 
Q 23.53125 6.390625 29.59375 6.390625 
Q 36.859375 6.390625 41.078125 11.03125 
Q 45.3125 15.671875 45.3125 23.6875 
L 45.3125 54.6875 
L 54.296875 54.6875 
L 54.296875 0 
L 45.3125 0 
L 45.3125 8.40625 
Q 42.046875 3.421875 37.71875 1 
Q 33.40625 -1.421875 27.6875 -1.421875 
Q 18.265625 -1.421875 13.375 4.4375 
Q 8.5 10.296875 8.5 21.578125 
z
M 31.109375 56 
z
" id="DejaVuSans-75"/>
       <path d="M 54.890625 33.015625 
L 54.890625 0 
L 45.90625 0 
L 45.90625 32.71875 
Q 45.90625 40.484375 42.875 44.328125 
Q 39.84375 48.1875 33.796875 48.1875 
Q 26.515625 48.1875 22.3125 43.546875 
Q 18.109375 38.921875 18.109375 30.90625 
L 18.109375 0 
L 9.078125 0 
L 9.078125 54.6875 
L 18.109375 54.6875 
L 18.109375 46.1875 
Q 21.34375 51.125 25.703125 53.5625 
Q 30.078125 56 35.796875 56 
Q 45.21875 56 50.046875 50.171875 
Q 54.890625 44.34375 54.890625 33.015625 
z
" id="DejaVuSans-6e"/>
      </defs>
      <g transform="translate(400.49419 599.241493)scale(0.0833 -0.0833)">
       <use xlink:href="#DejaVuSans-4a"/>
       <use x="29.492188" xlink:href="#DejaVuSans-75"/>
       <use x="92.871094" xlink:href="#DejaVuSans-6e"/>
      </g>
      <!-- 2018 -->
      <defs>
       <path d="M 19.1875 8.296875 
L 53.609375 8.296875 
L 53.609375 0 
L 7.328125 0 
L 7.328125 8.296875 
Q 12.9375 14.109375 22.625 23.890625 
Q 32.328125 33.6875 34.8125 36.53125 
Q 39.546875 41.84375 41.421875 45.53125 
Q 43.3125 49.21875 43.3125 52.78125 
Q 43.3125 58.59375 39.234375 62.25 
Q 35.15625 65.921875 28.609375 65.921875 
Q 23.96875 65.921875 18.8125 64.3125 
Q 13.671875 62.703125 7.8125 59.421875 
L 7.8125 69.390625 
Q 13.765625 71.78125 18.9375 73 
Q 24.125 74.21875 28.421875 74.21875 
Q 39.75 74.21875 46.484375 68.546875 
Q 53.21875 62.890625 53.21875 53.421875 
Q 53.21875 48.921875 51.53125 44.890625 
Q 49.859375 40.875 45.40625 35.40625 
Q 44.1875 33.984375 37.640625 27.21875 
Q 31.109375 20.453125 19.1875 8.296875 
z
" id="DejaVuSans-32"/>
       <path d="M 31.78125 66.40625 
Q 24.171875 66.40625 20.328125 58.90625 
Q 16.5 51.421875 16.5 36.375 
Q 16.5 21.390625 20.328125 13.890625 
Q 24.171875 6.390625 31.78125 6.390625 
Q 39.453125 6.390625 43.28125 13.890625 
Q 47.125 21.390625 47.125 36.375 
Q 47.125 51.421875 43.28125 58.90625 
Q 39.453125 66.40625 31.78125 66.40625 
z
M 31.78125 74.21875 
Q 44.046875 74.21875 50.515625 64.515625 
Q 56.984375 54.828125 56.984375 36.375 
Q 56.984375 17.96875 50.515625 8.265625 
Q 44.046875 -1.421875 31.78125 -1.421875 
Q 19.53125 -1.421875 13.0625 8.265625 
Q 6.59375 17.96875 6.59375 36.375 
Q 6.59375 54.828125 13.0625 64.515625 
Q 19.53125 74.21875 31.78125 74.21875 
z
" id="DejaVuSans-30"/>
       <path d="M 31.78125 34.625 
Q 24.75 34.625 20.71875 30.859375 
Q 16.703125 27.09375 16.703125 20.515625 
Q 16.703125 13.921875 20.71875 10.15625 
Q 24.75 6.390625 31.78125 6.390625 
Q 38.8125 6.390625 42.859375 10.171875 
Q 46.921875 13.96875 46.921875 20.515625 
Q 46.921875 27.09375 42.890625 30.859375 
Q 38.875 34.625 31.78125 34.625 
z
M 21.921875 38.8125 
Q 15.578125 40.375 12.03125 44.71875 
Q 8.5 49.078125 8.5 55.328125 
Q 8.5 64.0625 14.71875 69.140625 
Q 20.953125 74.21875 31.78125 74.21875 
Q 42.671875 74.21875 48.875 69.140625 
Q 55.078125 64.0625 55.078125 55.328125 
Q 55.078125 49.078125 51.53125 44.71875 
Q 48 40.375 41.703125 38.8125 
Q 48.828125 37.15625 52.796875 32.3125 
Q 56.78125 27.484375 56.78125 20.515625 
Q 56.78125 9.90625 50.3125 4.234375 
Q 43.84375 -1.421875 31.78125 -1.421875 
Q 19.734375 -1.421875 13.25 4.234375 
Q 6.78125 9.90625 6.78125 20.515625 
Q 6.78125 27.484375 10.78125 32.3125 
Q 14.796875 37.15625 21.921875 38.8125 
z
M 18.3125 54.390625 
Q 18.3125 48.734375 21.84375 45.5625 
Q 25.390625 42.390625 31.78125 42.390625 
Q 38.140625 42.390625 41.71875 45.5625 
Q 45.3125 48.734375 45.3125 54.390625 
Q 45.3125 60.0625 41.71875 63.234375 
Q 38.140625 66.40625 31.78125 66.40625 
Q 25.390625 66.40625 21.84375 63.234375 
Q 18.3125 60.0625 18.3125 54.390625 
z
" id="DejaVuSans-38"/>
      </defs>
      <g transform="translate(396.402078 608.569271)scale(0.0833 -0.0833)">
       <use xlink:href="#DejaVuSans-32"/>
       <use x="63.623047" xlink:href="#DejaVuSans-30"/>
       <use x="127.246094" xlink:href="#DejaVuSans-31"/>
       <use x="190.869141" xlink:href="#DejaVuSans-38"/>
      </g>
     </g>
    </g>
    <g id="xtick_4">
     <g id="line2d_4">
      <g>
       <use style="stroke:#000000;stroke-width:0.6;" x="675.042809" xlink:href="#mdfa0c1fe49" y="578.184217"/>
      </g>
     </g>
     <g id="text_2">
      <!-- 17 -->
      <defs>
       <path d="M 8.203125 72.90625 
L 55.078125 72.90625 
L 55.078125 68.703125 
L 28.609375 0 
L 18.3125 0 
L 43.21875 64.59375 
L 8.203125 64.59375 
z
" id="DejaVuSans-37"/>
      </defs>
      <g transform="translate(669.742846 589.913715)scale(0.0833 -0.0833)">
       <use xlink:href="#DejaVuSans-31"/>
       <use x="63.623047" xlink:href="#DejaVuSans-37"/>
      </g>
     </g>
    </g>
    <g id="xtick_5">
     <g id="line2d_5">
      <g>
       <use style="stroke:#000000;stroke-width:0.6;" x="943.083615" xlink:href="#mdfa0c1fe49" y="578.184217"/>
      </g>
     </g>
     <g id="text_3">
      <!-- 18 -->
      <g transform="translate(937.783652 589.913715)scale(0.0833 -0.0833)">
       <use xlink:href="#DejaVuSans-31"/>
       <use x="63.623047" xlink:href="#DejaVuSans-38"/>
      </g>
     </g>
    </g>
    <g id="xtick_6">
     <g id="line2d_6">
      <g>
       <use style="stroke:#000000;stroke-width:0.6;" x="1211.124421" xlink:href="#mdfa0c1fe49" y="578.184217"/>
      </g>
     </g>
     <g id="text_4">
      <!-- 19 -->
      <defs>
       <path d="M 10.984375 1.515625 
L 10.984375 10.5 
Q 14.703125 8.734375 18.5 7.8125 
Q 22.3125 6.890625 25.984375 6.890625 
Q 35.75 6.890625 40.890625 13.453125 
Q 46.046875 20.015625 46.78125 33.40625 
Q 43.953125 29.203125 39.59375 26.953125 
Q 35.25 24.703125 29.984375 24.703125 
Q 19.046875 24.703125 12.671875 31.3125 
Q 6.296875 37.9375 6.296875 49.421875 
Q 6.296875 60.640625 12.9375 67.421875 
Q 19.578125 74.21875 30.609375 74.21875 
Q 43.265625 74.21875 49.921875 64.515625 
Q 56.59375 54.828125 56.59375 36.375 
Q 56.59375 19.140625 48.40625 8.859375 
Q 40.234375 -1.421875 26.421875 -1.421875 
Q 22.703125 -1.421875 18.890625 -0.6875 
Q 15.09375 0.046875 10.984375 1.515625 
z
M 30.609375 32.421875 
Q 37.25 32.421875 41.125 36.953125 
Q 45.015625 41.5 45.015625 49.421875 
Q 45.015625 57.28125 41.125 61.84375 
Q 37.25 66.40625 30.609375 66.40625 
Q 23.96875 66.40625 20.09375 61.84375 
Q 16.21875 57.28125 16.21875 49.421875 
Q 16.21875 41.5 20.09375 36.953125 
Q 23.96875 32.421875 30.609375 32.421875 
z
" id="DejaVuSans-39"/>
      </defs>
      <g transform="translate(1205.824458 589.913715)scale(0.0833 -0.0833)">
       <use xlink:href="#DejaVuSans-31"/>
       <use x="63.623047" xlink:href="#DejaVuSans-39"/>
      </g>
     </g>
    </g>
    <g id="text_5">
     <!-- Datum -->
     <defs>
      <path d="M 19.671875 64.796875 
L 19.671875 8.109375 
L 31.59375 8.109375 
Q 46.6875 8.109375 53.6875 14.9375 
Q 60.6875 21.78125 60.6875 36.53125 
Q 60.6875 51.171875 53.6875 57.984375 
Q 46.6875 64.796875 31.59375 64.796875 
z
M 9.8125 72.90625 
L 30.078125 72.90625 
Q 51.265625 72.90625 61.171875 64.09375 
Q 71.09375 55.28125 71.09375 36.53125 
Q 71.09375 17.671875 61.125 8.828125 
Q 51.171875 0 30.078125 0 
L 9.8125 0 
z
" id="DejaVuSans-44"/>
      <path d="M 34.28125 27.484375 
Q 23.390625 27.484375 19.1875 25 
Q 14.984375 22.515625 14.984375 16.5 
Q 14.984375 11.71875 18.140625 8.90625 
Q 21.296875 6.109375 26.703125 6.109375 
Q 34.1875 6.109375 38.703125 11.40625 
Q 43.21875 16.703125 43.21875 25.484375 
L 43.21875 27.484375 
z
M 52.203125 31.203125 
L 52.203125 0 
L 43.21875 0 
L 43.21875 8.296875 
Q 40.140625 3.328125 35.546875 0.953125 
Q 30.953125 -1.421875 24.3125 -1.421875 
Q 15.921875 -1.421875 10.953125 3.296875 
Q 6 8.015625 6 15.921875 
Q 6 25.140625 12.171875 29.828125 
Q 18.359375 34.515625 30.609375 34.515625 
L 43.21875 34.515625 
L 43.21875 35.40625 
Q 43.21875 41.609375 39.140625 45 
Q 35.0625 48.390625 27.6875 48.390625 
Q 23 48.390625 18.546875 47.265625 
Q 14.109375 46.140625 10.015625 43.890625 
L 10.015625 52.203125 
Q 14.9375 54.109375 19.578125 55.046875 
Q 24.21875 56 28.609375 56 
Q 40.484375 56 46.34375 49.84375 
Q 52.203125 43.703125 52.203125 31.203125 
z
" id="DejaVuSans-61"/>
      <path d="M 18.3125 70.21875 
L 18.3125 54.6875 
L 36.8125 54.6875 
L 36.8125 47.703125 
L 18.3125 47.703125 
L 18.3125 18.015625 
Q 18.3125 11.328125 20.140625 9.421875 
Q 21.96875 7.515625 27.59375 7.515625 
L 36.8125 7.515625 
L 36.8125 0 
L 27.59375 0 
Q 17.1875 0 13.234375 3.875 
Q 9.28125 7.765625 9.28125 18.015625 
L 9.28125 47.703125 
L 2.6875 47.703125 
L 2.6875 54.6875 
L 9.28125 54.6875 
L 9.28125 70.21875 
z
" id="DejaVuSans-74"/>
      <path d="M 52 44.1875 
Q 55.375 50.25 60.0625 53.125 
Q 64.75 56 71.09375 56 
Q 79.640625 56 84.28125 50.015625 
Q 88.921875 44.046875 88.921875 33.015625 
L 88.921875 0 
L 79.890625 0 
L 79.890625 32.71875 
Q 79.890625 40.578125 77.09375 44.375 
Q 74.3125 48.1875 68.609375 48.1875 
Q 61.625 48.1875 57.5625 43.546875 
Q 53.515625 38.921875 53.515625 30.90625 
L 53.515625 0 
L 44.484375 0 
L 44.484375 32.71875 
Q 44.484375 40.625 41.703125 44.40625 
Q 38.921875 48.1875 33.109375 48.1875 
Q 26.21875 48.1875 22.15625 43.53125 
Q 18.109375 38.875 18.109375 30.90625 
L 18.109375 0 
L 9.078125 0 
L 9.078125 54.6875 
L 18.109375 54.6875 
L 18.109375 46.1875 
Q 21.1875 51.21875 25.484375 53.609375 
Q 29.78125 56 35.6875 56 
Q 41.65625 56 45.828125 52.96875 
Q 50 49.953125 52 44.1875 
z
" id="DejaVuSans-6d"/>
     </defs>
     <g transform="translate(760.446719 621.900088)scale(0.1 -0.1)">
      <use xlink:href="#DejaVuSans-44"/>
      <use x="77.001953" xlink:href="#DejaVuSans-61"/>
      <use x="138.28125" xlink:href="#DejaVuSans-74"/>
      <use x="177.490234" xlink:href="#DejaVuSans-75"/>
      <use x="240.869141" xlink:href="#DejaVuSans-6d"/>
     </g>
    </g>
   </g>
   <g id="matplotlib.axis_2">
    <g id="ytick_1">
     <g id="line2d_7">
      <defs>
       <path d="M 0 0 
L -3.5 0 
" id="mc4670c17ed" style="stroke:#000000;stroke-width:0.8;"/>
      </defs>
      <g>
       <use style="stroke:#000000;stroke-width:0.8;" x="184.632" xlink:href="#mc4670c17ed" y="558.342384"/>
      </g>
     </g>
     <g id="text_6">
      <!-- −400000 -->
      <defs>
       <path d="M 10.59375 35.5 
L 73.1875 35.5 
L 73.1875 27.203125 
L 10.59375 27.203125 
z
" id="DejaVuSans-2212"/>
       <path d="M 37.796875 64.3125 
L 12.890625 25.390625 
L 37.796875 25.390625 
z
M 35.203125 72.90625 
L 47.609375 72.90625 
L 47.609375 25.390625 
L 58.015625 25.390625 
L 58.015625 17.1875 
L 47.609375 17.1875 
L 47.609375 0 
L 37.796875 0 
L 37.796875 17.1875 
L 4.890625 17.1875 
L 4.890625 26.703125 
z
" id="DejaVuSans-34"/>
      </defs>
      <g transform="translate(138.851945 561.507133)scale(0.0833 -0.0833)">
       <use xlink:href="#DejaVuSans-2212"/>
       <use x="83.789062" xlink:href="#DejaVuSans-34"/>
       <use x="147.412109" xlink:href="#DejaVuSans-30"/>
       <use x="211.035156" xlink:href="#DejaVuSans-30"/>
       <use x="274.658203" xlink:href="#DejaVuSans-30"/>
       <use x="338.28125" xlink:href="#DejaVuSans-30"/>
       <use x="401.904297" xlink:href="#DejaVuSans-30"/>
      </g>
     </g>
    </g>
    <g id="ytick_2">
     <g id="line2d_8">
      <g>
       <use style="stroke:#000000;stroke-width:0.8;" x="184.632" xlink:href="#mc4670c17ed" y="483.93196"/>
      </g>
     </g>
     <g id="text_7">
      <!-- −200000 -->
      <g transform="translate(138.851945 487.096709)scale(0.0833 -0.0833)">
       <use xlink:href="#DejaVuSans-2212"/>
       <use x="83.789062" xlink:href="#DejaVuSans-32"/>
       <use x="147.412109" xlink:href="#DejaVuSans-30"/>
       <use x="211.035156" xlink:href="#DejaVuSans-30"/>
       <use x="274.658203" xlink:href="#DejaVuSans-30"/>
       <use x="338.28125" xlink:href="#DejaVuSans-30"/>
       <use x="401.904297" xlink:href="#DejaVuSans-30"/>
      </g>
     </g>
    </g>
    <g id="ytick_3">
     <g id="line2d_9">
      <g>
       <use style="stroke:#000000;stroke-width:0.8;" x="184.632" xlink:href="#mc4670c17ed" y="409.521535"/>
      </g>
     </g>
     <g id="text_8">
      <!-- 0 -->
      <g transform="translate(172.332038 412.686284)scale(0.0833 -0.0833)">
       <use xlink:href="#DejaVuSans-30"/>
      </g>
     </g>
    </g>
    <g id="ytick_4">
     <g id="line2d_10">
      <g>
       <use style="stroke:#000000;stroke-width:0.8;" x="184.632" xlink:href="#mc4670c17ed" y="335.111111"/>
      </g>
     </g>
     <g id="text_9">
      <!-- 200000 -->
      <g transform="translate(145.832225 338.27586)scale(0.0833 -0.0833)">
       <use xlink:href="#DejaVuSans-32"/>
       <use x="63.623047" xlink:href="#DejaVuSans-30"/>
       <use x="127.246094" xlink:href="#DejaVuSans-30"/>
       <use x="190.869141" xlink:href="#DejaVuSans-30"/>
       <use x="254.492188" xlink:href="#DejaVuSans-30"/>
       <use x="318.115234" xlink:href="#DejaVuSans-30"/>
      </g>
     </g>
    </g>
    <g id="ytick_5">
     <g id="line2d_11">
      <g>
       <use style="stroke:#000000;stroke-width:0.8;" x="184.632" xlink:href="#mc4670c17ed" y="260.700686"/>
      </g>
     </g>
     <g id="text_10">
      <!-- 400000 -->
      <g transform="translate(145.832225 263.865435)scale(0.0833 -0.0833)">
       <use xlink:href="#DejaVuSans-34"/>
       <use x="63.623047" xlink:href="#DejaVuSans-30"/>
       <use x="127.246094" xlink:href="#DejaVuSans-30"/>
       <use x="190.869141" xlink:href="#DejaVuSans-30"/>
       <use x="254.492188" xlink:href="#DejaVuSans-30"/>
       <use x="318.115234" xlink:href="#DejaVuSans-30"/>
      </g>
     </g>
    </g>
    <g id="ytick_6">
     <g id="line2d_12">
      <g>
       <use style="stroke:#000000;stroke-width:0.8;" x="184.632" xlink:href="#mc4670c17ed" y="186.290262"/>
      </g>
     </g>
     <g id="text_11">
      <!-- 600000 -->
      <g transform="translate(145.832225 189.455011)scale(0.0833 -0.0833)">
       <use xlink:href="#DejaVuSans-36"/>
       <use x="63.623047" xlink:href="#DejaVuSans-30"/>
       <use x="127.246094" xlink:href="#DejaVuSans-30"/>
       <use x="190.869141" xlink:href="#DejaVuSans-30"/>
       <use x="254.492188" xlink:href="#DejaVuSans-30"/>
       <use x="318.115234" xlink:href="#DejaVuSans-30"/>
      </g>
     </g>
    </g>
    <g id="text_12">
     <!-- Leistung der Batterie in W -->
     <defs>
      <path d="M 9.8125 72.90625 
L 19.671875 72.90625 
L 19.671875 8.296875 
L 55.171875 8.296875 
L 55.171875 0 
L 9.8125 0 
z
" id="DejaVuSans-4c"/>
      <path d="M 56.203125 29.59375 
L 56.203125 25.203125 
L 14.890625 25.203125 
Q 15.484375 15.921875 20.484375 11.0625 
Q 25.484375 6.203125 34.421875 6.203125 
Q 39.59375 6.203125 44.453125 7.46875 
Q 49.3125 8.734375 54.109375 11.28125 
L 54.109375 2.78125 
Q 49.265625 0.734375 44.1875 -0.34375 
Q 39.109375 -1.421875 33.890625 -1.421875 
Q 20.796875 -1.421875 13.15625 6.1875 
Q 5.515625 13.8125 5.515625 26.8125 
Q 5.515625 40.234375 12.765625 48.109375 
Q 20.015625 56 32.328125 56 
Q 43.359375 56 49.78125 48.890625 
Q 56.203125 41.796875 56.203125 29.59375 
z
M 47.21875 32.234375 
Q 47.125 39.59375 43.09375 43.984375 
Q 39.0625 48.390625 32.421875 48.390625 
Q 24.90625 48.390625 20.390625 44.140625 
Q 15.875 39.890625 15.1875 32.171875 
z
" id="DejaVuSans-65"/>
      <path d="M 9.421875 54.6875 
L 18.40625 54.6875 
L 18.40625 0 
L 9.421875 0 
z
M 9.421875 75.984375 
L 18.40625 75.984375 
L 18.40625 64.59375 
L 9.421875 64.59375 
z
" id="DejaVuSans-69"/>
      <path d="M 44.28125 53.078125 
L 44.28125 44.578125 
Q 40.484375 46.53125 36.375 47.5 
Q 32.28125 48.484375 27.875 48.484375 
Q 21.1875 48.484375 17.84375 46.4375 
Q 14.5 44.390625 14.5 40.28125 
Q 14.5 37.15625 16.890625 35.375 
Q 19.28125 33.59375 26.515625 31.984375 
L 29.59375 31.296875 
Q 39.15625 29.25 43.1875 25.515625 
Q 47.21875 21.78125 47.21875 15.09375 
Q 47.21875 7.46875 41.1875 3.015625 
Q 35.15625 -1.421875 24.609375 -1.421875 
Q 20.21875 -1.421875 15.453125 -0.5625 
Q 10.6875 0.296875 5.421875 2 
L 5.421875 11.28125 
Q 10.40625 8.6875 15.234375 7.390625 
Q 20.0625 6.109375 24.8125 6.109375 
Q 31.15625 6.109375 34.5625 8.28125 
Q 37.984375 10.453125 37.984375 14.40625 
Q 37.984375 18.0625 35.515625 20.015625 
Q 33.0625 21.96875 24.703125 23.78125 
L 21.578125 24.515625 
Q 13.234375 26.265625 9.515625 29.90625 
Q 5.8125 33.546875 5.8125 39.890625 
Q 5.8125 47.609375 11.28125 51.796875 
Q 16.75 56 26.8125 56 
Q 31.78125 56 36.171875 55.265625 
Q 40.578125 54.546875 44.28125 53.078125 
z
" id="DejaVuSans-73"/>
      <path d="M 45.40625 27.984375 
Q 45.40625 37.75 41.375 43.109375 
Q 37.359375 48.484375 30.078125 48.484375 
Q 22.859375 48.484375 18.828125 43.109375 
Q 14.796875 37.75 14.796875 27.984375 
Q 14.796875 18.265625 18.828125 12.890625 
Q 22.859375 7.515625 30.078125 7.515625 
Q 37.359375 7.515625 41.375 12.890625 
Q 45.40625 18.265625 45.40625 27.984375 
z
M 54.390625 6.78125 
Q 54.390625 -7.171875 48.1875 -13.984375 
Q 42 -20.796875 29.203125 -20.796875 
Q 24.46875 -20.796875 20.265625 -20.09375 
Q 16.0625 -19.390625 12.109375 -17.921875 
L 12.109375 -9.1875 
Q 16.0625 -11.328125 19.921875 -12.34375 
Q 23.78125 -13.375 27.78125 -13.375 
Q 36.625 -13.375 41.015625 -8.765625 
Q 45.40625 -4.15625 45.40625 5.171875 
L 45.40625 9.625 
Q 42.625 4.78125 38.28125 2.390625 
Q 33.9375 0 27.875 0 
Q 17.828125 0 11.671875 7.65625 
Q 5.515625 15.328125 5.515625 27.984375 
Q 5.515625 40.671875 11.671875 48.328125 
Q 17.828125 56 27.875 56 
Q 33.9375 56 38.28125 53.609375 
Q 42.625 51.21875 45.40625 46.390625 
L 45.40625 54.6875 
L 54.390625 54.6875 
z
" id="DejaVuSans-67"/>
      <path id="DejaVuSans-20"/>
      <path d="M 45.40625 46.390625 
L 45.40625 75.984375 
L 54.390625 75.984375 
L 54.390625 0 
L 45.40625 0 
L 45.40625 8.203125 
Q 42.578125 3.328125 38.25 0.953125 
Q 33.9375 -1.421875 27.875 -1.421875 
Q 17.96875 -1.421875 11.734375 6.484375 
Q 5.515625 14.40625 5.515625 27.296875 
Q 5.515625 40.1875 11.734375 48.09375 
Q 17.96875 56 27.875 56 
Q 33.9375 56 38.25 53.625 
Q 42.578125 51.265625 45.40625 46.390625 
z
M 14.796875 27.296875 
Q 14.796875 17.390625 18.875 11.75 
Q 22.953125 6.109375 30.078125 6.109375 
Q 37.203125 6.109375 41.296875 11.75 
Q 45.40625 17.390625 45.40625 27.296875 
Q 45.40625 37.203125 41.296875 42.84375 
Q 37.203125 48.484375 30.078125 48.484375 
Q 22.953125 48.484375 18.875 42.84375 
Q 14.796875 37.203125 14.796875 27.296875 
z
" id="DejaVuSans-64"/>
      <path d="M 41.109375 46.296875 
Q 39.59375 47.171875 37.8125 47.578125 
Q 36.03125 48 33.890625 48 
Q 26.265625 48 22.1875 43.046875 
Q 18.109375 38.09375 18.109375 28.8125 
L 18.109375 0 
L 9.078125 0 
L 9.078125 54.6875 
L 18.109375 54.6875 
L 18.109375 46.1875 
Q 20.953125 51.171875 25.484375 53.578125 
Q 30.03125 56 36.53125 56 
Q 37.453125 56 38.578125 55.875 
Q 39.703125 55.765625 41.0625 55.515625 
z
" id="DejaVuSans-72"/>
      <path d="M 19.671875 34.8125 
L 19.671875 8.109375 
L 35.5 8.109375 
Q 43.453125 8.109375 47.28125 11.40625 
Q 51.125 14.703125 51.125 21.484375 
Q 51.125 28.328125 47.28125 31.5625 
Q 43.453125 34.8125 35.5 34.8125 
z
M 19.671875 64.796875 
L 19.671875 42.828125 
L 34.28125 42.828125 
Q 41.5 42.828125 45.03125 45.53125 
Q 48.578125 48.25 48.578125 53.8125 
Q 48.578125 59.328125 45.03125 62.0625 
Q 41.5 64.796875 34.28125 64.796875 
z
M 9.8125 72.90625 
L 35.015625 72.90625 
Q 46.296875 72.90625 52.390625 68.21875 
Q 58.5 63.53125 58.5 54.890625 
Q 58.5 48.1875 55.375 44.234375 
Q 52.25 40.28125 46.1875 39.3125 
Q 53.46875 37.75 57.5 32.78125 
Q 61.53125 27.828125 61.53125 20.40625 
Q 61.53125 10.640625 54.890625 5.3125 
Q 48.25 0 35.984375 0 
L 9.8125 0 
z
" id="DejaVuSans-42"/>
      <path d="M 3.328125 72.90625 
L 13.28125 72.90625 
L 28.609375 11.28125 
L 43.890625 72.90625 
L 54.984375 72.90625 
L 70.3125 11.28125 
L 85.59375 72.90625 
L 95.609375 72.90625 
L 77.296875 0 
L 64.890625 0 
L 49.515625 63.28125 
L 33.984375 0 
L 21.578125 0 
z
" id="DejaVuSans-57"/>
     </defs>
     <g transform="translate(132.772258 415.296265)rotate(-90)scale(0.1 -0.1)">
      <use xlink:href="#DejaVuSans-4c"/>
      <use x="55.697266" xlink:href="#DejaVuSans-65"/>
      <use x="117.220703" xlink:href="#DejaVuSans-69"/>
      <use x="145.003906" xlink:href="#DejaVuSans-73"/>
      <use x="197.103516" xlink:href="#DejaVuSans-74"/>
      <use x="236.3125" xlink:href="#DejaVuSans-75"/>
      <use x="299.691406" xlink:href="#DejaVuSans-6e"/>
      <use x="363.070312" xlink:href="#DejaVuSans-67"/>
      <use x="426.546875" xlink:href="#DejaVuSans-20"/>
      <use x="458.333984" xlink:href="#DejaVuSans-64"/>
      <use x="521.810547" xlink:href="#DejaVuSans-65"/>
      <use x="583.333984" xlink:href="#DejaVuSans-72"/>
      <use x="624.447266" xlink:href="#DejaVuSans-20"/>
      <use x="656.234375" xlink:href="#DejaVuSans-42"/>
      <use x="724.837891" xlink:href="#DejaVuSans-61"/>
      <use x="786.117188" xlink:href="#DejaVuSans-74"/>
      <use x="825.326172" xlink:href="#DejaVuSans-74"/>
      <use x="864.535156" xlink:href="#DejaVuSans-65"/>
      <use x="926.058594" xlink:href="#DejaVuSans-72"/>
      <use x="967.171875" xlink:href="#DejaVuSans-69"/>
      <use x="994.955078" xlink:href="#DejaVuSans-65"/>
      <use x="1056.478516" xlink:href="#DejaVuSans-20"/>
      <use x="1088.265625" xlink:href="#DejaVuSans-69"/>
      <use x="1116.048828" xlink:href="#DejaVuSans-6e"/>
      <use x="1179.427734" xlink:href="#DejaVuSans-20"/>
      <use x="1211.214844" xlink:href="#DejaVuSans-57"/>
     </g>
    </g>
   </g>
   <g id="line2d_13">
    <path clip-path="url(#p4e23b16c41)" d="M 183.634664 409.521535 
L 186.426756 407.735803 
L 189.218848 409.521535 
L 194.803031 409.521535 
L 197.595123 407.735803 
L 200.387215 409.521535 
L 205.971398 409.521535 
L 208.76349 407.735803 
L 211.555582 409.521535 
L 217.139765 409.521535 
L 219.931857 407.735803 
L 222.723949 409.521535 
L 228.308132 409.521535 
L 231.100224 407.735803 
L 233.892315 409.521535 
L 239.476499 409.521535 
L 242.268591 407.735803 
L 245.060682 409.521535 
L 250.644866 409.521535 
L 253.436958 407.735803 
L 256.229049 409.521535 
L 261.813233 409.521535 
L 264.605325 407.735803 
L 267.397416 409.521535 
L 272.9816 409.521535 
L 275.773691 407.735803 
L 278.565783 409.521535 
L 284.149967 409.521535 
L 286.942058 177.157868 
L 289.73415 267.200918 
L 292.526242 205.441818 
L 295.318334 202.52385 
L 298.110425 409.521535 
L 303.694609 409.521535 
L 306.4867 326.13824 
L 309.278792 409.521535 
L 314.862976 409.521535 
L 317.655067 401.9934 
L 320.447159 409.521535 
L 339.991801 409.521535 
L 342.783893 534.091544 
L 345.575985 533.701745 
L 348.368076 533.658221 
L 351.160168 533.404973 
L 353.95226 516.082089 
L 356.744352 429.703475 
L 359.536443 409.521535 
L 362.328535 515.788054 
L 365.120627 393.168434 
L 367.912719 409.521535 
L 373.496902 409.521535 
L 376.288994 407.755741 
L 379.081085 409.521535 
L 384.665269 409.521535 
L 387.457361 407.755741 
L 390.249452 409.521535 
L 395.833636 409.521535 
L 398.625728 407.755741 
L 401.417819 409.521535 
L 407.002003 409.521535 
L 409.794094 407.755741 
L 412.586186 409.521535 
L 418.17037 409.521535 
L 420.962461 407.755741 
L 423.754553 409.521535 
L 429.338737 409.521535 
L 432.130828 407.755741 
L 434.92292 409.521535 
L 440.507103 409.521535 
L 443.299195 407.755741 
L 446.091287 409.521535 
L 451.67547 409.521535 
L 454.467562 407.755741 
L 457.259654 409.521535 
L 462.843837 409.521535 
L 465.635929 407.755741 
L 468.428021 409.521535 
L 474.012204 409.521535 
L 476.804296 407.755741 
L 479.596388 409.521535 
L 485.180571 409.521535 
L 487.972663 407.755741 
L 490.764755 409.521535 
L 496.348938 409.521535 
L 499.14103 407.755741 
L 501.933122 409.521535 
L 507.517305 409.521535 
L 510.309397 407.755741 
L 513.101488 409.521535 
L 518.685672 409.521535 
L 521.477764 407.755741 
L 524.269855 409.521535 
L 529.854039 409.521535 
L 532.646131 407.755741 
L 535.438222 409.521535 
L 541.022406 409.521535 
L 543.814498 407.755741 
L 546.606589 409.521535 
L 552.190773 409.521535 
L 554.982864 144.7636 
L 557.774956 155.129109 
L 560.567048 147.450833 
L 563.35914 355.214251 
L 566.151231 409.521535 
L 571.735415 409.521535 
L 574.527507 349.767479 
L 577.319598 409.521535 
L 580.11169 409.521535 
L 582.903782 403.33794 
L 585.695873 409.521535 
L 588.487965 405.969927 
L 591.280057 409.521535 
L 608.032607 409.521535 
L 610.824699 439.408242 
L 613.616791 490.829727 
L 616.408882 490.950738 
L 619.200974 409.521535 
L 621.993066 467.690209 
L 624.785158 467.344261 
L 627.577249 467.261187 
L 630.369341 467.306798 
L 633.161433 466.915157 
L 635.953525 440.24538 
L 644.3298 440.155675 
L 647.121892 464.716734 
L 649.913983 440.155675 
L 652.706075 439.45548 
L 655.498167 394.195547 
L 658.290258 409.521535 
L 663.874442 409.521535 
L 666.666534 407.654075 
L 669.458625 409.521535 
L 675.042809 409.521535 
L 677.834901 407.654075 
L 680.626992 409.521535 
L 686.211176 409.521535 
L 689.003267 407.654075 
L 691.795359 409.521535 
L 697.379543 409.521535 
L 700.171634 131.884814 
L 702.963726 155.13081 
L 705.755818 398.334972 
L 708.54791 155.813819 
L 711.340001 409.521535 
L 719.716276 409.521535 
L 722.508368 312.005445 
L 725.30046 409.521535 
L 742.05301 409.521535 
L 744.845102 433.085166 
L 747.637194 432.598513 
L 753.221377 431.300813 
L 756.013469 426.979723 
L 761.597652 425.896369 
L 764.389744 425.479147 
L 767.181836 409.521535 
L 792.310661 409.521535 
L 795.102753 210.970733 
L 797.894845 409.521535 
L 800.686937 409.521535 
L 803.479028 381.215913 
L 806.27112 409.521535 
L 823.023671 409.521535 
L 825.815762 404.958518 
L 828.607854 409.521535 
L 834.192037 409.521535 
L 836.984129 406.039724 
L 839.776221 409.521535 
L 845.360404 409.521535 
L 848.152496 406.217526 
L 850.944588 409.521535 
L 864.905046 409.521535 
L 867.697138 478.884356 
L 870.48923 479.264868 
L 873.281322 449.496235 
L 876.073413 409.521535 
L 878.865505 490.954257 
L 881.657597 463.918393 
L 884.449689 463.89411 
L 887.24178 488.118984 
L 892.825964 440.741494 
L 898.410147 440.754838 
L 901.202239 440.464434 
L 903.994331 440.464434 
L 906.786422 439.833991 
L 909.578514 440.464434 
L 912.370606 394.585768 
L 915.162698 409.521535 
L 920.746881 409.521535 
L 923.538973 407.615784 
L 926.331065 409.521535 
L 931.915248 409.521535 
L 934.70734 407.615784 
L 937.499431 409.521535 
L 943.083615 409.521535 
L 945.875707 407.615784 
L 948.667798 409.521535 
L 954.251982 409.521535 
L 957.044074 407.615784 
L 959.836165 409.521535 
L 965.420349 409.521535 
L 968.21244 397.823313 
L 971.004532 176.871889 
L 973.796624 154.914728 
L 976.588716 142.931798 
L 979.380807 409.521535 
L 982.172899 313.095839 
L 984.964991 409.521535 
L 987.757083 409.521535 
L 990.549174 401.208083 
L 993.341266 409.521535 
L 1010.093816 409.521535 
L 1012.885908 436.06141 
L 1015.678 435.548744 
L 1021.262183 434.276677 
L 1024.054275 409.521535 
L 1093.856568 409.521535 
L 1096.64866 286.731351 
L 1099.440752 409.521535 
L 1144.114219 409.521535 
L 1146.906311 506.098183 
L 1149.698403 505.50756 
L 1155.282586 505.472105 
L 1158.074678 487.847516 
L 1160.86677 487.980931 
L 1166.450953 487.994047 
L 1169.243045 409.521535 
L 1172.035137 409.521535 
L 1174.827228 425.398818 
L 1177.61932 409.521535 
L 1180.411412 405.79412 
L 1183.203504 409.521535 
L 1188.787687 409.521535 
L 1191.579779 406.480511 
L 1194.371871 409.521535 
L 1199.956054 409.521535 
L 1202.748146 406.651656 
L 1205.540238 409.521535 
L 1211.124421 409.521535 
L 1213.916513 406.6997 
L 1216.708604 409.521535 
L 1222.292788 409.521535 
L 1225.08488 200.009858 
L 1227.876971 158.131416 
L 1230.669063 409.521535 
L 1241.83743 409.521535 
L 1244.629522 161.959631 
L 1247.421613 409.521535 
L 1258.58998 409.521535 
L 1261.382072 274.169876 
L 1264.174164 409.521535 
L 1278.134623 409.521535 
L 1280.926714 438.010071 
L 1286.510898 436.650825 
L 1289.302989 436.047107 
L 1292.095081 434.241424 
L 1294.887173 433.660423 
L 1297.679265 455.675076 
L 1300.471356 455.787591 
L 1303.263448 409.521535 
L 1370.27365 409.521535 
L 1370.27365 409.521535 
" style="fill:none;stroke:#000000;stroke-linecap:square;stroke-width:2;"/>
   </g>
   <g id="line2d_14">
    <path clip-path="url(#p4e23b16c41)" d="M 183.634664 410.924018 
L 186.426756 409.104732 
L 189.218848 410.285705 
L 192.01094 410.993526 
L 194.803031 410.604172 
L 197.595123 408.686355 
L 200.387215 410.936962 
L 203.179306 412.134026 
L 205.971398 412.926754 
L 208.76349 411.224946 
L 211.555582 411.707428 
L 214.347673 411.796605 
L 217.139765 416.001948 
L 219.931857 414.617467 
L 222.723949 416.452139 
L 225.51604 416.544481 
L 228.308132 418.067633 
L 231.100224 416.829941 
L 233.892315 420.592224 
L 236.684407 418.895357 
L 239.476499 419.035519 
L 242.268591 418.447997 
L 245.060682 419.690106 
L 247.852774 419.742806 
L 250.644866 420.496788 
L 253.436958 420.841551 
L 256.229049 422.818948 
L 259.021141 424.081583 
L 261.813233 418.840196 
L 264.605325 418.273623 
L 267.397416 419.649642 
L 270.189508 418.413897 
L 272.9816 418.347729 
L 275.773691 416.863644 
L 278.565783 416.968578 
L 281.357875 416.927711 
L 284.149967 421.264792 
L 286.942058 230.152315 
L 289.73415 301.131577 
L 292.526242 245.599478 
L 295.318334 236.748886 
L 298.110425 410.557157 
L 300.902517 411.493987 
L 303.694609 411.798738 
L 306.4867 360.115238 
L 309.278792 405.755512 
L 312.070884 410.117087 
L 314.862976 412.133782 
L 317.655067 406.202222 
L 320.447159 406.321484 
L 323.239251 411.552355 
L 326.031343 411.582759 
L 328.823434 409.761228 
L 331.615526 407.303476 
L 334.407618 410.926954 
L 337.199709 410.767471 
L 339.991801 412.874959 
L 342.783893 527.035224 
L 345.575985 532.736527 
L 348.368076 532.583288 
L 351.160168 533.726836 
L 353.95226 509.195227 
L 356.744352 426.366005 
L 359.536443 411.055657 
L 362.328535 510.951824 
L 365.120627 397.558283 
L 367.912719 409.548005 
L 370.70481 409.227257 
L 373.496902 410.39433 
L 376.288994 407.261165 
L 379.081085 409.228315 
L 381.873177 408.640987 
L 384.665269 409.979027 
L 387.457361 407.966787 
L 390.249452 409.05036 
L 393.041544 406.824107 
L 395.833636 409.429606 
L 398.625728 404.98231 
L 401.417819 405.66808 
L 404.209911 399.143018 
L 407.002003 407.59332 
L 409.794094 404.654192 
L 412.586186 405.451319 
L 415.378278 403.175791 
L 418.17037 408.048844 
L 420.962461 406.434599 
L 423.754553 407.697145 
L 426.546645 407.008752 
L 429.338737 409.475447 
L 432.130828 409.162384 
L 434.92292 410.284893 
L 437.715012 410.330381 
L 440.507103 409.835323 
L 443.299195 408.93046 
L 446.091287 410.360039 
L 448.883379 408.770772 
L 451.67547 409.053639 
L 454.467562 408.882961 
L 457.259654 411.306145 
L 460.051746 410.687423 
L 462.843837 406.739376 
L 465.635929 410.291277 
L 468.428021 412.344617 
L 471.220113 412.183788 
L 474.012204 411.690145 
L 476.804296 413.017442 
L 482.388479 413.761652 
L 485.180571 417.296348 
L 487.972663 416.199567 
L 490.764755 418.771778 
L 493.556846 418.973333 
L 496.348938 421.441801 
L 499.14103 419.912301 
L 501.933122 424.499024 
L 504.725213 422.952008 
L 507.517305 425.754805 
L 510.309397 425.338617 
L 513.101488 428.014753 
L 515.89358 426.591001 
L 518.685672 430.568522 
L 521.477764 426.514854 
L 524.269855 430.541181 
L 527.061947 431.229867 
L 529.854039 429.8873 
L 532.646131 428.109928 
L 535.438222 430.618998 
L 538.230314 431.937119 
L 541.022406 431.301509 
L 543.814498 428.275225 
L 546.606589 431.285343 
L 549.398681 431.19534 
L 552.190773 430.025813 
L 554.982864 208.248731 
L 557.774956 205.532374 
L 560.567048 190.726255 
L 563.35914 368.402738 
L 566.151231 418.442763 
L 568.943323 419.470642 
L 571.735415 419.471527 
L 574.527507 379.614506 
L 577.319598 419.797084 
L 580.11169 415.472034 
L 582.903782 410.385208 
L 585.695873 414.098371 
L 588.487965 415.033147 
L 591.280057 414.318852 
L 594.072149 414.735226 
L 596.86424 414.946698 
L 599.656332 412.861229 
L 602.448424 413.976569 
L 605.240516 413.473627 
L 608.032607 413.894062 
L 610.824699 440.028435 
L 613.616791 492.702186 
L 616.408882 494.438007 
L 619.200974 406.558673 
L 621.993066 470.271387 
L 624.785158 469.179578 
L 630.369341 469.314243 
L 633.161433 468.266023 
L 635.953525 439.316755 
L 638.745616 439.898038 
L 641.537708 440.360723 
L 644.3298 441.953729 
L 647.121892 467.573961 
L 649.913983 440.006596 
L 652.706075 441.240899 
L 655.498167 399.125985 
L 658.290258 409.477098 
L 666.666534 408.807584 
L 669.458625 409.505712 
L 672.250717 408.921977 
L 675.042809 409.843377 
L 677.834901 408.491985 
L 680.626992 409.089923 
L 683.419084 407.836087 
L 686.211176 409.627828 
L 689.003267 408.080381 
L 691.795359 409.781064 
L 697.379543 409.336469 
L 700.171634 123.110228 
L 702.963726 152.87324 
L 705.755818 393.218963 
L 708.54791 170.562082 
L 711.340001 411.837607 
L 714.132093 405.8758 
L 716.924185 404.700659 
L 719.716276 405.734221 
L 722.508368 334.025035 
L 725.30046 402.403306 
L 728.092552 403.818964 
L 730.884643 404.092899 
L 733.676735 408.971579 
L 736.468827 408.740805 
L 739.260919 408.852464 
L 742.05301 407.699353 
L 744.845102 429.446995 
L 747.637194 426.162502 
L 750.429286 426.447792 
L 753.221377 425.823048 
L 756.013469 428.1936 
L 758.805561 424.509088 
L 761.597652 424.096154 
L 764.389744 424.692891 
L 767.181836 416.703429 
L 769.973928 414.429654 
L 772.766019 414.588485 
L 775.558111 416.919024 
L 778.350203 420.46769 
L 781.142295 417.971132 
L 783.934386 418.077307 
L 786.726478 413.873155 
L 789.51857 421.857661 
L 792.310661 415.939825 
L 795.102753 290.123756 
L 797.894845 402.65499 
L 800.686937 410.712381 
L 803.479028 397.576497 
L 806.27112 408.332073 
L 809.063212 409.004891 
L 811.855304 411.797526 
L 814.647395 408.979246 
L 817.439487 409.387835 
L 823.023671 410.959381 
L 825.815762 405.565427 
L 828.607854 409.677991 
L 831.399946 407.1079 
L 834.192037 406.252108 
L 836.984129 403.407151 
L 839.776221 407.043757 
L 842.568313 410.044282 
L 845.360404 411.151564 
L 848.152496 408.877687 
L 850.944588 410.074722 
L 853.73668 412.251592 
L 856.528771 415.866568 
L 859.320863 410.866407 
L 864.905046 411.871536 
L 867.697138 480.430189 
L 870.48923 479.266574 
L 873.281322 450.693189 
L 876.073413 409.479915 
L 878.865505 492.359969 
L 881.657597 462.867543 
L 884.449689 464.558527 
L 887.24178 489.752558 
L 890.033872 465.722648 
L 892.825964 440.255226 
L 895.618055 441.596564 
L 898.410147 440.726501 
L 901.202239 441.5595 
L 903.994331 440.793528 
L 906.786422 440.456421 
L 909.578514 441.889361 
L 912.370606 398.443312 
L 915.162698 408.801611 
L 917.954789 409.196187 
L 923.538973 408.554296 
L 926.331065 409.65424 
L 929.123156 408.87667 
L 931.915248 408.960224 
L 934.70734 408.581263 
L 937.499431 409.671127 
L 940.291523 405.414119 
L 943.083615 408.908365 
L 948.667798 408.824997 
L 951.45989 407.996762 
L 954.251982 409.672243 
L 957.044074 409.094009 
L 959.836165 410.087038 
L 962.628257 409.098546 
L 965.420349 409.283487 
L 968.21244 401.93575 
L 971.004532 175.827081 
L 973.796624 152.905801 
L 976.588716 137.547286 
L 979.380807 412.583552 
L 982.172899 321.857248 
L 984.964991 408.910126 
L 987.757083 409.495285 
L 990.549174 401.356153 
L 993.341266 406.461704 
L 996.133358 406.674068 
L 998.92545 405.790177 
L 1001.717541 409.864138 
L 1004.509633 409.745043 
L 1007.301725 409.995021 
L 1010.093816 407.407685 
L 1012.885908 436.58553 
L 1015.678 431.046523 
L 1018.470092 431.063188 
L 1021.262183 431.535932 
L 1024.054275 414.176138 
L 1026.846367 411.273404 
L 1029.638459 410.00373 
L 1035.222642 418.403657 
L 1038.014734 414.920759 
L 1040.806825 414.154502 
L 1043.598917 416.078454 
L 1046.391009 419.544585 
L 1049.183101 417.164803 
L 1051.975192 414.364682 
L 1054.767284 412.711724 
L 1057.559376 420.912674 
L 1060.351468 415.206694 
L 1063.143559 416.286824 
L 1065.935651 415.779764 
L 1068.727743 423.351402 
L 1071.519834 415.392132 
L 1074.311926 417.397502 
L 1077.104018 417.740379 
L 1079.89611 423.904823 
L 1082.688201 417.634857 
L 1085.480293 419.1252 
L 1088.272385 415.410261 
L 1091.064477 422.420037 
L 1093.856568 414.121881 
L 1096.64866 346.348675 
L 1099.440752 408.398649 
L 1102.232844 417.200212 
L 1105.024935 412.797573 
L 1107.817027 413.252298 
L 1110.609119 412.830906 
L 1113.40121 417.484953 
L 1116.193302 412.823953 
L 1118.985394 412.588898 
L 1124.569577 413.777999 
L 1127.361669 412.19925 
L 1130.153761 412.184022 
L 1132.945853 415.060258 
L 1135.737944 409.249072 
L 1138.530036 412.292505 
L 1141.322128 411.498174 
L 1144.114219 408.950368 
L 1146.906311 509.266435 
L 1149.698403 507.447623 
L 1152.490495 508.934724 
L 1155.282586 509.083751 
L 1158.074678 491.903636 
L 1160.86677 490.174407 
L 1166.450953 490.057688 
L 1169.243045 408.331202 
L 1172.035137 409.16983 
L 1174.827228 426.71141 
L 1177.61932 408.322186 
L 1180.411412 407.421776 
L 1183.203504 409.396234 
L 1185.995595 409.552664 
L 1188.787687 409.582422 
L 1191.579779 407.705313 
L 1194.371871 408.667163 
L 1197.163962 410.72577 
L 1199.956054 408.952901 
L 1202.748146 407.805944 
L 1205.540238 409.831926 
L 1208.332329 408.164983 
L 1211.124421 409.119685 
L 1213.916513 408.113563 
L 1216.708604 409.283883 
L 1219.500696 408.8414 
L 1222.292788 409.286843 
L 1225.08488 203.499958 
L 1227.876971 153.07627 
L 1230.669063 400.967222 
L 1233.461155 405.427764 
L 1236.253247 410.193782 
L 1239.045338 409.485507 
L 1241.83743 409.581586 
L 1244.629522 165.282753 
L 1247.421613 410.110141 
L 1250.213705 409.363158 
L 1253.005797 408.834638 
L 1255.797889 407.877351 
L 1258.58998 407.692821 
L 1261.382072 285.180817 
L 1264.174164 404.272876 
L 1266.966256 405.581705 
L 1269.758347 410.531448 
L 1272.550439 408.243967 
L 1275.342531 411.725149 
L 1278.134623 409.159843 
L 1280.926714 438.269967 
L 1283.718806 435.634364 
L 1286.510898 435.980621 
L 1289.302989 435.862718 
L 1292.095081 437.6079 
L 1294.887173 432.436968 
L 1297.679265 454.879039 
L 1300.471356 455.473753 
L 1303.263448 417.384086 
L 1306.05554 415.930938 
L 1308.847632 415.35908 
L 1314.431815 422.22344 
L 1317.223907 418.431843 
L 1320.015998 418.200891 
L 1322.80809 417.570747 
L 1325.600182 425.350986 
L 1328.392274 418.929211 
L 1331.184365 418.279584 
L 1333.976457 417.267109 
L 1336.768549 424.336205 
L 1339.560641 418.902664 
L 1342.352732 419.395922 
L 1345.144824 420.515915 
L 1347.936916 421.085084 
L 1350.729007 416.313817 
L 1353.521099 418.880786 
L 1356.313191 416.964277 
L 1359.105283 422.178184 
L 1361.897374 415.147632 
L 1364.689466 418.957642 
L 1367.481558 416.731218 
L 1370.27365 420.75869 
L 1370.27365 420.75869 
" style="fill:none;stroke:#ff0000;stroke-linecap:square;stroke-width:1.5;"/>
   </g>
   <g id="line2d_15">
    <path clip-path="url(#p4e23b16c41)" d="M 183.634664 409.424968 
L 186.426756 408.816973 
L 189.218848 409.424968 
L 194.803031 409.424968 
L 197.595123 408.816973 
L 200.387215 409.424968 
L 205.971398 409.424968 
L 208.76349 408.816973 
L 211.555582 409.424968 
L 217.139765 409.424968 
L 219.931857 408.816973 
L 222.723949 409.424968 
L 228.308132 409.424968 
L 231.100224 408.816973 
L 233.892315 409.424968 
L 239.476499 409.424968 
L 242.268591 408.816973 
L 245.060682 409.424968 
L 250.644866 409.424968 
L 253.436958 408.816973 
L 256.229049 409.424968 
L 261.813233 409.424968 
L 264.605325 408.816973 
L 267.397416 409.424968 
L 272.9816 409.424968 
L 275.773691 408.816973 
L 278.565783 409.424968 
L 284.149967 409.424968 
L 286.942058 178.766559 
L 289.73415 274.287117 
L 292.526242 217.700207 
L 295.318334 195.411763 
L 298.110425 409.424968 
L 303.694609 409.424968 
L 306.4867 326.529255 
L 309.278792 409.424968 
L 314.862976 409.424968 
L 317.655067 405.49329 
L 320.447159 409.424968 
L 339.991801 409.424968 
L 342.783893 547.234618 
L 351.160168 547.234618 
L 353.95226 512.976406 
L 356.744352 430.390659 
L 359.536443 409.424968 
L 362.328535 514.696561 
L 365.120627 392.874972 
L 367.912719 409.424968 
L 373.496902 409.424968 
L 376.288994 408.816973 
L 379.081085 409.424968 
L 384.665269 409.424968 
L 387.457361 408.816973 
L 390.249452 409.424968 
L 395.833636 409.424968 
L 398.625728 408.816973 
L 401.417819 409.424968 
L 407.002003 409.424968 
L 409.794094 408.816973 
L 412.586186 409.424968 
L 418.17037 409.424968 
L 420.962461 408.816973 
L 423.754553 409.424968 
L 429.338737 409.424968 
L 432.130828 408.816973 
L 434.92292 409.424968 
L 440.507103 409.424968 
L 443.299195 408.816973 
L 446.091287 409.424968 
L 451.67547 409.424968 
L 454.467562 408.816973 
L 457.259654 409.424968 
L 462.843837 409.424968 
L 465.635929 408.816973 
L 468.428021 409.424968 
L 474.012204 409.424968 
L 476.804296 408.816973 
L 479.596388 409.424968 
L 485.180571 409.424968 
L 487.972663 408.816973 
L 490.764755 409.424968 
L 496.348938 409.424968 
L 499.14103 408.816973 
L 501.933122 409.424968 
L 507.517305 409.424968 
L 510.309397 408.816973 
L 513.101488 409.424968 
L 518.685672 409.424968 
L 521.477764 408.816973 
L 524.269855 409.424968 
L 529.854039 409.424968 
L 532.646131 408.816973 
L 535.438222 409.424968 
L 541.022406 409.424968 
L 543.814498 408.816973 
L 546.606589 409.424968 
L 552.190773 409.424968 
L 554.982864 143.472366 
L 557.774956 154.397957 
L 560.567048 146.543895 
L 563.35914 363.169281 
L 566.151231 409.424968 
L 571.735415 409.424968 
L 574.527507 354.578482 
L 577.319598 409.424968 
L 580.11169 409.424968 
L 582.903782 405.49329 
L 585.695873 409.424968 
L 588.487965 406.421334 
L 591.280057 409.424968 
L 608.032607 409.424968 
L 610.824699 438.801216 
L 613.616791 498.900984 
L 616.408882 498.900984 
L 619.200974 409.424968 
L 621.993066 468.137751 
L 624.785158 471.642968 
L 633.161433 471.642968 
L 635.953525 443.562806 
L 638.745616 439.71786 
L 644.3298 439.71786 
L 647.121892 446.784815 
L 649.913983 443.562806 
L 652.706075 444.220768 
L 655.498167 392.874972 
L 658.290258 409.424968 
L 663.874442 409.424968 
L 666.666534 408.816973 
L 669.458625 409.424968 
L 675.042809 409.424968 
L 677.834901 408.816973 
L 680.626992 409.424968 
L 686.211176 409.424968 
L 689.003267 408.816973 
L 691.795359 409.424968 
L 697.379543 409.424968 
L 700.171634 137.439144 
L 702.963726 154.936664 
L 705.755818 397.458358 
L 708.54791 154.094749 
L 711.340001 409.424968 
L 719.716276 409.424968 
L 722.508368 322.379637 
L 725.30046 409.424968 
L 742.05301 409.424968 
L 744.845102 431.634511 
L 747.637194 430.205685 
L 753.221377 430.205685 
L 756.013469 418.847103 
L 764.389744 418.847103 
L 767.181836 409.424968 
L 792.310661 409.424968 
L 795.102753 224.518669 
L 797.894845 409.424968 
L 800.686937 409.424968 
L 803.479028 382.541865 
L 806.27112 409.424968 
L 823.023671 409.424968 
L 825.815762 406.100827 
L 828.607854 409.424968 
L 834.192037 409.424968 
L 836.984129 406.479618 
L 839.776221 409.424968 
L 845.360404 409.424968 
L 848.152496 406.53857 
L 850.944588 409.424968 
L 864.905046 409.424968 
L 867.697138 468.137751 
L 870.48923 471.642968 
L 873.281322 448.894353 
L 876.073413 409.424968 
L 878.865505 498.900984 
L 881.657597 450.290031 
L 884.449689 450.290031 
L 887.24178 471.642968 
L 890.033872 450.290031 
L 892.825964 443.562806 
L 895.618055 439.71786 
L 898.410147 440.375823 
L 901.202239 439.71786 
L 909.578514 439.71786 
L 912.370606 392.874972 
L 915.162698 409.424968 
L 920.746881 409.424968 
L 923.538973 408.816973 
L 926.331065 409.424968 
L 931.915248 409.424968 
L 934.70734 408.816973 
L 937.499431 409.424968 
L 943.083615 409.424968 
L 945.875707 408.816973 
L 948.667798 409.424968 
L 954.251982 409.424968 
L 957.044074 408.816973 
L 959.836165 409.424968 
L 965.420349 409.424968 
L 968.21244 395.277439 
L 971.004532 176.069224 
L 973.796624 154.921677 
L 976.588716 142.909203 
L 979.380807 409.424968 
L 982.172899 322.379637 
L 984.964991 409.424968 
L 987.757083 409.424968 
L 990.549174 404.718419 
L 993.341266 409.424968 
L 1010.093816 409.424968 
L 1012.885908 437.351146 
L 1018.470092 437.351146 
L 1021.262183 438.009109 
L 1024.054275 409.424968 
L 1093.856568 409.424968 
L 1096.64866 269.070905 
L 1099.440752 409.424968 
L 1144.114219 409.424968 
L 1146.906311 511.450507 
L 1149.698403 511.450507 
L 1152.490495 513.170661 
L 1155.282586 513.170661 
L 1158.074678 471.642968 
L 1163.658862 471.642968 
L 1166.450953 475.806235 
L 1169.243045 409.424968 
L 1172.035137 409.424968 
L 1174.827228 418.847103 
L 1177.61932 409.424968 
L 1180.411412 406.39381 
L 1183.203504 409.424968 
L 1188.787687 409.424968 
L 1191.579779 407.197503 
L 1194.371871 409.424968 
L 1199.956054 409.424968 
L 1202.748146 407.968889 
L 1205.540238 409.424968 
L 1211.124421 409.424968 
L 1213.916513 407.968889 
L 1216.708604 409.424968 
L 1222.292788 409.424968 
L 1225.08488 197.492919 
L 1227.876971 154.285498 
L 1230.669063 409.424968 
L 1241.83743 409.424968 
L 1244.629522 168.570306 
L 1247.421613 409.424968 
L 1258.58998 409.424968 
L 1261.382072 267.470507 
L 1264.174164 409.424968 
L 1278.134623 409.424968 
L 1280.926714 438.801216 
L 1286.510898 438.801216 
L 1289.302989 438.009109 
L 1292.095081 437.351146 
L 1294.887173 431.634511 
L 1297.679265 446.784815 
L 1300.471356 450.290031 
L 1303.263448 409.424968 
L 1370.27365 409.424968 
L 1370.27365 409.424968 
" style="fill:none;stroke:#008000;stroke-linecap:square;stroke-width:1.5;"/>
   </g>
   <g id="line2d_16">
    <path clip-path="url(#p4e23b16c41)" d="M 183.634664 409.507268 
L 186.426756 407.552309 
L 189.218848 409.166554 
L 192.01094 409.20379 
L 194.803031 408.95577 
L 197.595123 407.246689 
L 200.387215 409.158049 
L 203.179306 409.123911 
L 205.971398 408.613247 
L 208.76349 407.135041 
L 211.555582 409.26814 
L 214.347673 409.22693 
L 217.139765 408.566224 
L 219.931857 407.495234 
L 222.723949 409.287082 
L 225.51604 409.22021 
L 231.100224 407.586444 
L 233.892315 409.254727 
L 239.476499 408.709651 
L 242.268591 407.472111 
L 245.060682 409.087296 
L 247.852774 409.103715 
L 250.644866 408.607479 
L 253.436958 407.879986 
L 256.229049 409.51288 
L 259.021141 409.620847 
L 261.813233 410.569765 
L 264.605325 407.440226 
L 267.397416 409.193076 
L 270.189508 409.148535 
L 272.9816 409.828369 
L 275.773691 407.0371 
L 278.565783 409.014403 
L 281.357875 408.917949 
L 284.149967 407.440942 
L 286.942058 181.500974 
L 289.73415 270.75832 
L 292.526242 208.3704 
L 295.318334 205.254917 
L 298.110425 409.42084 
L 300.902517 409.836795 
L 303.694609 409.733504 
L 306.4867 328.871361 
L 309.278792 409.484152 
L 312.070884 409.709351 
L 314.862976 409.487031 
L 317.655067 402.067189 
L 320.447159 409.577998 
L 323.239251 409.844084 
L 326.031343 409.83515 
L 328.823434 409.298086 
L 331.615526 410.011127 
L 334.407618 410.104081 
L 337.199709 410.059126 
L 339.991801 410.584051 
L 342.783893 533.821702 
L 345.575985 533.380694 
L 348.368076 533.413234 
L 351.160168 534.052427 
L 353.95226 516.498165 
L 356.744352 429.441198 
L 359.536443 409.191203 
L 362.328535 515.577489 
L 365.120627 393.308797 
L 367.912719 409.079505 
L 370.70481 409.229383 
L 373.496902 409.192119 
L 376.288994 407.234588 
L 379.081085 409.029973 
L 381.873177 409.012816 
L 384.665269 409.131971 
L 387.457361 407.260535 
L 390.249452 409.041919 
L 393.041544 408.964816 
L 395.833636 409.09804 
L 398.625728 407.192465 
L 401.417819 408.971723 
L 404.209911 408.81186 
L 407.002003 409.098027 
L 409.794094 407.212562 
L 412.586186 408.958079 
L 415.378278 408.880783 
L 418.17037 409.205823 
L 420.962461 407.26945 
L 423.754553 409.016913 
L 426.546645 409.010623 
L 429.338737 409.602041 
L 432.130828 407.621878 
L 434.92292 409.463181 
L 440.507103 409.508688 
L 443.299195 407.713489 
L 446.091287 409.424591 
L 448.883379 409.299127 
L 451.67547 409.389893 
L 454.467562 407.500074 
L 457.259654 409.29731 
L 460.051746 409.284061 
L 462.843837 408.963366 
L 465.635929 407.439263 
L 468.428021 409.108254 
L 471.220113 409.176074 
L 474.012204 408.888844 
L 476.804296 407.572539 
L 479.596388 409.41129 
L 482.388479 409.443721 
L 485.180571 408.619376 
L 487.972663 407.958541 
L 490.764755 409.559679 
L 493.556846 409.411629 
L 496.348938 409.083914 
L 499.14103 408.270815 
L 501.933122 409.896971 
L 504.725213 409.899409 
L 507.517305 409.58995 
L 510.309397 408.162803 
L 513.101488 409.685414 
L 515.89358 409.976419 
L 518.685672 409.432251 
L 521.477764 408.661689 
L 524.269855 410.005081 
L 529.854039 410.394373 
L 532.646131 408.886168 
L 535.438222 410.644059 
L 538.230314 410.269235 
L 541.022406 410.028299 
L 543.814498 408.690473 
L 546.606589 410.277445 
L 549.398681 409.941712 
L 552.190773 410.121624 
L 554.982864 155.388865 
L 557.774956 164.184496 
L 560.567048 156.755843 
L 563.35914 355.887801 
L 566.151231 409.623457 
L 568.943323 409.916249 
L 571.735415 409.823657 
L 574.527507 352.833032 
L 577.319598 409.840241 
L 580.11169 410.449515 
L 582.903782 404.628332 
L 585.695873 410.527331 
L 588.487965 406.716522 
L 591.280057 410.522785 
L 594.072149 410.424159 
L 596.86424 410.550059 
L 599.656332 410.020883 
L 602.448424 410.311456 
L 605.240516 410.159515 
L 608.032607 410.347136 
L 610.824699 439.237605 
L 613.616791 490.386388 
L 616.408882 490.638971 
L 619.200974 410.085505 
L 621.993066 467.22948 
L 624.785158 466.778346 
L 627.577249 466.713727 
L 630.369341 467.163507 
L 633.161433 466.568304 
L 635.953525 439.701007 
L 641.537708 439.691808 
L 644.3298 439.736836 
L 647.121892 464.096571 
L 649.913983 439.675307 
L 652.706075 438.92208 
L 655.498167 394.384436 
L 658.290258 409.416634 
L 661.08235 409.387916 
L 663.874442 409.495629 
L 666.666534 407.507291 
L 669.458625 409.371622 
L 672.250717 409.311815 
L 675.042809 409.445222 
L 677.834901 407.484136 
L 680.626992 409.261041 
L 683.419084 409.235215 
L 686.211176 409.495593 
L 689.003267 407.402037 
L 691.795359 409.383304 
L 694.587451 409.360238 
L 697.379543 409.5195 
L 700.171634 132.376453 
L 702.963726 154.864011 
L 705.755818 397.268061 
L 708.54791 156.139994 
L 711.340001 409.468108 
L 714.132093 408.904991 
L 716.924185 408.8972 
L 719.716276 409.159675 
L 722.508368 312.868389 
L 725.30046 408.602475 
L 728.092552 408.685587 
L 730.884643 409.023962 
L 733.676735 408.681345 
L 736.468827 409.006341 
L 739.260919 408.934116 
L 742.05301 408.671934 
L 744.845102 431.800275 
L 747.637194 431.717096 
L 750.429286 430.988565 
L 753.221377 429.792653 
L 756.013469 425.993263 
L 758.805561 425.709624 
L 761.597652 425.296944 
L 764.389744 424.134153 
L 767.181836 409.187156 
L 769.973928 409.578165 
L 772.766019 409.587687 
L 778.350203 409.197232 
L 781.142295 409.642407 
L 783.934386 409.655984 
L 786.726478 410.010848 
L 789.51857 409.831157 
L 792.310661 410.377211 
L 795.102753 220.416918 
L 797.894845 409.593539 
L 800.686937 409.875616 
L 803.479028 384.103376 
L 806.27112 410.351004 
L 809.063212 410.310928 
L 811.855304 409.74902 
L 814.647395 410.472249 
L 817.439487 410.181881 
L 820.231579 410.485361 
L 823.023671 409.640503 
L 825.815762 405.576636 
L 828.607854 410.316083 
L 831.399946 410.357495 
L 834.192037 409.535572 
L 836.984129 406.654328 
L 839.776221 410.209069 
L 842.568313 410.239548 
L 845.360404 409.553418 
L 848.152496 406.971463 
L 850.944588 410.033061 
L 853.73668 410.338417 
L 856.528771 409.983282 
L 859.320863 410.485942 
L 862.112955 410.279931 
L 864.905046 410.591309 
L 867.697138 478.350927 
L 870.48923 478.833154 
L 873.281322 449.241029 
L 876.073413 410.182272 
L 878.865505 490.63091 
L 881.657597 463.526822 
L 884.449689 463.392342 
L 887.24178 488.358751 
L 892.825964 440.313179 
L 895.618055 440.233756 
L 898.410147 440.782691 
L 901.202239 440.021928 
L 903.994331 439.904998 
L 906.786422 439.259383 
L 909.578514 439.930638 
L 912.370606 394.786889 
L 915.162698 409.368031 
L 917.954789 409.357325 
L 920.746881 409.508985 
L 923.538973 407.442572 
L 926.331065 409.374775 
L 929.123156 409.306767 
L 931.915248 409.506316 
L 934.70734 407.455785 
L 937.499431 409.245504 
L 940.291523 409.235438 
L 943.083615 409.568486 
L 945.875707 407.501302 
L 948.667798 409.344871 
L 951.45989 409.250831 
L 954.251982 409.481405 
L 957.044074 407.536505 
L 959.836165 409.431645 
L 962.628257 409.3367 
L 965.420349 409.522192 
L 968.21244 397.970559 
L 971.004532 176.095378 
L 973.796624 154.628413 
L 976.588716 142.782988 
L 979.380807 409.898488 
L 982.172899 314.096187 
L 984.964991 409.349047 
L 987.757083 409.388064 
L 990.549174 400.908598 
L 993.341266 409.070329 
L 996.133358 409.14522 
L 998.92545 408.845217 
L 1001.717541 409.034912 
L 1010.093816 409.079206 
L 1012.885908 435.135549 
L 1015.678 434.861792 
L 1018.470092 434.199941 
L 1021.262183 432.498244 
L 1024.054275 409.656389 
L 1029.638459 409.945785 
L 1032.43055 409.484643 
L 1040.806825 410.203015 
L 1043.598917 409.925602 
L 1046.391009 410.218399 
L 1049.183101 410.284306 
L 1051.975192 410.656718 
L 1054.767284 410.750419 
L 1057.559376 410.653865 
L 1060.351468 410.951025 
L 1068.727743 410.7566 
L 1071.519834 411.266466 
L 1074.311926 411.125932 
L 1077.104018 410.715099 
L 1079.89611 410.66348 
L 1082.688201 411.312197 
L 1085.480293 410.760907 
L 1088.272385 411.455215 
L 1091.064477 410.643464 
L 1093.856568 411.077245 
L 1096.64866 293.465367 
L 1099.440752 411.388811 
L 1102.232844 410.743268 
L 1105.024935 410.874446 
L 1107.817027 410.80124 
L 1110.609119 410.872497 
L 1113.40121 410.287725 
L 1116.193302 410.610381 
L 1118.985394 410.476611 
L 1121.777486 410.515675 
L 1124.569577 410.19681 
L 1127.361669 410.368517 
L 1130.153761 410.336391 
L 1132.945853 410.851537 
L 1135.737944 410.106911 
L 1144.114219 410.166828 
L 1146.906311 505.745179 
L 1149.698403 505.141263 
L 1152.490495 505.068403 
L 1155.282586 505.950291 
L 1158.074678 487.885708 
L 1160.86677 487.522327 
L 1163.658862 487.520922 
L 1166.450953 488.067448 
L 1169.243045 409.43719 
L 1172.035137 409.315271 
L 1174.827228 425.03361 
L 1177.61932 409.342003 
L 1180.411412 405.579755 
L 1183.203504 409.292309 
L 1185.995595 409.290277 
L 1188.787687 409.423897 
L 1191.579779 406.269624 
L 1194.371871 409.197931 
L 1199.956054 409.378053 
L 1202.748146 406.496993 
L 1205.540238 409.407228 
L 1208.332329 409.240715 
L 1211.124421 409.478549 
L 1213.916513 406.625311 
L 1216.708604 409.356514 
L 1219.500696 409.333289 
L 1222.292788 409.460235 
L 1225.08488 199.353026 
L 1227.876971 157.021516 
L 1230.669063 408.492562 
L 1233.461155 409.186039 
L 1236.253247 409.331991 
L 1241.83743 409.315713 
L 1244.629522 162.484916 
L 1247.421613 410.053665 
L 1250.213705 409.460004 
L 1253.005797 409.394233 
L 1255.797889 409.606904 
L 1258.58998 409.153161 
L 1261.382072 275.094841 
L 1264.174164 409.212021 
L 1266.966256 408.936302 
L 1272.550439 409.314 
L 1278.134623 409.073106 
L 1280.926714 437.283348 
L 1283.718806 436.764916 
L 1286.510898 436.104502 
L 1292.095081 433.756 
L 1294.887173 433.475178 
L 1297.679265 454.783289 
L 1300.471356 454.040678 
L 1303.263448 410.03064 
L 1308.847632 410.232414 
L 1311.639723 409.951681 
L 1317.223907 410.189122 
L 1320.015998 410.242842 
L 1322.80809 410.059202 
L 1328.392274 410.777712 
L 1333.976457 410.526069 
L 1336.768549 410.934846 
L 1339.560641 411.005987 
L 1342.352732 410.904702 
L 1345.144824 411.163271 
L 1350.729007 411.190898 
L 1353.521099 410.521789 
L 1356.313191 410.833353 
L 1359.105283 410.23264 
L 1361.897374 410.746492 
L 1364.689466 410.207549 
L 1367.481558 410.605022 
L 1370.27365 409.860714 
L 1370.27365 409.860714 
" style="fill:none;stroke:#0000ff;stroke-dasharray:7.68,1.92,1.2,1.92;stroke-dashoffset:0;stroke-width:1.2;"/>
   </g>
   <g id="patch_3">
    <path d="M 184.632 578.184217 
L 184.632 121.4005 
" style="fill:none;stroke:#000000;stroke-linecap:square;stroke-linejoin:miter;stroke-width:0.8;"/>
   </g>
   <g id="patch_4">
    <path d="M 1370.088 578.184217 
L 1370.088 121.4005 
" style="fill:none;stroke:#000000;stroke-linecap:square;stroke-linejoin:miter;stroke-width:0.8;"/>
   </g>
   <g id="patch_5">
    <path d="M 184.632 578.184217 
L 1370.088 578.184217 
" style="fill:none;stroke:#000000;stroke-linecap:square;stroke-linejoin:miter;stroke-width:0.8;"/>
   </g>
   <g id="patch_6">
    <path d="M 184.632 121.4005 
L 1370.088 121.4005 
" style="fill:none;stroke:#000000;stroke-linecap:square;stroke-linejoin:miter;stroke-width:0.8;"/>
   </g>
   <g id="text_13">
    <!-- Vergleich der Vorhersagen von ANN, RF und SVR -->
    <defs>
     <path d="M 28.609375 0 
L 0.78125 72.90625 
L 11.078125 72.90625 
L 34.1875 11.53125 
L 57.328125 72.90625 
L 67.578125 72.90625 
L 39.796875 0 
z
" id="DejaVuSans-56"/>
     <path d="M 9.421875 75.984375 
L 18.40625 75.984375 
L 18.40625 0 
L 9.421875 0 
z
" id="DejaVuSans-6c"/>
     <path d="M 48.78125 52.59375 
L 48.78125 44.1875 
Q 44.96875 46.296875 41.140625 47.34375 
Q 37.3125 48.390625 33.40625 48.390625 
Q 24.65625 48.390625 19.8125 42.84375 
Q 14.984375 37.3125 14.984375 27.296875 
Q 14.984375 17.28125 19.8125 11.734375 
Q 24.65625 6.203125 33.40625 6.203125 
Q 37.3125 6.203125 41.140625 7.25 
Q 44.96875 8.296875 48.78125 10.40625 
L 48.78125 2.09375 
Q 45.015625 0.34375 40.984375 -0.53125 
Q 36.96875 -1.421875 32.421875 -1.421875 
Q 20.0625 -1.421875 12.78125 6.34375 
Q 5.515625 14.109375 5.515625 27.296875 
Q 5.515625 40.671875 12.859375 48.328125 
Q 20.21875 56 33.015625 56 
Q 37.15625 56 41.109375 55.140625 
Q 45.0625 54.296875 48.78125 52.59375 
z
" id="DejaVuSans-63"/>
     <path d="M 54.890625 33.015625 
L 54.890625 0 
L 45.90625 0 
L 45.90625 32.71875 
Q 45.90625 40.484375 42.875 44.328125 
Q 39.84375 48.1875 33.796875 48.1875 
Q 26.515625 48.1875 22.3125 43.546875 
Q 18.109375 38.921875 18.109375 30.90625 
L 18.109375 0 
L 9.078125 0 
L 9.078125 75.984375 
L 18.109375 75.984375 
L 18.109375 46.1875 
Q 21.34375 51.125 25.703125 53.5625 
Q 30.078125 56 35.796875 56 
Q 45.21875 56 50.046875 50.171875 
Q 54.890625 44.34375 54.890625 33.015625 
z
" id="DejaVuSans-68"/>
     <path d="M 30.609375 48.390625 
Q 23.390625 48.390625 19.1875 42.75 
Q 14.984375 37.109375 14.984375 27.296875 
Q 14.984375 17.484375 19.15625 11.84375 
Q 23.34375 6.203125 30.609375 6.203125 
Q 37.796875 6.203125 41.984375 11.859375 
Q 46.1875 17.53125 46.1875 27.296875 
Q 46.1875 37.015625 41.984375 42.703125 
Q 37.796875 48.390625 30.609375 48.390625 
z
M 30.609375 56 
Q 42.328125 56 49.015625 48.375 
Q 55.71875 40.765625 55.71875 27.296875 
Q 55.71875 13.875 49.015625 6.21875 
Q 42.328125 -1.421875 30.609375 -1.421875 
Q 18.84375 -1.421875 12.171875 6.21875 
Q 5.515625 13.875 5.515625 27.296875 
Q 5.515625 40.765625 12.171875 48.375 
Q 18.84375 56 30.609375 56 
z
" id="DejaVuSans-6f"/>
     <path d="M 2.984375 54.6875 
L 12.5 54.6875 
L 29.59375 8.796875 
L 46.6875 54.6875 
L 56.203125 54.6875 
L 35.6875 0 
L 23.484375 0 
z
" id="DejaVuSans-76"/>
     <path d="M 34.1875 63.1875 
L 20.796875 26.90625 
L 47.609375 26.90625 
z
M 28.609375 72.90625 
L 39.796875 72.90625 
L 67.578125 0 
L 57.328125 0 
L 50.6875 18.703125 
L 17.828125 18.703125 
L 11.1875 0 
L 0.78125 0 
z
" id="DejaVuSans-41"/>
     <path d="M 9.8125 72.90625 
L 23.09375 72.90625 
L 55.421875 11.921875 
L 55.421875 72.90625 
L 64.984375 72.90625 
L 64.984375 0 
L 51.703125 0 
L 19.390625 60.984375 
L 19.390625 0 
L 9.8125 0 
z
" id="DejaVuSans-4e"/>
     <path d="M 11.71875 12.40625 
L 22.015625 12.40625 
L 22.015625 4 
L 14.015625 -11.625 
L 7.71875 -11.625 
L 11.71875 4 
z
" id="DejaVuSans-2c"/>
     <path d="M 44.390625 34.1875 
Q 47.5625 33.109375 50.5625 29.59375 
Q 53.5625 26.078125 56.59375 19.921875 
L 66.609375 0 
L 56 0 
L 46.6875 18.703125 
Q 43.0625 26.03125 39.671875 28.421875 
Q 36.28125 30.8125 30.421875 30.8125 
L 19.671875 30.8125 
L 19.671875 0 
L 9.8125 0 
L 9.8125 72.90625 
L 32.078125 72.90625 
Q 44.578125 72.90625 50.734375 67.671875 
Q 56.890625 62.453125 56.890625 51.90625 
Q 56.890625 45.015625 53.6875 40.46875 
Q 50.484375 35.9375 44.390625 34.1875 
z
M 19.671875 64.796875 
L 19.671875 38.921875 
L 32.078125 38.921875 
Q 39.203125 38.921875 42.84375 42.21875 
Q 46.484375 45.515625 46.484375 51.90625 
Q 46.484375 58.296875 42.84375 61.546875 
Q 39.203125 64.796875 32.078125 64.796875 
z
" id="DejaVuSans-52"/>
     <path d="M 9.8125 72.90625 
L 51.703125 72.90625 
L 51.703125 64.59375 
L 19.671875 64.59375 
L 19.671875 43.109375 
L 48.578125 43.109375 
L 48.578125 34.8125 
L 19.671875 34.8125 
L 19.671875 0 
L 9.8125 0 
z
" id="DejaVuSans-46"/>
     <path d="M 53.515625 70.515625 
L 53.515625 60.890625 
Q 47.90625 63.578125 42.921875 64.890625 
Q 37.9375 66.21875 33.296875 66.21875 
Q 25.25 66.21875 20.875 63.09375 
Q 16.5 59.96875 16.5 54.203125 
Q 16.5 49.359375 19.40625 46.890625 
Q 22.3125 44.4375 30.421875 42.921875 
L 36.375 41.703125 
Q 47.40625 39.59375 52.65625 34.296875 
Q 57.90625 29 57.90625 20.125 
Q 57.90625 9.515625 50.796875 4.046875 
Q 43.703125 -1.421875 29.984375 -1.421875 
Q 24.8125 -1.421875 18.96875 -0.25 
Q 13.140625 0.921875 6.890625 3.21875 
L 6.890625 13.375 
Q 12.890625 10.015625 18.65625 8.296875 
Q 24.421875 6.59375 29.984375 6.59375 
Q 38.421875 6.59375 43.015625 9.90625 
Q 47.609375 13.234375 47.609375 19.390625 
Q 47.609375 24.75 44.3125 27.78125 
Q 41.015625 30.8125 33.5 32.328125 
L 27.484375 33.5 
Q 16.453125 35.6875 11.515625 40.375 
Q 6.59375 45.0625 6.59375 53.421875 
Q 6.59375 63.09375 13.40625 68.65625 
Q 20.21875 74.21875 32.171875 74.21875 
Q 37.3125 74.21875 42.625 73.28125 
Q 47.953125 72.359375 53.515625 70.515625 
z
" id="DejaVuSans-53"/>
    </defs>
    <g transform="translate(654.910781 115.4005)scale(0.1 -0.1)">
     <use xlink:href="#DejaVuSans-56"/>
     <use x="68.298828" xlink:href="#DejaVuSans-65"/>
     <use x="129.822266" xlink:href="#DejaVuSans-72"/>
     <use x="170.919922" xlink:href="#DejaVuSans-67"/>
     <use x="234.396484" xlink:href="#DejaVuSans-6c"/>
     <use x="262.179688" xlink:href="#DejaVuSans-65"/>
     <use x="323.703125" xlink:href="#DejaVuSans-69"/>
     <use x="351.486328" xlink:href="#DejaVuSans-63"/>
     <use x="406.466797" xlink:href="#DejaVuSans-68"/>
     <use x="469.845703" xlink:href="#DejaVuSans-20"/>
     <use x="501.632812" xlink:href="#DejaVuSans-64"/>
     <use x="565.109375" xlink:href="#DejaVuSans-65"/>
     <use x="626.632812" xlink:href="#DejaVuSans-72"/>
     <use x="667.746094" xlink:href="#DejaVuSans-20"/>
     <use x="699.533203" xlink:href="#DejaVuSans-56"/>
     <use x="767.832031" xlink:href="#DejaVuSans-6f"/>
     <use x="829.013672" xlink:href="#DejaVuSans-72"/>
     <use x="870.111328" xlink:href="#DejaVuSans-68"/>
     <use x="933.490234" xlink:href="#DejaVuSans-65"/>
     <use x="995.013672" xlink:href="#DejaVuSans-72"/>
     <use x="1036.126953" xlink:href="#DejaVuSans-73"/>
     <use x="1088.226562" xlink:href="#DejaVuSans-61"/>
     <use x="1149.505859" xlink:href="#DejaVuSans-67"/>
     <use x="1212.982422" xlink:href="#DejaVuSans-65"/>
     <use x="1274.505859" xlink:href="#DejaVuSans-6e"/>
     <use x="1337.884766" xlink:href="#DejaVuSans-20"/>
     <use x="1369.671875" xlink:href="#DejaVuSans-76"/>
     <use x="1428.851562" xlink:href="#DejaVuSans-6f"/>
     <use x="1490.033203" xlink:href="#DejaVuSans-6e"/>
     <use x="1553.412109" xlink:href="#DejaVuSans-20"/>
     <use x="1585.199219" xlink:href="#DejaVuSans-41"/>
     <use x="1653.607422" xlink:href="#DejaVuSans-4e"/>
     <use x="1728.412109" xlink:href="#DejaVuSans-4e"/>
     <use x="1803.216797" xlink:href="#DejaVuSans-2c"/>
     <use x="1835.003906" xlink:href="#DejaVuSans-20"/>
     <use x="1866.791016" xlink:href="#DejaVuSans-52"/>
     <use x="1936.273438" xlink:href="#DejaVuSans-46"/>
     <use x="1993.792969" xlink:href="#DejaVuSans-20"/>
     <use x="2025.580078" xlink:href="#DejaVuSans-75"/>
     <use x="2088.958984" xlink:href="#DejaVuSans-6e"/>
     <use x="2152.337891" xlink:href="#DejaVuSans-64"/>
     <use x="2215.814453" xlink:href="#DejaVuSans-20"/>
     <use x="2247.601562" xlink:href="#DejaVuSans-53"/>
     <use x="2311.078125" xlink:href="#DejaVuSans-56"/>
     <use x="2379.486328" xlink:href="#DejaVuSans-52"/>
    </g>
   </g>
   <g id="legend_1">
    <g id="patch_7">
     <path d="M 1280.836437 188.113 
L 1363.088 188.113 
Q 1365.088 188.113 1365.088 186.113 
L 1365.088 128.4005 
Q 1365.088 126.4005 1363.088 126.4005 
L 1280.836437 126.4005 
Q 1278.836437 126.4005 1278.836437 128.4005 
L 1278.836437 186.113 
Q 1278.836437 188.113 1280.836437 188.113 
z
" style="fill:#ffffff;opacity:0.8;stroke:#cccccc;stroke-linejoin:miter;"/>
    </g>
    <g id="line2d_17">
     <path d="M 1282.836437 134.498937 
L 1302.836437 134.498937 
" style="fill:none;stroke:#000000;stroke-linecap:square;stroke-width:2;"/>
    </g>
    <g id="line2d_18"/>
    <g id="text_14">
     <!-- Testdaten -->
     <defs>
      <path d="M -0.296875 72.90625 
L 61.375 72.90625 
L 61.375 64.59375 
L 35.5 64.59375 
L 35.5 0 
L 25.59375 0 
L 25.59375 64.59375 
L -0.296875 64.59375 
z
" id="DejaVuSans-54"/>
     </defs>
     <g transform="translate(1310.836437 137.998937)scale(0.1 -0.1)">
      <use xlink:href="#DejaVuSans-54"/>
      <use x="60.818359" xlink:href="#DejaVuSans-65"/>
      <use x="122.341797" xlink:href="#DejaVuSans-73"/>
      <use x="174.441406" xlink:href="#DejaVuSans-74"/>
      <use x="213.650391" xlink:href="#DejaVuSans-64"/>
      <use x="277.126953" xlink:href="#DejaVuSans-61"/>
      <use x="338.40625" xlink:href="#DejaVuSans-74"/>
      <use x="377.615234" xlink:href="#DejaVuSans-65"/>
      <use x="439.138672" xlink:href="#DejaVuSans-6e"/>
     </g>
    </g>
    <g id="line2d_19">
     <path d="M 1282.836437 149.177062 
L 1302.836437 149.177062 
" style="fill:none;stroke:#ff0000;stroke-linecap:square;stroke-width:1.5;"/>
    </g>
    <g id="line2d_20"/>
    <g id="text_15">
     <!-- ANN -->
     <g transform="translate(1310.836437 152.677062)scale(0.1 -0.1)">
      <use xlink:href="#DejaVuSans-41"/>
      <use x="68.408203" xlink:href="#DejaVuSans-4e"/>
      <use x="143.212891" xlink:href="#DejaVuSans-4e"/>
     </g>
    </g>
    <g id="line2d_21">
     <path d="M 1282.836437 163.855187 
L 1302.836437 163.855187 
" style="fill:none;stroke:#008000;stroke-linecap:square;stroke-width:1.5;"/>
    </g>
    <g id="line2d_22"/>
    <g id="text_16">
     <!-- RF -->
     <g transform="translate(1310.836437 167.355187)scale(0.1 -0.1)">
      <use xlink:href="#DejaVuSans-52"/>
      <use x="69.482422" xlink:href="#DejaVuSans-46"/>
     </g>
    </g>
    <g id="line2d_23">
     <path d="M 1282.836437 178.533312 
L 1302.836437 178.533312 
" style="fill:none;stroke:#0000ff;stroke-dasharray:7.68,1.92,1.2,1.92;stroke-dashoffset:0;stroke-width:1.2;"/>
    </g>
    <g id="line2d_24"/>
    <g id="text_17">
     <!-- SVR -->
     <g transform="translate(1310.836437 182.033312)scale(0.1 -0.1)">
      <use xlink:href="#DejaVuSans-53"/>
      <use x="63.476562" xlink:href="#DejaVuSans-56"/>
      <use x="131.884766" xlink:href="#DejaVuSans-52"/>
     </g>
    </g>
   </g>
  </g>
 </g>
 <defs>
  <clipPath id="p4e23b16c41">
   <rect height="456.783717" width="1185.456" x="184.632" y="121.4005"/>
  </clipPath>
 </defs>
</svg>
