<?xml version="1.0" encoding="utf-8" standalone="no"?>
<!DOCTYPE svg PUBLIC "-//W3C//DTD SVG 1.1//EN"
  "http://www.w3.org/Graphics/SVG/1.1/DTD/svg11.dtd">
<!-- Created with matplotlib (http://matplotlib.org/) -->
<svg height="707.76pt" version="1.1" viewBox="0 0 1382.4 707.76" width="1382.4pt" xmlns="http://www.w3.org/2000/svg" xmlns:xlink="http://www.w3.org/1999/xlink">
 <defs>
  <style type="text/css">
*{stroke-linecap:butt;stroke-linejoin:round;}
  </style>
 </defs>
 <g id="figure_1">
  <g id="patch_1">
   <path d="M 0 707.76 
L 1382.4 707.76 
L 1382.4 0 
L 0 0 
z
" style="fill:#ffffff;"/>
  </g>
  <g id="axes_1">
   <g id="patch_2">
    <path d="M 184.632 578.184217 
L 1370.088 578.184217 
L 1370.088 121.4005 
L 184.632 121.4005 
z
" style="fill:#ffffff;"/>
   </g>
   <g id="matplotlib.axis_1">
    <g id="xtick_1">
     <g id="line2d_1">
      <defs>
       <path d="M 0 0 
L 0 3.5 
" id="m012fc93aeb" style="stroke:#000000;stroke-width:0.8;"/>
      </defs>
      <g>
       <use style="stroke:#000000;stroke-width:0.8;" x="184.526858" xlink:href="#m012fc93aeb" y="578.184217"/>
      </g>
     </g>
    </g>
    <g id="xtick_2">
     <g id="line2d_2">
      <g>
       <use style="stroke:#000000;stroke-width:0.8;" x="1369.998377" xlink:href="#m012fc93aeb" y="578.184217"/>
      </g>
     </g>
    </g>
    <g id="xtick_3">
     <g id="line2d_3">
      <defs>
       <path d="M 0 0 
L 0 2 
" id="m45736ed83e" style="stroke:#000000;stroke-width:0.6;"/>
      </defs>
      <g>
       <use style="stroke:#000000;stroke-width:0.6;" x="373.337164" xlink:href="#m45736ed83e" y="578.184217"/>
      </g>
     </g>
     <g id="text_1">
      <!-- 16 -->
      <defs>
       <path d="M 12.40625 8.296875 
L 28.515625 8.296875 
L 28.515625 63.921875 
L 10.984375 60.40625 
L 10.984375 69.390625 
L 28.421875 72.90625 
L 38.28125 72.90625 
L 38.28125 8.296875 
L 54.390625 8.296875 
L 54.390625 0 
L 12.40625 0 
z
" id="DejaVuSans-31"/>
       <path d="M 33.015625 40.375 
Q 26.375 40.375 22.484375 35.828125 
Q 18.609375 31.296875 18.609375 23.390625 
Q 18.609375 15.53125 22.484375 10.953125 
Q 26.375 6.390625 33.015625 6.390625 
Q 39.65625 6.390625 43.53125 10.953125 
Q 47.40625 15.53125 47.40625 23.390625 
Q 47.40625 31.296875 43.53125 35.828125 
Q 39.65625 40.375 33.015625 40.375 
z
M 52.59375 71.296875 
L 52.59375 62.3125 
Q 48.875 64.0625 45.09375 64.984375 
Q 41.3125 65.921875 37.59375 65.921875 
Q 27.828125 65.921875 22.671875 59.328125 
Q 17.53125 52.734375 16.796875 39.40625 
Q 19.671875 43.65625 24.015625 45.921875 
Q 28.375 48.1875 33.59375 48.1875 
Q 44.578125 48.1875 50.953125 41.515625 
Q 57.328125 34.859375 57.328125 23.390625 
Q 57.328125 12.15625 50.6875 5.359375 
Q 44.046875 -1.421875 33.015625 -1.421875 
Q 20.359375 -1.421875 13.671875 8.265625 
Q 6.984375 17.96875 6.984375 36.375 
Q 6.984375 53.65625 15.1875 63.9375 
Q 23.390625 74.21875 37.203125 74.21875 
Q 40.921875 74.21875 44.703125 73.484375 
Q 48.484375 72.75 52.59375 71.296875 
z
" id="DejaVuSans-36"/>
      </defs>
      <g transform="translate(368.037202 589.913715)scale(0.0833 -0.0833)">
       <use xlink:href="#DejaVuSans-31"/>
       <use x="63.623047" xlink:href="#DejaVuSans-36"/>
      </g>
      <!-- Jun -->
      <defs>
       <path d="M 9.8125 72.90625 
L 19.671875 72.90625 
L 19.671875 5.078125 
Q 19.671875 -8.109375 14.671875 -14.0625 
Q 9.671875 -20.015625 -1.421875 -20.015625 
L -5.171875 -20.015625 
L -5.171875 -11.71875 
L -2.09375 -11.71875 
Q 4.4375 -11.71875 7.125 -8.046875 
Q 9.8125 -4.390625 9.8125 5.078125 
z
" id="DejaVuSans-4a"/>
       <path d="M 8.5 21.578125 
L 8.5 54.6875 
L 17.484375 54.6875 
L 17.484375 21.921875 
Q 17.484375 14.15625 20.5 10.265625 
Q 23.53125 6.390625 29.59375 6.390625 
Q 36.859375 6.390625 41.078125 11.03125 
Q 45.3125 15.671875 45.3125 23.6875 
L 45.3125 54.6875 
L 54.296875 54.6875 
L 54.296875 0 
L 45.3125 0 
L 45.3125 8.40625 
Q 42.046875 3.421875 37.71875 1 
Q 33.40625 -1.421875 27.6875 -1.421875 
Q 18.265625 -1.421875 13.375 4.4375 
Q 8.5 10.296875 8.5 21.578125 
z
M 31.109375 56 
z
" id="DejaVuSans-75"/>
       <path d="M 54.890625 33.015625 
L 54.890625 0 
L 45.90625 0 
L 45.90625 32.71875 
Q 45.90625 40.484375 42.875 44.328125 
Q 39.84375 48.1875 33.796875 48.1875 
Q 26.515625 48.1875 22.3125 43.546875 
Q 18.109375 38.921875 18.109375 30.90625 
L 18.109375 0 
L 9.078125 0 
L 9.078125 54.6875 
L 18.109375 54.6875 
L 18.109375 46.1875 
Q 21.34375 51.125 25.703125 53.5625 
Q 30.078125 56 35.796875 56 
Q 45.21875 56 50.046875 50.171875 
Q 54.890625 44.34375 54.890625 33.015625 
z
" id="DejaVuSans-6e"/>
      </defs>
      <g transform="translate(366.829352 599.241493)scale(0.0833 -0.0833)">
       <use xlink:href="#DejaVuSans-4a"/>
       <use x="29.492188" xlink:href="#DejaVuSans-75"/>
       <use x="92.871094" xlink:href="#DejaVuSans-6e"/>
      </g>
      <!-- 2018 -->
      <defs>
       <path d="M 19.1875 8.296875 
L 53.609375 8.296875 
L 53.609375 0 
L 7.328125 0 
L 7.328125 8.296875 
Q 12.9375 14.109375 22.625 23.890625 
Q 32.328125 33.6875 34.8125 36.53125 
Q 39.546875 41.84375 41.421875 45.53125 
Q 43.3125 49.21875 43.3125 52.78125 
Q 43.3125 58.59375 39.234375 62.25 
Q 35.15625 65.921875 28.609375 65.921875 
Q 23.96875 65.921875 18.8125 64.3125 
Q 13.671875 62.703125 7.8125 59.421875 
L 7.8125 69.390625 
Q 13.765625 71.78125 18.9375 73 
Q 24.125 74.21875 28.421875 74.21875 
Q 39.75 74.21875 46.484375 68.546875 
Q 53.21875 62.890625 53.21875 53.421875 
Q 53.21875 48.921875 51.53125 44.890625 
Q 49.859375 40.875 45.40625 35.40625 
Q 44.1875 33.984375 37.640625 27.21875 
Q 31.109375 20.453125 19.1875 8.296875 
z
" id="DejaVuSans-32"/>
       <path d="M 31.78125 66.40625 
Q 24.171875 66.40625 20.328125 58.90625 
Q 16.5 51.421875 16.5 36.375 
Q 16.5 21.390625 20.328125 13.890625 
Q 24.171875 6.390625 31.78125 6.390625 
Q 39.453125 6.390625 43.28125 13.890625 
Q 47.125 21.390625 47.125 36.375 
Q 47.125 51.421875 43.28125 58.90625 
Q 39.453125 66.40625 31.78125 66.40625 
z
M 31.78125 74.21875 
Q 44.046875 74.21875 50.515625 64.515625 
Q 56.984375 54.828125 56.984375 36.375 
Q 56.984375 17.96875 50.515625 8.265625 
Q 44.046875 -1.421875 31.78125 -1.421875 
Q 19.53125 -1.421875 13.0625 8.265625 
Q 6.59375 17.96875 6.59375 36.375 
Q 6.59375 54.828125 13.0625 64.515625 
Q 19.53125 74.21875 31.78125 74.21875 
z
" id="DejaVuSans-30"/>
       <path d="M 31.78125 34.625 
Q 24.75 34.625 20.71875 30.859375 
Q 16.703125 27.09375 16.703125 20.515625 
Q 16.703125 13.921875 20.71875 10.15625 
Q 24.75 6.390625 31.78125 6.390625 
Q 38.8125 6.390625 42.859375 10.171875 
Q 46.921875 13.96875 46.921875 20.515625 
Q 46.921875 27.09375 42.890625 30.859375 
Q 38.875 34.625 31.78125 34.625 
z
M 21.921875 38.8125 
Q 15.578125 40.375 12.03125 44.71875 
Q 8.5 49.078125 8.5 55.328125 
Q 8.5 64.0625 14.71875 69.140625 
Q 20.953125 74.21875 31.78125 74.21875 
Q 42.671875 74.21875 48.875 69.140625 
Q 55.078125 64.0625 55.078125 55.328125 
Q 55.078125 49.078125 51.53125 44.71875 
Q 48 40.375 41.703125 38.8125 
Q 48.828125 37.15625 52.796875 32.3125 
Q 56.78125 27.484375 56.78125 20.515625 
Q 56.78125 9.90625 50.3125 4.234375 
Q 43.84375 -1.421875 31.78125 -1.421875 
Q 19.734375 -1.421875 13.25 4.234375 
Q 6.78125 9.90625 6.78125 20.515625 
Q 6.78125 27.484375 10.78125 32.3125 
Q 14.796875 37.15625 21.921875 38.8125 
z
M 18.3125 54.390625 
Q 18.3125 48.734375 21.84375 45.5625 
Q 25.390625 42.390625 31.78125 42.390625 
Q 38.140625 42.390625 41.71875 45.5625 
Q 45.3125 48.734375 45.3125 54.390625 
Q 45.3125 60.0625 41.71875 63.234375 
Q 38.140625 66.40625 31.78125 66.40625 
Q 25.390625 66.40625 21.84375 63.234375 
Q 18.3125 60.0625 18.3125 54.390625 
z
" id="DejaVuSans-38"/>
      </defs>
      <g transform="translate(362.737239 608.569271)scale(0.0833 -0.0833)">
       <use xlink:href="#DejaVuSans-32"/>
       <use x="63.623047" xlink:href="#DejaVuSans-30"/>
       <use x="127.246094" xlink:href="#DejaVuSans-31"/>
       <use x="190.869141" xlink:href="#DejaVuSans-38"/>
      </g>
     </g>
    </g>
    <g id="xtick_4">
     <g id="line2d_4">
      <g>
       <use style="stroke:#000000;stroke-width:0.6;" x="653.922139" xlink:href="#m45736ed83e" y="578.184217"/>
      </g>
     </g>
     <g id="text_2">
      <!-- 17 -->
      <defs>
       <path d="M 8.203125 72.90625 
L 55.078125 72.90625 
L 55.078125 68.703125 
L 28.609375 0 
L 18.3125 0 
L 43.21875 64.59375 
L 8.203125 64.59375 
z
" id="DejaVuSans-37"/>
      </defs>
      <g transform="translate(648.622177 589.913715)scale(0.0833 -0.0833)">
       <use xlink:href="#DejaVuSans-31"/>
       <use x="63.623047" xlink:href="#DejaVuSans-37"/>
      </g>
     </g>
    </g>
    <g id="xtick_5">
     <g id="line2d_5">
      <g>
       <use style="stroke:#000000;stroke-width:0.6;" x="934.507114" xlink:href="#m45736ed83e" y="578.184217"/>
      </g>
     </g>
     <g id="text_3">
      <!-- 18 -->
      <g transform="translate(929.207152 589.913715)scale(0.0833 -0.0833)">
       <use xlink:href="#DejaVuSans-31"/>
       <use x="63.623047" xlink:href="#DejaVuSans-38"/>
      </g>
     </g>
    </g>
    <g id="xtick_6">
     <g id="line2d_6">
      <g>
       <use style="stroke:#000000;stroke-width:0.6;" x="1215.092089" xlink:href="#m45736ed83e" y="578.184217"/>
      </g>
     </g>
     <g id="text_4">
      <!-- 19 -->
      <defs>
       <path d="M 10.984375 1.515625 
L 10.984375 10.5 
Q 14.703125 8.734375 18.5 7.8125 
Q 22.3125 6.890625 25.984375 6.890625 
Q 35.75 6.890625 40.890625 13.453125 
Q 46.046875 20.015625 46.78125 33.40625 
Q 43.953125 29.203125 39.59375 26.953125 
Q 35.25 24.703125 29.984375 24.703125 
Q 19.046875 24.703125 12.671875 31.3125 
Q 6.296875 37.9375 6.296875 49.421875 
Q 6.296875 60.640625 12.9375 67.421875 
Q 19.578125 74.21875 30.609375 74.21875 
Q 43.265625 74.21875 49.921875 64.515625 
Q 56.59375 54.828125 56.59375 36.375 
Q 56.59375 19.140625 48.40625 8.859375 
Q 40.234375 -1.421875 26.421875 -1.421875 
Q 22.703125 -1.421875 18.890625 -0.6875 
Q 15.09375 0.046875 10.984375 1.515625 
z
M 30.609375 32.421875 
Q 37.25 32.421875 41.125 36.953125 
Q 45.015625 41.5 45.015625 49.421875 
Q 45.015625 57.28125 41.125 61.84375 
Q 37.25 66.40625 30.609375 66.40625 
Q 23.96875 66.40625 20.09375 61.84375 
Q 16.21875 57.28125 16.21875 49.421875 
Q 16.21875 41.5 20.09375 36.953125 
Q 23.96875 32.421875 30.609375 32.421875 
z
" id="DejaVuSans-39"/>
      </defs>
      <g transform="translate(1209.792126 589.913715)scale(0.0833 -0.0833)">
       <use xlink:href="#DejaVuSans-31"/>
       <use x="63.623047" xlink:href="#DejaVuSans-39"/>
      </g>
     </g>
    </g>
    <g id="text_5">
     <!-- Datum -->
     <defs>
      <path d="M 19.671875 64.796875 
L 19.671875 8.109375 
L 31.59375 8.109375 
Q 46.6875 8.109375 53.6875 14.9375 
Q 60.6875 21.78125 60.6875 36.53125 
Q 60.6875 51.171875 53.6875 57.984375 
Q 46.6875 64.796875 31.59375 64.796875 
z
M 9.8125 72.90625 
L 30.078125 72.90625 
Q 51.265625 72.90625 61.171875 64.09375 
Q 71.09375 55.28125 71.09375 36.53125 
Q 71.09375 17.671875 61.125 8.828125 
Q 51.171875 0 30.078125 0 
L 9.8125 0 
z
" id="DejaVuSans-44"/>
      <path d="M 34.28125 27.484375 
Q 23.390625 27.484375 19.1875 25 
Q 14.984375 22.515625 14.984375 16.5 
Q 14.984375 11.71875 18.140625 8.90625 
Q 21.296875 6.109375 26.703125 6.109375 
Q 34.1875 6.109375 38.703125 11.40625 
Q 43.21875 16.703125 43.21875 25.484375 
L 43.21875 27.484375 
z
M 52.203125 31.203125 
L 52.203125 0 
L 43.21875 0 
L 43.21875 8.296875 
Q 40.140625 3.328125 35.546875 0.953125 
Q 30.953125 -1.421875 24.3125 -1.421875 
Q 15.921875 -1.421875 10.953125 3.296875 
Q 6 8.015625 6 15.921875 
Q 6 25.140625 12.171875 29.828125 
Q 18.359375 34.515625 30.609375 34.515625 
L 43.21875 34.515625 
L 43.21875 35.40625 
Q 43.21875 41.609375 39.140625 45 
Q 35.0625 48.390625 27.6875 48.390625 
Q 23 48.390625 18.546875 47.265625 
Q 14.109375 46.140625 10.015625 43.890625 
L 10.015625 52.203125 
Q 14.9375 54.109375 19.578125 55.046875 
Q 24.21875 56 28.609375 56 
Q 40.484375 56 46.34375 49.84375 
Q 52.203125 43.703125 52.203125 31.203125 
z
" id="DejaVuSans-61"/>
      <path d="M 18.3125 70.21875 
L 18.3125 54.6875 
L 36.8125 54.6875 
L 36.8125 47.703125 
L 18.3125 47.703125 
L 18.3125 18.015625 
Q 18.3125 11.328125 20.140625 9.421875 
Q 21.96875 7.515625 27.59375 7.515625 
L 36.8125 7.515625 
L 36.8125 0 
L 27.59375 0 
Q 17.1875 0 13.234375 3.875 
Q 9.28125 7.765625 9.28125 18.015625 
L 9.28125 47.703125 
L 2.6875 47.703125 
L 2.6875 54.6875 
L 9.28125 54.6875 
L 9.28125 70.21875 
z
" id="DejaVuSans-74"/>
      <path d="M 52 44.1875 
Q 55.375 50.25 60.0625 53.125 
Q 64.75 56 71.09375 56 
Q 79.640625 56 84.28125 50.015625 
Q 88.921875 44.046875 88.921875 33.015625 
L 88.921875 0 
L 79.890625 0 
L 79.890625 32.71875 
Q 79.890625 40.578125 77.09375 44.375 
Q 74.3125 48.1875 68.609375 48.1875 
Q 61.625 48.1875 57.5625 43.546875 
Q 53.515625 38.921875 53.515625 30.90625 
L 53.515625 0 
L 44.484375 0 
L 44.484375 32.71875 
Q 44.484375 40.625 41.703125 44.40625 
Q 38.921875 48.1875 33.109375 48.1875 
Q 26.21875 48.1875 22.15625 43.53125 
Q 18.109375 38.875 18.109375 30.90625 
L 18.109375 0 
L 9.078125 0 
L 9.078125 54.6875 
L 18.109375 54.6875 
L 18.109375 46.1875 
Q 21.1875 51.21875 25.484375 53.609375 
Q 29.78125 56 35.6875 56 
Q 41.65625 56 45.828125 52.96875 
Q 50 49.953125 52 44.1875 
z
" id="DejaVuSans-6d"/>
     </defs>
     <g transform="translate(760.446719 621.900088)scale(0.1 -0.1)">
      <use xlink:href="#DejaVuSans-44"/>
      <use x="77.001953" xlink:href="#DejaVuSans-61"/>
      <use x="138.28125" xlink:href="#DejaVuSans-74"/>
      <use x="177.490234" xlink:href="#DejaVuSans-75"/>
      <use x="240.869141" xlink:href="#DejaVuSans-6d"/>
     </g>
    </g>
   </g>
   <g id="matplotlib.axis_2">
    <g id="ytick_1">
     <g id="line2d_7">
      <defs>
       <path d="M 0 0 
L -3.5 0 
" id="m42572705e7" style="stroke:#000000;stroke-width:0.8;"/>
      </defs>
      <g>
       <use style="stroke:#000000;stroke-width:0.8;" x="184.632" xlink:href="#m42572705e7" y="506.266932"/>
      </g>
     </g>
     <g id="text_6">
      <!-- −200000 -->
      <defs>
       <path d="M 10.59375 35.5 
L 73.1875 35.5 
L 73.1875 27.203125 
L 10.59375 27.203125 
z
" id="DejaVuSans-2212"/>
      </defs>
      <g transform="translate(138.851945 509.431681)scale(0.0833 -0.0833)">
       <use xlink:href="#DejaVuSans-2212"/>
       <use x="83.789062" xlink:href="#DejaVuSans-32"/>
       <use x="147.412109" xlink:href="#DejaVuSans-30"/>
       <use x="211.035156" xlink:href="#DejaVuSans-30"/>
       <use x="274.658203" xlink:href="#DejaVuSans-30"/>
       <use x="338.28125" xlink:href="#DejaVuSans-30"/>
       <use x="401.904297" xlink:href="#DejaVuSans-30"/>
      </g>
     </g>
    </g>
    <g id="ytick_2">
     <g id="line2d_8">
      <g>
       <use style="stroke:#000000;stroke-width:0.8;" x="184.632" xlink:href="#m42572705e7" y="426.838464"/>
      </g>
     </g>
     <g id="text_7">
      <!-- 0 -->
      <g transform="translate(172.332038 430.003213)scale(0.0833 -0.0833)">
       <use xlink:href="#DejaVuSans-30"/>
      </g>
     </g>
    </g>
    <g id="ytick_3">
     <g id="line2d_9">
      <g>
       <use style="stroke:#000000;stroke-width:0.8;" x="184.632" xlink:href="#m42572705e7" y="347.409995"/>
      </g>
     </g>
     <g id="text_8">
      <!-- 200000 -->
      <g transform="translate(145.832225 350.574744)scale(0.0833 -0.0833)">
       <use xlink:href="#DejaVuSans-32"/>
       <use x="63.623047" xlink:href="#DejaVuSans-30"/>
       <use x="127.246094" xlink:href="#DejaVuSans-30"/>
       <use x="190.869141" xlink:href="#DejaVuSans-30"/>
       <use x="254.492188" xlink:href="#DejaVuSans-30"/>
       <use x="318.115234" xlink:href="#DejaVuSans-30"/>
      </g>
     </g>
    </g>
    <g id="ytick_4">
     <g id="line2d_10">
      <g>
       <use style="stroke:#000000;stroke-width:0.8;" x="184.632" xlink:href="#m42572705e7" y="267.981527"/>
      </g>
     </g>
     <g id="text_9">
      <!-- 400000 -->
      <defs>
       <path d="M 37.796875 64.3125 
L 12.890625 25.390625 
L 37.796875 25.390625 
z
M 35.203125 72.90625 
L 47.609375 72.90625 
L 47.609375 25.390625 
L 58.015625 25.390625 
L 58.015625 17.1875 
L 47.609375 17.1875 
L 47.609375 0 
L 37.796875 0 
L 37.796875 17.1875 
L 4.890625 17.1875 
L 4.890625 26.703125 
z
" id="DejaVuSans-34"/>
      </defs>
      <g transform="translate(145.832225 271.146276)scale(0.0833 -0.0833)">
       <use xlink:href="#DejaVuSans-34"/>
       <use x="63.623047" xlink:href="#DejaVuSans-30"/>
       <use x="127.246094" xlink:href="#DejaVuSans-30"/>
       <use x="190.869141" xlink:href="#DejaVuSans-30"/>
       <use x="254.492188" xlink:href="#DejaVuSans-30"/>
       <use x="318.115234" xlink:href="#DejaVuSans-30"/>
      </g>
     </g>
    </g>
    <g id="ytick_5">
     <g id="line2d_11">
      <g>
       <use style="stroke:#000000;stroke-width:0.8;" x="184.632" xlink:href="#m42572705e7" y="188.553058"/>
      </g>
     </g>
     <g id="text_10">
      <!-- 600000 -->
      <g transform="translate(145.832225 191.717807)scale(0.0833 -0.0833)">
       <use xlink:href="#DejaVuSans-36"/>
       <use x="63.623047" xlink:href="#DejaVuSans-30"/>
       <use x="127.246094" xlink:href="#DejaVuSans-30"/>
       <use x="190.869141" xlink:href="#DejaVuSans-30"/>
       <use x="254.492188" xlink:href="#DejaVuSans-30"/>
       <use x="318.115234" xlink:href="#DejaVuSans-30"/>
      </g>
     </g>
    </g>
    <g id="text_11">
     <!-- Leistung der Batterie in W -->
     <defs>
      <path d="M 9.8125 72.90625 
L 19.671875 72.90625 
L 19.671875 8.296875 
L 55.171875 8.296875 
L 55.171875 0 
L 9.8125 0 
z
" id="DejaVuSans-4c"/>
      <path d="M 56.203125 29.59375 
L 56.203125 25.203125 
L 14.890625 25.203125 
Q 15.484375 15.921875 20.484375 11.0625 
Q 25.484375 6.203125 34.421875 6.203125 
Q 39.59375 6.203125 44.453125 7.46875 
Q 49.3125 8.734375 54.109375 11.28125 
L 54.109375 2.78125 
Q 49.265625 0.734375 44.1875 -0.34375 
Q 39.109375 -1.421875 33.890625 -1.421875 
Q 20.796875 -1.421875 13.15625 6.1875 
Q 5.515625 13.8125 5.515625 26.8125 
Q 5.515625 40.234375 12.765625 48.109375 
Q 20.015625 56 32.328125 56 
Q 43.359375 56 49.78125 48.890625 
Q 56.203125 41.796875 56.203125 29.59375 
z
M 47.21875 32.234375 
Q 47.125 39.59375 43.09375 43.984375 
Q 39.0625 48.390625 32.421875 48.390625 
Q 24.90625 48.390625 20.390625 44.140625 
Q 15.875 39.890625 15.1875 32.171875 
z
" id="DejaVuSans-65"/>
      <path d="M 9.421875 54.6875 
L 18.40625 54.6875 
L 18.40625 0 
L 9.421875 0 
z
M 9.421875 75.984375 
L 18.40625 75.984375 
L 18.40625 64.59375 
L 9.421875 64.59375 
z
" id="DejaVuSans-69"/>
      <path d="M 44.28125 53.078125 
L 44.28125 44.578125 
Q 40.484375 46.53125 36.375 47.5 
Q 32.28125 48.484375 27.875 48.484375 
Q 21.1875 48.484375 17.84375 46.4375 
Q 14.5 44.390625 14.5 40.28125 
Q 14.5 37.15625 16.890625 35.375 
Q 19.28125 33.59375 26.515625 31.984375 
L 29.59375 31.296875 
Q 39.15625 29.25 43.1875 25.515625 
Q 47.21875 21.78125 47.21875 15.09375 
Q 47.21875 7.46875 41.1875 3.015625 
Q 35.15625 -1.421875 24.609375 -1.421875 
Q 20.21875 -1.421875 15.453125 -0.5625 
Q 10.6875 0.296875 5.421875 2 
L 5.421875 11.28125 
Q 10.40625 8.6875 15.234375 7.390625 
Q 20.0625 6.109375 24.8125 6.109375 
Q 31.15625 6.109375 34.5625 8.28125 
Q 37.984375 10.453125 37.984375 14.40625 
Q 37.984375 18.0625 35.515625 20.015625 
Q 33.0625 21.96875 24.703125 23.78125 
L 21.578125 24.515625 
Q 13.234375 26.265625 9.515625 29.90625 
Q 5.8125 33.546875 5.8125 39.890625 
Q 5.8125 47.609375 11.28125 51.796875 
Q 16.75 56 26.8125 56 
Q 31.78125 56 36.171875 55.265625 
Q 40.578125 54.546875 44.28125 53.078125 
z
" id="DejaVuSans-73"/>
      <path d="M 45.40625 27.984375 
Q 45.40625 37.75 41.375 43.109375 
Q 37.359375 48.484375 30.078125 48.484375 
Q 22.859375 48.484375 18.828125 43.109375 
Q 14.796875 37.75 14.796875 27.984375 
Q 14.796875 18.265625 18.828125 12.890625 
Q 22.859375 7.515625 30.078125 7.515625 
Q 37.359375 7.515625 41.375 12.890625 
Q 45.40625 18.265625 45.40625 27.984375 
z
M 54.390625 6.78125 
Q 54.390625 -7.171875 48.1875 -13.984375 
Q 42 -20.796875 29.203125 -20.796875 
Q 24.46875 -20.796875 20.265625 -20.09375 
Q 16.0625 -19.390625 12.109375 -17.921875 
L 12.109375 -9.1875 
Q 16.0625 -11.328125 19.921875 -12.34375 
Q 23.78125 -13.375 27.78125 -13.375 
Q 36.625 -13.375 41.015625 -8.765625 
Q 45.40625 -4.15625 45.40625 5.171875 
L 45.40625 9.625 
Q 42.625 4.78125 38.28125 2.390625 
Q 33.9375 0 27.875 0 
Q 17.828125 0 11.671875 7.65625 
Q 5.515625 15.328125 5.515625 27.984375 
Q 5.515625 40.671875 11.671875 48.328125 
Q 17.828125 56 27.875 56 
Q 33.9375 56 38.28125 53.609375 
Q 42.625 51.21875 45.40625 46.390625 
L 45.40625 54.6875 
L 54.390625 54.6875 
z
" id="DejaVuSans-67"/>
      <path id="DejaVuSans-20"/>
      <path d="M 45.40625 46.390625 
L 45.40625 75.984375 
L 54.390625 75.984375 
L 54.390625 0 
L 45.40625 0 
L 45.40625 8.203125 
Q 42.578125 3.328125 38.25 0.953125 
Q 33.9375 -1.421875 27.875 -1.421875 
Q 17.96875 -1.421875 11.734375 6.484375 
Q 5.515625 14.40625 5.515625 27.296875 
Q 5.515625 40.1875 11.734375 48.09375 
Q 17.96875 56 27.875 56 
Q 33.9375 56 38.25 53.625 
Q 42.578125 51.265625 45.40625 46.390625 
z
M 14.796875 27.296875 
Q 14.796875 17.390625 18.875 11.75 
Q 22.953125 6.109375 30.078125 6.109375 
Q 37.203125 6.109375 41.296875 11.75 
Q 45.40625 17.390625 45.40625 27.296875 
Q 45.40625 37.203125 41.296875 42.84375 
Q 37.203125 48.484375 30.078125 48.484375 
Q 22.953125 48.484375 18.875 42.84375 
Q 14.796875 37.203125 14.796875 27.296875 
z
" id="DejaVuSans-64"/>
      <path d="M 41.109375 46.296875 
Q 39.59375 47.171875 37.8125 47.578125 
Q 36.03125 48 33.890625 48 
Q 26.265625 48 22.1875 43.046875 
Q 18.109375 38.09375 18.109375 28.8125 
L 18.109375 0 
L 9.078125 0 
L 9.078125 54.6875 
L 18.109375 54.6875 
L 18.109375 46.1875 
Q 20.953125 51.171875 25.484375 53.578125 
Q 30.03125 56 36.53125 56 
Q 37.453125 56 38.578125 55.875 
Q 39.703125 55.765625 41.0625 55.515625 
z
" id="DejaVuSans-72"/>
      <path d="M 19.671875 34.8125 
L 19.671875 8.109375 
L 35.5 8.109375 
Q 43.453125 8.109375 47.28125 11.40625 
Q 51.125 14.703125 51.125 21.484375 
Q 51.125 28.328125 47.28125 31.5625 
Q 43.453125 34.8125 35.5 34.8125 
z
M 19.671875 64.796875 
L 19.671875 42.828125 
L 34.28125 42.828125 
Q 41.5 42.828125 45.03125 45.53125 
Q 48.578125 48.25 48.578125 53.8125 
Q 48.578125 59.328125 45.03125 62.0625 
Q 41.5 64.796875 34.28125 64.796875 
z
M 9.8125 72.90625 
L 35.015625 72.90625 
Q 46.296875 72.90625 52.390625 68.21875 
Q 58.5 63.53125 58.5 54.890625 
Q 58.5 48.1875 55.375 44.234375 
Q 52.25 40.28125 46.1875 39.3125 
Q 53.46875 37.75 57.5 32.78125 
Q 61.53125 27.828125 61.53125 20.40625 
Q 61.53125 10.640625 54.890625 5.3125 
Q 48.25 0 35.984375 0 
L 9.8125 0 
z
" id="DejaVuSans-42"/>
      <path d="M 3.328125 72.90625 
L 13.28125 72.90625 
L 28.609375 11.28125 
L 43.890625 72.90625 
L 54.984375 72.90625 
L 70.3125 11.28125 
L 85.59375 72.90625 
L 95.609375 72.90625 
L 77.296875 0 
L 64.890625 0 
L 49.515625 63.28125 
L 33.984375 0 
L 21.578125 0 
z
" id="DejaVuSans-57"/>
     </defs>
     <g transform="translate(132.772258 415.296265)rotate(-90)scale(0.1 -0.1)">
      <use xlink:href="#DejaVuSans-4c"/>
      <use x="55.697266" xlink:href="#DejaVuSans-65"/>
      <use x="117.220703" xlink:href="#DejaVuSans-69"/>
      <use x="145.003906" xlink:href="#DejaVuSans-73"/>
      <use x="197.103516" xlink:href="#DejaVuSans-74"/>
      <use x="236.3125" xlink:href="#DejaVuSans-75"/>
      <use x="299.691406" xlink:href="#DejaVuSans-6e"/>
      <use x="363.070312" xlink:href="#DejaVuSans-67"/>
      <use x="426.546875" xlink:href="#DejaVuSans-20"/>
      <use x="458.333984" xlink:href="#DejaVuSans-64"/>
      <use x="521.810547" xlink:href="#DejaVuSans-65"/>
      <use x="583.333984" xlink:href="#DejaVuSans-72"/>
      <use x="624.447266" xlink:href="#DejaVuSans-20"/>
      <use x="656.234375" xlink:href="#DejaVuSans-42"/>
      <use x="724.837891" xlink:href="#DejaVuSans-61"/>
      <use x="786.117188" xlink:href="#DejaVuSans-74"/>
      <use x="825.326172" xlink:href="#DejaVuSans-74"/>
      <use x="864.535156" xlink:href="#DejaVuSans-65"/>
      <use x="926.058594" xlink:href="#DejaVuSans-72"/>
      <use x="967.171875" xlink:href="#DejaVuSans-69"/>
      <use x="994.955078" xlink:href="#DejaVuSans-65"/>
      <use x="1056.478516" xlink:href="#DejaVuSans-20"/>
      <use x="1088.265625" xlink:href="#DejaVuSans-69"/>
      <use x="1116.048828" xlink:href="#DejaVuSans-6e"/>
      <use x="1179.427734" xlink:href="#DejaVuSans-20"/>
      <use x="1211.214844" xlink:href="#DejaVuSans-57"/>
     </g>
    </g>
   </g>
   <g id="line2d_12">
    <path clip-path="url(#p7740b4e652)" d="M 183.357754 426.838464 
L 186.280514 426.838464 
L 189.203275 424.932307 
L 192.126035 426.838464 
L 197.971555 426.838464 
L 200.894315 424.932307 
L 203.817075 426.838464 
L 209.662596 426.838464 
L 212.585356 424.932307 
L 215.508116 426.838464 
L 221.353636 426.838464 
L 224.276396 424.932307 
L 227.199157 426.838464 
L 233.044677 426.838464 
L 235.967437 424.932307 
L 238.890197 426.838464 
L 244.735718 426.838464 
L 247.658478 178.8048 
L 250.581238 274.920117 
L 253.503998 208.996145 
L 256.426758 205.881397 
L 259.349518 426.838464 
L 265.195039 426.838464 
L 268.117799 337.832017 
L 271.040559 426.838464 
L 276.886079 426.838464 
L 279.808839 418.802651 
L 282.7316 426.838464 
L 303.190921 426.838464 
L 306.113681 559.809147 
L 309.036441 559.393062 
L 311.959201 559.346603 
L 314.881961 559.076276 
L 317.804721 540.585182 
L 320.727482 448.381421 
L 323.650242 426.838464 
L 326.573002 540.271318 
L 329.495762 409.382552 
L 332.418522 426.838464 
L 338.264042 426.838464 
L 341.186803 424.953589 
L 344.109563 426.838464 
L 349.955083 426.838464 
L 352.877843 424.953589 
L 355.800603 426.838464 
L 361.646124 426.838464 
L 364.568884 424.953589 
L 367.491644 426.838464 
L 373.337164 426.838464 
L 376.259924 424.953589 
L 379.182685 426.838464 
L 385.028205 426.838464 
L 387.950965 424.953589 
L 390.873725 426.838464 
L 396.719246 426.838464 
L 399.642006 424.953589 
L 402.564766 426.838464 
L 408.410286 426.838464 
L 411.333046 424.953589 
L 414.255807 426.838464 
L 420.101327 426.838464 
L 423.024087 424.953589 
L 425.946847 426.838464 
L 431.792367 426.838464 
L 434.715128 424.953589 
L 437.637888 426.838464 
L 443.483408 426.838464 
L 446.406168 424.953589 
L 449.328928 426.838464 
L 455.174449 426.838464 
L 458.097209 424.953589 
L 461.019969 426.838464 
L 466.865489 426.838464 
L 469.788249 424.953589 
L 472.71101 426.838464 
L 478.55653 426.838464 
L 481.47929 424.953589 
L 484.40205 426.838464 
L 490.247571 426.838464 
L 493.170331 424.953589 
L 496.093091 426.838464 
L 501.938611 426.838464 
L 504.861371 424.953589 
L 507.784131 426.838464 
L 513.629652 426.838464 
L 516.552412 424.953589 
L 519.475172 426.838464 
L 525.320692 426.838464 
L 528.243453 144.225947 
L 531.166213 155.290479 
L 534.088973 147.0944 
L 537.011733 368.868838 
L 539.934493 426.838464 
L 545.780013 426.838464 
L 548.702774 363.054751 
L 551.625534 426.838464 
L 554.548294 426.838464 
L 557.471054 420.237864 
L 560.393814 426.838464 
L 563.316574 423.047344 
L 566.239335 426.838464 
L 583.775895 426.838464 
L 586.698656 458.740652 
L 589.621416 513.629867 
L 592.544176 513.759039 
L 595.466936 426.838464 
L 598.389696 488.92988 
L 601.312456 488.560603 
L 604.235217 488.471927 
L 607.157977 488.520613 
L 610.080737 488.102561 
L 613.003497 459.634244 
L 621.771778 459.538489 
L 624.694538 485.755882 
L 627.617298 459.538489 
L 630.540058 458.791076 
L 633.462818 410.478931 
L 636.385578 426.838464 
L 642.231099 426.838464 
L 645.153859 424.845067 
L 648.076619 426.838464 
L 653.922139 426.838464 
L 656.844899 424.845067 
L 659.76766 426.838464 
L 665.61318 426.838464 
L 668.53594 424.845067 
L 671.4587 426.838464 
L 677.30422 426.838464 
L 680.226981 130.47865 
L 683.149741 155.292295 
L 686.072501 414.897508 
L 688.995261 156.021364 
L 691.918021 426.838464 
L 700.686302 426.838464 
L 703.609062 322.746144 
L 706.531822 426.838464 
L 724.068383 426.838464 
L 726.991143 451.991164 
L 729.913903 451.471692 
L 735.759424 450.086479 
L 738.682184 445.473986 
L 744.527704 444.317574 
L 747.450464 443.872216 
L 750.373224 426.838464 
L 776.678066 426.838464 
L 779.600826 214.897916 
L 782.523586 426.838464 
L 785.446346 426.838464 
L 788.369106 396.623985 
L 791.291866 426.838464 
L 808.828427 426.838464 
L 811.751188 421.967728 
L 814.673948 426.838464 
L 820.519468 426.838464 
L 823.442228 423.121849 
L 826.364988 426.838464 
L 832.210509 426.838464 
L 835.133269 423.311641 
L 838.056029 426.838464 
L 852.66983 426.838464 
L 855.59259 500.878931 
L 858.51535 501.285104 
L 861.43811 469.508952 
L 864.36087 426.838464 
L 867.283631 513.762795 
L 870.206391 484.903703 
L 873.129151 484.877782 
L 876.051911 510.736318 
L 881.897431 460.163814 
L 887.742952 460.178059 
L 890.665712 459.868071 
L 893.588472 459.868071 
L 896.511232 459.195112 
L 899.433992 459.868071 
L 902.356752 410.895468 
L 905.279513 426.838464 
L 911.125033 426.838464 
L 914.047793 424.804194 
L 916.970553 426.838464 
L 922.816073 426.838464 
L 925.738834 424.804194 
L 928.661594 426.838464 
L 934.507114 426.838464 
L 937.429874 424.804194 
L 940.352634 426.838464 
L 946.198155 426.838464 
L 949.120915 424.804194 
L 952.043675 426.838464 
L 957.889195 426.838464 
L 960.811955 414.351344 
L 963.734716 178.499535 
L 966.657476 155.06164 
L 969.580236 142.270614 
L 972.502996 426.838464 
L 975.425756 323.910071 
L 978.348516 426.838464 
L 981.271277 426.838464 
L 984.194037 417.964374 
L 987.116797 426.838464 
L 1004.653358 426.838464 
L 1007.576118 455.168118 
L 1010.498878 454.620879 
L 1016.344398 453.263028 
L 1019.267159 426.838464 
L 1092.336162 426.838464 
L 1095.258923 295.767631 
L 1098.181683 426.838464 
L 1144.945845 426.838464 
L 1147.868605 529.927988 
L 1150.791366 529.297535 
L 1156.636886 529.259689 
L 1159.559646 510.446544 
L 1162.482406 510.588955 
L 1168.327926 510.602956 
L 1171.250687 426.838464 
L 1174.173447 426.838464 
L 1177.096207 443.786469 
L 1180.018967 426.838464 
L 1182.941727 422.859682 
L 1185.864487 426.838464 
L 1191.710008 426.838464 
L 1194.632768 423.592361 
L 1197.555528 426.838464 
L 1203.401048 426.838464 
L 1206.323808 423.775047 
L 1209.246569 426.838464 
L 1215.092089 426.838464 
L 1218.014849 423.826331 
L 1220.937609 426.838464 
L 1226.78313 426.838464 
L 1229.70589 203.197868 
L 1232.62865 158.495254 
L 1235.55141 426.838464 
L 1247.242451 426.838464 
L 1250.165211 162.581634 
L 1253.087971 426.838464 
L 1264.779012 426.838464 
L 1267.701772 282.359043 
L 1270.624532 426.838464 
L 1285.238333 426.838464 
L 1288.161093 457.248192 
L 1294.006613 455.797281 
L 1296.929373 455.152851 
L 1299.852133 453.225397 
L 1302.774894 452.605214 
L 1305.697654 476.104478 
L 1308.620414 476.224581 
L 1311.543174 426.838464 
L 1372.921137 426.838464 
L 1372.921137 426.838464 
" style="fill:none;stroke:#000000;stroke-linecap:square;stroke-width:2;"/>
   </g>
   <g id="line2d_13">
    <path clip-path="url(#p7740b4e652)" d="M 183.357754 434.335018 
L 186.280514 435.960888 
L 189.203275 434.63973 
L 192.126035 438.65573 
L 195.048795 436.844432 
L 197.971555 436.994045 
L 200.894315 436.366903 
L 203.817075 437.692776 
L 206.739836 437.74903 
L 209.662596 438.553859 
L 212.585356 438.921872 
L 215.508116 441.032619 
L 218.430876 442.380404 
L 221.353636 436.78555 
L 224.276396 436.180769 
L 227.199157 437.649584 
L 230.121917 436.330503 
L 233.044677 436.259873 
L 235.967437 434.675705 
L 238.890197 434.787716 
L 241.812957 434.744092 
L 244.735718 439.373655 
L 247.658478 235.373053 
L 250.581238 311.138971 
L 253.503998 251.861932 
L 256.426758 242.41448 
L 259.349518 427.943925 
L 262.272278 428.943933 
L 265.195039 429.269235 
L 268.117799 374.100335 
L 271.040559 422.81847 
L 273.963319 427.474178 
L 276.886079 429.626874 
L 279.808839 423.295305 
L 282.7316 423.42261 
L 285.65436 429.006237 
L 288.57712 429.038691 
L 291.49988 427.094321 
L 294.42264 424.470825 
L 297.3454 428.33866 
L 300.26816 428.168422 
L 303.190921 430.418034 
L 306.113681 552.276968 
L 309.036441 558.362751 
L 311.959201 558.199179 
L 314.881961 559.419844 
L 317.804721 533.233889 
L 320.727482 444.81888 
L 323.650242 428.476043 
L 326.573002 535.108946 
L 329.495762 414.068441 
L 332.418522 426.866719 
L 335.341282 426.524341 
L 338.264042 427.770118 
L 341.186803 424.42566 
L 344.109563 426.525469 
L 347.032323 425.898534 
L 349.955083 427.326808 
L 352.877843 425.178867 
L 355.800603 426.335514 
L 358.723364 423.959128 
L 361.646124 426.740335 
L 364.568884 421.993125 
L 367.491644 422.725142 
L 370.414404 415.760047 
L 373.337164 424.780215 
L 376.259924 421.642879 
L 379.182685 422.493763 
L 382.105445 420.064779 
L 385.028205 425.266459 
L 387.950965 423.543353 
L 390.873725 424.891041 
L 393.796485 424.156225 
L 396.719246 426.789268 
L 399.642006 426.455092 
L 402.564766 427.653301 
L 405.487526 427.701856 
L 408.410286 427.173413 
L 411.333046 426.207529 
L 414.255807 427.733514 
L 417.178567 426.037071 
L 420.101327 426.339013 
L 423.024087 426.156826 
L 425.946847 428.743423 
L 428.869607 428.082976 
L 431.792367 423.868683 
L 434.715128 427.660115 
L 437.637888 429.851927 
L 440.560648 429.680252 
L 443.483408 429.153319 
L 446.406168 430.570125 
L 452.251689 431.364522 
L 455.174449 435.13759 
L 458.097209 433.966844 
L 461.019969 436.712519 
L 463.942729 436.927666 
L 466.865489 439.562602 
L 469.788249 437.929955 
L 472.71101 442.825995 
L 475.63377 441.174653 
L 478.55653 444.166463 
L 481.47929 443.722208 
L 484.40205 446.578816 
L 487.32481 445.05905 
L 490.247571 449.304804 
L 493.170331 444.977768 
L 496.093091 449.27562 
L 499.015851 450.010748 
L 501.938611 448.577643 
L 504.861371 446.680409 
L 507.784131 449.358684 
L 510.706892 450.765695 
L 513.629652 450.087222 
L 516.552412 446.856854 
L 519.475172 450.069966 
L 522.397932 449.973893 
L 525.320692 448.725496 
L 528.243453 211.99235 
L 531.166213 209.092808 
L 534.088973 193.288204 
L 537.011733 382.946722 
L 539.934493 436.361315 
L 542.857253 437.458512 
L 545.780013 437.459457 
L 548.702774 394.914583 
L 551.625534 437.806968 
L 554.548294 433.190248 
L 557.471054 427.760381 
L 560.393814 431.72395 
L 563.316574 432.721764 
L 566.239335 431.959299 
L 569.162095 432.403752 
L 572.084855 432.629485 
L 575.007615 430.403377 
L 577.930375 431.593933 
L 580.853135 431.057074 
L 583.775895 431.505863 
L 586.698656 459.402669 
L 589.621416 515.628599 
L 592.544176 517.48148 
L 595.466936 423.675794 
L 598.389696 491.685127 
L 601.312456 490.519689 
L 607.157977 490.663435 
L 610.080737 489.544526 
L 613.003497 458.642995 
L 615.926257 459.263478 
L 618.849017 459.757366 
L 621.771778 461.457799 
L 624.694538 488.805793 
L 627.617298 459.379358 
L 630.540058 460.696899 
L 633.462818 415.741865 
L 636.385578 426.79103 
L 645.153859 426.076365 
L 648.076619 426.821573 
L 650.999379 426.198473 
L 653.922139 427.182009 
L 656.844899 425.739484 
L 659.76766 426.377745 
L 662.69042 425.039353 
L 665.61318 426.951925 
L 668.53594 425.300122 
L 671.4587 427.115495 
L 677.30422 426.640918 
L 680.226981 121.112329 
L 683.149741 152.88248 
L 686.072501 409.436489 
L 688.995261 171.764212 
L 691.918021 429.310726 
L 694.840781 422.946869 
L 697.763542 421.69248 
L 700.686302 422.795743 
L 703.609062 346.250678 
L 706.531822 419.2402 
L 709.454582 420.751326 
L 712.377342 421.043735 
L 715.300102 426.25142 
L 718.222863 426.005083 
L 721.145623 426.124273 
L 724.068383 424.893399 
L 726.991143 448.107644 
L 729.913903 444.601654 
L 732.836663 444.906183 
L 735.759424 444.239308 
L 738.682184 446.769723 
L 741.604944 442.836738 
L 744.527704 442.395956 
L 747.450464 443.032936 
L 750.373224 434.504686 
L 753.295984 432.077574 
L 756.218745 432.247116 
L 759.141505 434.73482 
L 762.064265 438.522799 
L 764.987025 435.857879 
L 767.909785 435.971214 
L 770.832545 431.483545 
L 773.755306 440.006506 
L 776.678066 433.689586 
L 779.600826 299.388811 
L 782.523586 419.508856 
L 785.446346 428.109617 
L 788.369106 414.087883 
L 791.291866 425.568787 
L 794.214627 426.286978 
L 797.137387 429.267941 
L 800.060147 426.259604 
L 802.982907 426.695748 
L 808.828427 428.373274 
L 811.751188 422.615566 
L 814.673948 427.005471 
L 817.596708 424.262059 
L 820.519468 423.348555 
L 823.442228 420.311741 
L 826.364988 424.193591 
L 829.287749 427.396464 
L 832.210509 428.578417 
L 835.133269 426.151196 
L 838.056029 427.428956 
L 840.978789 429.752629 
L 843.901549 433.611389 
L 846.824309 428.274031 
L 852.66983 429.346942 
L 855.59259 502.529011 
L 858.51535 501.286926 
L 861.43811 470.786626 
L 864.36087 426.794037 
L 867.283631 515.263305 
L 870.206391 483.781987 
L 873.129151 485.587006 
L 876.051911 512.480057 
L 878.974671 486.829633 
L 881.897431 459.644754 
L 884.820191 461.076549 
L 887.742952 460.147811 
L 890.665712 461.036985 
L 893.588472 460.219358 
L 896.511232 459.859517 
L 899.433992 461.389091 
L 902.356752 415.013154 
L 905.279513 426.069989 
L 908.202273 426.491175 
L 914.047793 425.805996 
L 916.970553 426.980118 
L 919.893313 426.15011 
L 922.816073 426.239299 
L 925.738834 425.834782 
L 928.661594 426.998144 
L 931.584354 422.454054 
L 934.507114 426.183943 
L 940.352634 426.094953 
L 943.275395 425.210864 
L 946.198155 426.999335 
L 949.120915 426.382106 
L 952.043675 427.442103 
L 954.966435 426.386949 
L 957.889195 426.584362 
L 960.811955 418.741113 
L 963.734716 177.384268 
L 966.657476 152.917237 
L 969.580236 136.522984 
L 972.502996 430.106975 
L 975.425756 333.262327 
L 978.348516 426.185823 
L 981.271277 426.810443 
L 984.194037 418.12243 
L 987.116797 423.572286 
L 990.039557 423.798971 
L 992.962317 422.855473 
L 995.885077 427.204171 
L 998.807837 427.077045 
L 1001.730598 427.34388 
L 1004.653358 424.582061 
L 1007.576118 455.727584 
L 1010.498878 449.815041 
L 1013.421638 449.832829 
L 1016.344398 450.337454 
L 1019.267159 431.80696 
L 1022.189919 428.708474 
L 1025.112679 427.353176 
L 1030.958199 436.319572 
L 1033.880959 432.601797 
L 1036.80372 431.783866 
L 1039.72648 433.837564 
L 1042.64924 437.537441 
L 1045.572 434.997174 
L 1048.49476 432.00822 
L 1051.41752 430.243791 
L 1054.34028 438.997791 
L 1057.263041 432.907015 
L 1060.185801 434.059986 
L 1063.108561 433.518731 
L 1066.031321 441.600981 
L 1068.954081 433.104958 
L 1071.876841 435.245565 
L 1074.799602 435.611564 
L 1077.722362 442.191723 
L 1080.645122 435.498927 
L 1083.567882 437.089774 
L 1086.490642 433.124309 
L 1089.413402 440.606807 
L 1092.336162 431.749044 
L 1095.258923 359.405392 
L 1098.181683 425.639854 
L 1101.104443 435.03497 
L 1104.027203 430.335429 
L 1106.949963 430.820819 
L 1109.872723 430.37101 
L 1112.795484 435.338914 
L 1115.718244 430.363588 
L 1118.641004 430.112682 
L 1124.486524 431.381973 
L 1127.409284 429.696757 
L 1130.332044 429.680501 
L 1133.254805 432.750703 
L 1136.177565 426.547627 
L 1139.100325 429.796301 
L 1142.023085 428.948402 
L 1144.945845 426.228778 
L 1147.868605 533.309898 
L 1150.791366 531.368431 
L 1153.714126 532.955817 
L 1156.636886 533.114894 
L 1159.559646 514.776198 
L 1162.482406 512.930354 
L 1168.327926 512.805764 
L 1171.250687 425.567858 
L 1174.173447 426.46304 
L 1177.096207 445.187579 
L 1180.018967 425.558233 
L 1182.941727 424.597102 
L 1185.864487 426.704713 
L 1188.787248 426.871691 
L 1191.710008 426.903456 
L 1194.632768 424.899761 
L 1197.555528 425.926475 
L 1200.478288 428.123909 
L 1203.401048 426.231482 
L 1206.323808 425.007178 
L 1209.246569 427.169786 
L 1212.169329 425.390429 
L 1215.092089 426.409514 
L 1218.014849 425.335541 
L 1220.937609 426.584785 
L 1223.860369 426.112462 
L 1226.78313 426.587944 
L 1229.70589 206.923332 
L 1232.62865 153.099202 
L 1235.55141 417.70727 
L 1238.47417 422.468619 
L 1241.39693 427.556045 
L 1244.319691 426.800006 
L 1247.242451 426.902565 
L 1250.165211 166.128858 
L 1253.087971 427.466763 
L 1256.010731 426.669406 
L 1258.933491 426.105244 
L 1261.856251 425.0834 
L 1264.779012 424.886426 
L 1267.701772 294.112533 
L 1270.624532 421.235849 
L 1273.547292 422.632942 
L 1276.470052 427.916482 
L 1279.392812 425.47474 
L 1282.315573 429.190683 
L 1285.238333 426.45238 
L 1288.161093 457.525614 
L 1291.083853 454.712274 
L 1294.006613 455.081881 
L 1296.929373 454.956027 
L 1299.852133 456.818899 
L 1302.774894 451.299253 
L 1305.697654 475.254759 
L 1308.620414 475.889579 
L 1311.543174 435.231244 
L 1314.465934 433.6801 
L 1317.388694 433.069677 
L 1323.234215 440.396952 
L 1326.156975 436.34966 
L 1329.079735 436.103132 
L 1332.002495 435.430493 
L 1334.925255 443.735411 
L 1337.848015 436.880568 
L 1340.770776 436.187132 
L 1343.693536 435.106379 
L 1346.616296 442.652196 
L 1349.539056 436.852231 
L 1352.461816 437.378754 
L 1355.384576 438.574276 
L 1358.307337 439.181828 
L 1361.230097 434.0888 
L 1364.152857 436.828877 
L 1367.075617 434.783125 
L 1369.998377 440.348644 
L 1372.921137 432.84397 
L 1372.921137 432.84397 
" style="fill:none;stroke:#ff0000;stroke-linecap:square;stroke-width:0.7;"/>
   </g>
   <g id="line2d_14">
    <path clip-path="url(#p7740b4e652)" d="M 183.357754 426.735384 
L 186.280514 426.735384 
L 189.203275 426.086388 
L 192.126035 426.735384 
L 197.971555 426.735384 
L 200.894315 426.086388 
L 203.817075 426.735384 
L 209.662596 426.735384 
L 212.585356 426.086388 
L 215.508116 426.735384 
L 221.353636 426.735384 
L 224.276396 426.086388 
L 227.199157 426.735384 
L 233.044677 426.735384 
L 235.967437 426.086388 
L 238.890197 426.735384 
L 244.735718 426.735384 
L 247.658478 180.521977 
L 250.581238 282.484191 
L 253.503998 222.081207 
L 256.426758 198.28969 
L 259.349518 426.735384 
L 265.195039 426.735384 
L 268.117799 338.249402 
L 271.040559 426.735384 
L 276.886079 426.735384 
L 279.808839 422.538564 
L 282.7316 426.735384 
L 303.190921 426.735384 
L 306.113681 573.838556 
L 314.881961 573.838556 
L 317.804721 537.27006 
L 320.727482 449.114947 
L 323.650242 426.735384 
L 326.573002 539.106218 
L 329.495762 409.0693 
L 332.418522 426.735384 
L 338.264042 426.735384 
L 341.186803 426.086388 
L 344.109563 426.735384 
L 349.955083 426.735384 
L 352.877843 426.086388 
L 355.800603 426.735384 
L 361.646124 426.735384 
L 364.568884 426.086388 
L 367.491644 426.735384 
L 373.337164 426.735384 
L 376.259924 426.086388 
L 379.182685 426.735384 
L 385.028205 426.735384 
L 387.950965 426.086388 
L 390.873725 426.735384 
L 396.719246 426.735384 
L 399.642006 426.086388 
L 402.564766 426.735384 
L 408.410286 426.735384 
L 411.333046 426.086388 
L 414.255807 426.735384 
L 420.101327 426.735384 
L 423.024087 426.086388 
L 425.946847 426.735384 
L 431.792367 426.735384 
L 434.715128 426.086388 
L 437.637888 426.735384 
L 443.483408 426.735384 
L 446.406168 426.086388 
L 449.328928 426.735384 
L 455.174449 426.735384 
L 458.097209 426.086388 
L 461.019969 426.735384 
L 466.865489 426.735384 
L 469.788249 426.086388 
L 472.71101 426.735384 
L 478.55653 426.735384 
L 481.47929 426.086388 
L 484.40205 426.735384 
L 490.247571 426.735384 
L 493.170331 426.086388 
L 496.093091 426.735384 
L 501.938611 426.735384 
L 504.861371 426.086388 
L 507.784131 426.735384 
L 513.629652 426.735384 
L 516.552412 426.086388 
L 519.475172 426.735384 
L 525.320692 426.735384 
L 528.243453 142.847636 
L 531.166213 154.51002 
L 534.088973 146.126301 
L 537.011733 377.360335 
L 539.934493 426.735384 
L 545.780013 426.735384 
L 548.702774 368.190196 
L 551.625534 426.735384 
L 554.548294 426.735384 
L 557.471054 422.538564 
L 560.393814 426.735384 
L 563.316574 423.529194 
L 566.239335 426.735384 
L 583.775895 426.735384 
L 586.698656 458.09269 
L 589.621416 522.245428 
L 592.544176 522.245428 
L 595.466936 426.735384 
L 598.389696 489.407604 
L 601.312456 493.149203 
L 610.080737 493.149203 
L 613.003497 463.175388 
L 615.926257 459.07115 
L 621.771778 459.07115 
L 624.694538 466.614681 
L 627.617298 463.175388 
L 630.540058 463.877722 
L 633.462818 409.0693 
L 636.385578 426.735384 
L 642.231099 426.735384 
L 645.153859 426.086388 
L 648.076619 426.735384 
L 653.922139 426.735384 
L 656.844899 426.086388 
L 659.76766 426.735384 
L 665.61318 426.735384 
L 668.53594 426.086388 
L 671.4587 426.735384 
L 677.30422 426.735384 
L 680.226981 136.407549 
L 683.149741 155.085056 
L 686.072501 413.961778 
L 688.995261 154.186365 
L 691.918021 426.735384 
L 700.686302 426.735384 
L 703.609062 333.819944 
L 706.531822 426.735384 
L 724.068383 426.735384 
L 726.991143 450.442681 
L 729.913903 448.917498 
L 735.759424 448.917498 
L 738.682184 436.792924 
L 747.450464 436.792924 
L 750.373224 426.735384 
L 776.678066 426.735384 
L 779.600826 229.359489 
L 782.523586 426.735384 
L 785.446346 426.735384 
L 788.369106 398.039355 
L 791.291866 426.735384 
L 808.828427 426.735384 
L 811.751188 423.187072 
L 814.673948 426.735384 
L 820.519468 426.735384 
L 823.442228 423.591407 
L 826.364988 426.735384 
L 832.210509 426.735384 
L 835.133269 423.654335 
L 838.056029 426.735384 
L 852.66983 426.735384 
L 855.59259 489.407604 
L 858.51535 493.149203 
L 861.43811 468.866481 
L 864.36087 426.735384 
L 867.283631 522.245428 
L 870.206391 470.35628 
L 873.129151 470.35628 
L 876.051911 493.149203 
L 878.974671 470.35628 
L 881.897431 463.175388 
L 884.820191 459.07115 
L 887.742952 459.773484 
L 890.665712 459.07115 
L 899.433992 459.07115 
L 902.356752 409.0693 
L 905.279513 426.735384 
L 911.125033 426.735384 
L 914.047793 426.086388 
L 916.970553 426.735384 
L 922.816073 426.735384 
L 925.738834 426.086388 
L 928.661594 426.735384 
L 934.507114 426.735384 
L 937.429874 426.086388 
L 940.352634 426.735384 
L 946.198155 426.735384 
L 949.120915 426.086388 
L 952.043675 426.735384 
L 957.889195 426.735384 
L 960.811955 411.633783 
L 963.734716 177.642741 
L 966.657476 155.069058 
L 969.580236 142.246495 
L 972.502996 426.735384 
L 975.425756 333.819944 
L 978.348516 426.735384 
L 981.271277 426.735384 
L 984.194037 421.711438 
L 987.116797 426.735384 
L 1004.653358 426.735384 
L 1007.576118 456.544831 
L 1013.421638 456.544831 
L 1016.344398 457.247165 
L 1019.267159 426.735384 
L 1092.336162 426.735384 
L 1095.258923 276.916211 
L 1098.181683 426.735384 
L 1144.945845 426.735384 
L 1147.868605 535.641258 
L 1150.791366 535.641258 
L 1153.714126 537.477416 
L 1156.636886 537.477416 
L 1159.559646 493.149203 
L 1165.405166 493.149203 
L 1168.327926 497.593231 
L 1171.250687 426.735384 
L 1174.173447 426.735384 
L 1177.096207 436.792924 
L 1180.018967 426.735384 
L 1182.941727 423.499813 
L 1185.864487 426.735384 
L 1191.710008 426.735384 
L 1194.632768 424.357705 
L 1197.555528 426.735384 
L 1203.401048 426.735384 
L 1206.323808 425.181112 
L 1209.246569 426.735384 
L 1215.092089 426.735384 
L 1218.014849 425.181112 
L 1220.937609 426.735384 
L 1226.78313 426.735384 
L 1229.70589 200.511194 
L 1232.62865 154.389977 
L 1235.55141 426.735384 
L 1247.242451 426.735384 
L 1250.165211 169.638115 
L 1253.087971 426.735384 
L 1264.779012 426.735384 
L 1267.701772 275.207886 
L 1270.624532 426.735384 
L 1285.238333 426.735384 
L 1288.161093 458.09269 
L 1294.006613 458.09269 
L 1296.929373 457.247165 
L 1299.852133 456.544831 
L 1302.774894 450.442681 
L 1305.697654 466.614681 
L 1308.620414 470.35628 
L 1311.543174 426.735384 
L 1372.921137 426.735384 
L 1372.921137 426.735384 
" style="fill:none;stroke:#008000;stroke-linecap:square;stroke-width:0.8;"/>
   </g>
   <g id="line2d_15">
    <path clip-path="url(#p7740b4e652)" d="M 183.357754 426.516818 
L 189.203275 424.772875 
L 192.126035 426.553662 
L 197.971555 425.971828 
L 200.894315 424.650832 
L 203.817075 426.374941 
L 206.739836 426.392467 
L 209.662596 425.862766 
L 212.585356 425.086213 
L 215.508116 426.829225 
L 218.430876 426.944473 
L 221.353636 427.957384 
L 224.276396 424.616797 
L 227.199157 426.487854 
L 230.121917 426.44031 
L 233.044677 427.16599 
L 235.967437 424.186485 
L 238.890197 426.297132 
L 241.812957 426.194173 
L 244.735718 424.617561 
L 247.658478 183.440793 
L 250.581238 278.717421 
L 253.503998 212.122223 
L 256.426758 208.79664 
L 259.349518 426.730978 
L 262.272278 427.174984 
L 265.195039 427.064728 
L 268.117799 340.749453 
L 271.040559 426.798559 
L 273.963319 427.038945 
L 276.886079 426.801633 
L 279.808839 418.881416 
L 282.7316 426.898735 
L 285.65436 427.182765 
L 288.57712 427.173228 
L 291.49988 426.599946 
L 294.42264 427.361073 
L 297.3454 427.460295 
L 300.26816 427.412308 
L 303.190921 427.972632 
L 306.113681 559.521108 
L 309.036441 559.050359 
L 311.959201 559.085095 
L 314.881961 559.767393 
L 317.804721 541.029317 
L 320.727482 448.101456 
L 323.650242 426.485855 
L 326.573002 540.046554 
L 329.495762 409.532381 
L 332.418522 426.366624 
L 335.341282 426.526609 
L 338.264042 426.486833 
L 341.186803 424.397291 
L 344.109563 426.313752 
L 347.032323 426.295438 
L 349.955083 426.422629 
L 352.877843 424.424987 
L 355.800603 426.326503 
L 358.723364 426.244201 
L 361.646124 426.386409 
L 364.568884 424.352327 
L 367.491644 426.251574 
L 370.414404 426.08093 
L 373.337164 426.386395 
L 376.259924 424.373779 
L 379.182685 426.23701 
L 382.105445 426.154501 
L 385.028205 426.501461 
L 387.950965 424.434504 
L 390.873725 426.299811 
L 393.796485 426.293097 
L 396.719246 426.924399 
L 399.642006 424.810699 
L 402.564766 426.776175 
L 408.410286 426.824751 
L 411.333046 424.908487 
L 414.255807 426.734982 
L 417.178567 426.601056 
L 420.101327 426.697944 
L 423.024087 424.680681 
L 425.946847 426.599118 
L 428.869607 426.584975 
L 431.792367 426.242654 
L 434.715128 424.615769 
L 437.637888 426.397312 
L 440.560648 426.469705 
L 443.483408 426.163105 
L 446.406168 424.758032 
L 449.328928 426.720784 
L 452.251689 426.755402 
L 455.174449 425.875465 
L 458.097209 425.170066 
L 461.019969 426.87918 
L 463.942729 426.721146 
L 466.865489 426.371331 
L 469.788249 425.503399 
L 472.71101 427.239218 
L 475.63377 427.241821 
L 478.55653 426.911492 
L 481.47929 425.388102 
L 484.40205 427.013394 
L 487.32481 427.324024 
L 490.247571 426.743159 
L 493.170331 425.920632 
L 496.093091 427.354618 
L 499.015851 427.505068 
L 501.938611 427.770164 
L 504.861371 426.160249 
L 507.784131 428.036688 
L 510.706892 427.636586 
L 513.629652 427.379402 
L 516.552412 425.951357 
L 519.475172 427.64535 
L 522.397932 427.286976 
L 525.320692 427.479021 
L 528.243453 155.567753 
L 531.166213 164.956537 
L 534.088973 157.026916 
L 537.011733 369.587811 
L 539.934493 426.947259 
L 542.857253 427.259797 
L 545.780013 427.16096 
L 548.702774 366.327036 
L 551.625534 427.178662 
L 554.548294 427.829024 
L 557.471054 421.615276 
L 560.393814 427.912088 
L 563.316574 423.844287 
L 566.239335 427.907235 
L 569.162095 427.801958 
L 572.084855 427.936348 
L 575.007615 427.371486 
L 577.930375 427.681655 
L 580.853135 427.519467 
L 583.775895 427.719741 
L 586.698656 458.558507 
L 589.621416 513.156631 
L 592.544176 513.426247 
L 595.466936 427.440466 
L 598.389696 488.438081 
L 601.312456 487.956524 
L 604.235217 487.887548 
L 607.157977 488.367659 
L 610.080737 487.732317 
L 613.003497 459.05316 
L 618.849017 459.043341 
L 621.771778 459.091406 
L 624.694538 485.093897 
L 627.617298 459.025727 
L 630.540058 458.221704 
L 633.462818 410.680558 
L 636.385578 426.726489 
L 639.308338 426.695833 
L 642.231099 426.810811 
L 645.153859 424.688384 
L 648.076619 426.678441 
L 650.999379 426.614601 
L 653.922139 426.757005 
L 656.844899 424.663667 
L 659.76766 426.560403 
L 662.69042 426.532835 
L 665.61318 426.810772 
L 668.53594 424.576032 
L 671.4587 426.690911 
L 674.38146 426.666289 
L 677.30422 426.836291 
L 680.226981 131.003443 
L 683.149741 155.007503 
L 686.072501 413.758648 
L 688.995261 156.369535 
L 691.918021 426.781434 
L 694.840781 426.180341 
L 697.763542 426.172025 
L 700.686302 426.452201 
L 703.609062 323.667283 
L 706.531822 425.857424 
L 709.454582 425.946142 
L 712.377342 426.307336 
L 715.300102 425.941613 
L 718.222863 426.288527 
L 721.145623 426.211431 
L 724.068383 425.931568 
L 726.991143 450.619623 
L 729.913903 450.530835 
L 732.836663 449.753174 
L 735.759424 448.476613 
L 738.682184 444.421002 
L 741.604944 444.118234 
L 744.527704 443.677725 
L 747.450464 442.436518 
L 750.373224 426.481535 
L 753.295984 426.898912 
L 756.218745 426.909076 
L 762.064265 426.492291 
L 764.987025 426.967487 
L 767.909785 426.98198 
L 770.832545 427.360775 
L 773.755306 427.168965 
L 776.678066 427.751844 
L 779.600826 224.981127 
L 782.523586 426.915323 
L 785.446346 427.216422 
L 788.369106 399.706171 
L 791.291866 427.723869 
L 794.214627 427.681092 
L 797.137387 427.08129 
L 800.060147 427.853292 
L 802.982907 427.543341 
L 805.905667 427.867288 
L 808.828427 426.965454 
L 811.751188 422.627531 
L 814.673948 427.686594 
L 817.596708 427.730799 
L 820.519468 426.853447 
L 823.442228 423.777899 
L 826.364988 427.572363 
L 829.287749 427.604898 
L 832.210509 426.872496 
L 835.133269 424.116421 
L 838.056029 427.384486 
L 840.978789 427.710434 
L 843.901549 427.33135 
L 846.824309 427.867907 
L 849.74707 427.648004 
L 852.66983 427.98038 
L 855.59259 500.309529 
L 858.51535 500.824277 
L 861.43811 469.236536 
L 864.36087 427.543759 
L 867.283631 513.417643 
L 870.206391 484.485725 
L 873.129151 484.342176 
L 876.051911 510.992255 
L 881.897431 459.706616 
L 884.820191 459.621837 
L 887.742952 460.20779 
L 890.665712 459.395723 
L 893.588472 459.270908 
L 896.511232 458.581754 
L 899.433992 459.298277 
L 902.356752 411.110152 
L 905.279513 426.674607 
L 908.202273 426.66318 
L 911.125033 426.825068 
L 914.047793 424.6193 
L 916.970553 426.681807 
L 919.893313 426.609212 
L 922.816073 426.822218 
L 925.738834 424.633405 
L 928.661594 426.543817 
L 931.584354 426.533073 
L 934.507114 426.888581 
L 937.429874 424.681992 
L 940.352634 426.649886 
L 943.275395 426.549504 
L 946.198155 426.795628 
L 949.120915 424.719568 
L 952.043675 426.742511 
L 954.966435 426.641164 
L 957.889195 426.839165 
L 960.811955 414.50852 
L 963.734716 177.670658 
L 966.657476 154.756018 
L 969.580236 142.111768 
L 972.502996 427.240837 
L 975.425756 324.97788 
L 978.348516 426.654344 
L 981.271277 426.695991 
L 984.194037 417.644693 
L 987.116797 426.35683 
L 990.039557 426.436771 
L 992.962317 426.116536 
L 995.885077 426.319024 
L 1001.730598 426.415964 
L 1004.653358 426.366305 
L 1007.576118 454.17982 
L 1010.498878 453.887601 
L 1013.421638 453.181116 
L 1016.344398 451.364661 
L 1019.267159 426.982412 
L 1025.112679 427.291324 
L 1028.035439 426.799084 
L 1036.80372 427.565901 
L 1039.72648 427.269779 
L 1042.64924 427.582322 
L 1045.572 427.652674 
L 1048.49476 428.050201 
L 1051.41752 428.150221 
L 1054.34028 428.047155 
L 1057.263041 428.364354 
L 1066.031321 428.156818 
L 1068.954081 428.701068 
L 1071.876841 428.551057 
L 1074.799602 428.112519 
L 1077.722362 428.057419 
L 1080.645122 428.749883 
L 1083.567882 428.161415 
L 1086.490642 428.902546 
L 1089.413402 428.036053 
L 1092.336162 428.499086 
L 1095.258923 302.955771 
L 1098.181683 428.831664 
L 1101.104443 428.142588 
L 1104.027203 428.282611 
L 1106.949963 428.204469 
L 1109.872723 428.280531 
L 1112.795484 427.656324 
L 1115.718244 428.000738 
L 1118.641004 427.857948 
L 1121.563764 427.899645 
L 1124.486524 427.559278 
L 1127.409284 427.742564 
L 1130.332044 427.708271 
L 1133.254805 428.258158 
L 1136.177565 427.463316 
L 1144.945845 427.527274 
L 1147.868605 529.551178 
L 1150.791366 528.906536 
L 1153.714126 528.828762 
L 1156.636886 529.770123 
L 1159.559646 510.487311 
L 1162.482406 510.099424 
L 1165.405166 510.097925 
L 1168.327926 510.681307 
L 1171.250687 426.74843 
L 1174.173447 426.61829 
L 1177.096207 443.396632 
L 1180.018967 426.646824 
L 1182.941727 422.63086 
L 1185.864487 426.593779 
L 1188.787248 426.59161 
L 1191.710008 426.734241 
L 1194.632768 423.367253 
L 1197.555528 426.493036 
L 1203.401048 426.685306 
L 1206.323808 423.609955 
L 1209.246569 426.716448 
L 1212.169329 426.538706 
L 1215.092089 426.792579 
L 1218.014849 423.746926 
L 1220.937609 426.662314 
L 1223.860369 426.637523 
L 1226.78313 426.773029 
L 1229.70589 202.496742 
L 1232.62865 157.310505 
L 1235.55141 425.740099 
L 1238.47417 426.480342 
L 1241.39693 426.636138 
L 1247.242451 426.618762 
L 1250.165211 163.142343 
L 1253.087971 427.406479 
L 1256.010731 426.772783 
L 1258.933491 426.702577 
L 1261.856251 426.92959 
L 1264.779012 426.445247 
L 1267.701772 283.346386 
L 1270.624532 426.508077 
L 1273.547292 426.213764 
L 1279.392812 426.616933 
L 1285.238333 426.359794 
L 1288.161093 456.472461 
L 1291.083853 455.919067 
L 1294.006613 455.214116 
L 1299.852133 452.707237 
L 1302.774894 452.407478 
L 1305.697654 475.152552 
L 1308.620414 474.359861 
L 1311.543174 427.381901 
L 1317.388694 427.597283 
L 1320.311455 427.297618 
L 1326.156975 427.55107 
L 1329.079735 427.608414 
L 1332.002495 427.41239 
L 1334.925255 427.854102 
L 1337.848015 428.179354 
L 1343.693536 427.910741 
L 1346.616296 428.347085 
L 1349.539056 428.423024 
L 1352.461816 428.314908 
L 1355.384576 428.590914 
L 1361.230097 428.620404 
L 1364.152857 427.906172 
L 1367.075617 428.238747 
L 1369.998377 427.597524 
L 1372.921137 428.146028 
L 1372.921137 428.146028 
" style="fill:none;stroke:#0000ff;stroke-dasharray:6.4,1.6,1,1.6;stroke-dashoffset:0;"/>
   </g>
   <g id="patch_3">
    <path d="M 184.632 578.184217 
L 184.632 121.4005 
" style="fill:none;stroke:#000000;stroke-linecap:square;stroke-linejoin:miter;stroke-width:0.8;"/>
   </g>
   <g id="patch_4">
    <path d="M 1370.088 578.184217 
L 1370.088 121.4005 
" style="fill:none;stroke:#000000;stroke-linecap:square;stroke-linejoin:miter;stroke-width:0.8;"/>
   </g>
   <g id="patch_5">
    <path d="M 184.632 578.184217 
L 1370.088 578.184217 
" style="fill:none;stroke:#000000;stroke-linecap:square;stroke-linejoin:miter;stroke-width:0.8;"/>
   </g>
   <g id="patch_6">
    <path d="M 184.632 121.4005 
L 1370.088 121.4005 
" style="fill:none;stroke:#000000;stroke-linecap:square;stroke-linejoin:miter;stroke-width:0.8;"/>
   </g>
   <g id="text_12">
    <!-- Vergleich der Vorhersagen von ANN, RF und SVR -->
    <defs>
     <path d="M 28.609375 0 
L 0.78125 72.90625 
L 11.078125 72.90625 
L 34.1875 11.53125 
L 57.328125 72.90625 
L 67.578125 72.90625 
L 39.796875 0 
z
" id="DejaVuSans-56"/>
     <path d="M 9.421875 75.984375 
L 18.40625 75.984375 
L 18.40625 0 
L 9.421875 0 
z
" id="DejaVuSans-6c"/>
     <path d="M 48.78125 52.59375 
L 48.78125 44.1875 
Q 44.96875 46.296875 41.140625 47.34375 
Q 37.3125 48.390625 33.40625 48.390625 
Q 24.65625 48.390625 19.8125 42.84375 
Q 14.984375 37.3125 14.984375 27.296875 
Q 14.984375 17.28125 19.8125 11.734375 
Q 24.65625 6.203125 33.40625 6.203125 
Q 37.3125 6.203125 41.140625 7.25 
Q 44.96875 8.296875 48.78125 10.40625 
L 48.78125 2.09375 
Q 45.015625 0.34375 40.984375 -0.53125 
Q 36.96875 -1.421875 32.421875 -1.421875 
Q 20.0625 -1.421875 12.78125 6.34375 
Q 5.515625 14.109375 5.515625 27.296875 
Q 5.515625 40.671875 12.859375 48.328125 
Q 20.21875 56 33.015625 56 
Q 37.15625 56 41.109375 55.140625 
Q 45.0625 54.296875 48.78125 52.59375 
z
" id="DejaVuSans-63"/>
     <path d="M 54.890625 33.015625 
L 54.890625 0 
L 45.90625 0 
L 45.90625 32.71875 
Q 45.90625 40.484375 42.875 44.328125 
Q 39.84375 48.1875 33.796875 48.1875 
Q 26.515625 48.1875 22.3125 43.546875 
Q 18.109375 38.921875 18.109375 30.90625 
L 18.109375 0 
L 9.078125 0 
L 9.078125 75.984375 
L 18.109375 75.984375 
L 18.109375 46.1875 
Q 21.34375 51.125 25.703125 53.5625 
Q 30.078125 56 35.796875 56 
Q 45.21875 56 50.046875 50.171875 
Q 54.890625 44.34375 54.890625 33.015625 
z
" id="DejaVuSans-68"/>
     <path d="M 30.609375 48.390625 
Q 23.390625 48.390625 19.1875 42.75 
Q 14.984375 37.109375 14.984375 27.296875 
Q 14.984375 17.484375 19.15625 11.84375 
Q 23.34375 6.203125 30.609375 6.203125 
Q 37.796875 6.203125 41.984375 11.859375 
Q 46.1875 17.53125 46.1875 27.296875 
Q 46.1875 37.015625 41.984375 42.703125 
Q 37.796875 48.390625 30.609375 48.390625 
z
M 30.609375 56 
Q 42.328125 56 49.015625 48.375 
Q 55.71875 40.765625 55.71875 27.296875 
Q 55.71875 13.875 49.015625 6.21875 
Q 42.328125 -1.421875 30.609375 -1.421875 
Q 18.84375 -1.421875 12.171875 6.21875 
Q 5.515625 13.875 5.515625 27.296875 
Q 5.515625 40.765625 12.171875 48.375 
Q 18.84375 56 30.609375 56 
z
" id="DejaVuSans-6f"/>
     <path d="M 2.984375 54.6875 
L 12.5 54.6875 
L 29.59375 8.796875 
L 46.6875 54.6875 
L 56.203125 54.6875 
L 35.6875 0 
L 23.484375 0 
z
" id="DejaVuSans-76"/>
     <path d="M 34.1875 63.1875 
L 20.796875 26.90625 
L 47.609375 26.90625 
z
M 28.609375 72.90625 
L 39.796875 72.90625 
L 67.578125 0 
L 57.328125 0 
L 50.6875 18.703125 
L 17.828125 18.703125 
L 11.1875 0 
L 0.78125 0 
z
" id="DejaVuSans-41"/>
     <path d="M 9.8125 72.90625 
L 23.09375 72.90625 
L 55.421875 11.921875 
L 55.421875 72.90625 
L 64.984375 72.90625 
L 64.984375 0 
L 51.703125 0 
L 19.390625 60.984375 
L 19.390625 0 
L 9.8125 0 
z
" id="DejaVuSans-4e"/>
     <path d="M 11.71875 12.40625 
L 22.015625 12.40625 
L 22.015625 4 
L 14.015625 -11.625 
L 7.71875 -11.625 
L 11.71875 4 
z
" id="DejaVuSans-2c"/>
     <path d="M 44.390625 34.1875 
Q 47.5625 33.109375 50.5625 29.59375 
Q 53.5625 26.078125 56.59375 19.921875 
L 66.609375 0 
L 56 0 
L 46.6875 18.703125 
Q 43.0625 26.03125 39.671875 28.421875 
Q 36.28125 30.8125 30.421875 30.8125 
L 19.671875 30.8125 
L 19.671875 0 
L 9.8125 0 
L 9.8125 72.90625 
L 32.078125 72.90625 
Q 44.578125 72.90625 50.734375 67.671875 
Q 56.890625 62.453125 56.890625 51.90625 
Q 56.890625 45.015625 53.6875 40.46875 
Q 50.484375 35.9375 44.390625 34.1875 
z
M 19.671875 64.796875 
L 19.671875 38.921875 
L 32.078125 38.921875 
Q 39.203125 38.921875 42.84375 42.21875 
Q 46.484375 45.515625 46.484375 51.90625 
Q 46.484375 58.296875 42.84375 61.546875 
Q 39.203125 64.796875 32.078125 64.796875 
z
" id="DejaVuSans-52"/>
     <path d="M 9.8125 72.90625 
L 51.703125 72.90625 
L 51.703125 64.59375 
L 19.671875 64.59375 
L 19.671875 43.109375 
L 48.578125 43.109375 
L 48.578125 34.8125 
L 19.671875 34.8125 
L 19.671875 0 
L 9.8125 0 
z
" id="DejaVuSans-46"/>
     <path d="M 53.515625 70.515625 
L 53.515625 60.890625 
Q 47.90625 63.578125 42.921875 64.890625 
Q 37.9375 66.21875 33.296875 66.21875 
Q 25.25 66.21875 20.875 63.09375 
Q 16.5 59.96875 16.5 54.203125 
Q 16.5 49.359375 19.40625 46.890625 
Q 22.3125 44.4375 30.421875 42.921875 
L 36.375 41.703125 
Q 47.40625 39.59375 52.65625 34.296875 
Q 57.90625 29 57.90625 20.125 
Q 57.90625 9.515625 50.796875 4.046875 
Q 43.703125 -1.421875 29.984375 -1.421875 
Q 24.8125 -1.421875 18.96875 -0.25 
Q 13.140625 0.921875 6.890625 3.21875 
L 6.890625 13.375 
Q 12.890625 10.015625 18.65625 8.296875 
Q 24.421875 6.59375 29.984375 6.59375 
Q 38.421875 6.59375 43.015625 9.90625 
Q 47.609375 13.234375 47.609375 19.390625 
Q 47.609375 24.75 44.3125 27.78125 
Q 41.015625 30.8125 33.5 32.328125 
L 27.484375 33.5 
Q 16.453125 35.6875 11.515625 40.375 
Q 6.59375 45.0625 6.59375 53.421875 
Q 6.59375 63.09375 13.40625 68.65625 
Q 20.21875 74.21875 32.171875 74.21875 
Q 37.3125 74.21875 42.625 73.28125 
Q 47.953125 72.359375 53.515625 70.515625 
z
" id="DejaVuSans-53"/>
    </defs>
    <g transform="translate(654.910781 115.4005)scale(0.1 -0.1)">
     <use xlink:href="#DejaVuSans-56"/>
     <use x="68.298828" xlink:href="#DejaVuSans-65"/>
     <use x="129.822266" xlink:href="#DejaVuSans-72"/>
     <use x="170.919922" xlink:href="#DejaVuSans-67"/>
     <use x="234.396484" xlink:href="#DejaVuSans-6c"/>
     <use x="262.179688" xlink:href="#DejaVuSans-65"/>
     <use x="323.703125" xlink:href="#DejaVuSans-69"/>
     <use x="351.486328" xlink:href="#DejaVuSans-63"/>
     <use x="406.466797" xlink:href="#DejaVuSans-68"/>
     <use x="469.845703" xlink:href="#DejaVuSans-20"/>
     <use x="501.632812" xlink:href="#DejaVuSans-64"/>
     <use x="565.109375" xlink:href="#DejaVuSans-65"/>
     <use x="626.632812" xlink:href="#DejaVuSans-72"/>
     <use x="667.746094" xlink:href="#DejaVuSans-20"/>
     <use x="699.533203" xlink:href="#DejaVuSans-56"/>
     <use x="767.832031" xlink:href="#DejaVuSans-6f"/>
     <use x="829.013672" xlink:href="#DejaVuSans-72"/>
     <use x="870.111328" xlink:href="#DejaVuSans-68"/>
     <use x="933.490234" xlink:href="#DejaVuSans-65"/>
     <use x="995.013672" xlink:href="#DejaVuSans-72"/>
     <use x="1036.126953" xlink:href="#DejaVuSans-73"/>
     <use x="1088.226562" xlink:href="#DejaVuSans-61"/>
     <use x="1149.505859" xlink:href="#DejaVuSans-67"/>
     <use x="1212.982422" xlink:href="#DejaVuSans-65"/>
     <use x="1274.505859" xlink:href="#DejaVuSans-6e"/>
     <use x="1337.884766" xlink:href="#DejaVuSans-20"/>
     <use x="1369.671875" xlink:href="#DejaVuSans-76"/>
     <use x="1428.851562" xlink:href="#DejaVuSans-6f"/>
     <use x="1490.033203" xlink:href="#DejaVuSans-6e"/>
     <use x="1553.412109" xlink:href="#DejaVuSans-20"/>
     <use x="1585.199219" xlink:href="#DejaVuSans-41"/>
     <use x="1653.607422" xlink:href="#DejaVuSans-4e"/>
     <use x="1728.412109" xlink:href="#DejaVuSans-4e"/>
     <use x="1803.216797" xlink:href="#DejaVuSans-2c"/>
     <use x="1835.003906" xlink:href="#DejaVuSans-20"/>
     <use x="1866.791016" xlink:href="#DejaVuSans-52"/>
     <use x="1936.273438" xlink:href="#DejaVuSans-46"/>
     <use x="1993.792969" xlink:href="#DejaVuSans-20"/>
     <use x="2025.580078" xlink:href="#DejaVuSans-75"/>
     <use x="2088.958984" xlink:href="#DejaVuSans-6e"/>
     <use x="2152.337891" xlink:href="#DejaVuSans-64"/>
     <use x="2215.814453" xlink:href="#DejaVuSans-20"/>
     <use x="2247.601562" xlink:href="#DejaVuSans-53"/>
     <use x="2311.078125" xlink:href="#DejaVuSans-56"/>
     <use x="2379.486328" xlink:href="#DejaVuSans-52"/>
    </g>
   </g>
   <g id="legend_1">
    <g id="patch_7">
     <path d="M 1280.836437 188.113 
L 1363.088 188.113 
Q 1365.088 188.113 1365.088 186.113 
L 1365.088 128.4005 
Q 1365.088 126.4005 1363.088 126.4005 
L 1280.836437 126.4005 
Q 1278.836437 126.4005 1278.836437 128.4005 
L 1278.836437 186.113 
Q 1278.836437 188.113 1280.836437 188.113 
z
" style="fill:#ffffff;opacity:0.8;stroke:#cccccc;stroke-linejoin:miter;"/>
    </g>
    <g id="line2d_16">
     <path d="M 1282.836437 134.498937 
L 1302.836437 134.498937 
" style="fill:none;stroke:#000000;stroke-linecap:square;stroke-width:2;"/>
    </g>
    <g id="line2d_17"/>
    <g id="text_13">
     <!-- Testdaten -->
     <defs>
      <path d="M -0.296875 72.90625 
L 61.375 72.90625 
L 61.375 64.59375 
L 35.5 64.59375 
L 35.5 0 
L 25.59375 0 
L 25.59375 64.59375 
L -0.296875 64.59375 
z
" id="DejaVuSans-54"/>
     </defs>
     <g transform="translate(1310.836437 137.998937)scale(0.1 -0.1)">
      <use xlink:href="#DejaVuSans-54"/>
      <use x="60.818359" xlink:href="#DejaVuSans-65"/>
      <use x="122.341797" xlink:href="#DejaVuSans-73"/>
      <use x="174.441406" xlink:href="#DejaVuSans-74"/>
      <use x="213.650391" xlink:href="#DejaVuSans-64"/>
      <use x="277.126953" xlink:href="#DejaVuSans-61"/>
      <use x="338.40625" xlink:href="#DejaVuSans-74"/>
      <use x="377.615234" xlink:href="#DejaVuSans-65"/>
      <use x="439.138672" xlink:href="#DejaVuSans-6e"/>
     </g>
    </g>
    <g id="line2d_18">
     <path d="M 1282.836437 149.177062 
L 1302.836437 149.177062 
" style="fill:none;stroke:#ff0000;stroke-linecap:square;stroke-width:0.7;"/>
    </g>
    <g id="line2d_19"/>
    <g id="text_14">
     <!-- ANN -->
     <g transform="translate(1310.836437 152.677062)scale(0.1 -0.1)">
      <use xlink:href="#DejaVuSans-41"/>
      <use x="68.408203" xlink:href="#DejaVuSans-4e"/>
      <use x="143.212891" xlink:href="#DejaVuSans-4e"/>
     </g>
    </g>
    <g id="line2d_20">
     <path d="M 1282.836437 163.855187 
L 1302.836437 163.855187 
" style="fill:none;stroke:#008000;stroke-linecap:square;stroke-width:0.8;"/>
    </g>
    <g id="line2d_21"/>
    <g id="text_15">
     <!-- RF -->
     <g transform="translate(1310.836437 167.355187)scale(0.1 -0.1)">
      <use xlink:href="#DejaVuSans-52"/>
      <use x="69.482422" xlink:href="#DejaVuSans-46"/>
     </g>
    </g>
    <g id="line2d_22">
     <path d="M 1282.836437 178.533312 
L 1302.836437 178.533312 
" style="fill:none;stroke:#0000ff;stroke-dasharray:6.4,1.6,1,1.6;stroke-dashoffset:0;"/>
    </g>
    <g id="line2d_23"/>
    <g id="text_16">
     <!-- SVR -->
     <g transform="translate(1310.836437 182.033312)scale(0.1 -0.1)">
      <use xlink:href="#DejaVuSans-53"/>
      <use x="63.476562" xlink:href="#DejaVuSans-56"/>
      <use x="131.884766" xlink:href="#DejaVuSans-52"/>
     </g>
    </g>
   </g>
  </g>
 </g>
 <defs>
  <clipPath id="p7740b4e652">
   <rect height="456.783717" width="1185.456" x="184.632" y="121.4005"/>
  </clipPath>
 </defs>
</svg>
