<?xml version="1.0" encoding="utf-8" standalone="no"?>
<!DOCTYPE svg PUBLIC "-//W3C//DTD SVG 1.1//EN"
  "http://www.w3.org/Graphics/SVG/1.1/DTD/svg11.dtd">
<!-- Created with matplotlib (http://matplotlib.org/) -->
<svg height="345.6pt" version="1.1" viewBox="0 0 460.8 345.6" width="460.8pt" xmlns="http://www.w3.org/2000/svg" xmlns:xlink="http://www.w3.org/1999/xlink">
 <defs>
  <style type="text/css">
*{stroke-linecap:butt;stroke-linejoin:round;}
  </style>
 </defs>
 <g id="figure_1">
  <g id="patch_1">
   <path d="M 0 345.6 
L 460.8 345.6 
L 460.8 0 
L 0 0 
z
" style="fill:#ffffff;"/>
  </g>
  <g id="axes_1">
   <g id="patch_2">
    <path d="M 57.6 307.584 
L 414.72 307.584 
L 414.72 41.472 
L 57.6 41.472 
z
" style="fill:#ffffff;"/>
   </g>
   <g id="matplotlib.axis_1">
    <g id="xtick_1">
     <g id="line2d_1">
      <defs>
       <path d="M 0 0 
L 0 3.5 
" id="m27dd9c6308" style="stroke:#000000;stroke-width:0.8;"/>
      </defs>
      <g>
       <use style="stroke:#000000;stroke-width:0.8;" x="57.6" xlink:href="#m27dd9c6308" y="307.584"/>
      </g>
     </g>
     <g id="text_1">
      <!-- 15 -->
      <defs>
       <path d="M 12.40625 8.296875 
L 28.515625 8.296875 
L 28.515625 63.921875 
L 10.984375 60.40625 
L 10.984375 69.390625 
L 28.421875 72.90625 
L 38.28125 72.90625 
L 38.28125 8.296875 
L 54.390625 8.296875 
L 54.390625 0 
L 12.40625 0 
z
" id="DejaVuSans-31"/>
       <path d="M 10.796875 72.90625 
L 49.515625 72.90625 
L 49.515625 64.59375 
L 19.828125 64.59375 
L 19.828125 46.734375 
Q 21.96875 47.46875 24.109375 47.828125 
Q 26.265625 48.1875 28.421875 48.1875 
Q 40.625 48.1875 47.75 41.5 
Q 54.890625 34.8125 54.890625 23.390625 
Q 54.890625 11.625 47.5625 5.09375 
Q 40.234375 -1.421875 26.90625 -1.421875 
Q 22.3125 -1.421875 17.546875 -0.640625 
Q 12.796875 0.140625 7.71875 1.703125 
L 7.71875 11.625 
Q 12.109375 9.234375 16.796875 8.0625 
Q 21.484375 6.890625 26.703125 6.890625 
Q 35.15625 6.890625 40.078125 11.328125 
Q 45.015625 15.765625 45.015625 23.390625 
Q 45.015625 31 40.078125 35.4375 
Q 35.15625 39.890625 26.703125 39.890625 
Q 22.75 39.890625 18.8125 39.015625 
Q 14.890625 38.140625 10.796875 36.28125 
z
" id="DejaVuSans-35"/>
      </defs>
      <g transform="translate(52.300038 320.913498)scale(0.0833 -0.0833)">
       <use xlink:href="#DejaVuSans-31"/>
       <use x="63.623047" xlink:href="#DejaVuSans-35"/>
      </g>
      <!-- Feb -->
      <defs>
       <path d="M 9.8125 72.90625 
L 51.703125 72.90625 
L 51.703125 64.59375 
L 19.671875 64.59375 
L 19.671875 43.109375 
L 48.578125 43.109375 
L 48.578125 34.8125 
L 19.671875 34.8125 
L 19.671875 0 
L 9.8125 0 
z
" id="DejaVuSans-46"/>
       <path d="M 56.203125 29.59375 
L 56.203125 25.203125 
L 14.890625 25.203125 
Q 15.484375 15.921875 20.484375 11.0625 
Q 25.484375 6.203125 34.421875 6.203125 
Q 39.59375 6.203125 44.453125 7.46875 
Q 49.3125 8.734375 54.109375 11.28125 
L 54.109375 2.78125 
Q 49.265625 0.734375 44.1875 -0.34375 
Q 39.109375 -1.421875 33.890625 -1.421875 
Q 20.796875 -1.421875 13.15625 6.1875 
Q 5.515625 13.8125 5.515625 26.8125 
Q 5.515625 40.234375 12.765625 48.109375 
Q 20.015625 56 32.328125 56 
Q 43.359375 56 49.78125 48.890625 
Q 56.203125 41.796875 56.203125 29.59375 
z
M 47.21875 32.234375 
Q 47.125 39.59375 43.09375 43.984375 
Q 39.0625 48.390625 32.421875 48.390625 
Q 24.90625 48.390625 20.390625 44.140625 
Q 15.875 39.890625 15.1875 32.171875 
z
" id="DejaVuSans-65"/>
       <path d="M 48.6875 27.296875 
Q 48.6875 37.203125 44.609375 42.84375 
Q 40.53125 48.484375 33.40625 48.484375 
Q 26.265625 48.484375 22.1875 42.84375 
Q 18.109375 37.203125 18.109375 27.296875 
Q 18.109375 17.390625 22.1875 11.75 
Q 26.265625 6.109375 33.40625 6.109375 
Q 40.53125 6.109375 44.609375 11.75 
Q 48.6875 17.390625 48.6875 27.296875 
z
M 18.109375 46.390625 
Q 20.953125 51.265625 25.265625 53.625 
Q 29.59375 56 35.59375 56 
Q 45.5625 56 51.78125 48.09375 
Q 58.015625 40.1875 58.015625 27.296875 
Q 58.015625 14.40625 51.78125 6.484375 
Q 45.5625 -1.421875 35.59375 -1.421875 
Q 29.59375 -1.421875 25.265625 0.953125 
Q 20.953125 3.328125 18.109375 8.203125 
L 18.109375 0 
L 9.078125 0 
L 9.078125 75.984375 
L 18.109375 75.984375 
z
" id="DejaVuSans-62"/>
      </defs>
      <g transform="translate(50.000827 330.241276)scale(0.0833 -0.0833)">
       <use xlink:href="#DejaVuSans-46"/>
       <use x="57.441406" xlink:href="#DejaVuSans-65"/>
       <use x="118.964844" xlink:href="#DejaVuSans-62"/>
      </g>
      <!-- 2018 -->
      <defs>
       <path d="M 19.1875 8.296875 
L 53.609375 8.296875 
L 53.609375 0 
L 7.328125 0 
L 7.328125 8.296875 
Q 12.9375 14.109375 22.625 23.890625 
Q 32.328125 33.6875 34.8125 36.53125 
Q 39.546875 41.84375 41.421875 45.53125 
Q 43.3125 49.21875 43.3125 52.78125 
Q 43.3125 58.59375 39.234375 62.25 
Q 35.15625 65.921875 28.609375 65.921875 
Q 23.96875 65.921875 18.8125 64.3125 
Q 13.671875 62.703125 7.8125 59.421875 
L 7.8125 69.390625 
Q 13.765625 71.78125 18.9375 73 
Q 24.125 74.21875 28.421875 74.21875 
Q 39.75 74.21875 46.484375 68.546875 
Q 53.21875 62.890625 53.21875 53.421875 
Q 53.21875 48.921875 51.53125 44.890625 
Q 49.859375 40.875 45.40625 35.40625 
Q 44.1875 33.984375 37.640625 27.21875 
Q 31.109375 20.453125 19.1875 8.296875 
z
" id="DejaVuSans-32"/>
       <path d="M 31.78125 66.40625 
Q 24.171875 66.40625 20.328125 58.90625 
Q 16.5 51.421875 16.5 36.375 
Q 16.5 21.390625 20.328125 13.890625 
Q 24.171875 6.390625 31.78125 6.390625 
Q 39.453125 6.390625 43.28125 13.890625 
Q 47.125 21.390625 47.125 36.375 
Q 47.125 51.421875 43.28125 58.90625 
Q 39.453125 66.40625 31.78125 66.40625 
z
M 31.78125 74.21875 
Q 44.046875 74.21875 50.515625 64.515625 
Q 56.984375 54.828125 56.984375 36.375 
Q 56.984375 17.96875 50.515625 8.265625 
Q 44.046875 -1.421875 31.78125 -1.421875 
Q 19.53125 -1.421875 13.0625 8.265625 
Q 6.59375 17.96875 6.59375 36.375 
Q 6.59375 54.828125 13.0625 64.515625 
Q 19.53125 74.21875 31.78125 74.21875 
z
" id="DejaVuSans-30"/>
       <path d="M 31.78125 34.625 
Q 24.75 34.625 20.71875 30.859375 
Q 16.703125 27.09375 16.703125 20.515625 
Q 16.703125 13.921875 20.71875 10.15625 
Q 24.75 6.390625 31.78125 6.390625 
Q 38.8125 6.390625 42.859375 10.171875 
Q 46.921875 13.96875 46.921875 20.515625 
Q 46.921875 27.09375 42.890625 30.859375 
Q 38.875 34.625 31.78125 34.625 
z
M 21.921875 38.8125 
Q 15.578125 40.375 12.03125 44.71875 
Q 8.5 49.078125 8.5 55.328125 
Q 8.5 64.0625 14.71875 69.140625 
Q 20.953125 74.21875 31.78125 74.21875 
Q 42.671875 74.21875 48.875 69.140625 
Q 55.078125 64.0625 55.078125 55.328125 
Q 55.078125 49.078125 51.53125 44.71875 
Q 48 40.375 41.703125 38.8125 
Q 48.828125 37.15625 52.796875 32.3125 
Q 56.78125 27.484375 56.78125 20.515625 
Q 56.78125 9.90625 50.3125 4.234375 
Q 43.84375 -1.421875 31.78125 -1.421875 
Q 19.734375 -1.421875 13.25 4.234375 
Q 6.78125 9.90625 6.78125 20.515625 
Q 6.78125 27.484375 10.78125 32.3125 
Q 14.796875 37.15625 21.921875 38.8125 
z
M 18.3125 54.390625 
Q 18.3125 48.734375 21.84375 45.5625 
Q 25.390625 42.390625 31.78125 42.390625 
Q 38.140625 42.390625 41.71875 45.5625 
Q 45.3125 48.734375 45.3125 54.390625 
Q 45.3125 60.0625 41.71875 63.234375 
Q 38.140625 66.40625 31.78125 66.40625 
Q 25.390625 66.40625 21.84375 63.234375 
Q 18.3125 60.0625 18.3125 54.390625 
z
" id="DejaVuSans-38"/>
      </defs>
      <g transform="translate(47.000075 339.569054)scale(0.0833 -0.0833)">
       <use xlink:href="#DejaVuSans-32"/>
       <use x="63.623047" xlink:href="#DejaVuSans-30"/>
       <use x="127.246094" xlink:href="#DejaVuSans-31"/>
       <use x="190.869141" xlink:href="#DejaVuSans-38"/>
      </g>
     </g>
    </g>
    <g id="xtick_2">
     <g id="line2d_2">
      <g>
       <use style="stroke:#000000;stroke-width:0.8;" x="414.72" xlink:href="#m27dd9c6308" y="307.584"/>
      </g>
     </g>
    </g>
    <g id="xtick_3">
     <g id="line2d_3">
      <defs>
       <path d="M 0 0 
L 0 2 
" id="m95b65d400d" style="stroke:#000000;stroke-width:0.6;"/>
      </defs>
      <g>
       <use style="stroke:#000000;stroke-width:0.6;" x="57.6" xlink:href="#m95b65d400d" y="307.584"/>
      </g>
     </g>
    </g>
    <g id="xtick_4">
     <g id="line2d_4">
      <g>
       <use style="stroke:#000000;stroke-width:0.6;" x="129.173111" xlink:href="#m95b65d400d" y="307.584"/>
      </g>
     </g>
     <g id="text_2">
      <!-- 16 -->
      <defs>
       <path d="M 33.015625 40.375 
Q 26.375 40.375 22.484375 35.828125 
Q 18.609375 31.296875 18.609375 23.390625 
Q 18.609375 15.53125 22.484375 10.953125 
Q 26.375 6.390625 33.015625 6.390625 
Q 39.65625 6.390625 43.53125 10.953125 
Q 47.40625 15.53125 47.40625 23.390625 
Q 47.40625 31.296875 43.53125 35.828125 
Q 39.65625 40.375 33.015625 40.375 
z
M 52.59375 71.296875 
L 52.59375 62.3125 
Q 48.875 64.0625 45.09375 64.984375 
Q 41.3125 65.921875 37.59375 65.921875 
Q 27.828125 65.921875 22.671875 59.328125 
Q 17.53125 52.734375 16.796875 39.40625 
Q 19.671875 43.65625 24.015625 45.921875 
Q 28.375 48.1875 33.59375 48.1875 
Q 44.578125 48.1875 50.953125 41.515625 
Q 57.328125 34.859375 57.328125 23.390625 
Q 57.328125 12.15625 50.6875 5.359375 
Q 44.046875 -1.421875 33.015625 -1.421875 
Q 20.359375 -1.421875 13.671875 8.265625 
Q 6.984375 17.96875 6.984375 36.375 
Q 6.984375 53.65625 15.1875 63.9375 
Q 23.390625 74.21875 37.203125 74.21875 
Q 40.921875 74.21875 44.703125 73.484375 
Q 48.484375 72.75 52.59375 71.296875 
z
" id="DejaVuSans-36"/>
      </defs>
      <g transform="translate(123.873148 319.313498)scale(0.0833 -0.0833)">
       <use xlink:href="#DejaVuSans-31"/>
       <use x="63.623047" xlink:href="#DejaVuSans-36"/>
      </g>
     </g>
    </g>
    <g id="xtick_5">
     <g id="line2d_5">
      <g>
       <use style="stroke:#000000;stroke-width:0.6;" x="200.746221" xlink:href="#m95b65d400d" y="307.584"/>
      </g>
     </g>
     <g id="text_3">
      <!-- 17 -->
      <defs>
       <path d="M 8.203125 72.90625 
L 55.078125 72.90625 
L 55.078125 68.703125 
L 28.609375 0 
L 18.3125 0 
L 43.21875 64.59375 
L 8.203125 64.59375 
z
" id="DejaVuSans-37"/>
      </defs>
      <g transform="translate(195.446259 319.313498)scale(0.0833 -0.0833)">
       <use xlink:href="#DejaVuSans-31"/>
       <use x="63.623047" xlink:href="#DejaVuSans-37"/>
      </g>
     </g>
    </g>
    <g id="xtick_6">
     <g id="line2d_6">
      <g>
       <use style="stroke:#000000;stroke-width:0.6;" x="272.319332" xlink:href="#m95b65d400d" y="307.584"/>
      </g>
     </g>
     <g id="text_4">
      <!-- 18 -->
      <g transform="translate(267.019369 319.313498)scale(0.0833 -0.0833)">
       <use xlink:href="#DejaVuSans-31"/>
       <use x="63.623047" xlink:href="#DejaVuSans-38"/>
      </g>
     </g>
    </g>
    <g id="xtick_7">
     <g id="line2d_7">
      <g>
       <use style="stroke:#000000;stroke-width:0.6;" x="343.892443" xlink:href="#m95b65d400d" y="307.584"/>
      </g>
     </g>
     <g id="text_5">
      <!-- 19 -->
      <defs>
       <path d="M 10.984375 1.515625 
L 10.984375 10.5 
Q 14.703125 8.734375 18.5 7.8125 
Q 22.3125 6.890625 25.984375 6.890625 
Q 35.75 6.890625 40.890625 13.453125 
Q 46.046875 20.015625 46.78125 33.40625 
Q 43.953125 29.203125 39.59375 26.953125 
Q 35.25 24.703125 29.984375 24.703125 
Q 19.046875 24.703125 12.671875 31.3125 
Q 6.296875 37.9375 6.296875 49.421875 
Q 6.296875 60.640625 12.9375 67.421875 
Q 19.578125 74.21875 30.609375 74.21875 
Q 43.265625 74.21875 49.921875 64.515625 
Q 56.59375 54.828125 56.59375 36.375 
Q 56.59375 19.140625 48.40625 8.859375 
Q 40.234375 -1.421875 26.421875 -1.421875 
Q 22.703125 -1.421875 18.890625 -0.6875 
Q 15.09375 0.046875 10.984375 1.515625 
z
M 30.609375 32.421875 
Q 37.25 32.421875 41.125 36.953125 
Q 45.015625 41.5 45.015625 49.421875 
Q 45.015625 57.28125 41.125 61.84375 
Q 37.25 66.40625 30.609375 66.40625 
Q 23.96875 66.40625 20.09375 61.84375 
Q 16.21875 57.28125 16.21875 49.421875 
Q 16.21875 41.5 20.09375 36.953125 
Q 23.96875 32.421875 30.609375 32.421875 
z
" id="DejaVuSans-39"/>
      </defs>
      <g transform="translate(338.59248 319.313498)scale(0.0833 -0.0833)">
       <use xlink:href="#DejaVuSans-31"/>
       <use x="63.623047" xlink:href="#DejaVuSans-39"/>
      </g>
     </g>
    </g>
    <g id="text_6">
     <!-- Time -->
     <defs>
      <path d="M -0.296875 72.90625 
L 61.375 72.90625 
L 61.375 64.59375 
L 35.5 64.59375 
L 35.5 0 
L 25.59375 0 
L 25.59375 64.59375 
L -0.296875 64.59375 
z
" id="DejaVuSans-54"/>
      <path d="M 9.421875 54.6875 
L 18.40625 54.6875 
L 18.40625 0 
L 9.421875 0 
z
M 9.421875 75.984375 
L 18.40625 75.984375 
L 18.40625 64.59375 
L 9.421875 64.59375 
z
" id="DejaVuSans-69"/>
      <path d="M 52 44.1875 
Q 55.375 50.25 60.0625 53.125 
Q 64.75 56 71.09375 56 
Q 79.640625 56 84.28125 50.015625 
Q 88.921875 44.046875 88.921875 33.015625 
L 88.921875 0 
L 79.890625 0 
L 79.890625 32.71875 
Q 79.890625 40.578125 77.09375 44.375 
Q 74.3125 48.1875 68.609375 48.1875 
Q 61.625 48.1875 57.5625 43.546875 
Q 53.515625 38.921875 53.515625 30.90625 
L 53.515625 0 
L 44.484375 0 
L 44.484375 32.71875 
Q 44.484375 40.625 41.703125 44.40625 
Q 38.921875 48.1875 33.109375 48.1875 
Q 26.21875 48.1875 22.15625 43.53125 
Q 18.109375 38.875 18.109375 30.90625 
L 18.109375 0 
L 9.078125 0 
L 9.078125 54.6875 
L 18.109375 54.6875 
L 18.109375 46.1875 
Q 21.1875 51.21875 25.484375 53.609375 
Q 29.78125 56 35.6875 56 
Q 41.65625 56 45.828125 52.96875 
Q 50 49.953125 52 44.1875 
z
" id="DejaVuSans-6d"/>
     </defs>
     <g transform="translate(225.841212 351.630932)scale(0.0833 -0.0833)">
      <use xlink:href="#DejaVuSans-54"/>
      <use x="61.037109" xlink:href="#DejaVuSans-69"/>
      <use x="88.820312" xlink:href="#DejaVuSans-6d"/>
      <use x="186.232422" xlink:href="#DejaVuSans-65"/>
     </g>
    </g>
   </g>
   <g id="matplotlib.axis_2">
    <g id="ytick_1">
     <g id="line2d_8">
      <defs>
       <path d="M 0 0 
L -3.5 0 
" id="m734e804461" style="stroke:#000000;stroke-width:0.8;"/>
      </defs>
      <g>
       <use style="stroke:#000000;stroke-width:0.8;" x="57.6" xlink:href="#m734e804461" y="290.463371"/>
      </g>
     </g>
     <g id="text_7">
      <!-- −600000 -->
      <defs>
       <path d="M 10.59375 35.5 
L 73.1875 35.5 
L 73.1875 27.203125 
L 10.59375 27.203125 
z
" id="DejaVuSans-2212"/>
      </defs>
      <g transform="translate(11.819945 293.62812)scale(0.0833 -0.0833)">
       <use xlink:href="#DejaVuSans-2212"/>
       <use x="83.789062" xlink:href="#DejaVuSans-36"/>
       <use x="147.412109" xlink:href="#DejaVuSans-30"/>
       <use x="211.035156" xlink:href="#DejaVuSans-30"/>
       <use x="274.658203" xlink:href="#DejaVuSans-30"/>
       <use x="338.28125" xlink:href="#DejaVuSans-30"/>
       <use x="401.904297" xlink:href="#DejaVuSans-30"/>
      </g>
     </g>
    </g>
    <g id="ytick_2">
     <g id="line2d_9">
      <g>
       <use style="stroke:#000000;stroke-width:0.8;" x="57.6" xlink:href="#m734e804461" y="254.662049"/>
      </g>
     </g>
     <g id="text_8">
      <!-- −400000 -->
      <defs>
       <path d="M 37.796875 64.3125 
L 12.890625 25.390625 
L 37.796875 25.390625 
z
M 35.203125 72.90625 
L 47.609375 72.90625 
L 47.609375 25.390625 
L 58.015625 25.390625 
L 58.015625 17.1875 
L 47.609375 17.1875 
L 47.609375 0 
L 37.796875 0 
L 37.796875 17.1875 
L 4.890625 17.1875 
L 4.890625 26.703125 
z
" id="DejaVuSans-34"/>
      </defs>
      <g transform="translate(11.819945 257.826798)scale(0.0833 -0.0833)">
       <use xlink:href="#DejaVuSans-2212"/>
       <use x="83.789062" xlink:href="#DejaVuSans-34"/>
       <use x="147.412109" xlink:href="#DejaVuSans-30"/>
       <use x="211.035156" xlink:href="#DejaVuSans-30"/>
       <use x="274.658203" xlink:href="#DejaVuSans-30"/>
       <use x="338.28125" xlink:href="#DejaVuSans-30"/>
       <use x="401.904297" xlink:href="#DejaVuSans-30"/>
      </g>
     </g>
    </g>
    <g id="ytick_3">
     <g id="line2d_10">
      <g>
       <use style="stroke:#000000;stroke-width:0.8;" x="57.6" xlink:href="#m734e804461" y="218.860727"/>
      </g>
     </g>
     <g id="text_9">
      <!-- −200000 -->
      <g transform="translate(11.819945 222.025476)scale(0.0833 -0.0833)">
       <use xlink:href="#DejaVuSans-2212"/>
       <use x="83.789062" xlink:href="#DejaVuSans-32"/>
       <use x="147.412109" xlink:href="#DejaVuSans-30"/>
       <use x="211.035156" xlink:href="#DejaVuSans-30"/>
       <use x="274.658203" xlink:href="#DejaVuSans-30"/>
       <use x="338.28125" xlink:href="#DejaVuSans-30"/>
       <use x="401.904297" xlink:href="#DejaVuSans-30"/>
      </g>
     </g>
    </g>
    <g id="ytick_4">
     <g id="line2d_11">
      <g>
       <use style="stroke:#000000;stroke-width:0.8;" x="57.6" xlink:href="#m734e804461" y="183.059405"/>
      </g>
     </g>
     <g id="text_10">
      <!-- 0 -->
      <g transform="translate(45.300038 186.224155)scale(0.0833 -0.0833)">
       <use xlink:href="#DejaVuSans-30"/>
      </g>
     </g>
    </g>
    <g id="ytick_5">
     <g id="line2d_12">
      <g>
       <use style="stroke:#000000;stroke-width:0.8;" x="57.6" xlink:href="#m734e804461" y="147.258084"/>
      </g>
     </g>
     <g id="text_11">
      <!-- 200000 -->
      <g transform="translate(18.800225 150.422833)scale(0.0833 -0.0833)">
       <use xlink:href="#DejaVuSans-32"/>
       <use x="63.623047" xlink:href="#DejaVuSans-30"/>
       <use x="127.246094" xlink:href="#DejaVuSans-30"/>
       <use x="190.869141" xlink:href="#DejaVuSans-30"/>
       <use x="254.492188" xlink:href="#DejaVuSans-30"/>
       <use x="318.115234" xlink:href="#DejaVuSans-30"/>
      </g>
     </g>
    </g>
    <g id="ytick_6">
     <g id="line2d_13">
      <g>
       <use style="stroke:#000000;stroke-width:0.8;" x="57.6" xlink:href="#m734e804461" y="111.456762"/>
      </g>
     </g>
     <g id="text_12">
      <!-- 400000 -->
      <g transform="translate(18.800225 114.621511)scale(0.0833 -0.0833)">
       <use xlink:href="#DejaVuSans-34"/>
       <use x="63.623047" xlink:href="#DejaVuSans-30"/>
       <use x="127.246094" xlink:href="#DejaVuSans-30"/>
       <use x="190.869141" xlink:href="#DejaVuSans-30"/>
       <use x="254.492188" xlink:href="#DejaVuSans-30"/>
       <use x="318.115234" xlink:href="#DejaVuSans-30"/>
      </g>
     </g>
    </g>
    <g id="ytick_7">
     <g id="line2d_14">
      <g>
       <use style="stroke:#000000;stroke-width:0.8;" x="57.6" xlink:href="#m734e804461" y="75.65544"/>
      </g>
     </g>
     <g id="text_13">
      <!-- 600000 -->
      <g transform="translate(18.800225 78.820189)scale(0.0833 -0.0833)">
       <use xlink:href="#DejaVuSans-36"/>
       <use x="63.623047" xlink:href="#DejaVuSans-30"/>
       <use x="127.246094" xlink:href="#DejaVuSans-30"/>
       <use x="190.869141" xlink:href="#DejaVuSans-30"/>
       <use x="254.492188" xlink:href="#DejaVuSans-30"/>
       <use x="318.115234" xlink:href="#DejaVuSans-30"/>
      </g>
     </g>
    </g>
    <g id="text_14">
     <!-- P_bat_control[W] in W -->
     <defs>
      <path d="M 19.671875 64.796875 
L 19.671875 37.40625 
L 32.078125 37.40625 
Q 38.96875 37.40625 42.71875 40.96875 
Q 46.484375 44.53125 46.484375 51.125 
Q 46.484375 57.671875 42.71875 61.234375 
Q 38.96875 64.796875 32.078125 64.796875 
z
M 9.8125 72.90625 
L 32.078125 72.90625 
Q 44.34375 72.90625 50.609375 67.359375 
Q 56.890625 61.8125 56.890625 51.125 
Q 56.890625 40.328125 50.609375 34.8125 
Q 44.34375 29.296875 32.078125 29.296875 
L 19.671875 29.296875 
L 19.671875 0 
L 9.8125 0 
z
" id="DejaVuSans-50"/>
      <path d="M 50.984375 -16.609375 
L 50.984375 -23.578125 
L -0.984375 -23.578125 
L -0.984375 -16.609375 
z
" id="DejaVuSans-5f"/>
      <path d="M 34.28125 27.484375 
Q 23.390625 27.484375 19.1875 25 
Q 14.984375 22.515625 14.984375 16.5 
Q 14.984375 11.71875 18.140625 8.90625 
Q 21.296875 6.109375 26.703125 6.109375 
Q 34.1875 6.109375 38.703125 11.40625 
Q 43.21875 16.703125 43.21875 25.484375 
L 43.21875 27.484375 
z
M 52.203125 31.203125 
L 52.203125 0 
L 43.21875 0 
L 43.21875 8.296875 
Q 40.140625 3.328125 35.546875 0.953125 
Q 30.953125 -1.421875 24.3125 -1.421875 
Q 15.921875 -1.421875 10.953125 3.296875 
Q 6 8.015625 6 15.921875 
Q 6 25.140625 12.171875 29.828125 
Q 18.359375 34.515625 30.609375 34.515625 
L 43.21875 34.515625 
L 43.21875 35.40625 
Q 43.21875 41.609375 39.140625 45 
Q 35.0625 48.390625 27.6875 48.390625 
Q 23 48.390625 18.546875 47.265625 
Q 14.109375 46.140625 10.015625 43.890625 
L 10.015625 52.203125 
Q 14.9375 54.109375 19.578125 55.046875 
Q 24.21875 56 28.609375 56 
Q 40.484375 56 46.34375 49.84375 
Q 52.203125 43.703125 52.203125 31.203125 
z
" id="DejaVuSans-61"/>
      <path d="M 18.3125 70.21875 
L 18.3125 54.6875 
L 36.8125 54.6875 
L 36.8125 47.703125 
L 18.3125 47.703125 
L 18.3125 18.015625 
Q 18.3125 11.328125 20.140625 9.421875 
Q 21.96875 7.515625 27.59375 7.515625 
L 36.8125 7.515625 
L 36.8125 0 
L 27.59375 0 
Q 17.1875 0 13.234375 3.875 
Q 9.28125 7.765625 9.28125 18.015625 
L 9.28125 47.703125 
L 2.6875 47.703125 
L 2.6875 54.6875 
L 9.28125 54.6875 
L 9.28125 70.21875 
z
" id="DejaVuSans-74"/>
      <path d="M 48.78125 52.59375 
L 48.78125 44.1875 
Q 44.96875 46.296875 41.140625 47.34375 
Q 37.3125 48.390625 33.40625 48.390625 
Q 24.65625 48.390625 19.8125 42.84375 
Q 14.984375 37.3125 14.984375 27.296875 
Q 14.984375 17.28125 19.8125 11.734375 
Q 24.65625 6.203125 33.40625 6.203125 
Q 37.3125 6.203125 41.140625 7.25 
Q 44.96875 8.296875 48.78125 10.40625 
L 48.78125 2.09375 
Q 45.015625 0.34375 40.984375 -0.53125 
Q 36.96875 -1.421875 32.421875 -1.421875 
Q 20.0625 -1.421875 12.78125 6.34375 
Q 5.515625 14.109375 5.515625 27.296875 
Q 5.515625 40.671875 12.859375 48.328125 
Q 20.21875 56 33.015625 56 
Q 37.15625 56 41.109375 55.140625 
Q 45.0625 54.296875 48.78125 52.59375 
z
" id="DejaVuSans-63"/>
      <path d="M 30.609375 48.390625 
Q 23.390625 48.390625 19.1875 42.75 
Q 14.984375 37.109375 14.984375 27.296875 
Q 14.984375 17.484375 19.15625 11.84375 
Q 23.34375 6.203125 30.609375 6.203125 
Q 37.796875 6.203125 41.984375 11.859375 
Q 46.1875 17.53125 46.1875 27.296875 
Q 46.1875 37.015625 41.984375 42.703125 
Q 37.796875 48.390625 30.609375 48.390625 
z
M 30.609375 56 
Q 42.328125 56 49.015625 48.375 
Q 55.71875 40.765625 55.71875 27.296875 
Q 55.71875 13.875 49.015625 6.21875 
Q 42.328125 -1.421875 30.609375 -1.421875 
Q 18.84375 -1.421875 12.171875 6.21875 
Q 5.515625 13.875 5.515625 27.296875 
Q 5.515625 40.765625 12.171875 48.375 
Q 18.84375 56 30.609375 56 
z
" id="DejaVuSans-6f"/>
      <path d="M 54.890625 33.015625 
L 54.890625 0 
L 45.90625 0 
L 45.90625 32.71875 
Q 45.90625 40.484375 42.875 44.328125 
Q 39.84375 48.1875 33.796875 48.1875 
Q 26.515625 48.1875 22.3125 43.546875 
Q 18.109375 38.921875 18.109375 30.90625 
L 18.109375 0 
L 9.078125 0 
L 9.078125 54.6875 
L 18.109375 54.6875 
L 18.109375 46.1875 
Q 21.34375 51.125 25.703125 53.5625 
Q 30.078125 56 35.796875 56 
Q 45.21875 56 50.046875 50.171875 
Q 54.890625 44.34375 54.890625 33.015625 
z
" id="DejaVuSans-6e"/>
      <path d="M 41.109375 46.296875 
Q 39.59375 47.171875 37.8125 47.578125 
Q 36.03125 48 33.890625 48 
Q 26.265625 48 22.1875 43.046875 
Q 18.109375 38.09375 18.109375 28.8125 
L 18.109375 0 
L 9.078125 0 
L 9.078125 54.6875 
L 18.109375 54.6875 
L 18.109375 46.1875 
Q 20.953125 51.171875 25.484375 53.578125 
Q 30.03125 56 36.53125 56 
Q 37.453125 56 38.578125 55.875 
Q 39.703125 55.765625 41.0625 55.515625 
z
" id="DejaVuSans-72"/>
      <path d="M 9.421875 75.984375 
L 18.40625 75.984375 
L 18.40625 0 
L 9.421875 0 
z
" id="DejaVuSans-6c"/>
      <path d="M 8.59375 75.984375 
L 29.296875 75.984375 
L 29.296875 69 
L 17.578125 69 
L 17.578125 -6.203125 
L 29.296875 -6.203125 
L 29.296875 -13.1875 
L 8.59375 -13.1875 
z
" id="DejaVuSans-5b"/>
      <path d="M 3.328125 72.90625 
L 13.28125 72.90625 
L 28.609375 11.28125 
L 43.890625 72.90625 
L 54.984375 72.90625 
L 70.3125 11.28125 
L 85.59375 72.90625 
L 95.609375 72.90625 
L 77.296875 0 
L 64.890625 0 
L 49.515625 63.28125 
L 33.984375 0 
L 21.578125 0 
z
" id="DejaVuSans-57"/>
      <path d="M 30.421875 75.984375 
L 30.421875 -13.1875 
L 9.71875 -13.1875 
L 9.71875 -6.203125 
L 21.390625 -6.203125 
L 21.390625 69 
L 9.71875 69 
L 9.71875 75.984375 
z
" id="DejaVuSans-5d"/>
      <path id="DejaVuSans-20"/>
     </defs>
     <g transform="translate(5.855887 220.491378)rotate(-90)scale(0.0833 -0.0833)">
      <use xlink:href="#DejaVuSans-50"/>
      <use x="60.302734" xlink:href="#DejaVuSans-5f"/>
      <use x="110.302734" xlink:href="#DejaVuSans-62"/>
      <use x="173.779297" xlink:href="#DejaVuSans-61"/>
      <use x="235.058594" xlink:href="#DejaVuSans-74"/>
      <use x="274.267578" xlink:href="#DejaVuSans-5f"/>
      <use x="324.267578" xlink:href="#DejaVuSans-63"/>
      <use x="379.248047" xlink:href="#DejaVuSans-6f"/>
      <use x="440.429688" xlink:href="#DejaVuSans-6e"/>
      <use x="503.808594" xlink:href="#DejaVuSans-74"/>
      <use x="543.017578" xlink:href="#DejaVuSans-72"/>
      <use x="584.099609" xlink:href="#DejaVuSans-6f"/>
      <use x="645.28125" xlink:href="#DejaVuSans-6c"/>
      <use x="673.064453" xlink:href="#DejaVuSans-5b"/>
      <use x="712.078125" xlink:href="#DejaVuSans-57"/>
      <use x="810.955078" xlink:href="#DejaVuSans-5d"/>
      <use x="849.96875" xlink:href="#DejaVuSans-20"/>
      <use x="881.755859" xlink:href="#DejaVuSans-69"/>
      <use x="909.539062" xlink:href="#DejaVuSans-6e"/>
      <use x="972.917969" xlink:href="#DejaVuSans-20"/>
      <use x="1004.705078" xlink:href="#DejaVuSans-57"/>
     </g>
    </g>
   </g>
   <g id="line2d_15">
    <path clip-path="url(#pbdae117cc1)" d="M 57.6 182.278573 
L 58.345553 183.059405 
L 59.83666 183.059405 
L 60.582213 182.278573 
L 61.327766 183.059405 
L 62.818873 183.059405 
L 63.564426 182.278573 
L 64.309979 183.059405 
L 65.801086 183.059405 
L 66.546639 67.785002 
L 68.037745 55.40331 
L 68.783299 153.800121 
L 69.528852 183.059405 
L 71.019958 183.059405 
L 71.765511 155.477167 
L 72.511065 183.059405 
L 74.002171 183.059405 
L 74.747724 180.147894 
L 75.493278 183.059405 
L 77.729937 183.059405 
L 78.475491 187.600331 
L 79.221044 183.059405 
L 80.71215 183.059405 
L 81.457704 267.363166 
L 82.203257 268.887607 
L 82.94881 268.79789 
L 83.694363 268.530821 
L 84.439916 174.80081 
L 85.18547 183.059405 
L 86.676576 183.059405 
L 87.422129 182.24964 
L 88.167683 183.059405 
L 89.658789 183.059405 
L 90.404342 182.24964 
L 91.149896 183.059405 
L 92.641002 183.059405 
L 93.386555 182.24964 
L 94.132109 183.059405 
L 95.623215 183.059405 
L 96.368768 182.24964 
L 97.114322 183.059405 
L 98.605428 183.059405 
L 99.350981 182.24964 
L 100.096534 183.059405 
L 101.587641 183.059405 
L 102.333194 182.24964 
L 103.078747 183.059405 
L 104.569854 183.059405 
L 105.315407 182.24964 
L 106.06096 183.059405 
L 107.552067 183.059405 
L 108.29762 182.24964 
L 109.043173 183.059405 
L 110.53428 183.059405 
L 111.279833 182.24964 
L 112.025386 183.059405 
L 113.516493 183.059405 
L 114.262046 182.24964 
L 115.007599 183.059405 
L 116.498706 183.059405 
L 117.244259 182.24964 
L 117.989812 183.059405 
L 119.480919 183.059405 
L 120.226472 182.24964 
L 120.972025 183.059405 
L 122.463132 183.059405 
L 123.208685 182.24964 
L 123.954238 183.059405 
L 125.445344 183.059405 
L 126.190898 182.24964 
L 126.936451 183.059405 
L 128.427557 183.059405 
L 129.173111 182.24964 
L 129.918664 183.059405 
L 131.40977 183.059405 
L 132.155324 182.24964 
L 132.900877 183.059405 
L 134.391983 183.059405 
L 135.137537 182.24964 
L 135.88309 183.059405 
L 137.374196 183.059405 
L 138.119749 182.24964 
L 138.865303 183.059405 
L 140.356409 183.059405 
L 141.101962 182.24964 
L 141.847516 183.059405 
L 143.338622 183.059405 
L 144.084175 182.24964 
L 144.829729 94.724884 
L 145.575282 183.059405 
L 158.249687 183.059405 
L 158.99524 143.02451 
L 159.740793 139.151245 
L 160.486347 141.378508 
L 161.2319 136.370176 
L 161.977453 183.059405 
L 162.723006 146.123247 
L 163.468559 149.118003 
L 164.214113 146.310757 
L 164.959666 183.059405 
L 165.705219 183.059405 
L 166.450772 177.932609 
L 167.196326 142.282199 
L 167.941879 183.059405 
L 169.432985 183.059405 
L 170.178539 177.681836 
L 170.924092 183.059405 
L 172.415198 183.059405 
L 173.160752 181.24535 
L 173.906305 183.059405 
L 182.10739 183.059405 
L 182.852944 283.11106 
L 183.598497 224.189088 
L 184.34405 285.829921 
L 185.089603 285.836798 
L 185.835157 172.740286 
L 186.58071 183.059405 
L 188.071816 183.059405 
L 188.81737 182.449099 
L 189.562923 183.059405 
L 191.054029 183.059405 
L 191.799582 182.449099 
L 192.545136 183.059405 
L 194.036242 183.059405 
L 194.781795 182.449099 
L 195.527349 183.059405 
L 197.018455 183.059405 
L 197.764008 182.449099 
L 198.509562 183.059405 
L 200.000668 183.059405 
L 200.746221 182.449099 
L 201.491775 183.059405 
L 202.982881 183.059405 
L 203.728434 182.449099 
L 204.473987 183.059405 
L 205.965094 183.059405 
L 206.710647 182.449099 
L 207.4562 183.059405 
L 208.947307 183.059405 
L 209.69286 182.449099 
L 210.438413 183.059405 
L 211.92952 183.059405 
L 212.675073 182.449099 
L 213.420626 183.059405 
L 214.911733 183.059405 
L 215.657286 182.449099 
L 216.402839 183.059405 
L 217.893946 183.059405 
L 218.639499 182.449099 
L 219.385052 183.059405 
L 220.876159 183.059405 
L 221.621712 182.449099 
L 222.367265 183.059405 
L 223.858372 183.059405 
L 224.603925 182.449099 
L 225.349478 183.059405 
L 226.840585 183.059405 
L 227.586138 182.449099 
L 228.331691 183.059405 
L 229.822797 183.059405 
L 230.568351 182.449099 
L 231.313904 183.059405 
L 232.80501 183.059405 
L 233.550564 182.449099 
L 234.296117 183.059405 
L 235.787223 183.059405 
L 236.532777 182.449099 
L 237.27833 183.059405 
L 238.769436 183.059405 
L 239.51499 108.049952 
L 240.260543 120.68624 
L 241.006096 122.08665 
L 241.751649 108.227945 
L 242.497203 183.059405 
L 243.242756 104.695225 
L 243.988309 183.059405 
L 244.733862 127.117064 
L 245.479415 183.059405 
L 282.757077 183.059405 
L 283.50263 173.775311 
L 284.248184 183.059405 
L 285.73929 183.059405 
L 286.484843 181.068469 
L 287.230397 183.059405 
L 288.721503 183.059405 
L 289.467056 181.392951 
L 290.21261 183.059405 
L 292.449269 183.059405 
L 293.194823 272.066199 
L 293.940376 273.355027 
L 294.685929 262.640391 
L 295.431482 270.970278 
L 296.177035 175.039482 
L 296.922589 183.059405 
L 298.413695 183.059405 
L 299.159248 182.226485 
L 299.904802 183.059405 
L 301.395908 183.059405 
L 302.141461 182.226485 
L 302.887015 183.059405 
L 304.378121 183.059405 
L 305.123674 182.226485 
L 305.869228 183.059405 
L 307.360334 183.059405 
L 308.105887 182.226485 
L 308.851441 183.059405 
L 310.342547 183.059405 
L 311.0881 182.226485 
L 311.833653 183.059405 
L 313.32476 183.059405 
L 314.070313 182.226485 
L 314.815866 183.059405 
L 316.306973 183.059405 
L 317.052526 182.226485 
L 317.798079 183.059405 
L 319.289186 183.059405 
L 320.034739 182.226485 
L 320.780292 183.059405 
L 322.271399 183.059405 
L 323.016952 182.226485 
L 323.762505 183.059405 
L 325.253612 183.059405 
L 325.999165 182.226485 
L 326.744718 183.059405 
L 328.235825 183.059405 
L 328.981378 182.226485 
L 329.726931 183.059405 
L 331.218038 183.059405 
L 331.963591 182.226485 
L 332.709144 183.059405 
L 334.200251 183.059405 
L 334.945804 182.226485 
L 335.691357 183.059405 
L 337.182463 183.059405 
L 337.928017 182.226485 
L 338.67357 183.059405 
L 340.164676 183.059405 
L 340.91023 182.226485 
L 341.655783 183.059405 
L 343.146889 183.059405 
L 343.892443 182.226485 
L 344.637996 183.059405 
L 346.129102 183.059405 
L 346.874656 182.226485 
L 347.620209 183.059405 
L 349.111315 183.059405 
L 349.856868 53.568 
L 350.602422 60.662498 
L 351.347975 55.078179 
L 352.093528 164.938584 
L 352.839081 183.059405 
L 353.584635 148.346099 
L 354.330188 183.059405 
L 355.821294 183.059405 
L 356.566848 179.751068 
L 357.312401 183.059405 
L 380.424551 183.059405 
L 381.170104 181.336171 
L 381.915658 183.059405 
L 383.406764 183.059405 
L 384.152317 181.434308 
L 384.897871 183.059405 
L 387.13453 183.059405 
L 387.880084 181.506717 
L 388.625637 183.059405 
L 390.116743 183.059405 
L 390.862296 181.56015 
L 391.60785 183.059405 
L 396.826722 183.059405 
L 397.572276 295.305788 
L 398.317829 295.189272 
L 399.063382 193.154843 
L 399.808935 295.488 
L 400.554489 169.275167 
L 401.300042 183.059405 
L 402.791148 183.059405 
L 403.536701 182.772921 
L 404.282255 183.059405 
L 405.773361 183.059405 
L 406.518914 182.772921 
L 407.264468 183.059405 
L 408.755574 183.059405 
L 409.501127 182.772921 
L 410.246681 183.059405 
L 411.737787 183.059405 
L 412.48334 82.867153 
L 413.228894 183.059405 
L 414.72 183.059405 
L 414.72 183.059405 
" style="fill:none;stroke:#000000;stroke-linecap:square;stroke-width:1.5;"/>
   </g>
   <g id="line2d_16">
    <path clip-path="url(#pbdae117cc1)" d="M 57.6 170.675739 
L 58.345553 176.105733 
L 59.83666 178.529102 
L 60.582213 166.618462 
L 61.327766 174.128368 
L 62.073319 175.280017 
L 62.818873 178.077351 
L 63.564426 165.761069 
L 65.055532 176.120859 
L 65.801086 176.745107 
L 66.546639 171.278165 
L 67.292192 104.715004 
L 68.037745 109.13882 
L 68.783299 116.565708 
L 69.528852 153.422616 
L 70.274405 181.832703 
L 71.019958 179.401561 
L 71.765511 180.986895 
L 72.511065 175.583018 
L 73.256618 185.394345 
L 74.002171 181.693748 
L 74.747724 183.67894 
L 76.238831 183.759553 
L 76.984384 183.643724 
L 77.729937 185.148217 
L 78.475491 191.276567 
L 79.221044 189.393352 
L 79.966597 185.893442 
L 80.71215 188.907724 
L 81.457704 183.834617 
L 82.203257 260.126591 
L 82.94881 235.545635 
L 84.439916 201.849984 
L 85.18547 173.921618 
L 85.931023 185.046732 
L 86.676576 183.721977 
L 87.422129 186.826505 
L 88.167683 185.03456 
L 88.913236 185.400887 
L 89.658789 184.204307 
L 90.404342 184.789043 
L 91.895449 187.424685 
L 92.641002 187.100611 
L 93.386555 184.291319 
L 94.877662 183.761394 
L 95.623215 182.169229 
L 96.368768 184.620245 
L 97.114322 184.046719 
L 97.859875 184.465473 
L 98.605428 184.379987 
L 99.350981 183.856019 
L 100.096534 184.599388 
L 101.587641 182.947459 
L 102.333194 180.862061 
L 103.078747 183.728083 
L 103.824301 182.487886 
L 105.315407 182.603887 
L 106.06096 183.578531 
L 106.806514 184.294665 
L 107.552067 184.488551 
L 108.29762 182.116317 
L 109.043173 183.288517 
L 109.788727 183.926326 
L 110.53428 184.900424 
L 111.279833 182.771526 
L 112.025386 185.09844 
L 112.770939 183.698071 
L 113.516493 183.374548 
L 114.262046 184.786417 
L 115.007599 184.829102 
L 116.498706 183.294773 
L 117.244259 183.283766 
L 117.989812 183.761161 
L 119.480919 182.870885 
L 120.226472 181.019546 
L 120.972025 183.424173 
L 121.717578 183.819048 
L 122.463132 183.387432 
L 123.208685 180.468639 
L 123.954238 183.445617 
L 124.699791 185.220361 
L 125.445344 183.510967 
L 126.190898 179.824383 
L 126.936451 178.941506 
L 127.682004 178.717378 
L 128.427557 184.939927 
L 129.173111 174.294312 
L 129.918664 173.48403 
L 130.664217 180.447919 
L 131.40977 181.032623 
L 132.155324 174.072723 
L 132.900877 174.384301 
L 133.64643 176.192831 
L 134.391983 177.694691 
L 135.137537 172.55676 
L 135.88309 170.669412 
L 136.628643 168.249253 
L 137.374196 174.825461 
L 138.119749 167.804796 
L 138.865303 169.90131 
L 139.610856 178.530533 
L 140.356409 173.666172 
L 141.847516 169.431996 
L 142.593069 173.596122 
L 143.338622 173.178965 
L 144.084175 180.236447 
L 144.829729 175.887208 
L 145.575282 127.209733 
L 146.320835 143.272847 
L 147.066388 178.400213 
L 147.811942 184.404335 
L 148.557495 181.070603 
L 149.303048 182.519315 
L 150.048601 183.655684 
L 150.794154 182.280916 
L 151.539708 182.157547 
L 152.285261 182.245927 
L 153.030814 181.607044 
L 153.776367 181.922818 
L 154.521921 181.906807 
L 155.267474 182.1266 
L 156.013027 182.1026 
L 156.75858 181.85698 
L 157.504134 181.340655 
L 158.249687 181.679439 
L 158.99524 181.628098 
L 159.740793 159.49948 
L 160.486347 158.256381 
L 161.2319 161.653577 
L 161.977453 161.821298 
L 162.723006 185.407064 
L 163.468559 162.282481 
L 164.214113 168.560229 
L 164.959666 173.131532 
L 165.705219 184.196655 
L 167.196326 177.374939 
L 167.941879 168.56922 
L 168.687432 183.596118 
L 169.432985 183.289671 
L 170.178539 182.351318 
L 170.924092 179.361625 
L 171.669645 174.977463 
L 172.415198 181.509016 
L 173.160752 181.240863 
L 173.906305 180.398338 
L 174.651858 172.785102 
L 175.397411 179.355656 
L 176.142965 179.694212 
L 176.888518 184.792818 
L 177.634071 181.067663 
L 178.379624 183.224066 
L 179.125177 183.935195 
L 179.870731 191.046898 
L 180.616284 181.863502 
L 181.361837 186.202983 
L 182.10739 186.288244 
L 182.852944 185.556734 
L 183.598497 258.403839 
L 184.34405 231.619393 
L 185.089603 234.482097 
L 185.835157 209.970707 
L 186.58071 194.506485 
L 187.326263 183.779663 
L 188.071816 183.031307 
L 188.81737 185.10475 
L 189.562923 184.95158 
L 190.308476 184.535218 
L 191.054029 182.998116 
L 191.799582 184.602032 
L 192.545136 184.712635 
L 193.290689 185.776453 
L 194.036242 185.315023 
L 194.781795 181.197665 
L 196.272902 184.444229 
L 197.018455 185.544141 
L 197.764008 181.50408 
L 198.509562 182.528264 
L 199.255115 181.56833 
L 200.000668 185.112955 
L 200.746221 180.262984 
L 201.491775 176.881358 
L 202.237328 181.115859 
L 202.982881 180.157578 
L 203.728434 178.653619 
L 204.473987 176.851516 
L 205.219541 179.032909 
L 205.965094 179.126132 
L 206.710647 182.780726 
L 207.4562 177.094823 
L 208.201754 179.049542 
L 208.947307 179.40976 
L 209.69286 170.321952 
L 210.438413 175.82053 
L 211.183967 172.840462 
L 211.92952 174.839955 
L 212.675073 168.029682 
L 213.420626 169.368121 
L 214.16618 170.199998 
L 214.911733 178.918754 
L 215.657286 174.730126 
L 216.402839 173.1456 
L 217.148392 173.961468 
L 217.893946 180.569092 
L 218.639499 180.33082 
L 219.385052 182.572291 
L 221.621712 182.594761 
L 222.367265 182.431503 
L 223.112818 182.992823 
L 223.858372 182.611992 
L 224.603925 183.048069 
L 225.349478 183.08024 
L 226.095031 183.490999 
L 226.840585 181.676414 
L 227.586138 181.32734 
L 228.331691 181.611863 
L 229.077244 180.921001 
L 229.822797 180.781419 
L 230.568351 181.219552 
L 231.313904 180.781226 
L 232.059457 180.192895 
L 232.80501 180.485923 
L 233.550564 180.927734 
L 234.296117 180.024801 
L 235.04167 180.430628 
L 235.787223 177.808427 
L 236.532777 180.914032 
L 237.27833 176.628509 
L 238.023883 179.732589 
L 238.769436 179.20433 
L 239.51499 178.412949 
L 240.260543 125.721419 
L 241.006096 141.467999 
L 241.751649 144.66761 
L 242.497203 150.346225 
L 243.242756 190.110674 
L 243.988309 156.945682 
L 244.733862 176.037994 
L 245.479415 166.143763 
L 246.224969 179.967279 
L 246.970522 180.05765 
L 247.716075 182.258763 
L 248.461628 180.990071 
L 249.207182 175.281067 
L 249.952735 181.076542 
L 250.698288 182.467065 
L 251.443841 187.106894 
L 252.189395 183.316674 
L 252.934948 186.850687 
L 253.680501 185.032971 
L 254.426054 188.426007 
L 255.171608 183.528334 
L 255.917161 185.004588 
L 256.662714 185.056115 
L 257.408267 185.276042 
L 258.15382 182.944011 
L 258.899374 185.316606 
L 259.644927 186.310648 
L 260.39048 183.839549 
L 261.136033 183.128648 
L 262.62714 185.714347 
L 264.118246 181.536926 
L 264.8638 183.862666 
L 265.609353 184.062508 
L 266.354906 181.820081 
L 267.100459 188.207221 
L 267.846013 182.922424 
L 268.591566 183.071719 
L 269.337119 182.662679 
L 270.082672 187.326092 
L 270.828225 181.264193 
L 271.573779 183.169211 
L 272.319332 183.249831 
L 273.064885 187.741646 
L 273.810438 183.726618 
L 274.555992 183.303345 
L 275.301545 182.440103 
L 276.047098 187.576917 
L 276.792651 182.915428 
L 278.283758 182.811066 
L 279.029311 187.706968 
L 279.774864 182.182141 
L 280.520418 181.703363 
L 281.265971 181.643592 
L 282.011524 186.799445 
L 282.757077 182.294122 
L 283.50263 182.212724 
L 284.248184 180.354057 
L 284.993737 187.1625 
L 285.73929 181.782918 
L 286.484843 183.936034 
L 287.230397 180.930521 
L 287.97595 186.042396 
L 288.721503 182.496845 
L 290.21261 184.601438 
L 290.958163 183.605204 
L 291.703716 185.769056 
L 292.449269 185.590052 
L 293.194823 187.069637 
L 293.940376 258.708497 
L 294.685929 247.978547 
L 295.431482 231.298687 
L 296.177035 206.257863 
L 296.922589 188.47639 
L 297.668142 184.435508 
L 298.413695 183.631955 
L 299.159248 183.764367 
L 299.904802 184.069037 
L 300.650355 184.499959 
L 301.395908 184.621261 
L 302.141461 184.37768 
L 302.887015 184.814685 
L 303.632568 184.747529 
L 305.123674 184.27674 
L 305.869228 183.181422 
L 306.614781 184.59026 
L 307.360334 184.94305 
L 308.105887 185.517776 
L 308.851441 183.069843 
L 309.596994 184.792421 
L 310.342547 183.697448 
L 311.0881 185.908501 
L 311.833653 183.21514 
L 312.579207 184.497666 
L 313.32476 183.667497 
L 314.070313 184.990686 
L 315.56142 184.641058 
L 317.052526 183.371052 
L 318.543633 183.710263 
L 319.289186 183.619149 
L 320.034739 182.082344 
L 320.780292 184.007889 
L 321.525846 184.808906 
L 322.271399 184.134093 
L 323.016952 184.64889 
L 323.762505 184.99054 
L 324.508058 183.510724 
L 325.999165 185.179358 
L 327.490271 184.246696 
L 328.235825 184.536169 
L 328.981378 183.19348 
L 329.726931 184.243257 
L 330.472484 184.950668 
L 331.218038 185.166968 
L 331.963591 183.214929 
L 332.709144 185.438759 
L 333.454697 184.548667 
L 334.200251 184.856984 
L 335.691357 182.111762 
L 336.43691 180.876249 
L 337.182463 182.502309 
L 337.928017 174.708211 
L 338.67357 175.056818 
L 339.419123 180.070956 
L 340.164676 179.291259 
L 340.91023 173.585377 
L 341.655783 174.883527 
L 342.401336 174.805102 
L 343.146889 182.426257 
L 343.892443 178.517787 
L 344.637996 177.610556 
L 345.383549 179.011674 
L 346.129102 183.162164 
L 346.874656 173.442816 
L 347.620209 176.797443 
L 348.365762 181.444434 
L 349.111315 182.050783 
L 349.856868 173.054753 
L 350.602422 92.525616 
L 351.347975 109.332753 
L 352.093528 115.386607 
L 352.839081 156.744358 
L 353.584635 180.434609 
L 354.330188 172.773921 
L 355.075741 181.629653 
L 355.821294 180.508451 
L 356.566848 183.322024 
L 357.312401 181.84732 
L 358.057954 179.62205 
L 358.803507 181.55025 
L 359.549061 184.011303 
L 360.294614 183.151537 
L 361.040167 183.366903 
L 361.78572 184.827509 
L 362.531273 182.368135 
L 363.276827 183.481553 
L 364.02238 185.094158 
L 364.767933 191.874338 
L 365.513486 182.568358 
L 366.25904 186.754477 
L 367.004593 188.307492 
L 367.750146 185.295695 
L 368.495699 185.190203 
L 369.241253 185.356901 
L 369.986806 186.897711 
L 370.732359 184.639136 
L 371.477912 188.64062 
L 372.223466 186.168454 
L 372.969019 186.556052 
L 373.714572 189.477333 
L 374.460125 189.751516 
L 375.205678 187.887595 
L 375.951232 187.748407 
L 376.696785 188.520917 
L 377.442338 190.278376 
L 378.187891 191.545077 
L 378.933445 191.143852 
L 379.678998 187.925388 
L 380.424551 187.168816 
L 381.170104 188.939247 
L 381.915658 186.075827 
L 382.661211 192.37477 
L 383.406764 186.03646 
L 384.152317 188.937508 
L 384.897871 185.464345 
L 385.643424 184.50785 
L 386.388977 179.502833 
L 387.13453 183.857489 
L 387.880084 183.717784 
L 388.625637 179.633796 
L 389.37119 177.131593 
L 390.116743 178.252549 
L 390.862296 177.74957 
L 391.60785 179.142197 
L 392.353403 181.746657 
L 393.098956 180.203521 
L 393.844509 179.589338 
L 394.590063 194.622597 
L 395.335616 190.87555 
L 396.081169 185.701823 
L 396.826722 185.933219 
L 397.572276 193.341002 
L 398.317829 266.83232 
L 399.063382 230.525684 
L 399.808935 218.776558 
L 400.554489 202.577264 
L 401.300042 182.323896 
L 402.791148 183.843809 
L 403.536701 182.467934 
L 404.282255 183.52099 
L 405.027808 182.73851 
L 405.773361 182.890907 
L 406.518914 182.316816 
L 407.264468 182.486982 
L 408.010021 183.145787 
L 408.755574 181.036332 
L 409.501127 180.867971 
L 410.246681 182.303384 
L 410.992234 182.922299 
L 411.737787 182.709356 
L 412.48334 178.560577 
L 413.228894 112.844734 
L 413.974447 140.870596 
L 414.72 180.06013 
L 414.72 180.06013 
" style="fill:none;stroke:#ff0000;stroke-linecap:square;"/>
   </g>
   <g id="line2d_17">
    <path clip-path="url(#pbdae117cc1)" d="M 57.6 180.650335 
L 58.345553 183.056682 
L 59.091106 180.650335 
L 62.073319 180.650335 
L 62.818873 183.056682 
L 63.564426 180.650335 
L 66.546639 180.650335 
L 67.292192 105.0879 
L 68.037745 98.55576 
L 68.783299 167.991769 
L 69.528852 169.280435 
L 70.274405 175.831969 
L 71.019958 175.831969 
L 71.765511 180.650335 
L 72.511065 170.876648 
L 73.256618 180.650335 
L 74.002171 180.650335 
L 74.747724 183.056682 
L 81.457704 183.056682 
L 82.203257 252.801242 
L 83.694363 252.801242 
L 84.439916 180.680404 
L 85.18547 183.056682 
L 128.427557 183.056682 
L 129.173111 180.650335 
L 129.918664 180.650335 
L 130.664217 183.056682 
L 131.40977 178.74722 
L 132.155324 178.74722 
L 132.900877 180.650335 
L 133.64643 178.74722 
L 134.391983 178.74722 
L 135.137537 183.056682 
L 135.88309 180.650335 
L 138.865303 180.650335 
L 139.610856 183.056682 
L 140.356409 180.650335 
L 141.101962 169.178518 
L 143.338622 169.178518 
L 144.084175 180.650335 
L 144.829729 180.650335 
L 145.575282 119.824705 
L 146.320835 183.056682 
L 158.99524 183.056682 
L 159.740793 137.532477 
L 160.486347 134.805603 
L 161.2319 134.805603 
L 161.977453 122.626488 
L 162.723006 183.056682 
L 163.468559 146.37981 
L 164.214113 149.062335 
L 164.959666 172.675909 
L 165.705219 183.056682 
L 167.196326 183.056682 
L 167.941879 172.777609 
L 168.687432 183.056682 
L 182.852944 183.056682 
L 183.598497 252.801242 
L 184.34405 223.903472 
L 185.089603 252.801242 
L 185.835157 180.680404 
L 186.58071 183.056682 
L 200.000668 183.056682 
L 200.746221 180.650335 
L 201.491775 180.650335 
L 202.237328 183.056682 
L 202.982881 178.74722 
L 203.728434 180.650335 
L 205.965094 180.650335 
L 206.710647 183.056682 
L 207.4562 180.650335 
L 209.69286 180.650335 
L 210.438413 183.056682 
L 211.183967 180.650335 
L 211.92952 180.650335 
L 212.675073 169.178518 
L 214.16618 169.178518 
L 214.911733 183.056682 
L 215.657286 169.178518 
L 216.402839 180.650335 
L 217.148392 180.650335 
L 217.893946 183.056682 
L 239.51499 183.056682 
L 240.260543 119.824705 
L 241.006096 127.874744 
L 241.751649 127.874744 
L 242.497203 100.871759 
L 243.242756 183.056682 
L 243.988309 143.636289 
L 244.733862 183.056682 
L 245.479415 172.777609 
L 246.224969 183.056682 
L 264.8638 183.056682 
L 265.609353 180.650335 
L 268.591566 180.650335 
L 269.337119 183.056682 
L 270.082672 180.650335 
L 273.064885 180.650335 
L 273.810438 183.056682 
L 274.555992 180.650335 
L 277.538205 180.650335 
L 278.283758 183.056682 
L 279.029311 180.650335 
L 282.011524 180.650335 
L 282.757077 183.056682 
L 283.50263 180.650335 
L 284.248184 177.735084 
L 284.993737 175.831969 
L 285.73929 169.178518 
L 286.484843 183.056682 
L 287.230397 169.178518 
L 287.97595 180.650335 
L 289.467056 183.056682 
L 293.194823 183.056682 
L 293.940376 252.801242 
L 295.431482 252.801242 
L 296.177035 180.680404 
L 296.922589 183.056682 
L 336.43691 183.056682 
L 337.182463 180.650335 
L 338.67357 180.650335 
L 339.419123 183.056682 
L 340.164676 180.650335 
L 343.146889 180.650335 
L 343.892443 183.056682 
L 344.637996 180.650335 
L 347.620209 180.650335 
L 348.365762 183.056682 
L 349.111315 180.650335 
L 349.856868 180.650335 
L 350.602422 105.0879 
L 351.347975 93.342505 
L 352.093528 175.731 
L 352.839081 169.280435 
L 353.584635 180.650335 
L 354.330188 172.675909 
L 355.075741 180.650335 
L 355.821294 175.831969 
L 356.566848 175.831969 
L 357.312401 183.056682 
L 358.057954 169.178518 
L 358.803507 169.178518 
L 359.549061 180.650335 
L 360.294614 183.056682 
L 397.572276 183.056682 
L 398.317829 252.801242 
L 399.063382 252.801242 
L 399.808935 185.935672 
L 400.554489 180.680404 
L 401.300042 183.056682 
L 412.48334 183.056682 
L 413.228894 119.824705 
L 413.974447 183.056682 
L 414.72 183.056682 
L 414.72 183.056682 
" style="fill:none;stroke:#008000;stroke-linecap:square;"/>
   </g>
   <g id="line2d_18">
    <path clip-path="url(#pbdae117cc1)" d="M 57.6 174.117704 
L 58.345553 176.030964 
L 59.091106 174.589993 
L 59.83666 174.71784 
L 60.582213 174.01603 
L 61.327766 174.298567 
L 62.073319 174.392523 
L 62.818873 175.546627 
L 63.564426 174.103244 
L 65.055532 174.484714 
L 65.801086 174.548841 
L 66.546639 174.19151 
L 67.292192 78.313853 
L 68.037745 76.251781 
L 68.783299 143.242118 
L 69.528852 150.552792 
L 70.274405 182.581111 
L 71.019958 174.126238 
L 71.765511 176.57365 
L 72.511065 176.704674 
L 73.256618 181.95495 
L 74.002171 176.543342 
L 74.747724 179.692623 
L 75.493278 185.278613 
L 76.238831 186.836824 
L 76.984384 185.159277 
L 77.729937 187.055114 
L 78.475491 190.692436 
L 79.221044 195.896521 
L 79.966597 189.191685 
L 80.71215 191.735169 
L 81.457704 192.357088 
L 82.203257 250.187245 
L 82.94881 249.832131 
L 84.439916 183.017513 
L 85.18547 192.315658 
L 85.931023 190.420019 
L 86.676576 192.002551 
L 87.422129 186.754441 
L 88.167683 191.69249 
L 88.913236 191.166349 
L 90.404342 192.244478 
L 91.895449 189.115041 
L 92.641002 189.567532 
L 93.386555 192.213412 
L 94.132109 192.793884 
L 94.877662 192.184711 
L 95.623215 190.991949 
L 96.368768 189.153088 
L 97.114322 192.074791 
L 97.859875 189.749263 
L 98.605428 191.199247 
L 99.350981 187.159061 
L 100.096534 184.031952 
L 100.842088 183.467551 
L 101.587641 187.593763 
L 102.333194 185.995957 
L 103.078747 185.428284 
L 103.824301 182.026901 
L 104.569854 184.233303 
L 105.315407 184.011058 
L 106.06096 188.457691 
L 106.806514 181.461429 
L 107.552067 180.919266 
L 108.29762 188.143581 
L 109.043173 189.030185 
L 109.788727 184.740027 
L 110.53428 181.951022 
L 111.279833 188.048585 
L 112.025386 186.94753 
L 112.770939 187.01846 
L 113.516493 187.599936 
L 114.262046 183.991948 
L 115.007599 186.844231 
L 115.753152 185.111794 
L 116.498706 186.936342 
L 117.244259 178.663793 
L 117.989812 187.387629 
L 118.735365 185.361296 
L 119.480919 186.977076 
L 120.226472 176.710156 
L 120.972025 186.952735 
L 121.717578 179.143892 
L 122.463132 183.113867 
L 123.208685 176.44063 
L 123.954238 179.964145 
L 124.699791 180.967824 
L 125.445344 179.777021 
L 126.190898 175.944933 
L 126.936451 176.301618 
L 127.682004 176.291195 
L 128.427557 177.214046 
L 129.173111 175.128546 
L 129.918664 174.993762 
L 130.664217 176.072136 
L 131.40977 174.515541 
L 132.155324 175.165748 
L 132.900877 174.216296 
L 133.64643 174.778906 
L 134.391983 174.669759 
L 135.137537 174.343193 
L 135.88309 174.259937 
L 136.628643 174.064002 
L 137.374196 174.464227 
L 138.119749 174.034822 
L 138.865303 174.271806 
L 139.610856 175.817413 
L 140.356409 174.383257 
L 141.847516 174.176769 
L 142.593069 174.356754 
L 143.338622 174.336289 
L 144.084175 176.340916 
L 144.829729 175.733825 
L 145.575282 122.692961 
L 147.066388 178.741136 
L 147.811942 185.901218 
L 148.557495 180.08993 
L 149.303048 181.144743 
L 150.048601 188.096738 
L 150.794154 183.669284 
L 151.539708 181.159346 
L 152.285261 184.059656 
L 153.030814 187.561717 
L 153.776367 181.766945 
L 154.521921 186.249721 
L 155.267474 186.26782 
L 156.013027 177.224012 
L 157.504134 188.255786 
L 158.249687 186.786825 
L 158.99524 177.732894 
L 159.740793 154.352581 
L 160.486347 156.025972 
L 161.2319 159.524729 
L 161.977453 157.006132 
L 162.723006 191.927926 
L 163.468559 165.574644 
L 164.214113 169.672696 
L 164.959666 168.673652 
L 165.705219 190.883001 
L 166.450772 192.27177 
L 167.196326 191.65114 
L 167.941879 167.872055 
L 168.687432 187.79344 
L 169.432985 188.09834 
L 170.178539 188.693153 
L 170.924092 182.45254 
L 172.415198 186.161572 
L 173.160752 185.71244 
L 173.906305 183.330818 
L 174.651858 182.734817 
L 175.397411 184.219972 
L 176.142965 185.22673 
L 176.888518 189.46559 
L 177.634071 187.532409 
L 178.379624 186.14178 
L 179.125177 186.628945 
L 179.870731 189.429393 
L 181.361837 187.56739 
L 182.10739 187.405225 
L 182.852944 191.755405 
L 183.598497 245.881276 
L 184.34405 242.649431 
L 185.089603 225.775183 
L 185.835157 174.06288 
L 186.58071 181.777603 
L 187.326263 186.537227 
L 188.071816 186.654457 
L 188.81737 184.31496 
L 189.562923 188.05896 
L 190.308476 185.001089 
L 191.054029 186.803017 
L 191.799582 182.892883 
L 192.545136 187.094847 
L 193.290689 180.673339 
L 194.036242 183.293099 
L 194.781795 178.016256 
L 195.527349 182.216047 
L 196.272902 179.4479 
L 197.018455 182.468524 
L 197.764008 179.45008 
L 198.509562 179.842405 
L 199.255115 177.451422 
L 200.000668 177.851527 
L 200.746221 175.404493 
L 201.491775 175.331681 
L 202.237328 176.925703 
L 202.982881 175.213198 
L 203.728434 176.15747 
L 204.473987 175.292745 
L 205.219541 175.565025 
L 205.965094 175.46884 
L 206.710647 177.07296 
L 207.4562 174.846604 
L 208.201754 175.761825 
L 208.947307 175.439771 
L 209.69286 174.185659 
L 210.438413 176.61274 
L 211.183967 174.329639 
L 211.92952 174.463074 
L 212.675073 174.110127 
L 214.16618 174.211224 
L 214.911733 176.05563 
L 215.657286 174.406445 
L 216.402839 175.331308 
L 217.148392 174.587684 
L 217.893946 176.838105 
L 218.639499 179.497933 
L 219.385052 185.078952 
L 220.130605 182.778295 
L 220.876159 181.739994 
L 221.621712 184.952512 
L 222.367265 184.921545 
L 223.112818 181.421752 
L 224.603925 187.190125 
L 225.349478 188.093078 
L 226.095031 183.78649 
L 226.840585 181.971721 
L 227.586138 185.915315 
L 228.331691 179.711435 
L 229.077244 182.265093 
L 229.822797 183.995034 
L 230.568351 179.997225 
L 231.313904 182.883444 
L 232.059457 184.135852 
L 232.80501 180.769095 
L 233.550564 171.928226 
L 234.296117 183.674979 
L 235.04167 180.973383 
L 235.787223 183.161146 
L 236.532777 176.539311 
L 237.27833 186.452184 
L 238.023883 181.264475 
L 238.769436 183.303929 
L 239.51499 175.920022 
L 240.260543 139.563391 
L 241.006096 145.456564 
L 241.751649 148.78221 
L 242.497203 140.118359 
L 243.242756 189.680011 
L 243.988309 149.983641 
L 244.733862 185.058161 
L 245.479415 170.444418 
L 246.224969 185.866296 
L 246.970522 182.245326 
L 247.716075 179.948293 
L 248.461628 186.83993 
L 249.207182 182.76717 
L 249.952735 184.357205 
L 250.698288 181.552579 
L 251.443841 190.163701 
L 252.189395 184.517343 
L 252.934948 184.74746 
L 253.680501 183.502772 
L 254.426054 190.394597 
L 255.171608 185.809542 
L 255.917161 190.658795 
L 256.662714 189.344145 
L 257.408267 189.218612 
L 258.15382 187.030144 
L 258.899374 187.512898 
L 259.644927 188.634326 
L 260.39048 181.878904 
L 261.136033 184.564077 
L 261.881587 183.883749 
L 262.62714 186.370677 
L 263.372693 178.479907 
L 264.118246 181.889532 
L 264.8638 182.66935 
L 266.354906 176.345967 
L 267.100459 179.8609 
L 267.846013 176.767398 
L 268.591566 176.874535 
L 269.337119 177.1355 
L 270.082672 179.95216 
L 270.828225 175.522516 
L 271.573779 176.954299 
L 272.319332 176.652462 
L 273.064885 179.100994 
L 273.810438 180.527317 
L 274.555992 177.125748 
L 275.301545 175.723371 
L 276.047098 179.12428 
L 276.792651 176.253995 
L 277.538205 176.175217 
L 278.283758 176.602169 
L 279.029311 179.049353 
L 279.774864 175.846967 
L 281.265971 175.420958 
L 282.011524 179.046323 
L 282.757077 177.629564 
L 283.50263 175.645044 
L 284.248184 175.55021 
L 284.993737 178.99744 
L 285.73929 175.054528 
L 286.484843 179.249807 
L 287.230397 175.110707 
L 287.97595 179.688563 
L 288.721503 177.274422 
L 289.467056 178.911155 
L 290.21261 183.917346 
L 290.958163 187.697126 
L 291.703716 190.184125 
L 292.449269 189.298489 
L 293.194823 191.433551 
L 293.940376 253.026281 
L 294.685929 264.915107 
L 295.431482 226.587326 
L 296.177035 194.226132 
L 296.922589 179.072931 
L 297.668142 186.049282 
L 298.413695 187.088952 
L 299.159248 189.182854 
L 299.904802 189.628219 
L 300.650355 189.813214 
L 301.395908 189.588966 
L 302.141461 191.100095 
L 302.887015 191.991927 
L 303.632568 191.251075 
L 304.378121 190.218351 
L 305.123674 190.128372 
L 305.869228 190.686863 
L 306.614781 190.540306 
L 308.105887 189.91032 
L 308.851441 191.350978 
L 309.596994 190.963497 
L 310.342547 191.100801 
L 311.0881 186.758525 
L 311.833653 191.171165 
L 312.579207 189.275232 
L 313.32476 190.695753 
L 314.070313 183.342756 
L 314.815866 188.59441 
L 315.56142 186.179232 
L 316.306973 187.536211 
L 317.052526 183.331568 
L 317.798079 182.571335 
L 318.543633 182.90831 
L 319.289186 182.574294 
L 320.034739 184.939062 
L 320.780292 182.747023 
L 321.525846 180.138115 
L 322.271399 181.009166 
L 323.016952 185.808452 
L 323.762505 187.017903 
L 324.508058 180.990325 
L 325.253612 186.068113 
L 325.999165 183.693112 
L 326.744718 187.408587 
L 327.490271 185.745363 
L 328.235825 185.095146 
L 328.981378 187.216442 
L 329.726931 187.157446 
L 330.472484 184.148355 
L 331.218038 184.652428 
L 331.963591 177.435164 
L 332.709144 182.127343 
L 333.454697 180.780335 
L 334.200251 181.795018 
L 334.945804 178.374297 
L 335.691357 180.085079 
L 336.43691 176.368031 
L 337.182463 175.597262 
L 338.67357 174.872954 
L 339.419123 176.784727 
L 340.164676 175.094739 
L 340.91023 174.915177 
L 341.655783 174.408794 
L 342.401336 174.83702 
L 343.146889 174.738495 
L 343.892443 176.413086 
L 344.637996 174.020327 
L 345.383549 174.668033 
L 346.129102 174.731158 
L 346.874656 174.525871 
L 347.620209 174.027076 
L 348.365762 176.637794 
L 349.111315 174.601011 
L 349.856868 174.369586 
L 350.602422 68.765465 
L 351.347975 89.595177 
L 352.093528 142.417907 
L 352.839081 151.050034 
L 353.584635 181.360025 
L 354.330188 177.013687 
L 355.075741 174.797281 
L 355.821294 174.739668 
L 356.566848 179.315424 
L 357.312401 176.452338 
L 358.057954 174.928398 
L 358.803507 174.595674 
L 359.549061 180.500212 
L 360.294614 177.136939 
L 361.040167 179.133615 
L 361.78572 186.407814 
L 362.531273 187.216021 
L 363.276827 185.830382 
L 364.02238 185.845495 
L 364.767933 189.933656 
L 366.25904 187.23896 
L 367.004593 191.1253 
L 367.750146 188.48714 
L 368.495699 190.946924 
L 369.241253 189.22641 
L 369.986806 188.119681 
L 370.732359 192.561699 
L 371.477912 192.380188 
L 372.223466 193.148141 
L 372.969019 193.234394 
L 373.714572 192.394611 
L 374.460125 193.91074 
L 375.951232 194.51386 
L 376.696785 194.04528 
L 377.442338 192.719502 
L 378.187891 192.385102 
L 378.933445 192.583015 
L 379.678998 193.002272 
L 380.424551 192.671303 
L 381.170104 192.736807 
L 381.915658 194.130827 
L 382.661211 190.929324 
L 383.406764 193.585773 
L 384.152317 193.126424 
L 384.897871 194.717536 
L 385.643424 192.183732 
L 386.388977 192.295319 
L 387.13453 193.772337 
L 387.880084 194.653771 
L 388.625637 187.35563 
L 389.37119 184.578232 
L 390.116743 189.099639 
L 390.862296 189.338226 
L 391.60785 188.267514 
L 392.353403 184.475247 
L 393.098956 187.240821 
L 393.844509 187.306986 
L 394.590063 191.206648 
L 395.335616 188.891608 
L 396.081169 190.310729 
L 396.826722 190.473501 
L 397.572276 191.038429 
L 398.317829 247.174675 
L 399.063382 206.031736 
L 399.808935 241.861617 
L 400.554489 167.901827 
L 401.300042 187.614306 
L 402.045595 187.427355 
L 402.791148 187.916778 
L 403.536701 174.918556 
L 404.282255 189.12247 
L 405.027808 187.238634 
L 405.773361 187.701574 
L 406.518914 174.817024 
L 407.264468 185.183223 
L 408.010021 182.46154 
L 408.755574 184.284259 
L 409.501127 177.075187 
L 410.246681 182.435134 
L 410.992234 180.011093 
L 411.737787 180.332464 
L 412.48334 174.761638 
L 413.228894 98.158938 
L 414.72 177.497481 
L 414.72 177.497481 
" style="fill:none;stroke:#0000ff;stroke-dasharray:3.7,1.6;stroke-dashoffset:0;"/>
   </g>
   <g id="patch_3">
    <path d="M 57.6 307.584 
L 57.6 41.472 
" style="fill:none;stroke:#000000;stroke-linecap:square;stroke-linejoin:miter;stroke-width:0.8;"/>
   </g>
   <g id="patch_4">
    <path d="M 414.72 307.584 
L 414.72 41.472 
" style="fill:none;stroke:#000000;stroke-linecap:square;stroke-linejoin:miter;stroke-width:0.8;"/>
   </g>
   <g id="patch_5">
    <path d="M 57.6 307.584 
L 414.72 307.584 
" style="fill:none;stroke:#000000;stroke-linecap:square;stroke-linejoin:miter;stroke-width:0.8;"/>
   </g>
   <g id="patch_6">
    <path d="M 57.6 41.472 
L 414.72 41.472 
" style="fill:none;stroke:#000000;stroke-linecap:square;stroke-linejoin:miter;stroke-width:0.8;"/>
   </g>
   <g id="legend_1">
    <g id="patch_7">
     <path d="M 99.143 299.937113 
L 170.853888 299.937113 
Q 172.519888 299.937113 172.519888 298.271113 
L 172.519888 260.1926 
Q 172.519888 258.5266 170.853888 258.5266 
L 99.143 258.5266 
Q 97.477 258.5266 97.477 260.1926 
L 97.477 298.271113 
Q 97.477 299.937113 99.143 299.937113 
z
" style="fill:#ffffff;opacity:0.5;stroke:#cccccc;stroke-linejoin:miter;"/>
    </g>
    <g id="line2d_19">
     <path d="M 100.809 265.272598 
L 117.469 265.272598 
" style="fill:none;stroke:#000000;stroke-linecap:square;stroke-width:1.5;"/>
    </g>
    <g id="line2d_20"/>
    <g id="text_15">
     <!-- Messdaten -->
     <defs>
      <path d="M 9.8125 72.90625 
L 24.515625 72.90625 
L 43.109375 23.296875 
L 61.8125 72.90625 
L 76.515625 72.90625 
L 76.515625 0 
L 66.890625 0 
L 66.890625 64.015625 
L 48.09375 14.015625 
L 38.1875 14.015625 
L 19.390625 64.015625 
L 19.390625 0 
L 9.8125 0 
z
" id="DejaVuSans-4d"/>
      <path d="M 44.28125 53.078125 
L 44.28125 44.578125 
Q 40.484375 46.53125 36.375 47.5 
Q 32.28125 48.484375 27.875 48.484375 
Q 21.1875 48.484375 17.84375 46.4375 
Q 14.5 44.390625 14.5 40.28125 
Q 14.5 37.15625 16.890625 35.375 
Q 19.28125 33.59375 26.515625 31.984375 
L 29.59375 31.296875 
Q 39.15625 29.25 43.1875 25.515625 
Q 47.21875 21.78125 47.21875 15.09375 
Q 47.21875 7.46875 41.1875 3.015625 
Q 35.15625 -1.421875 24.609375 -1.421875 
Q 20.21875 -1.421875 15.453125 -0.5625 
Q 10.6875 0.296875 5.421875 2 
L 5.421875 11.28125 
Q 10.40625 8.6875 15.234375 7.390625 
Q 20.0625 6.109375 24.8125 6.109375 
Q 31.15625 6.109375 34.5625 8.28125 
Q 37.984375 10.453125 37.984375 14.40625 
Q 37.984375 18.0625 35.515625 20.015625 
Q 33.0625 21.96875 24.703125 23.78125 
L 21.578125 24.515625 
Q 13.234375 26.265625 9.515625 29.90625 
Q 5.8125 33.546875 5.8125 39.890625 
Q 5.8125 47.609375 11.28125 51.796875 
Q 16.75 56 26.8125 56 
Q 31.78125 56 36.171875 55.265625 
Q 40.578125 54.546875 44.28125 53.078125 
z
" id="DejaVuSans-73"/>
      <path d="M 45.40625 46.390625 
L 45.40625 75.984375 
L 54.390625 75.984375 
L 54.390625 0 
L 45.40625 0 
L 45.40625 8.203125 
Q 42.578125 3.328125 38.25 0.953125 
Q 33.9375 -1.421875 27.875 -1.421875 
Q 17.96875 -1.421875 11.734375 6.484375 
Q 5.515625 14.40625 5.515625 27.296875 
Q 5.515625 40.1875 11.734375 48.09375 
Q 17.96875 56 27.875 56 
Q 33.9375 56 38.25 53.625 
Q 42.578125 51.265625 45.40625 46.390625 
z
M 14.796875 27.296875 
Q 14.796875 17.390625 18.875 11.75 
Q 22.953125 6.109375 30.078125 6.109375 
Q 37.203125 6.109375 41.296875 11.75 
Q 45.40625 17.390625 45.40625 27.296875 
Q 45.40625 37.203125 41.296875 42.84375 
Q 37.203125 48.484375 30.078125 48.484375 
Q 22.953125 48.484375 18.875 42.84375 
Q 14.796875 37.203125 14.796875 27.296875 
z
" id="DejaVuSans-64"/>
     </defs>
     <g transform="translate(124.133 268.188098)scale(0.0833 -0.0833)">
      <use xlink:href="#DejaVuSans-4d"/>
      <use x="86.279297" xlink:href="#DejaVuSans-65"/>
      <use x="147.802734" xlink:href="#DejaVuSans-73"/>
      <use x="199.902344" xlink:href="#DejaVuSans-73"/>
      <use x="252.001953" xlink:href="#DejaVuSans-64"/>
      <use x="315.478516" xlink:href="#DejaVuSans-61"/>
      <use x="376.757812" xlink:href="#DejaVuSans-74"/>
      <use x="415.966797" xlink:href="#DejaVuSans-65"/>
      <use x="477.490234" xlink:href="#DejaVuSans-6e"/>
     </g>
    </g>
    <g id="line2d_21">
     <path d="M 100.809 274.167477 
L 117.469 274.167477 
" style="fill:none;stroke:#ff0000;stroke-linecap:square;"/>
    </g>
    <g id="line2d_22"/>
    <g id="text_16">
     <!-- ANN -->
     <defs>
      <path d="M 34.1875 63.1875 
L 20.796875 26.90625 
L 47.609375 26.90625 
z
M 28.609375 72.90625 
L 39.796875 72.90625 
L 67.578125 0 
L 57.328125 0 
L 50.6875 18.703125 
L 17.828125 18.703125 
L 11.1875 0 
L 0.78125 0 
z
" id="DejaVuSans-41"/>
      <path d="M 9.8125 72.90625 
L 23.09375 72.90625 
L 55.421875 11.921875 
L 55.421875 72.90625 
L 64.984375 72.90625 
L 64.984375 0 
L 51.703125 0 
L 19.390625 60.984375 
L 19.390625 0 
L 9.8125 0 
z
" id="DejaVuSans-4e"/>
     </defs>
     <g transform="translate(124.133 277.082977)scale(0.0833 -0.0833)">
      <use xlink:href="#DejaVuSans-41"/>
      <use x="68.408203" xlink:href="#DejaVuSans-4e"/>
      <use x="143.212891" xlink:href="#DejaVuSans-4e"/>
     </g>
    </g>
    <g id="line2d_23">
     <path d="M 100.809 283.062355 
L 117.469 283.062355 
" style="fill:none;stroke:#008000;stroke-linecap:square;"/>
    </g>
    <g id="line2d_24"/>
    <g id="text_17">
     <!-- RF -->
     <defs>
      <path d="M 44.390625 34.1875 
Q 47.5625 33.109375 50.5625 29.59375 
Q 53.5625 26.078125 56.59375 19.921875 
L 66.609375 0 
L 56 0 
L 46.6875 18.703125 
Q 43.0625 26.03125 39.671875 28.421875 
Q 36.28125 30.8125 30.421875 30.8125 
L 19.671875 30.8125 
L 19.671875 0 
L 9.8125 0 
L 9.8125 72.90625 
L 32.078125 72.90625 
Q 44.578125 72.90625 50.734375 67.671875 
Q 56.890625 62.453125 56.890625 51.90625 
Q 56.890625 45.015625 53.6875 40.46875 
Q 50.484375 35.9375 44.390625 34.1875 
z
M 19.671875 64.796875 
L 19.671875 38.921875 
L 32.078125 38.921875 
Q 39.203125 38.921875 42.84375 42.21875 
Q 46.484375 45.515625 46.484375 51.90625 
Q 46.484375 58.296875 42.84375 61.546875 
Q 39.203125 64.796875 32.078125 64.796875 
z
" id="DejaVuSans-52"/>
     </defs>
     <g transform="translate(124.133 285.977855)scale(0.0833 -0.0833)">
      <use xlink:href="#DejaVuSans-52"/>
      <use x="69.482422" xlink:href="#DejaVuSans-46"/>
     </g>
    </g>
    <g id="line2d_25">
     <path d="M 100.809 291.957233 
L 117.469 291.957233 
" style="fill:none;stroke:#0000ff;stroke-dasharray:3.7,1.6;stroke-dashoffset:0;"/>
    </g>
    <g id="line2d_26"/>
    <g id="text_18">
     <!-- SVR -->
     <defs>
      <path d="M 53.515625 70.515625 
L 53.515625 60.890625 
Q 47.90625 63.578125 42.921875 64.890625 
Q 37.9375 66.21875 33.296875 66.21875 
Q 25.25 66.21875 20.875 63.09375 
Q 16.5 59.96875 16.5 54.203125 
Q 16.5 49.359375 19.40625 46.890625 
Q 22.3125 44.4375 30.421875 42.921875 
L 36.375 41.703125 
Q 47.40625 39.59375 52.65625 34.296875 
Q 57.90625 29 57.90625 20.125 
Q 57.90625 9.515625 50.796875 4.046875 
Q 43.703125 -1.421875 29.984375 -1.421875 
Q 24.8125 -1.421875 18.96875 -0.25 
Q 13.140625 0.921875 6.890625 3.21875 
L 6.890625 13.375 
Q 12.890625 10.015625 18.65625 8.296875 
Q 24.421875 6.59375 29.984375 6.59375 
Q 38.421875 6.59375 43.015625 9.90625 
Q 47.609375 13.234375 47.609375 19.390625 
Q 47.609375 24.75 44.3125 27.78125 
Q 41.015625 30.8125 33.5 32.328125 
L 27.484375 33.5 
Q 16.453125 35.6875 11.515625 40.375 
Q 6.59375 45.0625 6.59375 53.421875 
Q 6.59375 63.09375 13.40625 68.65625 
Q 20.21875 74.21875 32.171875 74.21875 
Q 37.3125 74.21875 42.625 73.28125 
Q 47.953125 72.359375 53.515625 70.515625 
z
" id="DejaVuSans-53"/>
      <path d="M 28.609375 0 
L 0.78125 72.90625 
L 11.078125 72.90625 
L 34.1875 11.53125 
L 57.328125 72.90625 
L 67.578125 72.90625 
L 39.796875 0 
z
" id="DejaVuSans-56"/>
     </defs>
     <g transform="translate(124.133 294.872733)scale(0.0833 -0.0833)">
      <use xlink:href="#DejaVuSans-53"/>
      <use x="63.476562" xlink:href="#DejaVuSans-56"/>
      <use x="131.884766" xlink:href="#DejaVuSans-52"/>
     </g>
    </g>
   </g>
  </g>
 </g>
 <defs>
  <clipPath id="pbdae117cc1">
   <rect height="266.112" width="357.12" x="57.6" y="41.472"/>
  </clipPath>
 </defs>
</svg>
