<?xml version="1.0" encoding="utf-8" standalone="no"?>
<!DOCTYPE svg PUBLIC "-//W3C//DTD SVG 1.1//EN"
  "http://www.w3.org/Graphics/SVG/1.1/DTD/svg11.dtd">
<!-- Created with matplotlib (http://matplotlib.org/) -->
<svg height="345.6pt" version="1.1" viewBox="0 0 460.8 345.6" width="460.8pt" xmlns="http://www.w3.org/2000/svg" xmlns:xlink="http://www.w3.org/1999/xlink">
 <defs>
  <style type="text/css">
*{stroke-linecap:butt;stroke-linejoin:round;}
  </style>
 </defs>
 <g id="figure_1">
  <g id="patch_1">
   <path d="M 0 345.6 
L 460.8 345.6 
L 460.8 0 
L 0 0 
z
" style="fill:#f0f0f0;"/>
  </g>
  <g id="axes_1">
   <g id="patch_2">
    <path d="M 41.394 286.692 
L 452.6436 286.692 
L 452.6436 108.23428 
L 41.394 108.23428 
z
" style="fill:#f0f0f0;"/>
   </g>
   <g id="matplotlib.axis_1">
    <g id="xtick_1">
     <g id="line2d_1">
      <path clip-path="url(#pf42bdc9386)" d="M 41.394 286.692 
L 41.394 108.23428 
" style="fill:none;stroke:#cbcbcb;"/>
     </g>
     <g id="line2d_2"/>
     <g id="text_1">
      <!-- 08 -->
      <defs>
       <path d="M 31.78125 66.40625 
Q 24.171875 66.40625 20.328125 58.90625 
Q 16.5 51.421875 16.5 36.375 
Q 16.5 21.390625 20.328125 13.890625 
Q 24.171875 6.390625 31.78125 6.390625 
Q 39.453125 6.390625 43.28125 13.890625 
Q 47.125 21.390625 47.125 36.375 
Q 47.125 51.421875 43.28125 58.90625 
Q 39.453125 66.40625 31.78125 66.40625 
z
M 31.78125 74.21875 
Q 44.046875 74.21875 50.515625 64.515625 
Q 56.984375 54.828125 56.984375 36.375 
Q 56.984375 17.96875 50.515625 8.265625 
Q 44.046875 -1.421875 31.78125 -1.421875 
Q 19.53125 -1.421875 13.0625 8.265625 
Q 6.59375 17.96875 6.59375 36.375 
Q 6.59375 54.828125 13.0625 64.515625 
Q 19.53125 74.21875 31.78125 74.21875 
z
" id="DejaVuSans-30"/>
       <path d="M 31.78125 34.625 
Q 24.75 34.625 20.71875 30.859375 
Q 16.703125 27.09375 16.703125 20.515625 
Q 16.703125 13.921875 20.71875 10.15625 
Q 24.75 6.390625 31.78125 6.390625 
Q 38.8125 6.390625 42.859375 10.171875 
Q 46.921875 13.96875 46.921875 20.515625 
Q 46.921875 27.09375 42.890625 30.859375 
Q 38.875 34.625 31.78125 34.625 
z
M 21.921875 38.8125 
Q 15.578125 40.375 12.03125 44.71875 
Q 8.5 49.078125 8.5 55.328125 
Q 8.5 64.0625 14.71875 69.140625 
Q 20.953125 74.21875 31.78125 74.21875 
Q 42.671875 74.21875 48.875 69.140625 
Q 55.078125 64.0625 55.078125 55.328125 
Q 55.078125 49.078125 51.53125 44.71875 
Q 48 40.375 41.703125 38.8125 
Q 48.828125 37.15625 52.796875 32.3125 
Q 56.78125 27.484375 56.78125 20.515625 
Q 56.78125 9.90625 50.3125 4.234375 
Q 43.84375 -1.421875 31.78125 -1.421875 
Q 19.734375 -1.421875 13.25 4.234375 
Q 6.78125 9.90625 6.78125 20.515625 
Q 6.78125 27.484375 10.78125 32.3125 
Q 14.796875 37.15625 21.921875 38.8125 
z
M 18.3125 54.390625 
Q 18.3125 48.734375 21.84375 45.5625 
Q 25.390625 42.390625 31.78125 42.390625 
Q 38.140625 42.390625 41.71875 45.5625 
Q 45.3125 48.734375 45.3125 54.390625 
Q 45.3125 60.0625 41.71875 63.234375 
Q 38.140625 66.40625 31.78125 66.40625 
Q 25.390625 66.40625 21.84375 63.234375 
Q 18.3125 60.0625 18.3125 54.390625 
z
" id="DejaVuSans-38"/>
      </defs>
      <g transform="translate(33.974052 299.053298)scale(0.11662 -0.11662)">
       <use xlink:href="#DejaVuSans-30"/>
       <use x="63.623047" xlink:href="#DejaVuSans-38"/>
      </g>
      <!-- Aug -->
      <defs>
       <path d="M 34.1875 63.1875 
L 20.796875 26.90625 
L 47.609375 26.90625 
z
M 28.609375 72.90625 
L 39.796875 72.90625 
L 67.578125 0 
L 57.328125 0 
L 50.6875 18.703125 
L 17.828125 18.703125 
L 11.1875 0 
L 0.78125 0 
z
" id="DejaVuSans-41"/>
       <path d="M 8.5 21.578125 
L 8.5 54.6875 
L 17.484375 54.6875 
L 17.484375 21.921875 
Q 17.484375 14.15625 20.5 10.265625 
Q 23.53125 6.390625 29.59375 6.390625 
Q 36.859375 6.390625 41.078125 11.03125 
Q 45.3125 15.671875 45.3125 23.6875 
L 45.3125 54.6875 
L 54.296875 54.6875 
L 54.296875 0 
L 45.3125 0 
L 45.3125 8.40625 
Q 42.046875 3.421875 37.71875 1 
Q 33.40625 -1.421875 27.6875 -1.421875 
Q 18.265625 -1.421875 13.375 4.4375 
Q 8.5 10.296875 8.5 21.578125 
z
M 31.109375 56 
z
" id="DejaVuSans-75"/>
       <path d="M 45.40625 27.984375 
Q 45.40625 37.75 41.375 43.109375 
Q 37.359375 48.484375 30.078125 48.484375 
Q 22.859375 48.484375 18.828125 43.109375 
Q 14.796875 37.75 14.796875 27.984375 
Q 14.796875 18.265625 18.828125 12.890625 
Q 22.859375 7.515625 30.078125 7.515625 
Q 37.359375 7.515625 41.375 12.890625 
Q 45.40625 18.265625 45.40625 27.984375 
z
M 54.390625 6.78125 
Q 54.390625 -7.171875 48.1875 -13.984375 
Q 42 -20.796875 29.203125 -20.796875 
Q 24.46875 -20.796875 20.265625 -20.09375 
Q 16.0625 -19.390625 12.109375 -17.921875 
L 12.109375 -9.1875 
Q 16.0625 -11.328125 19.921875 -12.34375 
Q 23.78125 -13.375 27.78125 -13.375 
Q 36.625 -13.375 41.015625 -8.765625 
Q 45.40625 -4.15625 45.40625 5.171875 
L 45.40625 9.625 
Q 42.625 4.78125 38.28125 2.390625 
Q 33.9375 0 27.875 0 
Q 17.828125 0 11.671875 7.65625 
Q 5.515625 15.328125 5.515625 27.984375 
Q 5.515625 40.671875 11.671875 48.328125 
Q 17.828125 56 27.875 56 
Q 33.9375 56 38.28125 53.609375 
Q 42.625 51.21875 45.40625 46.390625 
L 45.40625 54.6875 
L 54.390625 54.6875 
z
" id="DejaVuSans-67"/>
      </defs>
      <g transform="translate(30.008061 312.112187)scale(0.11662 -0.11662)">
       <use xlink:href="#DejaVuSans-41"/>
       <use x="68.408203" xlink:href="#DejaVuSans-75"/>
       <use x="131.787109" xlink:href="#DejaVuSans-67"/>
      </g>
      <!-- 2016 -->
      <defs>
       <path d="M 19.1875 8.296875 
L 53.609375 8.296875 
L 53.609375 0 
L 7.328125 0 
L 7.328125 8.296875 
Q 12.9375 14.109375 22.625 23.890625 
Q 32.328125 33.6875 34.8125 36.53125 
Q 39.546875 41.84375 41.421875 45.53125 
Q 43.3125 49.21875 43.3125 52.78125 
Q 43.3125 58.59375 39.234375 62.25 
Q 35.15625 65.921875 28.609375 65.921875 
Q 23.96875 65.921875 18.8125 64.3125 
Q 13.671875 62.703125 7.8125 59.421875 
L 7.8125 69.390625 
Q 13.765625 71.78125 18.9375 73 
Q 24.125 74.21875 28.421875 74.21875 
Q 39.75 74.21875 46.484375 68.546875 
Q 53.21875 62.890625 53.21875 53.421875 
Q 53.21875 48.921875 51.53125 44.890625 
Q 49.859375 40.875 45.40625 35.40625 
Q 44.1875 33.984375 37.640625 27.21875 
Q 31.109375 20.453125 19.1875 8.296875 
z
" id="DejaVuSans-32"/>
       <path d="M 12.40625 8.296875 
L 28.515625 8.296875 
L 28.515625 63.921875 
L 10.984375 60.40625 
L 10.984375 69.390625 
L 28.421875 72.90625 
L 38.28125 72.90625 
L 38.28125 8.296875 
L 54.390625 8.296875 
L 54.390625 0 
L 12.40625 0 
z
" id="DejaVuSans-31"/>
       <path d="M 33.015625 40.375 
Q 26.375 40.375 22.484375 35.828125 
Q 18.609375 31.296875 18.609375 23.390625 
Q 18.609375 15.53125 22.484375 10.953125 
Q 26.375 6.390625 33.015625 6.390625 
Q 39.65625 6.390625 43.53125 10.953125 
Q 47.40625 15.53125 47.40625 23.390625 
Q 47.40625 31.296875 43.53125 35.828125 
Q 39.65625 40.375 33.015625 40.375 
z
M 52.59375 71.296875 
L 52.59375 62.3125 
Q 48.875 64.0625 45.09375 64.984375 
Q 41.3125 65.921875 37.59375 65.921875 
Q 27.828125 65.921875 22.671875 59.328125 
Q 17.53125 52.734375 16.796875 39.40625 
Q 19.671875 43.65625 24.015625 45.921875 
Q 28.375 48.1875 33.59375 48.1875 
Q 44.578125 48.1875 50.953125 41.515625 
Q 57.328125 34.859375 57.328125 23.390625 
Q 57.328125 12.15625 50.6875 5.359375 
Q 44.046875 -1.421875 33.015625 -1.421875 
Q 20.359375 -1.421875 13.671875 8.265625 
Q 6.984375 17.96875 6.984375 36.375 
Q 6.984375 53.65625 15.1875 63.9375 
Q 23.390625 74.21875 37.203125 74.21875 
Q 40.921875 74.21875 44.703125 73.484375 
Q 48.484375 72.75 52.59375 71.296875 
z
" id="DejaVuSans-36"/>
      </defs>
      <g transform="translate(26.554105 325.171076)scale(0.11662 -0.11662)">
       <use xlink:href="#DejaVuSans-32"/>
       <use x="63.623047" xlink:href="#DejaVuSans-30"/>
       <use x="127.246094" xlink:href="#DejaVuSans-31"/>
       <use x="190.869141" xlink:href="#DejaVuSans-36"/>
      </g>
     </g>
    </g>
    <g id="xtick_2">
     <g id="line2d_3">
      <path clip-path="url(#pf42bdc9386)" d="M 452.6436 286.692 
L 452.6436 108.23428 
" style="fill:none;stroke:#cbcbcb;"/>
     </g>
     <g id="line2d_4"/>
    </g>
    <g id="xtick_3">
     <g id="line2d_5"/>
    </g>
    <g id="xtick_4">
     <g id="line2d_6"/>
     <g id="text_2">
      <!-- 09 -->
      <defs>
       <path d="M 10.984375 1.515625 
L 10.984375 10.5 
Q 14.703125 8.734375 18.5 7.8125 
Q 22.3125 6.890625 25.984375 6.890625 
Q 35.75 6.890625 40.890625 13.453125 
Q 46.046875 20.015625 46.78125 33.40625 
Q 43.953125 29.203125 39.59375 26.953125 
Q 35.25 24.703125 29.984375 24.703125 
Q 19.046875 24.703125 12.671875 31.3125 
Q 6.296875 37.9375 6.296875 49.421875 
Q 6.296875 60.640625 12.9375 67.421875 
Q 19.578125 74.21875 30.609375 74.21875 
Q 43.265625 74.21875 49.921875 64.515625 
Q 56.59375 54.828125 56.59375 36.375 
Q 56.59375 19.140625 48.40625 8.859375 
Q 40.234375 -1.421875 26.421875 -1.421875 
Q 22.703125 -1.421875 18.890625 -0.6875 
Q 15.09375 0.046875 10.984375 1.515625 
z
M 30.609375 32.421875 
Q 37.25 32.421875 41.125 36.953125 
Q 45.015625 41.5 45.015625 49.421875 
Q 45.015625 57.28125 41.125 61.84375 
Q 37.25 66.40625 30.609375 66.40625 
Q 23.96875 66.40625 20.09375 61.84375 
Q 16.21875 57.28125 16.21875 49.421875 
Q 16.21875 41.5 20.09375 36.953125 
Q 23.96875 32.421875 30.609375 32.421875 
z
" id="DejaVuSans-39"/>
      </defs>
      <g transform="translate(79.721401 298.953298)scale(0.11662 -0.11662)">
       <use xlink:href="#DejaVuSans-30"/>
       <use x="63.623047" xlink:href="#DejaVuSans-39"/>
      </g>
     </g>
    </g>
    <g id="xtick_5">
     <g id="line2d_7"/>
     <g id="text_3">
      <!-- 10 -->
      <g transform="translate(125.468749 298.953298)scale(0.11662 -0.11662)">
       <use xlink:href="#DejaVuSans-31"/>
       <use x="63.623047" xlink:href="#DejaVuSans-30"/>
      </g>
     </g>
    </g>
    <g id="xtick_6">
     <g id="line2d_8"/>
     <g id="text_4">
      <!-- 11 -->
      <g transform="translate(171.216097 298.953298)scale(0.11662 -0.11662)">
       <use xlink:href="#DejaVuSans-31"/>
       <use x="63.623047" xlink:href="#DejaVuSans-31"/>
      </g>
     </g>
    </g>
    <g id="xtick_7">
     <g id="line2d_9"/>
     <g id="text_5">
      <!-- 12 -->
      <g transform="translate(216.963446 298.953298)scale(0.11662 -0.11662)">
       <use xlink:href="#DejaVuSans-31"/>
       <use x="63.623047" xlink:href="#DejaVuSans-32"/>
      </g>
     </g>
    </g>
    <g id="xtick_8">
     <g id="line2d_10"/>
     <g id="text_6">
      <!-- 13 -->
      <defs>
       <path d="M 40.578125 39.3125 
Q 47.65625 37.796875 51.625 33 
Q 55.609375 28.21875 55.609375 21.1875 
Q 55.609375 10.40625 48.1875 4.484375 
Q 40.765625 -1.421875 27.09375 -1.421875 
Q 22.515625 -1.421875 17.65625 -0.515625 
Q 12.796875 0.390625 7.625 2.203125 
L 7.625 11.71875 
Q 11.71875 9.328125 16.59375 8.109375 
Q 21.484375 6.890625 26.8125 6.890625 
Q 36.078125 6.890625 40.9375 10.546875 
Q 45.796875 14.203125 45.796875 21.1875 
Q 45.796875 27.640625 41.28125 31.265625 
Q 36.765625 34.90625 28.71875 34.90625 
L 20.21875 34.90625 
L 20.21875 43.015625 
L 29.109375 43.015625 
Q 36.375 43.015625 40.234375 45.921875 
Q 44.09375 48.828125 44.09375 54.296875 
Q 44.09375 59.90625 40.109375 62.90625 
Q 36.140625 65.921875 28.71875 65.921875 
Q 24.65625 65.921875 20.015625 65.03125 
Q 15.375 64.15625 9.8125 62.3125 
L 9.8125 71.09375 
Q 15.4375 72.65625 20.34375 73.4375 
Q 25.25 74.21875 29.59375 74.21875 
Q 40.828125 74.21875 47.359375 69.109375 
Q 53.90625 64.015625 53.90625 55.328125 
Q 53.90625 49.265625 50.4375 45.09375 
Q 46.96875 40.921875 40.578125 39.3125 
z
" id="DejaVuSans-33"/>
      </defs>
      <g transform="translate(262.710794 298.953298)scale(0.11662 -0.11662)">
       <use xlink:href="#DejaVuSans-31"/>
       <use x="63.623047" xlink:href="#DejaVuSans-33"/>
      </g>
     </g>
    </g>
    <g id="xtick_9">
     <g id="line2d_11"/>
     <g id="text_7">
      <!-- 14 -->
      <defs>
       <path d="M 37.796875 64.3125 
L 12.890625 25.390625 
L 37.796875 25.390625 
z
M 35.203125 72.90625 
L 47.609375 72.90625 
L 47.609375 25.390625 
L 58.015625 25.390625 
L 58.015625 17.1875 
L 47.609375 17.1875 
L 47.609375 0 
L 37.796875 0 
L 37.796875 17.1875 
L 4.890625 17.1875 
L 4.890625 26.703125 
z
" id="DejaVuSans-34"/>
      </defs>
      <g transform="translate(308.458142 298.953298)scale(0.11662 -0.11662)">
       <use xlink:href="#DejaVuSans-31"/>
       <use x="63.623047" xlink:href="#DejaVuSans-34"/>
      </g>
     </g>
    </g>
    <g id="xtick_10">
     <g id="line2d_12"/>
     <g id="text_8">
      <!-- 15 -->
      <defs>
       <path d="M 10.796875 72.90625 
L 49.515625 72.90625 
L 49.515625 64.59375 
L 19.828125 64.59375 
L 19.828125 46.734375 
Q 21.96875 47.46875 24.109375 47.828125 
Q 26.265625 48.1875 28.421875 48.1875 
Q 40.625 48.1875 47.75 41.5 
Q 54.890625 34.8125 54.890625 23.390625 
Q 54.890625 11.625 47.5625 5.09375 
Q 40.234375 -1.421875 26.90625 -1.421875 
Q 22.3125 -1.421875 17.546875 -0.640625 
Q 12.796875 0.140625 7.71875 1.703125 
L 7.71875 11.625 
Q 12.109375 9.234375 16.796875 8.0625 
Q 21.484375 6.890625 26.703125 6.890625 
Q 35.15625 6.890625 40.078125 11.328125 
Q 45.015625 15.765625 45.015625 23.390625 
Q 45.015625 31 40.078125 35.4375 
Q 35.15625 39.890625 26.703125 39.890625 
Q 22.75 39.890625 18.8125 39.015625 
Q 14.890625 38.140625 10.796875 36.28125 
z
" id="DejaVuSans-35"/>
      </defs>
      <g transform="translate(354.205491 298.953298)scale(0.11662 -0.11662)">
       <use xlink:href="#DejaVuSans-31"/>
       <use x="63.623047" xlink:href="#DejaVuSans-35"/>
      </g>
     </g>
    </g>
    <g id="xtick_11">
     <g id="line2d_13"/>
     <g id="text_9">
      <!-- 16 -->
      <g transform="translate(399.952839 298.953298)scale(0.11662 -0.11662)">
       <use xlink:href="#DejaVuSans-31"/>
       <use x="63.623047" xlink:href="#DejaVuSans-36"/>
      </g>
     </g>
    </g>
    <g id="text_10">
     <!-- Time -->
     <defs>
      <path d="M -0.296875 72.90625 
L 61.375 72.90625 
L 61.375 64.59375 
L 35.5 64.59375 
L 35.5 0 
L 25.59375 0 
L 25.59375 64.59375 
L -0.296875 64.59375 
z
" id="DejaVuSans-54"/>
      <path d="M 9.421875 54.6875 
L 18.40625 54.6875 
L 18.40625 0 
L 9.421875 0 
z
M 9.421875 75.984375 
L 18.40625 75.984375 
L 18.40625 64.59375 
L 9.421875 64.59375 
z
" id="DejaVuSans-69"/>
      <path d="M 52 44.1875 
Q 55.375 50.25 60.0625 53.125 
Q 64.75 56 71.09375 56 
Q 79.640625 56 84.28125 50.015625 
Q 88.921875 44.046875 88.921875 33.015625 
L 88.921875 0 
L 79.890625 0 
L 79.890625 32.71875 
Q 79.890625 40.578125 77.09375 44.375 
Q 74.3125 48.1875 68.609375 48.1875 
Q 61.625 48.1875 57.5625 43.546875 
Q 53.515625 38.921875 53.515625 30.90625 
L 53.515625 0 
L 44.484375 0 
L 44.484375 32.71875 
Q 44.484375 40.625 41.703125 44.40625 
Q 38.921875 48.1875 33.109375 48.1875 
Q 26.21875 48.1875 22.15625 43.53125 
Q 18.109375 38.875 18.109375 30.90625 
L 18.109375 0 
L 9.078125 0 
L 9.078125 54.6875 
L 18.109375 54.6875 
L 18.109375 46.1875 
Q 21.1875 51.21875 25.484375 53.609375 
Q 29.78125 56 35.6875 56 
Q 41.65625 56 45.828125 52.96875 
Q 50 49.953125 52 44.1875 
z
" id="DejaVuSans-6d"/>
      <path d="M 56.203125 29.59375 
L 56.203125 25.203125 
L 14.890625 25.203125 
Q 15.484375 15.921875 20.484375 11.0625 
Q 25.484375 6.203125 34.421875 6.203125 
Q 39.59375 6.203125 44.453125 7.46875 
Q 49.3125 8.734375 54.109375 11.28125 
L 54.109375 2.78125 
Q 49.265625 0.734375 44.1875 -0.34375 
Q 39.109375 -1.421875 33.890625 -1.421875 
Q 20.796875 -1.421875 13.15625 6.1875 
Q 5.515625 13.8125 5.515625 26.8125 
Q 5.515625 40.234375 12.765625 48.109375 
Q 20.015625 56 32.328125 56 
Q 43.359375 56 49.78125 48.890625 
Q 56.203125 41.796875 56.203125 29.59375 
z
M 47.21875 32.234375 
Q 47.125 39.59375 43.09375 43.984375 
Q 39.0625 48.390625 32.421875 48.390625 
Q 24.90625 48.390625 20.390625 44.140625 
Q 15.875 39.890625 15.1875 32.171875 
z
" id="DejaVuSans-65"/>
     </defs>
     <g transform="translate(232.572497 340.457705)scale(0.11662 -0.11662)">
      <use xlink:href="#DejaVuSans-54"/>
      <use x="61.037109" xlink:href="#DejaVuSans-69"/>
      <use x="88.820312" xlink:href="#DejaVuSans-6d"/>
      <use x="186.232422" xlink:href="#DejaVuSans-65"/>
     </g>
    </g>
   </g>
   <g id="matplotlib.axis_2">
    <g id="ytick_1">
     <g id="line2d_14">
      <path clip-path="url(#pf42bdc9386)" d="M 41.394 251.434574 
L 452.6436 251.434574 
" style="fill:none;stroke:#cbcbcb;"/>
     </g>
     <g id="line2d_15"/>
     <g id="text_11">
      <!-- 0 -->
      <g transform="translate(30.474053 255.865223)scale(0.11662 -0.11662)">
       <use xlink:href="#DejaVuSans-30"/>
      </g>
     </g>
    </g>
    <g id="ytick_2">
     <g id="line2d_16">
      <path clip-path="url(#pf42bdc9386)" d="M 41.394 208.136952 
L 452.6436 208.136952 
" style="fill:none;stroke:#cbcbcb;"/>
     </g>
     <g id="line2d_17"/>
     <g id="text_12">
      <!-- 10 -->
      <g transform="translate(23.054105 212.567601)scale(0.11662 -0.11662)">
       <use xlink:href="#DejaVuSans-31"/>
       <use x="63.623047" xlink:href="#DejaVuSans-30"/>
      </g>
     </g>
    </g>
    <g id="ytick_3">
     <g id="line2d_18">
      <path clip-path="url(#pf42bdc9386)" d="M 41.394 164.839331 
L 452.6436 164.839331 
" style="fill:none;stroke:#cbcbcb;"/>
     </g>
     <g id="line2d_19"/>
     <g id="text_13">
      <!-- 20 -->
      <g transform="translate(23.054105 169.26998)scale(0.11662 -0.11662)">
       <use xlink:href="#DejaVuSans-32"/>
       <use x="63.623047" xlink:href="#DejaVuSans-30"/>
      </g>
     </g>
    </g>
    <g id="ytick_4">
     <g id="line2d_20">
      <path clip-path="url(#pf42bdc9386)" d="M 41.394 121.541709 
L 452.6436 121.541709 
" style="fill:none;stroke:#cbcbcb;"/>
     </g>
     <g id="line2d_21"/>
     <g id="text_14">
      <!-- 30 -->
      <g transform="translate(23.054105 125.972358)scale(0.11662 -0.11662)">
       <use xlink:href="#DejaVuSans-33"/>
       <use x="63.623047" xlink:href="#DejaVuSans-30"/>
      </g>
     </g>
    </g>
    <g id="text_15">
     <!-- Total active power [kW] -->
     <defs>
      <path d="M 30.609375 48.390625 
Q 23.390625 48.390625 19.1875 42.75 
Q 14.984375 37.109375 14.984375 27.296875 
Q 14.984375 17.484375 19.15625 11.84375 
Q 23.34375 6.203125 30.609375 6.203125 
Q 37.796875 6.203125 41.984375 11.859375 
Q 46.1875 17.53125 46.1875 27.296875 
Q 46.1875 37.015625 41.984375 42.703125 
Q 37.796875 48.390625 30.609375 48.390625 
z
M 30.609375 56 
Q 42.328125 56 49.015625 48.375 
Q 55.71875 40.765625 55.71875 27.296875 
Q 55.71875 13.875 49.015625 6.21875 
Q 42.328125 -1.421875 30.609375 -1.421875 
Q 18.84375 -1.421875 12.171875 6.21875 
Q 5.515625 13.875 5.515625 27.296875 
Q 5.515625 40.765625 12.171875 48.375 
Q 18.84375 56 30.609375 56 
z
" id="DejaVuSans-6f"/>
      <path d="M 18.3125 70.21875 
L 18.3125 54.6875 
L 36.8125 54.6875 
L 36.8125 47.703125 
L 18.3125 47.703125 
L 18.3125 18.015625 
Q 18.3125 11.328125 20.140625 9.421875 
Q 21.96875 7.515625 27.59375 7.515625 
L 36.8125 7.515625 
L 36.8125 0 
L 27.59375 0 
Q 17.1875 0 13.234375 3.875 
Q 9.28125 7.765625 9.28125 18.015625 
L 9.28125 47.703125 
L 2.6875 47.703125 
L 2.6875 54.6875 
L 9.28125 54.6875 
L 9.28125 70.21875 
z
" id="DejaVuSans-74"/>
      <path d="M 34.28125 27.484375 
Q 23.390625 27.484375 19.1875 25 
Q 14.984375 22.515625 14.984375 16.5 
Q 14.984375 11.71875 18.140625 8.90625 
Q 21.296875 6.109375 26.703125 6.109375 
Q 34.1875 6.109375 38.703125 11.40625 
Q 43.21875 16.703125 43.21875 25.484375 
L 43.21875 27.484375 
z
M 52.203125 31.203125 
L 52.203125 0 
L 43.21875 0 
L 43.21875 8.296875 
Q 40.140625 3.328125 35.546875 0.953125 
Q 30.953125 -1.421875 24.3125 -1.421875 
Q 15.921875 -1.421875 10.953125 3.296875 
Q 6 8.015625 6 15.921875 
Q 6 25.140625 12.171875 29.828125 
Q 18.359375 34.515625 30.609375 34.515625 
L 43.21875 34.515625 
L 43.21875 35.40625 
Q 43.21875 41.609375 39.140625 45 
Q 35.0625 48.390625 27.6875 48.390625 
Q 23 48.390625 18.546875 47.265625 
Q 14.109375 46.140625 10.015625 43.890625 
L 10.015625 52.203125 
Q 14.9375 54.109375 19.578125 55.046875 
Q 24.21875 56 28.609375 56 
Q 40.484375 56 46.34375 49.84375 
Q 52.203125 43.703125 52.203125 31.203125 
z
" id="DejaVuSans-61"/>
      <path d="M 9.421875 75.984375 
L 18.40625 75.984375 
L 18.40625 0 
L 9.421875 0 
z
" id="DejaVuSans-6c"/>
      <path id="DejaVuSans-20"/>
      <path d="M 48.78125 52.59375 
L 48.78125 44.1875 
Q 44.96875 46.296875 41.140625 47.34375 
Q 37.3125 48.390625 33.40625 48.390625 
Q 24.65625 48.390625 19.8125 42.84375 
Q 14.984375 37.3125 14.984375 27.296875 
Q 14.984375 17.28125 19.8125 11.734375 
Q 24.65625 6.203125 33.40625 6.203125 
Q 37.3125 6.203125 41.140625 7.25 
Q 44.96875 8.296875 48.78125 10.40625 
L 48.78125 2.09375 
Q 45.015625 0.34375 40.984375 -0.53125 
Q 36.96875 -1.421875 32.421875 -1.421875 
Q 20.0625 -1.421875 12.78125 6.34375 
Q 5.515625 14.109375 5.515625 27.296875 
Q 5.515625 40.671875 12.859375 48.328125 
Q 20.21875 56 33.015625 56 
Q 37.15625 56 41.109375 55.140625 
Q 45.0625 54.296875 48.78125 52.59375 
z
" id="DejaVuSans-63"/>
      <path d="M 2.984375 54.6875 
L 12.5 54.6875 
L 29.59375 8.796875 
L 46.6875 54.6875 
L 56.203125 54.6875 
L 35.6875 0 
L 23.484375 0 
z
" id="DejaVuSans-76"/>
      <path d="M 18.109375 8.203125 
L 18.109375 -20.796875 
L 9.078125 -20.796875 
L 9.078125 54.6875 
L 18.109375 54.6875 
L 18.109375 46.390625 
Q 20.953125 51.265625 25.265625 53.625 
Q 29.59375 56 35.59375 56 
Q 45.5625 56 51.78125 48.09375 
Q 58.015625 40.1875 58.015625 27.296875 
Q 58.015625 14.40625 51.78125 6.484375 
Q 45.5625 -1.421875 35.59375 -1.421875 
Q 29.59375 -1.421875 25.265625 0.953125 
Q 20.953125 3.328125 18.109375 8.203125 
z
M 48.6875 27.296875 
Q 48.6875 37.203125 44.609375 42.84375 
Q 40.53125 48.484375 33.40625 48.484375 
Q 26.265625 48.484375 22.1875 42.84375 
Q 18.109375 37.203125 18.109375 27.296875 
Q 18.109375 17.390625 22.1875 11.75 
Q 26.265625 6.109375 33.40625 6.109375 
Q 40.53125 6.109375 44.609375 11.75 
Q 48.6875 17.390625 48.6875 27.296875 
z
" id="DejaVuSans-70"/>
      <path d="M 4.203125 54.6875 
L 13.1875 54.6875 
L 24.421875 12.015625 
L 35.59375 54.6875 
L 46.1875 54.6875 
L 57.421875 12.015625 
L 68.609375 54.6875 
L 77.59375 54.6875 
L 63.28125 0 
L 52.6875 0 
L 40.921875 44.828125 
L 29.109375 0 
L 18.5 0 
z
" id="DejaVuSans-77"/>
      <path d="M 41.109375 46.296875 
Q 39.59375 47.171875 37.8125 47.578125 
Q 36.03125 48 33.890625 48 
Q 26.265625 48 22.1875 43.046875 
Q 18.109375 38.09375 18.109375 28.8125 
L 18.109375 0 
L 9.078125 0 
L 9.078125 54.6875 
L 18.109375 54.6875 
L 18.109375 46.1875 
Q 20.953125 51.171875 25.484375 53.578125 
Q 30.03125 56 36.53125 56 
Q 37.453125 56 38.578125 55.875 
Q 39.703125 55.765625 41.0625 55.515625 
z
" id="DejaVuSans-72"/>
      <path d="M 8.59375 75.984375 
L 29.296875 75.984375 
L 29.296875 69 
L 17.578125 69 
L 17.578125 -6.203125 
L 29.296875 -6.203125 
L 29.296875 -13.1875 
L 8.59375 -13.1875 
z
" id="DejaVuSans-5b"/>
      <path d="M 9.078125 75.984375 
L 18.109375 75.984375 
L 18.109375 31.109375 
L 44.921875 54.6875 
L 56.390625 54.6875 
L 27.390625 29.109375 
L 57.625 0 
L 45.90625 0 
L 18.109375 26.703125 
L 18.109375 0 
L 9.078125 0 
z
" id="DejaVuSans-6b"/>
      <path d="M 3.328125 72.90625 
L 13.28125 72.90625 
L 28.609375 11.28125 
L 43.890625 72.90625 
L 54.984375 72.90625 
L 70.3125 11.28125 
L 85.59375 72.90625 
L 95.609375 72.90625 
L 77.296875 0 
L 64.890625 0 
L 49.515625 63.28125 
L 33.984375 0 
L 21.578125 0 
z
" id="DejaVuSans-57"/>
      <path d="M 30.421875 75.984375 
L 30.421875 -13.1875 
L 9.71875 -13.1875 
L 9.71875 -6.203125 
L 21.390625 -6.203125 
L 21.390625 69 
L 9.71875 69 
L 9.71875 75.984375 
z
" id="DejaVuSans-5d"/>
     </defs>
     <g transform="translate(16.628773 267.055214)rotate(-90)scale(0.11662 -0.11662)">
      <use xlink:href="#DejaVuSans-54"/>
      <use x="60.818359" xlink:href="#DejaVuSans-6f"/>
      <use x="122" xlink:href="#DejaVuSans-74"/>
      <use x="161.208984" xlink:href="#DejaVuSans-61"/>
      <use x="222.488281" xlink:href="#DejaVuSans-6c"/>
      <use x="250.271484" xlink:href="#DejaVuSans-20"/>
      <use x="282.058594" xlink:href="#DejaVuSans-61"/>
      <use x="343.337891" xlink:href="#DejaVuSans-63"/>
      <use x="398.318359" xlink:href="#DejaVuSans-74"/>
      <use x="437.527344" xlink:href="#DejaVuSans-69"/>
      <use x="465.310547" xlink:href="#DejaVuSans-76"/>
      <use x="524.490234" xlink:href="#DejaVuSans-65"/>
      <use x="586.013672" xlink:href="#DejaVuSans-20"/>
      <use x="617.800781" xlink:href="#DejaVuSans-70"/>
      <use x="681.277344" xlink:href="#DejaVuSans-6f"/>
      <use x="742.458984" xlink:href="#DejaVuSans-77"/>
      <use x="824.246094" xlink:href="#DejaVuSans-65"/>
      <use x="885.769531" xlink:href="#DejaVuSans-72"/>
      <use x="926.882812" xlink:href="#DejaVuSans-20"/>
      <use x="958.669922" xlink:href="#DejaVuSans-5b"/>
      <use x="997.683594" xlink:href="#DejaVuSans-6b"/>
      <use x="1055.59375" xlink:href="#DejaVuSans-57"/>
      <use x="1154.470703" xlink:href="#DejaVuSans-5d"/>
     </g>
    </g>
   </g>
   <g id="line2d_22">
    <path clip-path="url(#pf42bdc9386)" d="M 41.394 251.001598 
L 42.34707 251.001598 
L 42.823605 250.568621 
L 43.30014 250.568621 
L 43.776674 251.001598 
L 44.253209 250.568621 
L 44.729744 250.568621 
L 45.206279 251.001598 
L 45.682814 250.568621 
L 47.588953 250.568621 
L 48.065488 251.001598 
L 48.542023 251.001598 
L 49.018558 250.568621 
L 49.495093 251.001598 
L 50.448163 251.001598 
L 50.924698 250.568621 
L 51.401232 250.568621 
L 51.877767 251.001598 
L 52.354302 250.568621 
L 52.830837 251.001598 
L 54.736977 251.001598 
L 55.213511 250.568621 
L 55.690046 250.568621 
L 56.166581 221.559215 
L 56.643116 177.395641 
L 57.119651 177.828617 
L 57.596186 177.828617 
L 58.072721 179.560522 
L 58.549256 179.127546 
L 59.02579 179.560522 
L 59.502325 177.395641 
L 59.97886 179.560522 
L 60.455395 174.797784 
L 60.93193 251.434574 
L 61.408465 251.001598 
L 61.885 251.434574 
L 62.83807 122.840638 
L 63.314604 223.29112 
L 63.791139 220.693262 
L 64.267674 121.108733 
L 64.744209 223.29112 
L 65.220744 121.974685 
L 65.697279 120.675757 
L 66.173814 223.29112 
L 66.650349 120.675757 
L 67.126883 224.590048 
L 67.603418 223.724096 
L 68.079953 121.974685 
L 68.556488 120.24278 
L 69.033023 223.724096 
L 69.509558 120.675757 
L 70.462628 119.809804 
L 70.939162 221.992191 
L 71.415697 121.108733 
L 71.892232 119.376828 
L 72.368767 222.425167 
L 72.845302 120.675757 
L 73.321837 121.541709 
L 73.798372 251.001598 
L 74.274907 251.434574 
L 77.610651 251.434574 
L 78.563721 123.273614 
L 79.040255 121.108733 
L 79.51679 220.693262 
L 79.993325 223.29112 
L 80.46986 122.840638 
L 80.946395 221.126239 
L 81.42293 179.993498 
L 81.899465 176.962665 
L 82.376 177.828617 
L 82.852534 251.434574 
L 83.329069 250.568621 
L 83.805604 251.001598 
L 84.282139 250.568621 
L 85.235209 250.568621 
L 85.711744 251.001598 
L 86.188279 250.568621 
L 86.664813 251.001598 
L 89.524023 251.001598 
L 90.000558 250.568621 
L 90.477092 251.001598 
L 90.953627 250.568621 
L 91.906697 250.568621 
L 92.383232 251.001598 
L 92.859767 251.001598 
L 93.336302 251.434574 
L 93.812837 250.568621 
L 94.765906 250.568621 
L 95.242441 251.434574 
L 95.718976 251.001598 
L 96.195511 251.001598 
L 96.672046 251.434574 
L 98.578185 251.434574 
L 99.05472 250.568621 
L 100.484325 250.568621 
L 100.96086 251.434574 
L 101.437395 250.568621 
L 101.91393 192.549808 
L 102.390464 197.312547 
L 102.866999 209.435881 
L 103.343534 200.776357 
L 103.820069 218.961358 
L 104.296604 178.69457 
L 104.773139 175.663736 
L 105.249674 176.096712 
L 105.726209 176.962665 
L 106.202743 178.261593 
L 106.679278 179.127546 
L 107.155813 176.529688 
L 107.632348 176.096712 
L 108.108883 179.127546 
L 108.585418 178.261593 
L 109.061953 176.096712 
L 109.538488 251.001598 
L 110.015022 251.434574 
L 110.491557 251.434574 
L 111.444627 120.675757 
L 111.921162 220.693262 
L 112.397697 220.260286 
L 112.874232 120.675757 
L 113.350767 219.82731 
L 113.827302 222.425167 
L 114.303836 120.24278 
L 114.780371 221.126239 
L 115.256906 121.108733 
L 115.733441 223.29112 
L 116.209976 222.858144 
L 116.686511 121.108733 
L 117.163046 222.425167 
L 117.639581 120.675757 
L 118.116115 121.541709 
L 118.59265 223.29112 
L 119.069185 121.541709 
L 119.54572 251.434574 
L 122.881464 251.434574 
L 123.357999 251.001598 
L 123.834534 177.395641 
L 124.311069 179.993498 
L 124.787604 179.993498 
L 125.264139 176.096712 
L 125.740673 176.096712 
L 126.217208 175.663736 
L 126.693743 173.931831 
L 127.170278 178.261593 
L 127.646813 178.69457 
L 128.123348 175.23076 
L 128.599883 250.568621 
L 130.029487 250.568621 
L 130.506022 251.434574 
L 131.459092 250.568621 
L 131.935627 251.001598 
L 132.888697 251.001598 
L 133.365232 250.568621 
L 133.841766 251.001598 
L 134.794836 251.001598 
L 135.271371 250.568621 
L 135.747906 250.568621 
L 136.224441 251.434574 
L 136.700976 250.568621 
L 137.177511 251.001598 
L 137.654045 251.001598 
L 138.13058 250.568621 
L 138.607115 250.568621 
L 139.560185 251.434574 
L 140.03672 251.001598 
L 140.513255 251.434574 
L 140.98979 251.001598 
L 141.466324 251.434574 
L 141.942859 250.568621 
L 142.419394 250.568621 
L 142.895929 251.001598 
L 143.372464 250.568621 
L 144.325534 251.434574 
L 144.802069 251.001598 
L 145.278603 251.434574 
L 145.755138 251.001598 
L 146.231673 251.434574 
L 147.184743 251.434574 
L 147.661278 203.374214 
L 148.137813 208.136952 
L 148.614348 209.868857 
L 149.090883 200.34338 
L 149.567417 251.434574 
L 150.043952 176.962665 
L 150.520487 177.395641 
L 150.997022 176.096712 
L 151.473557 179.127546 
L 151.950092 175.23076 
L 152.426627 178.261593 
L 152.903162 176.096712 
L 153.379696 175.663736 
L 154.332766 175.663736 
L 154.809301 176.529688 
L 155.762371 175.663736 
L 156.238906 251.434574 
L 158.145045 251.434574 
L 158.62158 121.108733 
L 159.098115 223.29112 
L 159.57465 221.559215 
L 160.051185 223.724096 
L 160.52772 142.324567 
L 161.004254 220.260286 
L 161.480789 221.126239 
L 161.957324 220.260286 
L 162.433859 121.108733 
L 162.910394 222.858144 
L 163.386929 220.693262 
L 163.863464 121.541709 
L 164.339999 223.724096 
L 164.816533 223.29112 
L 165.293068 251.001598 
L 165.769603 251.434574 
L 170.534952 251.434574 
L 171.011487 176.962665 
L 171.488022 179.560522 
L 171.964557 177.395641 
L 172.441092 177.828617 
L 172.917626 176.529688 
L 173.394161 174.797784 
L 173.870696 178.69457 
L 174.347231 251.001598 
L 174.823766 251.001598 
L 175.300301 250.568621 
L 175.776836 251.001598 
L 176.729905 251.001598 
L 177.20644 250.568621 
L 178.15951 251.434574 
L 178.636045 250.568621 
L 179.11258 251.001598 
L 179.589115 251.001598 
L 180.06565 251.434574 
L 180.542184 250.568621 
L 181.018719 250.568621 
L 181.495254 251.434574 
L 181.971789 251.001598 
L 182.448324 251.001598 
L 182.924859 250.568621 
L 183.401394 250.568621 
L 183.877929 251.001598 
L 184.354463 250.568621 
L 184.830998 251.001598 
L 185.307533 250.568621 
L 185.784068 251.001598 
L 186.260603 251.001598 
L 186.737138 251.434574 
L 187.213673 251.001598 
L 188.166743 251.001598 
L 188.643277 250.568621 
L 189.119812 251.001598 
L 189.596347 250.568621 
L 190.072882 251.434574 
L 190.549417 251.001598 
L 191.025952 251.434574 
L 191.502487 250.568621 
L 192.932091 250.568621 
L 193.408626 185.622189 
L 193.885161 176.962665 
L 194.361696 175.23076 
L 194.838231 178.69457 
L 195.314766 179.127546 
L 195.791301 176.096712 
L 196.267835 176.962665 
L 196.74437 175.23076 
L 197.220905 176.529688 
L 197.69744 176.962665 
L 198.173975 178.261593 
L 198.65051 176.962665 
L 199.127045 178.69457 
L 199.60358 177.395641 
L 200.080114 251.434574 
L 200.556649 251.434574 
L 201.033184 122.407662 
L 201.509719 219.82731 
L 201.986254 221.126239 
L 202.462789 121.541709 
L 202.939324 224.157072 
L 203.415859 222.858144 
L 203.892394 121.974685 
L 204.368928 120.675757 
L 204.845463 223.724096 
L 205.321998 120.24278 
L 205.798533 120.24278 
L 206.275068 223.29112 
L 206.751603 221.126239 
L 207.228138 119.809804 
L 207.704673 119.376828 
L 208.181207 221.559215 
L 208.657742 118.943852 
L 209.134277 120.24278 
L 209.610812 221.126239 
L 210.087347 119.809804 
L 210.563882 223.29112 
L 211.040417 251.434574 
L 211.516952 251.001598 
L 211.993486 251.434574 
L 212.470021 251.434574 
L 212.946556 251.001598 
L 213.423091 251.434574 
L 214.376161 251.434574 
L 214.852696 251.001598 
L 215.805765 120.675757 
L 216.2823 120.675757 
L 216.758835 223.29112 
L 217.23537 120.675757 
L 217.711905 221.126239 
L 218.18844 219.394334 
L 218.664975 121.541709 
L 219.14151 223.29112 
L 219.618044 223.724096 
L 220.094579 251.434574 
L 220.571114 251.001598 
L 221.047649 251.434574 
L 221.524184 251.434574 
L 222.477254 250.568621 
L 222.953789 251.001598 
L 224.383393 251.001598 
L 224.859928 250.568621 
L 225.336463 251.001598 
L 225.812998 251.001598 
L 226.289533 250.568621 
L 226.766068 251.001598 
L 227.242603 250.568621 
L 227.719137 251.001598 
L 228.195672 250.568621 
L 229.625277 250.568621 
L 230.101812 251.001598 
L 230.578347 250.568621 
L 232.007951 250.568621 
L 232.484486 251.001598 
L 232.961021 250.568621 
L 233.437556 251.001598 
L 233.914091 251.001598 
L 234.390626 250.568621 
L 234.867161 250.568621 
L 235.343695 251.434574 
L 235.82023 250.568621 
L 236.296765 250.568621 
L 237.249835 251.434574 
L 237.72637 251.434574 
L 238.202905 251.001598 
L 238.67944 251.434574 
L 239.155975 208.136952 
L 239.632509 175.663736 
L 240.109044 178.69457 
L 240.585579 175.663736 
L 241.062114 179.127546 
L 241.538649 177.395641 
L 242.015184 175.23076 
L 242.491719 251.434574 
L 243.921323 251.434574 
L 244.397858 121.108733 
L 244.874393 223.29112 
L 245.350928 221.992191 
L 245.827463 119.809804 
L 246.303998 221.126239 
L 246.780533 222.858144 
L 247.257067 119.809804 
L 247.733602 223.29112 
L 248.210137 118.943852 
L 248.686672 223.29112 
L 249.163207 221.126239 
L 249.639742 118.943852 
L 250.116277 221.559215 
L 250.592812 116.778971 
L 251.069346 117.644923 
L 251.545881 223.29112 
L 252.022416 116.778971 
L 252.498951 221.559215 
L 252.975486 117.644923 
L 253.452021 117.211947 
L 253.928556 223.724096 
L 254.405091 117.644923 
L 254.881625 117.211947 
L 255.35816 223.29112 
L 255.834695 117.211947 
L 256.31123 117.211947 
L 256.787765 251.001598 
L 257.2643 251.001598 
L 257.740835 251.434574 
L 258.21737 251.434574 
L 258.693905 251.001598 
L 259.170439 251.434574 
L 259.646974 251.001598 
L 260.123509 251.434574 
L 260.600044 251.434574 
L 261.553114 119.376828 
L 262.029649 119.376828 
L 262.506184 223.724096 
L 262.982718 120.675757 
L 263.459253 121.541709 
L 263.935788 223.29112 
L 264.412323 121.541709 
L 264.888858 223.724096 
L 265.365393 219.82731 
L 265.841928 251.001598 
L 266.318463 251.434574 
L 267.271532 251.434574 
L 267.748067 250.568621 
L 268.224602 250.568621 
L 268.701137 251.001598 
L 269.177672 251.001598 
L 269.654207 250.568621 
L 270.607276 250.568621 
L 271.083811 251.001598 
L 271.560346 251.001598 
L 272.036881 250.568621 
L 272.513416 251.001598 
L 272.989951 251.001598 
L 273.466486 250.568621 
L 273.943021 251.001598 
L 275.84916 251.001598 
L 276.325695 250.568621 
L 277.7553 250.568621 
L 278.231835 251.001598 
L 278.708369 250.568621 
L 279.661439 251.434574 
L 280.137974 250.568621 
L 280.614509 251.001598 
L 281.567579 251.001598 
L 282.044114 250.568621 
L 282.520648 251.001598 
L 282.997183 251.001598 
L 283.473718 250.568621 
L 283.950253 250.568621 
L 284.426788 251.001598 
L 285.379858 177.395641 
L 285.856393 176.529688 
L 286.332927 176.529688 
L 286.809462 251.001598 
L 287.285997 250.568621 
L 287.762532 251.434574 
L 289.192137 251.434574 
L 290.145206 122.407662 
L 290.621741 223.29112 
L 291.098276 223.29112 
L 291.574811 121.974685 
L 292.051346 221.126239 
L 292.527881 121.108733 
L 293.004416 220.260286 
L 293.480951 119.809804 
L 293.957486 121.108733 
L 294.43402 120.675757 
L 294.910555 223.29112 
L 295.38709 120.675757 
L 295.863625 223.29112 
L 296.34016 121.108733 
L 296.816695 223.724096 
L 297.29323 120.24278 
L 297.769765 120.675757 
L 298.246299 221.992191 
L 298.722834 120.24278 
L 299.199369 221.126239 
L 299.675904 119.376828 
L 300.152439 118.510876 
L 300.628974 222.425167 
L 301.105509 118.510876 
L 301.582044 118.943852 
L 302.058578 221.992191 
L 302.535113 251.001598 
L 303.011648 251.434574 
L 303.488183 251.434574 
L 303.964718 251.001598 
L 304.917788 251.001598 
L 305.394323 251.434574 
L 305.870857 251.001598 
L 306.347392 251.434574 
L 307.300462 119.809804 
L 307.776997 121.108733 
L 308.253532 120.24278 
L 308.730067 223.29112 
L 309.206602 120.24278 
L 309.683137 223.724096 
L 310.159671 219.82731 
L 310.636206 121.974685 
L 311.112741 221.126239 
L 311.589276 251.434574 
L 312.065811 251.001598 
L 312.542346 251.001598 
L 313.018881 251.434574 
L 313.97195 251.434574 
L 314.92502 250.568621 
L 316.354625 250.568621 
L 316.83116 251.001598 
L 317.784229 251.001598 
L 318.260764 250.568621 
L 318.737299 251.434574 
L 319.213834 250.568621 
L 319.690369 251.001598 
L 320.166904 250.568621 
L 320.643439 251.001598 
L 321.596508 251.001598 
L 322.073043 250.568621 
L 323.502648 250.568621 
L 323.979183 251.001598 
L 324.455718 251.001598 
L 324.932253 250.568621 
L 325.408787 251.001598 
L 325.885322 250.568621 
L 326.361857 251.001598 
L 326.838392 251.001598 
L 327.314927 250.568621 
L 327.791462 250.568621 
L 328.267997 251.001598 
L 329.221067 251.001598 
L 329.697601 250.568621 
L 330.174136 250.568621 
L 330.650671 251.001598 
L 331.127206 250.568621 
L 332.080276 250.568621 
L 332.556811 251.434574 
L 334.939485 251.434574 
L 335.41602 251.001598 
L 335.892555 251.434574 
L 337.798694 251.434574 
L 338.751764 120.24278 
L 339.228299 222.425167 
L 339.704834 220.260286 
L 340.181369 119.376828 
L 340.657904 222.858144 
L 341.134438 118.943852 
L 341.610973 119.376828 
L 342.087508 223.724096 
L 342.564043 119.376828 
L 343.040578 222.425167 
L 343.517113 118.510876 
L 343.993648 118.510876 
L 344.470183 222.425167 
L 344.946717 118.943852 
L 345.423252 119.809804 
L 345.899787 251.434574 
L 347.329392 251.434574 
L 347.805927 251.001598 
L 348.282462 251.001598 
L 348.758997 251.434574 
L 349.235531 251.434574 
L 349.712066 251.001598 
L 350.188601 251.434574 
L 353.04781 251.434574 
L 353.524345 251.001598 
L 354.00088 251.434574 
L 355.430485 251.434574 
L 355.90702 251.001598 
L 356.383555 251.434574 
L 356.860089 251.434574 
L 357.336624 251.001598 
L 357.813159 251.434574 
L 358.289694 251.001598 
L 358.766229 251.434574 
L 359.719299 250.568621 
L 360.195834 251.001598 
L 360.672368 250.568621 
L 361.148903 251.001598 
L 361.625438 251.001598 
L 362.101973 250.568621 
L 362.578508 250.568621 
L 363.055043 251.001598 
L 365.437717 251.001598 
L 365.914252 250.568621 
L 366.867322 250.568621 
L 367.343857 251.001598 
L 367.820392 250.568621 
L 368.773461 251.434574 
L 369.726531 250.568621 
L 370.203066 250.568621 
L 370.679601 251.434574 
L 371.156136 251.434574 
L 371.632671 250.568621 
L 372.109206 251.434574 
L 372.58574 251.434574 
L 373.53881 250.568621 
L 374.968415 250.568621 
L 375.44495 251.434574 
L 375.921485 251.434574 
L 376.398019 213.765643 
L 377.351089 187.354094 
L 377.827624 177.828617 
L 378.304159 176.096712 
L 378.780694 250.568621 
L 379.257229 251.001598 
L 379.733764 250.568621 
L 380.210298 251.434574 
L 384.499112 251.434574 
L 385.452182 117.644923 
L 385.928717 222.858144 
L 386.405252 118.077899 
L 386.881787 221.559215 
L 387.358322 118.077899 
L 387.834857 116.778971 
L 388.311391 223.29112 
L 388.787926 118.077899 
L 389.264461 222.858144 
L 389.740996 118.077899 
L 390.217531 118.077899 
L 390.694066 220.693262 
L 391.170601 116.345995 
L 391.647136 222.858144 
L 392.12367 116.778971 
L 392.600205 116.345995 
L 393.07674 222.858144 
L 393.553275 118.510876 
L 394.02981 251.001598 
L 394.506345 251.434574 
L 396.889019 251.434574 
L 397.365554 251.001598 
L 397.842089 251.434574 
L 398.795159 120.24278 
L 399.271694 120.675757 
L 399.748229 223.29112 
L 400.224763 121.108733 
L 400.701298 224.157072 
L 401.177833 223.724096 
L 401.654368 176.096712 
L 402.130903 179.560522 
L 402.607438 176.096712 
L 403.083973 250.568621 
L 403.560508 251.001598 
L 404.037042 250.568621 
L 404.513577 251.001598 
L 404.990112 250.568621 
L 405.466647 251.001598 
L 405.943182 251.001598 
L 406.419717 250.568621 
L 406.896252 251.001598 
L 407.372787 250.568621 
L 408.802391 250.568621 
L 409.278926 251.001598 
L 409.755461 251.001598 
L 410.231996 250.568621 
L 411.6616 250.568621 
L 412.138135 251.001598 
L 412.61467 250.568621 
L 413.091205 250.568621 
L 413.56774 251.001598 
L 414.044275 250.568621 
L 415.473879 250.568621 
L 415.950414 251.434574 
L 416.426949 250.568621 
L 416.903484 250.568621 
L 417.856554 251.434574 
L 418.333089 251.001598 
L 418.809624 251.434574 
L 419.286159 250.568621 
L 419.762693 251.001598 
L 420.239228 251.001598 
L 420.715763 250.568621 
L 421.192298 251.434574 
L 421.668833 251.434574 
L 422.145368 193.848737 
L 422.621903 185.622189 
L 423.098438 184.756237 
L 423.574972 176.096712 
L 424.051507 178.69457 
L 424.528042 179.560522 
L 425.004577 175.23076 
L 425.481112 177.828617 
L 425.957647 179.127546 
L 426.434182 251.434574 
L 427.863786 251.434574 
L 428.816856 121.108733 
L 429.293391 223.724096 
L 429.769926 223.29112 
L 430.246461 118.943852 
L 430.722996 118.943852 
L 431.19953 222.858144 
L 431.676065 118.943852 
L 432.1526 119.809804 
L 432.629135 223.29112 
L 433.10567 118.510876 
L 433.582205 223.29112 
L 434.05874 118.943852 
L 434.535275 118.943852 
L 435.01181 221.992191 
L 435.488344 116.778971 
L 435.964879 117.644923 
L 436.441414 118.077899 
L 436.917949 223.29112 
L 437.394484 118.077899 
L 437.871019 117.211947 
L 438.347554 222.858144 
L 438.824089 116.345995 
L 439.300623 117.211947 
L 439.777158 251.434574 
L 443.589437 251.434574 
L 444.542507 121.974685 
L 445.019042 121.108733 
L 445.495577 223.724096 
L 445.972112 219.82731 
L 446.448647 122.407662 
L 446.925181 219.82731 
L 447.401716 224.157072 
L 447.878251 179.993498 
L 448.354786 177.395641 
L 448.831321 251.434574 
L 449.784391 250.568621 
L 450.73746 250.568621 
L 451.213995 251.001598 
L 451.69053 251.001598 
L 452.167065 250.568621 
L 452.6436 250.568621 
L 452.6436 250.568621 
" style="fill:none;stroke:#000000;stroke-width:0.5;"/>
   </g>
   <g id="line2d_23">
    <path clip-path="url(#pf42bdc9386)" d="M 41.394 247.913545 
L 41.870535 247.923416 
L 42.34707 253.807867 
L 42.823605 247.432364 
L 43.30014 247.540858 
L 44.253209 247.291833 
L 44.729744 247.240054 
L 45.206279 253.166412 
L 45.682814 247.141431 
L 46.159349 246.734194 
L 46.635884 246.837753 
L 47.112419 246.790909 
L 48.542023 247.002962 
L 49.495093 247.059677 
L 49.971628 240.679239 
L 50.448163 247.121328 
L 50.924698 247.173107 
L 51.401232 253.203024 
L 51.877767 253.254804 
L 52.354302 246.874365 
L 53.783907 246.93108 
L 54.736977 246.827521 
L 55.213511 240.178315 
L 55.690046 245.835905 
L 56.166581 194.956332 
L 56.643116 197.073618 
L 57.119651 197.001078 
L 58.072721 195.315542 
L 58.549256 194.469781 
L 59.502325 191.358354 
L 59.97886 190.459955 
L 60.455395 188.843385 
L 61.408465 184.7989 
L 73.321837 184.7989 
L 73.798372 264.781227 
L 74.274907 258.146206 
L 74.751441 261.517528 
L 75.227976 257.490661 
L 75.704511 262.511304 
L 76.181046 262.621197 
L 76.657581 258.3983 
L 77.610651 258.505494 
L 78.087186 184.7989 
L 82.376 184.878678 
L 82.852534 268.622353 
L 83.329069 259.081653 
L 83.805604 255.706723 
L 84.282139 250.914695 
L 84.758674 256.527504 
L 85.235209 256.421072 
L 85.711744 256.529566 
L 86.188279 250.35131 
L 86.664813 256.484785 
L 87.141348 250.20297 
L 87.617883 250.259685 
L 88.094418 249.904227 
L 88.570953 250.064501 
L 89.047488 250.012722 
L 89.524023 249.501927 
L 90.000558 243.528725 
L 90.477092 249.558642 
L 90.953627 243.225047 
L 91.430162 243.4371 
L 91.906697 249.518796 
L 92.383232 243.28876 
L 92.859767 249.318677 
L 93.812837 249.328548 
L 94.289371 243.046733 
L 94.765906 248.973091 
L 95.242441 248.973091 
L 95.718976 242.592653 
L 96.195511 248.57079 
L 97.148581 248.627505 
L 97.625116 248.168489 
L 98.101651 248.220269 
L 98.578185 241.886674 
L 99.05472 247.709473 
L 99.531255 247.61085 
L 100.00779 247.04334 
L 100.484325 246.784443 
L 101.437395 246.049661 
L 101.91393 200.277515 
L 102.390464 203.467359 
L 102.866999 204.048737 
L 103.343534 202.343299 
L 103.820069 199.249363 
L 104.296604 199.465821 
L 106.202743 196.18941 
L 107.155813 192.876689 
L 109.061953 187.044451 
L 109.538488 184.819793 
L 112.397697 184.7989 
L 119.069185 184.7989 
L 119.54572 265.127785 
L 120.022255 264.304969 
L 120.49879 263.240548 
L 120.975325 267.580745 
L 121.45186 262.58752 
L 121.928394 262.571301 
L 122.881464 271.842984 
L 123.357999 262.827486 
L 123.834534 184.7989 
L 125.264139 184.7989 
L 125.740673 185.112052 
L 126.217208 185.651324 
L 126.693743 186.56605 
L 127.170278 186.988349 
L 127.646813 187.904239 
L 128.123348 188.326537 
L 128.599883 278.580285 
L 129.076418 277.35132 
L 129.552952 262.496221 
L 130.029487 255.89592 
L 130.506022 255.737709 
L 131.459092 255.172261 
L 131.935627 255.327599 
L 132.412162 255.018986 
L 132.888697 248.840729 
L 133.365232 254.922425 
L 133.841766 248.692389 
L 134.318301 248.697325 
L 134.794836 248.388711 
L 135.271371 248.497205 
L 135.747906 248.089969 
L 137.177511 248.198463 
L 137.654045 254.28016 
L 138.13058 254.233316 
L 138.607115 247.899721 
L 139.08365 247.852877 
L 139.560185 253.7743 
L 140.03672 247.388926 
L 140.513255 253.413907 
L 141.466324 253.367063 
L 141.942859 246.92991 
L 144.325534 246.671013 
L 144.802069 252.540656 
L 145.755138 252.437097 
L 146.231673 251.96821 
L 147.184743 251.709313 
L 147.661278 201.785316 
L 148.137813 204.614869 
L 148.614348 204.310792 
L 149.090883 203.656957 
L 149.567417 200.462373 
L 150.043952 199.442453 
L 150.520487 200.095124 
L 150.997022 199.39328 
L 151.473557 199.042358 
L 152.426627 197.285446 
L 152.903162 195.640769 
L 153.856231 193.666236 
L 154.332766 193.5341 
L 154.809301 192.357319 
L 155.762371 189.196719 
L 156.238906 185.894613 
L 156.715441 184.7989 
L 164.816533 184.7989 
L 165.293068 264.101084 
L 165.769603 267.261303 
L 166.246138 262.073052 
L 166.722673 262.248341 
L 167.199208 267.085439 
L 168.628813 267.040942 
L 169.105347 262.182945 
L 169.581882 184.7989 
L 171.964557 184.817297 
L 172.917626 185.974139 
L 173.870696 188.154514 
L 174.347231 277.738293 
L 174.823766 276.93565 
L 175.300301 267.619231 
L 176.253371 255.21498 
L 176.729905 261.183246 
L 177.20644 254.741157 
L 177.682975 254.375828 
L 178.15951 254.427607 
L 178.636045 254.114058 
L 179.11258 254.269396 
L 179.589115 253.960782 
L 180.06565 254.012562 
L 180.542184 247.580344 
L 181.018719 253.553546 
L 181.495254 253.501766 
L 181.971789 247.116392 
L 182.448324 253.089594 
L 182.924859 253.04275 
L 183.401394 253.146309 
L 183.877929 246.864494 
L 184.354463 246.916273 
L 184.830998 252.889475 
L 185.307533 252.842631 
L 185.784068 246.405478 
L 186.260603 246.306855 
L 186.737138 252.280057 
L 187.213673 252.228277 
L 187.690208 246.255075 
L 188.643277 246.306855 
L 189.119812 252.280057 
L 191.025952 252.228277 
L 191.502487 245.796059 
L 191.979022 245.791124 
L 192.455556 251.665702 
L 192.932091 251.665702 
L 193.408626 197.067742 
L 193.885161 199.344023 
L 194.838231 196.250171 
L 195.314766 195.028956 
L 195.791301 194.489684 
L 196.267835 192.426284 
L 196.74437 191.043661 
L 197.220905 190.362884 
L 197.69744 189.403724 
L 198.65051 186.989402 
L 199.127045 187.368431 
L 199.60358 186.803463 
L 200.080114 184.811895 
L 204.368928 184.7989 
L 210.563882 184.7989 
L 211.040417 251.8583 
L 211.516952 256.502901 
L 212.470021 246.749587 
L 212.946556 252.386685 
L 213.423091 252.568076 
L 213.899626 247.560721 
L 214.376161 247.738941 
L 214.852696 253.394249 
L 215.329231 184.7989 
L 219.618044 184.7989 
L 220.094579 253.274662 
L 220.571114 253.842612 
L 221.047649 242.188619 
L 221.524184 253.715559 
L 222.000719 259.578934 
L 222.477254 260.797247 
L 222.953789 255.187788 
L 223.430324 254.832331 
L 223.906858 254.842202 
L 224.383393 254.486745 
L 224.859928 254.54346 
L 225.336463 254.188002 
L 225.812998 254.192938 
L 226.289533 247.859343 
L 226.766068 247.967838 
L 227.242603 253.945975 
L 227.719137 247.617316 
L 229.625277 247.89102 
L 230.101812 247.328445 
L 230.578347 247.328445 
L 231.054882 253.306583 
L 231.531416 253.461921 
L 232.007951 247.081483 
L 234.390626 247.241756 
L 234.867161 240.908161 
L 235.343695 240.913097 
L 235.82023 246.839455 
L 236.7733 246.792612 
L 237.249835 240.355458 
L 237.72637 246.585494 
L 238.202905 245.85771 
L 238.67944 245.697436 
L 239.155975 195.754084 
L 239.632509 196.416207 
L 240.109044 194.889668 
L 241.062114 190.387415 
L 242.015184 187.347364 
L 242.491719 184.971983 
L 242.968254 184.7989 
L 256.31123 184.7989 
L 256.787765 238.20074 
L 257.2643 240.136682 
L 257.740835 246.867691 
L 258.21737 247.961602 
L 258.693905 253.986035 
L 259.170439 254.216533 
L 259.646974 254.99677 
L 260.123509 249.617896 
L 260.600044 254.800298 
L 261.076579 184.7989 
L 265.365393 184.7989 
L 265.841928 254.048557 
L 266.318463 254.094493 
L 266.794997 242.878919 
L 267.271532 242.900302 
L 268.224602 255.750363 
L 268.701137 249.421703 
L 269.177672 249.066246 
L 269.654207 254.99754 
L 270.130742 248.668881 
L 270.607276 248.725596 
L 271.083811 242.448716 
L 271.560346 248.478633 
L 272.036881 248.483569 
L 272.513416 247.972773 
L 273.466486 247.869215 
L 273.943021 241.53562 
L 274.419556 247.617316 
L 275.372625 247.725811 
L 275.84916 241.345372 
L 276.325695 247.27173 
L 276.80223 247.27173 
L 277.278765 253.198089 
L 277.7553 246.812714 
L 279.184904 246.926144 
L 280.614509 247.034639 
L 281.091044 240.701044 
L 282.044114 240.6542 
L 282.520648 246.627402 
L 282.997183 240.143405 
L 283.473718 239.988067 
L 283.950253 245.702372 
L 284.426788 245.38676 
L 284.903323 195.286188 
L 285.379858 195.68742 
L 286.332927 191.559456 
L 287.285997 185.430016 
L 287.762532 184.816724 
L 291.098276 184.7989 
L 302.058578 184.7989 
L 302.535113 245.736498 
L 303.011648 241.430195 
L 303.488183 248.053474 
L 303.964718 249.085592 
L 304.917788 249.371541 
L 305.394323 244.416465 
L 306.347392 255.877577 
L 306.823927 184.7989 
L 311.112741 184.7989 
L 311.589276 253.096443 
L 312.065811 253.741226 
L 312.542346 242.525652 
L 313.018881 252.617193 
L 313.495416 253.469435 
L 313.97195 259.321662 
L 314.448485 255.292251 
L 314.92502 255.150816 
L 315.401555 248.977495 
L 315.87809 255.11097 
L 316.354625 248.730532 
L 316.83116 248.631909 
L 317.307695 248.167957 
L 317.784229 248.121113 
L 318.260764 247.657162 
L 319.213834 247.662097 
L 319.690369 247.249925 
L 320.643439 247.203081 
L 321.119974 247.104458 
L 321.596508 240.667305 
L 322.073043 246.588727 
L 322.549578 246.536948 
L 323.026113 246.124776 
L 325.408787 246.23327 
L 325.885322 246.285049 
L 326.361857 245.872877 
L 327.314927 245.872877 
L 328.744532 245.821098 
L 329.221067 245.258523 
L 329.697601 251.587182 
L 330.174136 245.098249 
L 331.127206 244.886196 
L 331.603741 250.65228 
L 332.556811 250.482135 
L 333.50988 250.095001 
L 333.986415 250.028415 
L 334.46295 189.384765 
L 334.939485 187.002125 
L 335.41602 185.70837 
L 335.892555 184.7989 
L 345.423252 184.7989 
L 345.899787 251.818829 
L 346.376322 258.782707 
L 346.852857 254.032799 
L 347.329392 253.963084 
L 347.805927 258.743586 
L 348.282462 258.584457 
L 348.758997 258.728746 
L 349.235531 258.295232 
L 349.712066 258.449622 
L 350.188601 253.130541 
L 350.665136 258.624911 
L 351.141671 258.138803 
L 352.094741 258.112505 
L 352.571276 252.595841 
L 353.04781 257.572299 
L 353.524345 251.904305 
L 354.00088 251.89479 
L 354.95395 251.568431 
L 355.430485 256.697717 
L 355.90702 253.025008 
L 356.383555 254.451653 
L 357.336624 253.63763 
L 357.813159 253.755996 
L 358.289694 253.573557 
L 358.766229 253.696859 
L 359.242764 253.257586 
L 360.195834 253.338979 
L 360.672368 259.430547 
L 361.148903 259.543977 
L 361.625438 253.323812 
L 362.578508 253.390399 
L 363.055043 247.118455 
L 363.531578 253.200151 
L 364.961182 253.266738 
L 365.437717 247.036701 
L 366.390787 247.150132 
L 366.867322 247.30547 
L 367.343857 240.873252 
L 367.820392 246.898233 
L 368.296927 246.954948 
L 368.773461 246.646334 
L 369.726531 246.806608 
L 370.203066 246.759765 
L 371.632671 246.971818 
L 372.109206 247.028533 
L 372.58574 253.05845 
L 373.062275 253.208852 
L 373.53881 253.162008 
L 374.015345 246.724855 
L 374.49188 252.547654 
L 374.968415 252.283822 
L 375.44495 251.457415 
L 375.921485 256.907887 
L 376.398019 200.790982 
L 376.874554 202.526827 
L 377.351089 200.86707 
L 379.733764 188.043305 
L 380.210298 186.080359 
L 380.686833 184.882795 
L 381.639903 184.7989 
L 393.553275 184.7989 
L 394.02981 243.987514 
L 394.98288 246.501696 
L 395.935949 247.362713 
L 396.412484 253.30397 
L 396.889019 247.826881 
L 397.365554 248.597604 
L 397.842089 248.695819 
L 398.318624 184.7989 
L 401.654368 184.7989 
L 402.130903 185.838427 
L 402.607438 186.289997 
L 403.083973 265.797088 
L 403.560508 268.918167 
L 404.037042 255.836424 
L 404.513577 255.93083 
L 404.990112 249.335465 
L 405.466647 248.975072 
L 405.943182 249.078631 
L 406.419717 248.816861 
L 407.372787 248.92042 
L 407.849321 248.611806 
L 408.325856 242.231368 
L 408.802391 248.308128 
L 409.278926 248.468402 
L 409.755461 242.186586 
L 410.231996 242.191522 
L 410.708531 248.324998 
L 411.185066 248.324998 
L 411.6616 242.19852 
L 412.138135 248.176658 
L 412.61467 248.233373 
L 413.091205 241.899778 
L 413.56774 247.877916 
L 414.52081 247.98641 
L 414.997345 247.626017 
L 415.950414 247.527394 
L 416.426949 247.53233 
L 416.903484 241.146956 
L 417.380019 241.250514 
L 417.856554 247.176873 
L 418.809624 247.440705 
L 419.286159 253.263505 
L 419.762693 253.113102 
L 420.239228 246.831287 
L 420.715763 252.64915 
L 421.668833 252.121485 
L 422.145368 199.997969 
L 422.621903 202.361954 
L 423.098438 202.154949 
L 424.528042 196.015059 
L 425.004577 194.238245 
L 425.481112 191.40046 
L 425.957647 189.454034 
L 426.434182 185.431263 
L 426.910717 184.7989 
L 439.300623 184.7989 
L 439.777158 249.596886 
L 440.253693 256.466521 
L 440.730228 252.00651 
L 441.206763 253.174083 
L 441.683298 258.83996 
L 443.112902 259.470322 
L 443.589437 259.467622 
L 444.065972 184.7989 
L 448.354786 184.875631 
L 448.831321 267.544439 
L 449.307856 263.468029 
L 449.784391 254.292825 
L 450.260926 255.529216 
L 450.73746 256.019582 
L 451.69053 255.500977 
L 452.167065 249.219162 
L 452.6436 255.244143 
L 452.6436 255.244143 
" style="fill:none;stroke:#ff0000;stroke-width:0.5;"/>
   </g>
   <g id="patch_3">
    <path d="M 41.394 286.692 
L 41.394 108.23428 
" style="fill:none;stroke:#f0f0f0;stroke-linecap:square;stroke-linejoin:miter;stroke-width:3;"/>
   </g>
   <g id="patch_4">
    <path d="M 452.6436 286.692 
L 452.6436 108.23428 
" style="fill:none;stroke:#f0f0f0;stroke-linecap:square;stroke-linejoin:miter;stroke-width:3;"/>
   </g>
   <g id="patch_5">
    <path d="M 41.394 286.692 
L 452.6436 286.692 
" style="fill:none;stroke:#f0f0f0;stroke-linecap:square;stroke-linejoin:miter;stroke-width:3;"/>
   </g>
   <g id="patch_6">
    <path d="M 41.394 108.23428 
L 452.6436 108.23428 
" style="fill:none;stroke:#f0f0f0;stroke-linecap:square;stroke-linejoin:miter;stroke-width:3;"/>
   </g>
   <g id="legend_1">
    <g id="patch_7">
     <path d="M 46.626463 93.636234 
L 447.411137 93.636234 
Q 449.743537 93.636234 449.743537 91.303834 
L 449.743537 75.352404 
Q 449.743537 73.020004 447.411137 73.020004 
L 46.626463 73.020004 
Q 44.294063 73.020004 44.294063 75.352404 
L 44.294063 91.303834 
Q 44.294063 93.636234 46.626463 93.636234 
z
" style="fill:#f0f0f0;opacity:0.5;stroke:#cccccc;stroke-linejoin:miter;stroke-width:0.5;"/>
    </g>
    <g id="line2d_24">
     <path d="M 48.958863 82.464402 
L 72.282863 82.464402 
" style="fill:none;stroke:#000000;stroke-width:0.5;"/>
    </g>
    <g id="line2d_25"/>
    <g id="text_16">
     <!-- Measurement -->
     <defs>
      <path d="M 9.8125 72.90625 
L 24.515625 72.90625 
L 43.109375 23.296875 
L 61.8125 72.90625 
L 76.515625 72.90625 
L 76.515625 0 
L 66.890625 0 
L 66.890625 64.015625 
L 48.09375 14.015625 
L 38.1875 14.015625 
L 19.390625 64.015625 
L 19.390625 0 
L 9.8125 0 
z
" id="DejaVuSans-4d"/>
      <path d="M 44.28125 53.078125 
L 44.28125 44.578125 
Q 40.484375 46.53125 36.375 47.5 
Q 32.28125 48.484375 27.875 48.484375 
Q 21.1875 48.484375 17.84375 46.4375 
Q 14.5 44.390625 14.5 40.28125 
Q 14.5 37.15625 16.890625 35.375 
Q 19.28125 33.59375 26.515625 31.984375 
L 29.59375 31.296875 
Q 39.15625 29.25 43.1875 25.515625 
Q 47.21875 21.78125 47.21875 15.09375 
Q 47.21875 7.46875 41.1875 3.015625 
Q 35.15625 -1.421875 24.609375 -1.421875 
Q 20.21875 -1.421875 15.453125 -0.5625 
Q 10.6875 0.296875 5.421875 2 
L 5.421875 11.28125 
Q 10.40625 8.6875 15.234375 7.390625 
Q 20.0625 6.109375 24.8125 6.109375 
Q 31.15625 6.109375 34.5625 8.28125 
Q 37.984375 10.453125 37.984375 14.40625 
Q 37.984375 18.0625 35.515625 20.015625 
Q 33.0625 21.96875 24.703125 23.78125 
L 21.578125 24.515625 
Q 13.234375 26.265625 9.515625 29.90625 
Q 5.8125 33.546875 5.8125 39.890625 
Q 5.8125 47.609375 11.28125 51.796875 
Q 16.75 56 26.8125 56 
Q 31.78125 56 36.171875 55.265625 
Q 40.578125 54.546875 44.28125 53.078125 
z
" id="DejaVuSans-73"/>
      <path d="M 54.890625 33.015625 
L 54.890625 0 
L 45.90625 0 
L 45.90625 32.71875 
Q 45.90625 40.484375 42.875 44.328125 
Q 39.84375 48.1875 33.796875 48.1875 
Q 26.515625 48.1875 22.3125 43.546875 
Q 18.109375 38.921875 18.109375 30.90625 
L 18.109375 0 
L 9.078125 0 
L 9.078125 54.6875 
L 18.109375 54.6875 
L 18.109375 46.1875 
Q 21.34375 51.125 25.703125 53.5625 
Q 30.078125 56 35.796875 56 
Q 45.21875 56 50.046875 50.171875 
Q 54.890625 44.34375 54.890625 33.015625 
z
" id="DejaVuSans-6e"/>
     </defs>
     <g transform="translate(81.612463 86.546102)scale(0.11662 -0.11662)">
      <use xlink:href="#DejaVuSans-4d"/>
      <use x="86.279297" xlink:href="#DejaVuSans-65"/>
      <use x="147.802734" xlink:href="#DejaVuSans-61"/>
      <use x="209.082031" xlink:href="#DejaVuSans-73"/>
      <use x="261.181641" xlink:href="#DejaVuSans-75"/>
      <use x="324.560547" xlink:href="#DejaVuSans-72"/>
      <use x="365.642578" xlink:href="#DejaVuSans-65"/>
      <use x="427.166016" xlink:href="#DejaVuSans-6d"/>
      <use x="524.578125" xlink:href="#DejaVuSans-65"/>
      <use x="586.101562" xlink:href="#DejaVuSans-6e"/>
      <use x="649.480469" xlink:href="#DejaVuSans-74"/>
     </g>
    </g>
    <g id="line2d_26">
     <path d="M 185.251199 82.464402 
L 208.575199 82.464402 
" style="fill:none;stroke:#ff0000;stroke-width:0.5;"/>
    </g>
    <g id="line2d_27"/>
    <g id="text_17">
     <!-- Prediction(MAE = 5.104; Score = 0.51) -->
     <defs>
      <path d="M 19.671875 64.796875 
L 19.671875 37.40625 
L 32.078125 37.40625 
Q 38.96875 37.40625 42.71875 40.96875 
Q 46.484375 44.53125 46.484375 51.125 
Q 46.484375 57.671875 42.71875 61.234375 
Q 38.96875 64.796875 32.078125 64.796875 
z
M 9.8125 72.90625 
L 32.078125 72.90625 
Q 44.34375 72.90625 50.609375 67.359375 
Q 56.890625 61.8125 56.890625 51.125 
Q 56.890625 40.328125 50.609375 34.8125 
Q 44.34375 29.296875 32.078125 29.296875 
L 19.671875 29.296875 
L 19.671875 0 
L 9.8125 0 
z
" id="DejaVuSans-50"/>
      <path d="M 45.40625 46.390625 
L 45.40625 75.984375 
L 54.390625 75.984375 
L 54.390625 0 
L 45.40625 0 
L 45.40625 8.203125 
Q 42.578125 3.328125 38.25 0.953125 
Q 33.9375 -1.421875 27.875 -1.421875 
Q 17.96875 -1.421875 11.734375 6.484375 
Q 5.515625 14.40625 5.515625 27.296875 
Q 5.515625 40.1875 11.734375 48.09375 
Q 17.96875 56 27.875 56 
Q 33.9375 56 38.25 53.625 
Q 42.578125 51.265625 45.40625 46.390625 
z
M 14.796875 27.296875 
Q 14.796875 17.390625 18.875 11.75 
Q 22.953125 6.109375 30.078125 6.109375 
Q 37.203125 6.109375 41.296875 11.75 
Q 45.40625 17.390625 45.40625 27.296875 
Q 45.40625 37.203125 41.296875 42.84375 
Q 37.203125 48.484375 30.078125 48.484375 
Q 22.953125 48.484375 18.875 42.84375 
Q 14.796875 37.203125 14.796875 27.296875 
z
" id="DejaVuSans-64"/>
      <path d="M 31 75.875 
Q 24.46875 64.65625 21.28125 53.65625 
Q 18.109375 42.671875 18.109375 31.390625 
Q 18.109375 20.125 21.3125 9.0625 
Q 24.515625 -2 31 -13.1875 
L 23.1875 -13.1875 
Q 15.875 -1.703125 12.234375 9.375 
Q 8.59375 20.453125 8.59375 31.390625 
Q 8.59375 42.28125 12.203125 53.3125 
Q 15.828125 64.359375 23.1875 75.875 
z
" id="DejaVuSans-28"/>
      <path d="M 9.8125 72.90625 
L 55.90625 72.90625 
L 55.90625 64.59375 
L 19.671875 64.59375 
L 19.671875 43.015625 
L 54.390625 43.015625 
L 54.390625 34.71875 
L 19.671875 34.71875 
L 19.671875 8.296875 
L 56.78125 8.296875 
L 56.78125 0 
L 9.8125 0 
z
" id="DejaVuSans-45"/>
      <path d="M 10.59375 45.40625 
L 73.1875 45.40625 
L 73.1875 37.203125 
L 10.59375 37.203125 
z
M 10.59375 25.484375 
L 73.1875 25.484375 
L 73.1875 17.1875 
L 10.59375 17.1875 
z
" id="DejaVuSans-3d"/>
      <path d="M 10.6875 12.40625 
L 21 12.40625 
L 21 0 
L 10.6875 0 
z
" id="DejaVuSans-2e"/>
      <path d="M 11.71875 51.703125 
L 22.015625 51.703125 
L 22.015625 39.3125 
L 11.71875 39.3125 
z
M 11.71875 12.40625 
L 22.015625 12.40625 
L 22.015625 4 
L 14.015625 -11.625 
L 7.71875 -11.625 
L 11.71875 4 
z
" id="DejaVuSans-3b"/>
      <path d="M 53.515625 70.515625 
L 53.515625 60.890625 
Q 47.90625 63.578125 42.921875 64.890625 
Q 37.9375 66.21875 33.296875 66.21875 
Q 25.25 66.21875 20.875 63.09375 
Q 16.5 59.96875 16.5 54.203125 
Q 16.5 49.359375 19.40625 46.890625 
Q 22.3125 44.4375 30.421875 42.921875 
L 36.375 41.703125 
Q 47.40625 39.59375 52.65625 34.296875 
Q 57.90625 29 57.90625 20.125 
Q 57.90625 9.515625 50.796875 4.046875 
Q 43.703125 -1.421875 29.984375 -1.421875 
Q 24.8125 -1.421875 18.96875 -0.25 
Q 13.140625 0.921875 6.890625 3.21875 
L 6.890625 13.375 
Q 12.890625 10.015625 18.65625 8.296875 
Q 24.421875 6.59375 29.984375 6.59375 
Q 38.421875 6.59375 43.015625 9.90625 
Q 47.609375 13.234375 47.609375 19.390625 
Q 47.609375 24.75 44.3125 27.78125 
Q 41.015625 30.8125 33.5 32.328125 
L 27.484375 33.5 
Q 16.453125 35.6875 11.515625 40.375 
Q 6.59375 45.0625 6.59375 53.421875 
Q 6.59375 63.09375 13.40625 68.65625 
Q 20.21875 74.21875 32.171875 74.21875 
Q 37.3125 74.21875 42.625 73.28125 
Q 47.953125 72.359375 53.515625 70.515625 
z
" id="DejaVuSans-53"/>
      <path d="M 8.015625 75.875 
L 15.828125 75.875 
Q 23.140625 64.359375 26.78125 53.3125 
Q 30.421875 42.28125 30.421875 31.390625 
Q 30.421875 20.453125 26.78125 9.375 
Q 23.140625 -1.703125 15.828125 -13.1875 
L 8.015625 -13.1875 
Q 14.5 -2 17.703125 9.0625 
Q 20.90625 20.125 20.90625 31.390625 
Q 20.90625 42.671875 17.703125 53.65625 
Q 14.5 64.65625 8.015625 75.875 
z
" id="DejaVuSans-29"/>
     </defs>
     <g transform="translate(217.904799 86.546102)scale(0.11662 -0.11662)">
      <use xlink:href="#DejaVuSans-50"/>
      <use x="60.287109" xlink:href="#DejaVuSans-72"/>
      <use x="101.369141" xlink:href="#DejaVuSans-65"/>
      <use x="162.892578" xlink:href="#DejaVuSans-64"/>
      <use x="226.369141" xlink:href="#DejaVuSans-69"/>
      <use x="254.152344" xlink:href="#DejaVuSans-63"/>
      <use x="309.132812" xlink:href="#DejaVuSans-74"/>
      <use x="348.341797" xlink:href="#DejaVuSans-69"/>
      <use x="376.125" xlink:href="#DejaVuSans-6f"/>
      <use x="437.306641" xlink:href="#DejaVuSans-6e"/>
      <use x="500.685547" xlink:href="#DejaVuSans-28"/>
      <use x="539.699219" xlink:href="#DejaVuSans-4d"/>
      <use x="625.978516" xlink:href="#DejaVuSans-41"/>
      <use x="694.386719" xlink:href="#DejaVuSans-45"/>
      <use x="757.570312" xlink:href="#DejaVuSans-20"/>
      <use x="789.357422" xlink:href="#DejaVuSans-3d"/>
      <use x="873.146484" xlink:href="#DejaVuSans-20"/>
      <use x="904.933594" xlink:href="#DejaVuSans-35"/>
      <use x="968.556641" xlink:href="#DejaVuSans-2e"/>
      <use x="1000.34375" xlink:href="#DejaVuSans-31"/>
      <use x="1063.966797" xlink:href="#DejaVuSans-30"/>
      <use x="1127.589844" xlink:href="#DejaVuSans-34"/>
      <use x="1191.212891" xlink:href="#DejaVuSans-3b"/>
      <use x="1224.904297" xlink:href="#DejaVuSans-20"/>
      <use x="1256.691406" xlink:href="#DejaVuSans-53"/>
      <use x="1320.167969" xlink:href="#DejaVuSans-63"/>
      <use x="1375.148438" xlink:href="#DejaVuSans-6f"/>
      <use x="1436.330078" xlink:href="#DejaVuSans-72"/>
      <use x="1477.412109" xlink:href="#DejaVuSans-65"/>
      <use x="1538.935547" xlink:href="#DejaVuSans-20"/>
      <use x="1570.722656" xlink:href="#DejaVuSans-3d"/>
      <use x="1654.511719" xlink:href="#DejaVuSans-20"/>
      <use x="1686.298828" xlink:href="#DejaVuSans-30"/>
      <use x="1749.921875" xlink:href="#DejaVuSans-2e"/>
      <use x="1781.708984" xlink:href="#DejaVuSans-35"/>
      <use x="1845.332031" xlink:href="#DejaVuSans-31"/>
      <use x="1908.955078" xlink:href="#DejaVuSans-29"/>
     </g>
    </g>
   </g>
  </g>
 </g>
 <defs>
  <clipPath id="pf42bdc9386">
   <rect height="178.45772" width="411.2496" x="41.394" y="108.23428"/>
  </clipPath>
 </defs>
</svg>
